<?xml version="1.0" encoding="UTF-8" standalone="no"?>
<!-- Created with Inkscape (http://www.inkscape.org/) -->

<svg
   xmlns:dc="http://purl.org/dc/elements/1.1/"
   xmlns:cc="http://creativecommons.org/ns#"
   xmlns:rdf="http://www.w3.org/1999/02/22-rdf-syntax-ns#"
   xmlns:svg="http://www.w3.org/2000/svg"
   xmlns="http://www.w3.org/2000/svg"
   xmlns:sodipodi="http://sodipodi.sourceforge.net/DTD/sodipodi-0.dtd"
   xmlns:inkscape="http://www.inkscape.org/namespaces/inkscape"
   width="59.00211mm"
   height="14.287499mm"
   viewBox="0 0 59.00211 14.287499"
   version="1.1"
   id="svg8"
   inkscape:version="0.92.5 (2060ec1f9f, 2020-04-08)"
   sodipodi:docname="brandeis_logo.svg">
  <defs
     id="defs2">
    <clipPath
       id="clip0_5_403">
      <rect
         id="rect1091"
         transform="translate(60.7891)"
         height="54"
         width="162.211"
         x="0"
         y="0"
         style="fill:#ffffff" />
    </clipPath>
  </defs>
  <sodipodi:namedview
     id="base"
     pagecolor="#ffffff"
     bordercolor="#666666"
     borderopacity="1.0"
     inkscape:pageopacity="0.0"
     inkscape:pageshadow="2"
     inkscape:zoom="3.959798"
     inkscape:cx="115.18949"
     inkscape:cy="35.880495"
     inkscape:document-units="mm"
     inkscape:current-layer="layer1"
     showgrid="false"
     inkscape:window-width="1920"
     inkscape:window-height="1017"
     inkscape:window-x="1912"
     inkscape:window-y="-8"
     inkscape:window-maximized="1"
     fit-margin-top="0"
     fit-margin-left="0"
     fit-margin-right="0"
     fit-margin-bottom="0" />
  <metadata
     id="metadata5">
    <rdf:RDF>
      <cc:Work
         rdf:about="">
        <dc:format>image/svg+xml</dc:format>
        <dc:type
           rdf:resource="http://purl.org/dc/dcmitype/StillImage" />
        <dc:title></dc:title>
      </cc:Work>
    </rdf:RDF>
  </metadata>
  <g
     inkscape:label="Layer 1"
     inkscape:groupmode="layer"
     id="layer1"
     transform="translate(-115.6418,-184.02292)">
    <g
       style="fill:#ffffff;stroke:none;fill-opacity:1"
       id="g1242"
       transform="matrix(0.26458333,0,0,0.26458333,115.6418,184.02292)">
      <g
         id="g817"
         clip-path="url(#clip0_5_403)"
         style="stroke:none;fill:#ffffff;fill-opacity:1">
        <path
           id="path815"
           d="m 70.9359,44.9847 c 0,-0.8237 -0.1828,-1.0525 -1.3712,-1.1898 v -0.3203 h 3.3365 v 0.3203 c -1.1426,0.1373 -1.3254,0.3661 -1.3254,1.1898 v 4.8509 c 0,2.6542 -1.554,4.1644 -3.9765,4.1644 -2.6966,0 -3.9307,-1.6017 -3.9307,-4.1644 v -4.8509 c 0,-0.8237 -0.1828,-1.0525 -1.2341,-1.1898 v -0.3203 h 3.9308 v 0.3203 c -1.0513,0.1373 -1.2341,0.3661 -1.2341,1.1898 v 4.7136 c 0,2.3797 0.9141,3.6153 2.7881,3.6153 2.011,0 2.9709,-1.3272 2.9709,-3.6153 z m 18.9223,0 c 0,-0.8237 -0.1371,-1.0525 -1.3255,-1.1898 v -0.3203 h 3.2909 v 0.3203 c -1.097,0.1373 -1.3255,0.3661 -1.3255,1.1898 v 8.8322 H 89.584 l -5.6676,-8.9694 v 7.505 c 0,0.8238 0.1371,1.0526 1.3255,1.1899 v 0.3203 H 81.951 v -0.3203 c 1.097,-0.1373 1.3255,-0.3661 1.3255,-1.1899 v -7.322 c 0,-0.8237 -0.2285,-1.0525 -1.3255,-1.1898 v -0.3661 h 3.0166 L 89.8125,51.3 Z m 13.7118,7.3678 c 0,0.8238 0.183,1.0526 1.234,1.1899 v 0.3203 h -3.931 v -0.3203 c 1.052,-0.1373 1.234,-0.3661 1.234,-1.1899 v -7.322 c 0,-0.8237 -0.182,-1.0525 -1.234,-1.1898 v -0.3661 h 3.931 v 0.3203 c -1.097,0.1373 -1.234,0.3661 -1.234,1.1898 z m 11.335,-7.6423 c -0.183,-0.5034 -0.366,-0.6865 -1.234,-0.9153 v -0.3203 h 3.976 v 0.3203 c -1.096,0.1373 -1.188,0.5949 -0.914,1.3271 l 2.469,6.956 h 0.045 l 2.24,-6.7272 c 0.274,-0.9152 0.228,-1.4186 -0.96,-1.5559 v -0.3203 h 3.337 v 0.3203 c -1.006,0.1373 -1.28,0.2746 -1.463,0.9153 l -3.199,9.1983 h -0.869 z m 20.065,3.6152 h 1.326 c 0.914,0 1.462,-0.3203 1.599,-1.5101 h 0.412 v 3.5694 h -0.412 c -0.137,-1.1898 -0.685,-1.5101 -1.599,-1.5101 h -1.326 v 4.3932 h 2.742 c 1.052,0 1.783,-0.6407 1.92,-1.8305 h 0.411 l -0.137,2.3796 h -7.633 v -0.2745 c 1.052,-0.1373 1.235,-0.3661 1.235,-1.1899 v -7.322 c 0,-0.8237 -0.183,-1.0525 -1.235,-1.1898 v -0.3204 h 7.496 l 0.092,2.4255 h -0.457 c -0.138,-1.1899 -0.823,-1.8305 -1.829,-1.8305 h -2.605 v 4.3017 z m 19.425,0.778 2.194,3.0661 c 0.411,0.5949 0.96,1.0525 1.6,1.3729 v 0.3203 h -2.148 c -0.457,-0.4119 -0.869,-0.8695 -1.189,-1.4186 l -2.057,-3.1577 h -1.005 v 3.0204 c 0,0.8237 0.183,1.0525 1.188,1.1898 v 0.3203 h -3.93 v -0.2745 c 1.051,-0.1373 1.234,-0.3661 1.234,-1.1899 v -7.322 c 0,-0.8237 -0.183,-1.0525 -1.234,-1.1898 v -0.3204 h 4.387 c 2.24,0 3.383,1.1441 3.383,2.7916 0.091,1.144 -0.503,2.3796 -2.423,2.7915 z m -1.554,-0.3661 c 2.011,0 2.514,-1.0526 2.514,-2.3339 0,-1.1898 -0.503,-2.3797 -2.24,-2.3797 h -1.325 v 4.7136 z m 20.842,2.1966 c 0,1.8763 -1.417,3.0203 -3.428,3.0203 -1.051,0 -2.102,-0.2745 -3.016,-0.7322 l -0.138,-2.6084 h 0.412 c 0.228,2.3339 1.6,2.7915 2.697,2.7915 1.005,0.0915 1.873,-0.6865 1.965,-1.6932 v -0.2746 c 0,-1.2356 -1.143,-1.8763 -2.24,-2.3339 -1.508,-0.6407 -2.696,-1.4644 -2.696,-3.0661 0,-1.6017 1.234,-2.7458 3.245,-2.7458 0.96,0 1.874,0.2288 2.742,0.6407 l 0.137,2.4712 h -0.411 c -0.274,-1.7848 -1.143,-2.5627 -2.377,-2.5627 -1.051,0 -1.782,0.5034 -1.782,1.6474 0,1.1441 0.868,1.739 1.919,2.1509 1.463,0.6407 2.971,1.6017 2.971,3.2949 z m 11.747,1.4186 c 0,0.8238 0.182,1.0526 1.188,1.1899 v 0.3203 h -3.931 v -0.3203 c 1.052,-0.1373 1.234,-0.3661 1.234,-1.1899 v -7.322 c 0,-0.8237 -0.182,-1.0525 -1.234,-1.1898 v -0.3661 h 3.931 v 0.3203 c -1.051,0.1373 -1.188,0.3661 -1.188,1.1898 z m 18.282,-8.8779 0.091,2.4254 h -0.411 c -0.137,-1.1898 -0.823,-1.8305 -1.828,-1.8305 h -1.051 v 8.283 c 0,0.8238 0.182,1.0526 1.188,1.1899 v 0.3203 h -3.931 v -0.3203 c 1.052,-0.1373 1.234,-0.3661 1.234,-1.1899 v -8.3288 h -1.051 c -1.051,0 -1.691,0.6407 -1.828,1.8305 h -0.412 l 0.092,-2.4254 z m 9.918,1.2356 c -0.228,-0.4577 -0.594,-0.778 -1.051,-0.9153 v -0.3203 h 3.611 v 0.3203 c -1.097,0.1373 -0.914,0.6407 -0.549,1.3271 l 2.103,4.0729 h 0.046 l 1.919,-4.0271 c 0.366,-0.7322 0.229,-1.2814 -0.823,-1.4186 v -0.3204 h 3.017 v 0.3204 c -0.731,0.1372 -1.051,0.2745 -1.325,0.9152 l -2.377,4.9881 v 2.6085 c 0,0.8237 0.183,1.0526 1.188,1.1898 v 0.3204 h -3.93 v -0.3204 c 1.051,-0.1372 1.234,-0.3661 1.234,-1.1898 V 50.339 Z M 86.0646,34.4593 V 33.178 l 3.1537,-0.5492 V 14.461 h -2.8795 v -1.2813 l 8.4099,-2.0594 0.0915,3.6611 c 0.777,-0.6407 2.6966,-2.517 4.4334,-2.9746 1.9194,-0.5034 3.4734,0.2746 3.9304,1.8763 0.183,0.7779 0.275,1.6016 0.183,2.3796 0,0.0915 -5.6217,2.3339 -5.6217,2.3339 l 0.0458,-0.183 c 0.1828,-1.2814 -0.0458,-2.1967 -0.5942,-2.4712 -0.0914,-0.0458 -0.2286,-0.0916 -0.3657,-0.0916 -0.6856,0 -1.6911,0.595 -2.011,0.8238 l -0.0457,0.0457 V 32.583 l 3.0623,0.5492 v 1.2814 H 86.0646 Z M 199.279,7.96271 c -1.92,0 -3.474,-1.55593 -3.474,-3.47796 0,-0.91526 0.366,-1.83051 1.005,-2.47119 1.326,-1.372882 3.474,-1.372882 4.845,-0.04576 l 0.046,0.04576 c 0.64,0.64068 1.006,1.55593 1.006,2.47119 0.045,1.92203 -1.509,3.47796 -3.428,3.47796 z m -5.851,26.49659 v -1.3271 l 3.108,-0.5492 V 14.461 h -2.879 v -1.2813 l 8.41,-2.0136 V 32.583 l 2.971,0.5492 v 1.2814 z m 20.842,0.4577 c -2.377,-0.0458 -4.753,-0.595 -6.901,-1.6017 l -0.046,-0.0458 -0.457,-6.178 h 1.554 v 0.0916 c 0.64,3.7067 2.605,5.6745 5.667,5.6745 1.783,0.1373 3.337,-1.2356 3.474,-3.0203 v -0.4119 c 0,-0.9152 -0.411,-1.8305 -1.143,-2.4254 -0.685,-0.6407 -1.782,-1.2356 -3.428,-1.922 -3.976,-1.6475 -6.261,-3.3407 -6.261,-7.1848 -0.046,-1.739 0.731,-3.4322 2.102,-4.5305 1.417,-1.1898 3.52,-1.7847 5.988,-1.7847 2.239,0 4.433,0.5034 6.49,1.3728 l 0.046,0.0458 0.457,5.9034 h -1.509 v -0.0915 c -0.822,-3.3407 -2.788,-5.2627 -5.439,-5.2627 -1.554,0 -3.199,0.9152 -3.199,2.9288 0,2.2881 2.102,3.0661 3.931,3.7525 1.965,0.778 4.022,1.6932 5.393,2.9746 1.325,1.1898 2.057,2.883 2.011,4.6678 0,1.0068 -0.229,2.0135 -0.686,2.883 -0.457,0.8695 -1.051,1.6017 -1.828,2.1967 -1.737,1.2813 -3.885,1.922 -6.033,1.8762 m -93.195,-2.7915 h -3.656 V 17.7102 c 0.091,-1.6933 -0.594,-3.3407 -1.783,-4.4848 -1.142,-1.0525 -2.834,-1.6017 -4.799,-1.6017 -2.148,0 -4.799,0.5492 -6.262,1.4644 l -0.091,0.0458 0.777,1.4186 0.091,-0.0457 c 2.149,-0.8237 4.388,-0.5492 5.302,0.3203 0.96,0.8695 1.326,2.2882 1.326,4.3932 v 1.9221 c -1.234,0.4576 -3.245,1.144 -5.165,1.8762 -2.88,1.0983 -6.856,2.4255 -6.81,6.4068 0.045,1.4187 0.594,2.7915 1.554,3.8441 2.102,2.2424 5.713,2.1051 8.547,-0.1831 0.548,-0.4576 1.188,-1.0067 1.828,-1.6932 0.091,2.2882 1.28,3.478 3.474,3.478 2.194,0 3.565,-0.5949 5.667,-1.7848 l 0.046,-0.0457 z m -13.026,-0.9153 c -2.011,0 -2.742,-2.2881 -2.422,-3.8898 0.365,-1.8763 2.011,-2.3796 3.29,-2.9288 1.097,-0.4576 2.331,-1.0068 2.971,-1.2814 v 6.7272 c -1.325,0.9152 -2.331,1.3728 -3.839,1.3728 z m 29.435,3.3407 V 18.5797 c 0,-2.1509 -1.143,-3.3407 -3.108,-3.3407 -1.966,0.0457 -3.885,0.5949 -5.531,1.6017 V 32.583 l 3.154,0.5492 v 1.2814 h -8.684 V 14.461 h -2.88 v -1.2813 l 8.273,-2.0594 0.137,3.9814 c 3.154,-2.4254 5.988,-3.5237 8.502,-3.5237 0.685,0 1.325,0.0915 1.965,0.3203 1.097,0.3661 2.057,1.0983 2.651,2.1051 0.777,1.3271 1.143,2.8373 1.097,4.3474 V 32.583 l 3.154,0.5492 v 1.2814 h -8.73 z M 73.5868,32.4915 c 3.885,0 5.8961,-2.1966 5.8961,-6.544 0,-3.6153 -1.9196,-5.9492 -5.3933,-6.4983 -1.0512,-0.1831 -2.1025,-0.2746 -3.1994,-0.2746 l -0.8227,-1.8305 h 0.1828 c 1.1883,0.0457 2.3767,-0.0458 3.5651,-0.2746 2.9709,-0.5949 4.342,-2.4254 4.342,-5.8119 0,-3.93557 -1.9196,-6.13218 -5.439,-6.13218 H 69.4733 V 32.4915 Z M 60.7891,34.4593 V 33.178 l 3.1537,-0.5492 V 5.0339 L 60.7891,4.48475 V 3.15763 h 12.7977 c 3.1995,0 5.8504,0.7322 7.6787,2.15084 1.6911,1.32712 2.6966,3.34068 2.6509,5.53733 0,1.7389 -0.6399,3.3864 -1.7825,4.622 -1.1427,1.2356 -2.651,2.1508 -4.2507,2.6085 2.5138,0.6406 4.4335,1.739 5.6676,3.2491 1.1426,1.3729 1.7368,3.0661 1.7368,4.8509 0.0914,2.2881 -0.9141,4.5305 -2.651,5.9949 -1.7825,1.5102 -4.4335,2.2881 -7.6786,2.2881 z M 168.244,32.583 V 0 l -8.41,2.65424 v 1.41864 l 2.88,-0.22881 v 9.01523 c -1.417,-0.8237 -3.017,-1.2356 -4.617,-1.2356 -4.525,0 -11.198,3.3865 -11.198,11.6695 0,5.6288 2.743,11.6238 9.233,11.6238 2.194,0 4.342,-0.8695 5.896,-2.4712 l 0.046,-0.0458 -0.549,-1.3729 -0.091,0.0458 c -0.731,0.4118 -1.6,0.5949 -2.468,0.5491 -3.611,0 -6.216,-2.7 -6.445,-8.4203 -0.228,-6.6356 2.468,-9.6559 5.759,-9.6559 1.006,-0.0458 2.011,0.3661 2.743,1.0525 1.005,0.961 1.645,2.6085 1.645,4.8509 v 14.9644 h 8.684 v -1.2814 z m 15.037,-18.9915 c 1.052,-0.0457 2.012,0.4119 2.651,1.2356 0.777,1.0068 1.006,2.5627 0.549,4.5305 h -8.867 c 0.685,-3.7068 2.651,-5.7661 5.667,-5.7661 m 7.405,14.2322 c -1.143,1.7848 -3.382,2.8831 -5.851,2.8831 -1.874,0.0457 -3.656,-0.6865 -4.982,-2.0136 -1.554,-1.6474 -2.376,-4.0729 -2.285,-7.0932 h 14.26 v -0.0915 c 0.458,-3.1119 -0.045,-5.4458 -1.508,-7.1848 -1.462,-1.739 -3.793,-2.7 -6.81,-2.7 -2.88,0 -5.668,1.0983 -7.77,3.0661 -1.097,1.0526 -2.011,2.3339 -2.605,3.7068 -0.686,1.6017 -1.006,3.3407 -1.006,5.0797 -0.046,2.9288 0.96,5.7661 2.834,7.9627 2.011,2.2424 4.799,3.4322 8.09,3.4322 2.102,0 4.113,-0.7322 5.713,-2.0593 1.326,-1.0983 2.377,-2.5627 3.017,-4.1644 z"
           inkscape:connector-curvature="0"
           style="fill:#ffffff;stroke:none;fill-opacity:1" />
      </g>
      <path
         id="path819"
         d="m 14.019,8.41837 c -0.0739,-0.12 -0.0959,-0.246 -0.0699,-0.376 0.0279,-0.13 0.0998,-0.236 0.2177,-0.316 0.1199,-0.074 0.2457,-0.098 0.3755,-0.07 0.1299,0.028 0.2357,0.1 0.3156,0.218 0.074,0.12 0.0959,0.246 0.068,0.376 -0.026,0.13 -0.0979,0.236 -0.2158,0.316 -0.1198,0.072 -0.2457,0.096 -0.3755,0.07 -0.1298,-0.03 -0.2357,-0.102 -0.3156,-0.218 z"
         inkscape:connector-curvature="0"
         style="fill:#ffffff;stroke:none;fill-opacity:1" />
      <path
         id="path821"
         d="m 19.5015,7.03996 -0.9928,-2.89 -0.0919,0.03 c -0.2517,0.086 -0.4414,0.17 -0.5633,0.258 -0.1218,0.088 -0.1878,0.2 -0.1978,0.336 -0.0099,0.136 0.026,0.32 0.1079,0.552 l -0.0679,0.022 -0.3056,-0.89 2.6267,-0.906 0.3076,0.89 -0.0699,0.024 c -0.0779,-0.232 -0.1618,-0.4 -0.2537,-0.5 -0.0918,-0.102 -0.2117,-0.15 -0.3615,-0.144 -0.1498,0.008 -0.3496,0.054 -0.5993,0.144 l -0.0939,0.032 0.9928,2.89 0.4435,-0.152 0.0239,0.07 -1.3243,0.456 -0.022,-0.07 z"
         inkscape:connector-curvature="0"
         style="fill:#ffffff;stroke:none;fill-opacity:1" />
      <path
         id="path823"
         d="m 22.1594,3.12397 0.2257,1.428 0.2238,-0.036 c 0.2676,-0.038 0.4654,-0.124 0.5932,-0.254 0.1299,-0.132 0.1738,-0.326 0.1359,-0.584 -0.018,-0.122 -0.054,-0.234 -0.1099,-0.338 -0.0579,-0.104 -0.1458,-0.182 -0.2657,-0.234 -0.1218,-0.052 -0.2876,-0.062 -0.4974,-0.03 z m 0.02,3.09 -0.4774,-3.018 -0.4495,0.072 -0.0099,-0.072 1.3762,-0.22 c 0.1758,-0.028 0.3476,-0.038 0.5174,-0.024 0.1698,0.014 0.3176,0.07 0.4415,0.168 0.1238,0.098 0.2057,0.26 0.2437,0.482 0.0239,0.18 -0.014,0.332 -0.1079,0.452 -0.0959,0.12 -0.2137,0.214 -0.3556,0.284 -0.1398,0.068 -0.2676,0.118 -0.3795,0.148 v 0.008 c 0.1738,-0.014 0.3236,-0.01 0.4494,0.014 0.1259,0.024 0.2318,0.082 0.3177,0.176 0.0858,0.092 0.1558,0.234 0.2077,0.426 l 0.1518,0.538 c 0.038,0.124 0.0839,0.2 0.1358,0.224 0.054,0.026 0.1019,0.032 0.1419,0.022 0.0779,-0.018 0.1358,-0.044 0.1757,-0.074 l 0.036,0.054 c -0.0779,0.048 -0.1978,0.088 -0.3576,0.116 -0.1797,0.028 -0.3156,0.016 -0.4114,-0.032 -0.0939,-0.05 -0.1658,-0.132 -0.2158,-0.246 -0.0499,-0.116 -0.0979,-0.258 -0.1418,-0.428 l -0.0759,-0.266 c -0.022,-0.094 -0.0579,-0.178 -0.1019,-0.256 -0.0459,-0.076 -0.1158,-0.132 -0.2097,-0.168 -0.0939,-0.036 -0.2237,-0.04 -0.3915,-0.016 l -0.2917,0.046 0.2397,1.518 0.4575,-0.072 0.0119,0.072 -1.3643,0.216 -0.012,-0.072 z"
         inkscape:connector-curvature="0"
         style="clip-rule:evenodd;fill:#ffffff;fill-rule:evenodd;stroke:none;fill-opacity:1" />
      <path
         id="path825"
         d="m 25.0748,2.70636 -0.002,-0.074 1.3763,-0.022 0.002,0.07 -0.4814,0.01 0.042,2.378 c 0.0059,0.172 0.0459,0.314 0.1218,0.422 0.0779,0.11 0.1738,0.192 0.2936,0.242 0.1179,0.052 0.2417,0.076 0.3736,0.072 0.3216,-0.004 0.5713,-0.086 0.753,-0.25 0.1798,-0.162 0.2677,-0.412 0.2657,-0.75 l -0.0319,-1.836 c -0.002,-0.122 -0.024,-0.202 -0.068,-0.246 -0.0439,-0.044 -0.1158,-0.064 -0.2137,-0.058 l -0.2557,0.004 v -0.074 l 1.0527,-0.018 0.002,0.072 -0.2057,0.004 c -0.0959,0 -0.1598,0.026 -0.1938,0.074 -0.034,0.048 -0.0499,0.13 -0.0459,0.246 l 0.0339,1.886 c 0,0.236 -0.0479,0.428 -0.1458,0.578 -0.0959,0.148 -0.2277,0.258 -0.3955,0.33 -0.1658,0.072 -0.3496,0.11 -0.5533,0.112 -0.2517,0.006 -0.4694,-0.014 -0.6552,-0.062 -0.1858,-0.048 -0.3296,-0.136 -0.4335,-0.266 -0.1038,-0.128 -0.1578,-0.312 -0.1638,-0.552 l -0.0399,-2.3 z"
         inkscape:connector-curvature="0"
         style="fill:#ffffff;stroke:none;fill-opacity:1" />
      <path
         id="path827"
         d="m 30.2033,5.99398 0.4774,-3.01801 -0.0939,-0.016 c -0.2637,-0.044 -0.4694,-0.058 -0.6172,-0.038 -0.1499,0.02 -0.2597,0.088 -0.3336,0.204 -0.0739,0.114 -0.1279,0.294 -0.1638,0.538 l -0.0719,-0.012 0.1478,-0.93 2.7446,0.434 -0.1458,0.932 -0.0719,-0.012 c 0.0419,-0.242 0.0439,-0.43 0.0119,-0.562 -0.0339,-0.132 -0.1178,-0.23 -0.2536,-0.296 -0.1359,-0.064 -0.3336,-0.116 -0.5953,-0.154 l -0.0999,-0.016 -0.4774,3.01801 0.4614,0.074 -0.01,0.072 -1.3822,-0.22 0.0119,-0.072 z"
         inkscape:connector-curvature="0"
         style="fill:#ffffff;stroke:none;fill-opacity:1" />
      <path
         id="path829"
         d="m 33.0138,6.58737 1.0946,-2.854 -0.3735,-0.142 0.0259,-0.068 1.2045,0.462 -0.0259,0.068 -0.3995,-0.154 -0.5174,1.352 1.5441,0.592 0.5174,-1.35 -0.3995,-0.152 0.0259,-0.068 1.2045,0.462 -0.0259,0.068 -0.3716,-0.144 -1.0946,2.854 0.3735,0.144 -0.026,0.068 -1.2045,-0.464 0.026,-0.068 0.3975,0.154 0.5513,-1.436 -1.5441,-0.592 -0.5493,1.434 0.3975,0.154 -0.0259,0.068 -1.2045,-0.464 0.0259,-0.068 z"
         inkscape:connector-curvature="0"
         style="fill:#ffffff;stroke:none;fill-opacity:1" />
      <path
         id="path831"
         d="m 39.0106,7.95495 c 0.0799,-0.116 0.1837,-0.188 0.3156,-0.216 0.1298,-0.028 0.2537,-0.004 0.3755,0.068 0.1159,0.08 0.1878,0.186 0.2157,0.318 0.028,0.13 0.004,0.254 -0.0699,0.376 -0.0799,0.116 -0.1837,0.188 -0.3136,0.216 -0.1318,0.028 -0.2557,0.004 -0.3775,-0.07 -0.1159,-0.08 -0.1878,-0.184 -0.2157,-0.314 -0.028,-0.132 -0.004,-0.256 0.0699,-0.378 z"
         inkscape:connector-curvature="0"
         style="fill:#ffffff;stroke:none;fill-opacity:1" />
      <path
         id="path833"
         d="m 17.1439,16.754 v 2.022 h 0.4854 c 0.3036,-0.002 0.5334,-0.092 0.6912,-0.272 0.1558,-0.18 0.2357,-0.44 0.2377,-0.78 -0.006,-0.324 -0.1079,-0.566 -0.3057,-0.728 -0.1977,-0.162 -0.4634,-0.242 -0.797,-0.242 z m -0.5893,2.022 V 14.892 H 16.0073 V 14.8 h 1.7598 c 0.2857,0.004 0.5294,0.046 0.7291,0.13 0.1998,0.084 0.3496,0.194 0.4535,0.33 0.1039,0.136 0.1558,0.284 0.1558,0.442 -0.006,0.29 -0.0759,0.504 -0.2078,0.644 -0.1338,0.14 -0.2876,0.232 -0.4674,0.28 -0.1778,0.044 -0.3396,0.072 -0.4834,0.08 v 0.012 c 0.2118,0.016 0.4155,0.062 0.6073,0.136 0.1917,0.072 0.3495,0.184 0.4714,0.334 0.1218,0.148 0.1858,0.344 0.1897,0.588 -0.0059,0.258 -0.0719,0.47 -0.1997,0.63 -0.1278,0.162 -0.2856,0.278 -0.4734,0.352 -0.1898,0.074 -0.3756,0.112 -0.5613,0.11 h -1.9736 v -0.092 z m 0.5893,-3.884 v 1.77 h 0.3815 c 0.1758,0.002 0.3396,-0.016 0.4894,-0.06 0.1499,-0.044 0.2697,-0.13 0.3616,-0.26 0.0919,-0.13 0.1378,-0.324 0.1398,-0.582 0.004,-0.108 -0.0279,-0.228 -0.0899,-0.36 -0.0639,-0.134 -0.1738,-0.25 -0.3296,-0.35 -0.1578,-0.1 -0.3735,-0.152 -0.6532,-0.158 z"
         inkscape:connector-curvature="0"
         style="clip-rule:evenodd;fill:#ffffff;fill-rule:evenodd;stroke:none;fill-opacity:1" />
      <path
         id="path835"
         d="m 20.0336,18.776 v -2.184 h -0.4854 v -0.094 h 0.4854 c 0.0939,0.004 0.1838,-0.004 0.2677,-0.018 0.0859,-0.016 0.1578,-0.052 0.2177,-0.108 v 0.682 h 0.01 c 0.024,-0.09 0.0619,-0.188 0.1199,-0.292 0.0559,-0.104 0.1358,-0.196 0.2377,-0.27 0.1018,-0.076 0.2297,-0.116 0.3875,-0.12 0.1098,0.002 0.1997,0.034 0.2716,0.094 0.07,0.062 0.1059,0.144 0.1099,0.246 0,0.078 -0.022,0.142 -0.0679,0.192 -0.046,0.052 -0.1119,0.078 -0.1978,0.08 -0.0938,0 -0.1598,-0.022 -0.1977,-0.068 -0.04,-0.044 -0.0579,-0.108 -0.0559,-0.186 0,-0.062 0.0139,-0.116 0.0399,-0.158 0.024,-0.042 0.0539,-0.072 0.0859,-0.09 -0.024,-0.014 -0.0499,-0.02 -0.0799,-0.018 -0.0839,0 -0.1758,0.042 -0.2777,0.126 -0.1018,0.084 -0.1897,0.208 -0.2676,0.376 -0.0739,0.166 -0.1139,0.376 -0.1179,0.626 v 1.184 h 0.5234 v 0.092 h -1.4942 v -0.092 z"
         inkscape:connector-curvature="0"
         style="clip-rule:evenodd;fill:#ffffff;fill-rule:evenodd;stroke:none;fill-opacity:1" />
      <path
         id="path837"
         d="m 23.5296,17.6028 h -0.0978 c -0.1439,-0.004 -0.2897,0.006 -0.4335,0.026 -0.1438,0.022 -0.2637,0.076 -0.3616,0.166 -0.0978,0.09 -0.1478,0.236 -0.1518,0.438 -0.006,0.164 0.02,0.3 0.0719,0.404 0.054,0.106 0.1718,0.158 0.3496,0.162 0.1438,-0.004 0.2617,-0.032 0.3536,-0.088 0.0919,-0.056 0.1598,-0.118 0.2037,-0.186 0.044,-0.068 0.0659,-0.124 0.0659,-0.164 z m 0.4834,-0.56 v 1.514 c -0.002,0.058 0.008,0.114 0.03,0.168 0.02,0.052 0.0679,0.082 0.1438,0.086 0.0659,-0.002 0.1219,-0.026 0.1678,-0.07 0.046,-0.044 0.0899,-0.098 0.1319,-0.162 l 0.0639,0.046 c -0.054,0.098 -0.1199,0.174 -0.2018,0.228 -0.0799,0.056 -0.1837,0.084 -0.3056,0.084 -0.1378,-0.002 -0.2517,-0.036 -0.3416,-0.102 -0.0879,-0.068 -0.1438,-0.152 -0.1658,-0.256 h -0.012 c -0.0978,0.128 -0.2137,0.222 -0.3495,0.276 -0.1359,0.056 -0.2977,0.084 -0.4874,0.082 -0.2257,0 -0.4035,-0.054 -0.5294,-0.16 -0.1258,-0.108 -0.1897,-0.26 -0.1917,-0.458 0.008,-0.214 0.0899,-0.38 0.2457,-0.496 0.1558,-0.118 0.3455,-0.2 0.5673,-0.246 0.2217,-0.046 0.4354,-0.068 0.6412,-0.066 h 0.1098 v -0.712 c -0.006,-0.132 -0.0579,-0.222 -0.1538,-0.268 -0.0978,-0.048 -0.2037,-0.07 -0.3196,-0.066 -0.0599,0 -0.1318,0.008 -0.2197,0.024 -0.0859,0.016 -0.1638,0.046 -0.2317,0.084 -0.0679,0.04 -0.1039,0.094 -0.1079,0.164 0.002,0.044 0.018,0.072 0.05,0.09 0.0299,0.018 0.0599,0.042 0.0898,0.072 0.032,0.032 0.048,0.09 0.05,0.172 -0.002,0.072 -0.026,0.128 -0.0759,0.174 -0.05,0.044 -0.1119,0.068 -0.1898,0.07 -0.0799,-0.002 -0.1438,-0.032 -0.1878,-0.09 -0.0419,-0.056 -0.0659,-0.134 -0.0659,-0.234 0,-0.156 0.0779,-0.294 0.2277,-0.42 0.1519,-0.126 0.3716,-0.19 0.6612,-0.198 0.1498,0 0.2977,0.024 0.4435,0.074 0.1458,0.05 0.2656,0.126 0.3635,0.224 0.0979,0.1 0.1478,0.222 0.1498,0.372 z"
         inkscape:connector-curvature="0"
         style="clip-rule:evenodd;fill:#ffffff;fill-rule:evenodd;stroke:none;fill-opacity:1" />
      <path
         id="path839"
         d="m 25.1337,18.776 v -2.184 h -0.4554 v -0.094 h 0.4554 c 0.1359,0.004 0.2377,-0.002 0.3076,-0.014 0.07,-0.014 0.1279,-0.05 0.1758,-0.112 v 0.59 h 0.012 c 0.0759,-0.146 0.1858,-0.28 0.3296,-0.4 0.1418,-0.118 0.3196,-0.182 0.5313,-0.19 0.3017,0.006 0.5114,0.072 0.6273,0.2 0.1138,0.126 0.1678,0.276 0.1618,0.454 v 1.75 h 0.4574 v 0.092 h -1.3963 v -0.092 h 0.4555 v -1.89 c -0.004,-0.156 -0.036,-0.266 -0.1019,-0.33 -0.0639,-0.062 -0.1438,-0.094 -0.2397,-0.092 -0.1598,0.006 -0.2957,0.05 -0.4075,0.134 -0.1119,0.084 -0.2038,0.178 -0.2737,0.284 -0.0699,0.106 -0.1198,0.194 -0.1558,0.264 v 1.63 h 0.4395 v 0.092 h -1.3783 v -0.092 z"
         inkscape:connector-curvature="0"
         style="clip-rule:evenodd;fill:#ffffff;fill-rule:evenodd;stroke:none;fill-opacity:1" />
      <path
         id="path841"
         d="m 30.0835,18.8682 v -0.422 h -0.012 c -0.0299,0.068 -0.0779,0.14 -0.1458,0.214 -0.0679,0.076 -0.1538,0.14 -0.2557,0.194 -0.1019,0.052 -0.2217,0.08 -0.3535,0.084 -0.2417,-0.004 -0.4515,-0.064 -0.6293,-0.184 -0.1777,-0.118 -0.3156,-0.274 -0.4115,-0.466 -0.0978,-0.194 -0.1478,-0.406 -0.1478,-0.634 0,-0.194 0.048,-0.388 0.1439,-0.584 0.0938,-0.196 0.2277,-0.358 0.3975,-0.492 0.1737,-0.132 0.3735,-0.2 0.6072,-0.206 0.2077,0.008 0.3795,0.072 0.5134,0.192 0.1358,0.122 0.2297,0.254 0.2816,0.398 h 0.012 v -2.104 h -0.4614 v -0.092 h 0.4614 c 0.0939,0.002 0.1838,-0.006 0.2677,-0.022 0.0859,-0.018 0.1578,-0.058 0.2157,-0.122 v 4.154 h 0.3995 v 0.092 z m 0,-0.832 v -0.676 c -0.002,-0.144 -0.0359,-0.284 -0.1039,-0.42 -0.0679,-0.136 -0.1618,-0.248 -0.2816,-0.338 -0.1219,-0.088 -0.2617,-0.134 -0.4215,-0.138 -0.2477,0 -0.4095,0.1 -0.4874,0.298 -0.0799,0.2 -0.1158,0.496 -0.1079,0.892 -0.002,0.286 0.01,0.516 0.04,0.692 0.028,0.174 0.0879,0.302 0.1798,0.382 0.0899,0.08 0.2297,0.118 0.4155,0.116 0.1318,0 0.2576,-0.034 0.3735,-0.102 0.1178,-0.068 0.2117,-0.162 0.2836,-0.284 0.074,-0.12 0.1099,-0.262 0.1099,-0.422 z"
         inkscape:connector-curvature="0"
         style="clip-rule:evenodd;fill:#ffffff;fill-rule:evenodd;stroke:none;fill-opacity:1" />
      <path
         id="path843"
         d="m 32.8003,17.2966 v -0.122 c 0.004,-0.19 -0.0279,-0.356 -0.0979,-0.494 -0.0679,-0.136 -0.1937,-0.21 -0.3815,-0.216 -0.1977,0.006 -0.3356,0.08 -0.4135,0.216 -0.0779,0.138 -0.1138,0.304 -0.1118,0.494 v 0.162 h 0.9628 c 0.0279,-0.002 0.0419,-0.014 0.0419,-0.04 z m -1.0047,0.134 v 0.542 c -0.004,0.14 0.006,0.276 0.0319,0.408 0.024,0.134 0.0799,0.242 0.1658,0.33 0.0859,0.086 0.2197,0.132 0.3975,0.134 0.2457,-0.002 0.4495,-0.076 0.6133,-0.22 0.1618,-0.144 0.2656,-0.336 0.3096,-0.576 h 0.0919 c -0.05,0.268 -0.1638,0.484 -0.3436,0.644 -0.1798,0.16 -0.4035,0.24 -0.6712,0.246 -0.3435,-0.006 -0.6192,-0.126 -0.8269,-0.356 -0.2098,-0.232 -0.3157,-0.54 -0.3217,-0.928 0.002,-0.192 0.048,-0.386 0.1399,-0.582 0.0919,-0.196 0.2177,-0.36 0.3795,-0.492 0.1618,-0.134 0.3476,-0.202 0.5593,-0.208 0.1698,0.002 0.3196,0.044 0.4495,0.124 0.1278,0.078 0.2357,0.174 0.3216,0.288 0.0878,0.114 0.1518,0.224 0.1957,0.334 0.044,0.108 0.0659,0.194 0.0659,0.258 0,0.036 -0.0179,0.054 -0.0519,0.054 z"
         inkscape:connector-curvature="0"
         style="clip-rule:evenodd;fill:#ffffff;fill-rule:evenodd;stroke:none;fill-opacity:1" />
      <path
         id="path845"
         d="m 34.0861,15.3324 c 0.002,-0.084 0.032,-0.152 0.0859,-0.208 0.056,-0.056 0.1259,-0.084 0.2078,-0.086 0.0839,0.002 0.1538,0.03 0.2077,0.086 0.0559,0.056 0.0859,0.124 0.0859,0.208 0,0.084 -0.03,0.152 -0.0859,0.208 -0.0539,0.056 -0.1238,0.084 -0.2077,0.086 -0.0819,-0.002 -0.1518,-0.03 -0.2078,-0.086 -0.0539,-0.056 -0.0839,-0.124 -0.0859,-0.208 z m 0.052,3.444 v -2.184 h -0.4615 v -0.094 h 0.4615 c 0.0938,0.002 0.1837,-0.004 0.2676,-0.02 0.0859,-0.014 0.1578,-0.05 0.2158,-0.106 v 2.404 h 0.4634 v 0.092 h -1.4083 v -0.092 z"
         inkscape:connector-curvature="0"
         style="clip-rule:evenodd;fill:#ffffff;fill-rule:evenodd;stroke:none;fill-opacity:1" />
      <path
         id="path847"
         d="m 35.481,18.9026 -0.0119,-0.872 h 0.0759 c 0.0119,0.102 0.0439,0.216 0.0938,0.342 0.048,0.126 0.1299,0.234 0.2417,0.326 0.1099,0.094 0.2657,0.142 0.4655,0.146 0.1618,-0.002 0.2956,-0.05 0.3995,-0.146 0.1038,-0.094 0.1578,-0.224 0.1618,-0.39 -0.004,-0.15 -0.038,-0.258 -0.1019,-0.324 -0.0659,-0.068 -0.1478,-0.112 -0.2457,-0.132 -0.0999,-0.018 -0.2017,-0.034 -0.3056,-0.042 -0.1279,-0.01 -0.2457,-0.03 -0.3576,-0.064 -0.1118,-0.032 -0.2037,-0.096 -0.2736,-0.19 -0.0699,-0.096 -0.1059,-0.242 -0.1059,-0.438 0,-0.214 0.0639,-0.39 0.1898,-0.53 0.1258,-0.14 0.3036,-0.212 0.5293,-0.216 0.1059,0.002 0.1978,0.02 0.2777,0.052 0.0799,0.032 0.1458,0.066 0.1977,0.098 0.052,0.032 0.0879,0.05 0.1079,0.052 0.0299,0 0.0439,-0.04 0.0399,-0.122 v -0.046 h 0.0819 l 0.022,0.688 h -0.0739 c -0.018,-0.17 -0.0779,-0.316 -0.1798,-0.438 -0.1019,-0.122 -0.2657,-0.186 -0.4894,-0.192 -0.1518,0 -0.2776,0.04 -0.3755,0.118 -0.0999,0.078 -0.1518,0.194 -0.1558,0.344 0.002,0.148 0.0539,0.254 0.1598,0.318 0.1059,0.064 0.2537,0.1 0.4454,0.11 l 0.1978,0.012 c 0.2317,0.016 0.3995,0.084 0.5034,0.202 0.1038,0.118 0.1558,0.278 0.1538,0.48 -0.006,0.272 -0.0839,0.486 -0.2357,0.646 -0.1498,0.158 -0.3396,0.24 -0.5673,0.244 -0.1498,-0.004 -0.2697,-0.026 -0.3616,-0.066 -0.0899,-0.04 -0.1618,-0.08 -0.2137,-0.12 -0.052,-0.038 -0.0979,-0.06 -0.1339,-0.064 -0.0359,0.002 -0.0539,0.022 -0.0579,0.062 -0.004,0.04 -0.008,0.09 -0.012,0.152 z"
         inkscape:connector-curvature="0"
         style="fill:#ffffff;stroke:none;fill-opacity:1" />
      <path
         id="path849"
         d="m 9.15824,9.88038 2.23326,2.08402 0.2716,-0.292 0.054,0.05 -1.65,1.772 -0.60324,-0.488 0.04994,-0.054 c 0.19176,0.174 0.37753,0.242 0.5593,0.204 0.1798,-0.038 0.3516,-0.148 0.5174,-0.33 l 0.4854,-0.522 -1.0707,-1 -0.23172,0.25 c -0.10387,0.114 -0.1618,0.218 -0.17179,0.31 -0.00999,0.092 0.00799,0.176 0.05793,0.252 0.04794,0.076 0.11186,0.148 0.18577,0.214 l -0.04994,0.054 -0.88291,-0.826 0.04994,-0.052 c 0.0819,0.08 0.1618,0.14 0.23571,0.18 0.07591,0.04 0.15581,0.048 0.2397,0.024 0.0839,-0.026 0.17778,-0.094 0.28565,-0.21 l 0.22971,-0.244 -1.11062,-1.038 -0.42347,0.456 c -0.17179,0.176 -0.29764,0.338 -0.37953,0.482 -0.0819,0.144 -0.10587,0.286 -0.06992,0.43 0.03596,0.142 0.14782,0.3 0.33359,0.472 l -0.04994,0.054 -0.68116,-0.636 1.80577,-1.93802 0.05193,0.048 z"
         inkscape:connector-curvature="0"
         style="fill:#ffffff;stroke:none;fill-opacity:1" />
      <path
         id="path851"
         d="m 8.6863,15.2188 -2.55084,-0.61 -0.00399,0.008 1.19452,1.51 c 0.09788,0.126 0.17178,0.218 0.22172,0.28 0.04794,0.062 0.08789,0.102 0.11786,0.12 0.03995,0.03 0.08589,0.036 0.13783,0.016 0.04993,-0.022 0.11585,-0.098 0.19575,-0.226 l 0.02797,-0.042 0.06192,0.038 -0.52535,0.842 -0.06192,-0.038 0.06592,-0.106 c 0.06392,-0.106 0.08789,-0.2 0.06991,-0.278 -0.01798,-0.078 -0.05793,-0.154 -0.12185,-0.23 l -1.91962,-2.446 0.02397,-0.038 3.34186,0.756 0.19576,-0.312 0.06192,0.04 -0.70513,1.128 -0.06192,-0.038 z"
         inkscape:connector-curvature="0"
         style="fill:#ffffff;stroke:none;fill-opacity:1" />
      <path
         id="path853"
         d="m 4.18982,17.0086 2.83049,1.146 0.14982,-0.372 0.06791,0.028 -0.90687,2.248 -0.73709,-0.24 0.02796,-0.068 c 0.23971,0.092 0.43746,0.088 0.59327,-0.012 0.15381,-0.1 0.27566,-0.264 0.36555,-0.494 l 0.26567,-0.66 -1.35632,-0.55 -0.12784,0.318 c -0.05593,0.144 -0.07191,0.26 -0.04994,0.35 0.02397,0.09 0.07191,0.162 0.14582,0.214 0.07391,0.054 0.1578,0.098 0.25169,0.134 l -0.02797,0.066 -1.12061,-0.452 0.02597,-0.068 c 0.10786,0.046 0.20374,0.074 0.28764,0.084 0.08589,0.01 0.1618,-0.01 0.22972,-0.064 0.06991,-0.052 0.13383,-0.152 0.19376,-0.296 l 0.12584,-0.314 -1.40826,-0.568 -0.23171,0.578 c -0.09588,0.226 -0.15581,0.42 -0.18177,0.584 -0.02597,0.164 0.00399,0.306 0.08989,0.426 0.08389,0.12 0.24369,0.228 0.4794,0.324 l -0.02796,0.068 -0.86294,-0.35 0.99078,-2.458 0.06791,0.026 z"
         inkscape:connector-curvature="0"
         style="fill:#ffffff;stroke:none;fill-opacity:1" />
      <path
         id="path855"
         d="m 2.11881,23.5234 3.36583,-1.562 0.002,-0.01 -2.59878,-0.506 c -0.10387,-0.022 -0.17778,-0.014 -0.21973,0.02 -0.04195,0.036 -0.07191,0.106 -0.08789,0.206 l -0.03595,0.18 -0.06992,-0.014 0.18378,-0.956 0.07191,0.014 -0.02997,0.152 c -0.02197,0.102 -0.01997,0.176 0.006,0.224 0.02596,0.05 0.08988,0.082 0.19575,0.102 l 2.74261,0.534 0.08189,-0.428 0.07191,0.014 -0.18177,0.938 -2.65471,1.232 -0.002,0.01 2.0155,0.392 c 0.08989,0.022 0.15581,0.02 0.19776,-0.004 0.04195,-0.026 0.07191,-0.084 0.08789,-0.18 l 0.04195,-0.21 0.07191,0.014 -0.18377,0.942 -0.07191,-0.014 0.03795,-0.196 c 0.01997,-0.096 0.01598,-0.162 -0.01398,-0.2 -0.02997,-0.038 -0.08989,-0.064 -0.18178,-0.08 l -2.85246,-0.556 z"
         inkscape:connector-curvature="0"
         style="fill:#ffffff;stroke:none;fill-opacity:1" />
      <path
         id="path857"
         d="M 4.94781,28.038 5.01972,28.03 5.16554,29.4 5.09163,29.408 5.0417,28.93 2.67862,29.176 c -0.16979,0.022 -0.30762,0.074 -0.40949,0.16 -0.10187,0.086 -0.17378,0.19 -0.21373,0.312 -0.04195,0.122 -0.05394,0.25 -0.03996,0.38 0.03197,0.32 0.13584,0.562 0.31362,0.728 0.17778,0.166 0.43346,0.232 0.77104,0.202 l 1.82374,-0.192 c 0.11985,-0.012 0.19975,-0.042 0.2397,-0.09 0.03796,-0.048 0.05194,-0.12 0.03996,-0.218 L 5.17553,30.204 5.24744,30.198 5.3593,31.246 5.28739,31.254 5.26542,31.05 C 5.25543,30.954 5.22747,30.892 5.17553,30.862 5.12359,30.832 5.0417,30.824 4.92784,30.838 L 3.05216,31.036 C 2.81845,31.056 2.62269,31.026 2.46689,30.94 2.30908,30.856 2.18723,30.736 2.10134,30.576 2.01545,30.416 1.96351,30.234 1.94154,30.032 1.91357,29.782 1.91557,29.562 1.94553,29.372 1.97749,29.184 2.0534,29.032 2.17125,28.918 2.2931,28.802 2.47088,28.732 2.70859,28.706 l 2.28517,-0.238 z"
         inkscape:connector-curvature="0"
         style="fill:#ffffff;stroke:none;fill-opacity:1" />
      <path
         id="path859"
         d="m 7.63276,40.6776 c -0.12185,0.092 -0.24969,0.198 -0.38153,0.324 -0.13184,0.128 -0.24569,0.266 -0.34158,0.416 -0.09388,0.15 -0.14781,0.306 -0.1598,0.468 -0.01198,0.164 0.04195,0.326 0.1598,0.49 0.12185,0.156 0.26368,0.252 0.42348,0.286 0.1598,0.034 0.3236,0.024 0.49539,-0.026 0.16979,-0.048 0.33358,-0.12 0.49139,-0.212 0.1578,-0.092 0.29763,-0.186 0.41748,-0.278 0.12385,-0.09 0.24969,-0.2 0.38353,-0.326 0.13183,-0.126 0.24369,-0.264 0.33957,-0.416 0.09589,-0.148 0.14982,-0.306 0.15981,-0.468 0.01198,-0.162 -0.03995,-0.326 -0.15781,-0.486 -0.12384,-0.16 -0.26567,-0.256 -0.42547,-0.288 -0.15781,-0.034 -0.3236,-0.024 -0.49339,0.024 -0.17179,0.05 -0.33558,0.122 -0.49339,0.214 -0.1578,0.092 -0.29563,0.184 -0.41748,0.278 z m -0.31162,-0.414 c 0.25369,-0.186 0.51936,-0.302 0.79702,-0.35 0.27965,-0.046 0.54332,-0.026 0.79102,0.056 0.24769,0.084 0.45144,0.23 0.61124,0.436 0.15381,0.208 0.23571,0.444 0.24769,0.706 0.01399,0.26 -0.04194,0.52 -0.16379,0.776 -0.12185,0.256 -0.30563,0.48 -0.55332,0.672 -0.25368,0.186 -0.51935,0.302 -0.79901,0.348 -0.27965,0.046 -0.54333,0.028 -0.79102,-0.056 -0.24769,-0.084 -0.45144,-0.228 -0.60924,-0.434 -0.15581,-0.208 -0.23771,-0.444 -0.24969,-0.706 -0.01199,-0.262 0.04194,-0.52 0.16379,-0.776 0.12185,-0.256 0.30762,-0.48 0.55531,-0.672"
         inkscape:connector-curvature="0"
         style="clip-rule:evenodd;fill:#ffffff;fill-rule:evenodd;stroke:none;fill-opacity:1" />
      <path
         id="path861"
         d="m 11.299,46.7225 1.8776,-2.406 -0.3236,-0.256 0.044,-0.056 1.0167,0.796 -0.0459,0.056 -0.3256,-0.256 -1.8777,2.408 0.3256,0.256 -0.0439,0.056 -1.0188,-0.796 0.046,-0.056 z"
         inkscape:connector-curvature="0"
         style="fill:#ffffff;stroke:none;fill-opacity:1" />
      <path
         id="path863"
         d="m 14.3639,48.7902 1.4802,-2.672 -0.0839,-0.046 c -0.2337,-0.134 -0.4215,-0.216 -0.5693,-0.248 -0.1458,-0.032 -0.2737,-0.006 -0.3815,0.076 -0.1079,0.084 -0.2198,0.234 -0.3356,0.45 l -0.0639,-0.034 0.4554,-0.826 2.431,1.352 -0.4554,0.824 -0.064,-0.036 c 0.1219,-0.212 0.1898,-0.388 0.2038,-0.524 0.012,-0.136 -0.032,-0.258 -0.1378,-0.364 -0.1039,-0.108 -0.2737,-0.224 -0.5074,-0.35 l -0.0879,-0.05 -1.4782,2.674 0.4095,0.226 -0.0359,0.064 -1.2225,-0.68 0.0339,-0.064 z"
         inkscape:connector-curvature="0"
         style="fill:#ffffff;stroke:none;fill-opacity:1" />
      <path
         id="path865"
         d="m 16.9401,50.1952 0.4115,-1.074 0.0679,0.026 c -0.0899,0.238 -0.1218,0.45 -0.0978,0.636 0.0239,0.188 0.0898,0.346 0.2017,0.476 0.1099,0.13 0.2517,0.226 0.4235,0.292 0.2077,0.078 0.3975,0.084 0.5693,0.018 0.1718,-0.066 0.2976,-0.196 0.3755,-0.39 0.0839,-0.214 0.0839,-0.39 0.002,-0.528 -0.0819,-0.138 -0.2397,-0.27 -0.4694,-0.396 -0.2098,-0.118 -0.3775,-0.23 -0.5014,-0.342 -0.1238,-0.11 -0.1977,-0.24 -0.2217,-0.39 -0.024,-0.148 0.008,-0.34 0.0979,-0.574 0.0978,-0.246 0.2477,-0.418 0.4494,-0.516 0.1998,-0.098 0.4235,-0.104 0.6652,-0.016 0.1438,0.06 0.2517,0.126 0.3296,0.204 0.0779,0.078 0.1378,0.148 0.1817,0.214 0.046,0.064 0.0899,0.108 0.1359,0.13 0.0479,0.012 0.0879,0.006 0.1158,-0.026 0.03,-0.03 0.052,-0.06 0.0699,-0.09 l 0.068,0.026 -0.3416,0.892 -0.0699,-0.026 c 0.0519,-0.168 0.0719,-0.334 0.0579,-0.498 -0.01,-0.164 -0.0619,-0.312 -0.1538,-0.446 -0.0919,-0.134 -0.2317,-0.236 -0.4195,-0.312 -0.1838,-0.068 -0.3536,-0.07 -0.5074,-0.002 -0.1538,0.066 -0.2696,0.2 -0.3495,0.394 -0.05,0.124 -0.0659,0.23 -0.048,0.32 0.016,0.088 0.0779,0.178 0.1838,0.27 0.1079,0.092 0.2697,0.202 0.4854,0.33 0.2876,0.168 0.4774,0.342 0.5673,0.524 0.0899,0.18 0.0819,0.404 -0.024,0.674 -0.0699,0.188 -0.1678,0.34 -0.2916,0.46 -0.1239,0.12 -0.2717,0.196 -0.4395,0.228 -0.1678,0.03 -0.3555,0.008 -0.5613,-0.07 -0.1398,-0.056 -0.2537,-0.122 -0.3415,-0.196 -0.0859,-0.074 -0.1598,-0.142 -0.2178,-0.206 -0.0579,-0.064 -0.1118,-0.106 -0.1618,-0.128 -0.0499,-0.016 -0.0879,-0.006 -0.1138,0.026 -0.028,0.036 -0.048,0.072 -0.06,0.112 z"
         inkscape:connector-curvature="0"
         style="fill:#ffffff;stroke:none;fill-opacity:1" />
      <path
         id="path867"
         d="m 24.3977,51.9688 0.2117,-3.05 -0.4114,-0.028 0.0039,-0.072 1.2865,0.09 -0.004,0.072 -0.4115,-0.028 -0.2138,3.048 0.4135,0.028 -0.006,0.074 -1.2864,-0.092 0.006,-0.072 z"
         inkscape:connector-curvature="0"
         style="fill:#ffffff;stroke:none;fill-opacity:1" />
      <path
         id="path869"
         d="m 29.7066,52.01 -2.3811,-2.852 h -0.01 l 0.1858,2.646 c 0.006,0.106 0.032,0.174 0.0779,0.206 0.046,0.03 0.1199,0.042 0.2217,0.032 l 0.1818,-0.012 0.004,0.072 -0.9688,0.068 -0.006,-0.074 0.1538,-0.008 c 0.1039,-0.006 0.1758,-0.026 0.2158,-0.064 0.0399,-0.038 0.0559,-0.11 0.0479,-0.216 l -0.1958,-2.79 -0.4354,0.032 -0.004,-0.074 0.9508,-0.066 1.8797,2.248 0.008,-0.002 -0.1438,-2.048 c -0.004,-0.092 -0.022,-0.154 -0.056,-0.19 -0.0339,-0.034 -0.0999,-0.048 -0.1957,-0.04 l -0.2138,0.016 -0.006,-0.074 0.9568,-0.066 0.006,0.072 -0.1997,0.014 c -0.0979,0.006 -0.1598,0.028 -0.1878,0.066 -0.0299,0.04 -0.0399,0.106 -0.0299,0.196 l 0.2037,2.904 z"
         inkscape:connector-curvature="0"
         style="fill:#ffffff;stroke:none;fill-opacity:1" />
      <path
         id="path871"
         d="m 34.3079,50.9388 -2.9203,-2.294 h -0.01 l 0.7311,2.55 c 0.0279,0.102 0.0679,0.164 0.1178,0.186 0.052,0.022 0.1259,0.016 0.2237,-0.016 l 0.1758,-0.048 0.02,0.07 -0.9348,0.266 -0.02,-0.068 0.1478,-0.042 c 0.0999,-0.026 0.1658,-0.062 0.1978,-0.108 0.0319,-0.046 0.0319,-0.118 0.0019,-0.22 l -0.771,-2.688 -0.4195,0.118 -0.02,-0.068 0.9169,-0.264 2.3052,1.81 0.0099,-0.002 -0.5673,-1.976 c -0.0239,-0.09 -0.0539,-0.148 -0.0958,-0.174 -0.04,-0.026 -0.1059,-0.026 -0.1998,0.002 l -0.2057,0.058 -0.02,-0.07 0.9228,-0.264 0.02,0.072 -0.1917,0.054 c -0.0939,0.026 -0.1519,0.06 -0.1718,0.104 -0.02,0.044 -0.016,0.11 0.012,0.198 l 0.801,2.798 z"
         inkscape:connector-curvature="0"
         style="fill:#ffffff;stroke:none;fill-opacity:1" />
      <path
         id="path873"
         d="m 36.4222,50.0548 -1.3383,-2.748 -0.3596,0.176 -0.0319,-0.066 2.1753,-1.062 0.3875,0.672 -0.0639,0.032 c -0.1179,-0.23 -0.2677,-0.36 -0.4495,-0.388 -0.1817,-0.03 -0.3835,0.01 -0.6012,0.122 l -0.6412,0.312 0.6412,1.316 0.3076,-0.148 c 0.1378,-0.07 0.2277,-0.148 0.2717,-0.23 0.0419,-0.082 0.0539,-0.166 0.0359,-0.256 -0.0199,-0.088 -0.0519,-0.178 -0.0979,-0.266 l 0.066,-0.032 0.5293,1.088 -0.0659,0.032 c -0.0479,-0.106 -0.0999,-0.19 -0.1558,-0.254 -0.0559,-0.066 -0.1279,-0.102 -0.2138,-0.108 -0.0878,-0.006 -0.2017,0.024 -0.3435,0.092 l -0.3017,0.148 0.6652,1.366 0.5593,-0.274 c 0.2238,-0.104 0.3975,-0.21 0.5274,-0.314 0.1278,-0.104 0.1997,-0.23 0.2177,-0.376 0.018,-0.146 -0.03,-0.334 -0.1418,-0.56 l 0.0659,-0.032 0.4095,0.838 -2.3811,1.16 -0.0319,-0.064 z"
         inkscape:connector-curvature="0"
         style="fill:#ffffff;stroke:none;fill-opacity:1" />
      <path
         id="path875"
         d="m 38.8661,45.1926 0.851,1.17 0.1818,-0.132 c 0.2217,-0.158 0.3575,-0.324 0.4135,-0.498 0.0539,-0.174 0.0059,-0.37 -0.1459,-0.582 -0.0699,-0.1 -0.1538,-0.184 -0.2497,-0.25 -0.0978,-0.066 -0.2117,-0.096 -0.3435,-0.088 -0.1319,0.01 -0.2837,0.076 -0.4575,0.198 z m 1.4203,2.746 -1.7938,-2.474 -0.3675,0.268 -0.044,-0.058 1.1286,-0.82 c 0.1418,-0.108 0.2917,-0.194 0.4495,-0.258 0.1578,-0.066 0.3136,-0.082 0.4674,-0.05 0.1558,0.03 0.3016,0.136 0.4374,0.316 0.1039,0.154 0.1379,0.304 0.1079,0.454 -0.03,0.15 -0.0919,0.288 -0.1878,0.414 -0.0938,0.124 -0.1837,0.226 -0.2716,0.304 l 0.006,0.008 c 0.1478,-0.092 0.2836,-0.156 0.4075,-0.194 0.1218,-0.034 0.2437,-0.03 0.3615,0.012 0.1179,0.044 0.2457,0.14 0.3795,0.286 l 0.3776,0.412 c 0.0899,0.092 0.1658,0.14 0.2237,0.138 0.0599,-0.002 0.1039,-0.018 0.1358,-0.046 0.06,-0.052 0.1019,-0.1 0.1219,-0.146 l 0.0579,0.032 c -0.0479,0.08 -0.1378,0.168 -0.2657,0.266 -0.1478,0.108 -0.2736,0.16 -0.3815,0.158 -0.1059,0 -0.2077,-0.04 -0.3056,-0.12 -0.0959,-0.082 -0.2018,-0.186 -0.3196,-0.318 l -0.1858,-0.202 c -0.0639,-0.074 -0.1338,-0.132 -0.2097,-0.18 -0.0759,-0.048 -0.1618,-0.066 -0.2617,-0.056 -0.1019,0.012 -0.2197,0.064 -0.3576,0.164 l -0.2377,0.174 0.9029,1.244 0.3756,-0.274 0.0419,0.06 -1.1166,0.812 -0.044,-0.06 z"
         inkscape:connector-curvature="0"
         style="clip-rule:evenodd;fill:#ffffff;fill-rule:evenodd;stroke:none;fill-opacity:1" />
      <path
         id="path877"
         d="m 43.4944,44.8863 -1.9576,-1.828 -0.2737,0.292 -0.0519,-0.048 0.5972,-0.642 2.419,0.952 -1.1306,-2.336 0.5893,-0.632 0.052,0.05 -0.2717,0.292 2.2332,2.086 0.2717,-0.294 0.0539,0.05 -0.8789,0.946 -0.0539,-0.05 0.2916,-0.314 -2.1074,-1.966 -0.006,0.006 1.3524,2.78 -0.03,0.028 -2.8345,-1.104 -0.006,0.006 1.7918,1.672 c 0.1039,0.102 0.1898,0.16 0.2537,0.168 0.0659,0.01 0.1358,-0.028 0.2137,-0.118 l 0.1239,-0.132 0.0519,0.05 -0.6372,0.684 -0.052,-0.05 0.0799,-0.084 c 0.0819,-0.084 0.1159,-0.158 0.1019,-0.222 -0.014,-0.064 -0.0759,-0.144 -0.1857,-0.242 z"
         inkscape:connector-curvature="0"
         style="fill:#ffffff;stroke:none;fill-opacity:1" />
      <path
         id="path879"
         d="m 45.9523,40.1382 c 0.1298,0.08 0.2777,0.156 0.4434,0.234 0.1678,0.074 0.3376,0.128 0.5134,0.16 0.1738,0.032 0.3396,0.024 0.4934,-0.026 0.1558,-0.05 0.2856,-0.16 0.3935,-0.33 0.0999,-0.176 0.1358,-0.342 0.1059,-0.502 -0.028,-0.16 -0.0979,-0.31 -0.2078,-0.45 -0.1118,-0.138 -0.2377,-0.266 -0.3835,-0.376 -0.1438,-0.112 -0.2816,-0.206 -0.4135,-0.284 -0.1298,-0.08 -0.2796,-0.158 -0.4454,-0.234 -0.1658,-0.074 -0.3376,-0.128 -0.5114,-0.16 -0.1758,-0.032 -0.3396,-0.024 -0.4954,0.026 -0.1538,0.05 -0.2856,0.16 -0.3915,0.33 -0.0999,0.174 -0.1358,0.342 -0.1079,0.502 0.03,0.16 0.0999,0.31 0.2098,0.448 0.1098,0.14 0.2377,0.266 0.3835,0.378 0.1438,0.112 0.2817,0.206 0.4135,0.284 z m -0.2677,0.444 c -0.2656,-0.166 -0.4734,-0.368 -0.6212,-0.61 -0.1478,-0.24 -0.2297,-0.494 -0.2457,-0.754 -0.014,-0.262 0.042,-0.504 0.1738,-0.728 0.1358,-0.222 0.3236,-0.388 0.5613,-0.496 0.2377,-0.11 0.4974,-0.156 0.779,-0.138 0.2837,0.016 0.5613,0.104 0.831,0.262 0.2677,0.166 0.4754,0.37 0.6232,0.612 0.1478,0.24 0.2297,0.492 0.2457,0.754 0.014,0.262 -0.0439,0.504 -0.1738,0.728 -0.1378,0.222 -0.3236,0.388 -0.5613,0.496 -0.2377,0.11 -0.4974,0.156 -0.781,0.138 -0.2817,-0.016 -0.5593,-0.104 -0.831,-0.264"
         inkscape:connector-curvature="0"
         style="clip-rule:evenodd;fill:#ffffff;fill-rule:evenodd;stroke:none;fill-opacity:1" />
      <path
         id="path881"
         d="m 49.1486,37.6652 -1.0667,-0.432 0.028,-0.066 c 0.2357,0.092 0.4475,0.13 0.6352,0.11 0.1878,-0.022 0.3456,-0.086 0.4774,-0.194 0.1319,-0.108 0.2317,-0.248 0.2997,-0.42 0.0799,-0.206 0.0898,-0.396 0.0259,-0.568 -0.0619,-0.174 -0.1897,-0.302 -0.3815,-0.384 -0.2137,-0.086 -0.3895,-0.09 -0.5273,-0.01 -0.1399,0.08 -0.2737,0.234 -0.4035,0.462 -0.1199,0.208 -0.2378,0.372 -0.3496,0.494 -0.1119,0.122 -0.2437,0.194 -0.3935,0.216 -0.1498,0.022 -0.3416,-0.016 -0.5733,-0.11 -0.2417,-0.102 -0.4115,-0.254 -0.5074,-0.458 -0.0939,-0.202 -0.0959,-0.424 -0.004,-0.666 0.0619,-0.14 0.1319,-0.25 0.2098,-0.326 0.0779,-0.076 0.1498,-0.134 0.2157,-0.178 0.0659,-0.044 0.1099,-0.09 0.1318,-0.134 0.014,-0.046 0.006,-0.086 -0.0239,-0.116 -0.03,-0.03 -0.06,-0.054 -0.0879,-0.07 l 0.0279,-0.068 0.8829,0.358 -0.0259,0.068 c -0.1678,-0.054 -0.3336,-0.078 -0.4974,-0.068 -0.1638,0.01 -0.3136,0.06 -0.4475,0.148 -0.1338,0.088 -0.2397,0.228 -0.3176,0.412 -0.0719,0.186 -0.0759,0.354 -0.012,0.51 0.066,0.156 0.1938,0.272 0.3876,0.354 0.1238,0.054 0.2317,0.072 0.3196,0.058 0.0899,-0.016 0.1797,-0.076 0.2736,-0.182 0.0919,-0.106 0.2038,-0.266 0.3376,-0.48 0.1718,-0.286 0.3496,-0.47 0.5314,-0.558 0.1817,-0.086 0.4075,-0.074 0.6751,0.036 0.1838,0.076 0.3356,0.176 0.4535,0.302 0.1178,0.126 0.1897,0.274 0.2197,0.444 0.028,0.17 0.002,0.354 -0.0779,0.56 -0.0599,0.138 -0.1279,0.25 -0.2018,0.338 -0.0759,0.086 -0.1458,0.156 -0.2097,0.214 -0.0639,0.056 -0.1079,0.11 -0.1318,0.16 -0.016,0.05 -0.008,0.088 0.0259,0.116 0.032,0.028 0.0699,0.048 0.1099,0.06 z"
         inkscape:connector-curvature="0"
         style="fill:#ffffff;stroke:none;fill-opacity:1" />
      <path
         id="path883"
         d="m 50.6093,33.1319 -2.9743,-0.688 -0.022,0.092 c -0.0639,0.26 -0.0899,0.464 -0.0799,0.616 0.008,0.15 0.0679,0.264 0.1778,0.346 0.1119,0.08 0.2856,0.148 0.5254,0.2 l -0.016,0.07 -0.9169,-0.21 0.6252,-2.712 0.9149,0.21 -0.016,0.072 c -0.2377,-0.058 -0.4255,-0.074 -0.5593,-0.05 -0.1338,0.024 -0.2377,0.102 -0.3116,0.232 -0.0739,0.13 -0.1398,0.324 -0.1958,0.584 l -0.0219,0.098 2.9743,0.688 0.1059,-0.456 0.0699,0.016 -0.3136,1.364 -0.072,-0.016 z"
         inkscape:connector-curvature="0"
         style="fill:#ffffff;stroke:none;fill-opacity:1" />
      <path
         id="path885"
         d="m 48.1617,25.7756 1.5221,-0.16 c 0.02,-0.038 0.038,-0.088 0.05,-0.15 0.012,-0.064 0.0159,-0.132 0.008,-0.208 -0.008,-0.104 -0.042,-0.21 -0.0979,-0.316 -0.056,-0.11 -0.1438,-0.198 -0.2637,-0.266 -0.1198,-0.068 -0.2816,-0.092 -0.4834,-0.074 -0.2936,0.03 -0.5034,0.12 -0.6252,0.27 -0.1219,0.15 -0.1698,0.36 -0.1379,0.628 z m 3.0842,0.142 -3.0362,0.318 0.0479,0.448 -0.0719,0.008 -0.1358,-1.288 c -0.026,-0.228 -0.018,-0.434 0.0199,-0.618 0.038,-0.186 0.1159,-0.336 0.2337,-0.454 0.1179,-0.118 0.2857,-0.19 0.5014,-0.214 0.2118,-0.018 0.3895,0.022 0.5294,0.122 0.1418,0.1 0.2517,0.234 0.3276,0.402 0.0779,0.168 0.1258,0.344 0.1458,0.532 0.008,0.078 0.008,0.158 0.002,0.238 -0.006,0.08 -0.018,0.144 -0.036,0.194 l 1.4243,-0.148 -0.048,-0.462 0.0719,-0.008 0.1438,1.37 -0.0719,0.008 z"
         inkscape:connector-curvature="0"
         style="clip-rule:evenodd;fill:#ffffff;fill-rule:evenodd;stroke:none;fill-opacity:1" />
      <path
         id="path887"
         d="m 49.4779,21.4496 -1.2225,0.788 0.002,0.008 1.4442,0.1 z m 0.9208,-0.59 -0.8569,0.55 0.2357,0.946 0.6013,0.042 c 0.0499,0.006 0.0998,0.008 0.1498,0.008 0.0519,0.004 0.0979,0 0.1358,-0.01 0.0679,-0.01 0.0899,-0.084 0.0619,-0.222 l -0.0579,-0.228 0.0699,-0.018 0.2277,0.908 -0.0719,0.018 -0.0339,-0.14 c -0.012,-0.068 -0.038,-0.118 -0.0779,-0.15 -0.038,-0.032 -0.1219,-0.054 -0.2517,-0.064 l -3.0782,-0.24 -0.014,-0.048 2.8365,-1.846 -0.0919,-0.366 0.0719,-0.018 0.3216,1.292 -0.0699,0.018 z"
         inkscape:connector-curvature="0"
         style="clip-rule:evenodd;fill:#ffffff;fill-rule:evenodd;stroke:none;fill-opacity:1" />
      <path
         id="path889"
         d="m 46.5687,19.032 1.3203,-0.588 -0.0939,-0.208 c -0.1058,-0.248 -0.2397,-0.416 -0.3995,-0.506 -0.1598,-0.092 -0.3595,-0.084 -0.5972,0.02 -0.1139,0.048 -0.2138,0.112 -0.2977,0.194 -0.0859,0.08 -0.1378,0.186 -0.1558,0.318 -0.0199,0.13 0.014,0.292 0.0979,0.488 z m 2.9763,-0.818 -2.7886,1.242 0.1858,0.416 -0.0659,0.028 -0.5673,-1.274 c -0.0759,-0.162 -0.1279,-0.326 -0.1598,-0.494 -0.03,-0.168 -0.014,-0.324 0.0479,-0.47 0.0639,-0.146 0.1978,-0.266 0.4015,-0.36 0.1698,-0.07 0.3256,-0.074 0.4654,-0.012 0.1399,0.062 0.2617,0.15 0.3636,0.268 0.1039,0.12 0.1858,0.23 0.2437,0.332 l 0.008,-0.004 c -0.0599,-0.166 -0.0939,-0.31 -0.1039,-0.44 -0.01,-0.128 0.02,-0.244 0.0859,-0.352 0.0679,-0.106 0.1878,-0.21 0.3576,-0.312 l 0.4814,-0.284 c 0.1098,-0.068 0.1698,-0.132 0.1797,-0.19 0.012,-0.058 0.006,-0.106 -0.0159,-0.142 -0.038,-0.07 -0.0779,-0.12 -0.1159,-0.15 l 0.042,-0.05 c 0.0679,0.064 0.1358,0.168 0.2057,0.316 0.0739,0.166 0.0979,0.302 0.0759,0.406 -0.024,0.104 -0.0839,0.196 -0.1838,0.274 -0.0978,0.078 -0.2237,0.16 -0.3755,0.248 l -0.2357,0.14 c -0.0839,0.046 -0.1578,0.102 -0.2197,0.166 -0.062,0.064 -0.0979,0.146 -0.1079,0.246 -0.01,0.1 0.018,0.228 0.0859,0.382 l 0.1198,0.27 1.4023,-0.624 -0.1878,-0.424 0.066,-0.03 0.5613,1.264 -0.066,0.028 z"
         inkscape:connector-curvature="0"
         style="clip-rule:evenodd;fill:#ffffff;fill-rule:evenodd;stroke:none;fill-opacity:1" />
      <path
         id="path891"
         d="m 47.2893,13.9185 -2.5608,1.664 0.0519,0.08 c 0.1438,0.226 0.2717,0.388 0.3875,0.486 0.1139,0.096 0.2377,0.134 0.3716,0.112 0.1358,-0.024 0.3056,-0.102 0.5093,-0.24 l 0.04,0.062 -0.789,0.512 -1.5142,-2.334 0.7871,-0.512 0.0399,0.06 c -0.2077,0.132 -0.3475,0.254 -0.4235,0.368 -0.0759,0.114 -0.0938,0.242 -0.0499,0.386 0.042,0.144 0.1358,0.326 0.2837,0.546 l 0.0539,0.084 2.5608,-1.662 -0.2557,-0.394 0.06,-0.04 0.763,1.176 -0.0599,0.04 z"
         inkscape:connector-curvature="0"
         style="fill:#ffffff;stroke:none;fill-opacity:1" />
      <path
         id="path893"
         d="m 45.4228,11.2272 -0.8409,0.784 -0.05,-0.054 c 0.1858,-0.174 0.3077,-0.352 0.3676,-0.53 0.0619,-0.178 0.0699,-0.35 0.028,-0.514 -0.044,-0.166 -0.1279,-0.316 -0.2537,-0.45 -0.1518,-0.16 -0.3216,-0.248 -0.5054,-0.264 -0.1838,-0.016 -0.3536,0.046 -0.5074,0.184 -0.1678,0.156 -0.2457,0.314 -0.2317,0.474 0.014,0.16 0.0959,0.348 0.2477,0.562 0.1378,0.198 0.2377,0.372 0.3016,0.526 0.062,0.154 0.0719,0.304 0.028,0.448 -0.0439,0.146 -0.1578,0.302 -0.3416,0.474 -0.1957,0.178 -0.4035,0.266 -0.6272,0.266 -0.2237,0 -0.4275,-0.092 -0.6053,-0.278 -0.1038,-0.114 -0.1717,-0.224 -0.2077,-0.328 -0.0359,-0.102 -0.0599,-0.192 -0.0719,-0.27 -0.012,-0.08 -0.032,-0.138 -0.0639,-0.176 -0.038,-0.034 -0.0759,-0.044 -0.1159,-0.03 -0.0399,0.016 -0.0739,0.032 -0.0999,0.052 l -0.0499,-0.054 0.6971,-0.652 0.05,0.054 c -0.1199,0.13 -0.2098,0.27 -0.2697,0.422 -0.0619,0.154 -0.0799,0.31 -0.0559,0.47 0.024,0.158 0.1039,0.314 0.2397,0.462 0.1358,0.144 0.2876,0.218 0.4554,0.226 0.1678,0.008 0.3296,-0.06 0.4854,-0.202 0.0999,-0.088 0.1618,-0.178 0.1858,-0.266 0.024,-0.086 0.006,-0.194 -0.048,-0.324 -0.0579,-0.128 -0.1538,-0.298 -0.2916,-0.51 -0.1858,-0.276 -0.2796,-0.516 -0.2816,-0.718 -0.002,-0.202 0.1038,-0.4 0.3176,-0.596 0.1458,-0.136 0.2996,-0.23 0.4634,-0.284 0.1638,-0.054 0.3296,-0.058 0.4934,-0.012 0.1658,0.046 0.3236,0.148 0.4754,0.308 0.0999,0.112 0.1738,0.22 0.2197,0.326 0.046,0.106 0.0819,0.2 0.1059,0.28 0.026,0.082 0.0559,0.146 0.0899,0.188 0.0379,0.036 0.0779,0.044 0.1158,0.026 0.04,-0.02 0.0739,-0.044 0.1019,-0.074 z"
         inkscape:connector-curvature="0"
         style="fill:#ffffff;stroke:none;fill-opacity:1" />
      <path
         id="path895"
         d="m 26.8895,9.23421 c -9.8518,0 -17.86791,8.01399 -17.86791,17.86599 0,9.852 8.01611,17.866 17.86791,17.866 9.8517,0 17.8678,-8.014 17.8678,-17.866 0,-9.852 -8.0161,-17.86599 -17.8678,-17.86599 z m 0,36.48999 c -10.2693,0 -18.62497,-8.354 -18.62497,-18.624 0,-10.27 8.35567,-18.62399 18.62497,-18.62399 10.2692,0 18.6249,8.35399 18.6249,18.62399 0,10.27 -8.3557,18.624 -18.6249,18.624 z"
         inkscape:connector-curvature="0"
         style="fill:#ffffff;stroke:none;fill-opacity:1" />
      <path
         id="path897"
         d="m 20.8759,33.3666 c -0.008,0.258 -0.018,0.458 -0.02,0.72 0.008,0.058 0.04,0.134 0.1019,0.15 l 0.0599,0.014 c 0.4894,0.06 1.0148,0.078 1.5122,0.078 l 1.2324,0.002 c 0.2338,0.018 0.4934,-0.042 0.7012,0.066 0.1158,0.06 0.1758,0.172 0.2117,0.286 0.048,0.288 0.026,0.572 0.032,0.85 l -0.008,0.724 c 0,0.374 -0.012,0.756 -0.006,1.12 0,0 0,0.222 -0.004,0.228 0.006,0.028 0.004,0.078 0.004,0.11 -0.004,0.11 0.008,0.34 0.008,0.344 0.008,0.11 0.008,0.236 0.018,0.35 0.002,0.01 -0.4095,0.02 -0.4095,0.02 0.0339,-0.22 0.0419,-0.482 0.0659,-0.714 l 0.024,-0.48 0.0119,-0.874 c -0.002,-0.276 0,-0.568 -0.0219,-0.838 -0.006,-0.068 -0.032,-0.134 -0.0919,-0.176 -0.1358,-0.082 -0.3056,-0.07 -0.4594,-0.096 -0.3256,-0.038 -0.6373,-0.01 -0.9688,0.004 -0.2657,0.032 -0.5813,0.056 -0.7152,0.324 -0.0579,0.134 -0.0319,0.29 -0.0419,0.44 l -0.016,0.91 c -0.014,0.498 -0.014,0.99 0.032,1.488 -0.4395,-0.026 -0.9029,-0.024 -1.3743,-0.01 -0.006,0.002 0.002,-0.302 0.008,-0.454 0.004,-0.17 0.004,-0.494 0.004,-0.494 v 0.002 c 0.1638,0.004 0.5333,0.006 0.5333,0.006 0.1238,0.018 0.2617,-0.002 0.3955,0.026 0.044,0.01 0.0879,0.048 0.1159,0.082 l 0.0159,-1.202 c 0.004,-0.232 0.004,-0.484 0.012,-0.724 0.02,-0.122 0.0759,-0.25 0.1958,-0.312 0.0679,-0.04 0.1418,-0.062 0.2197,-0.086 -0.3835,-0.004 -0.7531,-0.006 -1.1386,-0.036 l 0.004,-0.002 c -0.1038,-0.012 -0.2437,0 -0.3156,-0.1 l -0.0299,-0.078 c 0.0199,-0.552 0.0199,-1.128 0,-1.674 0.0299,0.012 0.0699,0.016 0.1018,0.006 z"
         inkscape:connector-curvature="0"
         style="fill:#ffffff;stroke:none;fill-opacity:1" />
      <path
         id="path899"
         d="m 25.2449,33.3666 c 0.022,0.004 0.0659,0.004 0.0939,-0.004 l -0.012,0.56 c 0.002,0.072 0.038,0.138 0.0799,0.194 0.3176,0.3 0.9169,0.84 0.9169,0.84 0.0599,0.058 0.0939,0.144 0.0819,0.23 0.1398,-0.076 0.2157,-0.24 0.2117,-0.382 0.008,-0.162 0.004,-0.5 0.004,-0.5 0.5713,-0.064 1.1246,-0.048 1.6759,0.028 0.0879,0.014 0.2497,0.048 0.2497,0.048 0.0959,0.024 0.1798,0.11 0.2158,0.202 0.0259,0.112 0.0279,0.538 0.0179,0.598 0,0.304 0,0.634 -0.0099,0.948 0.0039,0.006 0.0039,0.094 0,0.126 0,0.418 -0.014,0.864 0,1.292 h -0.002 c 0.0079,0.046 0.0139,0.18 0.0119,0.198 0,0.072 0.004,0.21 0.004,0.21 0.012,0.138 -0.004,0.476 -0.004,0.476 -0.739,-0.02 -1.4602,-0.052 -2.2092,-0.018 l -0.004,-0.006 c 0.018,-0.072 0.024,-0.148 0.024,-0.222 l 0.0039,-0.002 c 0.016,-0.262 0.022,-0.472 -0.0079,-0.72 0.0779,-0.016 0.1538,-0.004 0.2357,-0.008 l 1.2464,0.024 c 0.1418,0.012 0.3016,0.004 0.4295,0.036 -0.006,-0.04 -0.014,-0.068 -0.008,-0.108 0.008,-0.526 0.014,-1.05 0.02,-1.58 -0.014,-0.164 0.01,-0.348 -0.1319,-0.46 -0.0879,-0.072 -0.2037,-0.072 -0.3116,-0.092 -0.4215,-0.046 -0.8829,-0.056 -1.2984,0.002 -0.1678,0.006 -0.3036,0.146 -0.3755,0.288 -0.1438,0.266 -0.2197,0.57 -0.3156,0.858 l -0.2397,0.742 c -0.1119,0.41 -0.2277,0.832 -0.3476,1.242 -0.1218,-0.028 -0.2637,-0.032 -0.3795,-0.008 0.2896,-0.77 0.5173,-1.544 0.8369,-2.322 0.032,-0.084 0.1059,-0.2 0.026,-0.288 l -0.6092,-0.558 c -0.1019,-0.114 -0.1119,-0.294 -0.1199,-0.434 0.006,-0.162 0.01,-0.306 0.01,-0.458 l -0.004,-0.72 z"
         inkscape:connector-curvature="0"
         style="fill:#ffffff;stroke:none;fill-opacity:1" />
      <path
         id="path901"
         d="m 29.3212,33.3132 c -0.008,0.204 -0.022,0.424 -0.014,0.63 0.008,0.142 0.1458,0.234 0.2237,0.328 0.2357,0.23 0.4634,0.448 0.7151,0.662 l 0.5833,0.496 0.7491,0.614 0.1218,0.094 c 0.1259,-0.05 0.2637,-0.148 0.2956,-0.286 0.032,-0.18 0.028,-0.386 0.034,-0.58 0.01,-0.284 -0.01,-0.532 0.018,-0.806 0.008,-0.064 0.0279,-0.13 0.0499,-0.188 0.3216,0.018 0.6372,0.04 0.9668,0.012 -0.0799,0.09 -0.1039,0.216 -0.1039,0.332 -0.0179,0.328 0.012,0.682 -0.0279,1.012 l -0.02,0.064 c -0.3536,0.188 -0.7131,0.348 -1.0407,0.582 0.0899,0.072 0.1898,0.158 0.2836,0.23 l 0.6952,0.58 c 0.0519,0.054 0.0799,0.124 0.0739,0.196 -0.002,0.184 0.002,0.354 -0.006,0.542 l -0.002,-0.022 c -0.014,0.262 -0.012,0.506 -0.014,0.788 v 0.004 c -0.006,0.234 0.008,0.488 0.008,0.716 -0.0339,-0.01 -0.0719,-0.004 -0.0999,0.002 0.024,-0.292 0.026,-0.62 0.018,-0.906 -0.01,-0.146 -0.1398,-0.242 -0.2317,-0.338 -0.6812,-0.716 -1.3923,-1.362 -2.1753,-1.966 -0.0959,-0.088 -0.2237,-0.154 -0.3616,-0.116 -0.1198,0.014 -0.2277,0.11 -0.2636,0.224 -0.038,0.104 -0.058,0.224 -0.06,0.338 l -0.0159,0.7 c 0.006,0.102 -0.008,0.204 0.006,0.314 0.0719,-0.15 0.2596,-0.114 0.3915,-0.14 0.004,0.004 0.0159,0 0.0199,0 0.2417,-0.006 0.4435,0.004 0.6872,-0.018 l 0.01,-0.002 c -0.032,0.308 -0.026,0.65 -0.006,0.968 -0.4335,-0.032 -0.9269,-0.03 -1.3723,-0.014 0,0 -0.008,-0.96 0,-1.328 0.006,-0.342 0.018,-0.71 0.2297,-0.992 0.0859,-0.112 0.2117,-0.178 0.3236,-0.262 l -0.6432,-0.506 c -0.0779,-0.062 -0.1318,-0.144 -0.1358,-0.238 v -0.558 c 0,0 -0.004,-0.052 0,-0.052 0.014,-0.378 0.014,-0.736 0,-1.11 0.0299,0.004 0.0579,0.004 0.0899,0 z"
         inkscape:connector-curvature="0"
         style="fill:#ffffff;stroke:none;fill-opacity:1" />
      <path
         id="path903"
         d="m 26.898,7.3394 c -10.9025,0 -19.76954,8.88 -19.76954,19.794 0,10.914 8.86704,19.794 19.76954,19.794 10.9005,0 19.7695,-8.88 19.7695,-19.794 0,-10.914 -8.869,-19.794 -19.7695,-19.794 z m 0,40.08 c -11.1722,0 -20.26293,-9.1 -20.26293,-20.286 0,-11.186 9.09073,-20.286 20.26293,-20.286 11.1721,0 20.2609,9.1 20.2609,20.286 0,11.186 -9.0888,20.286 -20.2609,20.286 z"
         inkscape:connector-curvature="0"
         style="fill:#ffffff;stroke:none;fill-opacity:1" />
      <path
         id="path905"
         d="m 36.4096,26.8986 c -0.1239,0.552 -0.4654,1.058 -1.1146,1.282 -0.1598,0.054 -0.6153,0.434 -0.1219,0.896 v 0.036 c -0.9228,-0.232 -1.1306,-1.402 -0.2557,-1.858 0.6832,-0.356 1.0667,-1.03 1.1306,-1.756 l 0.034,-0.008 c 0.1858,0.3 0.4614,1.03 0.3276,1.408 z m -1.7179,2.446 c -0.759,-0.13 -1.7278,-0.546 -2.0514,-1.046 -0.9469,-1.458 0.0659,-2.304 0.6032,-2.66 0.4315,-0.286 0.9508,-0.57 0.855,-1.598 -0.1159,-1.272 1.3623,-1.842 1.3603,-1.842 l 0.0279,0.052 c -0.4274,0.222 -0.763,1.216 -0.3216,1.8 0.2537,0.334 0.5514,0.844 0.4455,1.43 -0.1359,0.752 -0.5214,1.19 -1.1086,1.492 -0.3516,0.178 -0.6233,0.658 -0.6273,1.138 -0.006,0.55 0.3836,0.94 0.829,1.184 z m -2.0674,-4.34 -0.006,-0.954 c -0.006,-0.796 0.7411,-1.438 1.5221,-1.462 0,0 0,0.046 -0.002,0.046 -0.2177,0.254 -0.5433,0.416 -0.5293,1.438 0.0099,0.792 -0.1858,1.11 -1.3004,1.7 l -0.028,-0.054 c 0.1898,-0.132 0.3456,-0.434 0.3436,-0.714 m -3.4038,0.15 c -0.1238,0.55 -0.4654,1.058 -1.1146,1.28 -0.1618,0.056 -0.6173,0.436 -0.1219,0.896 v 0.036 c -0.9228,-0.23 -1.1306,-1.4 -0.2557,-1.856 0.6832,-0.356 1.0647,-1.03 1.1306,-1.756 l 0.034,-0.008 c 0.1858,0.3 0.4614,1.03 0.3276,1.408 m -1.7179,2.444 c -0.759,-0.128 -1.7278,-0.546 -2.0514,-1.046 -0.9469,-1.458 0.0639,-2.302 0.6032,-2.658 0.4315,-0.286 0.9508,-0.57 0.855,-1.598 -0.1159,-1.274 1.3623,-1.842 1.3603,-1.842 l 0.0279,0.052 c -0.4274,0.222 -0.765,1.214 -0.3216,1.8 0.2537,0.334 0.5514,0.844 0.4455,1.43 -0.1358,0.75 -0.5214,1.188 -1.1086,1.49 -0.3516,0.18 -0.6233,0.66 -0.6273,1.14 -0.006,0.548 0.3836,0.938 0.829,1.184 z m -2.0674,-4.338 -0.006,-0.954 c -0.006,-0.796 0.7411,-1.438 1.5221,-1.464 0,0 0,0.048 -0.002,0.048 -0.2177,0.254 -0.5433,0.414 -0.5293,1.438 0.01,0.792 -0.1858,1.11 -1.3004,1.7 l -0.028,-0.054 c 0.1898,-0.132 0.3436,-0.434 0.3436,-0.714 m -3.7753,3.616 c -0.1239,0.552 -0.4655,1.06 -1.1147,1.282 -0.1618,0.054 -0.6172,0.436 -0.1218,0.896 v 0.036 c -0.9229,-0.23 -1.1306,-1.402 -0.2577,-1.856 0.6832,-0.356 1.0667,-1.03 1.1306,-1.756 l 0.036,-0.01 c 0.1857,0.3 0.4614,1.032 0.3276,1.408 m -1.7179,2.446 c -0.7611,-0.132 -1.7279,-0.546 -2.0515,-1.046 -0.9468,-1.458 0.064,-2.302 0.6033,-2.66 0.4295,-0.284 0.9488,-0.568 0.8549,-1.598 -0.1178,-1.272 1.3623,-1.84 1.3603,-1.84 l 0.028,0.052 c -0.4275,0.222 -0.765,1.216 -0.3216,1.8 0.2517,0.334 0.5513,0.842 0.4455,1.428 -0.1359,0.752 -0.5214,1.19 -1.1107,1.492 -0.3495,0.18 -0.6212,0.66 -0.6272,1.14 -0.006,0.55 0.3855,0.938 0.831,1.184 z m -2.0694,-4.338 -0.006,-0.954 c -0.004,-0.798 0.743,-1.438 1.5241,-1.464 0,0 0,0.046 -0.002,0.046 -0.2178,0.256 -0.5453,0.416 -0.5314,1.44 0.012,0.792 -0.1837,1.108 -1.2984,1.7 l -0.0279,-0.054 c 0.1897,-0.134 0.3436,-0.436 0.3416,-0.714 m 19.33,-5.66 H 16.5382 l 0.002,10.212 7.9202,-0.002 c 0.6752,-0.48 1.5021,-0.762 2.393,-0.762 0.8889,0 1.7159,0.282 2.3931,0.764 h 0.002 c 0.9488,0.67 1.608,1.728 1.7518,2.942 0.3516,-1.38 1.614,-2.406 3.1021,-2.406 1.4902,0 2.7307,1.022 3.1002,2.406 0.002,0.002 0.004,-1.232 0.004,-2.942 0,-3.878 -0.004,-10.212 -0.004,-10.212 m -17.5722,10.748 c 1.4901,0 2.7246,1.022 3.1021,2.406 0.1279,-1.214 0.7811,-2.274 1.7279,-2.942 h -7.9202 l 0.002,2.942 c 0.3396,-1.398 1.588,-2.406 3.0882,-2.406 z"
         inkscape:connector-curvature="0"
         style="clip-rule:evenodd;fill:#ffffff;fill-rule:evenodd;stroke:none;fill-opacity:1" />
      <path
         id="path907"
         d="M 27.1151,13.5768 H 26.6218 V 8.73676 h 0.4933 z"
         inkscape:connector-curvature="0"
         style="fill:#ffffff;stroke:none;fill-opacity:1" />
      <path
         id="path909"
         d="m 26.6213,45.0448 v -1.104 l 0.2457,0.038 0.2477,-0.038 v 1.104 z"
         inkscape:connector-curvature="0"
         style="fill:#ffffff;stroke:none;fill-opacity:1" />
      <path
         id="path911"
         d="m 25.3632,44.9808 0.0899,-1.29 c 0.1618,0.04 0.3236,0.08 0.4874,0.116 l -0.0859,1.208 z"
         inkscape:connector-curvature="0"
         style="fill:#ffffff;stroke:none;fill-opacity:1" />
      <path
         id="path913"
         d="m 28.3735,8.8022 -0.3315,4.774 h -0.4954 l 0.3356,-4.808 z"
         inkscape:connector-curvature="0"
         style="fill:#ffffff;stroke:none;fill-opacity:1" />
      <path
         id="path915"
         d="m 24.107,44.8314 0.2097,-1.498 c 0.1558,0.058 0.3156,0.112 0.4754,0.164 l -0.1977,1.402 z"
         inkscape:connector-curvature="0"
         style="fill:#ffffff;stroke:none;fill-opacity:1" />
      <path
         id="path917"
         d="M 29.6299,8.95078 28.9827,13.5768 H 28.4833 L 29.1405,8.88278 Z"
         inkscape:connector-curvature="0"
         style="fill:#ffffff;stroke:none;fill-opacity:1" />
      <path
         id="path919"
         d="m 22.8633,44.5952 0.3636,-1.718 c 0.1518,0.074 0.3056,0.142 0.4614,0.208 l -0.3416,1.612 z"
         inkscape:connector-curvature="0"
         style="fill:#ffffff;stroke:none;fill-opacity:1" />
      <path
         id="path921"
         d="M 30.8732,9.18779 29.9424,13.5778 H 29.439 l 0.9508,-4.49201 z"
         inkscape:connector-curvature="0"
         style="fill:#ffffff;stroke:none;fill-opacity:1" />
      <path
         id="path923"
         d="m 21.6396,44.2721 0.5553,-1.942 c 0.1458,0.088 0.2916,0.17 0.4415,0.25 l -0.5214,1.828 z"
         inkscape:connector-curvature="0"
         style="fill:#ffffff;stroke:none;fill-opacity:1" />
      <path
         id="path925"
         d="M 32.0972,9.51078 30.9347,13.5768 H 30.4213 L 31.6218,9.37478 Z"
         inkscape:connector-curvature="0"
         style="fill:#ffffff;stroke:none;fill-opacity:1" />
      <path
         id="path927"
         d="m 20.4407,43.8638 0.787,-2.162 c 0.1378,0.098 0.2777,0.194 0.4195,0.288 l -0.7431,2.044 z"
         inkscape:connector-curvature="0"
         style="fill:#ffffff;stroke:none;fill-opacity:1" />
      <path
         id="path929"
         d="M 33.2954,9.91758 31.9671,13.5776 H 31.4417 L 32.832,9.74958 Z"
         inkscape:connector-curvature="0"
         style="fill:#ffffff;stroke:none;fill-opacity:1" />
      <path
         id="path931"
         d="m 19.2738,43.3746 1.0567,-2.378 c 0.1298,0.11 0.2617,0.218 0.3955,0.326 l -1.0008,2.252 z"
         inkscape:connector-curvature="0"
         style="fill:#ffffff;stroke:none;fill-opacity:1" />
      <path
         id="path933"
         d="m 34.4626,10.4084 -1.4083,3.17 H 32.515 l 1.4962,-3.372 z"
         inkscape:connector-curvature="0"
         style="fill:#ffffff;stroke:none;fill-opacity:1" />
      <path
         id="path935"
         d="m 18.1436,42.8032 1.3683,-2.578 c 0.1199,0.124 0.2417,0.244 0.3656,0.362 l -1.2984,2.448 z"
         inkscape:connector-curvature="0"
         style="fill:#ffffff;stroke:none;fill-opacity:1" />
      <path
         id="path937"
         d="m 35.5926,10.9791 -1.3783,2.598 H 33.655 l 1.5022,-2.83 z"
         inkscape:connector-curvature="0"
         style="fill:#ffffff;stroke:none;fill-opacity:1" />
      <path
         id="path939"
         d="m 17.0561,42.1558 1.7199,-2.756 c 0.1078,0.134 0.2197,0.264 0.3355,0.394 l -1.6359,2.624 z"
         inkscape:connector-curvature="0"
         style="fill:#ffffff;stroke:none;fill-opacity:1" />
      <path
         id="path941"
         d="m 36.6806,11.6266 -1.2165,1.952 h -0.5832 l 1.3802,-2.214 z"
         inkscape:connector-curvature="0"
         style="fill:#ffffff;stroke:none;fill-opacity:1" />
      <path
         id="path943"
         d="m 16.0162,41.4334 2.1054,-2.902 c 0.0979,0.14 0.1998,0.282 0.3037,0.422 l -2.0096,2.77 z"
         inkscape:connector-curvature="0"
         style="fill:#ffffff;stroke:none;fill-opacity:1" />
      <path
         id="path945"
         d="m 37.7193,12.3496 -0.8909,1.228 h -0.6092 l 1.1006,-1.518 z"
         inkscape:connector-curvature="0"
         style="fill:#ffffff;stroke:none;fill-opacity:1" />
      <path
         id="path947"
         d="m 15.0291,40.6396 2.5249,-3.014 c 0.0859,0.152 0.1758,0.302 0.2677,0.448 l -2.4151,2.884 z m 22.6799,-27.076 0.6192,-0.738 0.3776,0.318 -0.809,0.966 v -0.546 z"
         inkscape:connector-curvature="0"
         style="fill:#ffffff;stroke:none;fill-opacity:1" />
      <path
         id="path949"
         d="m 14.1,39.7802 2.9723,-3.084 c 0.0759,0.16 0.1518,0.316 0.2317,0.47 l -2.8485,2.956 z"
         inkscape:connector-curvature="0"
         style="fill:#ffffff;stroke:none;fill-opacity:1" />
      <path
         id="path951"
         d="m 39.6355,14.003 -1.7319,1.796 -0.002,-0.71 1.3783,-1.428 z"
         inkscape:connector-curvature="0"
         style="fill:#ffffff;stroke:none;fill-opacity:1" />
      <path
         id="path953"
         d="m 13.2334,38.8568 3.4417,-3.106 c 0.062,0.166 0.1279,0.33 0.1958,0.49 l -3.3079,2.982 z"
         inkscape:connector-curvature="0"
         style="fill:#ffffff;stroke:none;fill-opacity:1" />
      <path
         id="path955"
         d="m 40.5025,14.9262 -2.5968,2.342 -0.002,-0.664 2.2692,-2.046 z"
         inkscape:connector-curvature="0"
         style="fill:#ffffff;stroke:none;fill-opacity:1" />
      <path
         id="path957"
         d="m 12.4329,37.8753 3.9272,-3.074 c 0.0499,0.17 0.1018,0.338 0.1578,0.504 l -3.7814,2.958 z"
         inkscape:connector-curvature="0"
         style="fill:#ffffff;stroke:none;fill-opacity:1" />
      <path
         id="path959"
         d="m 41.3033,15.9076 -3.3958,2.658 -0.002,-0.626 3.0942,-2.422 z"
         inkscape:connector-curvature="0"
         style="fill:#ffffff;stroke:none;fill-opacity:1" />
      <path
         id="path961"
         d="m 11.703,36.8392 4.4225,-2.986 c 0.036,0.172 0.0759,0.344 0.1179,0.514 l -4.2647,2.882 z"
         inkscape:connector-curvature="0"
         style="fill:#ffffff;stroke:none;fill-opacity:1" />
      <path
         id="path963"
         d="m 42.0336,16.9422 -4.1249,2.788 v -0.596 l 3.8492,-2.602 z"
         inkscape:connector-curvature="0"
         style="fill:#ffffff;stroke:none;fill-opacity:1" />
      <path
         id="path965"
         d="m 11.0462,35.7558 4.9179,-2.844 c 0.024,0.176 0.0499,0.352 0.0799,0.524 l -4.7501,2.748 z"
         inkscape:connector-curvature="0"
         style="fill:#ffffff;stroke:none;fill-opacity:1" />
      <path
         id="path967"
         d="m 42.6897,18.0256 -4.7801,2.764 v -0.568 l 4.5324,-2.624 z"
         inkscape:connector-curvature="0"
         style="fill:#ffffff;stroke:none;fill-opacity:1" />
      <path
         id="path969"
         d="m 10.4671,34.6298 5.4053,-2.64 c 0.012,0.176 0.026,0.352 0.044,0.526 l -5.2336,2.558 z"
         inkscape:connector-curvature="0"
         style="fill:#ffffff;stroke:none;fill-opacity:1" />
      <path
         id="path971"
         d="m 43.2695,19.1524 -5.3574,2.618 -0.002,-0.55 5.1436,-2.512 z"
         inkscape:connector-curvature="0"
         style="fill:#ffffff;stroke:none;fill-opacity:1" />
      <path
         id="path973"
         d="m 9.96808,33.4656 5.87672,-2.378 v 0.04 c 0,0.162 0.004,0.326 0.01,0.488 l -5.701,2.308 z"
         inkscape:connector-curvature="0"
         style="fill:#ffffff;stroke:none;fill-opacity:1" />
      <path
         id="path975"
         d="m 43.7687,20.3174 -5.8568,2.37 v -0.532 l 5.671,-2.296 z"
         inkscape:connector-curvature="0"
         style="fill:#ffffff;stroke:none;fill-opacity:1" />
      <path
         id="path977"
         d="m 9.5506,32.2694 6.2962,-2.05 v 0.52 l -6.14239,2 z"
         inkscape:connector-curvature="0"
         style="fill:#ffffff;stroke:none;fill-opacity:1" />
      <path
         id="path979"
         d="m 44.1853,21.5136 -6.2722,2.042 v -0.52 l 6.1184,-1.992 z"
         inkscape:connector-curvature="0"
         style="fill:#ffffff;stroke:none;fill-opacity:1" />
      <path
         id="path981"
         d="M 9.21844,31.046 15.8462,29.39 v 0.508 l -6.5079,1.628 z"
         inkscape:connector-curvature="0"
         style="fill:#ffffff;stroke:none;fill-opacity:1" />
      <path
         id="path983"
         d="m 44.5178,22.7364 -6.6038,1.65 v -0.508 l 6.484,-1.622 z"
         inkscape:connector-curvature="0"
         style="fill:#ffffff;stroke:none;fill-opacity:1" />
      <path
         id="path985"
         d="m 8.97174,29.8024 6.87546,-1.214 v 0.5 l -6.78957,1.202 z"
         inkscape:connector-curvature="0"
         style="fill:#ffffff;stroke:none;fill-opacity:1" />
      <path
         id="path987"
         d="m 44.7646,23.9798 -6.8495,1.21 v -0.502 l 6.7636,-1.194 z"
         inkscape:connector-curvature="0"
         style="fill:#ffffff;stroke:none;fill-opacity:1" />
      <path
         id="path989"
         d="m 8.81219,28.5454 7.03731,-0.74 -0.002,0.496 -6.98337,0.736 z"
         inkscape:connector-curvature="0"
         style="fill:#ffffff;stroke:none;fill-opacity:1" />
      <path
         id="path991"
         d="m 44.9238,25.2362 -7.0073,0.74 v -0.498 l 6.9554,-0.734 z"
         inkscape:connector-curvature="0"
         style="fill:#ffffff;stroke:none;fill-opacity:1" />
      <path
         id="path993"
         d="m 8.74042,27.2811 7.10918,-0.25 v 0.494 l -7.0912,0.25 z"
         inkscape:connector-curvature="0"
         style="fill:#ffffff;stroke:none;fill-opacity:1" />
      <path
         id="path995"
         d="m 44.9955,26.5016 -7.0792,0.25 v -0.496 l 7.0612,-0.248 z"
         inkscape:connector-curvature="0"
         style="fill:#ffffff;stroke:none;fill-opacity:1" />
      <path
         id="path997"
         d="m 8.75748,26.014 7.09322,0.246 v 0.494 L 8.7395,26.508 Z"
         inkscape:connector-curvature="0"
         style="fill:#ffffff;stroke:none;fill-opacity:1" />
      <path
         id="path999"
         d="m 44.9784,27.7682 -7.0612,-0.246 v -0.494 l 7.0792,0.246 z"
         inkscape:connector-curvature="0"
         style="fill:#ffffff;stroke:none;fill-opacity:1" />
      <path
         id="path1001"
         d="m 8.86297,24.7508 6.98933,0.734 -0.002,0.498 -7.03926,-0.74 z"
         inkscape:connector-curvature="0"
         style="fill:#ffffff;stroke:none;fill-opacity:1" />
      <path
         id="path1003"
         d="m 44.8732,29.0314 -6.9554,-0.732 v -0.494 l 7.0074,0.736 z"
         inkscape:connector-curvature="0"
         style="fill:#ffffff;stroke:none;fill-opacity:1" />
      <path
         id="path1005"
         d="m 9.0558,23.4982 6.7976,1.2 -0.002,0.5 -6.88149,-1.214 z"
         inkscape:connector-curvature="0"
         style="fill:#ffffff;stroke:none;fill-opacity:1" />
      <path
         id="path1007"
         d="m 44.6802,30.284 -6.7596,-1.194 -0.002,-0.5 6.8475,1.208 z"
         inkscape:connector-curvature="0"
         style="fill:#ffffff;stroke:none;fill-opacity:1" />
      <path
         id="path1009"
         d="m 9.33506,22.2626 6.51794,1.626 v 0.508 l -6.63779,-1.654 z"
         inkscape:connector-curvature="0"
         style="fill:#ffffff;stroke:none;fill-opacity:1" />
      <path
         id="path1011"
         d="m 44.4001,31.5198 -6.4799,-1.616 v -0.51 l 6.5998,1.646 z"
         inkscape:connector-curvature="0"
         style="fill:#ffffff;stroke:none;fill-opacity:1" />
      <path
         id="path1013"
         d="m 9.70033,21.0488 6.15437,2.002 v 0.518 l -6.30618,-2.05 z"
         inkscape:connector-curvature="0"
         style="fill:#ffffff;stroke:none;fill-opacity:1" />
      <path
         id="path1015"
         d="m 44.0351,32.7328 -6.1124,-1.988 -0.002,-0.518 6.2662,2.036 z"
         inkscape:connector-curvature="0"
         style="fill:#ffffff;stroke:none;fill-opacity:1" />
      <path
         id="path1017"
         d="m 10.1492,19.8641 5.7069,2.308 -0.002,0.532 -5.89066,-2.382 z"
         inkscape:connector-curvature="0"
         style="fill:#ffffff;stroke:none;fill-opacity:1" />
      <path
         id="path1019"
         d="m 43.5867,33.9182 -5.6729,-2.294 c 0.0059,-0.158 0.0079,-0.318 0.0079,-0.478 v -0.052 l 5.8508,2.366 z"
         inkscape:connector-curvature="0"
         style="fill:#ffffff;stroke:none;fill-opacity:1" />
      <path
         id="path1021"
         d="m 10.6801,18.7136 5.1756,2.528 v 0.548 l -5.3913,-2.632 z"
         inkscape:connector-curvature="0"
         style="fill:#ffffff;stroke:none;fill-opacity:1" />
      <path
         id="path1023"
         d="m 43.0565,35.0686 -5.2055,-2.542 c 0.0179,-0.174 0.0319,-0.35 0.0439,-0.526 l 5.3773,2.624 z"
         inkscape:connector-curvature="0"
         style="fill:#ffffff;stroke:none;fill-opacity:1" />
      <path
         id="path1025"
         d="m 11.2887,17.6028 4.5683,2.64 v 0.57 l -4.814,-2.782 z"
         inkscape:connector-curvature="0"
         style="fill:#ffffff;stroke:none;fill-opacity:1" />
      <path
         id="path1027"
         d="m 42.4473,36.1794 -4.7261,-2.73 c 0.032,-0.174 0.0579,-0.348 0.0819,-0.524 l 4.8899,2.826 z"
         inkscape:connector-curvature="0"
         style="fill:#ffffff;stroke:none;fill-opacity:1" />
      <path
         id="path1029"
         d="m 11.9736,16.537 3.8852,2.624 v 0.594 l -4.1609,-2.808 z"
         inkscape:connector-curvature="0"
         style="fill:#ffffff;stroke:none;fill-opacity:1" />
      <path
         id="path1031"
         d="m 41.7618,37.2459 -4.2407,-2.864 c 0.0439,-0.17 0.0839,-0.342 0.1198,-0.514 l 4.3966,2.968 z"
         inkscape:connector-curvature="0"
         style="fill:#ffffff;stroke:none;fill-opacity:1" />
      <path
         id="path1033"
         d="m 12.7317,15.5213 3.1281,2.448 v 0.626 l -3.4318,-2.684 z"
         inkscape:connector-curvature="0"
         style="fill:#ffffff;stroke:none;fill-opacity:1" />
      <path
         id="path1035"
         d="m 41.004,38.261 -3.7574,-2.94 c 0.056,-0.166 0.1079,-0.334 0.1578,-0.504 l 3.9032,3.054 z"
         inkscape:connector-curvature="0"
         style="fill:#ffffff;stroke:none;fill-opacity:1" />
      <path
         id="path1037"
         d="m 13.5584,14.5622 2.3032,2.076 v 0.664 l -2.6328,-2.372 z"
         inkscape:connector-curvature="0"
         style="fill:#ffffff;stroke:none;fill-opacity:1" />
      <path
         id="path1039"
         d="m 40.1777,39.2208 -3.2859,-2.964 c 0.0679,-0.16 0.1318,-0.322 0.1957,-0.488 l 3.4218,3.084 z"
         inkscape:connector-curvature="0"
         style="fill:#ffffff;stroke:none;fill-opacity:1" />
      <path
         id="path1041"
         d="m 14.45,13.6622 1.4143,1.466 -0.002,0.71 -1.7678,-1.832 z"
         inkscape:connector-curvature="0"
         style="fill:#ffffff;stroke:none;fill-opacity:1" />
      <path
         id="path1043"
         d="m 39.2867,40.12 -2.8325,-2.936 c 0.0799,-0.156 0.1578,-0.312 0.2317,-0.47 l 2.9543,3.064 z"
         inkscape:connector-curvature="0"
         style="fill:#ffffff;stroke:none;fill-opacity:1" />
      <path
         id="path1045"
         d="m 15.4018,12.8267 0.6292,0.75 h -0.1657 v 0.572 l -0.841,-1.004 z"
         inkscape:connector-curvature="0"
         style="fill:#ffffff;stroke:none;fill-opacity:1" />
      <path
         id="path1047"
         d="m 38.3347,40.9548 -2.403,-2.864 c 0.0939,-0.148 0.1838,-0.298 0.2697,-0.448 l 2.5109,2.996 z"
         inkscape:connector-curvature="0"
         style="fill:#ffffff;stroke:none;fill-opacity:1" />
      <path
         id="path1049"
         d="M 16.4093,12.06 17.51,13.576 H 16.9007 L 16.0098,12.352 Z"
         inkscape:connector-curvature="0"
         style="fill:#ffffff;stroke:none;fill-opacity:1" />
      <path
         id="path1051"
         d="m 37.3267,41.7214 -1.9996,-2.756 c 0.1039,-0.138 0.2058,-0.278 0.3037,-0.42 l 2.0954,2.886 z"
         inkscape:connector-curvature="0"
         style="fill:#ffffff;stroke:none;fill-opacity:1" />
      <path
         id="path1053"
         d="m 17.4683,11.366 1.3803,2.21 h -0.5813 l -1.2165,-1.948 z"
         inkscape:connector-curvature="0"
         style="fill:#ffffff;stroke:none;fill-opacity:1" />
      <path
         id="path1055"
         d="m 36.2678,42.4162 -1.63,-2.61 c 0.1159,-0.128 0.2277,-0.26 0.3376,-0.394 l 1.7099,2.742 z"
         inkscape:connector-curvature="0"
         style="fill:#ffffff;stroke:none;fill-opacity:1" />
      <path
         id="path1057"
         d="m 18.5724,10.7466 1.5042,2.83 h -0.5593 l -1.3803,-2.598 z"
         inkscape:connector-curvature="0"
         style="fill:#ffffff;stroke:none;fill-opacity:1" />
      <path
         id="path1059"
         d="m 35.1635,43.035 -1.2964,-2.438 c 0.1258,-0.118 0.2477,-0.238 0.3675,-0.362 l 1.3643,2.568 z"
         inkscape:connector-curvature="0"
         style="fill:#ffffff;stroke:none;fill-opacity:1" />
      <path
         id="path1061"
         d="m 19.7179,10.2072 1.4982,3.37 h -0.5394 l -1.4102,-3.168 z"
         inkscape:connector-curvature="0"
         style="fill:#ffffff;stroke:none;fill-opacity:1" />
      <path
         id="path1063"
         d="m 34.0179,43.5758 -0.9987,-2.246 c 0.1338,-0.106 0.2656,-0.214 0.3955,-0.326 l 1.0547,2.37 z"
         inkscape:connector-curvature="0"
         style="fill:#ffffff;stroke:none;fill-opacity:1" />
      <path
         id="path1065"
         d="m 20.8979,9.74779 1.3922,3.83001 H 21.7648 L 20.4344,9.91779 Z"
         inkscape:connector-curvature="0"
         style="fill:#ffffff;stroke:none;fill-opacity:1" />
      <path
         id="path1067"
         d="m 32.8379,44.0344 -0.741,-2.04 c 0.1418,-0.094 0.2816,-0.19 0.4194,-0.288 l 0.7851,2.158 z"
         inkscape:connector-curvature="0"
         style="fill:#ffffff;stroke:none;fill-opacity:1" />
      <path
         id="path1069"
         d="M 22.1077,9.37297 23.3122,13.577 H 22.7988 L 21.6323,9.50897 Z"
         inkscape:connector-curvature="0"
         style="fill:#ffffff;stroke:none;fill-opacity:1" />
      <path
         id="path1071"
         d="m 31.6292,44.4094 -0.5234,-1.826 c 0.1498,-0.08 0.2977,-0.162 0.4415,-0.248 l 0.5553,1.938 z"
         inkscape:connector-curvature="0"
         style="fill:#ffffff;stroke:none;fill-opacity:1" />
      <path
         id="path1073"
         d="m 23.3396,9.0826 0.9548,4.494 H 23.789 l -0.9328,-4.392 z"
         inkscape:connector-curvature="0"
         style="fill:#ffffff;stroke:none;fill-opacity:1" />
      <path
         id="path1075"
         d="m 30.3971,44.7004 -0.3416,-1.616 c 0.1538,-0.064 0.3076,-0.134 0.4594,-0.204 l 0.3656,1.716 z"
         inkscape:connector-curvature="0"
         style="fill:#ffffff;stroke:none;fill-opacity:1" />
      <path
         id="path1077"
         d="M 24.5891,8.88003 25.2482,13.578 H 24.7509 L 24.0997,8.94803 Z"
         inkscape:connector-curvature="0"
         style="fill:#ffffff;stroke:none;fill-opacity:1" />
      <path
         id="path1079"
         d="M 29.1478,44.9029 28.95,43.4969 c 0.1598,-0.052 0.3176,-0.108 0.4754,-0.164 l 0.2098,1.502 z"
         inkscape:connector-curvature="0"
         style="fill:#ffffff;stroke:none;fill-opacity:1" />
      <path
         id="path1081"
         d="m 25.8494,8.7642 0.3355,4.812 H 25.6916 L 25.358,8.7982 Z"
         inkscape:connector-curvature="0"
         style="fill:#ffffff;stroke:none;fill-opacity:1" />
      <path
         id="path1083"
         d="m 27.887,45.0174 -0.0839,-1.212 c 0.1618,-0.034 0.3256,-0.074 0.4854,-0.116 l 0.0899,1.294 z"
         inkscape:connector-curvature="0"
         style="fill:#ffffff;stroke:none;fill-opacity:1" />
      <path
         id="path1085"
         d="M 26.9666,0.948002 C 12.6184,0.948002 0.946827,12.636 0.946827,27 0.946827,41.366 12.6184,53.052 26.9666,53.052 41.3148,53.052 52.9864,41.366 52.9864,27 52.9864,12.636 41.3148,0.948002 26.9666,0.948002 Z M 26.9666,54 C 12.097,54 0,41.888 0,27 0,12.114 12.097,0 26.9666,0 c 14.8696,0 26.9666,12.114 26.9666,27 0,14.888 -12.097,27 -26.9666,27 z"
         inkscape:connector-curvature="0"
         style="fill:#ffffff;stroke:none;fill-opacity:1" />
      <path
         id="path1087"
         d="m 3.25701,35.7026 2.23923,-2.964 -0.002,-0.008 -2.53286,0.774 c -0.10188,0.03 -0.1638,0.07 -0.18377,0.122 -0.02198,0.05 -0.01399,0.126 0.01797,0.224 l 0.05394,0.174 -0.06992,0.022 -0.28564,-0.932 0.06991,-0.02 0.04594,0.148 c 0.02797,0.098 0.06392,0.164 0.10987,0.196 0.04594,0.03 0.11785,0.028 0.21973,-0.004 l 2.67069,-0.816 -0.12784,-0.418 0.06991,-0.02 0.27965,0.912 -1.76381,2.338 0.002,0.008 1.96356,-0.6 c 0.08789,-0.024 0.14582,-0.056 0.17179,-0.098 0.02597,-0.04 0.02397,-0.108 -0.00599,-0.2 l -0.06392,-0.204 0.06991,-0.02 0.28165,0.916 -0.06991,0.022 -0.05793,-0.192 c -0.02797,-0.092 -0.06392,-0.15 -0.10787,-0.17 -0.04394,-0.018 -0.10986,-0.012 -0.19775,0.016 l -2.77856,0.85 z"
         inkscape:connector-curvature="0"
         style="fill:#ffffff;stroke:none;fill-opacity:1" />
      <path
         id="path1089"
         d="m 4.61933,38.5534 2.71863,-1.386 -0.04195,-0.086 c -0.11785,-0.24 -0.22971,-0.412 -0.33358,-0.522 -0.10387,-0.108 -0.22372,-0.16 -0.35956,-0.152 -0.13583,0.01 -0.31361,0.07 -0.52934,0.184 l -0.03396,-0.064 0.83696,-0.428 1.26444,2.482 -0.83896,0.426 -0.03196,-0.064 c 0.21972,-0.11 0.37353,-0.216 0.45943,-0.322 0.08789,-0.104 0.11785,-0.232 0.08989,-0.378 -0.02597,-0.148 -0.10188,-0.34 -0.22373,-0.574 l -0.04594,-0.088 -2.71863,1.384 0.21174,0.418 -0.06592,0.034 -0.63522,-1.248 0.06592,-0.034 z"
         inkscape:connector-curvature="0"
         style="fill:#ffffff;stroke:none;fill-opacity:1" />
    </g>
  </g>
</svg>
