<?xml version="1.0" encoding="UTF-8" standalone="no"?>
<svg
   xmlns:dc="http://purl.org/dc/elements/1.1/"
   xmlns:cc="http://creativecommons.org/ns#"
   xmlns:rdf="http://www.w3.org/1999/02/22-rdf-syntax-ns#"
   xmlns:svg="http://www.w3.org/2000/svg"
   xmlns="http://www.w3.org/2000/svg"
   xmlns:sodipodi="http://sodipodi.sourceforge.net/DTD/sodipodi-0.dtd"
   xmlns:inkscape="http://www.inkscape.org/namespaces/inkscape"
   width="14.726376"
   height="15"
   viewBox="0 0 14.726376 15"
   version="1.1"
   id="svg4763"
   sodipodi:docname="downarrow.svg"
   style="fill:none"
   inkscape:version="0.92.4 (5da689c313, 2019-01-14)">
  <metadata
     id="metadata4769">
    <rdf:RDF>
      <cc:Work
         rdf:about="">
        <dc:format>image/svg+xml</dc:format>
        <dc:type
           rdf:resource="http://purl.org/dc/dcmitype/StillImage" />
        <dc:title></dc:title>
      </cc:Work>
    </rdf:RDF>
  </metadata>
  <defs
     id="defs4767" />
  <sodipodi:namedview
     pagecolor="#ffffff"
     bordercolor="#666666"
     borderopacity="1"
     objecttolerance="10"
     gridtolerance="10"
     guidetolerance="10"
     inkscape:pageopacity="0"
     inkscape:pageshadow="2"
     inkscape:window-width="3000"
     inkscape:window-height="1875"
     id="namedview4765"
     showgrid="false"
     fit-margin-top="0"
     fit-margin-left="0"
     fit-margin-right="0"
     fit-margin-bottom="0"
     inkscape:zoom="43.333333"
     inkscape:cx="3.9508429"
     inkscape:cy="8.4524328"
     inkscape:window-x="-13"
     inkscape:window-y="-13"
     inkscape:window-maximized="1"
     inkscape:current-layer="svg4763" />
  <path
     d="m 7.3631877,15 c 0.255925,0 0.5117809,-0.0977 0.707031,-0.292969 L 14.4335,8.34375 c 0.390501,-0.3905 0.390501,-1.023462 0,-1.414062 -0.390599,-0.3905 -1.023562,-0.3905 -1.414062,0 l -4.6562503,4.65625 V 1 c 0,-0.5523 -0.4477001,-1 -1,-1 -0.5523,0 -1.0000001,0.4477 -1.0000001,1 l 0,10.585938 -4.6562502,-4.65625 c -0.3905,-0.3905 -1.02346202,-0.3905 -1.41406202,0 -0.3905,0.3906 -0.390501,1.023562 0,1.414062 L 6.6561566,14.707031 C 6.8514067,14.902296 7.1072626,15 7.3631877,15 Z"
     id="path4761"
     style="fill:#ffffff;fill-opacity:1;stroke:none"
     inkscape:connector-curvature="0" />
</svg>
