<svg width="281" height="54" viewBox="0 0 281 54" fill="none" xmlns="http://www.w3.org/2000/svg">
<g clip-path="url(#clip0_510_2136)">
<path d="M182.569 53.8477C181.938 53.6965 180.717 52.9959 180.326 52.5616C180.026 52.2276 180.068 52.0999 180.639 51.6142C180.995 51.3117 181.013 51.3144 181.592 51.7589C183.353 53.1108 185.919 52.9314 187.099 51.374C187.798 50.4521 187.981 49.7452 187.982 47.9619L187.984 46.5034L187.242 47.0736C185.458 48.4438 182.459 48.2047 181.041 46.5792C179.921 45.2959 179.411 43.1863 179.591 40.5795C179.759 38.1371 180.206 36.8458 181.216 35.8823C182.064 35.0743 182.9 34.7906 184.436 34.7898C185.839 34.7892 186.372 34.9619 187.435 35.7624L187.964 36.1606L188.015 35.5343C188.065 34.925 188.086 34.9065 188.778 34.8563L189.49 34.8046L189.441 42.6129L189.392 50.4212L188.944 51.2759C188.365 52.381 187.229 53.3786 186.15 53.7294C185.269 54.0157 183.513 54.0737 182.57 53.8476L182.569 53.8477ZM185.925 46.3186C186.565 46.1199 187.203 45.4499 187.577 44.5829C188.014 43.57 188.111 40.0284 187.738 38.7274C187.217 36.9118 186.297 36.159 184.596 36.159C182.249 36.159 181.293 37.4071 181.083 40.7463C180.92 43.3538 181.583 45.5086 182.737 46.1181C183.743 46.6494 184.672 46.7078 185.925 46.3186ZM273.662 53.7308C273.251 53.5873 272.557 53.2057 272.118 52.8829L271.321 52.296L271.777 51.8174C272.312 51.2551 272.515 51.2261 272.902 51.6569C273.059 51.8319 273.572 52.1412 274.04 52.3441C275.172 52.8341 276.633 52.7404 277.703 52.1093C278.851 51.4323 279.33 50.2993 279.431 48.0276L279.509 46.2528L278.844 46.8573C277.974 47.6484 277.168 47.9144 275.65 47.9112C273.549 47.9068 272.271 47.0177 271.465 44.9999C271.139 44.183 271.099 43.781 271.098 41.3301C271.098 38.9178 271.14 38.472 271.445 37.7217C272.274 35.6786 273.599 34.7799 275.779 34.7817C277.254 34.783 278.116 35.0803 278.923 35.8666L279.462 36.3913V35.6079V34.8245H280.131H280.8L280.752 42.7063L280.705 50.5881L280.191 51.5055C279.257 53.1711 277.668 54.0156 275.496 53.9997C274.897 53.9953 274.072 53.8743 273.662 53.7308ZM277.477 46.2433C278.845 45.5506 279.366 44.1978 279.369 41.3301C279.372 38.9142 279.045 37.7559 278.123 36.9174C277.414 36.2725 276.709 36.0847 275.406 36.1934C274.289 36.2867 273.525 36.8375 272.98 37.9436C272.614 38.6851 272.585 38.9364 272.588 41.3301C272.593 44.1636 272.792 44.9528 273.72 45.8169C274.546 46.586 276.387 46.795 277.477 46.2433ZM42.3948 50.9979C41.3922 50.9335 40.5346 50.868 40.489 50.8524C40.4434 50.8368 41.1519 50.5663 42.0634 50.2514C47.9135 48.23 55.3369 43.0164 61.4455 36.6389C73.9804 23.5522 80.1876 7.87546 75.13 2.07741C74.8296 1.73307 74.6151 1.41993 74.6532 1.38154C74.6914 1.34314 75.8013 1.5263 77.1197 1.78854C92.8438 4.91611 103.562 11.8748 105.643 20.3069C106.132 22.2867 106.024 25.1552 105.392 27.0316C102.338 36.0875 90.8438 43.7592 73.9864 47.9921C63.9483 50.5126 52.2143 51.629 42.3948 50.9979ZM27.6455 49.095C11.2808 45.4669 0.961779 38.017 0.0664665 29.1843C-0.398064 24.6015 1.57032 20.2169 6.03513 15.889C10.2107 11.8415 15.6812 8.6284 23.1098 5.85995C31.7085 2.65549 41.1558 0.782413 52.0896 0.114242C55.5112 -0.0948511 64.9574 0.00228255 65.2026 0.249077C65.2773 0.324285 64.6879 0.605786 63.8929 0.874634C61.8024 1.58152 57.808 3.65666 55.3203 5.32814C48.9149 9.63181 42.2209 16.2556 37.4802 22.981C31.2818 31.7745 28.1781 40.3947 29.297 45.7091C29.5808 47.0573 30.2124 48.3871 30.9211 49.1285L31.4392 49.6706L30.7853 49.6583C30.4256 49.6516 29.0127 49.3981 27.6455 49.095ZM126.523 47.7499C125.051 47.3352 124.13 46.4973 123.411 44.9165C123.023 44.0632 122.945 43.6386 122.884 42.036C122.768 39.0228 123.304 37.1544 124.616 35.9948C125.608 35.1182 126.544 34.7806 127.983 34.7806C129.614 34.7806 130.721 35.242 131.683 36.3229C132.721 37.4884 132.994 38.3688 133.087 40.8363C133.197 43.7842 132.749 45.4066 131.491 46.61C130.292 47.7566 128.229 48.23 126.523 47.7499ZM129.669 46.1511C131.181 45.3894 131.712 43.9543 131.601 40.9292C131.523 38.7992 131.295 37.9499 130.593 37.1819C129.666 36.1665 127.722 35.8564 126.381 36.5097C124.954 37.2052 124.35 38.621 124.347 41.2802C124.343 44.5095 125.087 45.896 127.107 46.4199C128.035 46.6605 128.821 46.578 129.669 46.1511ZM217.671 47.8337C216.079 47.4954 214.787 46.3385 214.133 44.6663C213.83 43.8927 213.772 43.3959 213.763 41.4969C213.751 38.8721 213.999 37.86 214.974 36.5619C215.889 35.343 217.087 34.7806 218.767 34.7806C220.731 34.7806 222.144 35.5344 223.029 37.0546C223.522 37.9005 223.939 39.6065 223.942 40.788L223.945 41.6637H219.553H215.161L215.163 42.2059C215.165 43.4756 215.754 44.9226 216.556 45.6317C217.342 46.3263 218.128 46.547 219.558 46.4743C220.665 46.418 220.866 46.3502 221.756 45.7318L222.736 45.0512L223.275 45.4939L223.814 45.9365L223.183 46.4939C221.838 47.6828 219.564 48.2356 217.672 47.8337H217.671ZM222.364 39.7037C222.182 38.3881 221.579 37.2447 220.791 36.72C219.342 35.7544 217.075 36.0726 216.084 37.3809C215.642 37.9634 215.167 39.3777 215.163 40.1208L215.161 40.4961H218.817H222.474L222.364 39.7037ZM231.128 47.8288C228.819 47.3691 227.442 45.6516 227.056 42.7517C226.833 41.0754 227.054 39.0032 227.589 37.7463C228.079 36.5966 229.283 35.3955 230.279 35.0624C231.274 34.7297 232.925 34.6992 233.823 34.9968C235.896 35.6842 237.202 37.8159 237.202 40.5109V41.6637H232.801H228.399L228.505 42.4561C228.784 44.5358 229.707 45.9562 231.019 46.3227C232.628 46.7724 234.541 46.3816 235.569 45.3933L236.006 44.9723L236.551 45.4622L237.096 45.9522L236.528 46.4745C235.173 47.7194 233.14 48.2295 231.128 47.8288ZM235.665 39.5999C235.447 37.4704 234.075 36.159 232.065 36.159C230.063 36.159 228.871 37.4087 228.527 39.8705L228.44 40.4961H232.099H235.757L235.665 39.5999ZM137.271 41.914V35.9922H136.36H135.448V35.4084V34.8245H136.36H137.271V33.0677C137.271 29.9318 138.169 28.823 140.71 28.8203L141.58 28.8197V29.4869C141.58 30.1499 141.576 30.1542 140.942 30.1542C139.991 30.1542 139.281 30.4637 139.006 30.998C138.84 31.3228 138.763 32 138.763 33.1485V34.8248H140.172H141.58V35.4087V35.9925H140.172H138.763V41.9142V47.836H138.017H137.271V41.914ZM151.026 38.3297V28.8194H156.836H162.646L162.595 29.5283L162.544 30.2373L157.614 30.2815L152.684 30.3256V33.9096V37.4935H156.919H161.155L161.104 38.2025L161.053 38.9114L156.868 38.956L152.684 39.0005V42.6675V46.3345H157.665H162.646L162.595 47.0434L162.544 47.7523L156.785 47.7962L151.026 47.8401L151.026 38.3297ZM166.06 47.7324C165.995 47.6669 165.941 44.7317 165.941 41.2098V34.8062L166.729 34.8571C167.507 34.9073 167.517 34.9153 167.599 35.5529C167.681 36.1906 167.685 36.1941 167.983 35.8603C168.983 34.742 171.829 34.4201 173.489 35.2376C173.983 35.4808 174.614 35.9565 174.892 36.2947C175.789 37.386 175.885 38.0546 175.885 43.1953V47.8357H175.139H174.393V43.3567C174.393 38.732 174.332 38.2067 173.68 37.2655C172.769 35.9494 169.84 35.7737 168.541 36.9573C167.728 37.6973 167.686 37.9662 167.599 42.9982L167.516 47.7523L166.847 47.8018C166.479 47.8291 166.125 47.7981 166.06 47.7324ZM194.114 41.3301V34.8245H194.86H195.606V41.3301V47.8357H194.86H194.114V41.3301ZM200.08 41.3301V34.8245H200.826H201.572V35.5003V36.176L202.12 35.7556C203.017 35.067 203.882 34.7864 205.135 34.7783C206.713 34.768 207.803 35.1574 208.658 36.0367C209.908 37.3209 209.933 37.4524 209.993 42.9565L210.046 47.8357H209.289H208.532V43.5289C208.532 38.8033 208.412 37.9746 207.601 37.0997C206.991 36.441 206.232 36.159 205.068 36.159C203.858 36.159 203.309 36.3554 202.603 37.0404C201.688 37.9286 201.572 38.6612 201.572 43.5289V47.8357H200.826H200.08L200.08 41.3301ZM241.014 41.3301V34.8245H241.76H242.506V35.5882V36.3518L243.175 35.7747C244.721 34.4433 247.52 34.4115 248.93 35.7094L249.305 36.0548L248.786 36.594L248.267 37.1333L247.598 36.6461C247.034 36.2342 246.774 36.1592 245.92 36.1599C244.796 36.1611 243.972 36.5478 243.328 37.3771C242.612 38.2992 242.506 39.1064 242.506 43.6086V47.8357H241.76H241.014V41.3301ZM251.368 47.6363C251.322 47.5159 251.304 44.6029 251.328 41.1627L251.372 34.9079H252.118H252.863V41.3301V47.7523L252.157 47.8037C251.689 47.8378 251.424 47.7815 251.368 47.6363ZM257.421 41.3301V34.8245H258.166H258.912V35.5003V36.176L259.46 35.7556C260.326 35.0907 261.212 34.7941 262.386 34.7759C264.068 34.7498 264.985 35.0806 265.965 36.0664C267.215 37.3245 267.281 37.6841 267.281 43.165V47.7523L266.593 47.8028L265.904 47.8534L265.841 43.2156C265.772 38.1567 265.719 37.8514 264.774 36.962C264.125 36.3509 263.546 36.159 262.351 36.159C260.95 36.159 260.04 36.6215 259.449 37.6346L258.995 38.411L258.944 43.1233L258.893 47.8357H258.157H257.421V41.3301ZM193.949 29.7368V28.8194H194.86H195.772V29.7368V30.6543H194.86H193.949V29.7368ZM251.289 29.7368V28.8194H252.2H253.112V29.7368V30.6543H252.2H251.289V29.7368ZM239.501 27.1593C238.503 26.9753 237.423 26.4739 236.738 25.877L236.191 25.3998L237.347 24.2492C238.457 23.1444 238.515 23.1105 238.799 23.3966C239.561 24.1637 241.436 24.3967 242.5 23.8565C243.283 23.4589 243.688 22.6824 243.792 21.3776L243.879 20.2899L243.252 20.7178C241.263 22.0764 238.03 21.5385 236.84 19.6506C236.164 18.5788 236.032 17.9886 235.928 15.558C235.745 11.2782 236.432 9.38743 238.528 8.40281C239.104 8.13235 239.599 8.05243 240.698 8.05235C242.012 8.05225 242.188 8.09339 242.977 8.58713L243.831 9.12202V8.62848V8.13494H245.578H247.324L247.277 15.6831C247.229 23.1613 247.225 23.239 246.847 24.0653C246.335 25.1824 245.043 26.3782 243.87 26.8201C242.816 27.2167 240.703 27.3809 239.501 27.1593ZM242.809 17.8605C244.063 17.0718 244.17 12.9026 242.966 11.7706C242.578 11.4049 242.312 11.3043 241.734 11.3043C240.06 11.3043 239.52 12.1515 239.526 14.769C239.53 16.4089 239.841 17.576 240.361 17.8994C241.034 18.3182 242.109 18.3011 242.809 17.8605ZM128.339 22.1249C126.262 21.8704 124.254 20.4446 123.361 18.5914C122.664 17.1444 122.456 15.2832 122.573 11.5545C122.705 7.35893 123.166 5.98555 124.909 4.59095C126.254 3.51448 127.341 3.10114 129.078 3.00488C131.478 2.87188 133.184 3.51535 134.67 5.11414C136.03 6.57747 136.351 7.60418 136.527 11.0541C136.655 13.5544 136.398 16.9597 136.001 18.0244C134.923 20.9192 131.863 22.5568 128.339 22.1249ZM131.306 18.2466C132.22 17.6374 132.495 16.8846 132.64 14.5957C132.796 12.1417 132.591 8.69455 132.249 8.03389C131.695 6.96124 130.846 6.46684 129.557 6.46684C128.432 6.46684 127.474 6.93971 126.984 7.73801C126.505 8.51823 126.275 10.7981 126.389 13.6397C126.499 16.3728 126.66 17.1128 127.297 17.8258C128.225 18.8646 130.085 19.0598 131.306 18.2466ZM182.158 22.1443C180.149 21.8943 177.878 20.3072 177.078 18.5948C176.549 17.4614 176.385 16.0493 176.385 12.6388C176.385 7.91212 176.677 6.69125 178.193 5.07717C179.65 3.52664 181.527 2.85483 183.973 3.00844C186.479 3.16581 188.518 4.52102 189.549 6.71501C189.989 7.65109 190.322 8.89418 190.173 9.04417C190.123 9.09454 189.271 9.13579 188.281 9.13579H186.479L186.174 8.41798C185.528 6.90252 184.543 6.34034 182.824 6.50663C181.423 6.64206 180.464 7.65507 180.272 9.20004C180.212 9.68484 180.188 11.5389 180.219 13.3202C180.274 16.4021 180.296 16.5935 180.685 17.276C181.967 19.53 185.295 19.1969 186.182 16.7257L186.392 16.1418H188.351H190.309L190.198 16.6005C189.508 19.4432 187.709 21.4182 185.312 21.9622C184.202 22.2141 183.189 22.2726 182.158 22.1443ZM196.602 22.1212C195.418 21.9263 194.459 21.4481 193.634 20.6423C192.355 19.393 191.96 18.0627 191.96 15.001C191.96 11.8243 192.492 10.4246 194.2 9.10869C194.636 8.77269 195.336 8.39736 195.755 8.27464C196.848 7.9546 198.988 7.99688 200.034 8.35919C201.154 8.74713 202.431 9.90798 202.98 11.0375C203.846 12.8191 203.873 17.2853 203.029 19.1001C201.972 21.3734 199.401 22.5822 196.602 22.1212ZM198.871 18.6507C199.808 18.0756 199.995 17.4919 199.996 15.1409C199.998 13.4317 199.941 12.9417 199.685 12.4229C199.306 11.6543 198.684 11.3043 197.698 11.3043C196.793 11.3043 196.065 11.85 195.742 12.7694C195.425 13.6702 195.474 16.8821 195.817 17.6811C196.321 18.8585 197.779 19.3211 198.871 18.6507ZM226.673 22.1463C225.564 22.0256 224.133 21.4303 223.351 20.7643C222.698 20.2088 221.879 18.6477 221.643 17.5098C221.38 16.2456 221.416 13.7091 221.713 12.5612C222.239 10.5272 223.277 9.23909 225.035 8.43625C226.112 7.94474 228.415 7.9047 229.699 8.35519C230.883 8.771 232.101 9.91259 232.723 11.1901C233.249 12.2705 233.627 14.331 233.527 15.5673L233.474 16.2252L229.206 16.2697C224.38 16.3201 224.606 16.2401 225.312 17.6494C226.177 19.3759 228.615 19.6557 230.459 18.2402L231.007 17.8194L232.064 18.8931C233.108 19.9535 233.117 19.971 232.813 20.3097C231.558 21.705 229.174 22.4182 226.673 22.1463ZM229.907 13.4311C229.905 13.2247 229.758 12.7335 229.58 12.3397C229.008 11.0698 227.22 10.6035 226.113 11.4354C225.506 11.8914 225.135 12.4797 225.012 13.1809L224.902 13.8065H227.406C229.894 13.8065 229.911 13.8039 229.907 13.4311ZM254.983 22.1367C251.828 21.7233 250.146 19.6718 249.856 15.885C249.65 13.1789 250.423 10.8017 251.962 9.40862C253.083 8.39423 254.123 8.04941 256.032 8.05947C257.393 8.06666 257.651 8.12113 258.637 8.60991C260.826 9.69438 261.895 11.786 261.895 14.9823V16.3086H257.669H253.443V16.7446C253.443 17.4797 254.102 18.4451 254.852 18.8107C256.064 19.4013 257.819 19.1806 258.8 18.3143L259.341 17.836L260.369 18.843C260.935 19.3968 261.398 19.9076 261.398 19.9782C261.398 20.2465 260.013 21.3503 259.279 21.6671C258.666 21.9315 256.469 22.3596 256.095 22.2875C256.049 22.2786 255.549 22.2108 254.983 22.1367ZM258.329 13.2643C258.033 11.8378 257.152 11.0501 255.865 11.0623C254.48 11.0754 253.443 12.0691 253.443 13.3841V13.8065H255.942H258.441L258.329 13.2643ZM142.794 21.9727C141.906 21.796 141.279 21.4622 140.719 20.8691C139.754 19.8465 139.757 19.8794 139.757 11.1429V3.13062H141.497H143.237V10.7205C143.237 18.0879 143.247 18.3201 143.569 18.6439C143.82 18.8967 144.121 18.9776 144.812 18.9776H145.723V20.5623V22.147L144.605 22.1287C143.989 22.1186 143.175 22.0485 142.794 21.9727ZM148.375 15.1409V8.13492H150.115H151.855V15.1409V22.147H150.115H148.375V15.1409ZM155.611 22.0357C155.551 21.9746 155.501 18.8219 155.501 15.0297V8.13492H157.324H159.147V8.6193V9.10368L160.036 8.61912C162.481 7.28604 165.554 8.22046 166.671 10.6371C166.997 11.3418 167.022 11.7171 167.071 16.7731L167.122 22.1585L165.33 22.111L163.539 22.0635L163.456 17.3094C163.396 13.8862 163.313 12.4507 163.161 12.1817C162.655 11.2903 160.903 10.9989 160.061 11.6659C159.207 12.3418 159.147 12.7345 159.147 17.6377V22.1469H157.434C156.493 22.1469 155.672 22.0969 155.611 22.0357ZM208.918 21.9728C208.03 21.796 207.402 21.4622 206.842 20.8691C205.878 19.8466 205.881 19.8794 205.881 11.1429V3.13064H207.621H209.361V10.6834C209.361 19.4709 209.272 18.9776 210.862 18.9776H211.847V20.5623V22.147L210.728 22.1287C210.113 22.1186 209.298 22.0485 208.918 21.9728ZM217.233 21.9908C216.397 21.8465 215.701 21.4754 215.129 20.8691C214.164 19.8466 214.167 19.8794 214.167 11.1429V3.13065H215.907H217.647V10.7205C217.647 18.0879 217.657 18.3201 217.979 18.644C218.23 18.8967 218.531 18.9776 219.222 18.9776H220.133V20.5623V22.147L219.014 22.1261C218.399 22.1147 217.597 22.0537 217.233 21.9908ZM148.375 4.46512V2.96382H150.198H152.021V4.46512V5.9664H150.198H148.375V4.46512Z" fill="white"/>
</g>
<defs>
<clipPath id="clip0_510_2136">
<rect width="280.8" height="54" fill="white"/>
</clipPath>
</defs>
</svg>
