<svg width="19" height="20" viewBox="0 0 19 20" fill="none" xmlns="http://www.w3.org/2000/svg">
<path d="M7.60431 6.6915L3.4296 1L1.34224 6.6915H7.60431Z" fill="white" stroke="white" stroke-width="2" stroke-linecap="round" stroke-linejoin="round"/>
<path d="M0.000612259 11.2468C-0.0187149 10.6948 0.413059 10.2317 0.965004 10.2124C1.51695 10.1931 1.98006 10.6248 1.99939 11.1768L0.000612259 11.2468ZM7.63193 18.8031L7.42355 19.7811H7.42355L7.63193 18.8031ZM17.056 14.6327L17.9346 15.1103H17.9346L17.056 14.6327ZM5.32515 5.08214C4.85775 5.37634 4.24035 5.23593 3.94615 4.76853C3.65195 4.30112 3.79237 3.68372 4.25977 3.38952L5.32515 5.08214ZM1.99939 11.1768C2.11052 14.3504 4.4782 17.1087 7.84032 17.825L7.42355 19.7811C3.2312 18.8879 0.14621 15.4047 0.000612259 11.2468L1.99939 11.1768ZM7.84032 17.825C11.2088 18.5427 14.628 17.0052 16.1775 14.1551L17.9346 15.1103C15.9387 18.7817 11.6095 20.673 7.42355 19.7811L7.84032 17.825ZM16.1775 14.1551C17.7176 11.3221 17.0544 7.85343 14.5205 5.70529L15.8139 4.17975C19.0501 6.9234 19.9399 11.4219 17.9346 15.1103L16.1775 14.1551ZM14.5205 5.70529C11.9717 3.54442 8.18442 3.28245 5.32515 5.08214L4.25977 3.38952C7.84995 1.12977 12.5926 1.44882 15.8139 4.17975L14.5205 5.70529Z" fill="white"/>
</svg>
