<svg width="16" height="20" viewBox="0 0 16 20" fill="none" xmlns="http://www.w3.org/2000/svg">
<path d="M9 1.5C9 0.947715 8.55228 0.5 8 0.5C7.44772 0.5 7 0.947715 7 1.5L9 1.5ZM7.29289 15.2071C7.68342 15.5976 8.31658 15.5976 8.70711 15.2071L15.0711 8.84315C15.4616 8.45262 15.4616 7.81946 15.0711 7.42893C14.6805 7.03841 14.0474 7.03841 13.6569 7.42893L8 13.0858L2.34315 7.42893C1.95262 7.03841 1.31946 7.03841 0.928932 7.42893C0.538408 7.81946 0.538408 8.45262 0.928933 8.84315L7.29289 15.2071ZM7 1.5L7 14.5L9 14.5L9 1.5L7 1.5Z" fill="white"/>
<line x1="1" y1="18.5" x2="15" y2="18.5" stroke="white" stroke-width="2" stroke-linecap="round"/>
</svg>
