G04 #@! TF.GenerationSoftware,KiCad,Pcbnew,(6.0.7)*
G04 #@! TF.CreationDate,2023-03-22T16:33:32-04:00*
G04 #@! TF.ProjectId,RGW LED board,52475720-4c45-4442-9062-6f6172642e6b,rev?*
G04 #@! TF.SameCoordinates,Original*
G04 #@! TF.FileFunction,Legend,Top*
G04 #@! TF.FilePolarity,Positive*
%FSLAX46Y46*%
G04 Gerber Fmt 4.6, Leading zero omitted, Abs format (unit mm)*
G04 Created by KiCad (PCBNEW (6.0.7)) date 2023-03-22 16:33:32*
%MOMM*%
%LPD*%
G01*
G04 APERTURE LIST*
%ADD10C,0.200000*%
%ADD11C,0.300000*%
%ADD12C,0.150000*%
%ADD13C,0.120000*%
G04 APERTURE END LIST*
D10*
X178214571Y-34488380D02*
X178214571Y-33488380D01*
X178547904Y-34202666D01*
X178881238Y-33488380D01*
X178881238Y-34488380D01*
X179786000Y-34488380D02*
X179786000Y-33964571D01*
X179738380Y-33869333D01*
X179643142Y-33821714D01*
X179452666Y-33821714D01*
X179357428Y-33869333D01*
X179786000Y-34440761D02*
X179690761Y-34488380D01*
X179452666Y-34488380D01*
X179357428Y-34440761D01*
X179309809Y-34345523D01*
X179309809Y-34250285D01*
X179357428Y-34155047D01*
X179452666Y-34107428D01*
X179690761Y-34107428D01*
X179786000Y-34059809D01*
X180690761Y-34488380D02*
X180690761Y-33488380D01*
X180690761Y-34440761D02*
X180595523Y-34488380D01*
X180405047Y-34488380D01*
X180309809Y-34440761D01*
X180262190Y-34393142D01*
X180214571Y-34297904D01*
X180214571Y-34012190D01*
X180262190Y-33916952D01*
X180309809Y-33869333D01*
X180405047Y-33821714D01*
X180595523Y-33821714D01*
X180690761Y-33869333D01*
X181547904Y-34440761D02*
X181452666Y-34488380D01*
X181262190Y-34488380D01*
X181166952Y-34440761D01*
X181119333Y-34345523D01*
X181119333Y-33964571D01*
X181166952Y-33869333D01*
X181262190Y-33821714D01*
X181452666Y-33821714D01*
X181547904Y-33869333D01*
X181595523Y-33964571D01*
X181595523Y-34059809D01*
X181119333Y-34155047D01*
X182643142Y-33821714D02*
X183024095Y-33821714D01*
X182786000Y-34488380D02*
X182786000Y-33631238D01*
X182833619Y-33536000D01*
X182928857Y-33488380D01*
X183024095Y-33488380D01*
X183500285Y-34488380D02*
X183405047Y-34440761D01*
X183357428Y-34393142D01*
X183309809Y-34297904D01*
X183309809Y-34012190D01*
X183357428Y-33916952D01*
X183405047Y-33869333D01*
X183500285Y-33821714D01*
X183643142Y-33821714D01*
X183738380Y-33869333D01*
X183786000Y-33916952D01*
X183833619Y-34012190D01*
X183833619Y-34297904D01*
X183786000Y-34393142D01*
X183738380Y-34440761D01*
X183643142Y-34488380D01*
X183500285Y-34488380D01*
X184262190Y-34488380D02*
X184262190Y-33821714D01*
X184262190Y-34012190D02*
X184309809Y-33916952D01*
X184357428Y-33869333D01*
X184452666Y-33821714D01*
X184547904Y-33821714D01*
X185500285Y-33821714D02*
X185881238Y-33821714D01*
X185643142Y-33488380D02*
X185643142Y-34345523D01*
X185690761Y-34440761D01*
X185786000Y-34488380D01*
X185881238Y-34488380D01*
X186214571Y-34488380D02*
X186214571Y-33488380D01*
X186643142Y-34488380D02*
X186643142Y-33964571D01*
X186595523Y-33869333D01*
X186500285Y-33821714D01*
X186357428Y-33821714D01*
X186262190Y-33869333D01*
X186214571Y-33916952D01*
X187500285Y-34440761D02*
X187405047Y-34488380D01*
X187214571Y-34488380D01*
X187119333Y-34440761D01*
X187071714Y-34345523D01*
X187071714Y-33964571D01*
X187119333Y-33869333D01*
X187214571Y-33821714D01*
X187405047Y-33821714D01*
X187500285Y-33869333D01*
X187547904Y-33964571D01*
X187547904Y-34059809D01*
X187071714Y-34155047D01*
X189309809Y-34488380D02*
X188976476Y-34012190D01*
X188738380Y-34488380D02*
X188738380Y-33488380D01*
X189119333Y-33488380D01*
X189214571Y-33536000D01*
X189262190Y-33583619D01*
X189309809Y-33678857D01*
X189309809Y-33821714D01*
X189262190Y-33916952D01*
X189214571Y-33964571D01*
X189119333Y-34012190D01*
X188738380Y-34012190D01*
X189881238Y-34488380D02*
X189786000Y-34440761D01*
X189738380Y-34393142D01*
X189690761Y-34297904D01*
X189690761Y-34012190D01*
X189738380Y-33916952D01*
X189786000Y-33869333D01*
X189881238Y-33821714D01*
X190024095Y-33821714D01*
X190119333Y-33869333D01*
X190166952Y-33916952D01*
X190214571Y-34012190D01*
X190214571Y-34297904D01*
X190166952Y-34393142D01*
X190119333Y-34440761D01*
X190024095Y-34488380D01*
X189881238Y-34488380D01*
X190595523Y-34440761D02*
X190690761Y-34488380D01*
X190881238Y-34488380D01*
X190976476Y-34440761D01*
X191024095Y-34345523D01*
X191024095Y-34297904D01*
X190976476Y-34202666D01*
X190881238Y-34155047D01*
X190738380Y-34155047D01*
X190643142Y-34107428D01*
X190595523Y-34012190D01*
X190595523Y-33964571D01*
X190643142Y-33869333D01*
X190738380Y-33821714D01*
X190881238Y-33821714D01*
X190976476Y-33869333D01*
X191452666Y-34488380D02*
X191452666Y-33488380D01*
X191452666Y-33869333D02*
X191547904Y-33821714D01*
X191738380Y-33821714D01*
X191833619Y-33869333D01*
X191881238Y-33916952D01*
X191928857Y-34012190D01*
X191928857Y-34297904D01*
X191881238Y-34393142D01*
X191833619Y-34440761D01*
X191738380Y-34488380D01*
X191547904Y-34488380D01*
X191452666Y-34440761D01*
X192786000Y-34488380D02*
X192786000Y-33964571D01*
X192738380Y-33869333D01*
X192643142Y-33821714D01*
X192452666Y-33821714D01*
X192357428Y-33869333D01*
X192786000Y-34440761D02*
X192690761Y-34488380D01*
X192452666Y-34488380D01*
X192357428Y-34440761D01*
X192309809Y-34345523D01*
X192309809Y-34250285D01*
X192357428Y-34155047D01*
X192452666Y-34107428D01*
X192690761Y-34107428D01*
X192786000Y-34059809D01*
X193214571Y-34440761D02*
X193309809Y-34488380D01*
X193500285Y-34488380D01*
X193595523Y-34440761D01*
X193643142Y-34345523D01*
X193643142Y-34297904D01*
X193595523Y-34202666D01*
X193500285Y-34155047D01*
X193357428Y-34155047D01*
X193262190Y-34107428D01*
X193214571Y-34012190D01*
X193214571Y-33964571D01*
X193262190Y-33869333D01*
X193357428Y-33821714D01*
X193500285Y-33821714D01*
X193595523Y-33869333D01*
X194071714Y-34488380D02*
X194071714Y-33488380D01*
X194500285Y-34488380D02*
X194500285Y-33964571D01*
X194452666Y-33869333D01*
X194357428Y-33821714D01*
X194214571Y-33821714D01*
X194119333Y-33869333D01*
X194071714Y-33916952D01*
X196214571Y-34488380D02*
X195738380Y-34488380D01*
X195738380Y-33488380D01*
X196976476Y-34488380D02*
X196976476Y-33964571D01*
X196928857Y-33869333D01*
X196833619Y-33821714D01*
X196643142Y-33821714D01*
X196547904Y-33869333D01*
X196976476Y-34440761D02*
X196881238Y-34488380D01*
X196643142Y-34488380D01*
X196547904Y-34440761D01*
X196500285Y-34345523D01*
X196500285Y-34250285D01*
X196547904Y-34155047D01*
X196643142Y-34107428D01*
X196881238Y-34107428D01*
X196976476Y-34059809D01*
X197452666Y-34488380D02*
X197452666Y-33488380D01*
X197452666Y-33869333D02*
X197547904Y-33821714D01*
X197738380Y-33821714D01*
X197833619Y-33869333D01*
X197881238Y-33916952D01*
X197928857Y-34012190D01*
X197928857Y-34297904D01*
X197881238Y-34393142D01*
X197833619Y-34440761D01*
X197738380Y-34488380D01*
X197547904Y-34488380D01*
X197452666Y-34440761D01*
X199547904Y-34488380D02*
X199547904Y-33964571D01*
X199500285Y-33869333D01*
X199405047Y-33821714D01*
X199214571Y-33821714D01*
X199119333Y-33869333D01*
X199547904Y-34440761D02*
X199452666Y-34488380D01*
X199214571Y-34488380D01*
X199119333Y-34440761D01*
X199071714Y-34345523D01*
X199071714Y-34250285D01*
X199119333Y-34155047D01*
X199214571Y-34107428D01*
X199452666Y-34107428D01*
X199547904Y-34059809D01*
X199881238Y-33821714D02*
X200262190Y-33821714D01*
X200024095Y-33488380D02*
X200024095Y-34345523D01*
X200071714Y-34440761D01*
X200166952Y-34488380D01*
X200262190Y-34488380D01*
X201690761Y-33964571D02*
X201833619Y-34012190D01*
X201881238Y-34059809D01*
X201928857Y-34155047D01*
X201928857Y-34297904D01*
X201881238Y-34393142D01*
X201833619Y-34440761D01*
X201738380Y-34488380D01*
X201357428Y-34488380D01*
X201357428Y-33488380D01*
X201690761Y-33488380D01*
X201785999Y-33536000D01*
X201833619Y-33583619D01*
X201881238Y-33678857D01*
X201881238Y-33774095D01*
X201833619Y-33869333D01*
X201785999Y-33916952D01*
X201690761Y-33964571D01*
X201357428Y-33964571D01*
X202357428Y-34488380D02*
X202357428Y-33821714D01*
X202357428Y-34012190D02*
X202405047Y-33916952D01*
X202452666Y-33869333D01*
X202547904Y-33821714D01*
X202643142Y-33821714D01*
X203405047Y-34488380D02*
X203405047Y-33964571D01*
X203357428Y-33869333D01*
X203262190Y-33821714D01*
X203071714Y-33821714D01*
X202976476Y-33869333D01*
X203405047Y-34440761D02*
X203309809Y-34488380D01*
X203071714Y-34488380D01*
X202976476Y-34440761D01*
X202928857Y-34345523D01*
X202928857Y-34250285D01*
X202976476Y-34155047D01*
X203071714Y-34107428D01*
X203309809Y-34107428D01*
X203405047Y-34059809D01*
X203881238Y-33821714D02*
X203881238Y-34488380D01*
X203881238Y-33916952D02*
X203928857Y-33869333D01*
X204024095Y-33821714D01*
X204166952Y-33821714D01*
X204262190Y-33869333D01*
X204309809Y-33964571D01*
X204309809Y-34488380D01*
X205214571Y-34488380D02*
X205214571Y-33488380D01*
X205214571Y-34440761D02*
X205119333Y-34488380D01*
X204928857Y-34488380D01*
X204833619Y-34440761D01*
X204785999Y-34393142D01*
X204738380Y-34297904D01*
X204738380Y-34012190D01*
X204785999Y-33916952D01*
X204833619Y-33869333D01*
X204928857Y-33821714D01*
X205119333Y-33821714D01*
X205214571Y-33869333D01*
X206071714Y-34440761D02*
X205976476Y-34488380D01*
X205785999Y-34488380D01*
X205690761Y-34440761D01*
X205643142Y-34345523D01*
X205643142Y-33964571D01*
X205690761Y-33869333D01*
X205785999Y-33821714D01*
X205976476Y-33821714D01*
X206071714Y-33869333D01*
X206119333Y-33964571D01*
X206119333Y-34059809D01*
X205643142Y-34155047D01*
X206547904Y-34488380D02*
X206547904Y-33821714D01*
X206547904Y-33488380D02*
X206500285Y-33536000D01*
X206547904Y-33583619D01*
X206595523Y-33536000D01*
X206547904Y-33488380D01*
X206547904Y-33583619D01*
X206976476Y-34440761D02*
X207071714Y-34488380D01*
X207262190Y-34488380D01*
X207357428Y-34440761D01*
X207405047Y-34345523D01*
X207405047Y-34297904D01*
X207357428Y-34202666D01*
X207262190Y-34155047D01*
X207119333Y-34155047D01*
X207024095Y-34107428D01*
X206976476Y-34012190D01*
X206976476Y-33964571D01*
X207024095Y-33869333D01*
X207119333Y-33821714D01*
X207262190Y-33821714D01*
X207357428Y-33869333D01*
X177000285Y-35996571D02*
X177143142Y-36044190D01*
X177190761Y-36091809D01*
X177238380Y-36187047D01*
X177238380Y-36329904D01*
X177190761Y-36425142D01*
X177143142Y-36472761D01*
X177047904Y-36520380D01*
X176666952Y-36520380D01*
X176666952Y-35520380D01*
X177000285Y-35520380D01*
X177095523Y-35568000D01*
X177143142Y-35615619D01*
X177190761Y-35710857D01*
X177190761Y-35806095D01*
X177143142Y-35901333D01*
X177095523Y-35948952D01*
X177000285Y-35996571D01*
X176666952Y-35996571D01*
X177571714Y-35853714D02*
X177809809Y-36520380D01*
X178047904Y-35853714D02*
X177809809Y-36520380D01*
X177714571Y-36758476D01*
X177666952Y-36806095D01*
X177571714Y-36853714D01*
X179047904Y-35853714D02*
X179428857Y-35853714D01*
X179190761Y-35520380D02*
X179190761Y-36377523D01*
X179238380Y-36472761D01*
X179333619Y-36520380D01*
X179428857Y-36520380D01*
X179762190Y-36520380D02*
X179762190Y-35520380D01*
X180190761Y-36520380D02*
X180190761Y-35996571D01*
X180143142Y-35901333D01*
X180047904Y-35853714D01*
X179905047Y-35853714D01*
X179809809Y-35901333D01*
X179762190Y-35948952D01*
X181047904Y-36472761D02*
X180952666Y-36520380D01*
X180762190Y-36520380D01*
X180666952Y-36472761D01*
X180619333Y-36377523D01*
X180619333Y-35996571D01*
X180666952Y-35901333D01*
X180762190Y-35853714D01*
X180952666Y-35853714D01*
X181047904Y-35901333D01*
X181095523Y-35996571D01*
X181095523Y-36091809D01*
X180619333Y-36187047D01*
X182238380Y-35615619D02*
X182286000Y-35568000D01*
X182381238Y-35520380D01*
X182619333Y-35520380D01*
X182714571Y-35568000D01*
X182762190Y-35615619D01*
X182809809Y-35710857D01*
X182809809Y-35806095D01*
X182762190Y-35948952D01*
X182190761Y-36520380D01*
X182809809Y-36520380D01*
X183428857Y-35520380D02*
X183524095Y-35520380D01*
X183619333Y-35568000D01*
X183666952Y-35615619D01*
X183714571Y-35710857D01*
X183762190Y-35901333D01*
X183762190Y-36139428D01*
X183714571Y-36329904D01*
X183666952Y-36425142D01*
X183619333Y-36472761D01*
X183524095Y-36520380D01*
X183428857Y-36520380D01*
X183333619Y-36472761D01*
X183286000Y-36425142D01*
X183238380Y-36329904D01*
X183190761Y-36139428D01*
X183190761Y-35901333D01*
X183238380Y-35710857D01*
X183286000Y-35615619D01*
X183333619Y-35568000D01*
X183428857Y-35520380D01*
X184143142Y-35615619D02*
X184190761Y-35568000D01*
X184286000Y-35520380D01*
X184524095Y-35520380D01*
X184619333Y-35568000D01*
X184666952Y-35615619D01*
X184714571Y-35710857D01*
X184714571Y-35806095D01*
X184666952Y-35948952D01*
X184095523Y-36520380D01*
X184714571Y-36520380D01*
X185095523Y-35615619D02*
X185143142Y-35568000D01*
X185238380Y-35520380D01*
X185476476Y-35520380D01*
X185571714Y-35568000D01*
X185619333Y-35615619D01*
X185666952Y-35710857D01*
X185666952Y-35806095D01*
X185619333Y-35948952D01*
X185047904Y-36520380D01*
X185666952Y-36520380D01*
X186095523Y-36139428D02*
X186857428Y-36139428D01*
X187286000Y-35615619D02*
X187333619Y-35568000D01*
X187428857Y-35520380D01*
X187666952Y-35520380D01*
X187762190Y-35568000D01*
X187809809Y-35615619D01*
X187857428Y-35710857D01*
X187857428Y-35806095D01*
X187809809Y-35948952D01*
X187238380Y-36520380D01*
X187857428Y-36520380D01*
X188190761Y-35520380D02*
X188809809Y-35520380D01*
X188476476Y-35901333D01*
X188619333Y-35901333D01*
X188714571Y-35948952D01*
X188762190Y-35996571D01*
X188809809Y-36091809D01*
X188809809Y-36329904D01*
X188762190Y-36425142D01*
X188714571Y-36472761D01*
X188619333Y-36520380D01*
X188333619Y-36520380D01*
X188238380Y-36472761D01*
X188190761Y-36425142D01*
X190190761Y-35520380D02*
X190381238Y-35520380D01*
X190476476Y-35568000D01*
X190571714Y-35663238D01*
X190619333Y-35853714D01*
X190619333Y-36187047D01*
X190571714Y-36377523D01*
X190476476Y-36472761D01*
X190381238Y-36520380D01*
X190190761Y-36520380D01*
X190095523Y-36472761D01*
X190000285Y-36377523D01*
X189952666Y-36187047D01*
X189952666Y-35853714D01*
X190000285Y-35663238D01*
X190095523Y-35568000D01*
X190190761Y-35520380D01*
X191190761Y-36520380D02*
X191095523Y-36472761D01*
X191047904Y-36377523D01*
X191047904Y-35520380D01*
X191571714Y-36520380D02*
X191571714Y-35853714D01*
X191571714Y-35520380D02*
X191524095Y-35568000D01*
X191571714Y-35615619D01*
X191619333Y-35568000D01*
X191571714Y-35520380D01*
X191571714Y-35615619D01*
X192047904Y-35853714D02*
X192047904Y-36520380D01*
X192047904Y-35948952D02*
X192095523Y-35901333D01*
X192190761Y-35853714D01*
X192333619Y-35853714D01*
X192428857Y-35901333D01*
X192476476Y-35996571D01*
X192476476Y-36520380D01*
X194286000Y-36425142D02*
X194238380Y-36472761D01*
X194095523Y-36520380D01*
X194000285Y-36520380D01*
X193857428Y-36472761D01*
X193762190Y-36377523D01*
X193714571Y-36282285D01*
X193666952Y-36091809D01*
X193666952Y-35948952D01*
X193714571Y-35758476D01*
X193762190Y-35663238D01*
X193857428Y-35568000D01*
X194000285Y-35520380D01*
X194095523Y-35520380D01*
X194238380Y-35568000D01*
X194286000Y-35615619D01*
X194857428Y-36520380D02*
X194762190Y-36472761D01*
X194714571Y-36425142D01*
X194666952Y-36329904D01*
X194666952Y-36044190D01*
X194714571Y-35948952D01*
X194762190Y-35901333D01*
X194857428Y-35853714D01*
X195000285Y-35853714D01*
X195095523Y-35901333D01*
X195143142Y-35948952D01*
X195190761Y-36044190D01*
X195190761Y-36329904D01*
X195143142Y-36425142D01*
X195095523Y-36472761D01*
X195000285Y-36520380D01*
X194857428Y-36520380D01*
X195762190Y-36520380D02*
X195666952Y-36472761D01*
X195619333Y-36377523D01*
X195619333Y-35520380D01*
X196286000Y-36520380D02*
X196190761Y-36472761D01*
X196143142Y-36377523D01*
X196143142Y-35520380D01*
X197047904Y-36472761D02*
X196952666Y-36520380D01*
X196762190Y-36520380D01*
X196666952Y-36472761D01*
X196619333Y-36377523D01*
X196619333Y-35996571D01*
X196666952Y-35901333D01*
X196762190Y-35853714D01*
X196952666Y-35853714D01*
X197047904Y-35901333D01*
X197095523Y-35996571D01*
X197095523Y-36091809D01*
X196619333Y-36187047D01*
X197952666Y-35853714D02*
X197952666Y-36663238D01*
X197905047Y-36758476D01*
X197857428Y-36806095D01*
X197762190Y-36853714D01*
X197619333Y-36853714D01*
X197524095Y-36806095D01*
X197952666Y-36472761D02*
X197857428Y-36520380D01*
X197666952Y-36520380D01*
X197571714Y-36472761D01*
X197524095Y-36425142D01*
X197476476Y-36329904D01*
X197476476Y-36044190D01*
X197524095Y-35948952D01*
X197571714Y-35901333D01*
X197666952Y-35853714D01*
X197857428Y-35853714D01*
X197952666Y-35901333D01*
X198809809Y-36472761D02*
X198714571Y-36520380D01*
X198524095Y-36520380D01*
X198428857Y-36472761D01*
X198381238Y-36377523D01*
X198381238Y-35996571D01*
X198428857Y-35901333D01*
X198524095Y-35853714D01*
X198714571Y-35853714D01*
X198809809Y-35901333D01*
X198857428Y-35996571D01*
X198857428Y-36091809D01*
X198381238Y-36187047D01*
X200000285Y-36472761D02*
X200143142Y-36520380D01*
X200381238Y-36520380D01*
X200476476Y-36472761D01*
X200524095Y-36425142D01*
X200571714Y-36329904D01*
X200571714Y-36234666D01*
X200524095Y-36139428D01*
X200476476Y-36091809D01*
X200381238Y-36044190D01*
X200190761Y-35996571D01*
X200095523Y-35948952D01*
X200047904Y-35901333D01*
X200000285Y-35806095D01*
X200000285Y-35710857D01*
X200047904Y-35615619D01*
X200095523Y-35568000D01*
X200190761Y-35520380D01*
X200428857Y-35520380D01*
X200571714Y-35568000D01*
X201571714Y-36425142D02*
X201524095Y-36472761D01*
X201381238Y-36520380D01*
X201285999Y-36520380D01*
X201143142Y-36472761D01*
X201047904Y-36377523D01*
X201000285Y-36282285D01*
X200952666Y-36091809D01*
X200952666Y-35948952D01*
X201000285Y-35758476D01*
X201047904Y-35663238D01*
X201143142Y-35568000D01*
X201285999Y-35520380D01*
X201381238Y-35520380D01*
X201524095Y-35568000D01*
X201571714Y-35615619D01*
X202190761Y-35520380D02*
X202381238Y-35520380D01*
X202476476Y-35568000D01*
X202571714Y-35663238D01*
X202619333Y-35853714D01*
X202619333Y-36187047D01*
X202571714Y-36377523D01*
X202476476Y-36472761D01*
X202381238Y-36520380D01*
X202190761Y-36520380D01*
X202095523Y-36472761D01*
X202000285Y-36377523D01*
X201952666Y-36187047D01*
X201952666Y-35853714D01*
X202000285Y-35663238D01*
X202095523Y-35568000D01*
X202190761Y-35520380D01*
X203047904Y-36520380D02*
X203047904Y-35520380D01*
X203428857Y-35520380D01*
X203524095Y-35568000D01*
X203571714Y-35615619D01*
X203619333Y-35710857D01*
X203619333Y-35853714D01*
X203571714Y-35948952D01*
X203524095Y-35996571D01*
X203428857Y-36044190D01*
X203047904Y-36044190D01*
X204047904Y-35996571D02*
X204381238Y-35996571D01*
X204524095Y-36520380D02*
X204047904Y-36520380D01*
X204047904Y-35520380D01*
X204524095Y-35520380D01*
X205571714Y-35853714D02*
X205952666Y-35853714D01*
X205714571Y-35520380D02*
X205714571Y-36377523D01*
X205762190Y-36472761D01*
X205857428Y-36520380D01*
X205952666Y-36520380D01*
X206666952Y-36472761D02*
X206571714Y-36520380D01*
X206381238Y-36520380D01*
X206285999Y-36472761D01*
X206238380Y-36377523D01*
X206238380Y-35996571D01*
X206285999Y-35901333D01*
X206381238Y-35853714D01*
X206571714Y-35853714D01*
X206666952Y-35901333D01*
X206714571Y-35996571D01*
X206714571Y-36091809D01*
X206238380Y-36187047D01*
X207571714Y-36520380D02*
X207571714Y-35996571D01*
X207524095Y-35901333D01*
X207428857Y-35853714D01*
X207238380Y-35853714D01*
X207143142Y-35901333D01*
X207571714Y-36472761D02*
X207476476Y-36520380D01*
X207238380Y-36520380D01*
X207143142Y-36472761D01*
X207095523Y-36377523D01*
X207095523Y-36282285D01*
X207143142Y-36187047D01*
X207238380Y-36139428D01*
X207476476Y-36139428D01*
X207571714Y-36091809D01*
X208047904Y-36520380D02*
X208047904Y-35853714D01*
X208047904Y-35948952D02*
X208095523Y-35901333D01*
X208190761Y-35853714D01*
X208333619Y-35853714D01*
X208428857Y-35901333D01*
X208476476Y-35996571D01*
X208476476Y-36520380D01*
X208476476Y-35996571D02*
X208524095Y-35901333D01*
X208619333Y-35853714D01*
X208762190Y-35853714D01*
X208857428Y-35901333D01*
X208905047Y-35996571D01*
X208905047Y-36520380D01*
D11*
X129353571Y-35770000D02*
X130853571Y-35412857D01*
X129782142Y-35127142D01*
X130853571Y-34841428D01*
X129353571Y-34484285D01*
X130853571Y-33912857D02*
X129353571Y-33912857D01*
X130853571Y-33270000D02*
X130067857Y-33270000D01*
X129925000Y-33341428D01*
X129853571Y-33484285D01*
X129853571Y-33698571D01*
X129925000Y-33841428D01*
X129996428Y-33912857D01*
X130853571Y-32555714D02*
X129853571Y-32555714D01*
X129353571Y-32555714D02*
X129425000Y-32627142D01*
X129496428Y-32555714D01*
X129425000Y-32484285D01*
X129353571Y-32555714D01*
X129496428Y-32555714D01*
X129853571Y-32055714D02*
X129853571Y-31484285D01*
X129353571Y-31841428D02*
X130639285Y-31841428D01*
X130782142Y-31770000D01*
X130853571Y-31627142D01*
X130853571Y-31484285D01*
X130782142Y-30412857D02*
X130853571Y-30555714D01*
X130853571Y-30841428D01*
X130782142Y-30984285D01*
X130639285Y-31055714D01*
X130067857Y-31055714D01*
X129925000Y-30984285D01*
X129853571Y-30841428D01*
X129853571Y-30555714D01*
X129925000Y-30412857D01*
X130067857Y-30341428D01*
X130210714Y-30341428D01*
X130353571Y-31055714D01*
X161810000Y-34420714D02*
X161738571Y-34563571D01*
X161738571Y-34777857D01*
X161810000Y-34992142D01*
X161952857Y-35135000D01*
X162095714Y-35206428D01*
X162381428Y-35277857D01*
X162595714Y-35277857D01*
X162881428Y-35206428D01*
X163024285Y-35135000D01*
X163167142Y-34992142D01*
X163238571Y-34777857D01*
X163238571Y-34635000D01*
X163167142Y-34420714D01*
X163095714Y-34349285D01*
X162595714Y-34349285D01*
X162595714Y-34635000D01*
X163238571Y-33706428D02*
X162238571Y-33706428D01*
X162524285Y-33706428D02*
X162381428Y-33635000D01*
X162310000Y-33563571D01*
X162238571Y-33420714D01*
X162238571Y-33277857D01*
X163167142Y-32206428D02*
X163238571Y-32349285D01*
X163238571Y-32635000D01*
X163167142Y-32777857D01*
X163024285Y-32849285D01*
X162452857Y-32849285D01*
X162310000Y-32777857D01*
X162238571Y-32635000D01*
X162238571Y-32349285D01*
X162310000Y-32206428D01*
X162452857Y-32135000D01*
X162595714Y-32135000D01*
X162738571Y-32849285D01*
X163167142Y-30920714D02*
X163238571Y-31063571D01*
X163238571Y-31349285D01*
X163167142Y-31492142D01*
X163024285Y-31563571D01*
X162452857Y-31563571D01*
X162310000Y-31492142D01*
X162238571Y-31349285D01*
X162238571Y-31063571D01*
X162310000Y-30920714D01*
X162452857Y-30849285D01*
X162595714Y-30849285D01*
X162738571Y-31563571D01*
X162238571Y-30206428D02*
X163238571Y-30206428D01*
X162381428Y-30206428D02*
X162310000Y-30135000D01*
X162238571Y-29992142D01*
X162238571Y-29777857D01*
X162310000Y-29635000D01*
X162452857Y-29563571D01*
X163238571Y-29563571D01*
X93388571Y-33877142D02*
X92674285Y-34377142D01*
X93388571Y-34734285D02*
X91888571Y-34734285D01*
X91888571Y-34162857D01*
X91960000Y-34020000D01*
X92031428Y-33948571D01*
X92174285Y-33877142D01*
X92388571Y-33877142D01*
X92531428Y-33948571D01*
X92602857Y-34020000D01*
X92674285Y-34162857D01*
X92674285Y-34734285D01*
X93317142Y-32662857D02*
X93388571Y-32805714D01*
X93388571Y-33091428D01*
X93317142Y-33234285D01*
X93174285Y-33305714D01*
X92602857Y-33305714D01*
X92460000Y-33234285D01*
X92388571Y-33091428D01*
X92388571Y-32805714D01*
X92460000Y-32662857D01*
X92602857Y-32591428D01*
X92745714Y-32591428D01*
X92888571Y-33305714D01*
X93388571Y-31305714D02*
X91888571Y-31305714D01*
X93317142Y-31305714D02*
X93388571Y-31448571D01*
X93388571Y-31734285D01*
X93317142Y-31877142D01*
X93245714Y-31948571D01*
X93102857Y-32020000D01*
X92674285Y-32020000D01*
X92531428Y-31948571D01*
X92460000Y-31877142D01*
X92388571Y-31734285D01*
X92388571Y-31448571D01*
X92460000Y-31305714D01*
D10*
X180071714Y-30972142D02*
X179405047Y-30972142D01*
X179405047Y-32019761D02*
X179405047Y-30019761D01*
X180357428Y-30019761D01*
X181405047Y-32019761D02*
X181214571Y-31924523D01*
X181119333Y-31734047D01*
X181119333Y-30019761D01*
X181976476Y-30686428D02*
X182452666Y-32019761D01*
X182928857Y-30686428D02*
X182452666Y-32019761D01*
X182262190Y-32495952D01*
X182166952Y-32591190D01*
X181976476Y-32686428D01*
X184357428Y-30972142D02*
X184643142Y-31067380D01*
X184738380Y-31162619D01*
X184833619Y-31353095D01*
X184833619Y-31638809D01*
X184738380Y-31829285D01*
X184643142Y-31924523D01*
X184452666Y-32019761D01*
X183690761Y-32019761D01*
X183690761Y-30019761D01*
X184357428Y-30019761D01*
X184547904Y-30115000D01*
X184643142Y-30210238D01*
X184738380Y-30400714D01*
X184738380Y-30591190D01*
X184643142Y-30781666D01*
X184547904Y-30876904D01*
X184357428Y-30972142D01*
X183690761Y-30972142D01*
X185976476Y-32019761D02*
X185786000Y-31924523D01*
X185690761Y-31829285D01*
X185595523Y-31638809D01*
X185595523Y-31067380D01*
X185690761Y-30876904D01*
X185786000Y-30781666D01*
X185976476Y-30686428D01*
X186262190Y-30686428D01*
X186452666Y-30781666D01*
X186547904Y-30876904D01*
X186643142Y-31067380D01*
X186643142Y-31638809D01*
X186547904Y-31829285D01*
X186452666Y-31924523D01*
X186262190Y-32019761D01*
X185976476Y-32019761D01*
X187309809Y-32019761D02*
X188357428Y-30686428D01*
X187309809Y-30686428D02*
X188357428Y-32019761D01*
X191786000Y-32019761D02*
X191119333Y-31067380D01*
X190643142Y-32019761D02*
X190643142Y-30019761D01*
X191405047Y-30019761D01*
X191595523Y-30115000D01*
X191690761Y-30210238D01*
X191786000Y-30400714D01*
X191786000Y-30686428D01*
X191690761Y-30876904D01*
X191595523Y-30972142D01*
X191405047Y-31067380D01*
X190643142Y-31067380D01*
X193690761Y-30115000D02*
X193500285Y-30019761D01*
X193214571Y-30019761D01*
X192928857Y-30115000D01*
X192738380Y-30305476D01*
X192643142Y-30495952D01*
X192547904Y-30876904D01*
X192547904Y-31162619D01*
X192643142Y-31543571D01*
X192738380Y-31734047D01*
X192928857Y-31924523D01*
X193214571Y-32019761D01*
X193405047Y-32019761D01*
X193690761Y-31924523D01*
X193786000Y-31829285D01*
X193786000Y-31162619D01*
X193405047Y-31162619D01*
X194452666Y-30019761D02*
X194928857Y-32019761D01*
X195309809Y-30591190D01*
X195690761Y-32019761D01*
X196166952Y-30019761D01*
X199119333Y-30972142D02*
X199405047Y-31067380D01*
X199500285Y-31162619D01*
X199595523Y-31353095D01*
X199595523Y-31638809D01*
X199500285Y-31829285D01*
X199405047Y-31924523D01*
X199214571Y-32019761D01*
X198452666Y-32019761D01*
X198452666Y-30019761D01*
X199119333Y-30019761D01*
X199309809Y-30115000D01*
X199405047Y-30210238D01*
X199500285Y-30400714D01*
X199500285Y-30591190D01*
X199405047Y-30781666D01*
X199309809Y-30876904D01*
X199119333Y-30972142D01*
X198452666Y-30972142D01*
X200738380Y-32019761D02*
X200547904Y-31924523D01*
X200452666Y-31829285D01*
X200357428Y-31638809D01*
X200357428Y-31067380D01*
X200452666Y-30876904D01*
X200547904Y-30781666D01*
X200738380Y-30686428D01*
X201024095Y-30686428D01*
X201214571Y-30781666D01*
X201309809Y-30876904D01*
X201405047Y-31067380D01*
X201405047Y-31638809D01*
X201309809Y-31829285D01*
X201214571Y-31924523D01*
X201024095Y-32019761D01*
X200738380Y-32019761D01*
X203119333Y-32019761D02*
X203119333Y-30972142D01*
X203024095Y-30781666D01*
X202833619Y-30686428D01*
X202452666Y-30686428D01*
X202262190Y-30781666D01*
X203119333Y-31924523D02*
X202928857Y-32019761D01*
X202452666Y-32019761D01*
X202262190Y-31924523D01*
X202166952Y-31734047D01*
X202166952Y-31543571D01*
X202262190Y-31353095D01*
X202452666Y-31257857D01*
X202928857Y-31257857D01*
X203119333Y-31162619D01*
X204071714Y-32019761D02*
X204071714Y-30686428D01*
X204071714Y-31067380D02*
X204166952Y-30876904D01*
X204262190Y-30781666D01*
X204452666Y-30686428D01*
X204643142Y-30686428D01*
X206166952Y-32019761D02*
X206166952Y-30019761D01*
X206166952Y-31924523D02*
X205976476Y-32019761D01*
X205595523Y-32019761D01*
X205405047Y-31924523D01*
X205309809Y-31829285D01*
X205214571Y-31638809D01*
X205214571Y-31067380D01*
X205309809Y-30876904D01*
X205405047Y-30781666D01*
X205595523Y-30686428D01*
X205976476Y-30686428D01*
X206166952Y-30781666D01*
D12*
G04 #@! TO.C,J8*
X163306666Y-48331428D02*
X164068571Y-48331428D01*
X165830476Y-47760000D02*
X165735238Y-47712380D01*
X165592380Y-47712380D01*
X165449523Y-47760000D01*
X165354285Y-47855238D01*
X165306666Y-47950476D01*
X165259047Y-48140952D01*
X165259047Y-48283809D01*
X165306666Y-48474285D01*
X165354285Y-48569523D01*
X165449523Y-48664761D01*
X165592380Y-48712380D01*
X165687619Y-48712380D01*
X165830476Y-48664761D01*
X165878095Y-48617142D01*
X165878095Y-48283809D01*
X165687619Y-48283809D01*
X167020952Y-48664761D02*
X167116190Y-48712380D01*
X167306666Y-48712380D01*
X167401904Y-48664761D01*
X167449523Y-48569523D01*
X167449523Y-48521904D01*
X167401904Y-48426666D01*
X167306666Y-48379047D01*
X167163809Y-48379047D01*
X167068571Y-48331428D01*
X167020952Y-48236190D01*
X167020952Y-48188571D01*
X167068571Y-48093333D01*
X167163809Y-48045714D01*
X167306666Y-48045714D01*
X167401904Y-48093333D01*
X167735238Y-48045714D02*
X168116190Y-48045714D01*
X167878095Y-47712380D02*
X167878095Y-48569523D01*
X167925714Y-48664761D01*
X168020952Y-48712380D01*
X168116190Y-48712380D01*
X168449523Y-48712380D02*
X168449523Y-48045714D01*
X168449523Y-48236190D02*
X168497142Y-48140952D01*
X168544761Y-48093333D01*
X168640000Y-48045714D01*
X168735238Y-48045714D01*
X169068571Y-48712380D02*
X169068571Y-48045714D01*
X169068571Y-47712380D02*
X169020952Y-47760000D01*
X169068571Y-47807619D01*
X169116190Y-47760000D01*
X169068571Y-47712380D01*
X169068571Y-47807619D01*
X169544761Y-48045714D02*
X169544761Y-49045714D01*
X169544761Y-48093333D02*
X169640000Y-48045714D01*
X169830476Y-48045714D01*
X169925714Y-48093333D01*
X169973333Y-48140952D01*
X170020952Y-48236190D01*
X170020952Y-48521904D01*
X169973333Y-48617142D01*
X169925714Y-48664761D01*
X169830476Y-48712380D01*
X169640000Y-48712380D01*
X169544761Y-48664761D01*
X171211428Y-48331428D02*
X171973333Y-48331428D01*
X171592380Y-48712380D02*
X171592380Y-47950476D01*
G04 #@! TO.C,J2*
X201406666Y-48331428D02*
X202168571Y-48331428D01*
X203930476Y-47760000D02*
X203835238Y-47712380D01*
X203692380Y-47712380D01*
X203549523Y-47760000D01*
X203454285Y-47855238D01*
X203406666Y-47950476D01*
X203359047Y-48140952D01*
X203359047Y-48283809D01*
X203406666Y-48474285D01*
X203454285Y-48569523D01*
X203549523Y-48664761D01*
X203692380Y-48712380D01*
X203787619Y-48712380D01*
X203930476Y-48664761D01*
X203978095Y-48617142D01*
X203978095Y-48283809D01*
X203787619Y-48283809D01*
X205120952Y-48664761D02*
X205216190Y-48712380D01*
X205406666Y-48712380D01*
X205501904Y-48664761D01*
X205549523Y-48569523D01*
X205549523Y-48521904D01*
X205501904Y-48426666D01*
X205406666Y-48379047D01*
X205263809Y-48379047D01*
X205168571Y-48331428D01*
X205120952Y-48236190D01*
X205120952Y-48188571D01*
X205168571Y-48093333D01*
X205263809Y-48045714D01*
X205406666Y-48045714D01*
X205501904Y-48093333D01*
X205835238Y-48045714D02*
X206216190Y-48045714D01*
X205978095Y-47712380D02*
X205978095Y-48569523D01*
X206025714Y-48664761D01*
X206120952Y-48712380D01*
X206216190Y-48712380D01*
X206549523Y-48712380D02*
X206549523Y-48045714D01*
X206549523Y-48236190D02*
X206597142Y-48140952D01*
X206644761Y-48093333D01*
X206740000Y-48045714D01*
X206835238Y-48045714D01*
X207168571Y-48712380D02*
X207168571Y-48045714D01*
X207168571Y-47712380D02*
X207120952Y-47760000D01*
X207168571Y-47807619D01*
X207216190Y-47760000D01*
X207168571Y-47712380D01*
X207168571Y-47807619D01*
X207644761Y-48045714D02*
X207644761Y-49045714D01*
X207644761Y-48093333D02*
X207740000Y-48045714D01*
X207930476Y-48045714D01*
X208025714Y-48093333D01*
X208073333Y-48140952D01*
X208120952Y-48236190D01*
X208120952Y-48521904D01*
X208073333Y-48617142D01*
X208025714Y-48664761D01*
X207930476Y-48712380D01*
X207740000Y-48712380D01*
X207644761Y-48664761D01*
X209311428Y-48331428D02*
X210073333Y-48331428D01*
X209692380Y-48712380D02*
X209692380Y-47950476D01*
G04 #@! TO.C,J13*
X78216666Y-48331428D02*
X78978571Y-48331428D01*
X80740476Y-47760000D02*
X80645238Y-47712380D01*
X80502380Y-47712380D01*
X80359523Y-47760000D01*
X80264285Y-47855238D01*
X80216666Y-47950476D01*
X80169047Y-48140952D01*
X80169047Y-48283809D01*
X80216666Y-48474285D01*
X80264285Y-48569523D01*
X80359523Y-48664761D01*
X80502380Y-48712380D01*
X80597619Y-48712380D01*
X80740476Y-48664761D01*
X80788095Y-48617142D01*
X80788095Y-48283809D01*
X80597619Y-48283809D01*
X81930952Y-48664761D02*
X82026190Y-48712380D01*
X82216666Y-48712380D01*
X82311904Y-48664761D01*
X82359523Y-48569523D01*
X82359523Y-48521904D01*
X82311904Y-48426666D01*
X82216666Y-48379047D01*
X82073809Y-48379047D01*
X81978571Y-48331428D01*
X81930952Y-48236190D01*
X81930952Y-48188571D01*
X81978571Y-48093333D01*
X82073809Y-48045714D01*
X82216666Y-48045714D01*
X82311904Y-48093333D01*
X82645238Y-48045714D02*
X83026190Y-48045714D01*
X82788095Y-47712380D02*
X82788095Y-48569523D01*
X82835714Y-48664761D01*
X82930952Y-48712380D01*
X83026190Y-48712380D01*
X83359523Y-48712380D02*
X83359523Y-48045714D01*
X83359523Y-48236190D02*
X83407142Y-48140952D01*
X83454761Y-48093333D01*
X83550000Y-48045714D01*
X83645238Y-48045714D01*
X83978571Y-48712380D02*
X83978571Y-48045714D01*
X83978571Y-47712380D02*
X83930952Y-47760000D01*
X83978571Y-47807619D01*
X84026190Y-47760000D01*
X83978571Y-47712380D01*
X83978571Y-47807619D01*
X84454761Y-48045714D02*
X84454761Y-49045714D01*
X84454761Y-48093333D02*
X84550000Y-48045714D01*
X84740476Y-48045714D01*
X84835714Y-48093333D01*
X84883333Y-48140952D01*
X84930952Y-48236190D01*
X84930952Y-48521904D01*
X84883333Y-48617142D01*
X84835714Y-48664761D01*
X84740476Y-48712380D01*
X84550000Y-48712380D01*
X84454761Y-48664761D01*
X86121428Y-48331428D02*
X86883333Y-48331428D01*
X86502380Y-48712380D02*
X86502380Y-47950476D01*
G04 #@! TO.C,J3*
X93425238Y-28011428D02*
X94187142Y-28011428D01*
X95996666Y-28392380D02*
X95663333Y-27916190D01*
X95425238Y-28392380D02*
X95425238Y-27392380D01*
X95806190Y-27392380D01*
X95901428Y-27440000D01*
X95949047Y-27487619D01*
X95996666Y-27582857D01*
X95996666Y-27725714D01*
X95949047Y-27820952D01*
X95901428Y-27868571D01*
X95806190Y-27916190D01*
X95425238Y-27916190D01*
X97044285Y-27725714D02*
X97425238Y-27725714D01*
X97187142Y-28392380D02*
X97187142Y-27535238D01*
X97234761Y-27440000D01*
X97330000Y-27392380D01*
X97425238Y-27392380D01*
X97758571Y-28392380D02*
X97758571Y-27725714D01*
X97758571Y-27916190D02*
X97806190Y-27820952D01*
X97853809Y-27773333D01*
X97949047Y-27725714D01*
X98044285Y-27725714D01*
X98520476Y-28392380D02*
X98425238Y-28344761D01*
X98377619Y-28297142D01*
X98330000Y-28201904D01*
X98330000Y-27916190D01*
X98377619Y-27820952D01*
X98425238Y-27773333D01*
X98520476Y-27725714D01*
X98663333Y-27725714D01*
X98758571Y-27773333D01*
X98806190Y-27820952D01*
X98853809Y-27916190D01*
X98853809Y-28201904D01*
X98806190Y-28297142D01*
X98758571Y-28344761D01*
X98663333Y-28392380D01*
X98520476Y-28392380D01*
X99282380Y-28392380D02*
X99282380Y-27725714D01*
X99282380Y-27820952D02*
X99330000Y-27773333D01*
X99425238Y-27725714D01*
X99568095Y-27725714D01*
X99663333Y-27773333D01*
X99710952Y-27868571D01*
X99710952Y-28392380D01*
X99710952Y-27868571D02*
X99758571Y-27773333D01*
X99853809Y-27725714D01*
X99996666Y-27725714D01*
X100091904Y-27773333D01*
X100139523Y-27868571D01*
X100139523Y-28392380D01*
X101806190Y-28392380D02*
X101806190Y-27868571D01*
X101758571Y-27773333D01*
X101663333Y-27725714D01*
X101472857Y-27725714D01*
X101377619Y-27773333D01*
X101806190Y-28344761D02*
X101710952Y-28392380D01*
X101472857Y-28392380D01*
X101377619Y-28344761D01*
X101330000Y-28249523D01*
X101330000Y-28154285D01*
X101377619Y-28059047D01*
X101472857Y-28011428D01*
X101710952Y-28011428D01*
X101806190Y-27963809D01*
X102282380Y-28392380D02*
X102282380Y-27392380D01*
X102282380Y-27773333D02*
X102377619Y-27725714D01*
X102568095Y-27725714D01*
X102663333Y-27773333D01*
X102710952Y-27820952D01*
X102758571Y-27916190D01*
X102758571Y-28201904D01*
X102710952Y-28297142D01*
X102663333Y-28344761D01*
X102568095Y-28392380D01*
X102377619Y-28392380D01*
X102282380Y-28344761D01*
X103330000Y-28392380D02*
X103234761Y-28344761D01*
X103187142Y-28297142D01*
X103139523Y-28201904D01*
X103139523Y-27916190D01*
X103187142Y-27820952D01*
X103234761Y-27773333D01*
X103330000Y-27725714D01*
X103472857Y-27725714D01*
X103568095Y-27773333D01*
X103615714Y-27820952D01*
X103663333Y-27916190D01*
X103663333Y-28201904D01*
X103615714Y-28297142D01*
X103568095Y-28344761D01*
X103472857Y-28392380D01*
X103330000Y-28392380D01*
X103996666Y-27725714D02*
X104234761Y-28392380D01*
X104472857Y-27725714D01*
X105234761Y-28344761D02*
X105139523Y-28392380D01*
X104949047Y-28392380D01*
X104853809Y-28344761D01*
X104806190Y-28249523D01*
X104806190Y-27868571D01*
X104853809Y-27773333D01*
X104949047Y-27725714D01*
X105139523Y-27725714D01*
X105234761Y-27773333D01*
X105282380Y-27868571D01*
X105282380Y-27963809D01*
X104806190Y-28059047D01*
X106472857Y-28011428D02*
X107234761Y-28011428D01*
X106853809Y-28392380D02*
X106853809Y-27630476D01*
G04 #@! TO.C,J12*
X188706666Y-48331428D02*
X189468571Y-48331428D01*
X191278095Y-48712380D02*
X190944761Y-48236190D01*
X190706666Y-48712380D02*
X190706666Y-47712380D01*
X191087619Y-47712380D01*
X191182857Y-47760000D01*
X191230476Y-47807619D01*
X191278095Y-47902857D01*
X191278095Y-48045714D01*
X191230476Y-48140952D01*
X191182857Y-48188571D01*
X191087619Y-48236190D01*
X190706666Y-48236190D01*
X192420952Y-48664761D02*
X192516190Y-48712380D01*
X192706666Y-48712380D01*
X192801904Y-48664761D01*
X192849523Y-48569523D01*
X192849523Y-48521904D01*
X192801904Y-48426666D01*
X192706666Y-48379047D01*
X192563809Y-48379047D01*
X192468571Y-48331428D01*
X192420952Y-48236190D01*
X192420952Y-48188571D01*
X192468571Y-48093333D01*
X192563809Y-48045714D01*
X192706666Y-48045714D01*
X192801904Y-48093333D01*
X193135238Y-48045714D02*
X193516190Y-48045714D01*
X193278095Y-47712380D02*
X193278095Y-48569523D01*
X193325714Y-48664761D01*
X193420952Y-48712380D01*
X193516190Y-48712380D01*
X193849523Y-48712380D02*
X193849523Y-48045714D01*
X193849523Y-48236190D02*
X193897142Y-48140952D01*
X193944761Y-48093333D01*
X194040000Y-48045714D01*
X194135238Y-48045714D01*
X194468571Y-48712380D02*
X194468571Y-48045714D01*
X194468571Y-47712380D02*
X194420952Y-47760000D01*
X194468571Y-47807619D01*
X194516190Y-47760000D01*
X194468571Y-47712380D01*
X194468571Y-47807619D01*
X194944761Y-48045714D02*
X194944761Y-49045714D01*
X194944761Y-48093333D02*
X195040000Y-48045714D01*
X195230476Y-48045714D01*
X195325714Y-48093333D01*
X195373333Y-48140952D01*
X195420952Y-48236190D01*
X195420952Y-48521904D01*
X195373333Y-48617142D01*
X195325714Y-48664761D01*
X195230476Y-48712380D01*
X195040000Y-48712380D01*
X194944761Y-48664761D01*
X196611428Y-48331428D02*
X197373333Y-48331428D01*
X196992380Y-48712380D02*
X196992380Y-47950476D01*
G04 #@! TO.C,J7*
X151241666Y-48331428D02*
X152003571Y-48331428D01*
X153813095Y-48712380D02*
X153479761Y-48236190D01*
X153241666Y-48712380D02*
X153241666Y-47712380D01*
X153622619Y-47712380D01*
X153717857Y-47760000D01*
X153765476Y-47807619D01*
X153813095Y-47902857D01*
X153813095Y-48045714D01*
X153765476Y-48140952D01*
X153717857Y-48188571D01*
X153622619Y-48236190D01*
X153241666Y-48236190D01*
X154955952Y-48664761D02*
X155051190Y-48712380D01*
X155241666Y-48712380D01*
X155336904Y-48664761D01*
X155384523Y-48569523D01*
X155384523Y-48521904D01*
X155336904Y-48426666D01*
X155241666Y-48379047D01*
X155098809Y-48379047D01*
X155003571Y-48331428D01*
X154955952Y-48236190D01*
X154955952Y-48188571D01*
X155003571Y-48093333D01*
X155098809Y-48045714D01*
X155241666Y-48045714D01*
X155336904Y-48093333D01*
X155670238Y-48045714D02*
X156051190Y-48045714D01*
X155813095Y-47712380D02*
X155813095Y-48569523D01*
X155860714Y-48664761D01*
X155955952Y-48712380D01*
X156051190Y-48712380D01*
X156384523Y-48712380D02*
X156384523Y-48045714D01*
X156384523Y-48236190D02*
X156432142Y-48140952D01*
X156479761Y-48093333D01*
X156575000Y-48045714D01*
X156670238Y-48045714D01*
X157003571Y-48712380D02*
X157003571Y-48045714D01*
X157003571Y-47712380D02*
X156955952Y-47760000D01*
X157003571Y-47807619D01*
X157051190Y-47760000D01*
X157003571Y-47712380D01*
X157003571Y-47807619D01*
X157479761Y-48045714D02*
X157479761Y-49045714D01*
X157479761Y-48093333D02*
X157575000Y-48045714D01*
X157765476Y-48045714D01*
X157860714Y-48093333D01*
X157908333Y-48140952D01*
X157955952Y-48236190D01*
X157955952Y-48521904D01*
X157908333Y-48617142D01*
X157860714Y-48664761D01*
X157765476Y-48712380D01*
X157575000Y-48712380D01*
X157479761Y-48664761D01*
X159146428Y-48331428D02*
X159908333Y-48331428D01*
X159527380Y-48712380D02*
X159527380Y-47950476D01*
G04 #@! TO.C,J11*
X90845238Y-48331428D02*
X91607142Y-48331428D01*
X92750000Y-47712380D02*
X92988095Y-48712380D01*
X93178571Y-47998095D01*
X93369047Y-48712380D01*
X93607142Y-47712380D01*
X94702380Y-48664761D02*
X94797619Y-48712380D01*
X94988095Y-48712380D01*
X95083333Y-48664761D01*
X95130952Y-48569523D01*
X95130952Y-48521904D01*
X95083333Y-48426666D01*
X94988095Y-48379047D01*
X94845238Y-48379047D01*
X94750000Y-48331428D01*
X94702380Y-48236190D01*
X94702380Y-48188571D01*
X94750000Y-48093333D01*
X94845238Y-48045714D01*
X94988095Y-48045714D01*
X95083333Y-48093333D01*
X95416666Y-48045714D02*
X95797619Y-48045714D01*
X95559523Y-47712380D02*
X95559523Y-48569523D01*
X95607142Y-48664761D01*
X95702380Y-48712380D01*
X95797619Y-48712380D01*
X96130952Y-48712380D02*
X96130952Y-48045714D01*
X96130952Y-48236190D02*
X96178571Y-48140952D01*
X96226190Y-48093333D01*
X96321428Y-48045714D01*
X96416666Y-48045714D01*
X96750000Y-48712380D02*
X96750000Y-48045714D01*
X96750000Y-47712380D02*
X96702380Y-47760000D01*
X96750000Y-47807619D01*
X96797619Y-47760000D01*
X96750000Y-47712380D01*
X96750000Y-47807619D01*
X97226190Y-48045714D02*
X97226190Y-49045714D01*
X97226190Y-48093333D02*
X97321428Y-48045714D01*
X97511904Y-48045714D01*
X97607142Y-48093333D01*
X97654761Y-48140952D01*
X97702380Y-48236190D01*
X97702380Y-48521904D01*
X97654761Y-48617142D01*
X97607142Y-48664761D01*
X97511904Y-48712380D01*
X97321428Y-48712380D01*
X97226190Y-48664761D01*
X98892857Y-48331428D02*
X99654761Y-48331428D01*
X99273809Y-48712380D02*
X99273809Y-47950476D01*
G04 #@! TO.C,J10*
X116316666Y-48331428D02*
X117078571Y-48331428D01*
X118840476Y-47760000D02*
X118745238Y-47712380D01*
X118602380Y-47712380D01*
X118459523Y-47760000D01*
X118364285Y-47855238D01*
X118316666Y-47950476D01*
X118269047Y-48140952D01*
X118269047Y-48283809D01*
X118316666Y-48474285D01*
X118364285Y-48569523D01*
X118459523Y-48664761D01*
X118602380Y-48712380D01*
X118697619Y-48712380D01*
X118840476Y-48664761D01*
X118888095Y-48617142D01*
X118888095Y-48283809D01*
X118697619Y-48283809D01*
X120030952Y-48664761D02*
X120126190Y-48712380D01*
X120316666Y-48712380D01*
X120411904Y-48664761D01*
X120459523Y-48569523D01*
X120459523Y-48521904D01*
X120411904Y-48426666D01*
X120316666Y-48379047D01*
X120173809Y-48379047D01*
X120078571Y-48331428D01*
X120030952Y-48236190D01*
X120030952Y-48188571D01*
X120078571Y-48093333D01*
X120173809Y-48045714D01*
X120316666Y-48045714D01*
X120411904Y-48093333D01*
X120745238Y-48045714D02*
X121126190Y-48045714D01*
X120888095Y-47712380D02*
X120888095Y-48569523D01*
X120935714Y-48664761D01*
X121030952Y-48712380D01*
X121126190Y-48712380D01*
X121459523Y-48712380D02*
X121459523Y-48045714D01*
X121459523Y-48236190D02*
X121507142Y-48140952D01*
X121554761Y-48093333D01*
X121650000Y-48045714D01*
X121745238Y-48045714D01*
X122078571Y-48712380D02*
X122078571Y-48045714D01*
X122078571Y-47712380D02*
X122030952Y-47760000D01*
X122078571Y-47807619D01*
X122126190Y-47760000D01*
X122078571Y-47712380D01*
X122078571Y-47807619D01*
X122554761Y-48045714D02*
X122554761Y-49045714D01*
X122554761Y-48093333D02*
X122650000Y-48045714D01*
X122840476Y-48045714D01*
X122935714Y-48093333D01*
X122983333Y-48140952D01*
X123030952Y-48236190D01*
X123030952Y-48521904D01*
X122983333Y-48617142D01*
X122935714Y-48664761D01*
X122840476Y-48712380D01*
X122650000Y-48712380D01*
X122554761Y-48664761D01*
X124221428Y-48331428D02*
X124983333Y-48331428D01*
X124602380Y-48712380D02*
X124602380Y-47950476D01*
G04 #@! TO.C,J6*
X130818809Y-28011428D02*
X131580714Y-28011428D01*
X132723571Y-27392380D02*
X132961666Y-28392380D01*
X133152142Y-27678095D01*
X133342619Y-28392380D01*
X133580714Y-27392380D01*
X134580714Y-27725714D02*
X134961666Y-27725714D01*
X134723571Y-28392380D02*
X134723571Y-27535238D01*
X134771190Y-27440000D01*
X134866428Y-27392380D01*
X134961666Y-27392380D01*
X135295000Y-28392380D02*
X135295000Y-27725714D01*
X135295000Y-27916190D02*
X135342619Y-27820952D01*
X135390238Y-27773333D01*
X135485476Y-27725714D01*
X135580714Y-27725714D01*
X136056904Y-28392380D02*
X135961666Y-28344761D01*
X135914047Y-28297142D01*
X135866428Y-28201904D01*
X135866428Y-27916190D01*
X135914047Y-27820952D01*
X135961666Y-27773333D01*
X136056904Y-27725714D01*
X136199761Y-27725714D01*
X136295000Y-27773333D01*
X136342619Y-27820952D01*
X136390238Y-27916190D01*
X136390238Y-28201904D01*
X136342619Y-28297142D01*
X136295000Y-28344761D01*
X136199761Y-28392380D01*
X136056904Y-28392380D01*
X136818809Y-28392380D02*
X136818809Y-27725714D01*
X136818809Y-27820952D02*
X136866428Y-27773333D01*
X136961666Y-27725714D01*
X137104523Y-27725714D01*
X137199761Y-27773333D01*
X137247380Y-27868571D01*
X137247380Y-28392380D01*
X137247380Y-27868571D02*
X137295000Y-27773333D01*
X137390238Y-27725714D01*
X137533095Y-27725714D01*
X137628333Y-27773333D01*
X137675952Y-27868571D01*
X137675952Y-28392380D01*
X139342619Y-28392380D02*
X139342619Y-27868571D01*
X139295000Y-27773333D01*
X139199761Y-27725714D01*
X139009285Y-27725714D01*
X138914047Y-27773333D01*
X139342619Y-28344761D02*
X139247380Y-28392380D01*
X139009285Y-28392380D01*
X138914047Y-28344761D01*
X138866428Y-28249523D01*
X138866428Y-28154285D01*
X138914047Y-28059047D01*
X139009285Y-28011428D01*
X139247380Y-28011428D01*
X139342619Y-27963809D01*
X139818809Y-28392380D02*
X139818809Y-27392380D01*
X139818809Y-27773333D02*
X139914047Y-27725714D01*
X140104523Y-27725714D01*
X140199761Y-27773333D01*
X140247380Y-27820952D01*
X140295000Y-27916190D01*
X140295000Y-28201904D01*
X140247380Y-28297142D01*
X140199761Y-28344761D01*
X140104523Y-28392380D01*
X139914047Y-28392380D01*
X139818809Y-28344761D01*
X140866428Y-28392380D02*
X140771190Y-28344761D01*
X140723571Y-28297142D01*
X140675952Y-28201904D01*
X140675952Y-27916190D01*
X140723571Y-27820952D01*
X140771190Y-27773333D01*
X140866428Y-27725714D01*
X141009285Y-27725714D01*
X141104523Y-27773333D01*
X141152142Y-27820952D01*
X141199761Y-27916190D01*
X141199761Y-28201904D01*
X141152142Y-28297142D01*
X141104523Y-28344761D01*
X141009285Y-28392380D01*
X140866428Y-28392380D01*
X141533095Y-27725714D02*
X141771190Y-28392380D01*
X142009285Y-27725714D01*
X142771190Y-28344761D02*
X142675952Y-28392380D01*
X142485476Y-28392380D01*
X142390238Y-28344761D01*
X142342619Y-28249523D01*
X142342619Y-27868571D01*
X142390238Y-27773333D01*
X142485476Y-27725714D01*
X142675952Y-27725714D01*
X142771190Y-27773333D01*
X142818809Y-27868571D01*
X142818809Y-27963809D01*
X142342619Y-28059047D01*
X144009285Y-28011428D02*
X144771190Y-28011428D01*
X144390238Y-28392380D02*
X144390238Y-27630476D01*
G04 #@! TO.C,J9*
X65516666Y-48331428D02*
X66278571Y-48331428D01*
X68088095Y-48712380D02*
X67754761Y-48236190D01*
X67516666Y-48712380D02*
X67516666Y-47712380D01*
X67897619Y-47712380D01*
X67992857Y-47760000D01*
X68040476Y-47807619D01*
X68088095Y-47902857D01*
X68088095Y-48045714D01*
X68040476Y-48140952D01*
X67992857Y-48188571D01*
X67897619Y-48236190D01*
X67516666Y-48236190D01*
X69230952Y-48664761D02*
X69326190Y-48712380D01*
X69516666Y-48712380D01*
X69611904Y-48664761D01*
X69659523Y-48569523D01*
X69659523Y-48521904D01*
X69611904Y-48426666D01*
X69516666Y-48379047D01*
X69373809Y-48379047D01*
X69278571Y-48331428D01*
X69230952Y-48236190D01*
X69230952Y-48188571D01*
X69278571Y-48093333D01*
X69373809Y-48045714D01*
X69516666Y-48045714D01*
X69611904Y-48093333D01*
X69945238Y-48045714D02*
X70326190Y-48045714D01*
X70088095Y-47712380D02*
X70088095Y-48569523D01*
X70135714Y-48664761D01*
X70230952Y-48712380D01*
X70326190Y-48712380D01*
X70659523Y-48712380D02*
X70659523Y-48045714D01*
X70659523Y-48236190D02*
X70707142Y-48140952D01*
X70754761Y-48093333D01*
X70850000Y-48045714D01*
X70945238Y-48045714D01*
X71278571Y-48712380D02*
X71278571Y-48045714D01*
X71278571Y-47712380D02*
X71230952Y-47760000D01*
X71278571Y-47807619D01*
X71326190Y-47760000D01*
X71278571Y-47712380D01*
X71278571Y-47807619D01*
X71754761Y-48045714D02*
X71754761Y-49045714D01*
X71754761Y-48093333D02*
X71850000Y-48045714D01*
X72040476Y-48045714D01*
X72135714Y-48093333D01*
X72183333Y-48140952D01*
X72230952Y-48236190D01*
X72230952Y-48521904D01*
X72183333Y-48617142D01*
X72135714Y-48664761D01*
X72040476Y-48712380D01*
X71850000Y-48712380D01*
X71754761Y-48664761D01*
X73421428Y-48331428D02*
X74183333Y-48331428D01*
X73802380Y-48712380D02*
X73802380Y-47950476D01*
G04 #@! TO.C,J4*
X175935238Y-48331428D02*
X176697142Y-48331428D01*
X177840000Y-47712380D02*
X178078095Y-48712380D01*
X178268571Y-47998095D01*
X178459047Y-48712380D01*
X178697142Y-47712380D01*
X179792380Y-48664761D02*
X179887619Y-48712380D01*
X180078095Y-48712380D01*
X180173333Y-48664761D01*
X180220952Y-48569523D01*
X180220952Y-48521904D01*
X180173333Y-48426666D01*
X180078095Y-48379047D01*
X179935238Y-48379047D01*
X179840000Y-48331428D01*
X179792380Y-48236190D01*
X179792380Y-48188571D01*
X179840000Y-48093333D01*
X179935238Y-48045714D01*
X180078095Y-48045714D01*
X180173333Y-48093333D01*
X180506666Y-48045714D02*
X180887619Y-48045714D01*
X180649523Y-47712380D02*
X180649523Y-48569523D01*
X180697142Y-48664761D01*
X180792380Y-48712380D01*
X180887619Y-48712380D01*
X181220952Y-48712380D02*
X181220952Y-48045714D01*
X181220952Y-48236190D02*
X181268571Y-48140952D01*
X181316190Y-48093333D01*
X181411428Y-48045714D01*
X181506666Y-48045714D01*
X181840000Y-48712380D02*
X181840000Y-48045714D01*
X181840000Y-47712380D02*
X181792380Y-47760000D01*
X181840000Y-47807619D01*
X181887619Y-47760000D01*
X181840000Y-47712380D01*
X181840000Y-47807619D01*
X182316190Y-48045714D02*
X182316190Y-49045714D01*
X182316190Y-48093333D02*
X182411428Y-48045714D01*
X182601904Y-48045714D01*
X182697142Y-48093333D01*
X182744761Y-48140952D01*
X182792380Y-48236190D01*
X182792380Y-48521904D01*
X182744761Y-48617142D01*
X182697142Y-48664761D01*
X182601904Y-48712380D01*
X182411428Y-48712380D01*
X182316190Y-48664761D01*
X183982857Y-48331428D02*
X184744761Y-48331428D01*
X184363809Y-48712380D02*
X184363809Y-47950476D01*
G04 #@! TO.C,J5*
X163910238Y-28011428D02*
X164672142Y-28011428D01*
X166434047Y-27440000D02*
X166338809Y-27392380D01*
X166195952Y-27392380D01*
X166053095Y-27440000D01*
X165957857Y-27535238D01*
X165910238Y-27630476D01*
X165862619Y-27820952D01*
X165862619Y-27963809D01*
X165910238Y-28154285D01*
X165957857Y-28249523D01*
X166053095Y-28344761D01*
X166195952Y-28392380D01*
X166291190Y-28392380D01*
X166434047Y-28344761D01*
X166481666Y-28297142D01*
X166481666Y-27963809D01*
X166291190Y-27963809D01*
X167529285Y-27725714D02*
X167910238Y-27725714D01*
X167672142Y-28392380D02*
X167672142Y-27535238D01*
X167719761Y-27440000D01*
X167815000Y-27392380D01*
X167910238Y-27392380D01*
X168243571Y-28392380D02*
X168243571Y-27725714D01*
X168243571Y-27916190D02*
X168291190Y-27820952D01*
X168338809Y-27773333D01*
X168434047Y-27725714D01*
X168529285Y-27725714D01*
X169005476Y-28392380D02*
X168910238Y-28344761D01*
X168862619Y-28297142D01*
X168815000Y-28201904D01*
X168815000Y-27916190D01*
X168862619Y-27820952D01*
X168910238Y-27773333D01*
X169005476Y-27725714D01*
X169148333Y-27725714D01*
X169243571Y-27773333D01*
X169291190Y-27820952D01*
X169338809Y-27916190D01*
X169338809Y-28201904D01*
X169291190Y-28297142D01*
X169243571Y-28344761D01*
X169148333Y-28392380D01*
X169005476Y-28392380D01*
X169767380Y-28392380D02*
X169767380Y-27725714D01*
X169767380Y-27820952D02*
X169815000Y-27773333D01*
X169910238Y-27725714D01*
X170053095Y-27725714D01*
X170148333Y-27773333D01*
X170195952Y-27868571D01*
X170195952Y-28392380D01*
X170195952Y-27868571D02*
X170243571Y-27773333D01*
X170338809Y-27725714D01*
X170481666Y-27725714D01*
X170576904Y-27773333D01*
X170624523Y-27868571D01*
X170624523Y-28392380D01*
X172291190Y-28392380D02*
X172291190Y-27868571D01*
X172243571Y-27773333D01*
X172148333Y-27725714D01*
X171957857Y-27725714D01*
X171862619Y-27773333D01*
X172291190Y-28344761D02*
X172195952Y-28392380D01*
X171957857Y-28392380D01*
X171862619Y-28344761D01*
X171815000Y-28249523D01*
X171815000Y-28154285D01*
X171862619Y-28059047D01*
X171957857Y-28011428D01*
X172195952Y-28011428D01*
X172291190Y-27963809D01*
X172767380Y-28392380D02*
X172767380Y-27392380D01*
X172767380Y-27773333D02*
X172862619Y-27725714D01*
X173053095Y-27725714D01*
X173148333Y-27773333D01*
X173195952Y-27820952D01*
X173243571Y-27916190D01*
X173243571Y-28201904D01*
X173195952Y-28297142D01*
X173148333Y-28344761D01*
X173053095Y-28392380D01*
X172862619Y-28392380D01*
X172767380Y-28344761D01*
X173815000Y-28392380D02*
X173719761Y-28344761D01*
X173672142Y-28297142D01*
X173624523Y-28201904D01*
X173624523Y-27916190D01*
X173672142Y-27820952D01*
X173719761Y-27773333D01*
X173815000Y-27725714D01*
X173957857Y-27725714D01*
X174053095Y-27773333D01*
X174100714Y-27820952D01*
X174148333Y-27916190D01*
X174148333Y-28201904D01*
X174100714Y-28297142D01*
X174053095Y-28344761D01*
X173957857Y-28392380D01*
X173815000Y-28392380D01*
X174481666Y-27725714D02*
X174719761Y-28392380D01*
X174957857Y-27725714D01*
X175719761Y-28344761D02*
X175624523Y-28392380D01*
X175434047Y-28392380D01*
X175338809Y-28344761D01*
X175291190Y-28249523D01*
X175291190Y-27868571D01*
X175338809Y-27773333D01*
X175434047Y-27725714D01*
X175624523Y-27725714D01*
X175719761Y-27773333D01*
X175767380Y-27868571D01*
X175767380Y-27963809D01*
X175291190Y-28059047D01*
X176957857Y-28011428D02*
X177719761Y-28011428D01*
X177338809Y-28392380D02*
X177338809Y-27630476D01*
G04 #@! TO.C,J1*
X103616666Y-48331428D02*
X104378571Y-48331428D01*
X106188095Y-48712380D02*
X105854761Y-48236190D01*
X105616666Y-48712380D02*
X105616666Y-47712380D01*
X105997619Y-47712380D01*
X106092857Y-47760000D01*
X106140476Y-47807619D01*
X106188095Y-47902857D01*
X106188095Y-48045714D01*
X106140476Y-48140952D01*
X106092857Y-48188571D01*
X105997619Y-48236190D01*
X105616666Y-48236190D01*
X107330952Y-48664761D02*
X107426190Y-48712380D01*
X107616666Y-48712380D01*
X107711904Y-48664761D01*
X107759523Y-48569523D01*
X107759523Y-48521904D01*
X107711904Y-48426666D01*
X107616666Y-48379047D01*
X107473809Y-48379047D01*
X107378571Y-48331428D01*
X107330952Y-48236190D01*
X107330952Y-48188571D01*
X107378571Y-48093333D01*
X107473809Y-48045714D01*
X107616666Y-48045714D01*
X107711904Y-48093333D01*
X108045238Y-48045714D02*
X108426190Y-48045714D01*
X108188095Y-47712380D02*
X108188095Y-48569523D01*
X108235714Y-48664761D01*
X108330952Y-48712380D01*
X108426190Y-48712380D01*
X108759523Y-48712380D02*
X108759523Y-48045714D01*
X108759523Y-48236190D02*
X108807142Y-48140952D01*
X108854761Y-48093333D01*
X108950000Y-48045714D01*
X109045238Y-48045714D01*
X109378571Y-48712380D02*
X109378571Y-48045714D01*
X109378571Y-47712380D02*
X109330952Y-47760000D01*
X109378571Y-47807619D01*
X109426190Y-47760000D01*
X109378571Y-47712380D01*
X109378571Y-47807619D01*
X109854761Y-48045714D02*
X109854761Y-49045714D01*
X109854761Y-48093333D02*
X109950000Y-48045714D01*
X110140476Y-48045714D01*
X110235714Y-48093333D01*
X110283333Y-48140952D01*
X110330952Y-48236190D01*
X110330952Y-48521904D01*
X110283333Y-48617142D01*
X110235714Y-48664761D01*
X110140476Y-48712380D01*
X109950000Y-48712380D01*
X109854761Y-48664761D01*
X111521428Y-48331428D02*
X112283333Y-48331428D01*
X111902380Y-48712380D02*
X111902380Y-47950476D01*
G04 #@! TO.C,G\u002A\u002A\u002A*
G36*
X75868004Y-34704107D02*
G01*
X75930895Y-34706862D01*
X75968046Y-34712382D01*
X75985281Y-34721427D01*
X75988645Y-34731414D01*
X75973154Y-34754421D01*
X75952573Y-34759470D01*
X75924108Y-34761401D01*
X75901973Y-34769967D01*
X75885377Y-34789327D01*
X75873527Y-34823636D01*
X75865632Y-34877054D01*
X75860901Y-34953737D01*
X75858542Y-35057845D01*
X75857763Y-35193534D01*
X75857717Y-35257691D01*
X75858478Y-35389393D01*
X75860626Y-35506942D01*
X75863961Y-35605121D01*
X75868283Y-35678711D01*
X75873390Y-35722496D01*
X75875928Y-35731154D01*
X75907383Y-35761826D01*
X75941391Y-35777041D01*
X75976653Y-35792058D01*
X75988645Y-35807249D01*
X75970834Y-35815196D01*
X75920910Y-35821183D01*
X75844140Y-35824762D01*
X75773549Y-35825596D01*
X75688867Y-35824351D01*
X75619880Y-35820967D01*
X75573970Y-35815969D01*
X75558453Y-35810268D01*
X75573826Y-35793340D01*
X75611590Y-35771673D01*
X75619241Y-35768184D01*
X75680029Y-35741428D01*
X75680029Y-34787525D01*
X75619241Y-34769630D01*
X75578167Y-34751141D01*
X75558698Y-34729791D01*
X75558453Y-34727546D01*
X75567875Y-34716544D01*
X75599303Y-34709211D01*
X75657478Y-34705012D01*
X75747144Y-34703413D01*
X75773549Y-34703358D01*
X75868004Y-34704107D01*
G37*
G36*
X75550723Y-32945184D02*
G01*
X75589416Y-32883680D01*
X75634748Y-32828157D01*
X75690359Y-32776523D01*
X75759892Y-32726686D01*
X75846985Y-32676552D01*
X75955280Y-32624028D01*
X76088417Y-32567023D01*
X76250037Y-32503444D01*
X76443781Y-32431197D01*
X76446892Y-32430058D01*
X76764860Y-32313666D01*
X76770287Y-32139397D01*
X76766888Y-31970700D01*
X76744460Y-31833304D01*
X76701932Y-31725696D01*
X76638231Y-31646361D01*
X76552283Y-31593782D01*
X76443015Y-31566446D01*
X76361021Y-31561500D01*
X76279460Y-31565587D01*
X76197703Y-31576567D01*
X76149827Y-31587548D01*
X76061913Y-31614006D01*
X76013638Y-31537534D01*
X75985602Y-31490999D01*
X75976667Y-31464651D01*
X75985365Y-31447432D01*
X76000118Y-31435650D01*
X76045134Y-31412361D01*
X76117326Y-31385699D01*
X76207001Y-31358614D01*
X76304465Y-31334057D01*
X76391949Y-31316362D01*
X76464842Y-31307895D01*
X76559810Y-31302701D01*
X76661612Y-31301432D01*
X76714139Y-31302609D01*
X76808933Y-31307240D01*
X76878239Y-31314481D01*
X76933978Y-31326822D01*
X76988070Y-31346753D01*
X77039797Y-31370622D01*
X77152794Y-31438633D01*
X77240910Y-31524539D01*
X77313008Y-31637267D01*
X77321791Y-31654609D01*
X77331508Y-31675186D01*
X77339628Y-31696427D01*
X77346335Y-31721815D01*
X77351817Y-31754831D01*
X77356258Y-31798957D01*
X77359845Y-31857675D01*
X77362764Y-31934467D01*
X77365200Y-32032816D01*
X77367341Y-32156203D01*
X77369371Y-32308110D01*
X77371476Y-32492019D01*
X77372739Y-32608512D01*
X77382091Y-33478247D01*
X77774875Y-33496951D01*
X77780714Y-33547566D01*
X77780517Y-33574610D01*
X77768299Y-33596807D01*
X77737514Y-33620217D01*
X77681617Y-33650898D01*
X77653848Y-33665010D01*
X77502399Y-33731236D01*
X77360874Y-33770121D01*
X77217016Y-33784448D01*
X77134414Y-33782972D01*
X77044322Y-33775605D01*
X76982160Y-33763366D01*
X76938552Y-33744167D01*
X76928089Y-33737037D01*
X76853598Y-33662159D01*
X76801356Y-33569455D01*
X76783721Y-33507234D01*
X76771386Y-33434221D01*
X76693307Y-33509670D01*
X76600652Y-33589111D01*
X76496497Y-33662082D01*
X76392578Y-33721141D01*
X76300629Y-33758850D01*
X76299927Y-33759059D01*
X76211020Y-33776791D01*
X76106636Y-33784640D01*
X76001338Y-33782575D01*
X75909691Y-33770565D01*
X75871139Y-33759981D01*
X75744727Y-33696038D01*
X75641112Y-33604547D01*
X75562905Y-33489455D01*
X75512718Y-33354711D01*
X75493160Y-33204260D01*
X75492989Y-33188336D01*
X75495169Y-33108342D01*
X75504245Y-33049604D01*
X75507994Y-33039460D01*
X76103993Y-33039460D01*
X76112880Y-33145860D01*
X76137600Y-33220681D01*
X76192391Y-33301128D01*
X76269028Y-33352580D01*
X76364892Y-33374341D01*
X76477364Y-33365714D01*
X76575566Y-33337204D01*
X76641626Y-33308988D01*
X76700368Y-33278040D01*
X76725900Y-33261031D01*
X76774212Y-33223028D01*
X76774212Y-32531175D01*
X76733722Y-32544027D01*
X76681318Y-32563440D01*
X76607768Y-32594252D01*
X76522039Y-32632299D01*
X76433096Y-32673419D01*
X76349907Y-32713451D01*
X76281439Y-32748232D01*
X76236658Y-32773600D01*
X76231172Y-32777293D01*
X76165071Y-32846021D01*
X76122034Y-32936462D01*
X76103993Y-33039460D01*
X75507994Y-33039460D01*
X75524022Y-32996095D01*
X75550723Y-32945184D01*
G37*
G36*
X71571261Y-33472673D02*
G01*
X71571915Y-33388079D01*
X71572515Y-33274537D01*
X71573054Y-33134867D01*
X71573521Y-32971889D01*
X71573908Y-32788423D01*
X71574206Y-32587289D01*
X71574407Y-32371307D01*
X71574500Y-32143297D01*
X71574506Y-32068809D01*
X71574506Y-30593907D01*
X71406171Y-30569779D01*
X71237835Y-30545650D01*
X71237835Y-30380042D01*
X72084190Y-30387345D01*
X72285091Y-30389146D01*
X72452353Y-30390896D01*
X72589743Y-30392783D01*
X72701029Y-30394994D01*
X72789978Y-30397716D01*
X72860359Y-30401137D01*
X72915939Y-30405444D01*
X72960485Y-30410825D01*
X72997766Y-30417467D01*
X73031549Y-30425558D01*
X73065601Y-30435285D01*
X73069170Y-30436356D01*
X73252034Y-30502653D01*
X73401806Y-30582254D01*
X73520994Y-30676971D01*
X73612104Y-30788615D01*
X73650372Y-30856296D01*
X73710291Y-31016810D01*
X73734441Y-31177885D01*
X73724211Y-31335758D01*
X73680991Y-31486670D01*
X73606170Y-31626858D01*
X73501136Y-31752561D01*
X73367279Y-31860018D01*
X73256577Y-31922655D01*
X73126928Y-31985368D01*
X73256989Y-32036395D01*
X73442179Y-32124781D01*
X73595185Y-32232107D01*
X73716228Y-32358627D01*
X73805528Y-32504594D01*
X73863306Y-32670260D01*
X73878527Y-32747697D01*
X73886424Y-32915664D01*
X73859735Y-33080036D01*
X73801241Y-33235505D01*
X73713725Y-33376769D01*
X73599970Y-33498521D01*
X73462757Y-33595457D01*
X73423032Y-33616208D01*
X73368365Y-33642555D01*
X73319140Y-33664802D01*
X73271702Y-33683323D01*
X73222396Y-33698488D01*
X73167568Y-33710671D01*
X73103561Y-33720243D01*
X73026722Y-33727577D01*
X72933394Y-33733045D01*
X72819923Y-33737019D01*
X72682654Y-33739871D01*
X72517932Y-33741974D01*
X72322101Y-33743700D01*
X72159006Y-33744923D01*
X71237835Y-33751694D01*
X71237835Y-33675758D01*
X71238859Y-33628462D01*
X71241421Y-33601898D01*
X71242511Y-33599797D01*
X71261741Y-33596769D01*
X71309081Y-33588706D01*
X71375806Y-33577101D01*
X71406171Y-33571767D01*
X71478237Y-33559159D01*
X71534431Y-33549490D01*
X71566027Y-33544255D01*
X71569830Y-33543737D01*
X71570458Y-33528101D01*
X72172803Y-33528101D01*
X72495562Y-33521597D01*
X72615962Y-33518746D01*
X72705995Y-33515182D01*
X72772703Y-33510058D01*
X72823126Y-33502521D01*
X72864306Y-33491723D01*
X72903284Y-33476812D01*
X72917221Y-33470684D01*
X73031447Y-33399460D01*
X73122558Y-33299635D01*
X73188777Y-33173331D01*
X73204485Y-33127453D01*
X73226997Y-33020460D01*
X73237354Y-32896521D01*
X73235901Y-32767682D01*
X73222983Y-32645990D01*
X73198946Y-32543494D01*
X73186851Y-32511819D01*
X73120286Y-32395768D01*
X73031306Y-32301046D01*
X72917411Y-32226297D01*
X72776101Y-32170159D01*
X72604874Y-32131274D01*
X72451816Y-32112301D01*
X72309758Y-32099653D01*
X72270623Y-32007023D01*
X72248770Y-31947406D01*
X72245957Y-31915427D01*
X72253697Y-31907595D01*
X72281165Y-31903671D01*
X72336482Y-31898769D01*
X72410128Y-31893674D01*
X72453593Y-31891149D01*
X72613699Y-31872987D01*
X72754486Y-31837942D01*
X72869235Y-31787887D01*
X72904246Y-31765582D01*
X72978168Y-31691861D01*
X73037367Y-31590184D01*
X73079272Y-31467975D01*
X73101314Y-31332658D01*
X73101323Y-31196362D01*
X73077703Y-31033291D01*
X73035231Y-30900443D01*
X72972274Y-30794829D01*
X72887195Y-30713462D01*
X72812698Y-30668887D01*
X72768068Y-30647973D01*
X72728550Y-30633519D01*
X72685778Y-30624338D01*
X72631389Y-30619239D01*
X72557017Y-30617036D01*
X72454297Y-30616540D01*
X72444241Y-30616539D01*
X72182386Y-30616539D01*
X72177595Y-32072320D01*
X72172803Y-33528101D01*
X71570458Y-33528101D01*
X71570563Y-33525499D01*
X71571261Y-33472673D01*
G37*
G36*
X72451427Y-34704651D02*
G01*
X72509476Y-34708860D01*
X72538242Y-34716483D01*
X72542724Y-34725878D01*
X72520927Y-34745948D01*
X72478818Y-34763011D01*
X72477891Y-34763254D01*
X72427512Y-34789820D01*
X72409279Y-34820225D01*
X72405502Y-34852454D01*
X72402218Y-34914897D01*
X72399660Y-35000361D01*
X72398060Y-35101655D01*
X72397632Y-35180309D01*
X72396295Y-35291696D01*
X72392829Y-35395463D01*
X72387670Y-35483481D01*
X72381257Y-35547620D01*
X72376520Y-35573031D01*
X72340379Y-35648474D01*
X72279661Y-35722754D01*
X72205765Y-35784467D01*
X72130095Y-35822213D01*
X72126212Y-35823339D01*
X72019294Y-35840746D01*
X71904559Y-35839578D01*
X71801148Y-35820229D01*
X71789602Y-35816422D01*
X71705292Y-35769166D01*
X71631547Y-35695242D01*
X71577483Y-35605364D01*
X71557166Y-35543247D01*
X71550433Y-35492976D01*
X71544662Y-35413863D01*
X71540263Y-35314469D01*
X71537648Y-35203356D01*
X71537098Y-35125567D01*
X71536683Y-35002282D01*
X71534663Y-34911220D01*
X71529877Y-34847197D01*
X71521165Y-34805031D01*
X71507363Y-34779537D01*
X71487313Y-34765534D01*
X71459851Y-34757838D01*
X71454480Y-34756806D01*
X71420847Y-34740509D01*
X71410838Y-34726738D01*
X71416486Y-34716218D01*
X71444690Y-34709164D01*
X71499936Y-34705072D01*
X71586709Y-34703442D01*
X71619708Y-34703358D01*
X71728373Y-34705516D01*
X71799947Y-34712007D01*
X71834496Y-34722855D01*
X71832088Y-34738085D01*
X71792791Y-34757723D01*
X71780137Y-34762312D01*
X71730962Y-34793820D01*
X71712592Y-34827016D01*
X71709321Y-34859972D01*
X71707302Y-34923251D01*
X71706604Y-35009786D01*
X71707296Y-35112510D01*
X71708948Y-35203902D01*
X71712177Y-35325859D01*
X71715920Y-35416909D01*
X71720953Y-35483556D01*
X71728052Y-35532301D01*
X71737994Y-35569645D01*
X71751552Y-35602091D01*
X71757973Y-35614791D01*
X71804357Y-35682189D01*
X71864132Y-35726031D01*
X71943880Y-35749182D01*
X72050181Y-35754505D01*
X72077038Y-35753601D01*
X72145981Y-35733127D01*
X72210565Y-35682920D01*
X72263769Y-35610557D01*
X72298574Y-35523617D01*
X72301435Y-35511384D01*
X72308644Y-35459663D01*
X72314366Y-35383602D01*
X72318546Y-35290747D01*
X72321127Y-35188641D01*
X72322052Y-35084832D01*
X72321265Y-34986863D01*
X72318709Y-34902280D01*
X72314329Y-34838627D01*
X72308066Y-34803451D01*
X72306757Y-34800760D01*
X72278546Y-34778549D01*
X72238122Y-34762332D01*
X72197382Y-34745144D01*
X72177370Y-34725718D01*
X72184979Y-34714891D01*
X72218995Y-34707880D01*
X72283307Y-34704209D01*
X72360073Y-34703358D01*
X72451427Y-34704651D01*
G37*
G36*
X83162593Y-34687499D02*
G01*
X83291433Y-34717825D01*
X83292548Y-34718204D01*
X83386067Y-34750118D01*
X83397919Y-34881045D01*
X83401678Y-34965789D01*
X83395711Y-35017210D01*
X83381610Y-35034418D01*
X83360963Y-35016520D01*
X83335363Y-34962624D01*
X83321793Y-34923741D01*
X83278155Y-34841741D01*
X83211408Y-34785856D01*
X83127392Y-34760515D01*
X83105116Y-34759470D01*
X83019840Y-34773396D01*
X82958800Y-34813329D01*
X82925109Y-34876498D01*
X82919318Y-34924766D01*
X82928600Y-34987292D01*
X82959444Y-35041307D01*
X83016348Y-35091587D01*
X83103810Y-35142908D01*
X83142916Y-35162211D01*
X83219375Y-35204308D01*
X83293161Y-35254221D01*
X83347441Y-35300346D01*
X83390805Y-35349227D01*
X83414351Y-35392572D01*
X83425564Y-35447422D01*
X83429000Y-35486072D01*
X83425153Y-35596452D01*
X83394353Y-35683367D01*
X83334536Y-35751278D01*
X83293209Y-35779437D01*
X83215855Y-35811083D01*
X83118757Y-35831737D01*
X83018619Y-35838827D01*
X82946524Y-35832820D01*
X82898877Y-35820891D01*
X82838502Y-35801844D01*
X82822614Y-35796229D01*
X82772321Y-35773780D01*
X82746810Y-35746225D01*
X82734292Y-35700590D01*
X82733975Y-35698692D01*
X82723650Y-35612730D01*
X82722436Y-35541338D01*
X82729899Y-35491572D01*
X82745604Y-35470488D01*
X82748051Y-35470221D01*
X82769022Y-35486655D01*
X82784725Y-35527110D01*
X82785513Y-35531009D01*
X82815994Y-35619294D01*
X82867487Y-35692705D01*
X82932311Y-35740514D01*
X82936981Y-35742554D01*
X83032927Y-35767658D01*
X83118733Y-35761939D01*
X83189178Y-35728293D01*
X83239038Y-35669613D01*
X83263089Y-35588794D01*
X83264492Y-35561072D01*
X83252915Y-35498663D01*
X83215771Y-35441906D01*
X83149440Y-35387043D01*
X83050304Y-35330320D01*
X83034521Y-35322468D01*
X82921151Y-35261320D01*
X82839889Y-35203219D01*
X82786256Y-35143416D01*
X82755771Y-35077164D01*
X82744982Y-35015633D01*
X82752173Y-34911136D01*
X82789688Y-34823650D01*
X82853507Y-34755361D01*
X82939610Y-34708450D01*
X83043979Y-34685102D01*
X83162593Y-34687499D01*
G37*
G36*
X78594498Y-31256564D02*
G01*
X78602751Y-31297599D01*
X78608413Y-31370264D01*
X78611265Y-31448913D01*
X78616553Y-31654705D01*
X78719463Y-31581653D01*
X78890554Y-31473943D01*
X79063113Y-31391118D01*
X79233613Y-31333346D01*
X79398529Y-31300792D01*
X79554335Y-31293623D01*
X79697505Y-31312005D01*
X79824514Y-31356105D01*
X79931835Y-31426089D01*
X80014894Y-31520523D01*
X80047011Y-31576562D01*
X80082348Y-31649090D01*
X80104707Y-31701369D01*
X80115133Y-31728266D01*
X80123818Y-31754118D01*
X80130950Y-31782521D01*
X80136717Y-31817070D01*
X80141307Y-31861360D01*
X80144908Y-31918987D01*
X80147708Y-31993547D01*
X80149896Y-32088634D01*
X80151659Y-32207844D01*
X80153185Y-32354773D01*
X80154663Y-32533015D01*
X80155761Y-32677185D01*
X80162268Y-33540776D01*
X80296554Y-33562337D01*
X80384339Y-33576719D01*
X80441706Y-33588549D01*
X80475120Y-33601504D01*
X80491050Y-33619260D01*
X80495961Y-33645495D01*
X80496303Y-33675899D01*
X80496303Y-33749455D01*
X79543751Y-33749455D01*
X79538400Y-32837636D01*
X79537092Y-32628211D01*
X79535750Y-32452861D01*
X79534235Y-32308255D01*
X79532412Y-32191061D01*
X79530143Y-32097946D01*
X79527290Y-32025578D01*
X79523718Y-31970626D01*
X79519289Y-31929758D01*
X79513865Y-31899641D01*
X79507311Y-31876942D01*
X79499489Y-31858331D01*
X79498010Y-31855309D01*
X79460252Y-31798250D01*
X79412937Y-31749545D01*
X79405286Y-31743724D01*
X79331086Y-31710768D01*
X79231669Y-31695742D01*
X79114290Y-31698006D01*
X78986206Y-31716921D01*
X78854672Y-31751847D01*
X78726945Y-31802144D01*
X78723292Y-31803863D01*
X78607201Y-31858765D01*
X78607201Y-33538579D01*
X78752157Y-33561843D01*
X78844685Y-33578182D01*
X78905847Y-33594078D01*
X78941496Y-33612889D01*
X78957481Y-33637972D01*
X78959651Y-33672685D01*
X78958993Y-33680558D01*
X78953225Y-33740103D01*
X78481103Y-33745100D01*
X78008981Y-33750096D01*
X78004152Y-32678973D01*
X77999322Y-31607849D01*
X77843932Y-31602400D01*
X77688541Y-31596950D01*
X77700059Y-31458218D01*
X78130250Y-31351454D01*
X78252453Y-31321325D01*
X78363093Y-31294422D01*
X78456825Y-31272017D01*
X78528303Y-31255377D01*
X78572180Y-31245772D01*
X78583209Y-31243907D01*
X78594498Y-31256564D01*
G37*
G36*
X86509335Y-31261293D02*
G01*
X86511295Y-31313676D01*
X86513105Y-31397075D01*
X86514732Y-31508294D01*
X86516143Y-31644136D01*
X86517306Y-31801406D01*
X86518189Y-31976907D01*
X86518758Y-32167444D01*
X86518981Y-32369820D01*
X86518984Y-32391299D01*
X86518984Y-33539475D01*
X86645235Y-33561951D01*
X86731509Y-33577531D01*
X86787345Y-33589839D01*
X86819058Y-33602555D01*
X86832967Y-33619361D01*
X86835388Y-33643939D01*
X86833309Y-33671552D01*
X86827599Y-33740103D01*
X86196340Y-33745028D01*
X85565081Y-33749952D01*
X85565081Y-33676148D01*
X85565663Y-33640554D01*
X85571693Y-33616278D01*
X85589592Y-33599636D01*
X85625783Y-33586946D01*
X85686689Y-33574525D01*
X85766148Y-33560836D01*
X85901752Y-33537720D01*
X85901752Y-31598498D01*
X85583785Y-31598498D01*
X85583785Y-31534137D01*
X85587469Y-31488511D01*
X85596474Y-31462270D01*
X85597813Y-31461154D01*
X85618559Y-31454961D01*
X85669637Y-31441720D01*
X85744951Y-31422893D01*
X85838406Y-31399940D01*
X85943906Y-31374323D01*
X86055355Y-31347504D01*
X86166658Y-31320943D01*
X86271719Y-31296103D01*
X86364444Y-31274444D01*
X86438735Y-31257428D01*
X86488498Y-31246516D01*
X86507258Y-31243122D01*
X86509335Y-31261293D01*
G37*
G36*
X81195013Y-34712999D02*
G01*
X81278628Y-34714429D01*
X81338693Y-34717836D01*
X81382136Y-34724060D01*
X81415885Y-34733941D01*
X81446868Y-34748316D01*
X81467050Y-34759470D01*
X81528160Y-34804433D01*
X81575681Y-34857733D01*
X81583950Y-34871402D01*
X81610446Y-34951562D01*
X81617748Y-35044286D01*
X81604583Y-35129551D01*
X81600997Y-35139851D01*
X81576674Y-35181482D01*
X81538542Y-35226320D01*
X81497297Y-35263596D01*
X81463636Y-35282540D01*
X81458648Y-35283181D01*
X81428629Y-35293351D01*
X81404676Y-35308025D01*
X81391839Y-35320542D01*
X81389178Y-35336972D01*
X81399437Y-35362950D01*
X81425357Y-35404110D01*
X81469684Y-35466085D01*
X81504779Y-35513614D01*
X81563911Y-35590334D01*
X81622124Y-35660686D01*
X81672208Y-35716244D01*
X81703515Y-35745950D01*
X81742757Y-35780160D01*
X81765709Y-35805774D01*
X81768173Y-35811568D01*
X81751061Y-35818520D01*
X81706070Y-35823537D01*
X81642717Y-35825590D01*
X81638817Y-35825596D01*
X81589641Y-35825345D01*
X81550854Y-35821948D01*
X81517971Y-35811445D01*
X81486509Y-35789872D01*
X81451985Y-35753267D01*
X81409915Y-35697668D01*
X81355814Y-35619113D01*
X81285200Y-35513638D01*
X81284309Y-35512305D01*
X81230143Y-35433540D01*
X81190223Y-35382003D01*
X81159847Y-35352666D01*
X81134312Y-35340505D01*
X81122404Y-35339293D01*
X81101239Y-35340519D01*
X81087770Y-35348795D01*
X81080258Y-35371016D01*
X81076964Y-35414078D01*
X81076148Y-35484878D01*
X81076126Y-35522758D01*
X81078440Y-35624007D01*
X81086668Y-35693893D01*
X81102738Y-35738250D01*
X81128579Y-35762910D01*
X81158744Y-35772582D01*
X81192384Y-35788521D01*
X81202387Y-35802216D01*
X81196783Y-35812546D01*
X81168920Y-35819545D01*
X81114359Y-35823688D01*
X81028661Y-35825451D01*
X80984165Y-35825596D01*
X80896467Y-35824261D01*
X80824868Y-35820614D01*
X80776418Y-35815191D01*
X80758167Y-35808531D01*
X80758159Y-35808378D01*
X80774286Y-35792800D01*
X80813205Y-35779074D01*
X80814426Y-35778802D01*
X80860782Y-35759151D01*
X80889242Y-35731786D01*
X80894962Y-35702592D01*
X80899870Y-35640978D01*
X80903765Y-35551927D01*
X80906447Y-35440423D01*
X80907715Y-35311448D01*
X80907791Y-35269868D01*
X80907773Y-35264477D01*
X81076126Y-35264477D01*
X81179927Y-35264477D01*
X81249678Y-35259280D01*
X81312854Y-35246016D01*
X81338594Y-35236104D01*
X81399097Y-35185207D01*
X81436788Y-35112154D01*
X81449623Y-35025901D01*
X81435558Y-34935406D01*
X81417445Y-34890658D01*
X81377131Y-34832862D01*
X81321535Y-34797513D01*
X81242980Y-34780926D01*
X81183674Y-34778449D01*
X81076126Y-34778174D01*
X81076126Y-35264477D01*
X80907773Y-35264477D01*
X80907303Y-35119544D01*
X80905299Y-35002366D01*
X80900962Y-34914078D01*
X80893478Y-34850425D01*
X80882033Y-34807151D01*
X80865811Y-34780001D01*
X80863203Y-34778174D01*
X80843999Y-34764719D01*
X80815781Y-34757049D01*
X80809430Y-34756073D01*
X80778687Y-34744518D01*
X80772303Y-34731414D01*
X80792450Y-34724140D01*
X80846406Y-34718472D01*
X80930599Y-34714627D01*
X81041456Y-34712821D01*
X81080919Y-34712710D01*
X81195013Y-34712999D01*
G37*
G36*
X82846688Y-30064340D02*
G01*
X82847707Y-30117429D01*
X82848669Y-30202744D01*
X82849563Y-30317694D01*
X82850378Y-30459689D01*
X82851104Y-30626137D01*
X82851728Y-30814447D01*
X82852241Y-31022028D01*
X82852632Y-31246290D01*
X82852888Y-31484642D01*
X82853000Y-31734492D01*
X82853004Y-31793199D01*
X82853004Y-33540331D01*
X82988608Y-33562115D01*
X83076736Y-33576547D01*
X83134425Y-33588390D01*
X83168121Y-33601301D01*
X83184267Y-33618937D01*
X83189309Y-33644954D01*
X83189676Y-33676220D01*
X83189676Y-33750097D01*
X82717400Y-33745100D01*
X82245125Y-33740103D01*
X82235532Y-32823608D01*
X82233027Y-32603763D01*
X82230427Y-32418430D01*
X82227625Y-32264716D01*
X82224517Y-32139724D01*
X82220995Y-32040560D01*
X82216955Y-31964328D01*
X82212290Y-31908133D01*
X82206896Y-31869081D01*
X82200666Y-31844276D01*
X82199670Y-31841649D01*
X82131664Y-31710030D01*
X82046769Y-31610807D01*
X81946014Y-31544680D01*
X81830429Y-31512348D01*
X81715782Y-31512580D01*
X81581038Y-31546516D01*
X81461111Y-31613800D01*
X81358439Y-31712478D01*
X81275458Y-31840599D01*
X81256510Y-31880518D01*
X81217379Y-31981625D01*
X81189801Y-32085644D01*
X81172334Y-32201527D01*
X81163535Y-32338227D01*
X81161766Y-32468232D01*
X81163186Y-32586673D01*
X81167656Y-32678583D01*
X81176319Y-32754789D01*
X81190319Y-32826119D01*
X81205854Y-32885968D01*
X81267746Y-33052909D01*
X81351679Y-33190322D01*
X81457210Y-33297703D01*
X81583895Y-33374552D01*
X81663174Y-33403844D01*
X81773002Y-33425067D01*
X81889937Y-33428880D01*
X81997528Y-33415290D01*
X82038144Y-33403632D01*
X82093142Y-33386858D01*
X82125290Y-33390180D01*
X82146126Y-33418965D01*
X82161430Y-33460976D01*
X82171304Y-33505961D01*
X82164196Y-33543299D01*
X82135572Y-33579760D01*
X82080898Y-33622118D01*
X82032000Y-33654266D01*
X81882694Y-33728550D01*
X81714592Y-33775683D01*
X81536324Y-33793954D01*
X81375390Y-33784456D01*
X81208622Y-33743031D01*
X81055515Y-33668024D01*
X80917931Y-33561351D01*
X80797731Y-33424929D01*
X80696777Y-33260672D01*
X80616928Y-33070498D01*
X80587364Y-32973240D01*
X80564400Y-32858389D01*
X80549754Y-32721851D01*
X80543591Y-32575328D01*
X80546075Y-32430519D01*
X80557370Y-32299125D01*
X80576505Y-32197025D01*
X80647587Y-31998645D01*
X80748894Y-31819001D01*
X80877741Y-31661430D01*
X81031442Y-31529274D01*
X81189709Y-31434376D01*
X81343440Y-31367132D01*
X81486935Y-31324975D01*
X81634604Y-31304853D01*
X81800859Y-31303714D01*
X81805581Y-31303911D01*
X81910811Y-31310517D01*
X81991690Y-31321512D01*
X82061219Y-31339275D01*
X82122098Y-31361884D01*
X82182581Y-31386508D01*
X82227721Y-31404253D01*
X82248152Y-31411441D01*
X82248350Y-31411458D01*
X82250020Y-31393586D01*
X82251517Y-31343300D01*
X82252775Y-31265593D01*
X82253730Y-31165459D01*
X82254317Y-31047891D01*
X82254477Y-30941099D01*
X82254477Y-30470740D01*
X82095493Y-30482961D01*
X81936509Y-30495181D01*
X81936509Y-30328527D01*
X82259153Y-30226208D01*
X82425722Y-30173568D01*
X82567751Y-30129061D01*
X82683010Y-30093374D01*
X82769268Y-30067192D01*
X82824293Y-30051199D01*
X82845622Y-30046067D01*
X82846688Y-30064340D01*
G37*
G36*
X88557031Y-34704925D02*
G01*
X88614505Y-34709122D01*
X88646979Y-34715195D01*
X88651237Y-34718597D01*
X88636063Y-34735925D01*
X88598720Y-34758896D01*
X88590449Y-34763007D01*
X88565796Y-34778028D01*
X88542160Y-34801384D01*
X88516331Y-34838268D01*
X88485103Y-34893877D01*
X88445270Y-34973404D01*
X88394057Y-35081119D01*
X88258453Y-35370063D01*
X88258453Y-35733985D01*
X88324671Y-35761653D01*
X88364105Y-35783339D01*
X88380573Y-35803188D01*
X88379679Y-35807458D01*
X88357793Y-35814430D01*
X88307982Y-35819817D01*
X88239702Y-35823493D01*
X88162409Y-35825333D01*
X88085558Y-35825211D01*
X88018604Y-35823001D01*
X87971003Y-35818578D01*
X87952955Y-35813127D01*
X87941529Y-35789077D01*
X87964425Y-35771494D01*
X87996906Y-35762876D01*
X88043752Y-35741402D01*
X88073344Y-35696395D01*
X88087810Y-35623267D01*
X88090118Y-35562116D01*
X88088345Y-35526713D01*
X88081446Y-35490358D01*
X88067046Y-35447531D01*
X88042775Y-35392714D01*
X88006257Y-35320390D01*
X87955122Y-35225039D01*
X87909163Y-35141282D01*
X87851281Y-35038507D01*
X87796570Y-34945381D01*
X87748539Y-34867566D01*
X87710695Y-34810727D01*
X87686548Y-34780528D01*
X87684715Y-34778945D01*
X87651600Y-34748940D01*
X87643011Y-34727836D01*
X87661848Y-34714199D01*
X87711010Y-34706596D01*
X87793399Y-34703592D01*
X87837614Y-34703358D01*
X87927297Y-34704218D01*
X87985639Y-34707373D01*
X88018677Y-34713687D01*
X88032451Y-34724021D01*
X88034006Y-34731414D01*
X88018354Y-34754250D01*
X87996011Y-34759470D01*
X87960267Y-34771119D01*
X87947711Y-34786323D01*
X87952459Y-34811544D01*
X87972416Y-34863047D01*
X88004736Y-34934356D01*
X88046570Y-35018992D01*
X88068553Y-35061237D01*
X88199700Y-35309298D01*
X88313245Y-35078588D01*
X88354797Y-34992320D01*
X88389526Y-34916713D01*
X88414356Y-34858733D01*
X88426211Y-34825342D01*
X88426789Y-34821508D01*
X88411909Y-34795185D01*
X88375601Y-34766107D01*
X88370795Y-34763276D01*
X88333134Y-34738200D01*
X88314977Y-34718951D01*
X88314684Y-34717386D01*
X88331939Y-34711208D01*
X88378259Y-34706419D01*
X88445306Y-34703713D01*
X88482901Y-34703358D01*
X88557031Y-34704925D01*
G37*
G36*
X74905097Y-31247482D02*
G01*
X74914773Y-31263647D01*
X74920062Y-31299122D01*
X74922212Y-31360655D01*
X74922518Y-31420810D01*
X74923422Y-31497165D01*
X74925852Y-31557084D01*
X74929383Y-31592443D01*
X74931776Y-31598498D01*
X74949704Y-31587589D01*
X74988824Y-31558695D01*
X75041417Y-31517565D01*
X75053506Y-31507866D01*
X75158769Y-31427297D01*
X75247257Y-31370782D01*
X75327310Y-31334647D01*
X75407263Y-31315223D01*
X75495457Y-31308836D01*
X75505579Y-31308772D01*
X75586641Y-31310792D01*
X75641510Y-31318554D01*
X75681234Y-31334229D01*
X75700815Y-31347150D01*
X75771498Y-31413325D01*
X75814402Y-31490315D01*
X75836028Y-31589839D01*
X75836189Y-31591256D01*
X75843375Y-31656300D01*
X75845113Y-31704922D01*
X75836979Y-31741929D01*
X75814550Y-31772128D01*
X75773400Y-31800326D01*
X75709107Y-31831329D01*
X75617245Y-31869945D01*
X75556891Y-31894721D01*
X75460729Y-31933697D01*
X75375846Y-31967038D01*
X75308623Y-31992323D01*
X75265438Y-32007128D01*
X75253360Y-32009985D01*
X75237695Y-31993018D01*
X75236551Y-31941890D01*
X75236739Y-31939845D01*
X75232969Y-31855204D01*
X75206689Y-31788247D01*
X75161060Y-31746904D01*
X75159496Y-31746174D01*
X75124597Y-31737147D01*
X75082230Y-31743423D01*
X75020133Y-31766856D01*
X75018840Y-31767411D01*
X74922518Y-31808848D01*
X74922518Y-33539475D01*
X75048770Y-33561951D01*
X75134336Y-33577418D01*
X75189713Y-33589797D01*
X75221461Y-33602988D01*
X75236139Y-33620890D01*
X75240309Y-33647403D01*
X75240486Y-33675899D01*
X75240486Y-33749455D01*
X74607668Y-33749455D01*
X74457372Y-33749099D01*
X74319104Y-33748088D01*
X74197283Y-33746508D01*
X74096327Y-33744443D01*
X74020655Y-33741980D01*
X73974687Y-33739203D01*
X73962381Y-33736985D01*
X73951852Y-33707684D01*
X73950809Y-33663671D01*
X73958393Y-33624111D01*
X73968096Y-33609496D01*
X73990800Y-33602837D01*
X74039668Y-33591765D01*
X74104029Y-33578389D01*
X74173211Y-33564820D01*
X74236543Y-33553169D01*
X74283354Y-33545546D01*
X74300611Y-33543737D01*
X74301509Y-33525606D01*
X74302350Y-33473541D01*
X74303118Y-33391013D01*
X74303797Y-33281495D01*
X74304368Y-33148460D01*
X74304816Y-32995380D01*
X74305123Y-32825729D01*
X74305274Y-32642979D01*
X74305287Y-32571104D01*
X74305287Y-31598498D01*
X73985061Y-31598498D01*
X73996671Y-31458218D01*
X74426863Y-31351428D01*
X74549760Y-31321221D01*
X74661762Y-31294264D01*
X74757364Y-31271834D01*
X74831062Y-31255211D01*
X74877352Y-31245673D01*
X74889786Y-31243880D01*
X74905097Y-31247482D01*
G37*
G36*
X88019372Y-31296356D02*
G01*
X88138151Y-31306516D01*
X88199047Y-31315996D01*
X88260612Y-31329919D01*
X88335523Y-31349821D01*
X88414504Y-31372850D01*
X88488277Y-31396152D01*
X88547566Y-31416876D01*
X88583095Y-31432167D01*
X88588162Y-31435668D01*
X88593646Y-31457744D01*
X88600276Y-31509413D01*
X88607524Y-31583040D01*
X88614860Y-31670993D01*
X88621755Y-31765637D01*
X88627682Y-31859339D01*
X88632112Y-31944465D01*
X88634515Y-32013382D01*
X88634363Y-32058456D01*
X88632232Y-32072049D01*
X88606323Y-32080617D01*
X88559743Y-32082104D01*
X88549526Y-32081401D01*
X88512768Y-32076281D01*
X88487598Y-32063372D01*
X88466793Y-32034747D01*
X88443125Y-31982486D01*
X88430161Y-31950505D01*
X88354380Y-31795317D01*
X88265085Y-31674549D01*
X88161530Y-31587458D01*
X88042970Y-31533304D01*
X88000280Y-31522504D01*
X87878009Y-31511277D01*
X87768624Y-31528525D01*
X87676518Y-31571393D01*
X87606089Y-31637026D01*
X87561733Y-31722568D01*
X87547731Y-31816420D01*
X87560916Y-31906792D01*
X87601901Y-31987337D01*
X87672949Y-32060232D01*
X87776321Y-32127656D01*
X87914280Y-32191788D01*
X87953600Y-32207242D01*
X88176618Y-32301657D01*
X88362830Y-32400623D01*
X88512148Y-32504080D01*
X88624481Y-32611966D01*
X88697869Y-32720484D01*
X88751898Y-32866614D01*
X88771322Y-33018193D01*
X88757210Y-33169423D01*
X88710635Y-33314507D01*
X88632667Y-33447646D01*
X88545726Y-33544146D01*
X88418200Y-33637892D01*
X88264475Y-33710707D01*
X88090352Y-33761028D01*
X87901633Y-33787298D01*
X87704122Y-33787954D01*
X87654078Y-33783936D01*
X87407337Y-33742919D01*
X87177589Y-33670097D01*
X87070751Y-33627737D01*
X87058295Y-33515584D01*
X87052127Y-33450843D01*
X87044964Y-33361386D01*
X87037765Y-33259851D01*
X87032382Y-33174308D01*
X87018925Y-32945184D01*
X87105269Y-32945184D01*
X87158814Y-32947341D01*
X87186414Y-32957814D01*
X87199460Y-32982605D01*
X87202881Y-32996620D01*
X87254104Y-33167758D01*
X87325854Y-33309214D01*
X87417306Y-33420196D01*
X87527632Y-33499909D01*
X87656006Y-33547562D01*
X87792968Y-33562415D01*
X87895653Y-33555406D01*
X87974870Y-33531736D01*
X88042338Y-33487439D01*
X88059055Y-33472381D01*
X88128071Y-33387780D01*
X88163476Y-33292974D01*
X88170277Y-33216391D01*
X88153903Y-33103596D01*
X88103758Y-33005861D01*
X88057215Y-32953341D01*
X88024770Y-32930065D01*
X87964620Y-32894213D01*
X87882898Y-32849157D01*
X87785739Y-32798268D01*
X87679278Y-32744915D01*
X87667076Y-32738950D01*
X87537793Y-32674817D01*
X87436802Y-32621853D01*
X87358035Y-32576438D01*
X87295424Y-32534949D01*
X87242900Y-32493768D01*
X87215892Y-32469731D01*
X87133521Y-32385430D01*
X87076135Y-32304147D01*
X87039819Y-32216204D01*
X87020655Y-32111921D01*
X87014728Y-31981620D01*
X87014707Y-31972577D01*
X87015613Y-31880551D01*
X87019613Y-31815327D01*
X87028516Y-31766322D01*
X87044132Y-31722950D01*
X87064401Y-31681915D01*
X87151576Y-31556287D01*
X87268133Y-31452503D01*
X87412093Y-31372016D01*
X87552405Y-31323566D01*
X87643893Y-31306867D01*
X87760227Y-31296672D01*
X87889392Y-31293121D01*
X88019372Y-31296356D01*
G37*
G36*
X79781695Y-34848313D02*
G01*
X79781239Y-34929442D01*
X79772102Y-34974865D01*
X79754653Y-34984326D01*
X79729260Y-34957568D01*
X79700900Y-34904425D01*
X79668773Y-34848958D01*
X79628451Y-34812065D01*
X79572198Y-34790325D01*
X79492279Y-34780314D01*
X79416148Y-34778449D01*
X79261841Y-34778174D01*
X79261841Y-35227069D01*
X79350685Y-35226793D01*
X79443363Y-35216931D01*
X79506696Y-35186870D01*
X79543863Y-35134886D01*
X79549150Y-35119284D01*
X79567656Y-35078268D01*
X79589646Y-35058952D01*
X79591866Y-35058733D01*
X79603699Y-35067087D01*
X79611402Y-35095720D01*
X79615665Y-35149991D01*
X79617182Y-35235258D01*
X79617216Y-35255125D01*
X79616356Y-35344808D01*
X79613201Y-35403150D01*
X79606887Y-35436188D01*
X79596553Y-35449962D01*
X79589160Y-35451517D01*
X79564334Y-35437842D01*
X79561104Y-35425983D01*
X79550247Y-35394504D01*
X79523957Y-35353246D01*
X79522339Y-35351167D01*
X79495405Y-35322887D01*
X79463459Y-35308033D01*
X79413960Y-35302476D01*
X79372707Y-35301885D01*
X79261841Y-35301885D01*
X79261841Y-35750780D01*
X79446149Y-35750780D01*
X79532420Y-35750021D01*
X79590219Y-35746590D01*
X79628470Y-35738757D01*
X79656099Y-35724793D01*
X79679192Y-35705614D01*
X79716574Y-35660433D01*
X79739680Y-35613555D01*
X79740063Y-35612095D01*
X79757950Y-35576247D01*
X79779082Y-35563741D01*
X79793546Y-35571558D01*
X79800686Y-35599618D01*
X79801671Y-35654829D01*
X79800435Y-35689992D01*
X79794904Y-35816244D01*
X79369389Y-35821271D01*
X79231928Y-35822147D01*
X79117259Y-35821354D01*
X79028850Y-35818992D01*
X78970169Y-35815166D01*
X78944683Y-35809976D01*
X78943873Y-35808729D01*
X78960003Y-35792904D01*
X78998928Y-35779072D01*
X79000141Y-35778802D01*
X79046496Y-35759151D01*
X79074956Y-35731786D01*
X79080677Y-35702592D01*
X79085584Y-35640978D01*
X79089479Y-35551927D01*
X79092161Y-35440423D01*
X79093430Y-35311448D01*
X79093505Y-35269868D01*
X79093018Y-35119544D01*
X79091013Y-35002366D01*
X79086676Y-34914078D01*
X79079192Y-34850425D01*
X79067747Y-34807151D01*
X79051526Y-34780001D01*
X79029713Y-34764719D01*
X79001495Y-34757049D01*
X78995144Y-34756073D01*
X78964352Y-34744513D01*
X78957901Y-34731414D01*
X78977992Y-34724844D01*
X79033068Y-34719580D01*
X79120726Y-34715731D01*
X79238564Y-34713407D01*
X79369389Y-34712710D01*
X79776200Y-34712710D01*
X79781695Y-34848313D01*
G37*
G36*
X84728760Y-34705554D02*
G01*
X84799998Y-34712134D01*
X84834206Y-34723082D01*
X84831343Y-34738384D01*
X84791368Y-34758026D01*
X84781388Y-34761619D01*
X84738257Y-34788291D01*
X84716179Y-34821434D01*
X84711775Y-34857140D01*
X84708507Y-34922519D01*
X84706332Y-35010750D01*
X84705205Y-35115013D01*
X84705080Y-35228488D01*
X84705914Y-35344356D01*
X84707662Y-35455796D01*
X84710280Y-35555988D01*
X84713723Y-35638113D01*
X84717946Y-35695350D01*
X84722038Y-35719137D01*
X84753470Y-35759310D01*
X84787502Y-35776823D01*
X84830473Y-35791437D01*
X84837900Y-35804122D01*
X84811620Y-35814341D01*
X84753471Y-35821558D01*
X84665289Y-35825236D01*
X84620530Y-35825596D01*
X84535848Y-35824351D01*
X84466860Y-35820967D01*
X84420950Y-35815969D01*
X84405434Y-35810268D01*
X84420806Y-35793340D01*
X84458571Y-35771673D01*
X84466222Y-35768184D01*
X84527010Y-35741428D01*
X84527010Y-34787525D01*
X84466222Y-34769630D01*
X84425148Y-34751141D01*
X84405679Y-34729791D01*
X84405434Y-34727546D01*
X84414856Y-34716544D01*
X84446284Y-34709211D01*
X84504459Y-34705012D01*
X84594125Y-34703413D01*
X84620530Y-34703358D01*
X84728760Y-34705554D01*
G37*
G36*
X77277735Y-34705410D02*
G01*
X77351488Y-34711614D01*
X77388452Y-34722038D01*
X77388828Y-34736752D01*
X77352811Y-34755826D01*
X77335331Y-34762272D01*
X77292769Y-34786372D01*
X77279287Y-34823262D01*
X77279219Y-34827106D01*
X77285237Y-34853736D01*
X77301777Y-34908500D01*
X77326566Y-34984905D01*
X77357332Y-35076462D01*
X77391803Y-35176679D01*
X77427708Y-35279066D01*
X77462773Y-35377130D01*
X77494728Y-35464383D01*
X77521299Y-35534331D01*
X77540216Y-35580485D01*
X77548340Y-35595944D01*
X77556786Y-35582425D01*
X77574073Y-35539228D01*
X77598215Y-35472484D01*
X77627222Y-35388320D01*
X77659107Y-35292866D01*
X77691880Y-35192250D01*
X77723555Y-35092602D01*
X77752142Y-35000050D01*
X77775653Y-34920723D01*
X77792101Y-34860751D01*
X77799496Y-34826261D01*
X77799596Y-34821431D01*
X77779150Y-34789646D01*
X77741914Y-34763267D01*
X77700685Y-34739094D01*
X77693305Y-34721820D01*
X77720588Y-34711086D01*
X77783344Y-34706535D01*
X77868490Y-34707356D01*
X77959550Y-34712633D01*
X78018863Y-34721608D01*
X78045035Y-34733616D01*
X78036672Y-34747991D01*
X77992380Y-34764067D01*
X77989052Y-34764941D01*
X77967301Y-34771870D01*
X77948409Y-34783068D01*
X77930378Y-34802686D01*
X77911208Y-34834878D01*
X77888901Y-34883796D01*
X77861456Y-34953592D01*
X77826875Y-35048420D01*
X77783158Y-35172432D01*
X77757566Y-35245773D01*
X77702309Y-35404610D01*
X77658070Y-35531717D01*
X77623299Y-35630594D01*
X77596445Y-35704744D01*
X77575957Y-35757669D01*
X77560283Y-35792871D01*
X77547874Y-35813852D01*
X77537177Y-35824113D01*
X77526643Y-35827157D01*
X77514720Y-35826486D01*
X77500779Y-35825596D01*
X77456012Y-35816185D01*
X77430047Y-35781075D01*
X77427312Y-35774160D01*
X77415414Y-35742476D01*
X77392465Y-35681365D01*
X77360565Y-35596418D01*
X77321814Y-35493229D01*
X77278314Y-35377390D01*
X77249960Y-35301885D01*
X77194855Y-35155406D01*
X77150939Y-35039966D01*
X77116306Y-34951561D01*
X77089049Y-34886190D01*
X77067262Y-34839850D01*
X77049038Y-34808539D01*
X77032470Y-34788254D01*
X77015651Y-34774993D01*
X76996675Y-34764754D01*
X76993304Y-34763125D01*
X76955257Y-34741171D01*
X76946325Y-34724880D01*
X76968339Y-34713621D01*
X77023130Y-34706766D01*
X77112530Y-34703683D01*
X77166995Y-34703358D01*
X77277735Y-34705410D01*
G37*
G36*
X83484841Y-31821191D02*
G01*
X83615660Y-31661691D01*
X83770157Y-31526845D01*
X83944734Y-31420938D01*
X83970707Y-31408602D01*
X84123785Y-31350080D01*
X84282193Y-31314774D01*
X84458154Y-31300208D01*
X84509052Y-31299510D01*
X84711367Y-31312367D01*
X84887923Y-31351917D01*
X85039690Y-31418682D01*
X85167635Y-31513182D01*
X85272729Y-31635939D01*
X85335660Y-31743867D01*
X85364815Y-31803924D01*
X85384558Y-31851220D01*
X85396722Y-31895586D01*
X85403143Y-31946850D01*
X85405656Y-32014840D01*
X85406096Y-32109386D01*
X85406097Y-32121157D01*
X85406097Y-32356009D01*
X84634558Y-32360892D01*
X83863019Y-32365776D01*
X83863344Y-32463764D01*
X83877663Y-32622822D01*
X83917162Y-32781062D01*
X83978206Y-32928909D01*
X84057163Y-33056790D01*
X84112911Y-33121244D01*
X84225536Y-33210143D01*
X84361751Y-33278782D01*
X84510866Y-33321873D01*
X84523088Y-33324069D01*
X84662030Y-33332731D01*
X84806479Y-33315126D01*
X84946933Y-33274224D01*
X85073891Y-33212996D01*
X85177854Y-33134411D01*
X85198741Y-33112841D01*
X85238659Y-33071360D01*
X85269200Y-33044496D01*
X85279796Y-33038797D01*
X85302368Y-33049539D01*
X85339985Y-33075909D01*
X85348136Y-33082310D01*
X85402400Y-33125730D01*
X85338881Y-33245876D01*
X85247113Y-33385886D01*
X85129503Y-33513178D01*
X84993531Y-33621924D01*
X84846677Y-33706295D01*
X84696422Y-33760464D01*
X84671045Y-33766256D01*
X84549141Y-33782018D01*
X84408429Y-33785100D01*
X84265111Y-33776002D01*
X84135390Y-33755220D01*
X84109943Y-33749040D01*
X83919566Y-33680649D01*
X83749181Y-33581352D01*
X83600671Y-33452979D01*
X83475919Y-33297358D01*
X83376811Y-33116317D01*
X83328588Y-32990647D01*
X83305794Y-32917748D01*
X83290373Y-32856301D01*
X83280936Y-32795549D01*
X83276093Y-32724733D01*
X83274455Y-32633096D01*
X83274415Y-32571104D01*
X83276882Y-32437039D01*
X83284121Y-32331559D01*
X83296922Y-32246053D01*
X83308619Y-32197025D01*
X83336366Y-32122209D01*
X83866995Y-32122209D01*
X84814630Y-32122209D01*
X84827407Y-32037001D01*
X84834638Y-31894121D01*
X84811867Y-31768219D01*
X84760067Y-31662169D01*
X84680211Y-31578846D01*
X84669806Y-31571227D01*
X84621177Y-31540414D01*
X84576410Y-31523880D01*
X84520303Y-31517598D01*
X84465728Y-31517147D01*
X84323164Y-31535967D01*
X84195046Y-31587972D01*
X84083850Y-31670905D01*
X83992046Y-31782510D01*
X83922110Y-31920532D01*
X83883659Y-32048044D01*
X83866995Y-32122209D01*
X83336366Y-32122209D01*
X83381295Y-32001064D01*
X83484841Y-31821191D01*
G37*
G36*
X74045201Y-35016649D02*
G01*
X74108930Y-35120377D01*
X74170215Y-35219376D01*
X74224786Y-35306802D01*
X74268371Y-35375813D01*
X74296301Y-35418968D01*
X74355684Y-35507995D01*
X74366636Y-35185168D01*
X74370272Y-35050279D01*
X74370232Y-34947953D01*
X74365639Y-34873451D01*
X74355617Y-34822034D01*
X74339290Y-34788963D01*
X74315781Y-34769498D01*
X74287970Y-34759745D01*
X74250295Y-34743245D01*
X74234975Y-34726222D01*
X74241734Y-34714973D01*
X74273872Y-34707806D01*
X74335694Y-34704147D01*
X74406600Y-34703358D01*
X74495124Y-34704744D01*
X74551190Y-34709340D01*
X74579664Y-34717802D01*
X74585847Y-34727546D01*
X74569771Y-34748622D01*
X74530521Y-34767924D01*
X74525059Y-34769630D01*
X74464271Y-34787525D01*
X74459297Y-35307724D01*
X74454323Y-35827922D01*
X74395613Y-35822083D01*
X74377136Y-35818477D01*
X74358539Y-35809180D01*
X74337179Y-35790715D01*
X74310412Y-35759606D01*
X74275593Y-35712377D01*
X74230079Y-35645551D01*
X74171225Y-35555651D01*
X74096388Y-35439202D01*
X74054325Y-35373345D01*
X73980510Y-35257920D01*
X73912910Y-35152727D01*
X73854225Y-35061924D01*
X73807150Y-34989668D01*
X73774385Y-34940117D01*
X73758627Y-34917427D01*
X73757957Y-34916656D01*
X73754018Y-34930418D01*
X73750517Y-34976549D01*
X73747625Y-35050012D01*
X73745511Y-35145768D01*
X73744344Y-35258780D01*
X73744168Y-35326073D01*
X73744168Y-35749279D01*
X73818371Y-35771511D01*
X73861832Y-35788533D01*
X73882774Y-35804855D01*
X73882731Y-35809669D01*
X73861315Y-35816776D01*
X73813677Y-35821751D01*
X73749590Y-35824579D01*
X73678830Y-35825243D01*
X73611169Y-35823727D01*
X73556382Y-35820015D01*
X73524243Y-35814092D01*
X73519720Y-35810268D01*
X73535092Y-35793340D01*
X73572857Y-35771673D01*
X73580508Y-35768184D01*
X73641296Y-35741428D01*
X73641296Y-34787525D01*
X73580508Y-34769630D01*
X73539433Y-34751141D01*
X73519965Y-34729791D01*
X73519720Y-34727546D01*
X73530386Y-34715206D01*
X73565628Y-34707566D01*
X73630318Y-34703921D01*
X73686602Y-34703358D01*
X73853484Y-34703358D01*
X74045201Y-35016649D01*
G37*
G36*
X86258120Y-30151948D02*
G01*
X86353063Y-30182062D01*
X86437653Y-30236812D01*
X86506423Y-30313458D01*
X86553904Y-30409263D01*
X86574627Y-30521488D01*
X86575095Y-30541867D01*
X86558192Y-30650436D01*
X86511413Y-30744423D01*
X86440656Y-30820187D01*
X86351819Y-30874084D01*
X86250798Y-30902473D01*
X86143492Y-30901710D01*
X86042032Y-30871099D01*
X85946906Y-30808821D01*
X85878818Y-30726284D01*
X85838534Y-30629855D01*
X85826818Y-30525904D01*
X85844435Y-30420799D01*
X85892149Y-30320907D01*
X85965869Y-30236799D01*
X86059054Y-30176578D01*
X86158294Y-30149207D01*
X86258120Y-30151948D01*
G37*
G36*
X86687319Y-34845196D02*
G01*
X86685406Y-34922176D01*
X86679229Y-34965820D01*
X86668135Y-34980023D01*
X86664799Y-34979528D01*
X86644839Y-34957759D01*
X86627639Y-34915491D01*
X86627161Y-34913682D01*
X86591384Y-34844084D01*
X86529090Y-34797786D01*
X86445632Y-34778506D01*
X86431983Y-34778174D01*
X86350027Y-34778174D01*
X86355013Y-35267493D01*
X86360000Y-35756812D01*
X86421883Y-35777639D01*
X86459041Y-35794591D01*
X86471536Y-35809764D01*
X86470202Y-35812031D01*
X86446949Y-35818012D01*
X86396914Y-35822197D01*
X86329010Y-35824622D01*
X86252149Y-35825323D01*
X86175245Y-35824337D01*
X86107211Y-35821698D01*
X86056959Y-35817444D01*
X86033403Y-35811609D01*
X86032680Y-35810268D01*
X86048052Y-35793340D01*
X86085817Y-35771673D01*
X86093468Y-35768184D01*
X86154256Y-35741428D01*
X86164240Y-34778174D01*
X86070404Y-34778174D01*
X85986360Y-34789664D01*
X85926862Y-34826915D01*
X85885908Y-34894094D01*
X85879725Y-34910595D01*
X85857977Y-34948998D01*
X85832190Y-34965211D01*
X85831916Y-34965213D01*
X85814971Y-34958463D01*
X85809890Y-34932488D01*
X85815005Y-34878706D01*
X85815042Y-34878435D01*
X85822373Y-34815509D01*
X85826559Y-34761271D01*
X85826936Y-34747507D01*
X85826936Y-34703358D01*
X86687319Y-34703358D01*
X86687319Y-34845196D01*
G37*
D13*
G04 #@! TO.C,J8*
X172720000Y-38735000D02*
X162560000Y-38735000D01*
X172720000Y-46355000D02*
X172720000Y-38735000D01*
X172720000Y-45085000D02*
X162560000Y-45085000D01*
X162560000Y-38735000D02*
X162560000Y-46355000D01*
X162560000Y-46355000D02*
X172720000Y-46355000D01*
G04 #@! TO.C,J2*
X200660000Y-46355000D02*
X210820000Y-46355000D01*
X210820000Y-45085000D02*
X200660000Y-45085000D01*
X210820000Y-46355000D02*
X210820000Y-38735000D01*
X200660000Y-38735000D02*
X200660000Y-46355000D01*
X210820000Y-38735000D02*
X200660000Y-38735000D01*
G04 #@! TO.C,J13*
X77470000Y-46355000D02*
X87630000Y-46355000D01*
X77470000Y-38735000D02*
X77470000Y-46355000D01*
X87630000Y-45085000D02*
X77470000Y-45085000D01*
X87630000Y-46355000D02*
X87630000Y-38735000D01*
X87630000Y-38735000D02*
X77470000Y-38735000D01*
G04 #@! TO.C,J3*
X105410000Y-29210000D02*
X95250000Y-29210000D01*
X105410000Y-36830000D02*
X105410000Y-29210000D01*
X95250000Y-36830000D02*
X105410000Y-36830000D01*
X105410000Y-35560000D02*
X95250000Y-35560000D01*
X95250000Y-29210000D02*
X95250000Y-36830000D01*
G04 #@! TO.C,J12*
X187960000Y-38735000D02*
X187960000Y-46355000D01*
X187960000Y-46355000D02*
X198120000Y-46355000D01*
X198120000Y-46355000D02*
X198120000Y-38735000D01*
X198120000Y-38735000D02*
X187960000Y-38735000D01*
X198120000Y-45085000D02*
X187960000Y-45085000D01*
G04 #@! TO.C,J7*
X150495000Y-46355000D02*
X160655000Y-46355000D01*
X160655000Y-45085000D02*
X150495000Y-45085000D01*
X160655000Y-38735000D02*
X150495000Y-38735000D01*
X150495000Y-38735000D02*
X150495000Y-46355000D01*
X160655000Y-46355000D02*
X160655000Y-38735000D01*
G04 #@! TO.C,G\u002A\u002A\u002A*
G36*
X118523850Y-31563018D02*
G01*
X118523801Y-31679513D01*
X118523859Y-31777003D01*
X118524331Y-31857175D01*
X118525524Y-31921715D01*
X118527746Y-31972310D01*
X118531304Y-32010648D01*
X118536505Y-32038414D01*
X118543656Y-32057295D01*
X118553064Y-32068978D01*
X118565037Y-32075149D01*
X118579882Y-32077496D01*
X118597906Y-32077705D01*
X118617553Y-32077459D01*
X118679043Y-32077459D01*
X118679043Y-32274037D01*
X118609206Y-32272903D01*
X118565152Y-32270967D01*
X118522365Y-32267106D01*
X118496188Y-32263232D01*
X118433168Y-32243386D01*
X118382302Y-32209942D01*
X118366619Y-32194777D01*
X118353347Y-32180564D01*
X118342191Y-32166996D01*
X118332967Y-32152225D01*
X118325492Y-32134407D01*
X118319581Y-32111695D01*
X118315051Y-32082243D01*
X118311718Y-32044206D01*
X118309399Y-31995737D01*
X118307910Y-31934990D01*
X118307066Y-31860119D01*
X118306685Y-31769279D01*
X118306583Y-31660623D01*
X118306579Y-31591518D01*
X118306579Y-31094566D01*
X118523850Y-31094566D01*
X118523850Y-31563018D01*
G37*
G36*
X121067013Y-31086987D02*
G01*
X121159497Y-31102230D01*
X121242828Y-31135146D01*
X121315248Y-31184576D01*
X121375000Y-31249359D01*
X121415114Y-31316884D01*
X121431715Y-31356226D01*
X121445045Y-31395657D01*
X121453696Y-31429953D01*
X121456259Y-31453890D01*
X121454068Y-31461348D01*
X121442004Y-31463662D01*
X121413753Y-31465523D01*
X121373818Y-31466711D01*
X121336604Y-31467031D01*
X121224823Y-31467031D01*
X121198023Y-31410382D01*
X121169853Y-31361835D01*
X121136930Y-31329909D01*
X121094477Y-31311506D01*
X121037715Y-31303527D01*
X121032857Y-31303268D01*
X120991631Y-31302321D01*
X120963572Y-31305340D01*
X120941311Y-31313741D01*
X120924422Y-31324134D01*
X120877117Y-31367812D01*
X120847058Y-31422922D01*
X120835933Y-31471016D01*
X120833951Y-31498802D01*
X120832581Y-31542884D01*
X120831880Y-31598872D01*
X120831905Y-31662378D01*
X120832668Y-31726563D01*
X120834031Y-31796311D01*
X120835562Y-31848726D01*
X120837658Y-31887164D01*
X120840717Y-31914982D01*
X120845136Y-31935538D01*
X120851312Y-31952189D01*
X120859642Y-31968291D01*
X120861704Y-31971921D01*
X120895399Y-32017174D01*
X120936815Y-32045803D01*
X120989593Y-32059775D01*
X121028443Y-32061939D01*
X121068481Y-32060660D01*
X121096136Y-32055289D01*
X121119639Y-32043524D01*
X121135862Y-32031916D01*
X121168590Y-31998599D01*
X121194948Y-31956745D01*
X121197134Y-31951977D01*
X121219043Y-31902060D01*
X121339512Y-31901816D01*
X121459980Y-31901573D01*
X121450197Y-31945544D01*
X121420629Y-32034591D01*
X121375210Y-32111567D01*
X121315655Y-32175338D01*
X121243678Y-32224770D01*
X121160995Y-32258728D01*
X121069320Y-32276080D01*
X120970367Y-32275690D01*
X120953706Y-32273872D01*
X120880805Y-32256329D01*
X120807197Y-32223511D01*
X120740358Y-32179146D01*
X120710566Y-32152558D01*
X120676877Y-32115487D01*
X120650041Y-32077089D01*
X120629351Y-32034528D01*
X120614095Y-31984969D01*
X120603564Y-31925577D01*
X120597048Y-31853515D01*
X120593839Y-31765949D01*
X120593174Y-31683454D01*
X120594437Y-31579285D01*
X120598616Y-31492960D01*
X120606441Y-31421751D01*
X120618638Y-31362925D01*
X120635938Y-31313751D01*
X120659066Y-31271500D01*
X120688753Y-31233439D01*
X120722032Y-31200188D01*
X120792157Y-31146275D01*
X120866703Y-31109970D01*
X120948981Y-31090186D01*
X121042303Y-31085837D01*
X121067013Y-31086987D01*
G37*
G36*
X121793259Y-33867357D02*
G01*
X121700143Y-33867357D01*
X121700143Y-33060351D01*
X121793259Y-33060351D01*
X121793259Y-33867357D01*
G37*
G36*
X125367882Y-33862184D02*
G01*
X125323816Y-33865370D01*
X125289885Y-33864427D01*
X125274710Y-33855394D01*
X125274543Y-33854987D01*
X125273437Y-33841877D01*
X125272555Y-33810444D01*
X125271909Y-33763057D01*
X125271516Y-33702084D01*
X125271390Y-33629894D01*
X125271545Y-33548855D01*
X125271997Y-33461337D01*
X125272051Y-33453471D01*
X125274766Y-33065524D01*
X125367882Y-33065524D01*
X125367882Y-33862184D01*
G37*
G36*
X122938958Y-33300247D02*
G01*
X122945214Y-33276559D01*
X122978736Y-33203189D01*
X123026130Y-33141804D01*
X123084814Y-33095572D01*
X123099226Y-33087625D01*
X123134304Y-33071414D01*
X123165721Y-33062272D01*
X123202247Y-33058319D01*
X123239208Y-33057628D01*
X123322761Y-33065970D01*
X123394171Y-33091040D01*
X123453568Y-33132909D01*
X123501080Y-33191643D01*
X123505313Y-33198669D01*
X123527466Y-33247512D01*
X123545731Y-33308548D01*
X123558034Y-33373356D01*
X123562312Y-33430228D01*
X123562465Y-33484546D01*
X123011220Y-33484546D01*
X123017375Y-33538864D01*
X123027792Y-33603345D01*
X123043748Y-33653062D01*
X123067368Y-33693656D01*
X123082711Y-33712291D01*
X123126146Y-33750117D01*
X123176652Y-33773282D01*
X123238140Y-33783139D01*
X123287012Y-33782995D01*
X123329597Y-33779836D01*
X123360234Y-33773621D01*
X123387666Y-33761443D01*
X123420638Y-33740395D01*
X123425775Y-33736864D01*
X123486947Y-33694652D01*
X123554221Y-33749558D01*
X123514844Y-33784132D01*
X123449885Y-33828187D01*
X123373768Y-33858300D01*
X123291601Y-33873326D01*
X123208491Y-33872114D01*
X123161793Y-33863501D01*
X123088262Y-33834760D01*
X123026773Y-33789411D01*
X122978138Y-33728231D01*
X122944913Y-33657098D01*
X122934595Y-33612905D01*
X122928013Y-33554463D01*
X122925163Y-33487873D01*
X122926041Y-33419239D01*
X122929386Y-33372281D01*
X123014053Y-33372281D01*
X123014345Y-33388678D01*
X123021600Y-33399887D01*
X123038106Y-33406880D01*
X123066151Y-33410629D01*
X123108023Y-33412105D01*
X123166010Y-33412279D01*
X123242088Y-33412122D01*
X123470061Y-33412122D01*
X123463097Y-33357805D01*
X123445640Y-33284343D01*
X123414406Y-33225524D01*
X123370125Y-33182106D01*
X123313526Y-33154841D01*
X123257470Y-33145006D01*
X123187482Y-33149503D01*
X123127445Y-33171683D01*
X123078937Y-33210355D01*
X123043535Y-33264331D01*
X123025206Y-33320040D01*
X123018436Y-33349725D01*
X123014053Y-33372281D01*
X122929386Y-33372281D01*
X122930641Y-33354663D01*
X122938958Y-33300247D01*
G37*
G36*
X122651996Y-31563018D02*
G01*
X122651947Y-31679513D01*
X122652005Y-31777003D01*
X122652477Y-31857175D01*
X122653671Y-31921715D01*
X122655893Y-31972310D01*
X122659451Y-32010648D01*
X122664651Y-32038414D01*
X122671802Y-32057295D01*
X122681211Y-32068978D01*
X122693184Y-32075149D01*
X122708028Y-32077496D01*
X122726052Y-32077705D01*
X122745699Y-32077459D01*
X122807190Y-32077459D01*
X122807190Y-32274037D01*
X122737353Y-32272903D01*
X122693298Y-32270967D01*
X122650511Y-32267106D01*
X122624335Y-32263232D01*
X122561315Y-32243386D01*
X122510448Y-32209942D01*
X122494765Y-32194777D01*
X122481493Y-32180564D01*
X122470337Y-32166996D01*
X122461114Y-32152225D01*
X122453638Y-32134407D01*
X122447727Y-32111695D01*
X122443198Y-32082243D01*
X122439865Y-32044206D01*
X122437546Y-31995737D01*
X122436056Y-31934990D01*
X122435213Y-31860119D01*
X122434832Y-31769279D01*
X122434730Y-31660623D01*
X122434726Y-31591518D01*
X122434726Y-31094566D01*
X122651996Y-31094566D01*
X122651996Y-31563018D01*
G37*
G36*
X119790347Y-31404424D02*
G01*
X119857568Y-31428997D01*
X119916915Y-31469396D01*
X119965273Y-31524688D01*
X119984740Y-31558404D01*
X119991304Y-31572388D01*
X119996565Y-31586427D01*
X120000693Y-31602941D01*
X120003860Y-31624349D01*
X120006237Y-31653070D01*
X120007995Y-31691523D01*
X120009305Y-31742128D01*
X120010338Y-31807304D01*
X120011265Y-31889471D01*
X120011772Y-31940728D01*
X120015009Y-32274750D01*
X119791263Y-32268864D01*
X119786090Y-31973996D01*
X119784087Y-31877573D01*
X119781762Y-31800412D01*
X119779031Y-31741082D01*
X119775812Y-31698154D01*
X119772022Y-31670198D01*
X119767677Y-31655957D01*
X119740466Y-31627425D01*
X119701047Y-31608893D01*
X119655879Y-31601428D01*
X119611420Y-31606096D01*
X119574134Y-31623961D01*
X119558152Y-31637682D01*
X119545459Y-31652544D01*
X119535678Y-31670991D01*
X119528432Y-31695462D01*
X119523347Y-31728400D01*
X119520046Y-31772246D01*
X119518154Y-31829441D01*
X119517293Y-31902427D01*
X119517088Y-31993644D01*
X119517088Y-32274037D01*
X119410177Y-32274037D01*
X119365043Y-32273407D01*
X119327907Y-32271707D01*
X119303455Y-32269221D01*
X119296368Y-32267139D01*
X119294885Y-32255634D01*
X119293511Y-32225637D01*
X119292282Y-32179350D01*
X119291231Y-32118974D01*
X119290395Y-32046710D01*
X119289808Y-31964758D01*
X119289505Y-31875321D01*
X119289471Y-31832598D01*
X119289471Y-31404953D01*
X119517088Y-31404953D01*
X119517088Y-31465041D01*
X119572577Y-31434986D01*
X119644737Y-31406486D01*
X119718365Y-31396609D01*
X119790347Y-31404424D01*
G37*
G36*
X123169308Y-31563018D02*
G01*
X123169259Y-31679513D01*
X123169317Y-31777003D01*
X123169789Y-31857175D01*
X123170982Y-31921715D01*
X123173204Y-31972310D01*
X123176762Y-32010648D01*
X123181963Y-32038414D01*
X123189114Y-32057295D01*
X123198522Y-32068978D01*
X123210495Y-32075149D01*
X123225340Y-32077496D01*
X123243364Y-32077705D01*
X123263011Y-32077459D01*
X123324502Y-32077459D01*
X123324502Y-32274037D01*
X123254664Y-32272903D01*
X123210610Y-32270967D01*
X123167823Y-32267106D01*
X123141646Y-32263232D01*
X123078627Y-32243386D01*
X123027760Y-32209942D01*
X123012077Y-32194777D01*
X122998805Y-32180564D01*
X122987649Y-32166996D01*
X122978425Y-32152225D01*
X122970950Y-32134407D01*
X122965039Y-32111695D01*
X122960509Y-32082243D01*
X122957176Y-32044206D01*
X122954857Y-31995737D01*
X122953368Y-31934990D01*
X122952525Y-31860119D01*
X122952144Y-31769279D01*
X122952041Y-31660623D01*
X122952037Y-31591518D01*
X122952037Y-31094566D01*
X123169308Y-31094566D01*
X123169308Y-31563018D01*
G37*
G36*
X126053646Y-33065212D02*
G01*
X126121511Y-33088391D01*
X126178578Y-33127942D01*
X126199770Y-33149631D01*
X126218373Y-33172098D01*
X126233270Y-33194415D01*
X126244869Y-33219137D01*
X126253577Y-33248817D01*
X126259801Y-33286008D01*
X126263949Y-33333265D01*
X126266426Y-33393140D01*
X126267640Y-33468187D01*
X126267999Y-33560960D01*
X126268005Y-33577662D01*
X126268005Y-33862184D01*
X126225006Y-33865317D01*
X126182008Y-33868451D01*
X126178058Y-33580796D01*
X126176625Y-33488917D01*
X126174836Y-33415218D01*
X126172258Y-33357185D01*
X126168461Y-33312306D01*
X126163014Y-33278067D01*
X126155484Y-33251956D01*
X126145442Y-33231459D01*
X126132456Y-33214065D01*
X126116094Y-33197259D01*
X126111499Y-33192923D01*
X126075949Y-33165968D01*
X126036205Y-33150259D01*
X125985821Y-33143675D01*
X125960211Y-33143120D01*
X125892318Y-33150314D01*
X125838012Y-33172408D01*
X125795765Y-33210177D01*
X125778999Y-33234644D01*
X125750693Y-33282795D01*
X125747515Y-33575076D01*
X125744338Y-33867357D01*
X125652404Y-33867357D01*
X125652404Y-33060351D01*
X125745520Y-33060351D01*
X125745520Y-33144174D01*
X125779702Y-33118101D01*
X125833046Y-33084696D01*
X125889735Y-33065349D01*
X125956586Y-33057934D01*
X125973228Y-33057693D01*
X126053646Y-33065212D01*
G37*
G36*
X124987621Y-33058531D02*
G01*
X125048014Y-33070913D01*
X125099634Y-33095662D01*
X125127208Y-33119418D01*
X125137161Y-33132485D01*
X125136791Y-33143762D01*
X125124199Y-33159395D01*
X125110738Y-33172694D01*
X125089050Y-33192348D01*
X125075982Y-33198671D01*
X125066120Y-33193540D01*
X125062471Y-33189441D01*
X125026249Y-33161611D01*
X124975067Y-33146159D01*
X124933442Y-33143120D01*
X124869750Y-33151376D01*
X124815800Y-33175152D01*
X124774877Y-33212958D01*
X124772607Y-33216059D01*
X124757761Y-33238982D01*
X124746036Y-33263138D01*
X124737075Y-33291227D01*
X124730523Y-33325953D01*
X124726021Y-33370016D01*
X124723213Y-33426120D01*
X124721743Y-33496967D01*
X124721254Y-33585258D01*
X124721243Y-33605172D01*
X124721243Y-33867357D01*
X124628127Y-33867357D01*
X124628127Y-33060351D01*
X124721243Y-33060351D01*
X124721243Y-33157338D01*
X124749695Y-33130091D01*
X124799491Y-33094296D01*
X124858790Y-33070352D01*
X124923023Y-33058387D01*
X124987621Y-33058531D01*
G37*
G36*
X117266220Y-33308637D02*
G01*
X117290517Y-33231635D01*
X117327468Y-33168709D01*
X117377572Y-33118742D01*
X117441331Y-33080617D01*
X117446712Y-33078188D01*
X117502566Y-33062158D01*
X117568060Y-33056785D01*
X117635155Y-33061977D01*
X117695808Y-33077645D01*
X117704306Y-33081087D01*
X117761191Y-33115543D01*
X117812105Y-33165195D01*
X117852009Y-33224565D01*
X117866864Y-33257808D01*
X117877412Y-33300101D01*
X117884640Y-33357125D01*
X117888523Y-33423180D01*
X117889036Y-33492570D01*
X117886151Y-33559595D01*
X117879844Y-33618558D01*
X117870088Y-33663760D01*
X117868721Y-33667884D01*
X117840461Y-33724533D01*
X117798679Y-33777759D01*
X117748952Y-33821433D01*
X117707198Y-33845376D01*
X117651316Y-33862903D01*
X117588976Y-33872176D01*
X117529325Y-33872253D01*
X117496826Y-33867051D01*
X117422798Y-33839229D01*
X117361764Y-33795786D01*
X117312675Y-33735828D01*
X117286605Y-33687417D01*
X117273496Y-33655603D01*
X117264624Y-33624392D01*
X117258860Y-33587692D01*
X117255072Y-33539410D01*
X117253581Y-33509347D01*
X117253813Y-33458387D01*
X117349552Y-33458387D01*
X117350819Y-33534737D01*
X117354557Y-33593452D01*
X117360671Y-33633287D01*
X117363374Y-33642589D01*
X117393860Y-33700373D01*
X117437719Y-33744716D01*
X117491567Y-33774318D01*
X117552022Y-33787881D01*
X117615701Y-33784103D01*
X117676744Y-33762949D01*
X117721900Y-33732971D01*
X117755882Y-33692943D01*
X117779435Y-33640862D01*
X117793306Y-33574727D01*
X117798241Y-33492534D01*
X117797387Y-33438986D01*
X117793311Y-33368324D01*
X117786810Y-33315825D01*
X117777558Y-33279065D01*
X117774949Y-33272448D01*
X117740488Y-33215213D01*
X117693814Y-33174579D01*
X117635473Y-33150858D01*
X117566012Y-33144363D01*
X117551607Y-33145102D01*
X117486328Y-33158829D01*
X117432426Y-33189828D01*
X117389689Y-33238237D01*
X117375983Y-33261904D01*
X117365394Y-33283854D01*
X117358079Y-33304400D01*
X117353437Y-33328005D01*
X117350869Y-33359132D01*
X117349775Y-33402245D01*
X117349552Y-33458387D01*
X117253813Y-33458387D01*
X117254074Y-33400836D01*
X117266220Y-33308637D01*
G37*
G36*
X120793024Y-33417233D02*
G01*
X120805728Y-33315530D01*
X120829533Y-33231149D01*
X120864710Y-33163777D01*
X120911529Y-33113103D01*
X120970263Y-33078816D01*
X121041182Y-33060605D01*
X121106497Y-33057391D01*
X121182254Y-33067614D01*
X121248978Y-33095180D01*
X121282523Y-33117623D01*
X121316078Y-33143216D01*
X121319292Y-33104370D01*
X121322565Y-33079983D01*
X121331131Y-33068220D01*
X121351177Y-33063612D01*
X121366870Y-33062323D01*
X121411234Y-33059122D01*
X121408255Y-33538250D01*
X121405275Y-34017377D01*
X121380591Y-34071999D01*
X121345338Y-34128857D01*
X121296264Y-34179169D01*
X121239320Y-34217540D01*
X121203318Y-34232759D01*
X121147164Y-34244661D01*
X121082323Y-34248891D01*
X121018341Y-34245344D01*
X120968915Y-34235274D01*
X120918646Y-34214891D01*
X120872264Y-34187886D01*
X120838218Y-34159245D01*
X120828303Y-34145853D01*
X120829742Y-34134258D01*
X120844348Y-34117649D01*
X120851013Y-34111202D01*
X120881153Y-34082325D01*
X120918163Y-34110554D01*
X120982356Y-34147148D01*
X121052534Y-34165078D01*
X121124931Y-34163740D01*
X121173476Y-34151528D01*
X121223674Y-34127833D01*
X121261461Y-34095202D01*
X121288225Y-34051128D01*
X121305353Y-33993105D01*
X121314231Y-33918626D01*
X121315409Y-33894982D01*
X121319678Y-33782933D01*
X121272179Y-33819190D01*
X121212248Y-33853155D01*
X121144997Y-33871616D01*
X121074840Y-33874912D01*
X121006188Y-33863381D01*
X120943456Y-33837361D01*
X120891057Y-33797191D01*
X120883884Y-33789425D01*
X120841456Y-33725959D01*
X120811664Y-33647309D01*
X120794868Y-33554948D01*
X120793769Y-33521539D01*
X120885842Y-33521539D01*
X120897234Y-33605968D01*
X120920361Y-33675161D01*
X120954709Y-33728518D01*
X120999762Y-33765442D01*
X121055007Y-33785337D01*
X121119929Y-33787604D01*
X121188885Y-33773262D01*
X121229345Y-33750904D01*
X121265688Y-33712020D01*
X121291900Y-33665605D01*
X121301710Y-33631038D01*
X121309202Y-33581485D01*
X121314137Y-33522548D01*
X121316276Y-33459828D01*
X121315379Y-33398929D01*
X121311209Y-33345451D01*
X121306748Y-33317883D01*
X121284477Y-33249721D01*
X121250134Y-33198357D01*
X121203671Y-33163750D01*
X121145038Y-33145857D01*
X121105925Y-33143120D01*
X121042413Y-33149262D01*
X120991067Y-33168490D01*
X120950940Y-33202009D01*
X120921088Y-33251026D01*
X120900563Y-33316746D01*
X120888421Y-33400374D01*
X120886701Y-33422469D01*
X120885842Y-33521539D01*
X120793769Y-33521539D01*
X120791427Y-33450348D01*
X120793024Y-33417233D01*
G37*
G36*
X121569188Y-31738394D02*
G01*
X121571719Y-31696936D01*
X121575774Y-31666022D01*
X121582281Y-31640578D01*
X121592166Y-31615531D01*
X121605117Y-31588325D01*
X121648632Y-31518417D01*
X121702899Y-31465220D01*
X121769733Y-31427413D01*
X121850951Y-31403677D01*
X121861970Y-31401674D01*
X121946558Y-31396324D01*
X122028048Y-31408451D01*
X122103407Y-31436572D01*
X122169600Y-31479206D01*
X122223595Y-31534872D01*
X122259714Y-31595926D01*
X122275051Y-31644813D01*
X122285879Y-31708422D01*
X122292094Y-31781256D01*
X122293597Y-31857819D01*
X122290287Y-31932616D01*
X122282062Y-32000150D01*
X122268821Y-32054925D01*
X122268188Y-32056766D01*
X122233175Y-32127359D01*
X122182861Y-32185961D01*
X122119632Y-32231325D01*
X122045872Y-32262205D01*
X121963966Y-32277354D01*
X121876299Y-32275526D01*
X121855460Y-32272554D01*
X121774573Y-32249936D01*
X121704672Y-32210236D01*
X121670124Y-32180711D01*
X121632629Y-32138240D01*
X121604372Y-32091048D01*
X121584533Y-32036061D01*
X121572290Y-31970202D01*
X121566823Y-31890398D01*
X121567030Y-31844668D01*
X121788737Y-31844668D01*
X121791033Y-31914314D01*
X121797927Y-31966970D01*
X121810520Y-32006041D01*
X121829909Y-32034932D01*
X121857193Y-32057048D01*
X121857301Y-32057115D01*
X121895464Y-32071672D01*
X121939692Y-32074909D01*
X121981776Y-32067176D01*
X122011694Y-32050539D01*
X122033710Y-32027711D01*
X122049169Y-32002914D01*
X122059160Y-31972019D01*
X122064772Y-31930900D01*
X122067094Y-31875429D01*
X122067363Y-31839495D01*
X122065620Y-31766797D01*
X122059700Y-31711587D01*
X122048705Y-31670921D01*
X122031736Y-31641857D01*
X122007894Y-31621451D01*
X121999302Y-31616595D01*
X121954289Y-31602700D01*
X121906244Y-31602919D01*
X121862998Y-31616681D01*
X121846475Y-31627736D01*
X121822595Y-31652951D01*
X121805858Y-31684289D01*
X121795292Y-31725403D01*
X121789923Y-31779947D01*
X121788737Y-31844668D01*
X121567030Y-31844668D01*
X121567253Y-31795469D01*
X121569188Y-31738394D01*
G37*
G36*
X113359625Y-30901997D02*
G01*
X113365860Y-30902167D01*
X113436786Y-30904363D01*
X113501935Y-30906812D01*
X113558083Y-30909360D01*
X113602005Y-30911849D01*
X113630475Y-30914125D01*
X113638981Y-30915367D01*
X113646553Y-30919393D01*
X113641654Y-30925604D01*
X113622254Y-30935085D01*
X113586324Y-30948921D01*
X113556003Y-30959760D01*
X113405029Y-31021003D01*
X113247229Y-31100701D01*
X113083704Y-31198195D01*
X112915552Y-31312825D01*
X112743874Y-31443931D01*
X112729960Y-31455161D01*
X112676761Y-31500492D01*
X112613015Y-31558424D01*
X112541729Y-31625924D01*
X112465910Y-31699957D01*
X112388567Y-31777491D01*
X112312705Y-31855491D01*
X112241334Y-31930925D01*
X112177459Y-32000758D01*
X112124090Y-32061957D01*
X112102741Y-32087805D01*
X111957258Y-32276969D01*
X111827384Y-32463934D01*
X111713609Y-32647749D01*
X111616422Y-32827465D01*
X111536312Y-33002132D01*
X111473767Y-33170799D01*
X111429278Y-33332516D01*
X111410372Y-33432815D01*
X111397952Y-33558109D01*
X111400554Y-33671125D01*
X111418066Y-33771283D01*
X111450378Y-33858000D01*
X111497381Y-33930698D01*
X111507092Y-33941917D01*
X111542551Y-33981165D01*
X111502549Y-33980404D01*
X111478352Y-33977911D01*
X111438728Y-33971565D01*
X111388398Y-33962215D01*
X111332086Y-33950708D01*
X111307353Y-33945340D01*
X111071896Y-33887565D01*
X110851934Y-33821884D01*
X110647885Y-33748579D01*
X110460168Y-33667937D01*
X110289201Y-33580241D01*
X110135405Y-33485777D01*
X109999197Y-33384829D01*
X109880997Y-33277681D01*
X109781223Y-33164619D01*
X109700295Y-33045928D01*
X109638632Y-32921890D01*
X109596651Y-32792792D01*
X109593868Y-32781002D01*
X109586813Y-32732736D01*
X109583554Y-32671417D01*
X109583957Y-32604308D01*
X109587885Y-32538672D01*
X109595206Y-32481771D01*
X109599828Y-32459917D01*
X109635541Y-32344793D01*
X109683677Y-32236475D01*
X109745993Y-32132142D01*
X109824242Y-32028970D01*
X109920181Y-31924139D01*
X109953734Y-31890915D01*
X110053946Y-31798937D01*
X110157287Y-31715100D01*
X110267577Y-31636781D01*
X110388638Y-31561357D01*
X110524292Y-31486204D01*
X110600238Y-31447180D01*
X110828325Y-31341939D01*
X111072577Y-31246880D01*
X111330919Y-31162411D01*
X111601278Y-31088941D01*
X111881580Y-31026880D01*
X112169750Y-30976635D01*
X112463713Y-30938615D01*
X112761396Y-30913230D01*
X113060725Y-30900888D01*
X113359625Y-30901997D01*
G37*
G36*
X119061854Y-32274037D02*
G01*
X118844583Y-32274037D01*
X118844583Y-31404953D01*
X119061854Y-31404953D01*
X119061854Y-32274037D01*
G37*
G36*
X119072200Y-31270452D02*
G01*
X118844583Y-31270452D01*
X118844583Y-31084220D01*
X119072200Y-31084220D01*
X119072200Y-31270452D01*
G37*
G36*
X114253726Y-30986129D02*
G01*
X114281907Y-30990265D01*
X114323386Y-30997595D01*
X114374721Y-31007426D01*
X114432473Y-31019066D01*
X114493200Y-31031821D01*
X114553461Y-31044998D01*
X114609817Y-31057906D01*
X114657279Y-31069457D01*
X114862285Y-31127353D01*
X115058619Y-31194682D01*
X115244290Y-31270495D01*
X115417308Y-31353846D01*
X115575680Y-31443787D01*
X115717415Y-31539369D01*
X115823527Y-31624521D01*
X115934217Y-31731423D01*
X116025006Y-31841111D01*
X116096613Y-31954680D01*
X116149762Y-32073226D01*
X116176502Y-32160277D01*
X116191614Y-32248973D01*
X116195838Y-32346552D01*
X116189462Y-32445243D01*
X116172772Y-32537277D01*
X116161116Y-32577003D01*
X116106427Y-32709907D01*
X116033942Y-32837280D01*
X116009057Y-32874118D01*
X115972451Y-32921357D01*
X115923386Y-32977360D01*
X115865774Y-33038237D01*
X115803525Y-33100097D01*
X115740551Y-33159048D01*
X115680764Y-33211199D01*
X115629865Y-33251352D01*
X115446953Y-33374404D01*
X115246456Y-33488751D01*
X115029725Y-33594033D01*
X114798112Y-33689889D01*
X114552967Y-33775959D01*
X114295641Y-33851882D01*
X114027486Y-33917297D01*
X113749853Y-33971844D01*
X113464093Y-34015161D01*
X113171556Y-34046888D01*
X112873594Y-34066664D01*
X112571558Y-34074128D01*
X112548039Y-34074182D01*
X112495337Y-34073910D01*
X112450459Y-34073095D01*
X112417251Y-34071852D01*
X112399560Y-34070296D01*
X112397754Y-34069706D01*
X112386192Y-34067731D01*
X112358268Y-34065833D01*
X112318314Y-34064241D01*
X112275900Y-34063264D01*
X112212332Y-34061882D01*
X112168631Y-34059665D01*
X112143974Y-34055986D01*
X112137538Y-34050216D01*
X112148500Y-34041728D01*
X112176035Y-34029894D01*
X112213916Y-34016001D01*
X112359636Y-33956622D01*
X112512682Y-33879774D01*
X112671250Y-33786562D01*
X112833541Y-33678090D01*
X112997753Y-33555461D01*
X113097251Y-33474881D01*
X113153879Y-33425426D01*
X113220524Y-33363566D01*
X113293841Y-33292699D01*
X113370488Y-33216221D01*
X113447121Y-33137530D01*
X113520397Y-33060023D01*
X113586972Y-32987098D01*
X113643504Y-32922150D01*
X113656112Y-32907029D01*
X113799772Y-32724193D01*
X113929380Y-32541432D01*
X114044199Y-32360108D01*
X114143492Y-32181580D01*
X114226524Y-32007209D01*
X114292558Y-31838356D01*
X114340858Y-31676380D01*
X114354381Y-31617051D01*
X114375180Y-31485804D01*
X114380967Y-31365744D01*
X114371847Y-31257625D01*
X114347928Y-31162201D01*
X114309313Y-31080224D01*
X114271851Y-31029241D01*
X114253190Y-31006240D01*
X114242937Y-30990095D01*
X114242284Y-30985881D01*
X114253726Y-30986129D01*
G37*
G36*
X122457874Y-33061631D02*
G01*
X122520233Y-33078152D01*
X122574440Y-33108479D01*
X122599657Y-33129019D01*
X122623109Y-33150728D01*
X122641986Y-33170926D01*
X122656814Y-33192113D01*
X122668120Y-33216794D01*
X122676431Y-33247470D01*
X122682273Y-33286645D01*
X122686171Y-33336820D01*
X122688654Y-33400499D01*
X122690248Y-33480185D01*
X122691323Y-33564729D01*
X122694783Y-33867357D01*
X122601464Y-33867357D01*
X122598278Y-33579932D01*
X122597295Y-33495275D01*
X122596287Y-33428635D01*
X122595024Y-33377339D01*
X122593272Y-33338711D01*
X122590800Y-33310077D01*
X122587377Y-33288764D01*
X122582771Y-33272096D01*
X122576749Y-33257400D01*
X122569081Y-33242002D01*
X122568973Y-33241792D01*
X122534989Y-33194036D01*
X122489774Y-33162387D01*
X122431763Y-33145996D01*
X122387214Y-33143120D01*
X122331672Y-33146141D01*
X122289404Y-33156768D01*
X122253669Y-33177345D01*
X122230104Y-33197791D01*
X122212184Y-33216977D01*
X122197885Y-33237873D01*
X122186810Y-33262967D01*
X122178560Y-33294747D01*
X122172737Y-33335702D01*
X122168945Y-33388320D01*
X122166783Y-33455089D01*
X122165854Y-33538497D01*
X122165724Y-33600233D01*
X122165724Y-33867357D01*
X122072607Y-33867357D01*
X122072607Y-33060351D01*
X122165724Y-33060351D01*
X122165724Y-33145576D01*
X122201939Y-33117953D01*
X122259454Y-33082457D01*
X122320551Y-33063043D01*
X122382564Y-33057333D01*
X122457874Y-33061631D01*
G37*
G36*
X123423228Y-31679106D02*
G01*
X123423329Y-31678716D01*
X123454959Y-31593410D01*
X123501533Y-31521337D01*
X123562066Y-31463735D01*
X123623647Y-31427126D01*
X123656997Y-31413302D01*
X123688598Y-31405080D01*
X123726004Y-31401104D01*
X123774563Y-31400021D01*
X123852945Y-31404082D01*
X123917314Y-31417835D01*
X123972733Y-31442962D01*
X124024266Y-31481143D01*
X124027421Y-31483954D01*
X124083042Y-31547780D01*
X124123684Y-31625468D01*
X124148945Y-31716191D01*
X124152941Y-31741786D01*
X124157898Y-31787336D01*
X124160731Y-31830537D01*
X124160908Y-31862909D01*
X124160704Y-31865941D01*
X124157373Y-31906746D01*
X123890958Y-31909507D01*
X123806468Y-31910336D01*
X123740708Y-31911324D01*
X123691718Y-31913160D01*
X123657544Y-31916532D01*
X123636226Y-31922130D01*
X123625809Y-31930642D01*
X123624335Y-31942756D01*
X123629847Y-31959163D01*
X123640388Y-31980550D01*
X123647821Y-31995083D01*
X123674816Y-32034592D01*
X123712855Y-32062247D01*
X123717264Y-32064526D01*
X123774760Y-32084677D01*
X123833870Y-32087026D01*
X123896740Y-32071260D01*
X123965515Y-32037063D01*
X123984070Y-32025476D01*
X123996118Y-32019125D01*
X124007533Y-32019215D01*
X124022209Y-32027932D01*
X124044039Y-32047459D01*
X124071448Y-32074510D01*
X124101953Y-32105369D01*
X124119767Y-32125452D01*
X124126884Y-32138567D01*
X124125296Y-32148519D01*
X124116996Y-32159113D01*
X124116209Y-32159984D01*
X124059692Y-32207740D01*
X123988700Y-32243850D01*
X123906481Y-32267349D01*
X123816285Y-32277270D01*
X123732819Y-32273994D01*
X123668790Y-32260610D01*
X123603502Y-32235982D01*
X123545910Y-32203808D01*
X123525391Y-32188279D01*
X123495751Y-32155067D01*
X123466274Y-32108218D01*
X123440539Y-32054503D01*
X123422124Y-32000695D01*
X123418742Y-31986420D01*
X123411098Y-31931171D01*
X123407840Y-31865031D01*
X123408853Y-31795784D01*
X123413662Y-31735701D01*
X123624542Y-31735701D01*
X123625495Y-31743779D01*
X123630403Y-31749470D01*
X123642344Y-31753192D01*
X123664394Y-31755361D01*
X123699629Y-31756394D01*
X123751126Y-31756708D01*
X123779736Y-31756725D01*
X123839308Y-31756643D01*
X123881273Y-31756082D01*
X123908715Y-31754573D01*
X123924718Y-31751644D01*
X123932367Y-31746825D01*
X123934747Y-31739645D01*
X123934929Y-31733052D01*
X123930340Y-31709898D01*
X123918721Y-31678417D01*
X123911650Y-31663297D01*
X123880044Y-31621365D01*
X123837919Y-31594591D01*
X123789711Y-31583833D01*
X123739856Y-31589948D01*
X123692792Y-31613796D01*
X123685517Y-31619566D01*
X123654479Y-31654499D01*
X123632676Y-31696148D01*
X123624542Y-31735701D01*
X123413662Y-31735701D01*
X123414021Y-31731213D01*
X123423228Y-31679106D01*
G37*
G36*
X119732367Y-32731858D02*
G01*
X119729186Y-32775829D01*
X119421385Y-32778570D01*
X119113585Y-32781310D01*
X119113585Y-33225890D01*
X119642433Y-33225890D01*
X119639251Y-33269862D01*
X119636070Y-33313833D01*
X119374827Y-33316597D01*
X119113585Y-33319362D01*
X119113585Y-33774241D01*
X119735549Y-33774241D01*
X119732367Y-33818212D01*
X119729186Y-33862184D01*
X119369654Y-33864904D01*
X119010123Y-33867625D01*
X119010123Y-32687886D01*
X119735549Y-32687886D01*
X119732367Y-32731858D01*
G37*
G36*
X123771839Y-33303638D02*
G01*
X123781178Y-33270215D01*
X123796232Y-33228697D01*
X123814961Y-33195421D01*
X123842557Y-33162117D01*
X123860890Y-33143282D01*
X123910955Y-33100512D01*
X123961863Y-33073702D01*
X124020055Y-33060261D01*
X124074603Y-33057395D01*
X124143187Y-33062267D01*
X124199429Y-33078574D01*
X124249667Y-33108849D01*
X124287468Y-33142494D01*
X124326722Y-33186977D01*
X124354408Y-33232710D01*
X124372638Y-33285015D01*
X124383524Y-33349213D01*
X124387307Y-33394017D01*
X124393034Y-33484546D01*
X123841100Y-33484546D01*
X123848161Y-33538864D01*
X123865396Y-33620868D01*
X123893840Y-33685668D01*
X123934009Y-33733772D01*
X123986415Y-33765689D01*
X124051571Y-33781927D01*
X124095976Y-33784360D01*
X124173560Y-33775769D01*
X124240023Y-33750874D01*
X124288163Y-33715868D01*
X124315491Y-33689753D01*
X124348940Y-33719640D01*
X124382389Y-33749526D01*
X124333971Y-33792145D01*
X124298584Y-33818813D01*
X124259682Y-33841548D01*
X124237326Y-33851197D01*
X124185205Y-33863978D01*
X124124238Y-33871476D01*
X124063688Y-33873022D01*
X124012815Y-33867945D01*
X124010909Y-33867552D01*
X123938655Y-33842745D01*
X123874412Y-33802240D01*
X123852881Y-33782830D01*
X123811079Y-33727361D01*
X123779934Y-33657410D01*
X123759942Y-33576519D01*
X123751599Y-33488231D01*
X123754738Y-33412122D01*
X123843114Y-33412122D01*
X124299942Y-33412122D01*
X124294205Y-33356538D01*
X124278349Y-33285553D01*
X124247686Y-33227190D01*
X124203800Y-33182989D01*
X124148276Y-33154492D01*
X124082697Y-33143239D01*
X124074785Y-33143120D01*
X124006424Y-33151289D01*
X123950191Y-33175933D01*
X123905880Y-33217260D01*
X123873287Y-33275481D01*
X123852207Y-33350803D01*
X123848572Y-33373324D01*
X123843114Y-33412122D01*
X123754738Y-33412122D01*
X123755399Y-33396090D01*
X123771839Y-33303638D01*
G37*
G36*
X120353827Y-33066069D02*
G01*
X120410916Y-33085222D01*
X120412459Y-33085969D01*
X120449822Y-33108275D01*
X120484460Y-33135529D01*
X120500066Y-33151538D01*
X120516989Y-33173620D01*
X120530550Y-33196272D01*
X120541114Y-33222016D01*
X120549049Y-33253379D01*
X120554718Y-33292885D01*
X120558487Y-33343057D01*
X120560723Y-33406421D01*
X120561792Y-33485501D01*
X120562058Y-33579540D01*
X120562058Y-33867357D01*
X120468941Y-33867357D01*
X120468941Y-33589552D01*
X120468730Y-33499179D01*
X120467889Y-33426850D01*
X120466111Y-33369919D01*
X120463088Y-33325738D01*
X120458513Y-33291662D01*
X120452077Y-33265045D01*
X120443473Y-33243240D01*
X120432393Y-33223601D01*
X120425103Y-33212723D01*
X120389830Y-33178991D01*
X120341734Y-33156087D01*
X120285810Y-33144325D01*
X120227057Y-33144016D01*
X120170471Y-33155473D01*
X120121048Y-33179008D01*
X120103556Y-33192635D01*
X120088738Y-33206898D01*
X120076902Y-33221571D01*
X120067664Y-33239111D01*
X120060639Y-33261973D01*
X120055439Y-33292616D01*
X120051681Y-33333496D01*
X120048978Y-33387069D01*
X120046944Y-33455791D01*
X120045194Y-33542121D01*
X120044746Y-33567316D01*
X120039573Y-33862184D01*
X119995507Y-33865370D01*
X119961576Y-33864427D01*
X119946401Y-33855394D01*
X119946234Y-33854987D01*
X119945128Y-33841877D01*
X119944245Y-33810444D01*
X119943600Y-33763057D01*
X119943207Y-33702084D01*
X119943080Y-33629894D01*
X119943236Y-33548855D01*
X119943688Y-33461337D01*
X119943742Y-33453471D01*
X119946457Y-33065524D01*
X119993015Y-33065524D01*
X120021741Y-33066389D01*
X120036039Y-33072212D01*
X120042173Y-33087839D01*
X120044746Y-33105530D01*
X120048603Y-33130736D01*
X120053505Y-33138241D01*
X120063025Y-33130881D01*
X120068763Y-33124592D01*
X120108458Y-33094256D01*
X120161992Y-33072654D01*
X120224185Y-33060368D01*
X120289857Y-33057979D01*
X120353827Y-33066069D01*
G37*
G36*
X121803605Y-32801695D02*
G01*
X121689797Y-32801695D01*
X121689797Y-32687886D01*
X121803605Y-32687886D01*
X121803605Y-32801695D01*
G37*
G36*
X118420387Y-32729271D02*
G01*
X118419364Y-32755761D01*
X118412460Y-32767532D01*
X118393926Y-32770557D01*
X118380546Y-32770656D01*
X118326253Y-32776958D01*
X118284919Y-32795067D01*
X118259706Y-32822995D01*
X118250976Y-32851545D01*
X118245977Y-32897124D01*
X118244502Y-32956374D01*
X118244502Y-33060351D01*
X118420387Y-33060351D01*
X118420387Y-33132774D01*
X118244502Y-33132774D01*
X118244502Y-33867357D01*
X118151385Y-33867357D01*
X118151385Y-33132774D01*
X118036266Y-33132774D01*
X118039508Y-33099149D01*
X118042534Y-33079519D01*
X118050390Y-33069149D01*
X118068602Y-33064510D01*
X118097068Y-33062396D01*
X118151385Y-33059269D01*
X118151385Y-32950842D01*
X118155809Y-32867802D01*
X118169817Y-32802286D01*
X118194510Y-32752944D01*
X118230992Y-32718426D01*
X118280365Y-32697381D01*
X118343733Y-32688459D01*
X118366070Y-32687944D01*
X118420387Y-32687886D01*
X118420387Y-32729271D01*
G37*
G36*
X125383402Y-32801695D02*
G01*
X125269593Y-32801695D01*
X125269593Y-32687886D01*
X125383402Y-32687886D01*
X125383402Y-32801695D01*
G37*
G36*
X117236798Y-31533134D02*
G01*
X117241886Y-31466821D01*
X117248518Y-31412290D01*
X117256547Y-31373971D01*
X117256564Y-31373915D01*
X117291602Y-31292160D01*
X117342682Y-31221836D01*
X117407710Y-31164412D01*
X117484591Y-31121358D01*
X117571233Y-31094143D01*
X117665539Y-31084236D01*
X117669498Y-31084220D01*
X117766252Y-31093023D01*
X117852753Y-31119653D01*
X117929797Y-31164443D01*
X117988961Y-31217591D01*
X118036499Y-31276407D01*
X118068035Y-31336178D01*
X118087315Y-31404033D01*
X118087492Y-31404953D01*
X118096531Y-31467319D01*
X118102514Y-31541195D01*
X118105546Y-31622393D01*
X118105732Y-31706724D01*
X118103176Y-31790000D01*
X118097984Y-31868031D01*
X118090261Y-31936628D01*
X118080110Y-31991603D01*
X118072152Y-32018338D01*
X118032607Y-32095445D01*
X117977638Y-32160382D01*
X117909295Y-32212058D01*
X117829632Y-32249383D01*
X117740700Y-32271266D01*
X117644550Y-32276616D01*
X117593729Y-32272668D01*
X117511203Y-32252812D01*
X117433753Y-32215479D01*
X117365290Y-32163424D01*
X117309723Y-32099405D01*
X117282774Y-32053505D01*
X117263942Y-32008097D01*
X117250583Y-31957994D01*
X117240768Y-31895711D01*
X117239644Y-31886266D01*
X117234815Y-31827539D01*
X117232263Y-31758430D01*
X117231840Y-31683371D01*
X117232956Y-31628614D01*
X117470480Y-31628614D01*
X117471208Y-31723397D01*
X117472022Y-31746379D01*
X117475843Y-31821534D01*
X117480937Y-31879411D01*
X117488046Y-31923417D01*
X117497915Y-31956960D01*
X117511286Y-31983447D01*
X117528664Y-32006020D01*
X117571955Y-32039591D01*
X117625183Y-32058752D01*
X117682902Y-32062937D01*
X117739667Y-32051575D01*
X117778937Y-32032118D01*
X117807122Y-32009302D01*
X117828099Y-31981146D01*
X117843161Y-31944117D01*
X117853599Y-31894687D01*
X117860704Y-31829325D01*
X117862541Y-31803608D01*
X117865362Y-31736475D01*
X117865676Y-31665819D01*
X117863728Y-31595633D01*
X117859764Y-31529909D01*
X117854027Y-31472640D01*
X117846763Y-31427818D01*
X117838217Y-31399436D01*
X117837680Y-31398365D01*
X117802768Y-31349591D01*
X117757162Y-31318054D01*
X117699626Y-31303044D01*
X117669788Y-31301491D01*
X117607672Y-31309771D01*
X117555086Y-31333501D01*
X117515422Y-31371017D01*
X117509148Y-31380335D01*
X117493739Y-31417894D01*
X117481993Y-31473421D01*
X117474158Y-31544475D01*
X117470480Y-31628614D01*
X117232956Y-31628614D01*
X117233401Y-31606794D01*
X117236798Y-31533134D01*
G37*
G36*
X126507682Y-33348937D02*
G01*
X126510041Y-33312467D01*
X126514025Y-33284635D01*
X126520024Y-33261423D01*
X126527922Y-33240044D01*
X126565040Y-33169159D01*
X126611699Y-33116386D01*
X126669164Y-33080874D01*
X126738701Y-33061769D01*
X126798550Y-33057693D01*
X126868755Y-33062509D01*
X126925146Y-33077934D01*
X126972568Y-33105629D01*
X126994827Y-33124982D01*
X127028453Y-33157526D01*
X127028453Y-33060351D01*
X127111990Y-33060351D01*
X127109020Y-33549210D01*
X127106049Y-34038070D01*
X127073953Y-34094974D01*
X127027369Y-34158073D01*
X126968151Y-34204872D01*
X126896634Y-34235193D01*
X126813153Y-34248860D01*
X126780852Y-34249673D01*
X126736284Y-34246776D01*
X126692076Y-34239809D01*
X126666335Y-34232994D01*
X126630635Y-34217118D01*
X126590710Y-34194386D01*
X126569991Y-34180405D01*
X126520206Y-34144002D01*
X126548648Y-34114315D01*
X126568845Y-34095404D01*
X126583788Y-34085204D01*
X126586107Y-34084628D01*
X126599003Y-34090528D01*
X126621311Y-34105469D01*
X126633316Y-34114537D01*
X126692384Y-34148246D01*
X126758634Y-34164789D01*
X126827265Y-34163867D01*
X126893476Y-34145185D01*
X126919054Y-34132180D01*
X126959599Y-34100686D01*
X126989664Y-34058621D01*
X127010307Y-34003499D01*
X127022583Y-33932833D01*
X127026494Y-33879258D01*
X127031390Y-33769179D01*
X126989889Y-33806673D01*
X126945472Y-33839827D01*
X126897198Y-33860317D01*
X126839370Y-33869991D01*
X126790489Y-33871321D01*
X126712635Y-33862950D01*
X126648085Y-33839183D01*
X126595363Y-33799005D01*
X126552994Y-33741399D01*
X126529228Y-33691471D01*
X126520546Y-33667843D01*
X126514359Y-33644307D01*
X126510253Y-33616766D01*
X126507815Y-33581120D01*
X126506634Y-33533272D01*
X126506295Y-33469124D01*
X126506292Y-33463854D01*
X126506351Y-33449401D01*
X126599313Y-33449401D01*
X126599328Y-33463854D01*
X126600596Y-33540893D01*
X126604731Y-33600848D01*
X126612624Y-33647232D01*
X126625168Y-33683559D01*
X126643253Y-33713342D01*
X126667772Y-33740094D01*
X126669963Y-33742139D01*
X126714777Y-33770447D01*
X126770049Y-33785345D01*
X126830137Y-33786430D01*
X126889403Y-33773294D01*
X126919260Y-33760049D01*
X126956659Y-33728716D01*
X126986955Y-33680445D01*
X127009311Y-33618016D01*
X127022889Y-33544214D01*
X127026850Y-33461821D01*
X127024396Y-33411014D01*
X127015348Y-33336274D01*
X127001332Y-33278279D01*
X126981060Y-33233408D01*
X126953243Y-33198045D01*
X126946241Y-33191414D01*
X126907099Y-33163216D01*
X126863544Y-33147742D01*
X126809942Y-33143472D01*
X126775237Y-33145255D01*
X126717315Y-33158650D01*
X126670281Y-33188934D01*
X126632690Y-33237144D01*
X126623753Y-33253808D01*
X126614273Y-33274351D01*
X126607591Y-33294255D01*
X126603230Y-33317617D01*
X126600714Y-33348531D01*
X126599567Y-33391094D01*
X126599313Y-33449401D01*
X126506351Y-33449401D01*
X126506562Y-33398060D01*
X126507682Y-33348937D01*
G37*
G36*
X125210886Y-31636611D02*
G01*
X125248362Y-31560775D01*
X125298485Y-31497740D01*
X125360238Y-31448818D01*
X125432603Y-31415320D01*
X125514562Y-31398558D01*
X125595145Y-31398815D01*
X125682029Y-31415979D01*
X125757053Y-31449714D01*
X125819571Y-31499199D01*
X125868937Y-31563612D01*
X125904504Y-31642135D01*
X125925626Y-31733946D01*
X125931752Y-31826150D01*
X125931752Y-31911919D01*
X125395927Y-31911919D01*
X125403783Y-31946749D01*
X125415043Y-31981056D01*
X125430919Y-32014219D01*
X125463112Y-32049641D01*
X125508105Y-32073590D01*
X125561265Y-32085740D01*
X125617955Y-32085761D01*
X125673541Y-32073327D01*
X125723388Y-32048108D01*
X125738838Y-32036010D01*
X125772976Y-32006037D01*
X125905028Y-32139273D01*
X125871066Y-32174312D01*
X125818596Y-32215672D01*
X125751886Y-32248298D01*
X125676415Y-32269720D01*
X125649914Y-32273989D01*
X125612722Y-32278608D01*
X125584271Y-32281745D01*
X125570111Y-32282795D01*
X125569634Y-32282752D01*
X125557426Y-32280996D01*
X125530791Y-32277414D01*
X125500226Y-32273399D01*
X125414123Y-32253338D01*
X125341190Y-32217342D01*
X125281521Y-32165516D01*
X125235213Y-32097964D01*
X125202360Y-32014790D01*
X125184527Y-31927811D01*
X125177951Y-31821441D01*
X125184008Y-31756725D01*
X125395948Y-31756725D01*
X125716125Y-31756725D01*
X125709105Y-31723100D01*
X125688692Y-31664493D01*
X125655733Y-31621631D01*
X125611186Y-31595360D01*
X125556007Y-31586526D01*
X125554663Y-31586534D01*
X125498662Y-31594189D01*
X125456173Y-31616742D01*
X125425787Y-31655389D01*
X125406096Y-31711322D01*
X125405773Y-31712754D01*
X125395948Y-31756725D01*
X125184008Y-31756725D01*
X125187076Y-31723937D01*
X125210886Y-31636611D01*
G37*
G36*
X124313450Y-31679585D02*
G01*
X124325106Y-31610151D01*
X124344423Y-31552965D01*
X124372027Y-31505488D01*
X124408547Y-31465180D01*
X124409679Y-31464152D01*
X124465391Y-31426976D01*
X124531229Y-31404101D01*
X124601962Y-31395964D01*
X124672356Y-31403002D01*
X124737177Y-31425651D01*
X124754472Y-31435380D01*
X124804013Y-31466176D01*
X124804013Y-31404953D01*
X125021284Y-31404953D01*
X125021284Y-31853137D01*
X125021201Y-31969356D01*
X125020817Y-32066885D01*
X125019924Y-32147721D01*
X125018315Y-32213867D01*
X125015784Y-32267322D01*
X125012124Y-32310088D01*
X125007129Y-32344163D01*
X125000591Y-32371550D01*
X124992305Y-32394248D01*
X124982063Y-32414258D01*
X124969659Y-32433580D01*
X124959897Y-32447328D01*
X124917344Y-32493286D01*
X124862064Y-32534700D01*
X124801987Y-32565810D01*
X124791194Y-32569900D01*
X124750412Y-32579857D01*
X124696756Y-32586814D01*
X124637887Y-32590316D01*
X124581466Y-32589909D01*
X124535156Y-32585137D01*
X124535011Y-32585110D01*
X124451396Y-32560441D01*
X124378325Y-32518720D01*
X124367749Y-32510636D01*
X124326466Y-32477940D01*
X124465550Y-32337782D01*
X124506897Y-32365144D01*
X124539230Y-32382517D01*
X124575304Y-32392044D01*
X124616637Y-32395897D01*
X124680628Y-32392808D01*
X124729990Y-32375769D01*
X124765807Y-32343786D01*
X124789162Y-32295864D01*
X124801141Y-32231009D01*
X124801541Y-32226318D01*
X124806956Y-32158855D01*
X124767853Y-32185390D01*
X124707263Y-32215542D01*
X124640323Y-32230425D01*
X124571220Y-32230732D01*
X124504137Y-32217153D01*
X124443259Y-32190381D01*
X124392772Y-32151108D01*
X124367507Y-32119201D01*
X124348411Y-32086488D01*
X124334461Y-32054653D01*
X124324640Y-32019158D01*
X124317932Y-31975466D01*
X124313319Y-31919040D01*
X124310610Y-31865361D01*
X124309758Y-31816820D01*
X124535011Y-31816820D01*
X124535842Y-31868180D01*
X124538982Y-31905007D01*
X124545397Y-31933418D01*
X124556054Y-31959527D01*
X124558290Y-31964044D01*
X124588304Y-32003421D01*
X124628093Y-32026201D01*
X124673939Y-32031480D01*
X124722127Y-32018350D01*
X124740213Y-32008388D01*
X124764994Y-31985689D01*
X124782304Y-31952266D01*
X124792937Y-31905385D01*
X124797684Y-31842310D01*
X124798111Y-31808456D01*
X124794720Y-31734760D01*
X124784082Y-31679093D01*
X124765155Y-31639746D01*
X124736894Y-31615007D01*
X124698256Y-31603166D01*
X124671869Y-31601532D01*
X124624221Y-31606620D01*
X124588020Y-31623065D01*
X124562140Y-31652635D01*
X124545458Y-31697099D01*
X124536847Y-31758226D01*
X124535011Y-31816820D01*
X124309758Y-31816820D01*
X124308827Y-31763809D01*
X124313450Y-31679585D01*
G37*
G04 #@! TO.C,J11*
X100330000Y-45085000D02*
X90170000Y-45085000D01*
X90170000Y-38735000D02*
X90170000Y-46355000D01*
X100330000Y-46355000D02*
X100330000Y-38735000D01*
X90170000Y-46355000D02*
X100330000Y-46355000D01*
X100330000Y-38735000D02*
X90170000Y-38735000D01*
G04 #@! TO.C,J10*
X125730000Y-38735000D02*
X115570000Y-38735000D01*
X125730000Y-46355000D02*
X125730000Y-38735000D01*
X115570000Y-38735000D02*
X115570000Y-46355000D01*
X125730000Y-45085000D02*
X115570000Y-45085000D01*
X115570000Y-46355000D02*
X125730000Y-46355000D01*
G04 #@! TO.C,J6*
X142875000Y-29210000D02*
X132715000Y-29210000D01*
X132715000Y-29210000D02*
X132715000Y-36830000D01*
X132715000Y-36830000D02*
X142875000Y-36830000D01*
X142875000Y-36830000D02*
X142875000Y-29210000D01*
X142875000Y-35560000D02*
X132715000Y-35560000D01*
G04 #@! TO.C,J9*
X74930000Y-46355000D02*
X74930000Y-38735000D01*
X74930000Y-38735000D02*
X64770000Y-38735000D01*
X74930000Y-45085000D02*
X64770000Y-45085000D01*
X64770000Y-38735000D02*
X64770000Y-46355000D01*
X64770000Y-46355000D02*
X74930000Y-46355000D01*
G04 #@! TO.C,J4*
X185420000Y-45085000D02*
X175260000Y-45085000D01*
X175260000Y-38735000D02*
X175260000Y-46355000D01*
X175260000Y-46355000D02*
X185420000Y-46355000D01*
X185420000Y-46355000D02*
X185420000Y-38735000D01*
X185420000Y-38735000D02*
X175260000Y-38735000D01*
G04 #@! TO.C,J5*
X175895000Y-35560000D02*
X165735000Y-35560000D01*
X165735000Y-36830000D02*
X175895000Y-36830000D01*
X175895000Y-29210000D02*
X165735000Y-29210000D01*
X175895000Y-36830000D02*
X175895000Y-29210000D01*
X165735000Y-29210000D02*
X165735000Y-36830000D01*
G04 #@! TO.C,J1*
X102870000Y-38735000D02*
X102870000Y-46355000D01*
X102870000Y-46355000D02*
X113030000Y-46355000D01*
X113030000Y-45085000D02*
X102870000Y-45085000D01*
X113030000Y-38735000D02*
X102870000Y-38735000D01*
X113030000Y-46355000D02*
X113030000Y-38735000D01*
G04 #@! TD*
M02*
