G04 #@! TF.GenerationSoftware,KiCad,Pcbnew,(6.0.7)*
G04 #@! TF.CreationDate,2023-02-20T16:15:52-05:00*
G04 #@! TF.ProjectId,IR FANS LED board,49522046-414e-4532-904c-454420626f61,rev?*
G04 #@! TF.SameCoordinates,Original*
G04 #@! TF.FileFunction,Legend,Top*
G04 #@! TF.FilePolarity,Positive*
%FSLAX46Y46*%
G04 Gerber Fmt 4.6, Leading zero omitted, Abs format (unit mm)*
G04 Created by KiCad (PCBNEW (6.0.7)) date 2023-02-20 16:15:52*
%MOMM*%
%LPD*%
G01*
G04 APERTURE LIST*
%ADD10C,0.150000*%
%ADD11C,0.120000*%
G04 APERTURE END LIST*
D10*
X122088095Y-32313571D02*
X122230952Y-32361190D01*
X122278571Y-32408809D01*
X122326190Y-32504047D01*
X122326190Y-32646904D01*
X122278571Y-32742142D01*
X122230952Y-32789761D01*
X122135714Y-32837380D01*
X121754761Y-32837380D01*
X121754761Y-31837380D01*
X122088095Y-31837380D01*
X122183333Y-31885000D01*
X122230952Y-31932619D01*
X122278571Y-32027857D01*
X122278571Y-32123095D01*
X122230952Y-32218333D01*
X122183333Y-32265952D01*
X122088095Y-32313571D01*
X121754761Y-32313571D01*
X122897619Y-32837380D02*
X122802380Y-32789761D01*
X122754761Y-32742142D01*
X122707142Y-32646904D01*
X122707142Y-32361190D01*
X122754761Y-32265952D01*
X122802380Y-32218333D01*
X122897619Y-32170714D01*
X123040476Y-32170714D01*
X123135714Y-32218333D01*
X123183333Y-32265952D01*
X123230952Y-32361190D01*
X123230952Y-32646904D01*
X123183333Y-32742142D01*
X123135714Y-32789761D01*
X123040476Y-32837380D01*
X122897619Y-32837380D01*
X123516666Y-32170714D02*
X123897619Y-32170714D01*
X123659523Y-31837380D02*
X123659523Y-32694523D01*
X123707142Y-32789761D01*
X123802380Y-32837380D01*
X123897619Y-32837380D01*
X124088095Y-32170714D02*
X124469047Y-32170714D01*
X124230952Y-31837380D02*
X124230952Y-32694523D01*
X124278571Y-32789761D01*
X124373809Y-32837380D01*
X124469047Y-32837380D01*
X124945238Y-32837380D02*
X124849999Y-32789761D01*
X124802380Y-32742142D01*
X124754761Y-32646904D01*
X124754761Y-32361190D01*
X124802380Y-32265952D01*
X124849999Y-32218333D01*
X124945238Y-32170714D01*
X125088095Y-32170714D01*
X125183333Y-32218333D01*
X125230952Y-32265952D01*
X125278571Y-32361190D01*
X125278571Y-32646904D01*
X125230952Y-32742142D01*
X125183333Y-32789761D01*
X125088095Y-32837380D01*
X124945238Y-32837380D01*
X125707142Y-32837380D02*
X125707142Y-32170714D01*
X125707142Y-32265952D02*
X125754761Y-32218333D01*
X125849999Y-32170714D01*
X125992857Y-32170714D01*
X126088095Y-32218333D01*
X126135714Y-32313571D01*
X126135714Y-32837380D01*
X126135714Y-32313571D02*
X126183333Y-32218333D01*
X126278571Y-32170714D01*
X126421428Y-32170714D01*
X126516666Y-32218333D01*
X126564285Y-32313571D01*
X126564285Y-32837380D01*
X128135714Y-32313571D02*
X128278571Y-32361190D01*
X128326190Y-32408809D01*
X128373809Y-32504047D01*
X128373809Y-32646904D01*
X128326190Y-32742142D01*
X128278571Y-32789761D01*
X128183333Y-32837380D01*
X127802380Y-32837380D01*
X127802380Y-31837380D01*
X128135714Y-31837380D01*
X128230952Y-31885000D01*
X128278571Y-31932619D01*
X128326190Y-32027857D01*
X128326190Y-32123095D01*
X128278571Y-32218333D01*
X128230952Y-32265952D01*
X128135714Y-32313571D01*
X127802380Y-32313571D01*
X128945238Y-32837380D02*
X128849999Y-32789761D01*
X128802380Y-32742142D01*
X128754761Y-32646904D01*
X128754761Y-32361190D01*
X128802380Y-32265952D01*
X128849999Y-32218333D01*
X128945238Y-32170714D01*
X129088095Y-32170714D01*
X129183333Y-32218333D01*
X129230952Y-32265952D01*
X129278571Y-32361190D01*
X129278571Y-32646904D01*
X129230952Y-32742142D01*
X129183333Y-32789761D01*
X129088095Y-32837380D01*
X128945238Y-32837380D01*
X129611904Y-32837380D02*
X130135714Y-32170714D01*
X129611904Y-32170714D02*
X130135714Y-32837380D01*
X131278571Y-32837380D02*
X131278571Y-31837380D01*
X132326190Y-32837380D02*
X131992857Y-32361190D01*
X131754761Y-32837380D02*
X131754761Y-31837380D01*
X132135714Y-31837380D01*
X132230952Y-31885000D01*
X132278571Y-31932619D01*
X132326190Y-32027857D01*
X132326190Y-32170714D01*
X132278571Y-32265952D01*
X132230952Y-32313571D01*
X132135714Y-32361190D01*
X131754761Y-32361190D01*
X133945238Y-32837380D02*
X133945238Y-32313571D01*
X133897619Y-32218333D01*
X133802380Y-32170714D01*
X133611904Y-32170714D01*
X133516666Y-32218333D01*
X133945238Y-32789761D02*
X133849999Y-32837380D01*
X133611904Y-32837380D01*
X133516666Y-32789761D01*
X133469047Y-32694523D01*
X133469047Y-32599285D01*
X133516666Y-32504047D01*
X133611904Y-32456428D01*
X133849999Y-32456428D01*
X133945238Y-32408809D01*
X134421428Y-32170714D02*
X134421428Y-32837380D01*
X134421428Y-32265952D02*
X134469047Y-32218333D01*
X134564285Y-32170714D01*
X134707142Y-32170714D01*
X134802380Y-32218333D01*
X134850000Y-32313571D01*
X134850000Y-32837380D01*
X135754761Y-32837380D02*
X135754761Y-31837380D01*
X135754761Y-32789761D02*
X135659523Y-32837380D01*
X135469047Y-32837380D01*
X135373809Y-32789761D01*
X135326190Y-32742142D01*
X135278571Y-32646904D01*
X135278571Y-32361190D01*
X135326190Y-32265952D01*
X135373809Y-32218333D01*
X135469047Y-32170714D01*
X135659523Y-32170714D01*
X135754761Y-32218333D01*
X137326190Y-32313571D02*
X136992857Y-32313571D01*
X136992857Y-32837380D02*
X136992857Y-31837380D01*
X137469047Y-31837380D01*
X138278571Y-32837380D02*
X138278571Y-32313571D01*
X138230952Y-32218333D01*
X138135714Y-32170714D01*
X137945238Y-32170714D01*
X137850000Y-32218333D01*
X138278571Y-32789761D02*
X138183333Y-32837380D01*
X137945238Y-32837380D01*
X137850000Y-32789761D01*
X137802380Y-32694523D01*
X137802380Y-32599285D01*
X137850000Y-32504047D01*
X137945238Y-32456428D01*
X138183333Y-32456428D01*
X138278571Y-32408809D01*
X138754761Y-32170714D02*
X138754761Y-32837380D01*
X138754761Y-32265952D02*
X138802380Y-32218333D01*
X138897619Y-32170714D01*
X139040476Y-32170714D01*
X139135714Y-32218333D01*
X139183333Y-32313571D01*
X139183333Y-32837380D01*
X139611904Y-32789761D02*
X139707142Y-32837380D01*
X139897619Y-32837380D01*
X139992857Y-32789761D01*
X140040476Y-32694523D01*
X140040476Y-32646904D01*
X139992857Y-32551666D01*
X139897619Y-32504047D01*
X139754761Y-32504047D01*
X139659523Y-32456428D01*
X139611904Y-32361190D01*
X139611904Y-32313571D01*
X139659523Y-32218333D01*
X139754761Y-32170714D01*
X139897619Y-32170714D01*
X139992857Y-32218333D01*
X141230952Y-32837380D02*
X141230952Y-31837380D01*
X141611904Y-31837380D01*
X141707142Y-31885000D01*
X141754761Y-31932619D01*
X141802380Y-32027857D01*
X141802380Y-32170714D01*
X141754761Y-32265952D01*
X141707142Y-32313571D01*
X141611904Y-32361190D01*
X141230952Y-32361190D01*
X142659523Y-32837380D02*
X142659523Y-32313571D01*
X142611904Y-32218333D01*
X142516666Y-32170714D01*
X142326190Y-32170714D01*
X142230952Y-32218333D01*
X142659523Y-32789761D02*
X142564285Y-32837380D01*
X142326190Y-32837380D01*
X142230952Y-32789761D01*
X142183333Y-32694523D01*
X142183333Y-32599285D01*
X142230952Y-32504047D01*
X142326190Y-32456428D01*
X142564285Y-32456428D01*
X142659523Y-32408809D01*
X143135714Y-32170714D02*
X143135714Y-32837380D01*
X143135714Y-32265952D02*
X143183333Y-32218333D01*
X143278571Y-32170714D01*
X143421428Y-32170714D01*
X143516666Y-32218333D01*
X143564285Y-32313571D01*
X143564285Y-32837380D01*
X144421428Y-32789761D02*
X144326190Y-32837380D01*
X144135714Y-32837380D01*
X144040476Y-32789761D01*
X143992857Y-32694523D01*
X143992857Y-32313571D01*
X144040476Y-32218333D01*
X144135714Y-32170714D01*
X144326190Y-32170714D01*
X144421428Y-32218333D01*
X144469047Y-32313571D01*
X144469047Y-32408809D01*
X143992857Y-32504047D01*
X145040476Y-32837380D02*
X144945238Y-32789761D01*
X144897619Y-32694523D01*
X144897619Y-31837380D01*
G04 #@! TO.C,J4*
X177893276Y-22788571D02*
X177559942Y-22788571D01*
X177559942Y-23312380D02*
X177559942Y-22312380D01*
X178036133Y-22312380D01*
X178845657Y-23312380D02*
X178845657Y-22788571D01*
X178798038Y-22693333D01*
X178702800Y-22645714D01*
X178512323Y-22645714D01*
X178417085Y-22693333D01*
X178845657Y-23264761D02*
X178750419Y-23312380D01*
X178512323Y-23312380D01*
X178417085Y-23264761D01*
X178369466Y-23169523D01*
X178369466Y-23074285D01*
X178417085Y-22979047D01*
X178512323Y-22931428D01*
X178750419Y-22931428D01*
X178845657Y-22883809D01*
X179321847Y-22645714D02*
X179321847Y-23312380D01*
X179321847Y-22740952D02*
X179369466Y-22693333D01*
X179464704Y-22645714D01*
X179607561Y-22645714D01*
X179702800Y-22693333D01*
X179750419Y-22788571D01*
X179750419Y-23312380D01*
X180178990Y-23264761D02*
X180274228Y-23312380D01*
X180464704Y-23312380D01*
X180559942Y-23264761D01*
X180607561Y-23169523D01*
X180607561Y-23121904D01*
X180559942Y-23026666D01*
X180464704Y-22979047D01*
X180321847Y-22979047D01*
X180226609Y-22931428D01*
X180178990Y-22836190D01*
X180178990Y-22788571D01*
X180226609Y-22693333D01*
X180321847Y-22645714D01*
X180464704Y-22645714D01*
X180559942Y-22693333D01*
X181655180Y-22645714D02*
X182036133Y-22645714D01*
X181798038Y-23312380D02*
X181798038Y-22455238D01*
X181845657Y-22360000D01*
X181940895Y-22312380D01*
X182036133Y-22312380D01*
X182369466Y-23312380D02*
X182369466Y-22645714D01*
X182369466Y-22836190D02*
X182417085Y-22740952D01*
X182464704Y-22693333D01*
X182559942Y-22645714D01*
X182655180Y-22645714D01*
X183131371Y-23312380D02*
X183036133Y-23264761D01*
X182988514Y-23217142D01*
X182940895Y-23121904D01*
X182940895Y-22836190D01*
X182988514Y-22740952D01*
X183036133Y-22693333D01*
X183131371Y-22645714D01*
X183274228Y-22645714D01*
X183369466Y-22693333D01*
X183417085Y-22740952D01*
X183464704Y-22836190D01*
X183464704Y-23121904D01*
X183417085Y-23217142D01*
X183369466Y-23264761D01*
X183274228Y-23312380D01*
X183131371Y-23312380D01*
X183893276Y-23312380D02*
X183893276Y-22645714D01*
X183893276Y-22740952D02*
X183940895Y-22693333D01*
X184036133Y-22645714D01*
X184178990Y-22645714D01*
X184274228Y-22693333D01*
X184321847Y-22788571D01*
X184321847Y-23312380D01*
X184321847Y-22788571D02*
X184369466Y-22693333D01*
X184464704Y-22645714D01*
X184607561Y-22645714D01*
X184702800Y-22693333D01*
X184750419Y-22788571D01*
X184750419Y-23312380D01*
X186417085Y-23312380D02*
X186417085Y-22788571D01*
X186369466Y-22693333D01*
X186274228Y-22645714D01*
X186083752Y-22645714D01*
X185988514Y-22693333D01*
X186417085Y-23264761D02*
X186321847Y-23312380D01*
X186083752Y-23312380D01*
X185988514Y-23264761D01*
X185940895Y-23169523D01*
X185940895Y-23074285D01*
X185988514Y-22979047D01*
X186083752Y-22931428D01*
X186321847Y-22931428D01*
X186417085Y-22883809D01*
X186893276Y-23312380D02*
X186893276Y-22312380D01*
X186893276Y-22693333D02*
X186988514Y-22645714D01*
X187178990Y-22645714D01*
X187274228Y-22693333D01*
X187321847Y-22740952D01*
X187369466Y-22836190D01*
X187369466Y-23121904D01*
X187321847Y-23217142D01*
X187274228Y-23264761D01*
X187178990Y-23312380D01*
X186988514Y-23312380D01*
X186893276Y-23264761D01*
X187940895Y-23312380D02*
X187845657Y-23264761D01*
X187798038Y-23217142D01*
X187750419Y-23121904D01*
X187750419Y-22836190D01*
X187798038Y-22740952D01*
X187845657Y-22693333D01*
X187940895Y-22645714D01*
X188083752Y-22645714D01*
X188178990Y-22693333D01*
X188226609Y-22740952D01*
X188274228Y-22836190D01*
X188274228Y-23121904D01*
X188226609Y-23217142D01*
X188178990Y-23264761D01*
X188083752Y-23312380D01*
X187940895Y-23312380D01*
X188607561Y-22645714D02*
X188845657Y-23312380D01*
X189083752Y-22645714D01*
X189845657Y-23264761D02*
X189750419Y-23312380D01*
X189559942Y-23312380D01*
X189464704Y-23264761D01*
X189417085Y-23169523D01*
X189417085Y-22788571D01*
X189464704Y-22693333D01*
X189559942Y-22645714D01*
X189750419Y-22645714D01*
X189845657Y-22693333D01*
X189893276Y-22788571D01*
X189893276Y-22883809D01*
X189417085Y-22979047D01*
G04 #@! TO.C,J3*
X134419800Y-43992980D02*
X134419800Y-42992980D01*
X135467419Y-43992980D02*
X135134085Y-43516790D01*
X134895990Y-43992980D02*
X134895990Y-42992980D01*
X135276942Y-42992980D01*
X135372180Y-43040600D01*
X135419800Y-43088219D01*
X135467419Y-43183457D01*
X135467419Y-43326314D01*
X135419800Y-43421552D01*
X135372180Y-43469171D01*
X135276942Y-43516790D01*
X134895990Y-43516790D01*
G04 #@! TO.C,J8*
X203636571Y-40536666D02*
X203636571Y-40870000D01*
X204160380Y-40870000D02*
X203160380Y-40870000D01*
X203160380Y-40393809D01*
X204160380Y-39584285D02*
X203636571Y-39584285D01*
X203541333Y-39631904D01*
X203493714Y-39727142D01*
X203493714Y-39917619D01*
X203541333Y-40012857D01*
X204112761Y-39584285D02*
X204160380Y-39679523D01*
X204160380Y-39917619D01*
X204112761Y-40012857D01*
X204017523Y-40060476D01*
X203922285Y-40060476D01*
X203827047Y-40012857D01*
X203779428Y-39917619D01*
X203779428Y-39679523D01*
X203731809Y-39584285D01*
X203493714Y-39108095D02*
X204160380Y-39108095D01*
X203588952Y-39108095D02*
X203541333Y-39060476D01*
X203493714Y-38965238D01*
X203493714Y-38822380D01*
X203541333Y-38727142D01*
X203636571Y-38679523D01*
X204160380Y-38679523D01*
X204112761Y-38250952D02*
X204160380Y-38155714D01*
X204160380Y-37965238D01*
X204112761Y-37870000D01*
X204017523Y-37822380D01*
X203969904Y-37822380D01*
X203874666Y-37870000D01*
X203827047Y-37965238D01*
X203827047Y-38108095D01*
X203779428Y-38203333D01*
X203684190Y-38250952D01*
X203636571Y-38250952D01*
X203541333Y-38203333D01*
X203493714Y-38108095D01*
X203493714Y-37965238D01*
X203541333Y-37870000D01*
G04 #@! TO.C,J5*
X169136200Y-44153980D02*
X169136200Y-43153980D01*
X170183819Y-44153980D02*
X169850485Y-43677790D01*
X169612390Y-44153980D02*
X169612390Y-43153980D01*
X169993342Y-43153980D01*
X170088580Y-43201600D01*
X170136200Y-43249219D01*
X170183819Y-43344457D01*
X170183819Y-43487314D01*
X170136200Y-43582552D01*
X170088580Y-43630171D01*
X169993342Y-43677790D01*
X169612390Y-43677790D01*
G04 #@! TO.C,J9*
X65206571Y-40282666D02*
X65206571Y-40616000D01*
X65730380Y-40616000D02*
X64730380Y-40616000D01*
X64730380Y-40139809D01*
X65730380Y-39330285D02*
X65206571Y-39330285D01*
X65111333Y-39377904D01*
X65063714Y-39473142D01*
X65063714Y-39663619D01*
X65111333Y-39758857D01*
X65682761Y-39330285D02*
X65730380Y-39425523D01*
X65730380Y-39663619D01*
X65682761Y-39758857D01*
X65587523Y-39806476D01*
X65492285Y-39806476D01*
X65397047Y-39758857D01*
X65349428Y-39663619D01*
X65349428Y-39425523D01*
X65301809Y-39330285D01*
X65063714Y-38854095D02*
X65730380Y-38854095D01*
X65158952Y-38854095D02*
X65111333Y-38806476D01*
X65063714Y-38711238D01*
X65063714Y-38568380D01*
X65111333Y-38473142D01*
X65206571Y-38425523D01*
X65730380Y-38425523D01*
X65682761Y-37996952D02*
X65730380Y-37901714D01*
X65730380Y-37711238D01*
X65682761Y-37616000D01*
X65587523Y-37568380D01*
X65539904Y-37568380D01*
X65444666Y-37616000D01*
X65397047Y-37711238D01*
X65397047Y-37854095D01*
X65349428Y-37949333D01*
X65254190Y-37996952D01*
X65206571Y-37996952D01*
X65111333Y-37949333D01*
X65063714Y-37854095D01*
X65063714Y-37711238D01*
X65111333Y-37616000D01*
G04 #@! TO.C,J7*
X102166800Y-44094580D02*
X102166800Y-43094580D01*
X103214419Y-44094580D02*
X102881085Y-43618390D01*
X102642990Y-44094580D02*
X102642990Y-43094580D01*
X103023942Y-43094580D01*
X103119180Y-43142200D01*
X103166800Y-43189819D01*
X103214419Y-43285057D01*
X103214419Y-43427914D01*
X103166800Y-43523152D01*
X103119180Y-43570771D01*
X103023942Y-43618390D01*
X102642990Y-43618390D01*
G04 #@! TO.C,J2*
X65460571Y-26414266D02*
X65460571Y-26747600D01*
X65984380Y-26747600D02*
X64984380Y-26747600D01*
X64984380Y-26271409D01*
X65984380Y-25461885D02*
X65460571Y-25461885D01*
X65365333Y-25509504D01*
X65317714Y-25604742D01*
X65317714Y-25795219D01*
X65365333Y-25890457D01*
X65936761Y-25461885D02*
X65984380Y-25557123D01*
X65984380Y-25795219D01*
X65936761Y-25890457D01*
X65841523Y-25938076D01*
X65746285Y-25938076D01*
X65651047Y-25890457D01*
X65603428Y-25795219D01*
X65603428Y-25557123D01*
X65555809Y-25461885D01*
X65317714Y-24985695D02*
X65984380Y-24985695D01*
X65412952Y-24985695D02*
X65365333Y-24938076D01*
X65317714Y-24842838D01*
X65317714Y-24699980D01*
X65365333Y-24604742D01*
X65460571Y-24557123D01*
X65984380Y-24557123D01*
X65936761Y-24128552D02*
X65984380Y-24033314D01*
X65984380Y-23842838D01*
X65936761Y-23747600D01*
X65841523Y-23699980D01*
X65793904Y-23699980D01*
X65698666Y-23747600D01*
X65651047Y-23842838D01*
X65651047Y-23985695D01*
X65603428Y-24080933D01*
X65508190Y-24128552D01*
X65460571Y-24128552D01*
X65365333Y-24080933D01*
X65317714Y-23985695D01*
X65317714Y-23842838D01*
X65365333Y-23747600D01*
G04 #@! TO.C,J1*
X203636571Y-26973066D02*
X203636571Y-27306400D01*
X204160380Y-27306400D02*
X203160380Y-27306400D01*
X203160380Y-26830209D01*
X204160380Y-26020685D02*
X203636571Y-26020685D01*
X203541333Y-26068304D01*
X203493714Y-26163542D01*
X203493714Y-26354019D01*
X203541333Y-26449257D01*
X204112761Y-26020685D02*
X204160380Y-26115923D01*
X204160380Y-26354019D01*
X204112761Y-26449257D01*
X204017523Y-26496876D01*
X203922285Y-26496876D01*
X203827047Y-26449257D01*
X203779428Y-26354019D01*
X203779428Y-26115923D01*
X203731809Y-26020685D01*
X203493714Y-25544495D02*
X204160380Y-25544495D01*
X203588952Y-25544495D02*
X203541333Y-25496876D01*
X203493714Y-25401638D01*
X203493714Y-25258780D01*
X203541333Y-25163542D01*
X203636571Y-25115923D01*
X204160380Y-25115923D01*
X204112761Y-24687352D02*
X204160380Y-24592114D01*
X204160380Y-24401638D01*
X204112761Y-24306400D01*
X204017523Y-24258780D01*
X203969904Y-24258780D01*
X203874666Y-24306400D01*
X203827047Y-24401638D01*
X203827047Y-24544495D01*
X203779428Y-24639733D01*
X203684190Y-24687352D01*
X203636571Y-24687352D01*
X203541333Y-24639733D01*
X203493714Y-24544495D01*
X203493714Y-24401638D01*
X203541333Y-24306400D01*
G04 #@! TO.C,J6*
X165037142Y-30119580D02*
X165037142Y-29119580D01*
X166084761Y-30119580D02*
X165751428Y-29643390D01*
X165513333Y-30119580D02*
X165513333Y-29119580D01*
X165894285Y-29119580D01*
X165989523Y-29167200D01*
X166037142Y-29214819D01*
X166084761Y-29310057D01*
X166084761Y-29452914D01*
X166037142Y-29548152D01*
X165989523Y-29595771D01*
X165894285Y-29643390D01*
X165513333Y-29643390D01*
X167132380Y-29452914D02*
X167513333Y-29452914D01*
X167275238Y-30119580D02*
X167275238Y-29262438D01*
X167322857Y-29167200D01*
X167418095Y-29119580D01*
X167513333Y-29119580D01*
X167846666Y-30119580D02*
X167846666Y-29452914D01*
X167846666Y-29643390D02*
X167894285Y-29548152D01*
X167941904Y-29500533D01*
X168037142Y-29452914D01*
X168132380Y-29452914D01*
X168608571Y-30119580D02*
X168513333Y-30071961D01*
X168465714Y-30024342D01*
X168418095Y-29929104D01*
X168418095Y-29643390D01*
X168465714Y-29548152D01*
X168513333Y-29500533D01*
X168608571Y-29452914D01*
X168751428Y-29452914D01*
X168846666Y-29500533D01*
X168894285Y-29548152D01*
X168941904Y-29643390D01*
X168941904Y-29929104D01*
X168894285Y-30024342D01*
X168846666Y-30071961D01*
X168751428Y-30119580D01*
X168608571Y-30119580D01*
X169370476Y-30119580D02*
X169370476Y-29452914D01*
X169370476Y-29548152D02*
X169418095Y-29500533D01*
X169513333Y-29452914D01*
X169656190Y-29452914D01*
X169751428Y-29500533D01*
X169799047Y-29595771D01*
X169799047Y-30119580D01*
X169799047Y-29595771D02*
X169846666Y-29500533D01*
X169941904Y-29452914D01*
X170084761Y-29452914D01*
X170180000Y-29500533D01*
X170227619Y-29595771D01*
X170227619Y-30119580D01*
X171894285Y-30119580D02*
X171894285Y-29595771D01*
X171846666Y-29500533D01*
X171751428Y-29452914D01*
X171560952Y-29452914D01*
X171465714Y-29500533D01*
X171894285Y-30071961D02*
X171799047Y-30119580D01*
X171560952Y-30119580D01*
X171465714Y-30071961D01*
X171418095Y-29976723D01*
X171418095Y-29881485D01*
X171465714Y-29786247D01*
X171560952Y-29738628D01*
X171799047Y-29738628D01*
X171894285Y-29691009D01*
X172370476Y-30119580D02*
X172370476Y-29119580D01*
X172370476Y-29500533D02*
X172465714Y-29452914D01*
X172656190Y-29452914D01*
X172751428Y-29500533D01*
X172799047Y-29548152D01*
X172846666Y-29643390D01*
X172846666Y-29929104D01*
X172799047Y-30024342D01*
X172751428Y-30071961D01*
X172656190Y-30119580D01*
X172465714Y-30119580D01*
X172370476Y-30071961D01*
X173418095Y-30119580D02*
X173322857Y-30071961D01*
X173275238Y-30024342D01*
X173227619Y-29929104D01*
X173227619Y-29643390D01*
X173275238Y-29548152D01*
X173322857Y-29500533D01*
X173418095Y-29452914D01*
X173560952Y-29452914D01*
X173656190Y-29500533D01*
X173703809Y-29548152D01*
X173751428Y-29643390D01*
X173751428Y-29929104D01*
X173703809Y-30024342D01*
X173656190Y-30071961D01*
X173560952Y-30119580D01*
X173418095Y-30119580D01*
X174084761Y-29452914D02*
X174322857Y-30119580D01*
X174560952Y-29452914D01*
X175322857Y-30071961D02*
X175227619Y-30119580D01*
X175037142Y-30119580D01*
X174941904Y-30071961D01*
X174894285Y-29976723D01*
X174894285Y-29595771D01*
X174941904Y-29500533D01*
X175037142Y-29452914D01*
X175227619Y-29452914D01*
X175322857Y-29500533D01*
X175370476Y-29595771D01*
X175370476Y-29691009D01*
X174894285Y-29786247D01*
D11*
G04 #@! TO.C,J4*
X187960000Y-24070000D02*
X189290000Y-24070000D01*
X179010000Y-24070000D02*
X179010000Y-26730000D01*
X186690000Y-24070000D02*
X179010000Y-24070000D01*
X189290000Y-24070000D02*
X189290000Y-25400000D01*
X186690000Y-26730000D02*
X179010000Y-26730000D01*
X186690000Y-24070000D02*
X186690000Y-26730000D01*
G04 #@! TO.C,J3*
X134970600Y-39310000D02*
X137570600Y-39310000D01*
X134970600Y-41970000D02*
X137570600Y-41970000D01*
X134970600Y-41970000D02*
X134970600Y-39310000D01*
X137570600Y-41970000D02*
X137570600Y-39310000D01*
X133700600Y-41970000D02*
X132370600Y-41970000D01*
X132370600Y-41970000D02*
X132370600Y-40640000D01*
G04 #@! TO.C,J8*
X201990000Y-34230000D02*
X199330000Y-34230000D01*
X201990000Y-41910000D02*
X199330000Y-41910000D01*
X201990000Y-41910000D02*
X201990000Y-34230000D01*
X201990000Y-43180000D02*
X201990000Y-44510000D01*
X201990000Y-44510000D02*
X200660000Y-44510000D01*
X199330000Y-41910000D02*
X199330000Y-34230000D01*
G04 #@! TO.C,J5*
X169768600Y-39310000D02*
X172368600Y-39310000D01*
X167168600Y-41970000D02*
X167168600Y-40640000D01*
X172368600Y-41970000D02*
X172368600Y-39310000D01*
X169768600Y-41970000D02*
X169768600Y-39310000D01*
X168498600Y-41970000D02*
X167168600Y-41970000D01*
X169768600Y-41970000D02*
X172368600Y-41970000D01*
G04 #@! TO.C,J9*
X69910000Y-34230000D02*
X67250000Y-34230000D01*
X69910000Y-41910000D02*
X69910000Y-34230000D01*
X69910000Y-41910000D02*
X67250000Y-41910000D01*
X69910000Y-44510000D02*
X68580000Y-44510000D01*
X67250000Y-41910000D02*
X67250000Y-34230000D01*
X69910000Y-43180000D02*
X69910000Y-44510000D01*
G04 #@! TO.C,J7*
X100270000Y-41970000D02*
X100270000Y-40640000D01*
X101600000Y-41970000D02*
X100270000Y-41970000D01*
X102870000Y-41970000D02*
X105470000Y-41970000D01*
X105470000Y-41970000D02*
X105470000Y-39310000D01*
X102870000Y-41970000D02*
X102870000Y-39310000D01*
X102870000Y-39310000D02*
X105470000Y-39310000D01*
G04 #@! TO.C,J2*
X67250000Y-22606000D02*
X67250000Y-30286000D01*
X67250000Y-22606000D02*
X69910000Y-22606000D01*
X67250000Y-21336000D02*
X67250000Y-20006000D01*
X69910000Y-22606000D02*
X69910000Y-30286000D01*
X67250000Y-30286000D02*
X69910000Y-30286000D01*
X67250000Y-20006000D02*
X68580000Y-20006000D01*
G04 #@! TO.C,J1*
X199330000Y-20473200D02*
X200660000Y-20473200D01*
X199330000Y-23073200D02*
X199330000Y-30753200D01*
X199330000Y-23073200D02*
X201990000Y-23073200D01*
X201990000Y-23073200D02*
X201990000Y-30753200D01*
X199330000Y-21803200D02*
X199330000Y-20473200D01*
X199330000Y-30753200D02*
X201990000Y-30753200D01*
G04 #@! TO.C,J6*
X168656000Y-33588000D02*
X167326000Y-33588000D01*
X169926000Y-33588000D02*
X172526000Y-33588000D01*
X167326000Y-33588000D02*
X167326000Y-32258000D01*
X169926000Y-30928000D02*
X172526000Y-30928000D01*
X169926000Y-33588000D02*
X169926000Y-30928000D01*
X172526000Y-33588000D02*
X172526000Y-30928000D01*
G04 #@! TD*
M02*
