M48
INCH,TZ
T1C0.0394
%
G90
G05
T1
X27000Y-8400
X27000Y-9400
X27000Y-10400
X27000Y-11400
X27000Y-14000
X27000Y-15000
X27000Y-16000
X27000Y-17000
X40000Y-16000
X41000Y-16000
X52638Y-16000
X53638Y-16000
X66338Y-16000
X66400Y-12700
X67338Y-16000
X67400Y-12700
X71000Y-10000
X72000Y-10000
X73000Y-10000
X74000Y-10000
X79000Y-8584
X79000Y-9584
X79000Y-10584
X79000Y-11584
X79000Y-14000
X79000Y-15000
X79000Y-16000
X79000Y-17000
T0
M30
