G04 #@! TF.GenerationSoftware,KiCad,Pcbnew,(6.0.7)*
G04 #@! TF.CreationDate,2023-03-12T11:39:40-04:00*
G04 #@! TF.ProjectId,IR FANS LED board,49522046-414e-4532-904c-454420626f61,rev?*
G04 #@! TF.SameCoordinates,Original*
G04 #@! TF.FileFunction,Legend,Top*
G04 #@! TF.FilePolarity,Positive*
%FSLAX46Y46*%
G04 Gerber Fmt 4.6, Leading zero omitted, Abs format (unit mm)*
G04 Created by KiCad (PCBNEW (6.0.7)) date 2023-03-12 11:39:40*
%MOMM*%
%LPD*%
G01*
G04 APERTURE LIST*
%ADD10C,0.125000*%
%ADD11C,0.300000*%
%ADD12C,0.200000*%
%ADD13C,0.150000*%
%ADD14C,0.120000*%
G04 APERTURE END LIST*
D10*
X72901428Y-35106000D02*
X72844285Y-35067904D01*
X72758571Y-35067904D01*
X72672857Y-35106000D01*
X72615714Y-35182190D01*
X72587142Y-35258380D01*
X72558571Y-35410761D01*
X72558571Y-35525047D01*
X72587142Y-35677428D01*
X72615714Y-35753619D01*
X72672857Y-35829809D01*
X72758571Y-35867904D01*
X72815714Y-35867904D01*
X72901428Y-35829809D01*
X72930000Y-35791714D01*
X72930000Y-35525047D01*
X72815714Y-35525047D01*
X73187142Y-35867904D02*
X73187142Y-35067904D01*
X73530000Y-35867904D01*
X73530000Y-35067904D01*
X73815714Y-35867904D02*
X73815714Y-35067904D01*
X73958571Y-35067904D01*
X74044285Y-35106000D01*
X74101428Y-35182190D01*
X74130000Y-35258380D01*
X74158571Y-35410761D01*
X74158571Y-35525047D01*
X74130000Y-35677428D01*
X74101428Y-35753619D01*
X74044285Y-35829809D01*
X73958571Y-35867904D01*
X73815714Y-35867904D01*
X74415714Y-35563142D02*
X74872857Y-35563142D01*
X75158571Y-35867904D02*
X75158571Y-35067904D01*
X75158571Y-35372666D02*
X75215714Y-35334571D01*
X75330000Y-35334571D01*
X75387142Y-35372666D01*
X75415714Y-35410761D01*
X75444285Y-35486952D01*
X75444285Y-35715523D01*
X75415714Y-35791714D01*
X75387142Y-35829809D01*
X75330000Y-35867904D01*
X75215714Y-35867904D01*
X75158571Y-35829809D01*
X75787142Y-35867904D02*
X75730000Y-35829809D01*
X75701428Y-35753619D01*
X75701428Y-35067904D01*
X76272857Y-35867904D02*
X76272857Y-35448857D01*
X76244285Y-35372666D01*
X76187142Y-35334571D01*
X76072857Y-35334571D01*
X76015714Y-35372666D01*
X76272857Y-35829809D02*
X76215714Y-35867904D01*
X76072857Y-35867904D01*
X76015714Y-35829809D01*
X75987142Y-35753619D01*
X75987142Y-35677428D01*
X76015714Y-35601238D01*
X76072857Y-35563142D01*
X76215714Y-35563142D01*
X76272857Y-35525047D01*
X76815714Y-35829809D02*
X76758571Y-35867904D01*
X76644285Y-35867904D01*
X76587142Y-35829809D01*
X76558571Y-35791714D01*
X76530000Y-35715523D01*
X76530000Y-35486952D01*
X76558571Y-35410761D01*
X76587142Y-35372666D01*
X76644285Y-35334571D01*
X76758571Y-35334571D01*
X76815714Y-35372666D01*
X77072857Y-35867904D02*
X77072857Y-35067904D01*
X77130000Y-35563142D02*
X77301428Y-35867904D01*
X77301428Y-35334571D02*
X77072857Y-35639333D01*
X72801428Y-38443904D02*
X72458571Y-38443904D01*
X72630000Y-38443904D02*
X72630000Y-37643904D01*
X72572857Y-37758190D01*
X72515714Y-37834380D01*
X72458571Y-37872476D01*
X73030000Y-37720095D02*
X73058571Y-37682000D01*
X73115714Y-37643904D01*
X73258571Y-37643904D01*
X73315714Y-37682000D01*
X73344285Y-37720095D01*
X73372857Y-37796285D01*
X73372857Y-37872476D01*
X73344285Y-37986761D01*
X73001428Y-38443904D01*
X73372857Y-38443904D01*
X73544285Y-37643904D02*
X73744285Y-38443904D01*
X73944285Y-37643904D01*
X74144285Y-38139142D02*
X74601428Y-38139142D01*
X74830000Y-37910571D02*
X74972857Y-38443904D01*
X75115714Y-37910571D02*
X74972857Y-38443904D01*
X74915714Y-38634380D01*
X74887142Y-38672476D01*
X74830000Y-38710571D01*
X75572857Y-38405809D02*
X75515714Y-38443904D01*
X75401428Y-38443904D01*
X75344285Y-38405809D01*
X75315714Y-38329619D01*
X75315714Y-38024857D01*
X75344285Y-37948666D01*
X75401428Y-37910571D01*
X75515714Y-37910571D01*
X75572857Y-37948666D01*
X75601428Y-38024857D01*
X75601428Y-38101047D01*
X75315714Y-38177238D01*
X75944285Y-38443904D02*
X75887142Y-38405809D01*
X75858571Y-38329619D01*
X75858571Y-37643904D01*
X76258571Y-38443904D02*
X76201428Y-38405809D01*
X76172857Y-38329619D01*
X76172857Y-37643904D01*
X76572857Y-38443904D02*
X76515714Y-38405809D01*
X76487142Y-38367714D01*
X76458571Y-38291523D01*
X76458571Y-38062952D01*
X76487142Y-37986761D01*
X76515714Y-37948666D01*
X76572857Y-37910571D01*
X76658571Y-37910571D01*
X76715714Y-37948666D01*
X76744285Y-37986761D01*
X76772857Y-38062952D01*
X76772857Y-38291523D01*
X76744285Y-38367714D01*
X76715714Y-38405809D01*
X76658571Y-38443904D01*
X76572857Y-38443904D01*
X76972857Y-37910571D02*
X77087142Y-38443904D01*
X77201428Y-38062952D01*
X77315714Y-38443904D01*
X77430000Y-37910571D01*
X72315714Y-43557809D02*
X72401428Y-43595904D01*
X72544285Y-43595904D01*
X72601428Y-43557809D01*
X72630000Y-43519714D01*
X72658571Y-43443523D01*
X72658571Y-43367333D01*
X72630000Y-43291142D01*
X72601428Y-43253047D01*
X72544285Y-43214952D01*
X72430000Y-43176857D01*
X72372857Y-43138761D01*
X72344285Y-43100666D01*
X72315714Y-43024476D01*
X72315714Y-42948285D01*
X72344285Y-42872095D01*
X72372857Y-42834000D01*
X72430000Y-42795904D01*
X72572857Y-42795904D01*
X72658571Y-42834000D01*
X72915714Y-43595904D02*
X72915714Y-43062571D01*
X72915714Y-42795904D02*
X72887142Y-42834000D01*
X72915714Y-42872095D01*
X72944285Y-42834000D01*
X72915714Y-42795904D01*
X72915714Y-42872095D01*
X73458571Y-43062571D02*
X73458571Y-43710190D01*
X73430000Y-43786380D01*
X73401428Y-43824476D01*
X73344285Y-43862571D01*
X73258571Y-43862571D01*
X73201428Y-43824476D01*
X73458571Y-43557809D02*
X73401428Y-43595904D01*
X73287142Y-43595904D01*
X73230000Y-43557809D01*
X73201428Y-43519714D01*
X73172857Y-43443523D01*
X73172857Y-43214952D01*
X73201428Y-43138761D01*
X73230000Y-43100666D01*
X73287142Y-43062571D01*
X73401428Y-43062571D01*
X73458571Y-43100666D01*
X73744285Y-43062571D02*
X73744285Y-43595904D01*
X73744285Y-43138761D02*
X73772857Y-43100666D01*
X73830000Y-43062571D01*
X73915714Y-43062571D01*
X73972857Y-43100666D01*
X74001428Y-43176857D01*
X74001428Y-43595904D01*
X74544285Y-43595904D02*
X74544285Y-43176857D01*
X74515714Y-43100666D01*
X74458571Y-43062571D01*
X74344285Y-43062571D01*
X74287142Y-43100666D01*
X74544285Y-43557809D02*
X74487142Y-43595904D01*
X74344285Y-43595904D01*
X74287142Y-43557809D01*
X74258571Y-43481619D01*
X74258571Y-43405428D01*
X74287142Y-43329238D01*
X74344285Y-43291142D01*
X74487142Y-43291142D01*
X74544285Y-43253047D01*
X74915714Y-43595904D02*
X74858571Y-43557809D01*
X74830000Y-43481619D01*
X74830000Y-42795904D01*
X75144285Y-43291142D02*
X75601428Y-43291142D01*
X75887142Y-43595904D02*
X75887142Y-42795904D01*
X75887142Y-43100666D02*
X75944285Y-43062571D01*
X76058571Y-43062571D01*
X76115714Y-43100666D01*
X76144285Y-43138761D01*
X76172857Y-43214952D01*
X76172857Y-43443523D01*
X76144285Y-43519714D01*
X76115714Y-43557809D01*
X76058571Y-43595904D01*
X75944285Y-43595904D01*
X75887142Y-43557809D01*
X76515714Y-43595904D02*
X76458571Y-43557809D01*
X76430000Y-43481619D01*
X76430000Y-42795904D01*
X77001428Y-43062571D02*
X77001428Y-43595904D01*
X76744285Y-43062571D02*
X76744285Y-43481619D01*
X76772857Y-43557809D01*
X76830000Y-43595904D01*
X76915714Y-43595904D01*
X76972857Y-43557809D01*
X77001428Y-43519714D01*
X77515714Y-43557809D02*
X77458571Y-43595904D01*
X77344285Y-43595904D01*
X77287142Y-43557809D01*
X77258571Y-43481619D01*
X77258571Y-43176857D01*
X77287142Y-43100666D01*
X77344285Y-43062571D01*
X77458571Y-43062571D01*
X77515714Y-43100666D01*
X77544285Y-43176857D01*
X77544285Y-43253047D01*
X77258571Y-43329238D01*
X172595000Y-33270571D02*
X172547380Y-33327714D01*
X172547380Y-33413428D01*
X172595000Y-33499142D01*
X172690238Y-33556285D01*
X172785476Y-33584857D01*
X172975952Y-33613428D01*
X173118809Y-33613428D01*
X173309285Y-33584857D01*
X173404523Y-33556285D01*
X173499761Y-33499142D01*
X173547380Y-33413428D01*
X173547380Y-33356285D01*
X173499761Y-33270571D01*
X173452142Y-33242000D01*
X173118809Y-33242000D01*
X173118809Y-33356285D01*
X173547380Y-32984857D02*
X172547380Y-32984857D01*
X173547380Y-32642000D01*
X172547380Y-32642000D01*
X173547380Y-32356285D02*
X172547380Y-32356285D01*
X172547380Y-32213428D01*
X172595000Y-32127714D01*
X172690238Y-32070571D01*
X172785476Y-32042000D01*
X172975952Y-32013428D01*
X173118809Y-32013428D01*
X173309285Y-32042000D01*
X173404523Y-32070571D01*
X173499761Y-32127714D01*
X173547380Y-32213428D01*
X173547380Y-32356285D01*
X173166428Y-31756285D02*
X173166428Y-31299142D01*
X173547380Y-31013428D02*
X172547380Y-31013428D01*
X172928333Y-31013428D02*
X172880714Y-30956285D01*
X172880714Y-30842000D01*
X172928333Y-30784857D01*
X172975952Y-30756285D01*
X173071190Y-30727714D01*
X173356904Y-30727714D01*
X173452142Y-30756285D01*
X173499761Y-30784857D01*
X173547380Y-30842000D01*
X173547380Y-30956285D01*
X173499761Y-31013428D01*
X173547380Y-30384857D02*
X173499761Y-30442000D01*
X173404523Y-30470571D01*
X172547380Y-30470571D01*
X173547380Y-29899142D02*
X173023571Y-29899142D01*
X172928333Y-29927714D01*
X172880714Y-29984857D01*
X172880714Y-30099142D01*
X172928333Y-30156285D01*
X173499761Y-29899142D02*
X173547380Y-29956285D01*
X173547380Y-30099142D01*
X173499761Y-30156285D01*
X173404523Y-30184857D01*
X173309285Y-30184857D01*
X173214047Y-30156285D01*
X173166428Y-30099142D01*
X173166428Y-29956285D01*
X173118809Y-29899142D01*
X173499761Y-29356285D02*
X173547380Y-29413428D01*
X173547380Y-29527714D01*
X173499761Y-29584857D01*
X173452142Y-29613428D01*
X173356904Y-29642000D01*
X173071190Y-29642000D01*
X172975952Y-29613428D01*
X172928333Y-29584857D01*
X172880714Y-29527714D01*
X172880714Y-29413428D01*
X172928333Y-29356285D01*
X173547380Y-29099142D02*
X172547380Y-29099142D01*
X173166428Y-29042000D02*
X173547380Y-28870571D01*
X172880714Y-28870571D02*
X173261666Y-29099142D01*
X178377380Y-33370571D02*
X178377380Y-33713428D01*
X178377380Y-33542000D02*
X177377380Y-33542000D01*
X177520238Y-33599142D01*
X177615476Y-33656285D01*
X177663095Y-33713428D01*
X177472619Y-33142000D02*
X177425000Y-33113428D01*
X177377380Y-33056285D01*
X177377380Y-32913428D01*
X177425000Y-32856285D01*
X177472619Y-32827714D01*
X177567857Y-32799142D01*
X177663095Y-32799142D01*
X177805952Y-32827714D01*
X178377380Y-33170571D01*
X178377380Y-32799142D01*
X177377380Y-32627714D02*
X178377380Y-32427714D01*
X177377380Y-32227714D01*
X177996428Y-32027714D02*
X177996428Y-31570571D01*
X177710714Y-31342000D02*
X178377380Y-31199142D01*
X177710714Y-31056285D02*
X178377380Y-31199142D01*
X178615476Y-31256285D01*
X178663095Y-31284857D01*
X178710714Y-31342000D01*
X178329761Y-30599142D02*
X178377380Y-30656285D01*
X178377380Y-30770571D01*
X178329761Y-30827714D01*
X178234523Y-30856285D01*
X177853571Y-30856285D01*
X177758333Y-30827714D01*
X177710714Y-30770571D01*
X177710714Y-30656285D01*
X177758333Y-30599142D01*
X177853571Y-30570571D01*
X177948809Y-30570571D01*
X178044047Y-30856285D01*
X178377380Y-30227714D02*
X178329761Y-30284857D01*
X178234523Y-30313428D01*
X177377380Y-30313428D01*
X178377380Y-29913428D02*
X178329761Y-29970571D01*
X178234523Y-29999142D01*
X177377380Y-29999142D01*
X178377380Y-29599142D02*
X178329761Y-29656285D01*
X178282142Y-29684857D01*
X178186904Y-29713428D01*
X177901190Y-29713428D01*
X177805952Y-29684857D01*
X177758333Y-29656285D01*
X177710714Y-29599142D01*
X177710714Y-29513428D01*
X177758333Y-29456285D01*
X177805952Y-29427714D01*
X177901190Y-29399142D01*
X178186904Y-29399142D01*
X178282142Y-29427714D01*
X178329761Y-29456285D01*
X178377380Y-29513428D01*
X178377380Y-29599142D01*
X177710714Y-29199142D02*
X178377380Y-29084857D01*
X177901190Y-28970571D01*
X178377380Y-28856285D01*
X177710714Y-28742000D01*
X187989761Y-33856285D02*
X188037380Y-33770571D01*
X188037380Y-33627714D01*
X187989761Y-33570571D01*
X187942142Y-33542000D01*
X187846904Y-33513428D01*
X187751666Y-33513428D01*
X187656428Y-33542000D01*
X187608809Y-33570571D01*
X187561190Y-33627714D01*
X187513571Y-33742000D01*
X187465952Y-33799142D01*
X187418333Y-33827714D01*
X187323095Y-33856285D01*
X187227857Y-33856285D01*
X187132619Y-33827714D01*
X187085000Y-33799142D01*
X187037380Y-33742000D01*
X187037380Y-33599142D01*
X187085000Y-33513428D01*
X188037380Y-33256285D02*
X187370714Y-33256285D01*
X187037380Y-33256285D02*
X187085000Y-33284857D01*
X187132619Y-33256285D01*
X187085000Y-33227714D01*
X187037380Y-33256285D01*
X187132619Y-33256285D01*
X187370714Y-32713428D02*
X188180238Y-32713428D01*
X188275476Y-32742000D01*
X188323095Y-32770571D01*
X188370714Y-32827714D01*
X188370714Y-32913428D01*
X188323095Y-32970571D01*
X187989761Y-32713428D02*
X188037380Y-32770571D01*
X188037380Y-32884857D01*
X187989761Y-32942000D01*
X187942142Y-32970571D01*
X187846904Y-32999142D01*
X187561190Y-32999142D01*
X187465952Y-32970571D01*
X187418333Y-32942000D01*
X187370714Y-32884857D01*
X187370714Y-32770571D01*
X187418333Y-32713428D01*
X187370714Y-32427714D02*
X188037380Y-32427714D01*
X187465952Y-32427714D02*
X187418333Y-32399142D01*
X187370714Y-32342000D01*
X187370714Y-32256285D01*
X187418333Y-32199142D01*
X187513571Y-32170571D01*
X188037380Y-32170571D01*
X188037380Y-31627714D02*
X187513571Y-31627714D01*
X187418333Y-31656285D01*
X187370714Y-31713428D01*
X187370714Y-31827714D01*
X187418333Y-31884857D01*
X187989761Y-31627714D02*
X188037380Y-31684857D01*
X188037380Y-31827714D01*
X187989761Y-31884857D01*
X187894523Y-31913428D01*
X187799285Y-31913428D01*
X187704047Y-31884857D01*
X187656428Y-31827714D01*
X187656428Y-31684857D01*
X187608809Y-31627714D01*
X188037380Y-31256285D02*
X187989761Y-31313428D01*
X187894523Y-31342000D01*
X187037380Y-31342000D01*
X187656428Y-31027714D02*
X187656428Y-30570571D01*
X188037380Y-30284857D02*
X187037380Y-30284857D01*
X187418333Y-30284857D02*
X187370714Y-30227714D01*
X187370714Y-30113428D01*
X187418333Y-30056285D01*
X187465952Y-30027714D01*
X187561190Y-29999142D01*
X187846904Y-29999142D01*
X187942142Y-30027714D01*
X187989761Y-30056285D01*
X188037380Y-30113428D01*
X188037380Y-30227714D01*
X187989761Y-30284857D01*
X188037380Y-29656285D02*
X187989761Y-29713428D01*
X187894523Y-29742000D01*
X187037380Y-29742000D01*
X187370714Y-29170571D02*
X188037380Y-29170571D01*
X187370714Y-29427714D02*
X187894523Y-29427714D01*
X187989761Y-29399142D01*
X188037380Y-29342000D01*
X188037380Y-29256285D01*
X187989761Y-29199142D01*
X187942142Y-29170571D01*
X187989761Y-28656285D02*
X188037380Y-28713428D01*
X188037380Y-28827714D01*
X187989761Y-28884857D01*
X187894523Y-28913428D01*
X187513571Y-28913428D01*
X187418333Y-28884857D01*
X187370714Y-28827714D01*
X187370714Y-28713428D01*
X187418333Y-28656285D01*
X187513571Y-28627714D01*
X187608809Y-28627714D01*
X187704047Y-28913428D01*
X192281428Y-35106000D02*
X192224285Y-35067904D01*
X192138571Y-35067904D01*
X192052857Y-35106000D01*
X191995714Y-35182190D01*
X191967142Y-35258380D01*
X191938571Y-35410761D01*
X191938571Y-35525047D01*
X191967142Y-35677428D01*
X191995714Y-35753619D01*
X192052857Y-35829809D01*
X192138571Y-35867904D01*
X192195714Y-35867904D01*
X192281428Y-35829809D01*
X192310000Y-35791714D01*
X192310000Y-35525047D01*
X192195714Y-35525047D01*
X192567142Y-35867904D02*
X192567142Y-35067904D01*
X192910000Y-35867904D01*
X192910000Y-35067904D01*
X193195714Y-35867904D02*
X193195714Y-35067904D01*
X193338571Y-35067904D01*
X193424285Y-35106000D01*
X193481428Y-35182190D01*
X193510000Y-35258380D01*
X193538571Y-35410761D01*
X193538571Y-35525047D01*
X193510000Y-35677428D01*
X193481428Y-35753619D01*
X193424285Y-35829809D01*
X193338571Y-35867904D01*
X193195714Y-35867904D01*
X193795714Y-35563142D02*
X194252857Y-35563142D01*
X194538571Y-35867904D02*
X194538571Y-35067904D01*
X194538571Y-35372666D02*
X194595714Y-35334571D01*
X194710000Y-35334571D01*
X194767142Y-35372666D01*
X194795714Y-35410761D01*
X194824285Y-35486952D01*
X194824285Y-35715523D01*
X194795714Y-35791714D01*
X194767142Y-35829809D01*
X194710000Y-35867904D01*
X194595714Y-35867904D01*
X194538571Y-35829809D01*
X195167142Y-35867904D02*
X195110000Y-35829809D01*
X195081428Y-35753619D01*
X195081428Y-35067904D01*
X195652857Y-35867904D02*
X195652857Y-35448857D01*
X195624285Y-35372666D01*
X195567142Y-35334571D01*
X195452857Y-35334571D01*
X195395714Y-35372666D01*
X195652857Y-35829809D02*
X195595714Y-35867904D01*
X195452857Y-35867904D01*
X195395714Y-35829809D01*
X195367142Y-35753619D01*
X195367142Y-35677428D01*
X195395714Y-35601238D01*
X195452857Y-35563142D01*
X195595714Y-35563142D01*
X195652857Y-35525047D01*
X196195714Y-35829809D02*
X196138571Y-35867904D01*
X196024285Y-35867904D01*
X195967142Y-35829809D01*
X195938571Y-35791714D01*
X195910000Y-35715523D01*
X195910000Y-35486952D01*
X195938571Y-35410761D01*
X195967142Y-35372666D01*
X196024285Y-35334571D01*
X196138571Y-35334571D01*
X196195714Y-35372666D01*
X196452857Y-35867904D02*
X196452857Y-35067904D01*
X196510000Y-35563142D02*
X196681428Y-35867904D01*
X196681428Y-35334571D02*
X196452857Y-35639333D01*
X192181428Y-38443904D02*
X191838571Y-38443904D01*
X192010000Y-38443904D02*
X192010000Y-37643904D01*
X191952857Y-37758190D01*
X191895714Y-37834380D01*
X191838571Y-37872476D01*
X192410000Y-37720095D02*
X192438571Y-37682000D01*
X192495714Y-37643904D01*
X192638571Y-37643904D01*
X192695714Y-37682000D01*
X192724285Y-37720095D01*
X192752857Y-37796285D01*
X192752857Y-37872476D01*
X192724285Y-37986761D01*
X192381428Y-38443904D01*
X192752857Y-38443904D01*
X192924285Y-37643904D02*
X193124285Y-38443904D01*
X193324285Y-37643904D01*
X193524285Y-38139142D02*
X193981428Y-38139142D01*
X194210000Y-37910571D02*
X194352857Y-38443904D01*
X194495714Y-37910571D02*
X194352857Y-38443904D01*
X194295714Y-38634380D01*
X194267142Y-38672476D01*
X194210000Y-38710571D01*
X194952857Y-38405809D02*
X194895714Y-38443904D01*
X194781428Y-38443904D01*
X194724285Y-38405809D01*
X194695714Y-38329619D01*
X194695714Y-38024857D01*
X194724285Y-37948666D01*
X194781428Y-37910571D01*
X194895714Y-37910571D01*
X194952857Y-37948666D01*
X194981428Y-38024857D01*
X194981428Y-38101047D01*
X194695714Y-38177238D01*
X195324285Y-38443904D02*
X195267142Y-38405809D01*
X195238571Y-38329619D01*
X195238571Y-37643904D01*
X195638571Y-38443904D02*
X195581428Y-38405809D01*
X195552857Y-38329619D01*
X195552857Y-37643904D01*
X195952857Y-38443904D02*
X195895714Y-38405809D01*
X195867142Y-38367714D01*
X195838571Y-38291523D01*
X195838571Y-38062952D01*
X195867142Y-37986761D01*
X195895714Y-37948666D01*
X195952857Y-37910571D01*
X196038571Y-37910571D01*
X196095714Y-37948666D01*
X196124285Y-37986761D01*
X196152857Y-38062952D01*
X196152857Y-38291523D01*
X196124285Y-38367714D01*
X196095714Y-38405809D01*
X196038571Y-38443904D01*
X195952857Y-38443904D01*
X196352857Y-37910571D02*
X196467142Y-38443904D01*
X196581428Y-38062952D01*
X196695714Y-38443904D01*
X196810000Y-37910571D01*
X191695714Y-43557809D02*
X191781428Y-43595904D01*
X191924285Y-43595904D01*
X191981428Y-43557809D01*
X192010000Y-43519714D01*
X192038571Y-43443523D01*
X192038571Y-43367333D01*
X192010000Y-43291142D01*
X191981428Y-43253047D01*
X191924285Y-43214952D01*
X191810000Y-43176857D01*
X191752857Y-43138761D01*
X191724285Y-43100666D01*
X191695714Y-43024476D01*
X191695714Y-42948285D01*
X191724285Y-42872095D01*
X191752857Y-42834000D01*
X191810000Y-42795904D01*
X191952857Y-42795904D01*
X192038571Y-42834000D01*
X192295714Y-43595904D02*
X192295714Y-43062571D01*
X192295714Y-42795904D02*
X192267142Y-42834000D01*
X192295714Y-42872095D01*
X192324285Y-42834000D01*
X192295714Y-42795904D01*
X192295714Y-42872095D01*
X192838571Y-43062571D02*
X192838571Y-43710190D01*
X192810000Y-43786380D01*
X192781428Y-43824476D01*
X192724285Y-43862571D01*
X192638571Y-43862571D01*
X192581428Y-43824476D01*
X192838571Y-43557809D02*
X192781428Y-43595904D01*
X192667142Y-43595904D01*
X192610000Y-43557809D01*
X192581428Y-43519714D01*
X192552857Y-43443523D01*
X192552857Y-43214952D01*
X192581428Y-43138761D01*
X192610000Y-43100666D01*
X192667142Y-43062571D01*
X192781428Y-43062571D01*
X192838571Y-43100666D01*
X193124285Y-43062571D02*
X193124285Y-43595904D01*
X193124285Y-43138761D02*
X193152857Y-43100666D01*
X193210000Y-43062571D01*
X193295714Y-43062571D01*
X193352857Y-43100666D01*
X193381428Y-43176857D01*
X193381428Y-43595904D01*
X193924285Y-43595904D02*
X193924285Y-43176857D01*
X193895714Y-43100666D01*
X193838571Y-43062571D01*
X193724285Y-43062571D01*
X193667142Y-43100666D01*
X193924285Y-43557809D02*
X193867142Y-43595904D01*
X193724285Y-43595904D01*
X193667142Y-43557809D01*
X193638571Y-43481619D01*
X193638571Y-43405428D01*
X193667142Y-43329238D01*
X193724285Y-43291142D01*
X193867142Y-43291142D01*
X193924285Y-43253047D01*
X194295714Y-43595904D02*
X194238571Y-43557809D01*
X194210000Y-43481619D01*
X194210000Y-42795904D01*
X194524285Y-43291142D02*
X194981428Y-43291142D01*
X195267142Y-43595904D02*
X195267142Y-42795904D01*
X195267142Y-43100666D02*
X195324285Y-43062571D01*
X195438571Y-43062571D01*
X195495714Y-43100666D01*
X195524285Y-43138761D01*
X195552857Y-43214952D01*
X195552857Y-43443523D01*
X195524285Y-43519714D01*
X195495714Y-43557809D01*
X195438571Y-43595904D01*
X195324285Y-43595904D01*
X195267142Y-43557809D01*
X195895714Y-43595904D02*
X195838571Y-43557809D01*
X195810000Y-43481619D01*
X195810000Y-42795904D01*
X196381428Y-43062571D02*
X196381428Y-43595904D01*
X196124285Y-43062571D02*
X196124285Y-43481619D01*
X196152857Y-43557809D01*
X196210000Y-43595904D01*
X196295714Y-43595904D01*
X196352857Y-43557809D01*
X196381428Y-43519714D01*
X196895714Y-43557809D02*
X196838571Y-43595904D01*
X196724285Y-43595904D01*
X196667142Y-43557809D01*
X196638571Y-43481619D01*
X196638571Y-43176857D01*
X196667142Y-43100666D01*
X196724285Y-43062571D01*
X196838571Y-43062571D01*
X196895714Y-43100666D01*
X196924285Y-43176857D01*
X196924285Y-43253047D01*
X196638571Y-43329238D01*
D11*
X131342142Y-45827142D02*
X132485000Y-45827142D01*
X135485000Y-45827142D02*
X136627857Y-45827142D01*
X136056428Y-46398571D02*
X136056428Y-45255714D01*
X166267142Y-45827142D02*
X167410000Y-45827142D01*
X170410000Y-45827142D02*
X171552857Y-45827142D01*
X170981428Y-46398571D02*
X170981428Y-45255714D01*
D12*
X111976285Y-30154571D02*
X112119142Y-30202190D01*
X112166761Y-30249809D01*
X112214380Y-30345047D01*
X112214380Y-30487904D01*
X112166761Y-30583142D01*
X112119142Y-30630761D01*
X112023904Y-30678380D01*
X111642952Y-30678380D01*
X111642952Y-29678380D01*
X111976285Y-29678380D01*
X112071523Y-29726000D01*
X112119142Y-29773619D01*
X112166761Y-29868857D01*
X112166761Y-29964095D01*
X112119142Y-30059333D01*
X112071523Y-30106952D01*
X111976285Y-30154571D01*
X111642952Y-30154571D01*
X112547714Y-30011714D02*
X112785809Y-30678380D01*
X113023904Y-30011714D02*
X112785809Y-30678380D01*
X112690571Y-30916476D01*
X112642952Y-30964095D01*
X112547714Y-31011714D01*
X114023904Y-30011714D02*
X114404857Y-30011714D01*
X114166761Y-29678380D02*
X114166761Y-30535523D01*
X114214380Y-30630761D01*
X114309619Y-30678380D01*
X114404857Y-30678380D01*
X114738190Y-30678380D02*
X114738190Y-29678380D01*
X115166761Y-30678380D02*
X115166761Y-30154571D01*
X115119142Y-30059333D01*
X115023904Y-30011714D01*
X114881047Y-30011714D01*
X114785809Y-30059333D01*
X114738190Y-30106952D01*
X116023904Y-30630761D02*
X115928666Y-30678380D01*
X115738190Y-30678380D01*
X115642952Y-30630761D01*
X115595333Y-30535523D01*
X115595333Y-30154571D01*
X115642952Y-30059333D01*
X115738190Y-30011714D01*
X115928666Y-30011714D01*
X116023904Y-30059333D01*
X116071523Y-30154571D01*
X116071523Y-30249809D01*
X115595333Y-30345047D01*
X117214380Y-29773619D02*
X117261999Y-29726000D01*
X117357238Y-29678380D01*
X117595333Y-29678380D01*
X117690571Y-29726000D01*
X117738190Y-29773619D01*
X117785809Y-29868857D01*
X117785809Y-29964095D01*
X117738190Y-30106952D01*
X117166761Y-30678380D01*
X117785809Y-30678380D01*
X118404857Y-29678380D02*
X118500095Y-29678380D01*
X118595333Y-29726000D01*
X118642952Y-29773619D01*
X118690571Y-29868857D01*
X118738190Y-30059333D01*
X118738190Y-30297428D01*
X118690571Y-30487904D01*
X118642952Y-30583142D01*
X118595333Y-30630761D01*
X118500095Y-30678380D01*
X118404857Y-30678380D01*
X118309619Y-30630761D01*
X118261999Y-30583142D01*
X118214380Y-30487904D01*
X118166761Y-30297428D01*
X118166761Y-30059333D01*
X118214380Y-29868857D01*
X118261999Y-29773619D01*
X118309619Y-29726000D01*
X118404857Y-29678380D01*
X119119142Y-29773619D02*
X119166761Y-29726000D01*
X119261999Y-29678380D01*
X119500095Y-29678380D01*
X119595333Y-29726000D01*
X119642952Y-29773619D01*
X119690571Y-29868857D01*
X119690571Y-29964095D01*
X119642952Y-30106952D01*
X119071523Y-30678380D01*
X119690571Y-30678380D01*
X120071523Y-29773619D02*
X120119142Y-29726000D01*
X120214380Y-29678380D01*
X120452476Y-29678380D01*
X120547714Y-29726000D01*
X120595333Y-29773619D01*
X120642952Y-29868857D01*
X120642952Y-29964095D01*
X120595333Y-30106952D01*
X120023904Y-30678380D01*
X120642952Y-30678380D01*
X121071523Y-30297428D02*
X121833428Y-30297428D01*
X122261999Y-29773619D02*
X122309619Y-29726000D01*
X122404857Y-29678380D01*
X122642952Y-29678380D01*
X122738190Y-29726000D01*
X122785809Y-29773619D01*
X122833428Y-29868857D01*
X122833428Y-29964095D01*
X122785809Y-30106952D01*
X122214380Y-30678380D01*
X122833428Y-30678380D01*
X123166761Y-29678380D02*
X123785809Y-29678380D01*
X123452476Y-30059333D01*
X123595333Y-30059333D01*
X123690571Y-30106952D01*
X123738190Y-30154571D01*
X123785809Y-30249809D01*
X123785809Y-30487904D01*
X123738190Y-30583142D01*
X123690571Y-30630761D01*
X123595333Y-30678380D01*
X123309619Y-30678380D01*
X123214380Y-30630761D01*
X123166761Y-30583142D01*
X125166761Y-29678380D02*
X125357238Y-29678380D01*
X125452476Y-29726000D01*
X125547714Y-29821238D01*
X125595333Y-30011714D01*
X125595333Y-30345047D01*
X125547714Y-30535523D01*
X125452476Y-30630761D01*
X125357238Y-30678380D01*
X125166761Y-30678380D01*
X125071523Y-30630761D01*
X124976285Y-30535523D01*
X124928666Y-30345047D01*
X124928666Y-30011714D01*
X124976285Y-29821238D01*
X125071523Y-29726000D01*
X125166761Y-29678380D01*
X126166761Y-30678380D02*
X126071523Y-30630761D01*
X126023904Y-30535523D01*
X126023904Y-29678380D01*
X126547714Y-30678380D02*
X126547714Y-30011714D01*
X126547714Y-29678380D02*
X126500095Y-29726000D01*
X126547714Y-29773619D01*
X126595333Y-29726000D01*
X126547714Y-29678380D01*
X126547714Y-29773619D01*
X127023904Y-30011714D02*
X127023904Y-30678380D01*
X127023904Y-30106952D02*
X127071523Y-30059333D01*
X127166761Y-30011714D01*
X127309619Y-30011714D01*
X127404857Y-30059333D01*
X127452476Y-30154571D01*
X127452476Y-30678380D01*
X129261999Y-30583142D02*
X129214380Y-30630761D01*
X129071523Y-30678380D01*
X128976285Y-30678380D01*
X128833428Y-30630761D01*
X128738190Y-30535523D01*
X128690571Y-30440285D01*
X128642952Y-30249809D01*
X128642952Y-30106952D01*
X128690571Y-29916476D01*
X128738190Y-29821238D01*
X128833428Y-29726000D01*
X128976285Y-29678380D01*
X129071523Y-29678380D01*
X129214380Y-29726000D01*
X129261999Y-29773619D01*
X129833428Y-30678380D02*
X129738190Y-30630761D01*
X129690571Y-30583142D01*
X129642952Y-30487904D01*
X129642952Y-30202190D01*
X129690571Y-30106952D01*
X129738190Y-30059333D01*
X129833428Y-30011714D01*
X129976285Y-30011714D01*
X130071523Y-30059333D01*
X130119142Y-30106952D01*
X130166761Y-30202190D01*
X130166761Y-30487904D01*
X130119142Y-30583142D01*
X130071523Y-30630761D01*
X129976285Y-30678380D01*
X129833428Y-30678380D01*
X130738190Y-30678380D02*
X130642952Y-30630761D01*
X130595333Y-30535523D01*
X130595333Y-29678380D01*
X131261999Y-30678380D02*
X131166761Y-30630761D01*
X131119142Y-30535523D01*
X131119142Y-29678380D01*
X132023904Y-30630761D02*
X131928666Y-30678380D01*
X131738190Y-30678380D01*
X131642952Y-30630761D01*
X131595333Y-30535523D01*
X131595333Y-30154571D01*
X131642952Y-30059333D01*
X131738190Y-30011714D01*
X131928666Y-30011714D01*
X132023904Y-30059333D01*
X132071523Y-30154571D01*
X132071523Y-30249809D01*
X131595333Y-30345047D01*
X132928666Y-30011714D02*
X132928666Y-30821238D01*
X132881047Y-30916476D01*
X132833428Y-30964095D01*
X132738190Y-31011714D01*
X132595333Y-31011714D01*
X132500095Y-30964095D01*
X132928666Y-30630761D02*
X132833428Y-30678380D01*
X132642952Y-30678380D01*
X132547714Y-30630761D01*
X132500095Y-30583142D01*
X132452476Y-30487904D01*
X132452476Y-30202190D01*
X132500095Y-30106952D01*
X132547714Y-30059333D01*
X132642952Y-30011714D01*
X132833428Y-30011714D01*
X132928666Y-30059333D01*
X133785809Y-30630761D02*
X133690571Y-30678380D01*
X133500095Y-30678380D01*
X133404857Y-30630761D01*
X133357238Y-30535523D01*
X133357238Y-30154571D01*
X133404857Y-30059333D01*
X133500095Y-30011714D01*
X133690571Y-30011714D01*
X133785809Y-30059333D01*
X133833428Y-30154571D01*
X133833428Y-30249809D01*
X133357238Y-30345047D01*
X134976285Y-30630761D02*
X135119142Y-30678380D01*
X135357238Y-30678380D01*
X135452476Y-30630761D01*
X135500095Y-30583142D01*
X135547714Y-30487904D01*
X135547714Y-30392666D01*
X135500095Y-30297428D01*
X135452476Y-30249809D01*
X135357238Y-30202190D01*
X135166761Y-30154571D01*
X135071523Y-30106952D01*
X135023904Y-30059333D01*
X134976285Y-29964095D01*
X134976285Y-29868857D01*
X135023904Y-29773619D01*
X135071523Y-29726000D01*
X135166761Y-29678380D01*
X135404857Y-29678380D01*
X135547714Y-29726000D01*
X136547714Y-30583142D02*
X136500095Y-30630761D01*
X136357238Y-30678380D01*
X136261999Y-30678380D01*
X136119142Y-30630761D01*
X136023904Y-30535523D01*
X135976285Y-30440285D01*
X135928666Y-30249809D01*
X135928666Y-30106952D01*
X135976285Y-29916476D01*
X136023904Y-29821238D01*
X136119142Y-29726000D01*
X136261999Y-29678380D01*
X136357238Y-29678380D01*
X136500095Y-29726000D01*
X136547714Y-29773619D01*
X137166761Y-29678380D02*
X137357238Y-29678380D01*
X137452476Y-29726000D01*
X137547714Y-29821238D01*
X137595333Y-30011714D01*
X137595333Y-30345047D01*
X137547714Y-30535523D01*
X137452476Y-30630761D01*
X137357238Y-30678380D01*
X137166761Y-30678380D01*
X137071523Y-30630761D01*
X136976285Y-30535523D01*
X136928666Y-30345047D01*
X136928666Y-30011714D01*
X136976285Y-29821238D01*
X137071523Y-29726000D01*
X137166761Y-29678380D01*
X138023904Y-30678380D02*
X138023904Y-29678380D01*
X138404857Y-29678380D01*
X138500095Y-29726000D01*
X138547714Y-29773619D01*
X138595333Y-29868857D01*
X138595333Y-30011714D01*
X138547714Y-30106952D01*
X138500095Y-30154571D01*
X138404857Y-30202190D01*
X138023904Y-30202190D01*
X139023904Y-30154571D02*
X139357238Y-30154571D01*
X139500095Y-30678380D02*
X139023904Y-30678380D01*
X139023904Y-29678380D01*
X139500095Y-29678380D01*
X140547714Y-30011714D02*
X140928666Y-30011714D01*
X140690571Y-29678380D02*
X140690571Y-30535523D01*
X140738190Y-30630761D01*
X140833428Y-30678380D01*
X140928666Y-30678380D01*
X141642952Y-30630761D02*
X141547714Y-30678380D01*
X141357238Y-30678380D01*
X141261999Y-30630761D01*
X141214380Y-30535523D01*
X141214380Y-30154571D01*
X141261999Y-30059333D01*
X141357238Y-30011714D01*
X141547714Y-30011714D01*
X141642952Y-30059333D01*
X141690571Y-30154571D01*
X141690571Y-30249809D01*
X141214380Y-30345047D01*
X142547714Y-30678380D02*
X142547714Y-30154571D01*
X142500095Y-30059333D01*
X142404857Y-30011714D01*
X142214380Y-30011714D01*
X142119142Y-30059333D01*
X142547714Y-30630761D02*
X142452476Y-30678380D01*
X142214380Y-30678380D01*
X142119142Y-30630761D01*
X142071523Y-30535523D01*
X142071523Y-30440285D01*
X142119142Y-30345047D01*
X142214380Y-30297428D01*
X142452476Y-30297428D01*
X142547714Y-30249809D01*
X143023904Y-30678380D02*
X143023904Y-30011714D01*
X143023904Y-30106952D02*
X143071523Y-30059333D01*
X143166761Y-30011714D01*
X143309619Y-30011714D01*
X143404857Y-30059333D01*
X143452476Y-30154571D01*
X143452476Y-30678380D01*
X143452476Y-30154571D02*
X143500095Y-30059333D01*
X143595333Y-30011714D01*
X143738190Y-30011714D01*
X143833428Y-30059333D01*
X143881047Y-30154571D01*
X143881047Y-30678380D01*
D11*
X100227142Y-45827142D02*
X101370000Y-45827142D01*
X104370000Y-45827142D02*
X105512857Y-45827142D01*
X104941428Y-46398571D02*
X104941428Y-45255714D01*
D12*
X113190571Y-28646380D02*
X113190571Y-27646380D01*
X113523904Y-28360666D01*
X113857238Y-27646380D01*
X113857238Y-28646380D01*
X114761999Y-28646380D02*
X114761999Y-28122571D01*
X114714380Y-28027333D01*
X114619142Y-27979714D01*
X114428666Y-27979714D01*
X114333428Y-28027333D01*
X114761999Y-28598761D02*
X114666761Y-28646380D01*
X114428666Y-28646380D01*
X114333428Y-28598761D01*
X114285809Y-28503523D01*
X114285809Y-28408285D01*
X114333428Y-28313047D01*
X114428666Y-28265428D01*
X114666761Y-28265428D01*
X114761999Y-28217809D01*
X115666761Y-28646380D02*
X115666761Y-27646380D01*
X115666761Y-28598761D02*
X115571523Y-28646380D01*
X115381047Y-28646380D01*
X115285809Y-28598761D01*
X115238190Y-28551142D01*
X115190571Y-28455904D01*
X115190571Y-28170190D01*
X115238190Y-28074952D01*
X115285809Y-28027333D01*
X115381047Y-27979714D01*
X115571523Y-27979714D01*
X115666761Y-28027333D01*
X116523904Y-28598761D02*
X116428666Y-28646380D01*
X116238190Y-28646380D01*
X116142952Y-28598761D01*
X116095333Y-28503523D01*
X116095333Y-28122571D01*
X116142952Y-28027333D01*
X116238190Y-27979714D01*
X116428666Y-27979714D01*
X116523904Y-28027333D01*
X116571523Y-28122571D01*
X116571523Y-28217809D01*
X116095333Y-28313047D01*
X117619142Y-27979714D02*
X118000095Y-27979714D01*
X117761999Y-28646380D02*
X117761999Y-27789238D01*
X117809619Y-27694000D01*
X117904857Y-27646380D01*
X118000095Y-27646380D01*
X118476285Y-28646380D02*
X118381047Y-28598761D01*
X118333428Y-28551142D01*
X118285809Y-28455904D01*
X118285809Y-28170190D01*
X118333428Y-28074952D01*
X118381047Y-28027333D01*
X118476285Y-27979714D01*
X118619142Y-27979714D01*
X118714380Y-28027333D01*
X118761999Y-28074952D01*
X118809619Y-28170190D01*
X118809619Y-28455904D01*
X118761999Y-28551142D01*
X118714380Y-28598761D01*
X118619142Y-28646380D01*
X118476285Y-28646380D01*
X119238190Y-28646380D02*
X119238190Y-27979714D01*
X119238190Y-28170190D02*
X119285809Y-28074952D01*
X119333428Y-28027333D01*
X119428666Y-27979714D01*
X119523904Y-27979714D01*
X120476285Y-27979714D02*
X120857238Y-27979714D01*
X120619142Y-27646380D02*
X120619142Y-28503523D01*
X120666761Y-28598761D01*
X120761999Y-28646380D01*
X120857238Y-28646380D01*
X121190571Y-28646380D02*
X121190571Y-27646380D01*
X121619142Y-28646380D02*
X121619142Y-28122571D01*
X121571523Y-28027333D01*
X121476285Y-27979714D01*
X121333428Y-27979714D01*
X121238190Y-28027333D01*
X121190571Y-28074952D01*
X122476285Y-28598761D02*
X122381047Y-28646380D01*
X122190571Y-28646380D01*
X122095333Y-28598761D01*
X122047714Y-28503523D01*
X122047714Y-28122571D01*
X122095333Y-28027333D01*
X122190571Y-27979714D01*
X122381047Y-27979714D01*
X122476285Y-28027333D01*
X122523904Y-28122571D01*
X122523904Y-28217809D01*
X122047714Y-28313047D01*
X124285809Y-28646380D02*
X123952476Y-28170190D01*
X123714380Y-28646380D02*
X123714380Y-27646380D01*
X124095333Y-27646380D01*
X124190571Y-27694000D01*
X124238190Y-27741619D01*
X124285809Y-27836857D01*
X124285809Y-27979714D01*
X124238190Y-28074952D01*
X124190571Y-28122571D01*
X124095333Y-28170190D01*
X123714380Y-28170190D01*
X124857238Y-28646380D02*
X124761999Y-28598761D01*
X124714380Y-28551142D01*
X124666761Y-28455904D01*
X124666761Y-28170190D01*
X124714380Y-28074952D01*
X124761999Y-28027333D01*
X124857238Y-27979714D01*
X125000095Y-27979714D01*
X125095333Y-28027333D01*
X125142952Y-28074952D01*
X125190571Y-28170190D01*
X125190571Y-28455904D01*
X125142952Y-28551142D01*
X125095333Y-28598761D01*
X125000095Y-28646380D01*
X124857238Y-28646380D01*
X125571523Y-28598761D02*
X125666761Y-28646380D01*
X125857238Y-28646380D01*
X125952476Y-28598761D01*
X126000095Y-28503523D01*
X126000095Y-28455904D01*
X125952476Y-28360666D01*
X125857238Y-28313047D01*
X125714380Y-28313047D01*
X125619142Y-28265428D01*
X125571523Y-28170190D01*
X125571523Y-28122571D01*
X125619142Y-28027333D01*
X125714380Y-27979714D01*
X125857238Y-27979714D01*
X125952476Y-28027333D01*
X126428666Y-28646380D02*
X126428666Y-27646380D01*
X126428666Y-28027333D02*
X126523904Y-27979714D01*
X126714380Y-27979714D01*
X126809619Y-28027333D01*
X126857238Y-28074952D01*
X126904857Y-28170190D01*
X126904857Y-28455904D01*
X126857238Y-28551142D01*
X126809619Y-28598761D01*
X126714380Y-28646380D01*
X126523904Y-28646380D01*
X126428666Y-28598761D01*
X127761999Y-28646380D02*
X127761999Y-28122571D01*
X127714380Y-28027333D01*
X127619142Y-27979714D01*
X127428666Y-27979714D01*
X127333428Y-28027333D01*
X127761999Y-28598761D02*
X127666761Y-28646380D01*
X127428666Y-28646380D01*
X127333428Y-28598761D01*
X127285809Y-28503523D01*
X127285809Y-28408285D01*
X127333428Y-28313047D01*
X127428666Y-28265428D01*
X127666761Y-28265428D01*
X127761999Y-28217809D01*
X128190571Y-28598761D02*
X128285809Y-28646380D01*
X128476285Y-28646380D01*
X128571523Y-28598761D01*
X128619142Y-28503523D01*
X128619142Y-28455904D01*
X128571523Y-28360666D01*
X128476285Y-28313047D01*
X128333428Y-28313047D01*
X128238190Y-28265428D01*
X128190571Y-28170190D01*
X128190571Y-28122571D01*
X128238190Y-28027333D01*
X128333428Y-27979714D01*
X128476285Y-27979714D01*
X128571523Y-28027333D01*
X129047714Y-28646380D02*
X129047714Y-27646380D01*
X129476285Y-28646380D02*
X129476285Y-28122571D01*
X129428666Y-28027333D01*
X129333428Y-27979714D01*
X129190571Y-27979714D01*
X129095333Y-28027333D01*
X129047714Y-28074952D01*
X131190571Y-28646380D02*
X130714380Y-28646380D01*
X130714380Y-27646380D01*
X131952476Y-28646380D02*
X131952476Y-28122571D01*
X131904857Y-28027333D01*
X131809619Y-27979714D01*
X131619142Y-27979714D01*
X131523904Y-28027333D01*
X131952476Y-28598761D02*
X131857238Y-28646380D01*
X131619142Y-28646380D01*
X131523904Y-28598761D01*
X131476285Y-28503523D01*
X131476285Y-28408285D01*
X131523904Y-28313047D01*
X131619142Y-28265428D01*
X131857238Y-28265428D01*
X131952476Y-28217809D01*
X132428666Y-28646380D02*
X132428666Y-27646380D01*
X132428666Y-28027333D02*
X132523904Y-27979714D01*
X132714380Y-27979714D01*
X132809619Y-28027333D01*
X132857238Y-28074952D01*
X132904857Y-28170190D01*
X132904857Y-28455904D01*
X132857238Y-28551142D01*
X132809619Y-28598761D01*
X132714380Y-28646380D01*
X132523904Y-28646380D01*
X132428666Y-28598761D01*
X134523904Y-28646380D02*
X134523904Y-28122571D01*
X134476285Y-28027333D01*
X134381047Y-27979714D01*
X134190571Y-27979714D01*
X134095333Y-28027333D01*
X134523904Y-28598761D02*
X134428666Y-28646380D01*
X134190571Y-28646380D01*
X134095333Y-28598761D01*
X134047714Y-28503523D01*
X134047714Y-28408285D01*
X134095333Y-28313047D01*
X134190571Y-28265428D01*
X134428666Y-28265428D01*
X134523904Y-28217809D01*
X134857238Y-27979714D02*
X135238190Y-27979714D01*
X135000095Y-27646380D02*
X135000095Y-28503523D01*
X135047714Y-28598761D01*
X135142952Y-28646380D01*
X135238190Y-28646380D01*
X136666761Y-28122571D02*
X136809619Y-28170190D01*
X136857238Y-28217809D01*
X136904857Y-28313047D01*
X136904857Y-28455904D01*
X136857238Y-28551142D01*
X136809619Y-28598761D01*
X136714380Y-28646380D01*
X136333428Y-28646380D01*
X136333428Y-27646380D01*
X136666761Y-27646380D01*
X136761999Y-27694000D01*
X136809619Y-27741619D01*
X136857238Y-27836857D01*
X136857238Y-27932095D01*
X136809619Y-28027333D01*
X136761999Y-28074952D01*
X136666761Y-28122571D01*
X136333428Y-28122571D01*
X137333428Y-28646380D02*
X137333428Y-27979714D01*
X137333428Y-28170190D02*
X137381047Y-28074952D01*
X137428666Y-28027333D01*
X137523904Y-27979714D01*
X137619142Y-27979714D01*
X138381047Y-28646380D02*
X138381047Y-28122571D01*
X138333428Y-28027333D01*
X138238190Y-27979714D01*
X138047714Y-27979714D01*
X137952476Y-28027333D01*
X138381047Y-28598761D02*
X138285809Y-28646380D01*
X138047714Y-28646380D01*
X137952476Y-28598761D01*
X137904857Y-28503523D01*
X137904857Y-28408285D01*
X137952476Y-28313047D01*
X138047714Y-28265428D01*
X138285809Y-28265428D01*
X138381047Y-28217809D01*
X138857238Y-27979714D02*
X138857238Y-28646380D01*
X138857238Y-28074952D02*
X138904857Y-28027333D01*
X139000095Y-27979714D01*
X139142952Y-27979714D01*
X139238190Y-28027333D01*
X139285809Y-28122571D01*
X139285809Y-28646380D01*
X140190571Y-28646380D02*
X140190571Y-27646380D01*
X140190571Y-28598761D02*
X140095333Y-28646380D01*
X139904857Y-28646380D01*
X139809619Y-28598761D01*
X139761999Y-28551142D01*
X139714380Y-28455904D01*
X139714380Y-28170190D01*
X139761999Y-28074952D01*
X139809619Y-28027333D01*
X139904857Y-27979714D01*
X140095333Y-27979714D01*
X140190571Y-28027333D01*
X141047714Y-28598761D02*
X140952476Y-28646380D01*
X140761999Y-28646380D01*
X140666761Y-28598761D01*
X140619142Y-28503523D01*
X140619142Y-28122571D01*
X140666761Y-28027333D01*
X140761999Y-27979714D01*
X140952476Y-27979714D01*
X141047714Y-28027333D01*
X141095333Y-28122571D01*
X141095333Y-28217809D01*
X140619142Y-28313047D01*
X141523904Y-28646380D02*
X141523904Y-27979714D01*
X141523904Y-27646380D02*
X141476285Y-27694000D01*
X141523904Y-27741619D01*
X141571523Y-27694000D01*
X141523904Y-27646380D01*
X141523904Y-27741619D01*
X141952476Y-28598761D02*
X142047714Y-28646380D01*
X142238190Y-28646380D01*
X142333428Y-28598761D01*
X142381047Y-28503523D01*
X142381047Y-28455904D01*
X142333428Y-28360666D01*
X142238190Y-28313047D01*
X142095333Y-28313047D01*
X142000095Y-28265428D01*
X141952476Y-28170190D01*
X141952476Y-28122571D01*
X142000095Y-28027333D01*
X142095333Y-27979714D01*
X142238190Y-27979714D01*
X142333428Y-28027333D01*
D10*
X191695714Y-22113809D02*
X191781428Y-22151904D01*
X191924285Y-22151904D01*
X191981428Y-22113809D01*
X192010000Y-22075714D01*
X192038571Y-21999523D01*
X192038571Y-21923333D01*
X192010000Y-21847142D01*
X191981428Y-21809047D01*
X191924285Y-21770952D01*
X191810000Y-21732857D01*
X191752857Y-21694761D01*
X191724285Y-21656666D01*
X191695714Y-21580476D01*
X191695714Y-21504285D01*
X191724285Y-21428095D01*
X191752857Y-21390000D01*
X191810000Y-21351904D01*
X191952857Y-21351904D01*
X192038571Y-21390000D01*
X192295714Y-22151904D02*
X192295714Y-21618571D01*
X192295714Y-21351904D02*
X192267142Y-21390000D01*
X192295714Y-21428095D01*
X192324285Y-21390000D01*
X192295714Y-21351904D01*
X192295714Y-21428095D01*
X192838571Y-21618571D02*
X192838571Y-22266190D01*
X192810000Y-22342380D01*
X192781428Y-22380476D01*
X192724285Y-22418571D01*
X192638571Y-22418571D01*
X192581428Y-22380476D01*
X192838571Y-22113809D02*
X192781428Y-22151904D01*
X192667142Y-22151904D01*
X192610000Y-22113809D01*
X192581428Y-22075714D01*
X192552857Y-21999523D01*
X192552857Y-21770952D01*
X192581428Y-21694761D01*
X192610000Y-21656666D01*
X192667142Y-21618571D01*
X192781428Y-21618571D01*
X192838571Y-21656666D01*
X193124285Y-21618571D02*
X193124285Y-22151904D01*
X193124285Y-21694761D02*
X193152857Y-21656666D01*
X193210000Y-21618571D01*
X193295714Y-21618571D01*
X193352857Y-21656666D01*
X193381428Y-21732857D01*
X193381428Y-22151904D01*
X193924285Y-22151904D02*
X193924285Y-21732857D01*
X193895714Y-21656666D01*
X193838571Y-21618571D01*
X193724285Y-21618571D01*
X193667142Y-21656666D01*
X193924285Y-22113809D02*
X193867142Y-22151904D01*
X193724285Y-22151904D01*
X193667142Y-22113809D01*
X193638571Y-22037619D01*
X193638571Y-21961428D01*
X193667142Y-21885238D01*
X193724285Y-21847142D01*
X193867142Y-21847142D01*
X193924285Y-21809047D01*
X194295714Y-22151904D02*
X194238571Y-22113809D01*
X194210000Y-22037619D01*
X194210000Y-21351904D01*
X194524285Y-21847142D02*
X194981428Y-21847142D01*
X195267142Y-22151904D02*
X195267142Y-21351904D01*
X195267142Y-21656666D02*
X195324285Y-21618571D01*
X195438571Y-21618571D01*
X195495714Y-21656666D01*
X195524285Y-21694761D01*
X195552857Y-21770952D01*
X195552857Y-21999523D01*
X195524285Y-22075714D01*
X195495714Y-22113809D01*
X195438571Y-22151904D01*
X195324285Y-22151904D01*
X195267142Y-22113809D01*
X195895714Y-22151904D02*
X195838571Y-22113809D01*
X195810000Y-22037619D01*
X195810000Y-21351904D01*
X196381428Y-21618571D02*
X196381428Y-22151904D01*
X196124285Y-21618571D02*
X196124285Y-22037619D01*
X196152857Y-22113809D01*
X196210000Y-22151904D01*
X196295714Y-22151904D01*
X196352857Y-22113809D01*
X196381428Y-22075714D01*
X196895714Y-22113809D02*
X196838571Y-22151904D01*
X196724285Y-22151904D01*
X196667142Y-22113809D01*
X196638571Y-22037619D01*
X196638571Y-21732857D01*
X196667142Y-21656666D01*
X196724285Y-21618571D01*
X196838571Y-21618571D01*
X196895714Y-21656666D01*
X196924285Y-21732857D01*
X196924285Y-21809047D01*
X196638571Y-21885238D01*
X192181428Y-27303904D02*
X191838571Y-27303904D01*
X192010000Y-27303904D02*
X192010000Y-26503904D01*
X191952857Y-26618190D01*
X191895714Y-26694380D01*
X191838571Y-26732476D01*
X192410000Y-26580095D02*
X192438571Y-26542000D01*
X192495714Y-26503904D01*
X192638571Y-26503904D01*
X192695714Y-26542000D01*
X192724285Y-26580095D01*
X192752857Y-26656285D01*
X192752857Y-26732476D01*
X192724285Y-26846761D01*
X192381428Y-27303904D01*
X192752857Y-27303904D01*
X192924285Y-26503904D02*
X193124285Y-27303904D01*
X193324285Y-26503904D01*
X193524285Y-26999142D02*
X193981428Y-26999142D01*
X194210000Y-26770571D02*
X194352857Y-27303904D01*
X194495714Y-26770571D02*
X194352857Y-27303904D01*
X194295714Y-27494380D01*
X194267142Y-27532476D01*
X194210000Y-27570571D01*
X194952857Y-27265809D02*
X194895714Y-27303904D01*
X194781428Y-27303904D01*
X194724285Y-27265809D01*
X194695714Y-27189619D01*
X194695714Y-26884857D01*
X194724285Y-26808666D01*
X194781428Y-26770571D01*
X194895714Y-26770571D01*
X194952857Y-26808666D01*
X194981428Y-26884857D01*
X194981428Y-26961047D01*
X194695714Y-27037238D01*
X195324285Y-27303904D02*
X195267142Y-27265809D01*
X195238571Y-27189619D01*
X195238571Y-26503904D01*
X195638571Y-27303904D02*
X195581428Y-27265809D01*
X195552857Y-27189619D01*
X195552857Y-26503904D01*
X195952857Y-27303904D02*
X195895714Y-27265809D01*
X195867142Y-27227714D01*
X195838571Y-27151523D01*
X195838571Y-26922952D01*
X195867142Y-26846761D01*
X195895714Y-26808666D01*
X195952857Y-26770571D01*
X196038571Y-26770571D01*
X196095714Y-26808666D01*
X196124285Y-26846761D01*
X196152857Y-26922952D01*
X196152857Y-27151523D01*
X196124285Y-27227714D01*
X196095714Y-27265809D01*
X196038571Y-27303904D01*
X195952857Y-27303904D01*
X196352857Y-26770571D02*
X196467142Y-27303904D01*
X196581428Y-26922952D01*
X196695714Y-27303904D01*
X196810000Y-26770571D01*
X192281428Y-29118000D02*
X192224285Y-29079904D01*
X192138571Y-29079904D01*
X192052857Y-29118000D01*
X191995714Y-29194190D01*
X191967142Y-29270380D01*
X191938571Y-29422761D01*
X191938571Y-29537047D01*
X191967142Y-29689428D01*
X191995714Y-29765619D01*
X192052857Y-29841809D01*
X192138571Y-29879904D01*
X192195714Y-29879904D01*
X192281428Y-29841809D01*
X192310000Y-29803714D01*
X192310000Y-29537047D01*
X192195714Y-29537047D01*
X192567142Y-29879904D02*
X192567142Y-29079904D01*
X192910000Y-29879904D01*
X192910000Y-29079904D01*
X193195714Y-29879904D02*
X193195714Y-29079904D01*
X193338571Y-29079904D01*
X193424285Y-29118000D01*
X193481428Y-29194190D01*
X193510000Y-29270380D01*
X193538571Y-29422761D01*
X193538571Y-29537047D01*
X193510000Y-29689428D01*
X193481428Y-29765619D01*
X193424285Y-29841809D01*
X193338571Y-29879904D01*
X193195714Y-29879904D01*
X193795714Y-29575142D02*
X194252857Y-29575142D01*
X194538571Y-29879904D02*
X194538571Y-29079904D01*
X194538571Y-29384666D02*
X194595714Y-29346571D01*
X194710000Y-29346571D01*
X194767142Y-29384666D01*
X194795714Y-29422761D01*
X194824285Y-29498952D01*
X194824285Y-29727523D01*
X194795714Y-29803714D01*
X194767142Y-29841809D01*
X194710000Y-29879904D01*
X194595714Y-29879904D01*
X194538571Y-29841809D01*
X195167142Y-29879904D02*
X195110000Y-29841809D01*
X195081428Y-29765619D01*
X195081428Y-29079904D01*
X195652857Y-29879904D02*
X195652857Y-29460857D01*
X195624285Y-29384666D01*
X195567142Y-29346571D01*
X195452857Y-29346571D01*
X195395714Y-29384666D01*
X195652857Y-29841809D02*
X195595714Y-29879904D01*
X195452857Y-29879904D01*
X195395714Y-29841809D01*
X195367142Y-29765619D01*
X195367142Y-29689428D01*
X195395714Y-29613238D01*
X195452857Y-29575142D01*
X195595714Y-29575142D01*
X195652857Y-29537047D01*
X196195714Y-29841809D02*
X196138571Y-29879904D01*
X196024285Y-29879904D01*
X195967142Y-29841809D01*
X195938571Y-29803714D01*
X195910000Y-29727523D01*
X195910000Y-29498952D01*
X195938571Y-29422761D01*
X195967142Y-29384666D01*
X196024285Y-29346571D01*
X196138571Y-29346571D01*
X196195714Y-29384666D01*
X196452857Y-29879904D02*
X196452857Y-29079904D01*
X196510000Y-29575142D02*
X196681428Y-29879904D01*
X196681428Y-29346571D02*
X196452857Y-29651333D01*
X72315714Y-21859809D02*
X72401428Y-21897904D01*
X72544285Y-21897904D01*
X72601428Y-21859809D01*
X72630000Y-21821714D01*
X72658571Y-21745523D01*
X72658571Y-21669333D01*
X72630000Y-21593142D01*
X72601428Y-21555047D01*
X72544285Y-21516952D01*
X72430000Y-21478857D01*
X72372857Y-21440761D01*
X72344285Y-21402666D01*
X72315714Y-21326476D01*
X72315714Y-21250285D01*
X72344285Y-21174095D01*
X72372857Y-21136000D01*
X72430000Y-21097904D01*
X72572857Y-21097904D01*
X72658571Y-21136000D01*
X72915714Y-21897904D02*
X72915714Y-21364571D01*
X72915714Y-21097904D02*
X72887142Y-21136000D01*
X72915714Y-21174095D01*
X72944285Y-21136000D01*
X72915714Y-21097904D01*
X72915714Y-21174095D01*
X73458571Y-21364571D02*
X73458571Y-22012190D01*
X73430000Y-22088380D01*
X73401428Y-22126476D01*
X73344285Y-22164571D01*
X73258571Y-22164571D01*
X73201428Y-22126476D01*
X73458571Y-21859809D02*
X73401428Y-21897904D01*
X73287142Y-21897904D01*
X73230000Y-21859809D01*
X73201428Y-21821714D01*
X73172857Y-21745523D01*
X73172857Y-21516952D01*
X73201428Y-21440761D01*
X73230000Y-21402666D01*
X73287142Y-21364571D01*
X73401428Y-21364571D01*
X73458571Y-21402666D01*
X73744285Y-21364571D02*
X73744285Y-21897904D01*
X73744285Y-21440761D02*
X73772857Y-21402666D01*
X73830000Y-21364571D01*
X73915714Y-21364571D01*
X73972857Y-21402666D01*
X74001428Y-21478857D01*
X74001428Y-21897904D01*
X74544285Y-21897904D02*
X74544285Y-21478857D01*
X74515714Y-21402666D01*
X74458571Y-21364571D01*
X74344285Y-21364571D01*
X74287142Y-21402666D01*
X74544285Y-21859809D02*
X74487142Y-21897904D01*
X74344285Y-21897904D01*
X74287142Y-21859809D01*
X74258571Y-21783619D01*
X74258571Y-21707428D01*
X74287142Y-21631238D01*
X74344285Y-21593142D01*
X74487142Y-21593142D01*
X74544285Y-21555047D01*
X74915714Y-21897904D02*
X74858571Y-21859809D01*
X74830000Y-21783619D01*
X74830000Y-21097904D01*
X75144285Y-21593142D02*
X75601428Y-21593142D01*
X75887142Y-21897904D02*
X75887142Y-21097904D01*
X75887142Y-21402666D02*
X75944285Y-21364571D01*
X76058571Y-21364571D01*
X76115714Y-21402666D01*
X76144285Y-21440761D01*
X76172857Y-21516952D01*
X76172857Y-21745523D01*
X76144285Y-21821714D01*
X76115714Y-21859809D01*
X76058571Y-21897904D01*
X75944285Y-21897904D01*
X75887142Y-21859809D01*
X76515714Y-21897904D02*
X76458571Y-21859809D01*
X76430000Y-21783619D01*
X76430000Y-21097904D01*
X77001428Y-21364571D02*
X77001428Y-21897904D01*
X76744285Y-21364571D02*
X76744285Y-21783619D01*
X76772857Y-21859809D01*
X76830000Y-21897904D01*
X76915714Y-21897904D01*
X76972857Y-21859809D01*
X77001428Y-21821714D01*
X77515714Y-21859809D02*
X77458571Y-21897904D01*
X77344285Y-21897904D01*
X77287142Y-21859809D01*
X77258571Y-21783619D01*
X77258571Y-21478857D01*
X77287142Y-21402666D01*
X77344285Y-21364571D01*
X77458571Y-21364571D01*
X77515714Y-21402666D01*
X77544285Y-21478857D01*
X77544285Y-21555047D01*
X77258571Y-21631238D01*
X72801428Y-27049904D02*
X72458571Y-27049904D01*
X72630000Y-27049904D02*
X72630000Y-26249904D01*
X72572857Y-26364190D01*
X72515714Y-26440380D01*
X72458571Y-26478476D01*
X73030000Y-26326095D02*
X73058571Y-26288000D01*
X73115714Y-26249904D01*
X73258571Y-26249904D01*
X73315714Y-26288000D01*
X73344285Y-26326095D01*
X73372857Y-26402285D01*
X73372857Y-26478476D01*
X73344285Y-26592761D01*
X73001428Y-27049904D01*
X73372857Y-27049904D01*
X73544285Y-26249904D02*
X73744285Y-27049904D01*
X73944285Y-26249904D01*
X74144285Y-26745142D02*
X74601428Y-26745142D01*
X74830000Y-26516571D02*
X74972857Y-27049904D01*
X75115714Y-26516571D02*
X74972857Y-27049904D01*
X74915714Y-27240380D01*
X74887142Y-27278476D01*
X74830000Y-27316571D01*
X75572857Y-27011809D02*
X75515714Y-27049904D01*
X75401428Y-27049904D01*
X75344285Y-27011809D01*
X75315714Y-26935619D01*
X75315714Y-26630857D01*
X75344285Y-26554666D01*
X75401428Y-26516571D01*
X75515714Y-26516571D01*
X75572857Y-26554666D01*
X75601428Y-26630857D01*
X75601428Y-26707047D01*
X75315714Y-26783238D01*
X75944285Y-27049904D02*
X75887142Y-27011809D01*
X75858571Y-26935619D01*
X75858571Y-26249904D01*
X76258571Y-27049904D02*
X76201428Y-27011809D01*
X76172857Y-26935619D01*
X76172857Y-26249904D01*
X76572857Y-27049904D02*
X76515714Y-27011809D01*
X76487142Y-26973714D01*
X76458571Y-26897523D01*
X76458571Y-26668952D01*
X76487142Y-26592761D01*
X76515714Y-26554666D01*
X76572857Y-26516571D01*
X76658571Y-26516571D01*
X76715714Y-26554666D01*
X76744285Y-26592761D01*
X76772857Y-26668952D01*
X76772857Y-26897523D01*
X76744285Y-26973714D01*
X76715714Y-27011809D01*
X76658571Y-27049904D01*
X76572857Y-27049904D01*
X76972857Y-26516571D02*
X77087142Y-27049904D01*
X77201428Y-26668952D01*
X77315714Y-27049904D01*
X77430000Y-26516571D01*
X72901428Y-28864000D02*
X72844285Y-28825904D01*
X72758571Y-28825904D01*
X72672857Y-28864000D01*
X72615714Y-28940190D01*
X72587142Y-29016380D01*
X72558571Y-29168761D01*
X72558571Y-29283047D01*
X72587142Y-29435428D01*
X72615714Y-29511619D01*
X72672857Y-29587809D01*
X72758571Y-29625904D01*
X72815714Y-29625904D01*
X72901428Y-29587809D01*
X72930000Y-29549714D01*
X72930000Y-29283047D01*
X72815714Y-29283047D01*
X73187142Y-29625904D02*
X73187142Y-28825904D01*
X73530000Y-29625904D01*
X73530000Y-28825904D01*
X73815714Y-29625904D02*
X73815714Y-28825904D01*
X73958571Y-28825904D01*
X74044285Y-28864000D01*
X74101428Y-28940190D01*
X74130000Y-29016380D01*
X74158571Y-29168761D01*
X74158571Y-29283047D01*
X74130000Y-29435428D01*
X74101428Y-29511619D01*
X74044285Y-29587809D01*
X73958571Y-29625904D01*
X73815714Y-29625904D01*
X74415714Y-29321142D02*
X74872857Y-29321142D01*
X75158571Y-29625904D02*
X75158571Y-28825904D01*
X75158571Y-29130666D02*
X75215714Y-29092571D01*
X75330000Y-29092571D01*
X75387142Y-29130666D01*
X75415714Y-29168761D01*
X75444285Y-29244952D01*
X75444285Y-29473523D01*
X75415714Y-29549714D01*
X75387142Y-29587809D01*
X75330000Y-29625904D01*
X75215714Y-29625904D01*
X75158571Y-29587809D01*
X75787142Y-29625904D02*
X75730000Y-29587809D01*
X75701428Y-29511619D01*
X75701428Y-28825904D01*
X76272857Y-29625904D02*
X76272857Y-29206857D01*
X76244285Y-29130666D01*
X76187142Y-29092571D01*
X76072857Y-29092571D01*
X76015714Y-29130666D01*
X76272857Y-29587809D02*
X76215714Y-29625904D01*
X76072857Y-29625904D01*
X76015714Y-29587809D01*
X75987142Y-29511619D01*
X75987142Y-29435428D01*
X76015714Y-29359238D01*
X76072857Y-29321142D01*
X76215714Y-29321142D01*
X76272857Y-29283047D01*
X76815714Y-29587809D02*
X76758571Y-29625904D01*
X76644285Y-29625904D01*
X76587142Y-29587809D01*
X76558571Y-29549714D01*
X76530000Y-29473523D01*
X76530000Y-29244952D01*
X76558571Y-29168761D01*
X76587142Y-29130666D01*
X76644285Y-29092571D01*
X76758571Y-29092571D01*
X76815714Y-29130666D01*
X77072857Y-29625904D02*
X77072857Y-28825904D01*
X77130000Y-29321142D02*
X77301428Y-29625904D01*
X77301428Y-29092571D02*
X77072857Y-29397333D01*
D12*
X109095333Y-24495142D02*
X108428666Y-24495142D01*
X108428666Y-25542761D02*
X108428666Y-23542761D01*
X109381047Y-23542761D01*
X110428666Y-25542761D02*
X110238190Y-25447523D01*
X110142952Y-25257047D01*
X110142952Y-23542761D01*
X111000095Y-24209428D02*
X111476285Y-25542761D01*
X111952476Y-24209428D02*
X111476285Y-25542761D01*
X111285809Y-26018952D01*
X111190571Y-26114190D01*
X111000095Y-26209428D01*
X112714380Y-25542761D02*
X112714380Y-23542761D01*
X112714380Y-24304666D02*
X112904857Y-24209428D01*
X113285809Y-24209428D01*
X113476285Y-24304666D01*
X113571523Y-24399904D01*
X113666761Y-24590380D01*
X113666761Y-25161809D01*
X113571523Y-25352285D01*
X113476285Y-25447523D01*
X113285809Y-25542761D01*
X112904857Y-25542761D01*
X112714380Y-25447523D01*
X114809619Y-25542761D02*
X114619142Y-25447523D01*
X114523904Y-25352285D01*
X114428666Y-25161809D01*
X114428666Y-24590380D01*
X114523904Y-24399904D01*
X114619142Y-24304666D01*
X114809619Y-24209428D01*
X115095333Y-24209428D01*
X115285809Y-24304666D01*
X115381047Y-24399904D01*
X115476285Y-24590380D01*
X115476285Y-25161809D01*
X115381047Y-25352285D01*
X115285809Y-25447523D01*
X115095333Y-25542761D01*
X114809619Y-25542761D01*
X116142952Y-25542761D02*
X117190571Y-24209428D01*
X116142952Y-24209428D02*
X117190571Y-25542761D01*
X119476285Y-25542761D02*
X119476285Y-23542761D01*
X121571523Y-25542761D02*
X120904857Y-24590380D01*
X120428666Y-25542761D02*
X120428666Y-23542761D01*
X121190571Y-23542761D01*
X121381047Y-23638000D01*
X121476285Y-23733238D01*
X121571523Y-23923714D01*
X121571523Y-24209428D01*
X121476285Y-24399904D01*
X121381047Y-24495142D01*
X121190571Y-24590380D01*
X120428666Y-24590380D01*
X124809619Y-25542761D02*
X124809619Y-24495142D01*
X124714380Y-24304666D01*
X124523904Y-24209428D01*
X124142952Y-24209428D01*
X123952476Y-24304666D01*
X124809619Y-25447523D02*
X124619142Y-25542761D01*
X124142952Y-25542761D01*
X123952476Y-25447523D01*
X123857238Y-25257047D01*
X123857238Y-25066571D01*
X123952476Y-24876095D01*
X124142952Y-24780857D01*
X124619142Y-24780857D01*
X124809619Y-24685619D01*
X125761999Y-24209428D02*
X125761999Y-25542761D01*
X125761999Y-24399904D02*
X125857238Y-24304666D01*
X126047714Y-24209428D01*
X126333428Y-24209428D01*
X126523904Y-24304666D01*
X126619142Y-24495142D01*
X126619142Y-25542761D01*
X128428666Y-25542761D02*
X128428666Y-23542761D01*
X128428666Y-25447523D02*
X128238190Y-25542761D01*
X127857238Y-25542761D01*
X127666761Y-25447523D01*
X127571523Y-25352285D01*
X127476285Y-25161809D01*
X127476285Y-24590380D01*
X127571523Y-24399904D01*
X127666761Y-24304666D01*
X127857238Y-24209428D01*
X128238190Y-24209428D01*
X128428666Y-24304666D01*
X131571523Y-24495142D02*
X130904857Y-24495142D01*
X130904857Y-25542761D02*
X130904857Y-23542761D01*
X131857238Y-23542761D01*
X133476285Y-25542761D02*
X133476285Y-24495142D01*
X133381047Y-24304666D01*
X133190571Y-24209428D01*
X132809619Y-24209428D01*
X132619142Y-24304666D01*
X133476285Y-25447523D02*
X133285809Y-25542761D01*
X132809619Y-25542761D01*
X132619142Y-25447523D01*
X132523904Y-25257047D01*
X132523904Y-25066571D01*
X132619142Y-24876095D01*
X132809619Y-24780857D01*
X133285809Y-24780857D01*
X133476285Y-24685619D01*
X134428666Y-24209428D02*
X134428666Y-25542761D01*
X134428666Y-24399904D02*
X134523904Y-24304666D01*
X134714380Y-24209428D01*
X135000095Y-24209428D01*
X135190571Y-24304666D01*
X135285809Y-24495142D01*
X135285809Y-25542761D01*
X136142952Y-25447523D02*
X136333428Y-25542761D01*
X136714380Y-25542761D01*
X136904857Y-25447523D01*
X137000095Y-25257047D01*
X137000095Y-25161809D01*
X136904857Y-24971333D01*
X136714380Y-24876095D01*
X136428666Y-24876095D01*
X136238190Y-24780857D01*
X136142952Y-24590380D01*
X136142952Y-24495142D01*
X136238190Y-24304666D01*
X136428666Y-24209428D01*
X136714380Y-24209428D01*
X136904857Y-24304666D01*
X140047714Y-24495142D02*
X140333428Y-24590380D01*
X140428666Y-24685619D01*
X140523904Y-24876095D01*
X140523904Y-25161809D01*
X140428666Y-25352285D01*
X140333428Y-25447523D01*
X140142952Y-25542761D01*
X139381047Y-25542761D01*
X139381047Y-23542761D01*
X140047714Y-23542761D01*
X140238190Y-23638000D01*
X140333428Y-23733238D01*
X140428666Y-23923714D01*
X140428666Y-24114190D01*
X140333428Y-24304666D01*
X140238190Y-24399904D01*
X140047714Y-24495142D01*
X139381047Y-24495142D01*
X141666761Y-25542761D02*
X141476285Y-25447523D01*
X141381047Y-25352285D01*
X141285809Y-25161809D01*
X141285809Y-24590380D01*
X141381047Y-24399904D01*
X141476285Y-24304666D01*
X141666761Y-24209428D01*
X141952476Y-24209428D01*
X142142952Y-24304666D01*
X142238190Y-24399904D01*
X142333428Y-24590380D01*
X142333428Y-25161809D01*
X142238190Y-25352285D01*
X142142952Y-25447523D01*
X141952476Y-25542761D01*
X141666761Y-25542761D01*
X144047714Y-25542761D02*
X144047714Y-24495142D01*
X143952476Y-24304666D01*
X143761999Y-24209428D01*
X143381047Y-24209428D01*
X143190571Y-24304666D01*
X144047714Y-25447523D02*
X143857238Y-25542761D01*
X143381047Y-25542761D01*
X143190571Y-25447523D01*
X143095333Y-25257047D01*
X143095333Y-25066571D01*
X143190571Y-24876095D01*
X143381047Y-24780857D01*
X143857238Y-24780857D01*
X144047714Y-24685619D01*
X145000095Y-25542761D02*
X145000095Y-24209428D01*
X145000095Y-24590380D02*
X145095333Y-24399904D01*
X145190571Y-24304666D01*
X145381047Y-24209428D01*
X145571523Y-24209428D01*
X147095333Y-25542761D02*
X147095333Y-23542761D01*
X147095333Y-25447523D02*
X146904857Y-25542761D01*
X146523904Y-25542761D01*
X146333428Y-25447523D01*
X146238190Y-25352285D01*
X146142952Y-25161809D01*
X146142952Y-24590380D01*
X146238190Y-24399904D01*
X146333428Y-24304666D01*
X146523904Y-24209428D01*
X146904857Y-24209428D01*
X147095333Y-24304666D01*
D13*
G04 #@! TO.C,J4*
X174550476Y-19308571D02*
X174217142Y-19308571D01*
X174217142Y-19832380D02*
X174217142Y-18832380D01*
X174693333Y-18832380D01*
X175502857Y-19832380D02*
X175502857Y-19308571D01*
X175455238Y-19213333D01*
X175360000Y-19165714D01*
X175169523Y-19165714D01*
X175074285Y-19213333D01*
X175502857Y-19784761D02*
X175407619Y-19832380D01*
X175169523Y-19832380D01*
X175074285Y-19784761D01*
X175026666Y-19689523D01*
X175026666Y-19594285D01*
X175074285Y-19499047D01*
X175169523Y-19451428D01*
X175407619Y-19451428D01*
X175502857Y-19403809D01*
X175979047Y-19165714D02*
X175979047Y-19832380D01*
X175979047Y-19260952D02*
X176026666Y-19213333D01*
X176121904Y-19165714D01*
X176264761Y-19165714D01*
X176360000Y-19213333D01*
X176407619Y-19308571D01*
X176407619Y-19832380D01*
X176836190Y-19784761D02*
X176931428Y-19832380D01*
X177121904Y-19832380D01*
X177217142Y-19784761D01*
X177264761Y-19689523D01*
X177264761Y-19641904D01*
X177217142Y-19546666D01*
X177121904Y-19499047D01*
X176979047Y-19499047D01*
X176883809Y-19451428D01*
X176836190Y-19356190D01*
X176836190Y-19308571D01*
X176883809Y-19213333D01*
X176979047Y-19165714D01*
X177121904Y-19165714D01*
X177217142Y-19213333D01*
X178312380Y-19165714D02*
X178693333Y-19165714D01*
X178455238Y-19832380D02*
X178455238Y-18975238D01*
X178502857Y-18880000D01*
X178598095Y-18832380D01*
X178693333Y-18832380D01*
X179026666Y-19832380D02*
X179026666Y-19165714D01*
X179026666Y-19356190D02*
X179074285Y-19260952D01*
X179121904Y-19213333D01*
X179217142Y-19165714D01*
X179312380Y-19165714D01*
X179788571Y-19832380D02*
X179693333Y-19784761D01*
X179645714Y-19737142D01*
X179598095Y-19641904D01*
X179598095Y-19356190D01*
X179645714Y-19260952D01*
X179693333Y-19213333D01*
X179788571Y-19165714D01*
X179931428Y-19165714D01*
X180026666Y-19213333D01*
X180074285Y-19260952D01*
X180121904Y-19356190D01*
X180121904Y-19641904D01*
X180074285Y-19737142D01*
X180026666Y-19784761D01*
X179931428Y-19832380D01*
X179788571Y-19832380D01*
X180550476Y-19832380D02*
X180550476Y-19165714D01*
X180550476Y-19260952D02*
X180598095Y-19213333D01*
X180693333Y-19165714D01*
X180836190Y-19165714D01*
X180931428Y-19213333D01*
X180979047Y-19308571D01*
X180979047Y-19832380D01*
X180979047Y-19308571D02*
X181026666Y-19213333D01*
X181121904Y-19165714D01*
X181264761Y-19165714D01*
X181360000Y-19213333D01*
X181407619Y-19308571D01*
X181407619Y-19832380D01*
X183074285Y-19832380D02*
X183074285Y-19308571D01*
X183026666Y-19213333D01*
X182931428Y-19165714D01*
X182740952Y-19165714D01*
X182645714Y-19213333D01*
X183074285Y-19784761D02*
X182979047Y-19832380D01*
X182740952Y-19832380D01*
X182645714Y-19784761D01*
X182598095Y-19689523D01*
X182598095Y-19594285D01*
X182645714Y-19499047D01*
X182740952Y-19451428D01*
X182979047Y-19451428D01*
X183074285Y-19403809D01*
X183550476Y-19832380D02*
X183550476Y-18832380D01*
X183550476Y-19213333D02*
X183645714Y-19165714D01*
X183836190Y-19165714D01*
X183931428Y-19213333D01*
X183979047Y-19260952D01*
X184026666Y-19356190D01*
X184026666Y-19641904D01*
X183979047Y-19737142D01*
X183931428Y-19784761D01*
X183836190Y-19832380D01*
X183645714Y-19832380D01*
X183550476Y-19784761D01*
X184598095Y-19832380D02*
X184502857Y-19784761D01*
X184455238Y-19737142D01*
X184407619Y-19641904D01*
X184407619Y-19356190D01*
X184455238Y-19260952D01*
X184502857Y-19213333D01*
X184598095Y-19165714D01*
X184740952Y-19165714D01*
X184836190Y-19213333D01*
X184883809Y-19260952D01*
X184931428Y-19356190D01*
X184931428Y-19641904D01*
X184883809Y-19737142D01*
X184836190Y-19784761D01*
X184740952Y-19832380D01*
X184598095Y-19832380D01*
X185264761Y-19165714D02*
X185502857Y-19832380D01*
X185740952Y-19165714D01*
X186502857Y-19784761D02*
X186407619Y-19832380D01*
X186217142Y-19832380D01*
X186121904Y-19784761D01*
X186074285Y-19689523D01*
X186074285Y-19308571D01*
X186121904Y-19213333D01*
X186217142Y-19165714D01*
X186407619Y-19165714D01*
X186502857Y-19213333D01*
X186550476Y-19308571D01*
X186550476Y-19403809D01*
X186074285Y-19499047D01*
G04 #@! TO.C,J3*
X139835000Y-41092380D02*
X139835000Y-40092380D01*
X140882619Y-41092380D02*
X140549285Y-40616190D01*
X140311190Y-41092380D02*
X140311190Y-40092380D01*
X140692142Y-40092380D01*
X140787380Y-40140000D01*
X140835000Y-40187619D01*
X140882619Y-40282857D01*
X140882619Y-40425714D01*
X140835000Y-40520952D01*
X140787380Y-40568571D01*
X140692142Y-40616190D01*
X140311190Y-40616190D01*
G04 #@! TO.C,J8*
X202112571Y-39115904D02*
X202112571Y-39449238D01*
X202636380Y-39449238D02*
X201636380Y-39449238D01*
X201636380Y-38973047D01*
X202636380Y-38163523D02*
X202112571Y-38163523D01*
X202017333Y-38211142D01*
X201969714Y-38306380D01*
X201969714Y-38496857D01*
X202017333Y-38592095D01*
X202588761Y-38163523D02*
X202636380Y-38258761D01*
X202636380Y-38496857D01*
X202588761Y-38592095D01*
X202493523Y-38639714D01*
X202398285Y-38639714D01*
X202303047Y-38592095D01*
X202255428Y-38496857D01*
X202255428Y-38258761D01*
X202207809Y-38163523D01*
X201969714Y-37687333D02*
X202636380Y-37687333D01*
X202064952Y-37687333D02*
X202017333Y-37639714D01*
X201969714Y-37544476D01*
X201969714Y-37401619D01*
X202017333Y-37306380D01*
X202112571Y-37258761D01*
X202636380Y-37258761D01*
G04 #@! TO.C,J5*
X174760000Y-41092380D02*
X174760000Y-40092380D01*
X175807619Y-41092380D02*
X175474285Y-40616190D01*
X175236190Y-41092380D02*
X175236190Y-40092380D01*
X175617142Y-40092380D01*
X175712380Y-40140000D01*
X175760000Y-40187619D01*
X175807619Y-40282857D01*
X175807619Y-40425714D01*
X175760000Y-40520952D01*
X175712380Y-40568571D01*
X175617142Y-40616190D01*
X175236190Y-40616190D01*
G04 #@! TO.C,J9*
X66730571Y-38861904D02*
X66730571Y-39195238D01*
X67254380Y-39195238D02*
X66254380Y-39195238D01*
X66254380Y-38719047D01*
X67254380Y-37909523D02*
X66730571Y-37909523D01*
X66635333Y-37957142D01*
X66587714Y-38052380D01*
X66587714Y-38242857D01*
X66635333Y-38338095D01*
X67206761Y-37909523D02*
X67254380Y-38004761D01*
X67254380Y-38242857D01*
X67206761Y-38338095D01*
X67111523Y-38385714D01*
X67016285Y-38385714D01*
X66921047Y-38338095D01*
X66873428Y-38242857D01*
X66873428Y-38004761D01*
X66825809Y-37909523D01*
X66587714Y-37433333D02*
X67254380Y-37433333D01*
X66682952Y-37433333D02*
X66635333Y-37385714D01*
X66587714Y-37290476D01*
X66587714Y-37147619D01*
X66635333Y-37052380D01*
X66730571Y-37004761D01*
X67254380Y-37004761D01*
G04 #@! TO.C,J7*
X108720000Y-41092380D02*
X108720000Y-40092380D01*
X109767619Y-41092380D02*
X109434285Y-40616190D01*
X109196190Y-41092380D02*
X109196190Y-40092380D01*
X109577142Y-40092380D01*
X109672380Y-40140000D01*
X109720000Y-40187619D01*
X109767619Y-40282857D01*
X109767619Y-40425714D01*
X109720000Y-40520952D01*
X109672380Y-40568571D01*
X109577142Y-40616190D01*
X109196190Y-40616190D01*
G04 #@! TO.C,J2*
X66730571Y-27177904D02*
X66730571Y-27511238D01*
X67254380Y-27511238D02*
X66254380Y-27511238D01*
X66254380Y-27035047D01*
X67254380Y-26225523D02*
X66730571Y-26225523D01*
X66635333Y-26273142D01*
X66587714Y-26368380D01*
X66587714Y-26558857D01*
X66635333Y-26654095D01*
X67206761Y-26225523D02*
X67254380Y-26320761D01*
X67254380Y-26558857D01*
X67206761Y-26654095D01*
X67111523Y-26701714D01*
X67016285Y-26701714D01*
X66921047Y-26654095D01*
X66873428Y-26558857D01*
X66873428Y-26320761D01*
X66825809Y-26225523D01*
X66587714Y-25749333D02*
X67254380Y-25749333D01*
X66682952Y-25749333D02*
X66635333Y-25701714D01*
X66587714Y-25606476D01*
X66587714Y-25463619D01*
X66635333Y-25368380D01*
X66730571Y-25320761D01*
X67254380Y-25320761D01*
G04 #@! TO.C,J1*
X202112571Y-26923904D02*
X202112571Y-27257238D01*
X202636380Y-27257238D02*
X201636380Y-27257238D01*
X201636380Y-26781047D01*
X202636380Y-25971523D02*
X202112571Y-25971523D01*
X202017333Y-26019142D01*
X201969714Y-26114380D01*
X201969714Y-26304857D01*
X202017333Y-26400095D01*
X202588761Y-25971523D02*
X202636380Y-26066761D01*
X202636380Y-26304857D01*
X202588761Y-26400095D01*
X202493523Y-26447714D01*
X202398285Y-26447714D01*
X202303047Y-26400095D01*
X202255428Y-26304857D01*
X202255428Y-26066761D01*
X202207809Y-25971523D01*
X201969714Y-25495333D02*
X202636380Y-25495333D01*
X202064952Y-25495333D02*
X202017333Y-25447714D01*
X201969714Y-25352476D01*
X201969714Y-25209619D01*
X202017333Y-25114380D01*
X202112571Y-25066761D01*
X202636380Y-25066761D01*
G04 #@! TO.C,J6*
X156147142Y-36012380D02*
X156147142Y-35012380D01*
X157194761Y-36012380D02*
X156861428Y-35536190D01*
X156623333Y-36012380D02*
X156623333Y-35012380D01*
X157004285Y-35012380D01*
X157099523Y-35060000D01*
X157147142Y-35107619D01*
X157194761Y-35202857D01*
X157194761Y-35345714D01*
X157147142Y-35440952D01*
X157099523Y-35488571D01*
X157004285Y-35536190D01*
X156623333Y-35536190D01*
X158242380Y-35345714D02*
X158623333Y-35345714D01*
X158385238Y-36012380D02*
X158385238Y-35155238D01*
X158432857Y-35060000D01*
X158528095Y-35012380D01*
X158623333Y-35012380D01*
X158956666Y-36012380D02*
X158956666Y-35345714D01*
X158956666Y-35536190D02*
X159004285Y-35440952D01*
X159051904Y-35393333D01*
X159147142Y-35345714D01*
X159242380Y-35345714D01*
X159718571Y-36012380D02*
X159623333Y-35964761D01*
X159575714Y-35917142D01*
X159528095Y-35821904D01*
X159528095Y-35536190D01*
X159575714Y-35440952D01*
X159623333Y-35393333D01*
X159718571Y-35345714D01*
X159861428Y-35345714D01*
X159956666Y-35393333D01*
X160004285Y-35440952D01*
X160051904Y-35536190D01*
X160051904Y-35821904D01*
X160004285Y-35917142D01*
X159956666Y-35964761D01*
X159861428Y-36012380D01*
X159718571Y-36012380D01*
X160480476Y-36012380D02*
X160480476Y-35345714D01*
X160480476Y-35440952D02*
X160528095Y-35393333D01*
X160623333Y-35345714D01*
X160766190Y-35345714D01*
X160861428Y-35393333D01*
X160909047Y-35488571D01*
X160909047Y-36012380D01*
X160909047Y-35488571D02*
X160956666Y-35393333D01*
X161051904Y-35345714D01*
X161194761Y-35345714D01*
X161290000Y-35393333D01*
X161337619Y-35488571D01*
X161337619Y-36012380D01*
X163004285Y-36012380D02*
X163004285Y-35488571D01*
X162956666Y-35393333D01*
X162861428Y-35345714D01*
X162670952Y-35345714D01*
X162575714Y-35393333D01*
X163004285Y-35964761D02*
X162909047Y-36012380D01*
X162670952Y-36012380D01*
X162575714Y-35964761D01*
X162528095Y-35869523D01*
X162528095Y-35774285D01*
X162575714Y-35679047D01*
X162670952Y-35631428D01*
X162909047Y-35631428D01*
X163004285Y-35583809D01*
X163480476Y-36012380D02*
X163480476Y-35012380D01*
X163480476Y-35393333D02*
X163575714Y-35345714D01*
X163766190Y-35345714D01*
X163861428Y-35393333D01*
X163909047Y-35440952D01*
X163956666Y-35536190D01*
X163956666Y-35821904D01*
X163909047Y-35917142D01*
X163861428Y-35964761D01*
X163766190Y-36012380D01*
X163575714Y-36012380D01*
X163480476Y-35964761D01*
X164528095Y-36012380D02*
X164432857Y-35964761D01*
X164385238Y-35917142D01*
X164337619Y-35821904D01*
X164337619Y-35536190D01*
X164385238Y-35440952D01*
X164432857Y-35393333D01*
X164528095Y-35345714D01*
X164670952Y-35345714D01*
X164766190Y-35393333D01*
X164813809Y-35440952D01*
X164861428Y-35536190D01*
X164861428Y-35821904D01*
X164813809Y-35917142D01*
X164766190Y-35964761D01*
X164670952Y-36012380D01*
X164528095Y-36012380D01*
X165194761Y-35345714D02*
X165432857Y-36012380D01*
X165670952Y-35345714D01*
X166432857Y-35964761D02*
X166337619Y-36012380D01*
X166147142Y-36012380D01*
X166051904Y-35964761D01*
X166004285Y-35869523D01*
X166004285Y-35488571D01*
X166051904Y-35393333D01*
X166147142Y-35345714D01*
X166337619Y-35345714D01*
X166432857Y-35393333D01*
X166480476Y-35488571D01*
X166480476Y-35583809D01*
X166004285Y-35679047D01*
D14*
G04 #@! TO.C,J4*
X190500000Y-27940000D02*
X190500000Y-20320000D01*
X190500000Y-27940000D02*
X170180000Y-27940000D01*
X170180000Y-21590000D02*
X190500000Y-21590000D01*
X190500000Y-20320000D02*
X170180000Y-20320000D01*
X170180000Y-20320000D02*
X170180000Y-27940000D01*
G04 #@! TO.C,J3*
X139065000Y-43180000D02*
X128905000Y-43180000D01*
X128905000Y-44450000D02*
X139065000Y-44450000D01*
X139065000Y-44450000D02*
X139065000Y-36830000D01*
X139065000Y-36830000D02*
X128905000Y-36830000D01*
X128905000Y-36830000D02*
X128905000Y-44450000D01*
G04 #@! TO.C,J8*
X200720000Y-34230000D02*
X198060000Y-34230000D01*
X200720000Y-41910000D02*
X198060000Y-41910000D01*
X200720000Y-41910000D02*
X200720000Y-34230000D01*
X200720000Y-43180000D02*
X200720000Y-44510000D01*
X200720000Y-44510000D02*
X199390000Y-44510000D01*
X198060000Y-41910000D02*
X198060000Y-34230000D01*
G04 #@! TO.C,J5*
X163830000Y-44450000D02*
X173990000Y-44450000D01*
X173990000Y-44450000D02*
X173990000Y-36830000D01*
X173990000Y-36830000D02*
X163830000Y-36830000D01*
X173990000Y-43180000D02*
X163830000Y-43180000D01*
X163830000Y-36830000D02*
X163830000Y-44450000D01*
G04 #@! TO.C,J9*
X71180000Y-34230000D02*
X68520000Y-34230000D01*
X71180000Y-41910000D02*
X71180000Y-34230000D01*
X71180000Y-41910000D02*
X68520000Y-41910000D01*
X71180000Y-44510000D02*
X69850000Y-44510000D01*
X68520000Y-41910000D02*
X68520000Y-34230000D01*
X71180000Y-43180000D02*
X71180000Y-44510000D01*
G04 #@! TO.C,J7*
X107950000Y-36830000D02*
X97790000Y-36830000D01*
X97790000Y-36830000D02*
X97790000Y-44450000D01*
X107950000Y-43180000D02*
X97790000Y-43180000D01*
X97790000Y-44450000D02*
X107950000Y-44450000D01*
X107950000Y-44450000D02*
X107950000Y-36830000D01*
G04 #@! TO.C,J2*
X68520000Y-22606000D02*
X68520000Y-30286000D01*
X68520000Y-22606000D02*
X71180000Y-22606000D01*
X68520000Y-21336000D02*
X68520000Y-20006000D01*
X71180000Y-22606000D02*
X71180000Y-30286000D01*
X68520000Y-30286000D02*
X71180000Y-30286000D01*
X68520000Y-20006000D02*
X69850000Y-20006000D01*
G04 #@! TO.C,G\u002A\u002A\u002A*
G36*
X93642656Y-29998648D02*
G01*
X93642607Y-30115143D01*
X93642665Y-30212633D01*
X93643137Y-30292805D01*
X93644330Y-30357345D01*
X93646552Y-30407940D01*
X93650110Y-30446278D01*
X93655311Y-30474044D01*
X93662462Y-30492925D01*
X93671870Y-30504608D01*
X93683843Y-30510779D01*
X93698688Y-30513126D01*
X93716712Y-30513335D01*
X93736359Y-30513089D01*
X93797849Y-30513089D01*
X93797849Y-30709667D01*
X93728012Y-30708533D01*
X93683958Y-30706597D01*
X93641171Y-30702736D01*
X93614994Y-30698862D01*
X93551974Y-30679016D01*
X93501108Y-30645572D01*
X93485425Y-30630407D01*
X93472153Y-30616194D01*
X93460997Y-30602626D01*
X93451773Y-30587855D01*
X93444298Y-30570037D01*
X93438387Y-30547325D01*
X93433857Y-30517873D01*
X93430524Y-30479836D01*
X93428205Y-30431367D01*
X93426716Y-30370620D01*
X93425872Y-30295749D01*
X93425491Y-30204909D01*
X93425389Y-30096253D01*
X93425385Y-30027148D01*
X93425385Y-29530196D01*
X93642656Y-29530196D01*
X93642656Y-29998648D01*
G37*
G36*
X96185819Y-29522617D02*
G01*
X96278303Y-29537860D01*
X96361634Y-29570776D01*
X96434054Y-29620206D01*
X96493806Y-29684989D01*
X96533920Y-29752514D01*
X96550521Y-29791856D01*
X96563851Y-29831287D01*
X96572502Y-29865583D01*
X96575065Y-29889520D01*
X96572874Y-29896978D01*
X96560810Y-29899292D01*
X96532559Y-29901153D01*
X96492624Y-29902341D01*
X96455410Y-29902661D01*
X96343629Y-29902661D01*
X96316829Y-29846012D01*
X96288659Y-29797465D01*
X96255736Y-29765539D01*
X96213283Y-29747136D01*
X96156521Y-29739157D01*
X96151663Y-29738898D01*
X96110437Y-29737951D01*
X96082378Y-29740970D01*
X96060117Y-29749371D01*
X96043228Y-29759764D01*
X95995923Y-29803442D01*
X95965864Y-29858552D01*
X95954739Y-29906646D01*
X95952757Y-29934432D01*
X95951387Y-29978514D01*
X95950686Y-30034502D01*
X95950711Y-30098008D01*
X95951474Y-30162193D01*
X95952837Y-30231941D01*
X95954368Y-30284356D01*
X95956464Y-30322794D01*
X95959523Y-30350612D01*
X95963942Y-30371168D01*
X95970118Y-30387819D01*
X95978448Y-30403921D01*
X95980510Y-30407551D01*
X96014205Y-30452804D01*
X96055621Y-30481433D01*
X96108399Y-30495405D01*
X96147249Y-30497569D01*
X96187287Y-30496290D01*
X96214942Y-30490919D01*
X96238445Y-30479154D01*
X96254668Y-30467546D01*
X96287396Y-30434229D01*
X96313754Y-30392375D01*
X96315940Y-30387607D01*
X96337849Y-30337690D01*
X96458318Y-30337446D01*
X96578786Y-30337203D01*
X96569003Y-30381174D01*
X96539435Y-30470221D01*
X96494016Y-30547197D01*
X96434461Y-30610968D01*
X96362484Y-30660400D01*
X96279801Y-30694358D01*
X96188126Y-30711710D01*
X96089173Y-30711320D01*
X96072512Y-30709502D01*
X95999611Y-30691959D01*
X95926003Y-30659141D01*
X95859164Y-30614776D01*
X95829372Y-30588188D01*
X95795683Y-30551117D01*
X95768847Y-30512719D01*
X95748157Y-30470158D01*
X95732901Y-30420599D01*
X95722370Y-30361207D01*
X95715854Y-30289145D01*
X95712645Y-30201579D01*
X95711980Y-30119084D01*
X95713243Y-30014915D01*
X95717422Y-29928590D01*
X95725247Y-29857381D01*
X95737444Y-29798555D01*
X95754744Y-29749381D01*
X95777872Y-29707130D01*
X95807559Y-29669069D01*
X95840838Y-29635818D01*
X95910963Y-29581905D01*
X95985509Y-29545600D01*
X96067787Y-29525816D01*
X96161109Y-29521467D01*
X96185819Y-29522617D01*
G37*
G36*
X96912065Y-32302987D02*
G01*
X96818949Y-32302987D01*
X96818949Y-31495981D01*
X96912065Y-31495981D01*
X96912065Y-32302987D01*
G37*
G36*
X100486688Y-32297814D02*
G01*
X100442622Y-32301000D01*
X100408691Y-32300057D01*
X100393516Y-32291024D01*
X100393349Y-32290617D01*
X100392243Y-32277507D01*
X100391361Y-32246074D01*
X100390715Y-32198687D01*
X100390322Y-32137714D01*
X100390196Y-32065524D01*
X100390351Y-31984485D01*
X100390803Y-31896967D01*
X100390857Y-31889101D01*
X100393572Y-31501154D01*
X100486688Y-31501154D01*
X100486688Y-32297814D01*
G37*
G36*
X98057764Y-31735877D02*
G01*
X98064020Y-31712189D01*
X98097542Y-31638819D01*
X98144936Y-31577434D01*
X98203620Y-31531202D01*
X98218032Y-31523255D01*
X98253110Y-31507044D01*
X98284527Y-31497902D01*
X98321053Y-31493949D01*
X98358014Y-31493258D01*
X98441567Y-31501600D01*
X98512977Y-31526670D01*
X98572374Y-31568539D01*
X98619886Y-31627273D01*
X98624119Y-31634299D01*
X98646272Y-31683142D01*
X98664537Y-31744178D01*
X98676840Y-31808986D01*
X98681118Y-31865858D01*
X98681271Y-31920176D01*
X98130026Y-31920176D01*
X98136181Y-31974494D01*
X98146598Y-32038975D01*
X98162554Y-32088692D01*
X98186174Y-32129286D01*
X98201517Y-32147921D01*
X98244952Y-32185747D01*
X98295458Y-32208912D01*
X98356946Y-32218769D01*
X98405818Y-32218625D01*
X98448403Y-32215466D01*
X98479040Y-32209251D01*
X98506472Y-32197073D01*
X98539444Y-32176025D01*
X98544581Y-32172494D01*
X98605753Y-32130282D01*
X98673027Y-32185188D01*
X98633650Y-32219762D01*
X98568691Y-32263817D01*
X98492574Y-32293930D01*
X98410407Y-32308956D01*
X98327297Y-32307744D01*
X98280599Y-32299131D01*
X98207068Y-32270390D01*
X98145579Y-32225041D01*
X98096944Y-32163861D01*
X98063719Y-32092728D01*
X98053401Y-32048535D01*
X98046819Y-31990093D01*
X98043969Y-31923503D01*
X98044847Y-31854869D01*
X98048192Y-31807911D01*
X98132859Y-31807911D01*
X98133151Y-31824308D01*
X98140406Y-31835517D01*
X98156912Y-31842510D01*
X98184957Y-31846259D01*
X98226829Y-31847735D01*
X98284816Y-31847909D01*
X98360894Y-31847752D01*
X98588867Y-31847752D01*
X98581903Y-31793435D01*
X98564446Y-31719973D01*
X98533212Y-31661154D01*
X98488931Y-31617736D01*
X98432332Y-31590471D01*
X98376276Y-31580636D01*
X98306288Y-31585133D01*
X98246251Y-31607313D01*
X98197743Y-31645985D01*
X98162341Y-31699961D01*
X98144012Y-31755670D01*
X98137242Y-31785355D01*
X98132859Y-31807911D01*
X98048192Y-31807911D01*
X98049447Y-31790293D01*
X98057764Y-31735877D01*
G37*
G36*
X97770802Y-29998648D02*
G01*
X97770753Y-30115143D01*
X97770811Y-30212633D01*
X97771283Y-30292805D01*
X97772477Y-30357345D01*
X97774699Y-30407940D01*
X97778257Y-30446278D01*
X97783457Y-30474044D01*
X97790608Y-30492925D01*
X97800017Y-30504608D01*
X97811990Y-30510779D01*
X97826834Y-30513126D01*
X97844858Y-30513335D01*
X97864505Y-30513089D01*
X97925996Y-30513089D01*
X97925996Y-30709667D01*
X97856159Y-30708533D01*
X97812104Y-30706597D01*
X97769317Y-30702736D01*
X97743141Y-30698862D01*
X97680121Y-30679016D01*
X97629254Y-30645572D01*
X97613571Y-30630407D01*
X97600299Y-30616194D01*
X97589143Y-30602626D01*
X97579920Y-30587855D01*
X97572444Y-30570037D01*
X97566533Y-30547325D01*
X97562004Y-30517873D01*
X97558671Y-30479836D01*
X97556352Y-30431367D01*
X97554862Y-30370620D01*
X97554019Y-30295749D01*
X97553638Y-30204909D01*
X97553536Y-30096253D01*
X97553532Y-30027148D01*
X97553532Y-29530196D01*
X97770802Y-29530196D01*
X97770802Y-29998648D01*
G37*
G36*
X94909153Y-29840054D02*
G01*
X94976374Y-29864627D01*
X95035721Y-29905026D01*
X95084079Y-29960318D01*
X95103546Y-29994034D01*
X95110110Y-30008018D01*
X95115371Y-30022057D01*
X95119499Y-30038571D01*
X95122666Y-30059979D01*
X95125043Y-30088700D01*
X95126801Y-30127153D01*
X95128111Y-30177758D01*
X95129144Y-30242934D01*
X95130071Y-30325101D01*
X95130578Y-30376358D01*
X95133815Y-30710380D01*
X94910069Y-30704494D01*
X94904896Y-30409626D01*
X94902893Y-30313203D01*
X94900568Y-30236042D01*
X94897837Y-30176712D01*
X94894618Y-30133784D01*
X94890828Y-30105828D01*
X94886483Y-30091587D01*
X94859272Y-30063055D01*
X94819853Y-30044523D01*
X94774685Y-30037058D01*
X94730226Y-30041726D01*
X94692940Y-30059591D01*
X94676958Y-30073312D01*
X94664265Y-30088174D01*
X94654484Y-30106621D01*
X94647238Y-30131092D01*
X94642153Y-30164030D01*
X94638852Y-30207876D01*
X94636960Y-30265071D01*
X94636099Y-30338057D01*
X94635894Y-30429274D01*
X94635894Y-30709667D01*
X94528983Y-30709667D01*
X94483849Y-30709037D01*
X94446713Y-30707337D01*
X94422261Y-30704851D01*
X94415174Y-30702769D01*
X94413691Y-30691264D01*
X94412317Y-30661267D01*
X94411088Y-30614980D01*
X94410037Y-30554604D01*
X94409201Y-30482340D01*
X94408614Y-30400388D01*
X94408311Y-30310951D01*
X94408277Y-30268228D01*
X94408277Y-29840583D01*
X94635894Y-29840583D01*
X94635894Y-29900671D01*
X94691383Y-29870616D01*
X94763543Y-29842116D01*
X94837171Y-29832239D01*
X94909153Y-29840054D01*
G37*
G36*
X98288114Y-29998648D02*
G01*
X98288065Y-30115143D01*
X98288123Y-30212633D01*
X98288595Y-30292805D01*
X98289788Y-30357345D01*
X98292010Y-30407940D01*
X98295568Y-30446278D01*
X98300769Y-30474044D01*
X98307920Y-30492925D01*
X98317328Y-30504608D01*
X98329301Y-30510779D01*
X98344146Y-30513126D01*
X98362170Y-30513335D01*
X98381817Y-30513089D01*
X98443308Y-30513089D01*
X98443308Y-30709667D01*
X98373470Y-30708533D01*
X98329416Y-30706597D01*
X98286629Y-30702736D01*
X98260452Y-30698862D01*
X98197433Y-30679016D01*
X98146566Y-30645572D01*
X98130883Y-30630407D01*
X98117611Y-30616194D01*
X98106455Y-30602626D01*
X98097231Y-30587855D01*
X98089756Y-30570037D01*
X98083845Y-30547325D01*
X98079315Y-30517873D01*
X98075982Y-30479836D01*
X98073663Y-30431367D01*
X98072174Y-30370620D01*
X98071331Y-30295749D01*
X98070950Y-30204909D01*
X98070847Y-30096253D01*
X98070843Y-30027148D01*
X98070843Y-29530196D01*
X98288114Y-29530196D01*
X98288114Y-29998648D01*
G37*
G36*
X101172452Y-31500842D02*
G01*
X101240317Y-31524021D01*
X101297384Y-31563572D01*
X101318576Y-31585261D01*
X101337179Y-31607728D01*
X101352076Y-31630045D01*
X101363675Y-31654767D01*
X101372383Y-31684447D01*
X101378607Y-31721638D01*
X101382755Y-31768895D01*
X101385232Y-31828770D01*
X101386446Y-31903817D01*
X101386805Y-31996590D01*
X101386811Y-32013292D01*
X101386811Y-32297814D01*
X101343812Y-32300947D01*
X101300814Y-32304081D01*
X101296864Y-32016426D01*
X101295431Y-31924547D01*
X101293642Y-31850848D01*
X101291064Y-31792815D01*
X101287267Y-31747936D01*
X101281820Y-31713697D01*
X101274290Y-31687586D01*
X101264248Y-31667089D01*
X101251262Y-31649695D01*
X101234900Y-31632889D01*
X101230305Y-31628553D01*
X101194755Y-31601598D01*
X101155011Y-31585889D01*
X101104627Y-31579305D01*
X101079017Y-31578750D01*
X101011124Y-31585944D01*
X100956818Y-31608038D01*
X100914571Y-31645807D01*
X100897805Y-31670274D01*
X100869499Y-31718425D01*
X100866321Y-32010706D01*
X100863144Y-32302987D01*
X100771210Y-32302987D01*
X100771210Y-31495981D01*
X100864326Y-31495981D01*
X100864326Y-31579804D01*
X100898508Y-31553731D01*
X100951852Y-31520326D01*
X101008541Y-31500979D01*
X101075392Y-31493564D01*
X101092034Y-31493323D01*
X101172452Y-31500842D01*
G37*
G36*
X100106427Y-31494161D02*
G01*
X100166820Y-31506543D01*
X100218440Y-31531292D01*
X100246014Y-31555048D01*
X100255967Y-31568115D01*
X100255597Y-31579392D01*
X100243005Y-31595025D01*
X100229544Y-31608324D01*
X100207856Y-31627978D01*
X100194788Y-31634301D01*
X100184926Y-31629170D01*
X100181277Y-31625071D01*
X100145055Y-31597241D01*
X100093873Y-31581789D01*
X100052248Y-31578750D01*
X99988556Y-31587006D01*
X99934606Y-31610782D01*
X99893683Y-31648588D01*
X99891413Y-31651689D01*
X99876567Y-31674612D01*
X99864842Y-31698768D01*
X99855881Y-31726857D01*
X99849329Y-31761583D01*
X99844827Y-31805646D01*
X99842019Y-31861750D01*
X99840549Y-31932597D01*
X99840060Y-32020888D01*
X99840049Y-32040802D01*
X99840049Y-32302987D01*
X99746933Y-32302987D01*
X99746933Y-31495981D01*
X99840049Y-31495981D01*
X99840049Y-31592968D01*
X99868501Y-31565721D01*
X99918297Y-31529926D01*
X99977596Y-31505982D01*
X100041829Y-31494017D01*
X100106427Y-31494161D01*
G37*
G36*
X92385026Y-31744267D02*
G01*
X92409323Y-31667265D01*
X92446274Y-31604339D01*
X92496378Y-31554372D01*
X92560137Y-31516247D01*
X92565518Y-31513818D01*
X92621372Y-31497788D01*
X92686866Y-31492415D01*
X92753961Y-31497607D01*
X92814614Y-31513275D01*
X92823112Y-31516717D01*
X92879997Y-31551173D01*
X92930911Y-31600825D01*
X92970815Y-31660195D01*
X92985670Y-31693438D01*
X92996218Y-31735731D01*
X93003446Y-31792755D01*
X93007329Y-31858810D01*
X93007842Y-31928200D01*
X93004957Y-31995225D01*
X92998650Y-32054188D01*
X92988894Y-32099390D01*
X92987527Y-32103514D01*
X92959267Y-32160163D01*
X92917485Y-32213389D01*
X92867758Y-32257063D01*
X92826004Y-32281006D01*
X92770122Y-32298533D01*
X92707782Y-32307806D01*
X92648131Y-32307883D01*
X92615632Y-32302681D01*
X92541604Y-32274859D01*
X92480570Y-32231416D01*
X92431481Y-32171458D01*
X92405411Y-32123047D01*
X92392302Y-32091233D01*
X92383430Y-32060022D01*
X92377666Y-32023322D01*
X92373878Y-31975040D01*
X92372387Y-31944977D01*
X92372619Y-31894017D01*
X92468358Y-31894017D01*
X92469625Y-31970367D01*
X92473363Y-32029082D01*
X92479477Y-32068917D01*
X92482180Y-32078219D01*
X92512666Y-32136003D01*
X92556525Y-32180346D01*
X92610373Y-32209948D01*
X92670828Y-32223511D01*
X92734507Y-32219733D01*
X92795550Y-32198579D01*
X92840706Y-32168601D01*
X92874688Y-32128573D01*
X92898241Y-32076492D01*
X92912112Y-32010357D01*
X92917047Y-31928164D01*
X92916193Y-31874616D01*
X92912117Y-31803954D01*
X92905616Y-31751455D01*
X92896364Y-31714695D01*
X92893755Y-31708078D01*
X92859294Y-31650843D01*
X92812620Y-31610209D01*
X92754279Y-31586488D01*
X92684818Y-31579993D01*
X92670413Y-31580732D01*
X92605134Y-31594459D01*
X92551232Y-31625458D01*
X92508495Y-31673867D01*
X92494789Y-31697534D01*
X92484200Y-31719484D01*
X92476885Y-31740030D01*
X92472243Y-31763635D01*
X92469675Y-31794762D01*
X92468581Y-31837875D01*
X92468358Y-31894017D01*
X92372619Y-31894017D01*
X92372880Y-31836466D01*
X92385026Y-31744267D01*
G37*
G36*
X95911830Y-31852863D02*
G01*
X95924534Y-31751160D01*
X95948339Y-31666779D01*
X95983516Y-31599407D01*
X96030335Y-31548733D01*
X96089069Y-31514446D01*
X96159988Y-31496235D01*
X96225303Y-31493021D01*
X96301060Y-31503244D01*
X96367784Y-31530810D01*
X96401329Y-31553253D01*
X96434884Y-31578846D01*
X96438098Y-31540000D01*
X96441371Y-31515613D01*
X96449937Y-31503850D01*
X96469983Y-31499242D01*
X96485676Y-31497953D01*
X96530040Y-31494752D01*
X96527061Y-31973880D01*
X96524081Y-32453007D01*
X96499397Y-32507629D01*
X96464144Y-32564487D01*
X96415070Y-32614799D01*
X96358126Y-32653170D01*
X96322124Y-32668389D01*
X96265970Y-32680291D01*
X96201129Y-32684521D01*
X96137147Y-32680974D01*
X96087721Y-32670904D01*
X96037452Y-32650521D01*
X95991070Y-32623516D01*
X95957024Y-32594875D01*
X95947109Y-32581483D01*
X95948548Y-32569888D01*
X95963154Y-32553279D01*
X95969819Y-32546832D01*
X95999959Y-32517955D01*
X96036969Y-32546184D01*
X96101162Y-32582778D01*
X96171340Y-32600708D01*
X96243737Y-32599370D01*
X96292282Y-32587158D01*
X96342480Y-32563463D01*
X96380267Y-32530832D01*
X96407031Y-32486758D01*
X96424159Y-32428735D01*
X96433037Y-32354256D01*
X96434215Y-32330612D01*
X96438484Y-32218563D01*
X96390985Y-32254820D01*
X96331054Y-32288785D01*
X96263803Y-32307246D01*
X96193646Y-32310542D01*
X96124994Y-32299011D01*
X96062262Y-32272991D01*
X96009863Y-32232821D01*
X96002690Y-32225055D01*
X95960262Y-32161589D01*
X95930470Y-32082939D01*
X95913674Y-31990578D01*
X95912575Y-31957169D01*
X96004648Y-31957169D01*
X96016040Y-32041598D01*
X96039167Y-32110791D01*
X96073515Y-32164148D01*
X96118568Y-32201072D01*
X96173813Y-32220967D01*
X96238735Y-32223234D01*
X96307691Y-32208892D01*
X96348151Y-32186534D01*
X96384494Y-32147650D01*
X96410706Y-32101235D01*
X96420516Y-32066668D01*
X96428008Y-32017115D01*
X96432943Y-31958178D01*
X96435082Y-31895458D01*
X96434185Y-31834559D01*
X96430015Y-31781081D01*
X96425554Y-31753513D01*
X96403283Y-31685351D01*
X96368940Y-31633987D01*
X96322477Y-31599380D01*
X96263844Y-31581487D01*
X96224731Y-31578750D01*
X96161219Y-31584892D01*
X96109873Y-31604120D01*
X96069746Y-31637639D01*
X96039894Y-31686656D01*
X96019369Y-31752376D01*
X96007227Y-31836004D01*
X96005507Y-31858099D01*
X96004648Y-31957169D01*
X95912575Y-31957169D01*
X95910233Y-31885978D01*
X95911830Y-31852863D01*
G37*
G36*
X96687994Y-30174024D02*
G01*
X96690525Y-30132566D01*
X96694580Y-30101652D01*
X96701087Y-30076208D01*
X96710972Y-30051161D01*
X96723923Y-30023955D01*
X96767438Y-29954047D01*
X96821705Y-29900850D01*
X96888539Y-29863043D01*
X96969757Y-29839307D01*
X96980776Y-29837304D01*
X97065364Y-29831954D01*
X97146854Y-29844081D01*
X97222213Y-29872202D01*
X97288406Y-29914836D01*
X97342401Y-29970502D01*
X97378520Y-30031556D01*
X97393857Y-30080443D01*
X97404685Y-30144052D01*
X97410900Y-30216886D01*
X97412403Y-30293449D01*
X97409093Y-30368246D01*
X97400868Y-30435780D01*
X97387627Y-30490555D01*
X97386994Y-30492396D01*
X97351981Y-30562989D01*
X97301667Y-30621591D01*
X97238438Y-30666955D01*
X97164678Y-30697835D01*
X97082772Y-30712984D01*
X96995105Y-30711156D01*
X96974266Y-30708184D01*
X96893379Y-30685566D01*
X96823478Y-30645866D01*
X96788930Y-30616341D01*
X96751435Y-30573870D01*
X96723178Y-30526678D01*
X96703339Y-30471691D01*
X96691096Y-30405832D01*
X96685629Y-30326028D01*
X96685836Y-30280298D01*
X96907543Y-30280298D01*
X96909839Y-30349944D01*
X96916733Y-30402600D01*
X96929326Y-30441671D01*
X96948715Y-30470562D01*
X96975999Y-30492678D01*
X96976107Y-30492745D01*
X97014270Y-30507302D01*
X97058498Y-30510539D01*
X97100582Y-30502806D01*
X97130500Y-30486169D01*
X97152516Y-30463341D01*
X97167975Y-30438544D01*
X97177966Y-30407649D01*
X97183578Y-30366530D01*
X97185900Y-30311059D01*
X97186169Y-30275125D01*
X97184426Y-30202427D01*
X97178506Y-30147217D01*
X97167511Y-30106551D01*
X97150542Y-30077487D01*
X97126700Y-30057081D01*
X97118108Y-30052225D01*
X97073095Y-30038330D01*
X97025050Y-30038549D01*
X96981804Y-30052311D01*
X96965281Y-30063366D01*
X96941401Y-30088581D01*
X96924664Y-30119919D01*
X96914098Y-30161033D01*
X96908729Y-30215577D01*
X96907543Y-30280298D01*
X96685836Y-30280298D01*
X96686059Y-30231099D01*
X96687994Y-30174024D01*
G37*
G36*
X88478431Y-29337627D02*
G01*
X88484666Y-29337797D01*
X88555592Y-29339993D01*
X88620741Y-29342442D01*
X88676889Y-29344990D01*
X88720811Y-29347479D01*
X88749281Y-29349755D01*
X88757787Y-29350997D01*
X88765359Y-29355023D01*
X88760460Y-29361234D01*
X88741060Y-29370715D01*
X88705130Y-29384551D01*
X88674809Y-29395390D01*
X88523835Y-29456633D01*
X88366035Y-29536331D01*
X88202510Y-29633825D01*
X88034358Y-29748455D01*
X87862680Y-29879561D01*
X87848766Y-29890791D01*
X87795567Y-29936122D01*
X87731821Y-29994054D01*
X87660535Y-30061554D01*
X87584716Y-30135587D01*
X87507373Y-30213121D01*
X87431511Y-30291121D01*
X87360140Y-30366555D01*
X87296265Y-30436388D01*
X87242896Y-30497587D01*
X87221547Y-30523435D01*
X87076064Y-30712599D01*
X86946190Y-30899564D01*
X86832415Y-31083379D01*
X86735228Y-31263095D01*
X86655118Y-31437762D01*
X86592573Y-31606429D01*
X86548084Y-31768146D01*
X86529178Y-31868445D01*
X86516758Y-31993739D01*
X86519360Y-32106755D01*
X86536872Y-32206913D01*
X86569184Y-32293630D01*
X86616187Y-32366328D01*
X86625898Y-32377547D01*
X86661357Y-32416795D01*
X86621355Y-32416034D01*
X86597158Y-32413541D01*
X86557534Y-32407195D01*
X86507204Y-32397845D01*
X86450892Y-32386338D01*
X86426159Y-32380970D01*
X86190702Y-32323195D01*
X85970740Y-32257514D01*
X85766691Y-32184209D01*
X85578974Y-32103567D01*
X85408007Y-32015871D01*
X85254211Y-31921407D01*
X85118003Y-31820459D01*
X84999803Y-31713311D01*
X84900029Y-31600249D01*
X84819101Y-31481558D01*
X84757438Y-31357520D01*
X84715457Y-31228422D01*
X84712674Y-31216632D01*
X84705619Y-31168366D01*
X84702360Y-31107047D01*
X84702763Y-31039938D01*
X84706691Y-30974302D01*
X84714012Y-30917401D01*
X84718634Y-30895547D01*
X84754347Y-30780423D01*
X84802483Y-30672105D01*
X84864799Y-30567772D01*
X84943048Y-30464600D01*
X85038987Y-30359769D01*
X85072540Y-30326545D01*
X85172752Y-30234567D01*
X85276093Y-30150730D01*
X85386383Y-30072411D01*
X85507444Y-29996987D01*
X85643098Y-29921834D01*
X85719044Y-29882810D01*
X85947131Y-29777569D01*
X86191383Y-29682510D01*
X86449725Y-29598041D01*
X86720084Y-29524571D01*
X87000386Y-29462510D01*
X87288556Y-29412265D01*
X87582519Y-29374245D01*
X87880202Y-29348860D01*
X88179531Y-29336518D01*
X88478431Y-29337627D01*
G37*
G36*
X94180660Y-30709667D02*
G01*
X93963389Y-30709667D01*
X93963389Y-29840583D01*
X94180660Y-29840583D01*
X94180660Y-30709667D01*
G37*
G36*
X94191006Y-29706082D02*
G01*
X93963389Y-29706082D01*
X93963389Y-29519850D01*
X94191006Y-29519850D01*
X94191006Y-29706082D01*
G37*
G36*
X89372532Y-29421759D02*
G01*
X89400713Y-29425895D01*
X89442192Y-29433225D01*
X89493527Y-29443056D01*
X89551279Y-29454696D01*
X89612006Y-29467451D01*
X89672267Y-29480628D01*
X89728623Y-29493536D01*
X89776085Y-29505087D01*
X89981091Y-29562983D01*
X90177425Y-29630312D01*
X90363096Y-29706125D01*
X90536114Y-29789476D01*
X90694486Y-29879417D01*
X90836221Y-29974999D01*
X90942333Y-30060151D01*
X91053023Y-30167053D01*
X91143812Y-30276741D01*
X91215419Y-30390310D01*
X91268568Y-30508856D01*
X91295308Y-30595907D01*
X91310420Y-30684603D01*
X91314644Y-30782182D01*
X91308268Y-30880873D01*
X91291578Y-30972907D01*
X91279922Y-31012633D01*
X91225233Y-31145537D01*
X91152748Y-31272910D01*
X91127863Y-31309748D01*
X91091257Y-31356987D01*
X91042192Y-31412990D01*
X90984580Y-31473867D01*
X90922331Y-31535727D01*
X90859357Y-31594678D01*
X90799570Y-31646829D01*
X90748671Y-31686982D01*
X90565759Y-31810034D01*
X90365262Y-31924381D01*
X90148531Y-32029663D01*
X89916918Y-32125519D01*
X89671773Y-32211589D01*
X89414447Y-32287512D01*
X89146292Y-32352927D01*
X88868659Y-32407474D01*
X88582899Y-32450791D01*
X88290362Y-32482518D01*
X87992400Y-32502294D01*
X87690364Y-32509758D01*
X87666845Y-32509812D01*
X87614143Y-32509540D01*
X87569265Y-32508725D01*
X87536057Y-32507482D01*
X87518366Y-32505926D01*
X87516560Y-32505336D01*
X87504998Y-32503361D01*
X87477074Y-32501463D01*
X87437120Y-32499871D01*
X87394706Y-32498894D01*
X87331138Y-32497512D01*
X87287437Y-32495295D01*
X87262780Y-32491616D01*
X87256344Y-32485846D01*
X87267306Y-32477358D01*
X87294841Y-32465524D01*
X87332722Y-32451631D01*
X87478442Y-32392252D01*
X87631488Y-32315404D01*
X87790056Y-32222192D01*
X87952347Y-32113720D01*
X88116559Y-31991091D01*
X88216057Y-31910511D01*
X88272685Y-31861056D01*
X88339330Y-31799196D01*
X88412647Y-31728329D01*
X88489294Y-31651851D01*
X88565927Y-31573160D01*
X88639203Y-31495653D01*
X88705778Y-31422728D01*
X88762310Y-31357780D01*
X88774918Y-31342659D01*
X88918578Y-31159823D01*
X89048186Y-30977062D01*
X89163005Y-30795738D01*
X89262298Y-30617210D01*
X89345330Y-30442839D01*
X89411364Y-30273986D01*
X89459664Y-30112010D01*
X89473187Y-30052681D01*
X89493986Y-29921434D01*
X89499773Y-29801374D01*
X89490653Y-29693255D01*
X89466734Y-29597831D01*
X89428119Y-29515854D01*
X89390657Y-29464871D01*
X89371996Y-29441870D01*
X89361743Y-29425725D01*
X89361090Y-29421511D01*
X89372532Y-29421759D01*
G37*
G36*
X97576680Y-31497261D02*
G01*
X97639039Y-31513782D01*
X97693246Y-31544109D01*
X97718463Y-31564649D01*
X97741915Y-31586358D01*
X97760792Y-31606556D01*
X97775620Y-31627743D01*
X97786926Y-31652424D01*
X97795237Y-31683100D01*
X97801079Y-31722275D01*
X97804977Y-31772450D01*
X97807460Y-31836129D01*
X97809054Y-31915815D01*
X97810129Y-32000359D01*
X97813589Y-32302987D01*
X97720270Y-32302987D01*
X97717084Y-32015562D01*
X97716101Y-31930905D01*
X97715093Y-31864265D01*
X97713830Y-31812969D01*
X97712078Y-31774341D01*
X97709606Y-31745707D01*
X97706183Y-31724394D01*
X97701577Y-31707726D01*
X97695555Y-31693030D01*
X97687887Y-31677632D01*
X97687779Y-31677422D01*
X97653795Y-31629666D01*
X97608580Y-31598017D01*
X97550569Y-31581626D01*
X97506020Y-31578750D01*
X97450478Y-31581771D01*
X97408210Y-31592398D01*
X97372475Y-31612975D01*
X97348910Y-31633421D01*
X97330990Y-31652607D01*
X97316691Y-31673503D01*
X97305616Y-31698597D01*
X97297366Y-31730377D01*
X97291543Y-31771332D01*
X97287751Y-31823950D01*
X97285589Y-31890719D01*
X97284660Y-31974127D01*
X97284530Y-32035863D01*
X97284530Y-32302987D01*
X97191413Y-32302987D01*
X97191413Y-31495981D01*
X97284530Y-31495981D01*
X97284530Y-31581206D01*
X97320745Y-31553583D01*
X97378260Y-31518087D01*
X97439357Y-31498673D01*
X97501370Y-31492963D01*
X97576680Y-31497261D01*
G37*
G36*
X98542034Y-30114736D02*
G01*
X98542135Y-30114346D01*
X98573765Y-30029040D01*
X98620339Y-29956967D01*
X98680872Y-29899365D01*
X98742453Y-29862756D01*
X98775803Y-29848932D01*
X98807404Y-29840710D01*
X98844810Y-29836734D01*
X98893369Y-29835651D01*
X98971751Y-29839712D01*
X99036120Y-29853465D01*
X99091539Y-29878592D01*
X99143072Y-29916773D01*
X99146227Y-29919584D01*
X99201848Y-29983410D01*
X99242490Y-30061098D01*
X99267751Y-30151821D01*
X99271747Y-30177416D01*
X99276704Y-30222966D01*
X99279537Y-30266167D01*
X99279714Y-30298539D01*
X99279510Y-30301571D01*
X99276179Y-30342376D01*
X99009764Y-30345137D01*
X98925274Y-30345966D01*
X98859514Y-30346954D01*
X98810524Y-30348790D01*
X98776350Y-30352162D01*
X98755032Y-30357760D01*
X98744615Y-30366272D01*
X98743141Y-30378386D01*
X98748653Y-30394793D01*
X98759194Y-30416180D01*
X98766627Y-30430713D01*
X98793622Y-30470222D01*
X98831661Y-30497877D01*
X98836070Y-30500156D01*
X98893566Y-30520307D01*
X98952676Y-30522656D01*
X99015546Y-30506890D01*
X99084321Y-30472693D01*
X99102876Y-30461106D01*
X99114924Y-30454755D01*
X99126339Y-30454845D01*
X99141015Y-30463562D01*
X99162845Y-30483089D01*
X99190254Y-30510140D01*
X99220759Y-30540999D01*
X99238573Y-30561082D01*
X99245690Y-30574197D01*
X99244102Y-30584149D01*
X99235802Y-30594743D01*
X99235015Y-30595614D01*
X99178498Y-30643370D01*
X99107506Y-30679480D01*
X99025287Y-30702979D01*
X98935091Y-30712900D01*
X98851625Y-30709624D01*
X98787596Y-30696240D01*
X98722308Y-30671612D01*
X98664716Y-30639438D01*
X98644197Y-30623909D01*
X98614557Y-30590697D01*
X98585080Y-30543848D01*
X98559345Y-30490133D01*
X98540930Y-30436325D01*
X98537548Y-30422050D01*
X98529904Y-30366801D01*
X98526646Y-30300661D01*
X98527659Y-30231414D01*
X98532468Y-30171331D01*
X98743348Y-30171331D01*
X98744301Y-30179409D01*
X98749209Y-30185100D01*
X98761150Y-30188822D01*
X98783200Y-30190991D01*
X98818435Y-30192024D01*
X98869932Y-30192338D01*
X98898542Y-30192355D01*
X98958114Y-30192273D01*
X99000079Y-30191712D01*
X99027521Y-30190203D01*
X99043524Y-30187274D01*
X99051173Y-30182455D01*
X99053553Y-30175275D01*
X99053735Y-30168682D01*
X99049146Y-30145528D01*
X99037527Y-30114047D01*
X99030456Y-30098927D01*
X98998850Y-30056995D01*
X98956725Y-30030221D01*
X98908517Y-30019463D01*
X98858662Y-30025578D01*
X98811598Y-30049426D01*
X98804323Y-30055196D01*
X98773285Y-30090129D01*
X98751482Y-30131778D01*
X98743348Y-30171331D01*
X98532468Y-30171331D01*
X98532827Y-30166843D01*
X98542034Y-30114736D01*
G37*
G36*
X94851173Y-31167488D02*
G01*
X94847992Y-31211459D01*
X94540191Y-31214200D01*
X94232391Y-31216940D01*
X94232391Y-31661520D01*
X94761239Y-31661520D01*
X94758057Y-31705492D01*
X94754876Y-31749463D01*
X94493633Y-31752227D01*
X94232391Y-31754992D01*
X94232391Y-32209871D01*
X94854355Y-32209871D01*
X94851173Y-32253842D01*
X94847992Y-32297814D01*
X94488460Y-32300534D01*
X94128929Y-32303255D01*
X94128929Y-31123516D01*
X94854355Y-31123516D01*
X94851173Y-31167488D01*
G37*
G36*
X98890645Y-31739268D02*
G01*
X98899984Y-31705845D01*
X98915038Y-31664327D01*
X98933767Y-31631051D01*
X98961363Y-31597747D01*
X98979696Y-31578912D01*
X99029761Y-31536142D01*
X99080669Y-31509332D01*
X99138861Y-31495891D01*
X99193409Y-31493025D01*
X99261993Y-31497897D01*
X99318235Y-31514204D01*
X99368473Y-31544479D01*
X99406274Y-31578124D01*
X99445528Y-31622607D01*
X99473214Y-31668340D01*
X99491444Y-31720645D01*
X99502330Y-31784843D01*
X99506113Y-31829647D01*
X99511840Y-31920176D01*
X98959906Y-31920176D01*
X98966967Y-31974494D01*
X98984202Y-32056498D01*
X99012646Y-32121298D01*
X99052815Y-32169402D01*
X99105221Y-32201319D01*
X99170377Y-32217557D01*
X99214782Y-32219990D01*
X99292366Y-32211399D01*
X99358829Y-32186504D01*
X99406969Y-32151498D01*
X99434297Y-32125383D01*
X99467746Y-32155270D01*
X99501195Y-32185156D01*
X99452777Y-32227775D01*
X99417390Y-32254443D01*
X99378488Y-32277178D01*
X99356132Y-32286827D01*
X99304011Y-32299608D01*
X99243044Y-32307106D01*
X99182494Y-32308652D01*
X99131621Y-32303575D01*
X99129715Y-32303182D01*
X99057461Y-32278375D01*
X98993218Y-32237870D01*
X98971687Y-32218460D01*
X98929885Y-32162991D01*
X98898740Y-32093040D01*
X98878748Y-32012149D01*
X98870405Y-31923861D01*
X98873544Y-31847752D01*
X98961920Y-31847752D01*
X99418748Y-31847752D01*
X99413011Y-31792168D01*
X99397155Y-31721183D01*
X99366492Y-31662820D01*
X99322606Y-31618619D01*
X99267082Y-31590122D01*
X99201503Y-31578869D01*
X99193591Y-31578750D01*
X99125230Y-31586919D01*
X99068997Y-31611563D01*
X99024686Y-31652890D01*
X98992093Y-31711111D01*
X98971013Y-31786433D01*
X98967378Y-31808954D01*
X98961920Y-31847752D01*
X98873544Y-31847752D01*
X98874205Y-31831720D01*
X98890645Y-31739268D01*
G37*
G36*
X95472633Y-31501699D02*
G01*
X95529722Y-31520852D01*
X95531265Y-31521599D01*
X95568628Y-31543905D01*
X95603266Y-31571159D01*
X95618872Y-31587168D01*
X95635795Y-31609250D01*
X95649356Y-31631902D01*
X95659920Y-31657646D01*
X95667855Y-31689009D01*
X95673524Y-31728515D01*
X95677293Y-31778687D01*
X95679529Y-31842051D01*
X95680598Y-31921131D01*
X95680864Y-32015170D01*
X95680864Y-32302987D01*
X95587747Y-32302987D01*
X95587747Y-32025182D01*
X95587536Y-31934809D01*
X95586695Y-31862480D01*
X95584917Y-31805549D01*
X95581894Y-31761368D01*
X95577319Y-31727292D01*
X95570883Y-31700675D01*
X95562279Y-31678870D01*
X95551199Y-31659231D01*
X95543909Y-31648353D01*
X95508636Y-31614621D01*
X95460540Y-31591717D01*
X95404616Y-31579955D01*
X95345863Y-31579646D01*
X95289277Y-31591103D01*
X95239854Y-31614638D01*
X95222362Y-31628265D01*
X95207544Y-31642528D01*
X95195708Y-31657201D01*
X95186470Y-31674741D01*
X95179445Y-31697603D01*
X95174245Y-31728246D01*
X95170487Y-31769126D01*
X95167784Y-31822699D01*
X95165750Y-31891421D01*
X95164000Y-31977751D01*
X95163552Y-32002946D01*
X95158379Y-32297814D01*
X95114313Y-32301000D01*
X95080382Y-32300057D01*
X95065207Y-32291024D01*
X95065040Y-32290617D01*
X95063934Y-32277507D01*
X95063051Y-32246074D01*
X95062406Y-32198687D01*
X95062013Y-32137714D01*
X95061886Y-32065524D01*
X95062042Y-31984485D01*
X95062494Y-31896967D01*
X95062548Y-31889101D01*
X95065263Y-31501154D01*
X95111821Y-31501154D01*
X95140547Y-31502019D01*
X95154845Y-31507842D01*
X95160979Y-31523469D01*
X95163552Y-31541160D01*
X95167409Y-31566366D01*
X95172311Y-31573871D01*
X95181831Y-31566511D01*
X95187569Y-31560222D01*
X95227264Y-31529886D01*
X95280798Y-31508284D01*
X95342991Y-31495998D01*
X95408663Y-31493609D01*
X95472633Y-31501699D01*
G37*
G36*
X96922411Y-31237325D02*
G01*
X96808603Y-31237325D01*
X96808603Y-31123516D01*
X96922411Y-31123516D01*
X96922411Y-31237325D01*
G37*
G36*
X93539193Y-31164901D02*
G01*
X93538170Y-31191391D01*
X93531266Y-31203162D01*
X93512732Y-31206187D01*
X93499352Y-31206286D01*
X93445059Y-31212588D01*
X93403725Y-31230697D01*
X93378512Y-31258625D01*
X93369782Y-31287175D01*
X93364783Y-31332754D01*
X93363308Y-31392004D01*
X93363308Y-31495981D01*
X93539193Y-31495981D01*
X93539193Y-31568404D01*
X93363308Y-31568404D01*
X93363308Y-32302987D01*
X93270191Y-32302987D01*
X93270191Y-31568404D01*
X93155072Y-31568404D01*
X93158314Y-31534779D01*
X93161340Y-31515149D01*
X93169196Y-31504779D01*
X93187408Y-31500140D01*
X93215874Y-31498026D01*
X93270191Y-31494899D01*
X93270191Y-31386472D01*
X93274615Y-31303432D01*
X93288623Y-31237916D01*
X93313316Y-31188574D01*
X93349798Y-31154056D01*
X93399171Y-31133011D01*
X93462539Y-31124089D01*
X93484876Y-31123574D01*
X93539193Y-31123516D01*
X93539193Y-31164901D01*
G37*
G36*
X100502208Y-31237325D02*
G01*
X100388399Y-31237325D01*
X100388399Y-31123516D01*
X100502208Y-31123516D01*
X100502208Y-31237325D01*
G37*
G36*
X92355604Y-29968764D02*
G01*
X92360692Y-29902451D01*
X92367324Y-29847920D01*
X92375353Y-29809601D01*
X92375370Y-29809545D01*
X92410408Y-29727790D01*
X92461488Y-29657466D01*
X92526516Y-29600042D01*
X92603397Y-29556988D01*
X92690039Y-29529773D01*
X92784345Y-29519866D01*
X92788304Y-29519850D01*
X92885058Y-29528653D01*
X92971559Y-29555283D01*
X93048603Y-29600073D01*
X93107767Y-29653221D01*
X93155305Y-29712037D01*
X93186841Y-29771808D01*
X93206121Y-29839663D01*
X93206298Y-29840583D01*
X93215337Y-29902949D01*
X93221320Y-29976825D01*
X93224352Y-30058023D01*
X93224538Y-30142354D01*
X93221982Y-30225630D01*
X93216790Y-30303661D01*
X93209067Y-30372258D01*
X93198916Y-30427233D01*
X93190958Y-30453968D01*
X93151413Y-30531075D01*
X93096444Y-30596012D01*
X93028101Y-30647688D01*
X92948438Y-30685013D01*
X92859506Y-30706896D01*
X92763356Y-30712246D01*
X92712535Y-30708298D01*
X92630009Y-30688442D01*
X92552559Y-30651109D01*
X92484096Y-30599054D01*
X92428529Y-30535035D01*
X92401580Y-30489135D01*
X92382748Y-30443727D01*
X92369389Y-30393624D01*
X92359574Y-30331341D01*
X92358450Y-30321896D01*
X92353621Y-30263169D01*
X92351069Y-30194060D01*
X92350646Y-30119001D01*
X92351762Y-30064244D01*
X92589286Y-30064244D01*
X92590014Y-30159027D01*
X92590828Y-30182009D01*
X92594649Y-30257164D01*
X92599743Y-30315041D01*
X92606852Y-30359047D01*
X92616721Y-30392590D01*
X92630092Y-30419077D01*
X92647470Y-30441650D01*
X92690761Y-30475221D01*
X92743989Y-30494382D01*
X92801708Y-30498567D01*
X92858473Y-30487205D01*
X92897743Y-30467748D01*
X92925928Y-30444932D01*
X92946905Y-30416776D01*
X92961967Y-30379747D01*
X92972405Y-30330317D01*
X92979510Y-30264955D01*
X92981347Y-30239238D01*
X92984168Y-30172105D01*
X92984482Y-30101449D01*
X92982534Y-30031263D01*
X92978570Y-29965539D01*
X92972833Y-29908270D01*
X92965569Y-29863448D01*
X92957023Y-29835066D01*
X92956486Y-29833995D01*
X92921574Y-29785221D01*
X92875968Y-29753684D01*
X92818432Y-29738674D01*
X92788594Y-29737121D01*
X92726478Y-29745401D01*
X92673892Y-29769131D01*
X92634228Y-29806647D01*
X92627954Y-29815965D01*
X92612545Y-29853524D01*
X92600799Y-29909051D01*
X92592964Y-29980105D01*
X92589286Y-30064244D01*
X92351762Y-30064244D01*
X92352207Y-30042424D01*
X92355604Y-29968764D01*
G37*
G36*
X101626488Y-31784567D02*
G01*
X101628847Y-31748097D01*
X101632831Y-31720265D01*
X101638830Y-31697053D01*
X101646728Y-31675674D01*
X101683846Y-31604789D01*
X101730505Y-31552016D01*
X101787970Y-31516504D01*
X101857507Y-31497399D01*
X101917356Y-31493323D01*
X101987561Y-31498139D01*
X102043952Y-31513564D01*
X102091374Y-31541259D01*
X102113633Y-31560612D01*
X102147259Y-31593156D01*
X102147259Y-31495981D01*
X102230796Y-31495981D01*
X102227826Y-31984840D01*
X102224855Y-32473700D01*
X102192759Y-32530604D01*
X102146175Y-32593703D01*
X102086957Y-32640502D01*
X102015440Y-32670823D01*
X101931959Y-32684490D01*
X101899658Y-32685303D01*
X101855090Y-32682406D01*
X101810882Y-32675439D01*
X101785141Y-32668624D01*
X101749441Y-32652748D01*
X101709516Y-32630016D01*
X101688797Y-32616035D01*
X101639012Y-32579632D01*
X101667454Y-32549945D01*
X101687651Y-32531034D01*
X101702594Y-32520834D01*
X101704913Y-32520258D01*
X101717809Y-32526158D01*
X101740117Y-32541099D01*
X101752122Y-32550167D01*
X101811190Y-32583876D01*
X101877440Y-32600419D01*
X101946071Y-32599497D01*
X102012282Y-32580815D01*
X102037860Y-32567810D01*
X102078405Y-32536316D01*
X102108470Y-32494251D01*
X102129113Y-32439129D01*
X102141389Y-32368463D01*
X102145300Y-32314888D01*
X102150196Y-32204809D01*
X102108695Y-32242303D01*
X102064278Y-32275457D01*
X102016004Y-32295947D01*
X101958176Y-32305621D01*
X101909295Y-32306951D01*
X101831441Y-32298580D01*
X101766891Y-32274813D01*
X101714169Y-32234635D01*
X101671800Y-32177029D01*
X101648034Y-32127101D01*
X101639352Y-32103473D01*
X101633165Y-32079937D01*
X101629059Y-32052396D01*
X101626621Y-32016750D01*
X101625440Y-31968902D01*
X101625101Y-31904754D01*
X101625098Y-31899484D01*
X101625157Y-31885031D01*
X101718119Y-31885031D01*
X101718134Y-31899484D01*
X101719402Y-31976523D01*
X101723537Y-32036478D01*
X101731430Y-32082862D01*
X101743974Y-32119189D01*
X101762059Y-32148972D01*
X101786578Y-32175724D01*
X101788769Y-32177769D01*
X101833583Y-32206077D01*
X101888855Y-32220975D01*
X101948943Y-32222060D01*
X102008209Y-32208924D01*
X102038066Y-32195679D01*
X102075465Y-32164346D01*
X102105761Y-32116075D01*
X102128117Y-32053646D01*
X102141695Y-31979844D01*
X102145656Y-31897451D01*
X102143202Y-31846644D01*
X102134154Y-31771904D01*
X102120138Y-31713909D01*
X102099866Y-31669038D01*
X102072049Y-31633675D01*
X102065047Y-31627044D01*
X102025905Y-31598846D01*
X101982350Y-31583372D01*
X101928748Y-31579102D01*
X101894043Y-31580885D01*
X101836121Y-31594280D01*
X101789087Y-31624564D01*
X101751496Y-31672774D01*
X101742559Y-31689438D01*
X101733079Y-31709981D01*
X101726397Y-31729885D01*
X101722036Y-31753247D01*
X101719520Y-31784161D01*
X101718373Y-31826724D01*
X101718119Y-31885031D01*
X101625157Y-31885031D01*
X101625368Y-31833690D01*
X101626488Y-31784567D01*
G37*
G36*
X100329692Y-30072241D02*
G01*
X100367168Y-29996405D01*
X100417291Y-29933370D01*
X100479044Y-29884448D01*
X100551409Y-29850950D01*
X100633368Y-29834188D01*
X100713951Y-29834445D01*
X100800835Y-29851609D01*
X100875859Y-29885344D01*
X100938377Y-29934829D01*
X100987743Y-29999242D01*
X101023310Y-30077765D01*
X101044432Y-30169576D01*
X101050558Y-30261780D01*
X101050558Y-30347549D01*
X100514733Y-30347549D01*
X100522589Y-30382379D01*
X100533849Y-30416686D01*
X100549725Y-30449849D01*
X100581918Y-30485271D01*
X100626911Y-30509220D01*
X100680071Y-30521370D01*
X100736761Y-30521391D01*
X100792347Y-30508957D01*
X100842194Y-30483738D01*
X100857644Y-30471640D01*
X100891782Y-30441667D01*
X101023834Y-30574903D01*
X100989872Y-30609942D01*
X100937402Y-30651302D01*
X100870692Y-30683928D01*
X100795221Y-30705350D01*
X100768720Y-30709619D01*
X100731528Y-30714238D01*
X100703077Y-30717375D01*
X100688917Y-30718425D01*
X100688440Y-30718382D01*
X100676232Y-30716626D01*
X100649597Y-30713044D01*
X100619032Y-30709029D01*
X100532929Y-30688968D01*
X100459996Y-30652972D01*
X100400327Y-30601146D01*
X100354019Y-30533594D01*
X100321166Y-30450420D01*
X100303333Y-30363441D01*
X100296757Y-30257071D01*
X100302814Y-30192355D01*
X100514754Y-30192355D01*
X100834931Y-30192355D01*
X100827911Y-30158730D01*
X100807498Y-30100123D01*
X100774539Y-30057261D01*
X100729992Y-30030990D01*
X100674813Y-30022156D01*
X100673469Y-30022164D01*
X100617468Y-30029819D01*
X100574979Y-30052372D01*
X100544593Y-30091019D01*
X100524902Y-30146952D01*
X100524579Y-30148384D01*
X100514754Y-30192355D01*
X100302814Y-30192355D01*
X100305882Y-30159567D01*
X100329692Y-30072241D01*
G37*
G36*
X99432256Y-30115215D02*
G01*
X99443912Y-30045781D01*
X99463229Y-29988595D01*
X99490833Y-29941118D01*
X99527353Y-29900810D01*
X99528485Y-29899782D01*
X99584197Y-29862606D01*
X99650035Y-29839731D01*
X99720768Y-29831594D01*
X99791162Y-29838632D01*
X99855983Y-29861281D01*
X99873278Y-29871010D01*
X99922819Y-29901806D01*
X99922819Y-29840583D01*
X100140090Y-29840583D01*
X100140090Y-30288767D01*
X100140007Y-30404986D01*
X100139623Y-30502515D01*
X100138730Y-30583351D01*
X100137121Y-30649497D01*
X100134590Y-30702952D01*
X100130930Y-30745718D01*
X100125935Y-30779793D01*
X100119397Y-30807180D01*
X100111111Y-30829878D01*
X100100869Y-30849888D01*
X100088465Y-30869210D01*
X100078703Y-30882958D01*
X100036150Y-30928916D01*
X99980870Y-30970330D01*
X99920793Y-31001440D01*
X99910000Y-31005530D01*
X99869218Y-31015487D01*
X99815562Y-31022444D01*
X99756693Y-31025946D01*
X99700272Y-31025539D01*
X99653962Y-31020767D01*
X99653817Y-31020740D01*
X99570202Y-30996071D01*
X99497131Y-30954350D01*
X99486555Y-30946266D01*
X99445272Y-30913570D01*
X99584356Y-30773412D01*
X99625703Y-30800774D01*
X99658036Y-30818147D01*
X99694110Y-30827674D01*
X99735443Y-30831527D01*
X99799434Y-30828438D01*
X99848796Y-30811399D01*
X99884613Y-30779416D01*
X99907968Y-30731494D01*
X99919947Y-30666639D01*
X99920347Y-30661948D01*
X99925762Y-30594485D01*
X99886659Y-30621020D01*
X99826069Y-30651172D01*
X99759129Y-30666055D01*
X99690026Y-30666362D01*
X99622943Y-30652783D01*
X99562065Y-30626011D01*
X99511578Y-30586738D01*
X99486313Y-30554831D01*
X99467217Y-30522118D01*
X99453267Y-30490283D01*
X99443446Y-30454788D01*
X99436738Y-30411096D01*
X99432125Y-30354670D01*
X99429416Y-30300991D01*
X99428564Y-30252450D01*
X99653817Y-30252450D01*
X99654648Y-30303810D01*
X99657788Y-30340637D01*
X99664203Y-30369048D01*
X99674860Y-30395157D01*
X99677096Y-30399674D01*
X99707110Y-30439051D01*
X99746899Y-30461831D01*
X99792745Y-30467110D01*
X99840933Y-30453980D01*
X99859019Y-30444018D01*
X99883800Y-30421319D01*
X99901110Y-30387896D01*
X99911743Y-30341015D01*
X99916490Y-30277940D01*
X99916917Y-30244086D01*
X99913526Y-30170390D01*
X99902888Y-30114723D01*
X99883961Y-30075376D01*
X99855700Y-30050637D01*
X99817062Y-30038796D01*
X99790675Y-30037162D01*
X99743027Y-30042250D01*
X99706826Y-30058695D01*
X99680946Y-30088265D01*
X99664264Y-30132729D01*
X99655653Y-30193856D01*
X99653817Y-30252450D01*
X99428564Y-30252450D01*
X99427633Y-30199439D01*
X99432256Y-30115215D01*
G37*
G04 #@! TO.C,J1*
X198060000Y-20473200D02*
X199390000Y-20473200D01*
X198060000Y-23073200D02*
X198060000Y-30753200D01*
X198060000Y-23073200D02*
X200720000Y-23073200D01*
X200720000Y-23073200D02*
X200720000Y-30753200D01*
X198060000Y-21803200D02*
X198060000Y-20473200D01*
X198060000Y-30753200D02*
X200720000Y-30753200D01*
G04 #@! TO.C,G\u002A\u002A\u002A*
G36*
X89330004Y-26281737D02*
G01*
X89392895Y-26284492D01*
X89430046Y-26290012D01*
X89447281Y-26299057D01*
X89450645Y-26309044D01*
X89435154Y-26332051D01*
X89414573Y-26337100D01*
X89386108Y-26339031D01*
X89363973Y-26347597D01*
X89347377Y-26366957D01*
X89335527Y-26401266D01*
X89327632Y-26454684D01*
X89322901Y-26531367D01*
X89320542Y-26635475D01*
X89319763Y-26771164D01*
X89319717Y-26835321D01*
X89320478Y-26967023D01*
X89322626Y-27084572D01*
X89325961Y-27182751D01*
X89330283Y-27256341D01*
X89335390Y-27300126D01*
X89337928Y-27308784D01*
X89369383Y-27339456D01*
X89403391Y-27354671D01*
X89438653Y-27369688D01*
X89450645Y-27384879D01*
X89432834Y-27392826D01*
X89382910Y-27398813D01*
X89306140Y-27402392D01*
X89235549Y-27403226D01*
X89150867Y-27401981D01*
X89081880Y-27398597D01*
X89035970Y-27393599D01*
X89020453Y-27387898D01*
X89035826Y-27370970D01*
X89073590Y-27349303D01*
X89081241Y-27345814D01*
X89142029Y-27319058D01*
X89142029Y-26365155D01*
X89081241Y-26347260D01*
X89040167Y-26328771D01*
X89020698Y-26307421D01*
X89020453Y-26305176D01*
X89029875Y-26294174D01*
X89061303Y-26286841D01*
X89119478Y-26282642D01*
X89209144Y-26281043D01*
X89235549Y-26280988D01*
X89330004Y-26281737D01*
G37*
G36*
X89012723Y-24522814D02*
G01*
X89051416Y-24461310D01*
X89096748Y-24405787D01*
X89152359Y-24354153D01*
X89221892Y-24304316D01*
X89308985Y-24254182D01*
X89417280Y-24201658D01*
X89550417Y-24144653D01*
X89712037Y-24081074D01*
X89905781Y-24008827D01*
X89908892Y-24007688D01*
X90226860Y-23891296D01*
X90232287Y-23717027D01*
X90228888Y-23548330D01*
X90206460Y-23410934D01*
X90163932Y-23303326D01*
X90100231Y-23223991D01*
X90014283Y-23171412D01*
X89905015Y-23144076D01*
X89823021Y-23139130D01*
X89741460Y-23143217D01*
X89659703Y-23154197D01*
X89611827Y-23165178D01*
X89523913Y-23191636D01*
X89475638Y-23115164D01*
X89447602Y-23068629D01*
X89438667Y-23042281D01*
X89447365Y-23025062D01*
X89462118Y-23013280D01*
X89507134Y-22989991D01*
X89579326Y-22963329D01*
X89669001Y-22936244D01*
X89766465Y-22911687D01*
X89853949Y-22893992D01*
X89926842Y-22885525D01*
X90021810Y-22880331D01*
X90123612Y-22879062D01*
X90176139Y-22880239D01*
X90270933Y-22884870D01*
X90340239Y-22892111D01*
X90395978Y-22904452D01*
X90450070Y-22924383D01*
X90501797Y-22948252D01*
X90614794Y-23016263D01*
X90702910Y-23102169D01*
X90775008Y-23214897D01*
X90783791Y-23232239D01*
X90793508Y-23252816D01*
X90801628Y-23274057D01*
X90808335Y-23299445D01*
X90813817Y-23332461D01*
X90818258Y-23376587D01*
X90821845Y-23435305D01*
X90824764Y-23512097D01*
X90827200Y-23610446D01*
X90829341Y-23733833D01*
X90831371Y-23885740D01*
X90833476Y-24069649D01*
X90834739Y-24186142D01*
X90844091Y-25055877D01*
X91236875Y-25074581D01*
X91242714Y-25125196D01*
X91242517Y-25152240D01*
X91230299Y-25174437D01*
X91199514Y-25197847D01*
X91143617Y-25228528D01*
X91115848Y-25242640D01*
X90964399Y-25308866D01*
X90822874Y-25347751D01*
X90679016Y-25362078D01*
X90596414Y-25360602D01*
X90506322Y-25353235D01*
X90444160Y-25340996D01*
X90400552Y-25321797D01*
X90390089Y-25314667D01*
X90315598Y-25239789D01*
X90263356Y-25147085D01*
X90245721Y-25084864D01*
X90233386Y-25011851D01*
X90155307Y-25087300D01*
X90062652Y-25166741D01*
X89958497Y-25239712D01*
X89854578Y-25298771D01*
X89762629Y-25336480D01*
X89761927Y-25336689D01*
X89673020Y-25354421D01*
X89568636Y-25362270D01*
X89463338Y-25360205D01*
X89371691Y-25348195D01*
X89333139Y-25337611D01*
X89206727Y-25273668D01*
X89103112Y-25182177D01*
X89024905Y-25067085D01*
X88974718Y-24932341D01*
X88955160Y-24781890D01*
X88954989Y-24765966D01*
X88957169Y-24685972D01*
X88966245Y-24627234D01*
X88969994Y-24617090D01*
X89565993Y-24617090D01*
X89574880Y-24723490D01*
X89599600Y-24798311D01*
X89654391Y-24878758D01*
X89731028Y-24930210D01*
X89826892Y-24951971D01*
X89939364Y-24943344D01*
X90037566Y-24914834D01*
X90103626Y-24886618D01*
X90162368Y-24855670D01*
X90187900Y-24838661D01*
X90236212Y-24800658D01*
X90236212Y-24108805D01*
X90195722Y-24121657D01*
X90143318Y-24141070D01*
X90069768Y-24171882D01*
X89984039Y-24209929D01*
X89895096Y-24251049D01*
X89811907Y-24291081D01*
X89743439Y-24325862D01*
X89698658Y-24351230D01*
X89693172Y-24354923D01*
X89627071Y-24423651D01*
X89584034Y-24514092D01*
X89565993Y-24617090D01*
X88969994Y-24617090D01*
X88986022Y-24573725D01*
X89012723Y-24522814D01*
G37*
G36*
X85033261Y-25050303D02*
G01*
X85033915Y-24965709D01*
X85034515Y-24852167D01*
X85035054Y-24712497D01*
X85035521Y-24549519D01*
X85035908Y-24366053D01*
X85036206Y-24164919D01*
X85036407Y-23948937D01*
X85036500Y-23720927D01*
X85036506Y-23646439D01*
X85036506Y-22171537D01*
X84868171Y-22147409D01*
X84699835Y-22123280D01*
X84699835Y-21957672D01*
X85546190Y-21964975D01*
X85747091Y-21966776D01*
X85914353Y-21968526D01*
X86051743Y-21970413D01*
X86163029Y-21972624D01*
X86251978Y-21975346D01*
X86322359Y-21978767D01*
X86377939Y-21983074D01*
X86422485Y-21988455D01*
X86459766Y-21995097D01*
X86493549Y-22003188D01*
X86527601Y-22012915D01*
X86531170Y-22013986D01*
X86714034Y-22080283D01*
X86863806Y-22159884D01*
X86982994Y-22254601D01*
X87074104Y-22366245D01*
X87112372Y-22433926D01*
X87172291Y-22594440D01*
X87196441Y-22755515D01*
X87186211Y-22913388D01*
X87142991Y-23064300D01*
X87068170Y-23204488D01*
X86963136Y-23330191D01*
X86829279Y-23437648D01*
X86718577Y-23500285D01*
X86588928Y-23562998D01*
X86718989Y-23614025D01*
X86904179Y-23702411D01*
X87057185Y-23809737D01*
X87178228Y-23936257D01*
X87267528Y-24082224D01*
X87325306Y-24247890D01*
X87340527Y-24325327D01*
X87348424Y-24493294D01*
X87321735Y-24657666D01*
X87263241Y-24813135D01*
X87175725Y-24954399D01*
X87061970Y-25076151D01*
X86924757Y-25173087D01*
X86885032Y-25193838D01*
X86830365Y-25220185D01*
X86781140Y-25242432D01*
X86733702Y-25260953D01*
X86684396Y-25276118D01*
X86629568Y-25288301D01*
X86565561Y-25297873D01*
X86488722Y-25305207D01*
X86395394Y-25310675D01*
X86281923Y-25314649D01*
X86144654Y-25317501D01*
X85979932Y-25319604D01*
X85784101Y-25321330D01*
X85621006Y-25322553D01*
X84699835Y-25329324D01*
X84699835Y-25253388D01*
X84700859Y-25206092D01*
X84703421Y-25179528D01*
X84704511Y-25177427D01*
X84723741Y-25174399D01*
X84771081Y-25166336D01*
X84837806Y-25154731D01*
X84868171Y-25149397D01*
X84940237Y-25136789D01*
X84996431Y-25127120D01*
X85028027Y-25121885D01*
X85031830Y-25121367D01*
X85032458Y-25105731D01*
X85634803Y-25105731D01*
X85957562Y-25099227D01*
X86077962Y-25096376D01*
X86167995Y-25092812D01*
X86234703Y-25087688D01*
X86285126Y-25080151D01*
X86326306Y-25069353D01*
X86365284Y-25054442D01*
X86379221Y-25048314D01*
X86493447Y-24977090D01*
X86584558Y-24877265D01*
X86650777Y-24750961D01*
X86666485Y-24705083D01*
X86688997Y-24598090D01*
X86699354Y-24474151D01*
X86697901Y-24345312D01*
X86684983Y-24223620D01*
X86660946Y-24121124D01*
X86648851Y-24089449D01*
X86582286Y-23973398D01*
X86493306Y-23878676D01*
X86379411Y-23803927D01*
X86238101Y-23747789D01*
X86066874Y-23708904D01*
X85913816Y-23689931D01*
X85771758Y-23677283D01*
X85732623Y-23584653D01*
X85710770Y-23525036D01*
X85707957Y-23493057D01*
X85715697Y-23485225D01*
X85743165Y-23481301D01*
X85798482Y-23476399D01*
X85872128Y-23471304D01*
X85915593Y-23468779D01*
X86075699Y-23450617D01*
X86216486Y-23415572D01*
X86331235Y-23365517D01*
X86366246Y-23343212D01*
X86440168Y-23269491D01*
X86499367Y-23167814D01*
X86541272Y-23045605D01*
X86563314Y-22910288D01*
X86563323Y-22773992D01*
X86539703Y-22610921D01*
X86497231Y-22478073D01*
X86434274Y-22372459D01*
X86349195Y-22291092D01*
X86274698Y-22246517D01*
X86230068Y-22225603D01*
X86190550Y-22211149D01*
X86147778Y-22201968D01*
X86093389Y-22196869D01*
X86019017Y-22194666D01*
X85916297Y-22194170D01*
X85906241Y-22194169D01*
X85644386Y-22194169D01*
X85639595Y-23649950D01*
X85634803Y-25105731D01*
X85032458Y-25105731D01*
X85032563Y-25103129D01*
X85033261Y-25050303D01*
G37*
G36*
X85913427Y-26282281D02*
G01*
X85971476Y-26286490D01*
X86000242Y-26294113D01*
X86004724Y-26303508D01*
X85982927Y-26323578D01*
X85940818Y-26340641D01*
X85939891Y-26340884D01*
X85889512Y-26367450D01*
X85871279Y-26397855D01*
X85867502Y-26430084D01*
X85864218Y-26492527D01*
X85861660Y-26577991D01*
X85860060Y-26679285D01*
X85859632Y-26757939D01*
X85858295Y-26869326D01*
X85854829Y-26973093D01*
X85849670Y-27061111D01*
X85843257Y-27125250D01*
X85838520Y-27150661D01*
X85802379Y-27226104D01*
X85741661Y-27300384D01*
X85667765Y-27362097D01*
X85592095Y-27399843D01*
X85588212Y-27400969D01*
X85481294Y-27418376D01*
X85366559Y-27417208D01*
X85263148Y-27397859D01*
X85251602Y-27394052D01*
X85167292Y-27346796D01*
X85093547Y-27272872D01*
X85039483Y-27182994D01*
X85019166Y-27120877D01*
X85012433Y-27070606D01*
X85006662Y-26991493D01*
X85002263Y-26892099D01*
X84999648Y-26780986D01*
X84999098Y-26703197D01*
X84998683Y-26579912D01*
X84996663Y-26488850D01*
X84991877Y-26424827D01*
X84983165Y-26382661D01*
X84969363Y-26357167D01*
X84949313Y-26343164D01*
X84921851Y-26335468D01*
X84916480Y-26334436D01*
X84882847Y-26318139D01*
X84872838Y-26304368D01*
X84878486Y-26293848D01*
X84906690Y-26286794D01*
X84961936Y-26282702D01*
X85048709Y-26281072D01*
X85081708Y-26280988D01*
X85190373Y-26283146D01*
X85261947Y-26289637D01*
X85296496Y-26300485D01*
X85294088Y-26315715D01*
X85254791Y-26335353D01*
X85242137Y-26339942D01*
X85192962Y-26371450D01*
X85174592Y-26404646D01*
X85171321Y-26437602D01*
X85169302Y-26500881D01*
X85168604Y-26587416D01*
X85169296Y-26690140D01*
X85170948Y-26781532D01*
X85174177Y-26903489D01*
X85177920Y-26994539D01*
X85182953Y-27061186D01*
X85190052Y-27109931D01*
X85199994Y-27147275D01*
X85213552Y-27179721D01*
X85219973Y-27192421D01*
X85266357Y-27259819D01*
X85326132Y-27303661D01*
X85405880Y-27326812D01*
X85512181Y-27332135D01*
X85539038Y-27331231D01*
X85607981Y-27310757D01*
X85672565Y-27260550D01*
X85725769Y-27188187D01*
X85760574Y-27101247D01*
X85763435Y-27089014D01*
X85770644Y-27037293D01*
X85776366Y-26961232D01*
X85780546Y-26868377D01*
X85783127Y-26766271D01*
X85784052Y-26662462D01*
X85783265Y-26564493D01*
X85780709Y-26479910D01*
X85776329Y-26416257D01*
X85770066Y-26381081D01*
X85768757Y-26378390D01*
X85740546Y-26356179D01*
X85700122Y-26339962D01*
X85659382Y-26322774D01*
X85639370Y-26303348D01*
X85646979Y-26292521D01*
X85680995Y-26285510D01*
X85745307Y-26281839D01*
X85822073Y-26280988D01*
X85913427Y-26282281D01*
G37*
G36*
X96624593Y-26265129D02*
G01*
X96753433Y-26295455D01*
X96754548Y-26295834D01*
X96848067Y-26327748D01*
X96859919Y-26458675D01*
X96863678Y-26543419D01*
X96857711Y-26594840D01*
X96843610Y-26612048D01*
X96822963Y-26594150D01*
X96797363Y-26540254D01*
X96783793Y-26501371D01*
X96740155Y-26419371D01*
X96673408Y-26363486D01*
X96589392Y-26338145D01*
X96567116Y-26337100D01*
X96481840Y-26351026D01*
X96420800Y-26390959D01*
X96387109Y-26454128D01*
X96381318Y-26502396D01*
X96390600Y-26564922D01*
X96421444Y-26618937D01*
X96478348Y-26669217D01*
X96565810Y-26720538D01*
X96604916Y-26739841D01*
X96681375Y-26781938D01*
X96755161Y-26831851D01*
X96809441Y-26877976D01*
X96852805Y-26926857D01*
X96876351Y-26970202D01*
X96887564Y-27025052D01*
X96891000Y-27063702D01*
X96887153Y-27174082D01*
X96856353Y-27260997D01*
X96796536Y-27328908D01*
X96755209Y-27357067D01*
X96677855Y-27388713D01*
X96580757Y-27409367D01*
X96480619Y-27416457D01*
X96408524Y-27410450D01*
X96360877Y-27398521D01*
X96300502Y-27379474D01*
X96284614Y-27373859D01*
X96234321Y-27351410D01*
X96208810Y-27323855D01*
X96196292Y-27278220D01*
X96195975Y-27276322D01*
X96185650Y-27190360D01*
X96184436Y-27118968D01*
X96191899Y-27069202D01*
X96207604Y-27048118D01*
X96210051Y-27047851D01*
X96231022Y-27064285D01*
X96246725Y-27104740D01*
X96247513Y-27108639D01*
X96277994Y-27196924D01*
X96329487Y-27270335D01*
X96394311Y-27318144D01*
X96398981Y-27320184D01*
X96494927Y-27345288D01*
X96580733Y-27339569D01*
X96651178Y-27305923D01*
X96701038Y-27247243D01*
X96725089Y-27166424D01*
X96726492Y-27138702D01*
X96714915Y-27076293D01*
X96677771Y-27019536D01*
X96611440Y-26964673D01*
X96512304Y-26907950D01*
X96496521Y-26900098D01*
X96383151Y-26838950D01*
X96301889Y-26780849D01*
X96248256Y-26721046D01*
X96217771Y-26654794D01*
X96206982Y-26593263D01*
X96214173Y-26488766D01*
X96251688Y-26401280D01*
X96315507Y-26332991D01*
X96401610Y-26286080D01*
X96505979Y-26262732D01*
X96624593Y-26265129D01*
G37*
G36*
X92056498Y-22834194D02*
G01*
X92064751Y-22875229D01*
X92070413Y-22947894D01*
X92073265Y-23026543D01*
X92078553Y-23232335D01*
X92181463Y-23159283D01*
X92352554Y-23051573D01*
X92525113Y-22968748D01*
X92695613Y-22910976D01*
X92860529Y-22878422D01*
X93016335Y-22871253D01*
X93159505Y-22889635D01*
X93286514Y-22933735D01*
X93393835Y-23003719D01*
X93476894Y-23098153D01*
X93509011Y-23154192D01*
X93544348Y-23226720D01*
X93566707Y-23278999D01*
X93577133Y-23305896D01*
X93585818Y-23331748D01*
X93592950Y-23360151D01*
X93598717Y-23394700D01*
X93603307Y-23438990D01*
X93606908Y-23496617D01*
X93609708Y-23571177D01*
X93611896Y-23666264D01*
X93613659Y-23785474D01*
X93615185Y-23932403D01*
X93616663Y-24110645D01*
X93617761Y-24254815D01*
X93624268Y-25118406D01*
X93758554Y-25139967D01*
X93846339Y-25154349D01*
X93903706Y-25166179D01*
X93937120Y-25179134D01*
X93953050Y-25196890D01*
X93957961Y-25223125D01*
X93958303Y-25253529D01*
X93958303Y-25327085D01*
X93005751Y-25327085D01*
X93000400Y-24415266D01*
X92999092Y-24205841D01*
X92997750Y-24030491D01*
X92996235Y-23885885D01*
X92994412Y-23768691D01*
X92992143Y-23675576D01*
X92989290Y-23603208D01*
X92985718Y-23548256D01*
X92981289Y-23507388D01*
X92975865Y-23477271D01*
X92969311Y-23454572D01*
X92961489Y-23435961D01*
X92960010Y-23432939D01*
X92922252Y-23375880D01*
X92874937Y-23327175D01*
X92867286Y-23321354D01*
X92793086Y-23288398D01*
X92693669Y-23273372D01*
X92576290Y-23275636D01*
X92448206Y-23294551D01*
X92316672Y-23329477D01*
X92188945Y-23379774D01*
X92185292Y-23381493D01*
X92069201Y-23436395D01*
X92069201Y-25116209D01*
X92214157Y-25139473D01*
X92306685Y-25155812D01*
X92367847Y-25171708D01*
X92403496Y-25190519D01*
X92419481Y-25215602D01*
X92421651Y-25250315D01*
X92420993Y-25258188D01*
X92415225Y-25317733D01*
X91943103Y-25322730D01*
X91470981Y-25327726D01*
X91466152Y-24256603D01*
X91461322Y-23185479D01*
X91305932Y-23180030D01*
X91150541Y-23174580D01*
X91162059Y-23035848D01*
X91592250Y-22929084D01*
X91714453Y-22898955D01*
X91825093Y-22872052D01*
X91918825Y-22849647D01*
X91990303Y-22833007D01*
X92034180Y-22823402D01*
X92045209Y-22821537D01*
X92056498Y-22834194D01*
G37*
G36*
X99971335Y-22838923D02*
G01*
X99973295Y-22891306D01*
X99975105Y-22974705D01*
X99976732Y-23085924D01*
X99978143Y-23221766D01*
X99979306Y-23379036D01*
X99980189Y-23554537D01*
X99980758Y-23745074D01*
X99980981Y-23947450D01*
X99980984Y-23968929D01*
X99980984Y-25117105D01*
X100107235Y-25139581D01*
X100193509Y-25155161D01*
X100249345Y-25167469D01*
X100281058Y-25180185D01*
X100294967Y-25196991D01*
X100297388Y-25221569D01*
X100295309Y-25249182D01*
X100289599Y-25317733D01*
X99658340Y-25322658D01*
X99027081Y-25327582D01*
X99027081Y-25253778D01*
X99027663Y-25218184D01*
X99033693Y-25193908D01*
X99051592Y-25177266D01*
X99087783Y-25164576D01*
X99148689Y-25152155D01*
X99228148Y-25138466D01*
X99363752Y-25115350D01*
X99363752Y-23176128D01*
X99045785Y-23176128D01*
X99045785Y-23111767D01*
X99049469Y-23066141D01*
X99058474Y-23039900D01*
X99059813Y-23038784D01*
X99080559Y-23032591D01*
X99131637Y-23019350D01*
X99206951Y-23000523D01*
X99300406Y-22977570D01*
X99405906Y-22951953D01*
X99517355Y-22925134D01*
X99628658Y-22898573D01*
X99733719Y-22873733D01*
X99826444Y-22852074D01*
X99900735Y-22835058D01*
X99950498Y-22824146D01*
X99969258Y-22820752D01*
X99971335Y-22838923D01*
G37*
G36*
X94657013Y-26290629D02*
G01*
X94740628Y-26292059D01*
X94800693Y-26295466D01*
X94844136Y-26301690D01*
X94877885Y-26311571D01*
X94908868Y-26325946D01*
X94929050Y-26337100D01*
X94990160Y-26382063D01*
X95037681Y-26435363D01*
X95045950Y-26449032D01*
X95072446Y-26529192D01*
X95079748Y-26621916D01*
X95066583Y-26707181D01*
X95062997Y-26717481D01*
X95038674Y-26759112D01*
X95000542Y-26803950D01*
X94959297Y-26841226D01*
X94925636Y-26860170D01*
X94920648Y-26860811D01*
X94890629Y-26870981D01*
X94866676Y-26885655D01*
X94853839Y-26898172D01*
X94851178Y-26914602D01*
X94861437Y-26940580D01*
X94887357Y-26981740D01*
X94931684Y-27043715D01*
X94966779Y-27091244D01*
X95025911Y-27167964D01*
X95084124Y-27238316D01*
X95134208Y-27293874D01*
X95165515Y-27323580D01*
X95204757Y-27357790D01*
X95227709Y-27383404D01*
X95230173Y-27389198D01*
X95213061Y-27396150D01*
X95168070Y-27401167D01*
X95104717Y-27403220D01*
X95100817Y-27403226D01*
X95051641Y-27402975D01*
X95012854Y-27399578D01*
X94979971Y-27389075D01*
X94948509Y-27367502D01*
X94913985Y-27330897D01*
X94871915Y-27275298D01*
X94817814Y-27196743D01*
X94747200Y-27091268D01*
X94746309Y-27089935D01*
X94692143Y-27011170D01*
X94652223Y-26959633D01*
X94621847Y-26930296D01*
X94596312Y-26918135D01*
X94584404Y-26916923D01*
X94563239Y-26918149D01*
X94549770Y-26926425D01*
X94542258Y-26948646D01*
X94538964Y-26991708D01*
X94538148Y-27062508D01*
X94538126Y-27100388D01*
X94540440Y-27201637D01*
X94548668Y-27271523D01*
X94564738Y-27315880D01*
X94590579Y-27340540D01*
X94620744Y-27350212D01*
X94654384Y-27366151D01*
X94664387Y-27379846D01*
X94658783Y-27390176D01*
X94630920Y-27397175D01*
X94576359Y-27401318D01*
X94490661Y-27403081D01*
X94446165Y-27403226D01*
X94358467Y-27401891D01*
X94286868Y-27398244D01*
X94238418Y-27392821D01*
X94220167Y-27386161D01*
X94220159Y-27386008D01*
X94236286Y-27370430D01*
X94275205Y-27356704D01*
X94276426Y-27356432D01*
X94322782Y-27336781D01*
X94351242Y-27309416D01*
X94356962Y-27280222D01*
X94361870Y-27218608D01*
X94365765Y-27129557D01*
X94368447Y-27018053D01*
X94369715Y-26889078D01*
X94369791Y-26847498D01*
X94369773Y-26842107D01*
X94538126Y-26842107D01*
X94641927Y-26842107D01*
X94711678Y-26836910D01*
X94774854Y-26823646D01*
X94800594Y-26813734D01*
X94861097Y-26762837D01*
X94898788Y-26689784D01*
X94911623Y-26603531D01*
X94897558Y-26513036D01*
X94879445Y-26468288D01*
X94839131Y-26410492D01*
X94783535Y-26375143D01*
X94704980Y-26358556D01*
X94645674Y-26356079D01*
X94538126Y-26355804D01*
X94538126Y-26842107D01*
X94369773Y-26842107D01*
X94369303Y-26697174D01*
X94367299Y-26579996D01*
X94362962Y-26491708D01*
X94355478Y-26428055D01*
X94344033Y-26384781D01*
X94327811Y-26357631D01*
X94325203Y-26355804D01*
X94305999Y-26342349D01*
X94277781Y-26334679D01*
X94271430Y-26333703D01*
X94240687Y-26322148D01*
X94234303Y-26309044D01*
X94254450Y-26301770D01*
X94308406Y-26296102D01*
X94392599Y-26292257D01*
X94503456Y-26290451D01*
X94542919Y-26290340D01*
X94657013Y-26290629D01*
G37*
G36*
X96308688Y-21641970D02*
G01*
X96309707Y-21695059D01*
X96310669Y-21780374D01*
X96311563Y-21895324D01*
X96312378Y-22037319D01*
X96313104Y-22203767D01*
X96313728Y-22392077D01*
X96314241Y-22599658D01*
X96314632Y-22823920D01*
X96314888Y-23062272D01*
X96315000Y-23312122D01*
X96315004Y-23370829D01*
X96315004Y-25117961D01*
X96450608Y-25139745D01*
X96538736Y-25154177D01*
X96596425Y-25166020D01*
X96630121Y-25178931D01*
X96646267Y-25196567D01*
X96651309Y-25222584D01*
X96651676Y-25253850D01*
X96651676Y-25327727D01*
X96179400Y-25322730D01*
X95707125Y-25317733D01*
X95697532Y-24401238D01*
X95695027Y-24181393D01*
X95692427Y-23996060D01*
X95689625Y-23842346D01*
X95686517Y-23717354D01*
X95682995Y-23618190D01*
X95678955Y-23541958D01*
X95674290Y-23485763D01*
X95668896Y-23446711D01*
X95662666Y-23421906D01*
X95661670Y-23419279D01*
X95593664Y-23287660D01*
X95508769Y-23188437D01*
X95408014Y-23122310D01*
X95292429Y-23089978D01*
X95177782Y-23090210D01*
X95043038Y-23124146D01*
X94923111Y-23191430D01*
X94820439Y-23290108D01*
X94737458Y-23418229D01*
X94718510Y-23458148D01*
X94679379Y-23559255D01*
X94651801Y-23663274D01*
X94634334Y-23779157D01*
X94625535Y-23915857D01*
X94623766Y-24045862D01*
X94625186Y-24164303D01*
X94629656Y-24256213D01*
X94638319Y-24332419D01*
X94652319Y-24403749D01*
X94667854Y-24463598D01*
X94729746Y-24630539D01*
X94813679Y-24767952D01*
X94919210Y-24875333D01*
X95045895Y-24952182D01*
X95125174Y-24981474D01*
X95235002Y-25002697D01*
X95351937Y-25006510D01*
X95459528Y-24992920D01*
X95500144Y-24981262D01*
X95555142Y-24964488D01*
X95587290Y-24967810D01*
X95608126Y-24996595D01*
X95623430Y-25038606D01*
X95633304Y-25083591D01*
X95626196Y-25120929D01*
X95597572Y-25157390D01*
X95542898Y-25199748D01*
X95494000Y-25231896D01*
X95344694Y-25306180D01*
X95176592Y-25353313D01*
X94998324Y-25371584D01*
X94837390Y-25362086D01*
X94670622Y-25320661D01*
X94517515Y-25245654D01*
X94379931Y-25138981D01*
X94259731Y-25002559D01*
X94158777Y-24838302D01*
X94078928Y-24648128D01*
X94049364Y-24550870D01*
X94026400Y-24436019D01*
X94011754Y-24299481D01*
X94005591Y-24152958D01*
X94008075Y-24008149D01*
X94019370Y-23876755D01*
X94038505Y-23774655D01*
X94109587Y-23576275D01*
X94210894Y-23396631D01*
X94339741Y-23239060D01*
X94493442Y-23106904D01*
X94651709Y-23012006D01*
X94805440Y-22944762D01*
X94948935Y-22902605D01*
X95096604Y-22882483D01*
X95262859Y-22881344D01*
X95267581Y-22881541D01*
X95372811Y-22888147D01*
X95453690Y-22899142D01*
X95523219Y-22916905D01*
X95584098Y-22939514D01*
X95644581Y-22964138D01*
X95689721Y-22981883D01*
X95710152Y-22989071D01*
X95710350Y-22989088D01*
X95712020Y-22971216D01*
X95713517Y-22920930D01*
X95714775Y-22843223D01*
X95715730Y-22743089D01*
X95716317Y-22625521D01*
X95716477Y-22518729D01*
X95716477Y-22048370D01*
X95557493Y-22060591D01*
X95398509Y-22072811D01*
X95398509Y-21906157D01*
X95721153Y-21803838D01*
X95887722Y-21751198D01*
X96029751Y-21706691D01*
X96145010Y-21671004D01*
X96231268Y-21644822D01*
X96286293Y-21628829D01*
X96307622Y-21623697D01*
X96308688Y-21641970D01*
G37*
G36*
X102019031Y-26282555D02*
G01*
X102076505Y-26286752D01*
X102108979Y-26292825D01*
X102113237Y-26296227D01*
X102098063Y-26313555D01*
X102060720Y-26336526D01*
X102052449Y-26340637D01*
X102027796Y-26355658D01*
X102004160Y-26379014D01*
X101978331Y-26415898D01*
X101947103Y-26471507D01*
X101907270Y-26551034D01*
X101856057Y-26658749D01*
X101720453Y-26947693D01*
X101720453Y-27311615D01*
X101786671Y-27339283D01*
X101826105Y-27360969D01*
X101842573Y-27380818D01*
X101841679Y-27385088D01*
X101819793Y-27392060D01*
X101769982Y-27397447D01*
X101701702Y-27401123D01*
X101624409Y-27402963D01*
X101547558Y-27402841D01*
X101480604Y-27400631D01*
X101433003Y-27396208D01*
X101414955Y-27390757D01*
X101403529Y-27366707D01*
X101426425Y-27349124D01*
X101458906Y-27340506D01*
X101505752Y-27319032D01*
X101535344Y-27274025D01*
X101549810Y-27200897D01*
X101552118Y-27139746D01*
X101550345Y-27104343D01*
X101543446Y-27067988D01*
X101529046Y-27025161D01*
X101504775Y-26970344D01*
X101468257Y-26898020D01*
X101417122Y-26802669D01*
X101371163Y-26718912D01*
X101313281Y-26616137D01*
X101258570Y-26523011D01*
X101210539Y-26445196D01*
X101172695Y-26388357D01*
X101148548Y-26358158D01*
X101146715Y-26356575D01*
X101113600Y-26326570D01*
X101105011Y-26305466D01*
X101123848Y-26291829D01*
X101173010Y-26284226D01*
X101255399Y-26281222D01*
X101299614Y-26280988D01*
X101389297Y-26281848D01*
X101447639Y-26285003D01*
X101480677Y-26291317D01*
X101494451Y-26301651D01*
X101496006Y-26309044D01*
X101480354Y-26331880D01*
X101458011Y-26337100D01*
X101422267Y-26348749D01*
X101409711Y-26363953D01*
X101414459Y-26389174D01*
X101434416Y-26440677D01*
X101466736Y-26511986D01*
X101508570Y-26596622D01*
X101530553Y-26638867D01*
X101661700Y-26886928D01*
X101775245Y-26656218D01*
X101816797Y-26569950D01*
X101851526Y-26494343D01*
X101876356Y-26436363D01*
X101888211Y-26402972D01*
X101888789Y-26399138D01*
X101873909Y-26372815D01*
X101837601Y-26343737D01*
X101832795Y-26340906D01*
X101795134Y-26315830D01*
X101776977Y-26296581D01*
X101776684Y-26295016D01*
X101793939Y-26288838D01*
X101840259Y-26284049D01*
X101907306Y-26281343D01*
X101944901Y-26280988D01*
X102019031Y-26282555D01*
G37*
G36*
X88367097Y-22825112D02*
G01*
X88376773Y-22841277D01*
X88382062Y-22876752D01*
X88384212Y-22938285D01*
X88384518Y-22998440D01*
X88385422Y-23074795D01*
X88387852Y-23134714D01*
X88391383Y-23170073D01*
X88393776Y-23176128D01*
X88411704Y-23165219D01*
X88450824Y-23136325D01*
X88503417Y-23095195D01*
X88515506Y-23085496D01*
X88620769Y-23004927D01*
X88709257Y-22948412D01*
X88789310Y-22912277D01*
X88869263Y-22892853D01*
X88957457Y-22886466D01*
X88967579Y-22886402D01*
X89048641Y-22888422D01*
X89103510Y-22896184D01*
X89143234Y-22911859D01*
X89162815Y-22924780D01*
X89233498Y-22990955D01*
X89276402Y-23067945D01*
X89298028Y-23167469D01*
X89298189Y-23168886D01*
X89305375Y-23233930D01*
X89307113Y-23282552D01*
X89298979Y-23319559D01*
X89276550Y-23349758D01*
X89235400Y-23377956D01*
X89171107Y-23408959D01*
X89079245Y-23447575D01*
X89018891Y-23472351D01*
X88922729Y-23511327D01*
X88837846Y-23544668D01*
X88770623Y-23569953D01*
X88727438Y-23584758D01*
X88715360Y-23587615D01*
X88699695Y-23570648D01*
X88698551Y-23519520D01*
X88698739Y-23517475D01*
X88694969Y-23432834D01*
X88668689Y-23365877D01*
X88623060Y-23324534D01*
X88621496Y-23323804D01*
X88586597Y-23314777D01*
X88544230Y-23321053D01*
X88482133Y-23344486D01*
X88480840Y-23345041D01*
X88384518Y-23386478D01*
X88384518Y-25117105D01*
X88510770Y-25139581D01*
X88596336Y-25155048D01*
X88651713Y-25167427D01*
X88683461Y-25180618D01*
X88698139Y-25198520D01*
X88702309Y-25225033D01*
X88702486Y-25253529D01*
X88702486Y-25327085D01*
X88069668Y-25327085D01*
X87919372Y-25326729D01*
X87781104Y-25325718D01*
X87659283Y-25324138D01*
X87558327Y-25322073D01*
X87482655Y-25319610D01*
X87436687Y-25316833D01*
X87424381Y-25314615D01*
X87413852Y-25285314D01*
X87412809Y-25241301D01*
X87420393Y-25201741D01*
X87430096Y-25187126D01*
X87452800Y-25180467D01*
X87501668Y-25169395D01*
X87566029Y-25156019D01*
X87635211Y-25142450D01*
X87698543Y-25130799D01*
X87745354Y-25123176D01*
X87762611Y-25121367D01*
X87763509Y-25103236D01*
X87764350Y-25051171D01*
X87765118Y-24968643D01*
X87765797Y-24859125D01*
X87766368Y-24726090D01*
X87766816Y-24573010D01*
X87767123Y-24403359D01*
X87767274Y-24220609D01*
X87767287Y-24148734D01*
X87767287Y-23176128D01*
X87447061Y-23176128D01*
X87458671Y-23035848D01*
X87888863Y-22929058D01*
X88011760Y-22898851D01*
X88123762Y-22871894D01*
X88219364Y-22849464D01*
X88293062Y-22832841D01*
X88339352Y-22823303D01*
X88351786Y-22821510D01*
X88367097Y-22825112D01*
G37*
G36*
X101481372Y-22873986D02*
G01*
X101600151Y-22884146D01*
X101661047Y-22893626D01*
X101722612Y-22907549D01*
X101797523Y-22927451D01*
X101876504Y-22950480D01*
X101950277Y-22973782D01*
X102009566Y-22994506D01*
X102045095Y-23009797D01*
X102050162Y-23013298D01*
X102055646Y-23035374D01*
X102062276Y-23087043D01*
X102069524Y-23160670D01*
X102076860Y-23248623D01*
X102083755Y-23343267D01*
X102089682Y-23436969D01*
X102094112Y-23522095D01*
X102096515Y-23591012D01*
X102096363Y-23636086D01*
X102094232Y-23649679D01*
X102068323Y-23658247D01*
X102021743Y-23659734D01*
X102011526Y-23659031D01*
X101974768Y-23653911D01*
X101949598Y-23641002D01*
X101928793Y-23612377D01*
X101905125Y-23560116D01*
X101892161Y-23528135D01*
X101816380Y-23372947D01*
X101727085Y-23252179D01*
X101623530Y-23165088D01*
X101504970Y-23110934D01*
X101462280Y-23100134D01*
X101340009Y-23088907D01*
X101230624Y-23106155D01*
X101138518Y-23149023D01*
X101068089Y-23214656D01*
X101023733Y-23300198D01*
X101009731Y-23394050D01*
X101022916Y-23484422D01*
X101063901Y-23564967D01*
X101134949Y-23637862D01*
X101238321Y-23705286D01*
X101376280Y-23769418D01*
X101415600Y-23784872D01*
X101638618Y-23879287D01*
X101824830Y-23978253D01*
X101974148Y-24081710D01*
X102086481Y-24189596D01*
X102159869Y-24298114D01*
X102213898Y-24444244D01*
X102233322Y-24595823D01*
X102219210Y-24747053D01*
X102172635Y-24892137D01*
X102094667Y-25025276D01*
X102007726Y-25121776D01*
X101880200Y-25215522D01*
X101726475Y-25288337D01*
X101552352Y-25338658D01*
X101363633Y-25364928D01*
X101166122Y-25365584D01*
X101116078Y-25361566D01*
X100869337Y-25320549D01*
X100639589Y-25247727D01*
X100532751Y-25205367D01*
X100520295Y-25093214D01*
X100514127Y-25028473D01*
X100506964Y-24939016D01*
X100499765Y-24837481D01*
X100494382Y-24751938D01*
X100480925Y-24522814D01*
X100567269Y-24522814D01*
X100620814Y-24524971D01*
X100648414Y-24535444D01*
X100661460Y-24560235D01*
X100664881Y-24574250D01*
X100716104Y-24745388D01*
X100787854Y-24886844D01*
X100879306Y-24997826D01*
X100989632Y-25077539D01*
X101118006Y-25125192D01*
X101254968Y-25140045D01*
X101357653Y-25133036D01*
X101436870Y-25109366D01*
X101504338Y-25065069D01*
X101521055Y-25050011D01*
X101590071Y-24965410D01*
X101625476Y-24870604D01*
X101632277Y-24794021D01*
X101615903Y-24681226D01*
X101565758Y-24583491D01*
X101519215Y-24530971D01*
X101486770Y-24507695D01*
X101426620Y-24471843D01*
X101344898Y-24426787D01*
X101247739Y-24375898D01*
X101141278Y-24322545D01*
X101129076Y-24316580D01*
X100999793Y-24252447D01*
X100898802Y-24199483D01*
X100820035Y-24154068D01*
X100757424Y-24112579D01*
X100704900Y-24071398D01*
X100677892Y-24047361D01*
X100595521Y-23963060D01*
X100538135Y-23881777D01*
X100501819Y-23793834D01*
X100482655Y-23689551D01*
X100476728Y-23559250D01*
X100476707Y-23550207D01*
X100477613Y-23458181D01*
X100481613Y-23392957D01*
X100490516Y-23343952D01*
X100506132Y-23300580D01*
X100526401Y-23259545D01*
X100613576Y-23133917D01*
X100730133Y-23030133D01*
X100874093Y-22949646D01*
X101014405Y-22901196D01*
X101105893Y-22884497D01*
X101222227Y-22874302D01*
X101351392Y-22870751D01*
X101481372Y-22873986D01*
G37*
G36*
X93243695Y-26425943D02*
G01*
X93243239Y-26507072D01*
X93234102Y-26552495D01*
X93216653Y-26561956D01*
X93191260Y-26535198D01*
X93162900Y-26482055D01*
X93130773Y-26426588D01*
X93090451Y-26389695D01*
X93034198Y-26367955D01*
X92954279Y-26357944D01*
X92878148Y-26356079D01*
X92723841Y-26355804D01*
X92723841Y-26804699D01*
X92812685Y-26804423D01*
X92905363Y-26794561D01*
X92968696Y-26764500D01*
X93005863Y-26712516D01*
X93011150Y-26696914D01*
X93029656Y-26655898D01*
X93051646Y-26636582D01*
X93053866Y-26636363D01*
X93065699Y-26644717D01*
X93073402Y-26673350D01*
X93077665Y-26727621D01*
X93079182Y-26812888D01*
X93079216Y-26832755D01*
X93078356Y-26922438D01*
X93075201Y-26980780D01*
X93068887Y-27013818D01*
X93058553Y-27027592D01*
X93051160Y-27029147D01*
X93026334Y-27015472D01*
X93023104Y-27003613D01*
X93012247Y-26972134D01*
X92985957Y-26930876D01*
X92984339Y-26928797D01*
X92957405Y-26900517D01*
X92925459Y-26885663D01*
X92875960Y-26880106D01*
X92834707Y-26879515D01*
X92723841Y-26879515D01*
X92723841Y-27328410D01*
X92908149Y-27328410D01*
X92994420Y-27327651D01*
X93052219Y-27324220D01*
X93090470Y-27316387D01*
X93118099Y-27302423D01*
X93141192Y-27283244D01*
X93178574Y-27238063D01*
X93201680Y-27191185D01*
X93202063Y-27189725D01*
X93219950Y-27153877D01*
X93241082Y-27141371D01*
X93255546Y-27149188D01*
X93262686Y-27177248D01*
X93263671Y-27232459D01*
X93262435Y-27267622D01*
X93256904Y-27393874D01*
X92831389Y-27398901D01*
X92693928Y-27399777D01*
X92579259Y-27398984D01*
X92490850Y-27396622D01*
X92432169Y-27392796D01*
X92406683Y-27387606D01*
X92405873Y-27386359D01*
X92422003Y-27370534D01*
X92460928Y-27356702D01*
X92462141Y-27356432D01*
X92508496Y-27336781D01*
X92536956Y-27309416D01*
X92542677Y-27280222D01*
X92547584Y-27218608D01*
X92551479Y-27129557D01*
X92554161Y-27018053D01*
X92555430Y-26889078D01*
X92555505Y-26847498D01*
X92555018Y-26697174D01*
X92553013Y-26579996D01*
X92548676Y-26491708D01*
X92541192Y-26428055D01*
X92529747Y-26384781D01*
X92513526Y-26357631D01*
X92491713Y-26342349D01*
X92463495Y-26334679D01*
X92457144Y-26333703D01*
X92426352Y-26322143D01*
X92419901Y-26309044D01*
X92439992Y-26302474D01*
X92495068Y-26297210D01*
X92582726Y-26293361D01*
X92700564Y-26291037D01*
X92831389Y-26290340D01*
X93238200Y-26290340D01*
X93243695Y-26425943D01*
G37*
G36*
X98190760Y-26283184D02*
G01*
X98261998Y-26289764D01*
X98296206Y-26300712D01*
X98293343Y-26316014D01*
X98253368Y-26335656D01*
X98243388Y-26339249D01*
X98200257Y-26365921D01*
X98178179Y-26399064D01*
X98173775Y-26434770D01*
X98170507Y-26500149D01*
X98168332Y-26588380D01*
X98167205Y-26692643D01*
X98167080Y-26806118D01*
X98167914Y-26921986D01*
X98169662Y-27033426D01*
X98172280Y-27133618D01*
X98175723Y-27215743D01*
X98179946Y-27272980D01*
X98184038Y-27296767D01*
X98215470Y-27336940D01*
X98249502Y-27354453D01*
X98292473Y-27369067D01*
X98299900Y-27381752D01*
X98273620Y-27391971D01*
X98215471Y-27399188D01*
X98127289Y-27402866D01*
X98082530Y-27403226D01*
X97997848Y-27401981D01*
X97928860Y-27398597D01*
X97882950Y-27393599D01*
X97867434Y-27387898D01*
X97882806Y-27370970D01*
X97920571Y-27349303D01*
X97928222Y-27345814D01*
X97989010Y-27319058D01*
X97989010Y-26365155D01*
X97928222Y-26347260D01*
X97887148Y-26328771D01*
X97867679Y-26307421D01*
X97867434Y-26305176D01*
X97876856Y-26294174D01*
X97908284Y-26286841D01*
X97966459Y-26282642D01*
X98056125Y-26281043D01*
X98082530Y-26280988D01*
X98190760Y-26283184D01*
G37*
G36*
X90739735Y-26283040D02*
G01*
X90813488Y-26289244D01*
X90850452Y-26299668D01*
X90850828Y-26314382D01*
X90814811Y-26333456D01*
X90797331Y-26339902D01*
X90754769Y-26364002D01*
X90741287Y-26400892D01*
X90741219Y-26404736D01*
X90747237Y-26431366D01*
X90763777Y-26486130D01*
X90788566Y-26562535D01*
X90819332Y-26654092D01*
X90853803Y-26754309D01*
X90889708Y-26856696D01*
X90924773Y-26954760D01*
X90956728Y-27042013D01*
X90983299Y-27111961D01*
X91002216Y-27158115D01*
X91010340Y-27173574D01*
X91018786Y-27160055D01*
X91036073Y-27116858D01*
X91060215Y-27050114D01*
X91089222Y-26965950D01*
X91121107Y-26870496D01*
X91153880Y-26769880D01*
X91185555Y-26670232D01*
X91214142Y-26577680D01*
X91237653Y-26498353D01*
X91254101Y-26438381D01*
X91261496Y-26403891D01*
X91261596Y-26399061D01*
X91241150Y-26367276D01*
X91203914Y-26340897D01*
X91162685Y-26316724D01*
X91155305Y-26299450D01*
X91182588Y-26288716D01*
X91245344Y-26284165D01*
X91330490Y-26284986D01*
X91421550Y-26290263D01*
X91480863Y-26299238D01*
X91507035Y-26311246D01*
X91498672Y-26325621D01*
X91454380Y-26341697D01*
X91451052Y-26342571D01*
X91429301Y-26349500D01*
X91410409Y-26360698D01*
X91392378Y-26380316D01*
X91373208Y-26412508D01*
X91350901Y-26461426D01*
X91323456Y-26531222D01*
X91288875Y-26626050D01*
X91245158Y-26750062D01*
X91219566Y-26823403D01*
X91164309Y-26982240D01*
X91120070Y-27109347D01*
X91085299Y-27208224D01*
X91058445Y-27282374D01*
X91037957Y-27335299D01*
X91022283Y-27370501D01*
X91009874Y-27391482D01*
X90999177Y-27401743D01*
X90988643Y-27404787D01*
X90976720Y-27404116D01*
X90962779Y-27403226D01*
X90918012Y-27393815D01*
X90892047Y-27358705D01*
X90889312Y-27351790D01*
X90877414Y-27320106D01*
X90854465Y-27258995D01*
X90822565Y-27174048D01*
X90783814Y-27070859D01*
X90740314Y-26955020D01*
X90711960Y-26879515D01*
X90656855Y-26733036D01*
X90612939Y-26617596D01*
X90578306Y-26529191D01*
X90551049Y-26463820D01*
X90529262Y-26417480D01*
X90511038Y-26386169D01*
X90494470Y-26365884D01*
X90477651Y-26352623D01*
X90458675Y-26342384D01*
X90455304Y-26340755D01*
X90417257Y-26318801D01*
X90408325Y-26302510D01*
X90430339Y-26291251D01*
X90485130Y-26284396D01*
X90574530Y-26281313D01*
X90628995Y-26280988D01*
X90739735Y-26283040D01*
G37*
G36*
X96946841Y-23398821D02*
G01*
X97077660Y-23239321D01*
X97232157Y-23104475D01*
X97406734Y-22998568D01*
X97432707Y-22986232D01*
X97585785Y-22927710D01*
X97744193Y-22892404D01*
X97920154Y-22877838D01*
X97971052Y-22877140D01*
X98173367Y-22889997D01*
X98349923Y-22929547D01*
X98501690Y-22996312D01*
X98629635Y-23090812D01*
X98734729Y-23213569D01*
X98797660Y-23321497D01*
X98826815Y-23381554D01*
X98846558Y-23428850D01*
X98858722Y-23473216D01*
X98865143Y-23524480D01*
X98867656Y-23592470D01*
X98868096Y-23687016D01*
X98868097Y-23698787D01*
X98868097Y-23933639D01*
X98096558Y-23938522D01*
X97325019Y-23943406D01*
X97325344Y-24041394D01*
X97339663Y-24200452D01*
X97379162Y-24358692D01*
X97440206Y-24506539D01*
X97519163Y-24634420D01*
X97574911Y-24698874D01*
X97687536Y-24787773D01*
X97823751Y-24856412D01*
X97972866Y-24899503D01*
X97985088Y-24901699D01*
X98124030Y-24910361D01*
X98268479Y-24892756D01*
X98408933Y-24851854D01*
X98535891Y-24790626D01*
X98639854Y-24712041D01*
X98660741Y-24690471D01*
X98700659Y-24648990D01*
X98731200Y-24622126D01*
X98741796Y-24616427D01*
X98764368Y-24627169D01*
X98801985Y-24653539D01*
X98810136Y-24659940D01*
X98864400Y-24703360D01*
X98800881Y-24823506D01*
X98709113Y-24963516D01*
X98591503Y-25090808D01*
X98455531Y-25199554D01*
X98308677Y-25283925D01*
X98158422Y-25338094D01*
X98133045Y-25343886D01*
X98011141Y-25359648D01*
X97870429Y-25362730D01*
X97727111Y-25353632D01*
X97597390Y-25332850D01*
X97571943Y-25326670D01*
X97381566Y-25258279D01*
X97211181Y-25158982D01*
X97062671Y-25030609D01*
X96937919Y-24874988D01*
X96838811Y-24693947D01*
X96790588Y-24568277D01*
X96767794Y-24495378D01*
X96752373Y-24433931D01*
X96742936Y-24373179D01*
X96738093Y-24302363D01*
X96736455Y-24210726D01*
X96736415Y-24148734D01*
X96738882Y-24014669D01*
X96746121Y-23909189D01*
X96758922Y-23823683D01*
X96770619Y-23774655D01*
X96798366Y-23699839D01*
X97328995Y-23699839D01*
X98276630Y-23699839D01*
X98289407Y-23614631D01*
X98296638Y-23471751D01*
X98273867Y-23345849D01*
X98222067Y-23239799D01*
X98142211Y-23156476D01*
X98131806Y-23148857D01*
X98083177Y-23118044D01*
X98038410Y-23101510D01*
X97982303Y-23095228D01*
X97927728Y-23094777D01*
X97785164Y-23113597D01*
X97657046Y-23165602D01*
X97545850Y-23248535D01*
X97454046Y-23360140D01*
X97384110Y-23498162D01*
X97345659Y-23625674D01*
X97328995Y-23699839D01*
X96798366Y-23699839D01*
X96843295Y-23578694D01*
X96946841Y-23398821D01*
G37*
G36*
X87507201Y-26594279D02*
G01*
X87570930Y-26698007D01*
X87632215Y-26797006D01*
X87686786Y-26884432D01*
X87730371Y-26953443D01*
X87758301Y-26996598D01*
X87817684Y-27085625D01*
X87828636Y-26762798D01*
X87832272Y-26627909D01*
X87832232Y-26525583D01*
X87827639Y-26451081D01*
X87817617Y-26399664D01*
X87801290Y-26366593D01*
X87777781Y-26347128D01*
X87749970Y-26337375D01*
X87712295Y-26320875D01*
X87696975Y-26303852D01*
X87703734Y-26292603D01*
X87735872Y-26285436D01*
X87797694Y-26281777D01*
X87868600Y-26280988D01*
X87957124Y-26282374D01*
X88013190Y-26286970D01*
X88041664Y-26295432D01*
X88047847Y-26305176D01*
X88031771Y-26326252D01*
X87992521Y-26345554D01*
X87987059Y-26347260D01*
X87926271Y-26365155D01*
X87921297Y-26885354D01*
X87916323Y-27405552D01*
X87857613Y-27399713D01*
X87839136Y-27396107D01*
X87820539Y-27386810D01*
X87799179Y-27368345D01*
X87772412Y-27337236D01*
X87737593Y-27290007D01*
X87692079Y-27223181D01*
X87633225Y-27133281D01*
X87558388Y-27016832D01*
X87516325Y-26950975D01*
X87442510Y-26835550D01*
X87374910Y-26730357D01*
X87316225Y-26639554D01*
X87269150Y-26567298D01*
X87236385Y-26517747D01*
X87220627Y-26495057D01*
X87219957Y-26494286D01*
X87216018Y-26508048D01*
X87212517Y-26554179D01*
X87209625Y-26627642D01*
X87207511Y-26723398D01*
X87206344Y-26836410D01*
X87206168Y-26903703D01*
X87206168Y-27326909D01*
X87280371Y-27349141D01*
X87323832Y-27366163D01*
X87344774Y-27382485D01*
X87344731Y-27387299D01*
X87323315Y-27394406D01*
X87275677Y-27399381D01*
X87211590Y-27402209D01*
X87140830Y-27402873D01*
X87073169Y-27401357D01*
X87018382Y-27397645D01*
X86986243Y-27391722D01*
X86981720Y-27387898D01*
X86997092Y-27370970D01*
X87034857Y-27349303D01*
X87042508Y-27345814D01*
X87103296Y-27319058D01*
X87103296Y-26365155D01*
X87042508Y-26347260D01*
X87001433Y-26328771D01*
X86981965Y-26307421D01*
X86981720Y-26305176D01*
X86992386Y-26292836D01*
X87027628Y-26285196D01*
X87092318Y-26281551D01*
X87148602Y-26280988D01*
X87315484Y-26280988D01*
X87507201Y-26594279D01*
G37*
G36*
X99720120Y-21729578D02*
G01*
X99815063Y-21759692D01*
X99899653Y-21814442D01*
X99968423Y-21891088D01*
X100015904Y-21986893D01*
X100036627Y-22099118D01*
X100037095Y-22119497D01*
X100020192Y-22228066D01*
X99973413Y-22322053D01*
X99902656Y-22397817D01*
X99813819Y-22451714D01*
X99712798Y-22480103D01*
X99605492Y-22479340D01*
X99504032Y-22448729D01*
X99408906Y-22386451D01*
X99340818Y-22303914D01*
X99300534Y-22207485D01*
X99288818Y-22103534D01*
X99306435Y-21998429D01*
X99354149Y-21898537D01*
X99427869Y-21814429D01*
X99521054Y-21754208D01*
X99620294Y-21726837D01*
X99720120Y-21729578D01*
G37*
G36*
X100149319Y-26422826D02*
G01*
X100147406Y-26499806D01*
X100141229Y-26543450D01*
X100130135Y-26557653D01*
X100126799Y-26557158D01*
X100106839Y-26535389D01*
X100089639Y-26493121D01*
X100089161Y-26491312D01*
X100053384Y-26421714D01*
X99991090Y-26375416D01*
X99907632Y-26356136D01*
X99893983Y-26355804D01*
X99812027Y-26355804D01*
X99817013Y-26845123D01*
X99822000Y-27334442D01*
X99883883Y-27355269D01*
X99921041Y-27372221D01*
X99933536Y-27387394D01*
X99932202Y-27389661D01*
X99908949Y-27395642D01*
X99858914Y-27399827D01*
X99791010Y-27402252D01*
X99714149Y-27402953D01*
X99637245Y-27401967D01*
X99569211Y-27399328D01*
X99518959Y-27395074D01*
X99495403Y-27389239D01*
X99494680Y-27387898D01*
X99510052Y-27370970D01*
X99547817Y-27349303D01*
X99555468Y-27345814D01*
X99616256Y-27319058D01*
X99626240Y-26355804D01*
X99532404Y-26355804D01*
X99448360Y-26367294D01*
X99388862Y-26404545D01*
X99347908Y-26471724D01*
X99341725Y-26488225D01*
X99319977Y-26526628D01*
X99294190Y-26542841D01*
X99293916Y-26542843D01*
X99276971Y-26536093D01*
X99271890Y-26510118D01*
X99277005Y-26456336D01*
X99277042Y-26456065D01*
X99284373Y-26393139D01*
X99288559Y-26338901D01*
X99288936Y-26325137D01*
X99288936Y-26280988D01*
X100149319Y-26280988D01*
X100149319Y-26422826D01*
G37*
G04 #@! TO.C,J6*
X156210000Y-26670000D02*
X156210000Y-34290000D01*
X156210000Y-34290000D02*
X166370000Y-34290000D01*
X166370000Y-26670000D02*
X156210000Y-26670000D01*
X166370000Y-34290000D02*
X166370000Y-26670000D01*
X166370000Y-33020000D02*
X156210000Y-33020000D01*
G04 #@! TD*
M02*
