M48
INCH,TZ
T1C0.0394
T2C0.0598
T3C0.1339
%
G90
G05
T1
X27500Y-8400
X27500Y-9400
X27500Y-10400
X27500Y-11400
X27500Y-14000
X27500Y-15000
X27500Y-16000
X27500Y-17000
X78500Y-8584
X78500Y-9584
X78500Y-10584
X78500Y-11584
X78500Y-14000
X78500Y-15000
X78500Y-16000
X78500Y-17000
T2
X39500Y-16000
X41500Y-16000
X51750Y-16000
X53750Y-16000
X62500Y-12000
X64500Y-12000
X65500Y-16000
X67500Y-16000
X68000Y-9500
X70000Y-9500
X72000Y-9500
X74000Y-9500
T3
X25000Y-8500
X25000Y-17000
X80500Y-8500
X80500Y-17000
T0
M30
