G04 #@! TF.GenerationSoftware,KiCad,Pcbnew,(6.0.7)*
G04 #@! TF.CreationDate,2023-03-22T16:33:31-04:00*
G04 #@! TF.ProjectId,RGW LED board,52475720-4c45-4442-9062-6f6172642e6b,rev?*
G04 #@! TF.SameCoordinates,Original*
G04 #@! TF.FileFunction,Copper,L1,Top*
G04 #@! TF.FilePolarity,Positive*
%FSLAX46Y46*%
G04 Gerber Fmt 4.6, Leading zero omitted, Abs format (unit mm)*
G04 Created by KiCad (PCBNEW (6.0.7)) date 2023-03-22 16:33:31*
%MOMM*%
%LPD*%
G01*
G04 APERTURE LIST*
%ADD10C,0.300000*%
G04 #@! TA.AperFunction,NonConductor*
%ADD11C,0.300000*%
G04 #@! TD*
G04 #@! TA.AperFunction,ComponentPad*
%ADD12R,3.000000X3.000000*%
G04 #@! TD*
G04 #@! TA.AperFunction,ComponentPad*
%ADD13C,3.000000*%
G04 #@! TD*
G04 #@! TA.AperFunction,ViaPad*
%ADD14C,5.000000*%
G04 #@! TD*
G04 #@! TA.AperFunction,ViaPad*
%ADD15C,0.800000*%
G04 #@! TD*
G04 #@! TA.AperFunction,Conductor*
%ADD16C,0.635000*%
G04 #@! TD*
G04 APERTURE END LIST*
D10*
D11*
X153475714Y-31563571D02*
X153761428Y-31563571D01*
X153904285Y-31635000D01*
X154047142Y-31777857D01*
X154118571Y-32063571D01*
X154118571Y-32563571D01*
X154047142Y-32849285D01*
X153904285Y-32992142D01*
X153761428Y-33063571D01*
X153475714Y-33063571D01*
X153332857Y-32992142D01*
X153190000Y-32849285D01*
X153118571Y-32563571D01*
X153118571Y-32063571D01*
X153190000Y-31777857D01*
X153332857Y-31635000D01*
X153475714Y-31563571D01*
X155190000Y-31563571D02*
X155190000Y-32635000D01*
X155118571Y-32849285D01*
X154975714Y-32992142D01*
X154761428Y-33063571D01*
X154618571Y-33063571D01*
X156404285Y-32277857D02*
X156618571Y-32349285D01*
X156690000Y-32420714D01*
X156761428Y-32563571D01*
X156761428Y-32777857D01*
X156690000Y-32920714D01*
X156618571Y-32992142D01*
X156475714Y-33063571D01*
X155904285Y-33063571D01*
X155904285Y-31563571D01*
X156404285Y-31563571D01*
X156547142Y-31635000D01*
X156618571Y-31706428D01*
X156690000Y-31849285D01*
X156690000Y-31992142D01*
X156618571Y-32135000D01*
X156547142Y-32206428D01*
X156404285Y-32277857D01*
X155904285Y-32277857D01*
D12*
G04 #@! TO.P,J8,1,Pin_1*
G04 #@! TO.N,/G-*
X165100000Y-42545000D03*
D13*
G04 #@! TO.P,J8,2,Pin_2*
G04 #@! TO.N,/G+*
X170180000Y-42545000D03*
G04 #@! TD*
D12*
G04 #@! TO.P,J2,1,Pin_1*
G04 #@! TO.N,/G-*
X203200000Y-42545000D03*
D13*
G04 #@! TO.P,J2,2,Pin_2*
G04 #@! TO.N,/G+*
X208280000Y-42545000D03*
G04 #@! TD*
D12*
G04 #@! TO.P,J13,1,Pin_1*
G04 #@! TO.N,/G-*
X80010000Y-42545000D03*
D13*
G04 #@! TO.P,J13,2,Pin_2*
G04 #@! TO.N,/G+*
X85090000Y-42545000D03*
G04 #@! TD*
D12*
G04 #@! TO.P,J3,1,Pin_1*
G04 #@! TO.N,/R-*
X97790000Y-33020000D03*
D13*
G04 #@! TO.P,J3,2,Pin_2*
G04 #@! TO.N,/R+*
X102870000Y-33020000D03*
G04 #@! TD*
D12*
G04 #@! TO.P,J12,1,Pin_1*
G04 #@! TO.N,/R-*
X190500000Y-42545000D03*
D13*
G04 #@! TO.P,J12,2,Pin_2*
G04 #@! TO.N,/R+*
X195580000Y-42545000D03*
G04 #@! TD*
D12*
G04 #@! TO.P,J7,1,Pin_1*
G04 #@! TO.N,/R-*
X153035000Y-42545000D03*
D13*
G04 #@! TO.P,J7,2,Pin_2*
G04 #@! TO.N,/R+*
X158115000Y-42545000D03*
G04 #@! TD*
D12*
G04 #@! TO.P,J11,1,Pin_1*
G04 #@! TO.N,/W-*
X92710000Y-42545000D03*
D13*
G04 #@! TO.P,J11,2,Pin_2*
G04 #@! TO.N,/W+*
X97790000Y-42545000D03*
G04 #@! TD*
D12*
G04 #@! TO.P,J10,1,Pin_1*
G04 #@! TO.N,/G-*
X118110000Y-42545000D03*
D13*
G04 #@! TO.P,J10,2,Pin_2*
G04 #@! TO.N,/G+*
X123190000Y-42545000D03*
G04 #@! TD*
D12*
G04 #@! TO.P,J6,1,Pin_1*
G04 #@! TO.N,/W-*
X135255000Y-33020000D03*
D13*
G04 #@! TO.P,J6,2,Pin_2*
G04 #@! TO.N,/W+*
X140335000Y-33020000D03*
G04 #@! TD*
D12*
G04 #@! TO.P,J9,1,Pin_1*
G04 #@! TO.N,/R-*
X67310000Y-42545000D03*
D13*
G04 #@! TO.P,J9,2,Pin_2*
G04 #@! TO.N,/R+*
X72390000Y-42545000D03*
G04 #@! TD*
D12*
G04 #@! TO.P,J4,1,Pin_1*
G04 #@! TO.N,/W-*
X177800000Y-42545000D03*
D13*
G04 #@! TO.P,J4,2,Pin_2*
G04 #@! TO.N,/W+*
X182880000Y-42545000D03*
G04 #@! TD*
D12*
G04 #@! TO.P,J5,1,Pin_1*
G04 #@! TO.N,/G-*
X168275000Y-33020000D03*
D13*
G04 #@! TO.P,J5,2,Pin_2*
G04 #@! TO.N,/G+*
X173355000Y-33020000D03*
G04 #@! TD*
D12*
G04 #@! TO.P,J1,1,Pin_1*
G04 #@! TO.N,/R-*
X105410000Y-42545000D03*
D13*
G04 #@! TO.P,J1,2,Pin_2*
G04 #@! TO.N,/R+*
X110490000Y-42545000D03*
G04 #@! TD*
D14*
G04 #@! TO.N,*
X66040000Y-30480000D03*
X209550000Y-30480000D03*
D15*
G04 #@! TO.N,/R-*
X151638000Y-40287000D03*
X109220000Y-34290000D03*
X107950000Y-40132000D03*
X151638000Y-35052000D03*
G04 #@! TO.N,/R+*
X110998000Y-36929000D03*
X156210000Y-40287000D03*
X112268000Y-40132000D03*
X154178000Y-37183000D03*
G04 #@! TO.N,/G-*
X161290000Y-36830000D03*
X161290000Y-40640000D03*
X128016000Y-30480000D03*
X120396000Y-40386000D03*
G04 #@! TO.N,/G+*
X124206000Y-40386000D03*
X124206000Y-34798000D03*
X165100000Y-35913000D03*
X168656000Y-40287000D03*
G04 #@! TO.N,/W-*
X140335000Y-38100000D03*
X141732000Y-39370000D03*
G04 #@! TD*
D16*
G04 #@! TO.N,/R-*
X109220000Y-34290000D02*
X110744000Y-35814000D01*
X151638000Y-40287000D02*
X151638000Y-41148000D01*
X97790000Y-33020000D02*
X76200000Y-33020000D01*
X153035000Y-42545000D02*
X153035000Y-44831000D01*
X187452000Y-48514000D02*
X190500000Y-45466000D01*
X151638000Y-41148000D02*
X153035000Y-42545000D01*
X153035000Y-44831000D02*
X156718000Y-48514000D01*
X145996000Y-29410000D02*
X151638000Y-35052000D01*
X131372000Y-29410000D02*
X145996000Y-29410000D01*
X110744000Y-35814000D02*
X124968000Y-35814000D01*
X190500000Y-45466000D02*
X190500000Y-42545000D01*
X156718000Y-48514000D02*
X187452000Y-48514000D01*
X76200000Y-33020000D02*
X67310000Y-41910000D01*
X107823000Y-40132000D02*
X105410000Y-42545000D01*
X107950000Y-40132000D02*
X107823000Y-40132000D01*
X67310000Y-41910000D02*
X67310000Y-42545000D01*
X100965000Y-29845000D02*
X97790000Y-33020000D01*
X109220000Y-34290000D02*
X104775000Y-29845000D01*
X104775000Y-29845000D02*
X100965000Y-29845000D01*
X124968000Y-35814000D02*
X131372000Y-29410000D01*
G04 #@! TO.N,/R+*
X110998000Y-36929000D02*
X108684000Y-36929000D01*
X102870000Y-33020000D02*
X102870000Y-33655000D01*
X102870000Y-33655000D02*
X99949000Y-36576000D01*
X104775000Y-33020000D02*
X102870000Y-33020000D01*
X156210000Y-40287000D02*
X156210000Y-40386000D01*
X150114000Y-36322000D02*
X153317000Y-36322000D01*
X76454000Y-36576000D02*
X72390000Y-40640000D01*
X144037000Y-30245000D02*
X150114000Y-36322000D01*
X112268000Y-40132000D02*
X110490000Y-41910000D01*
X186690000Y-44450000D02*
X186690000Y-40767000D01*
X110998000Y-36929000D02*
X111097000Y-36830000D01*
X132315000Y-30245000D02*
X144037000Y-30245000D01*
X125730000Y-36830000D02*
X132315000Y-30245000D01*
X110490000Y-41910000D02*
X110490000Y-42545000D01*
X108684000Y-36929000D02*
X104775000Y-33020000D01*
X153317000Y-36322000D02*
X154178000Y-37183000D01*
X158115000Y-42291000D02*
X158115000Y-42545000D01*
X184404000Y-46736000D02*
X186690000Y-44450000D01*
X72390000Y-40640000D02*
X72390000Y-42545000D01*
X156210000Y-40386000D02*
X158115000Y-42291000D01*
X162306000Y-46736000D02*
X184404000Y-46736000D01*
X192405000Y-39370000D02*
X195580000Y-42545000D01*
X111097000Y-36830000D02*
X125730000Y-36830000D01*
X99949000Y-36576000D02*
X76454000Y-36576000D01*
X186690000Y-40767000D02*
X188087000Y-39370000D01*
X158115000Y-42545000D02*
X162306000Y-46736000D01*
X188087000Y-39370000D02*
X192405000Y-39370000D01*
G04 #@! TO.N,/G-*
X120269000Y-40386000D02*
X118110000Y-42545000D01*
X87376000Y-39116000D02*
X82550000Y-39116000D01*
X90551000Y-46736000D02*
X88900000Y-45085000D01*
X171069000Y-35814000D02*
X199644000Y-35814000D01*
X161925000Y-42545000D02*
X165100000Y-42545000D01*
X161290000Y-36830000D02*
X166370000Y-36830000D01*
X88900000Y-45085000D02*
X88900000Y-40640000D01*
X161290000Y-40640000D02*
X161290000Y-41910000D01*
X199644000Y-35814000D02*
X203200000Y-39370000D01*
X203200000Y-39370000D02*
X203200000Y-42545000D01*
X88900000Y-40640000D02*
X87376000Y-39116000D01*
X82550000Y-39116000D02*
X80010000Y-41656000D01*
X161290000Y-33020000D02*
X161290000Y-36830000D01*
X168275000Y-33020000D02*
X171069000Y-35814000D01*
X129921000Y-28575000D02*
X156845000Y-28575000D01*
X128016000Y-30480000D02*
X129921000Y-28575000D01*
X115824000Y-46736000D02*
X90551000Y-46736000D01*
X80010000Y-41656000D02*
X80010000Y-42545000D01*
X118110000Y-44450000D02*
X115824000Y-46736000D01*
X166370000Y-36830000D02*
X168275000Y-34925000D01*
X120396000Y-40386000D02*
X120269000Y-40386000D01*
X118110000Y-42545000D02*
X118110000Y-44450000D01*
X168275000Y-34925000D02*
X168275000Y-33020000D01*
X161290000Y-41910000D02*
X161925000Y-42545000D01*
X156845000Y-28575000D02*
X161290000Y-33020000D01*
G04 #@! TO.N,/G+*
X119761000Y-48514000D02*
X88392000Y-48514000D01*
X165100000Y-28575000D02*
X165989000Y-27686000D01*
X88392000Y-48514000D02*
X85090000Y-45212000D01*
X85090000Y-45212000D02*
X85090000Y-42545000D01*
X173355000Y-33020000D02*
X202946000Y-33020000D01*
X202946000Y-33020000D02*
X208280000Y-38354000D01*
X208280000Y-38354000D02*
X208280000Y-42545000D01*
X123190000Y-45085000D02*
X119761000Y-48514000D01*
X124206000Y-34798000D02*
X124206000Y-32004000D01*
X165989000Y-27686000D02*
X166751000Y-27686000D01*
X168656000Y-40287000D02*
X168656000Y-41021000D01*
X168021000Y-27686000D02*
X173355000Y-33020000D01*
X124206000Y-40386000D02*
X124206000Y-41529000D01*
X123190000Y-42545000D02*
X123190000Y-45085000D01*
X124206000Y-41529000D02*
X123190000Y-42545000D01*
X166751000Y-27686000D02*
X168021000Y-27686000D01*
X128524000Y-27686000D02*
X166751000Y-27686000D01*
X165100000Y-35913000D02*
X165100000Y-28575000D01*
X168656000Y-41021000D02*
X170180000Y-42545000D01*
X124206000Y-32004000D02*
X128524000Y-27686000D01*
G04 #@! TO.N,/W-*
X140335000Y-38100000D02*
X135255000Y-33020000D01*
X141732000Y-39370000D02*
X174625000Y-39370000D01*
X130429000Y-37846000D02*
X95504000Y-37846000D01*
X92710000Y-40640000D02*
X92710000Y-42545000D01*
X174625000Y-39370000D02*
X177800000Y-42545000D01*
X135255000Y-33020000D02*
X130429000Y-37846000D01*
X95504000Y-37846000D02*
X92710000Y-40640000D01*
G04 #@! TO.N,/W+*
X97790000Y-40640000D02*
X99215500Y-39214500D01*
X99215500Y-39214500D02*
X112648041Y-39214500D01*
X145415000Y-38100000D02*
X140335000Y-33020000D01*
X144780000Y-38100000D02*
X145415000Y-38100000D01*
X140434459Y-39370000D02*
X141704459Y-38100000D01*
X144780000Y-38100000D02*
X178435000Y-38100000D01*
X97790000Y-42545000D02*
X97790000Y-40640000D01*
X112648041Y-39214500D02*
X112803541Y-39370000D01*
X112803541Y-39370000D02*
X140434459Y-39370000D01*
X141704459Y-38100000D02*
X144780000Y-38100000D01*
X178435000Y-38100000D02*
X182880000Y-42545000D01*
G04 #@! TD*
M02*
