M48
INCH,TZ
T1C0.0157
T2C0.0598
T3C0.1339
%
G90
G05
T1
X42500Y-15800
X43000Y-13500
X43700Y-14539
X44200Y-15800
X47400Y-15900
X48900Y-13700
X48900Y-15900
X50400Y-12000
X55250Y-15000
X55800Y-15500
X59700Y-13800
X59700Y-15861
X60700Y-14639
X61500Y-15861
X63500Y-14500
X63500Y-16000
X65000Y-14139
X66400Y-15861
T2
X26500Y-16750
X28500Y-16750
X31500Y-16750
X33500Y-16750
X36500Y-16750
X38500Y-13000
X38500Y-16750
X40500Y-13000
X41500Y-16750
X43500Y-16750
X46500Y-16750
X48500Y-16750
X53250Y-13000
X55250Y-13000
X60250Y-16750
X62250Y-16750
X65000Y-16750
X66250Y-13000
X67000Y-16750
X68250Y-13000
X70000Y-16750
X72000Y-16750
X75000Y-16750
X77000Y-16750
X80000Y-16750
X82000Y-16750
T3
X26000Y-12000
X82500Y-12000
T0
M30
