G04 #@! TF.GenerationSoftware,KiCad,Pcbnew,(6.0.7)*
G04 #@! TF.CreationDate,2023-03-12T11:42:06-04:00*
G04 #@! TF.ProjectId,RGW LED board,52475720-4c45-4442-9062-6f6172642e6b,rev?*
G04 #@! TF.SameCoordinates,Original*
G04 #@! TF.FileFunction,Legend,Top*
G04 #@! TF.FilePolarity,Positive*
%FSLAX46Y46*%
G04 Gerber Fmt 4.6, Leading zero omitted, Abs format (unit mm)*
G04 Created by KiCad (PCBNEW (6.0.7)) date 2023-03-12 11:42:06*
%MOMM*%
%LPD*%
G01*
G04 APERTURE LIST*
%ADD10C,0.200000*%
%ADD11C,0.150000*%
%ADD12C,0.120000*%
G04 APERTURE END LIST*
D10*
X178214571Y-34488380D02*
X178214571Y-33488380D01*
X178547904Y-34202666D01*
X178881238Y-33488380D01*
X178881238Y-34488380D01*
X179786000Y-34488380D02*
X179786000Y-33964571D01*
X179738380Y-33869333D01*
X179643142Y-33821714D01*
X179452666Y-33821714D01*
X179357428Y-33869333D01*
X179786000Y-34440761D02*
X179690761Y-34488380D01*
X179452666Y-34488380D01*
X179357428Y-34440761D01*
X179309809Y-34345523D01*
X179309809Y-34250285D01*
X179357428Y-34155047D01*
X179452666Y-34107428D01*
X179690761Y-34107428D01*
X179786000Y-34059809D01*
X180690761Y-34488380D02*
X180690761Y-33488380D01*
X180690761Y-34440761D02*
X180595523Y-34488380D01*
X180405047Y-34488380D01*
X180309809Y-34440761D01*
X180262190Y-34393142D01*
X180214571Y-34297904D01*
X180214571Y-34012190D01*
X180262190Y-33916952D01*
X180309809Y-33869333D01*
X180405047Y-33821714D01*
X180595523Y-33821714D01*
X180690761Y-33869333D01*
X181547904Y-34440761D02*
X181452666Y-34488380D01*
X181262190Y-34488380D01*
X181166952Y-34440761D01*
X181119333Y-34345523D01*
X181119333Y-33964571D01*
X181166952Y-33869333D01*
X181262190Y-33821714D01*
X181452666Y-33821714D01*
X181547904Y-33869333D01*
X181595523Y-33964571D01*
X181595523Y-34059809D01*
X181119333Y-34155047D01*
X182643142Y-33821714D02*
X183024095Y-33821714D01*
X182786000Y-34488380D02*
X182786000Y-33631238D01*
X182833619Y-33536000D01*
X182928857Y-33488380D01*
X183024095Y-33488380D01*
X183500285Y-34488380D02*
X183405047Y-34440761D01*
X183357428Y-34393142D01*
X183309809Y-34297904D01*
X183309809Y-34012190D01*
X183357428Y-33916952D01*
X183405047Y-33869333D01*
X183500285Y-33821714D01*
X183643142Y-33821714D01*
X183738380Y-33869333D01*
X183786000Y-33916952D01*
X183833619Y-34012190D01*
X183833619Y-34297904D01*
X183786000Y-34393142D01*
X183738380Y-34440761D01*
X183643142Y-34488380D01*
X183500285Y-34488380D01*
X184262190Y-34488380D02*
X184262190Y-33821714D01*
X184262190Y-34012190D02*
X184309809Y-33916952D01*
X184357428Y-33869333D01*
X184452666Y-33821714D01*
X184547904Y-33821714D01*
X185500285Y-33821714D02*
X185881238Y-33821714D01*
X185643142Y-33488380D02*
X185643142Y-34345523D01*
X185690761Y-34440761D01*
X185786000Y-34488380D01*
X185881238Y-34488380D01*
X186214571Y-34488380D02*
X186214571Y-33488380D01*
X186643142Y-34488380D02*
X186643142Y-33964571D01*
X186595523Y-33869333D01*
X186500285Y-33821714D01*
X186357428Y-33821714D01*
X186262190Y-33869333D01*
X186214571Y-33916952D01*
X187500285Y-34440761D02*
X187405047Y-34488380D01*
X187214571Y-34488380D01*
X187119333Y-34440761D01*
X187071714Y-34345523D01*
X187071714Y-33964571D01*
X187119333Y-33869333D01*
X187214571Y-33821714D01*
X187405047Y-33821714D01*
X187500285Y-33869333D01*
X187547904Y-33964571D01*
X187547904Y-34059809D01*
X187071714Y-34155047D01*
X189309809Y-34488380D02*
X188976476Y-34012190D01*
X188738380Y-34488380D02*
X188738380Y-33488380D01*
X189119333Y-33488380D01*
X189214571Y-33536000D01*
X189262190Y-33583619D01*
X189309809Y-33678857D01*
X189309809Y-33821714D01*
X189262190Y-33916952D01*
X189214571Y-33964571D01*
X189119333Y-34012190D01*
X188738380Y-34012190D01*
X189881238Y-34488380D02*
X189786000Y-34440761D01*
X189738380Y-34393142D01*
X189690761Y-34297904D01*
X189690761Y-34012190D01*
X189738380Y-33916952D01*
X189786000Y-33869333D01*
X189881238Y-33821714D01*
X190024095Y-33821714D01*
X190119333Y-33869333D01*
X190166952Y-33916952D01*
X190214571Y-34012190D01*
X190214571Y-34297904D01*
X190166952Y-34393142D01*
X190119333Y-34440761D01*
X190024095Y-34488380D01*
X189881238Y-34488380D01*
X190595523Y-34440761D02*
X190690761Y-34488380D01*
X190881238Y-34488380D01*
X190976476Y-34440761D01*
X191024095Y-34345523D01*
X191024095Y-34297904D01*
X190976476Y-34202666D01*
X190881238Y-34155047D01*
X190738380Y-34155047D01*
X190643142Y-34107428D01*
X190595523Y-34012190D01*
X190595523Y-33964571D01*
X190643142Y-33869333D01*
X190738380Y-33821714D01*
X190881238Y-33821714D01*
X190976476Y-33869333D01*
X191452666Y-34488380D02*
X191452666Y-33488380D01*
X191452666Y-33869333D02*
X191547904Y-33821714D01*
X191738380Y-33821714D01*
X191833619Y-33869333D01*
X191881238Y-33916952D01*
X191928857Y-34012190D01*
X191928857Y-34297904D01*
X191881238Y-34393142D01*
X191833619Y-34440761D01*
X191738380Y-34488380D01*
X191547904Y-34488380D01*
X191452666Y-34440761D01*
X192786000Y-34488380D02*
X192786000Y-33964571D01*
X192738380Y-33869333D01*
X192643142Y-33821714D01*
X192452666Y-33821714D01*
X192357428Y-33869333D01*
X192786000Y-34440761D02*
X192690761Y-34488380D01*
X192452666Y-34488380D01*
X192357428Y-34440761D01*
X192309809Y-34345523D01*
X192309809Y-34250285D01*
X192357428Y-34155047D01*
X192452666Y-34107428D01*
X192690761Y-34107428D01*
X192786000Y-34059809D01*
X193214571Y-34440761D02*
X193309809Y-34488380D01*
X193500285Y-34488380D01*
X193595523Y-34440761D01*
X193643142Y-34345523D01*
X193643142Y-34297904D01*
X193595523Y-34202666D01*
X193500285Y-34155047D01*
X193357428Y-34155047D01*
X193262190Y-34107428D01*
X193214571Y-34012190D01*
X193214571Y-33964571D01*
X193262190Y-33869333D01*
X193357428Y-33821714D01*
X193500285Y-33821714D01*
X193595523Y-33869333D01*
X194071714Y-34488380D02*
X194071714Y-33488380D01*
X194500285Y-34488380D02*
X194500285Y-33964571D01*
X194452666Y-33869333D01*
X194357428Y-33821714D01*
X194214571Y-33821714D01*
X194119333Y-33869333D01*
X194071714Y-33916952D01*
X196214571Y-34488380D02*
X195738380Y-34488380D01*
X195738380Y-33488380D01*
X196976476Y-34488380D02*
X196976476Y-33964571D01*
X196928857Y-33869333D01*
X196833619Y-33821714D01*
X196643142Y-33821714D01*
X196547904Y-33869333D01*
X196976476Y-34440761D02*
X196881238Y-34488380D01*
X196643142Y-34488380D01*
X196547904Y-34440761D01*
X196500285Y-34345523D01*
X196500285Y-34250285D01*
X196547904Y-34155047D01*
X196643142Y-34107428D01*
X196881238Y-34107428D01*
X196976476Y-34059809D01*
X197452666Y-34488380D02*
X197452666Y-33488380D01*
X197452666Y-33869333D02*
X197547904Y-33821714D01*
X197738380Y-33821714D01*
X197833619Y-33869333D01*
X197881238Y-33916952D01*
X197928857Y-34012190D01*
X197928857Y-34297904D01*
X197881238Y-34393142D01*
X197833619Y-34440761D01*
X197738380Y-34488380D01*
X197547904Y-34488380D01*
X197452666Y-34440761D01*
X199547904Y-34488380D02*
X199547904Y-33964571D01*
X199500285Y-33869333D01*
X199405047Y-33821714D01*
X199214571Y-33821714D01*
X199119333Y-33869333D01*
X199547904Y-34440761D02*
X199452666Y-34488380D01*
X199214571Y-34488380D01*
X199119333Y-34440761D01*
X199071714Y-34345523D01*
X199071714Y-34250285D01*
X199119333Y-34155047D01*
X199214571Y-34107428D01*
X199452666Y-34107428D01*
X199547904Y-34059809D01*
X199881238Y-33821714D02*
X200262190Y-33821714D01*
X200024095Y-33488380D02*
X200024095Y-34345523D01*
X200071714Y-34440761D01*
X200166952Y-34488380D01*
X200262190Y-34488380D01*
X201690761Y-33964571D02*
X201833619Y-34012190D01*
X201881238Y-34059809D01*
X201928857Y-34155047D01*
X201928857Y-34297904D01*
X201881238Y-34393142D01*
X201833619Y-34440761D01*
X201738380Y-34488380D01*
X201357428Y-34488380D01*
X201357428Y-33488380D01*
X201690761Y-33488380D01*
X201785999Y-33536000D01*
X201833619Y-33583619D01*
X201881238Y-33678857D01*
X201881238Y-33774095D01*
X201833619Y-33869333D01*
X201785999Y-33916952D01*
X201690761Y-33964571D01*
X201357428Y-33964571D01*
X202357428Y-34488380D02*
X202357428Y-33821714D01*
X202357428Y-34012190D02*
X202405047Y-33916952D01*
X202452666Y-33869333D01*
X202547904Y-33821714D01*
X202643142Y-33821714D01*
X203405047Y-34488380D02*
X203405047Y-33964571D01*
X203357428Y-33869333D01*
X203262190Y-33821714D01*
X203071714Y-33821714D01*
X202976476Y-33869333D01*
X203405047Y-34440761D02*
X203309809Y-34488380D01*
X203071714Y-34488380D01*
X202976476Y-34440761D01*
X202928857Y-34345523D01*
X202928857Y-34250285D01*
X202976476Y-34155047D01*
X203071714Y-34107428D01*
X203309809Y-34107428D01*
X203405047Y-34059809D01*
X203881238Y-33821714D02*
X203881238Y-34488380D01*
X203881238Y-33916952D02*
X203928857Y-33869333D01*
X204024095Y-33821714D01*
X204166952Y-33821714D01*
X204262190Y-33869333D01*
X204309809Y-33964571D01*
X204309809Y-34488380D01*
X205214571Y-34488380D02*
X205214571Y-33488380D01*
X205214571Y-34440761D02*
X205119333Y-34488380D01*
X204928857Y-34488380D01*
X204833619Y-34440761D01*
X204785999Y-34393142D01*
X204738380Y-34297904D01*
X204738380Y-34012190D01*
X204785999Y-33916952D01*
X204833619Y-33869333D01*
X204928857Y-33821714D01*
X205119333Y-33821714D01*
X205214571Y-33869333D01*
X206071714Y-34440761D02*
X205976476Y-34488380D01*
X205785999Y-34488380D01*
X205690761Y-34440761D01*
X205643142Y-34345523D01*
X205643142Y-33964571D01*
X205690761Y-33869333D01*
X205785999Y-33821714D01*
X205976476Y-33821714D01*
X206071714Y-33869333D01*
X206119333Y-33964571D01*
X206119333Y-34059809D01*
X205643142Y-34155047D01*
X206547904Y-34488380D02*
X206547904Y-33821714D01*
X206547904Y-33488380D02*
X206500285Y-33536000D01*
X206547904Y-33583619D01*
X206595523Y-33536000D01*
X206547904Y-33488380D01*
X206547904Y-33583619D01*
X206976476Y-34440761D02*
X207071714Y-34488380D01*
X207262190Y-34488380D01*
X207357428Y-34440761D01*
X207405047Y-34345523D01*
X207405047Y-34297904D01*
X207357428Y-34202666D01*
X207262190Y-34155047D01*
X207119333Y-34155047D01*
X207024095Y-34107428D01*
X206976476Y-34012190D01*
X206976476Y-33964571D01*
X207024095Y-33869333D01*
X207119333Y-33821714D01*
X207262190Y-33821714D01*
X207357428Y-33869333D01*
X177000285Y-35996571D02*
X177143142Y-36044190D01*
X177190761Y-36091809D01*
X177238380Y-36187047D01*
X177238380Y-36329904D01*
X177190761Y-36425142D01*
X177143142Y-36472761D01*
X177047904Y-36520380D01*
X176666952Y-36520380D01*
X176666952Y-35520380D01*
X177000285Y-35520380D01*
X177095523Y-35568000D01*
X177143142Y-35615619D01*
X177190761Y-35710857D01*
X177190761Y-35806095D01*
X177143142Y-35901333D01*
X177095523Y-35948952D01*
X177000285Y-35996571D01*
X176666952Y-35996571D01*
X177571714Y-35853714D02*
X177809809Y-36520380D01*
X178047904Y-35853714D02*
X177809809Y-36520380D01*
X177714571Y-36758476D01*
X177666952Y-36806095D01*
X177571714Y-36853714D01*
X179047904Y-35853714D02*
X179428857Y-35853714D01*
X179190761Y-35520380D02*
X179190761Y-36377523D01*
X179238380Y-36472761D01*
X179333619Y-36520380D01*
X179428857Y-36520380D01*
X179762190Y-36520380D02*
X179762190Y-35520380D01*
X180190761Y-36520380D02*
X180190761Y-35996571D01*
X180143142Y-35901333D01*
X180047904Y-35853714D01*
X179905047Y-35853714D01*
X179809809Y-35901333D01*
X179762190Y-35948952D01*
X181047904Y-36472761D02*
X180952666Y-36520380D01*
X180762190Y-36520380D01*
X180666952Y-36472761D01*
X180619333Y-36377523D01*
X180619333Y-35996571D01*
X180666952Y-35901333D01*
X180762190Y-35853714D01*
X180952666Y-35853714D01*
X181047904Y-35901333D01*
X181095523Y-35996571D01*
X181095523Y-36091809D01*
X180619333Y-36187047D01*
X182238380Y-35615619D02*
X182286000Y-35568000D01*
X182381238Y-35520380D01*
X182619333Y-35520380D01*
X182714571Y-35568000D01*
X182762190Y-35615619D01*
X182809809Y-35710857D01*
X182809809Y-35806095D01*
X182762190Y-35948952D01*
X182190761Y-36520380D01*
X182809809Y-36520380D01*
X183428857Y-35520380D02*
X183524095Y-35520380D01*
X183619333Y-35568000D01*
X183666952Y-35615619D01*
X183714571Y-35710857D01*
X183762190Y-35901333D01*
X183762190Y-36139428D01*
X183714571Y-36329904D01*
X183666952Y-36425142D01*
X183619333Y-36472761D01*
X183524095Y-36520380D01*
X183428857Y-36520380D01*
X183333619Y-36472761D01*
X183286000Y-36425142D01*
X183238380Y-36329904D01*
X183190761Y-36139428D01*
X183190761Y-35901333D01*
X183238380Y-35710857D01*
X183286000Y-35615619D01*
X183333619Y-35568000D01*
X183428857Y-35520380D01*
X184143142Y-35615619D02*
X184190761Y-35568000D01*
X184286000Y-35520380D01*
X184524095Y-35520380D01*
X184619333Y-35568000D01*
X184666952Y-35615619D01*
X184714571Y-35710857D01*
X184714571Y-35806095D01*
X184666952Y-35948952D01*
X184095523Y-36520380D01*
X184714571Y-36520380D01*
X185095523Y-35615619D02*
X185143142Y-35568000D01*
X185238380Y-35520380D01*
X185476476Y-35520380D01*
X185571714Y-35568000D01*
X185619333Y-35615619D01*
X185666952Y-35710857D01*
X185666952Y-35806095D01*
X185619333Y-35948952D01*
X185047904Y-36520380D01*
X185666952Y-36520380D01*
X186095523Y-36139428D02*
X186857428Y-36139428D01*
X187286000Y-35615619D02*
X187333619Y-35568000D01*
X187428857Y-35520380D01*
X187666952Y-35520380D01*
X187762190Y-35568000D01*
X187809809Y-35615619D01*
X187857428Y-35710857D01*
X187857428Y-35806095D01*
X187809809Y-35948952D01*
X187238380Y-36520380D01*
X187857428Y-36520380D01*
X188190761Y-35520380D02*
X188809809Y-35520380D01*
X188476476Y-35901333D01*
X188619333Y-35901333D01*
X188714571Y-35948952D01*
X188762190Y-35996571D01*
X188809809Y-36091809D01*
X188809809Y-36329904D01*
X188762190Y-36425142D01*
X188714571Y-36472761D01*
X188619333Y-36520380D01*
X188333619Y-36520380D01*
X188238380Y-36472761D01*
X188190761Y-36425142D01*
X190190761Y-35520380D02*
X190381238Y-35520380D01*
X190476476Y-35568000D01*
X190571714Y-35663238D01*
X190619333Y-35853714D01*
X190619333Y-36187047D01*
X190571714Y-36377523D01*
X190476476Y-36472761D01*
X190381238Y-36520380D01*
X190190761Y-36520380D01*
X190095523Y-36472761D01*
X190000285Y-36377523D01*
X189952666Y-36187047D01*
X189952666Y-35853714D01*
X190000285Y-35663238D01*
X190095523Y-35568000D01*
X190190761Y-35520380D01*
X191190761Y-36520380D02*
X191095523Y-36472761D01*
X191047904Y-36377523D01*
X191047904Y-35520380D01*
X191571714Y-36520380D02*
X191571714Y-35853714D01*
X191571714Y-35520380D02*
X191524095Y-35568000D01*
X191571714Y-35615619D01*
X191619333Y-35568000D01*
X191571714Y-35520380D01*
X191571714Y-35615619D01*
X192047904Y-35853714D02*
X192047904Y-36520380D01*
X192047904Y-35948952D02*
X192095523Y-35901333D01*
X192190761Y-35853714D01*
X192333619Y-35853714D01*
X192428857Y-35901333D01*
X192476476Y-35996571D01*
X192476476Y-36520380D01*
X194286000Y-36425142D02*
X194238380Y-36472761D01*
X194095523Y-36520380D01*
X194000285Y-36520380D01*
X193857428Y-36472761D01*
X193762190Y-36377523D01*
X193714571Y-36282285D01*
X193666952Y-36091809D01*
X193666952Y-35948952D01*
X193714571Y-35758476D01*
X193762190Y-35663238D01*
X193857428Y-35568000D01*
X194000285Y-35520380D01*
X194095523Y-35520380D01*
X194238380Y-35568000D01*
X194286000Y-35615619D01*
X194857428Y-36520380D02*
X194762190Y-36472761D01*
X194714571Y-36425142D01*
X194666952Y-36329904D01*
X194666952Y-36044190D01*
X194714571Y-35948952D01*
X194762190Y-35901333D01*
X194857428Y-35853714D01*
X195000285Y-35853714D01*
X195095523Y-35901333D01*
X195143142Y-35948952D01*
X195190761Y-36044190D01*
X195190761Y-36329904D01*
X195143142Y-36425142D01*
X195095523Y-36472761D01*
X195000285Y-36520380D01*
X194857428Y-36520380D01*
X195762190Y-36520380D02*
X195666952Y-36472761D01*
X195619333Y-36377523D01*
X195619333Y-35520380D01*
X196286000Y-36520380D02*
X196190761Y-36472761D01*
X196143142Y-36377523D01*
X196143142Y-35520380D01*
X197047904Y-36472761D02*
X196952666Y-36520380D01*
X196762190Y-36520380D01*
X196666952Y-36472761D01*
X196619333Y-36377523D01*
X196619333Y-35996571D01*
X196666952Y-35901333D01*
X196762190Y-35853714D01*
X196952666Y-35853714D01*
X197047904Y-35901333D01*
X197095523Y-35996571D01*
X197095523Y-36091809D01*
X196619333Y-36187047D01*
X197952666Y-35853714D02*
X197952666Y-36663238D01*
X197905047Y-36758476D01*
X197857428Y-36806095D01*
X197762190Y-36853714D01*
X197619333Y-36853714D01*
X197524095Y-36806095D01*
X197952666Y-36472761D02*
X197857428Y-36520380D01*
X197666952Y-36520380D01*
X197571714Y-36472761D01*
X197524095Y-36425142D01*
X197476476Y-36329904D01*
X197476476Y-36044190D01*
X197524095Y-35948952D01*
X197571714Y-35901333D01*
X197666952Y-35853714D01*
X197857428Y-35853714D01*
X197952666Y-35901333D01*
X198809809Y-36472761D02*
X198714571Y-36520380D01*
X198524095Y-36520380D01*
X198428857Y-36472761D01*
X198381238Y-36377523D01*
X198381238Y-35996571D01*
X198428857Y-35901333D01*
X198524095Y-35853714D01*
X198714571Y-35853714D01*
X198809809Y-35901333D01*
X198857428Y-35996571D01*
X198857428Y-36091809D01*
X198381238Y-36187047D01*
X200000285Y-36472761D02*
X200143142Y-36520380D01*
X200381238Y-36520380D01*
X200476476Y-36472761D01*
X200524095Y-36425142D01*
X200571714Y-36329904D01*
X200571714Y-36234666D01*
X200524095Y-36139428D01*
X200476476Y-36091809D01*
X200381238Y-36044190D01*
X200190761Y-35996571D01*
X200095523Y-35948952D01*
X200047904Y-35901333D01*
X200000285Y-35806095D01*
X200000285Y-35710857D01*
X200047904Y-35615619D01*
X200095523Y-35568000D01*
X200190761Y-35520380D01*
X200428857Y-35520380D01*
X200571714Y-35568000D01*
X201571714Y-36425142D02*
X201524095Y-36472761D01*
X201381238Y-36520380D01*
X201285999Y-36520380D01*
X201143142Y-36472761D01*
X201047904Y-36377523D01*
X201000285Y-36282285D01*
X200952666Y-36091809D01*
X200952666Y-35948952D01*
X201000285Y-35758476D01*
X201047904Y-35663238D01*
X201143142Y-35568000D01*
X201285999Y-35520380D01*
X201381238Y-35520380D01*
X201524095Y-35568000D01*
X201571714Y-35615619D01*
X202190761Y-35520380D02*
X202381238Y-35520380D01*
X202476476Y-35568000D01*
X202571714Y-35663238D01*
X202619333Y-35853714D01*
X202619333Y-36187047D01*
X202571714Y-36377523D01*
X202476476Y-36472761D01*
X202381238Y-36520380D01*
X202190761Y-36520380D01*
X202095523Y-36472761D01*
X202000285Y-36377523D01*
X201952666Y-36187047D01*
X201952666Y-35853714D01*
X202000285Y-35663238D01*
X202095523Y-35568000D01*
X202190761Y-35520380D01*
X203047904Y-36520380D02*
X203047904Y-35520380D01*
X203428857Y-35520380D01*
X203524095Y-35568000D01*
X203571714Y-35615619D01*
X203619333Y-35710857D01*
X203619333Y-35853714D01*
X203571714Y-35948952D01*
X203524095Y-35996571D01*
X203428857Y-36044190D01*
X203047904Y-36044190D01*
X204047904Y-35996571D02*
X204381238Y-35996571D01*
X204524095Y-36520380D02*
X204047904Y-36520380D01*
X204047904Y-35520380D01*
X204524095Y-35520380D01*
X205571714Y-35853714D02*
X205952666Y-35853714D01*
X205714571Y-35520380D02*
X205714571Y-36377523D01*
X205762190Y-36472761D01*
X205857428Y-36520380D01*
X205952666Y-36520380D01*
X206666952Y-36472761D02*
X206571714Y-36520380D01*
X206381238Y-36520380D01*
X206285999Y-36472761D01*
X206238380Y-36377523D01*
X206238380Y-35996571D01*
X206285999Y-35901333D01*
X206381238Y-35853714D01*
X206571714Y-35853714D01*
X206666952Y-35901333D01*
X206714571Y-35996571D01*
X206714571Y-36091809D01*
X206238380Y-36187047D01*
X207571714Y-36520380D02*
X207571714Y-35996571D01*
X207524095Y-35901333D01*
X207428857Y-35853714D01*
X207238380Y-35853714D01*
X207143142Y-35901333D01*
X207571714Y-36472761D02*
X207476476Y-36520380D01*
X207238380Y-36520380D01*
X207143142Y-36472761D01*
X207095523Y-36377523D01*
X207095523Y-36282285D01*
X207143142Y-36187047D01*
X207238380Y-36139428D01*
X207476476Y-36139428D01*
X207571714Y-36091809D01*
X208047904Y-36520380D02*
X208047904Y-35853714D01*
X208047904Y-35948952D02*
X208095523Y-35901333D01*
X208190761Y-35853714D01*
X208333619Y-35853714D01*
X208428857Y-35901333D01*
X208476476Y-35996571D01*
X208476476Y-36520380D01*
X208476476Y-35996571D02*
X208524095Y-35901333D01*
X208619333Y-35853714D01*
X208762190Y-35853714D01*
X208857428Y-35901333D01*
X208905047Y-35996571D01*
X208905047Y-36520380D01*
X180166952Y-30972142D02*
X179500285Y-30972142D01*
X179500285Y-32019761D02*
X179500285Y-30019761D01*
X180452666Y-30019761D01*
X181500285Y-32019761D02*
X181309809Y-31924523D01*
X181214571Y-31734047D01*
X181214571Y-30019761D01*
X182071714Y-30686428D02*
X182547904Y-32019761D01*
X183024095Y-30686428D02*
X182547904Y-32019761D01*
X182357428Y-32495952D01*
X182262190Y-32591190D01*
X182071714Y-32686428D01*
X183786000Y-32019761D02*
X183786000Y-30019761D01*
X183786000Y-30781666D02*
X183976476Y-30686428D01*
X184357428Y-30686428D01*
X184547904Y-30781666D01*
X184643142Y-30876904D01*
X184738380Y-31067380D01*
X184738380Y-31638809D01*
X184643142Y-31829285D01*
X184547904Y-31924523D01*
X184357428Y-32019761D01*
X183976476Y-32019761D01*
X183786000Y-31924523D01*
X185881238Y-32019761D02*
X185690761Y-31924523D01*
X185595523Y-31829285D01*
X185500285Y-31638809D01*
X185500285Y-31067380D01*
X185595523Y-30876904D01*
X185690761Y-30781666D01*
X185881238Y-30686428D01*
X186166952Y-30686428D01*
X186357428Y-30781666D01*
X186452666Y-30876904D01*
X186547904Y-31067380D01*
X186547904Y-31638809D01*
X186452666Y-31829285D01*
X186357428Y-31924523D01*
X186166952Y-32019761D01*
X185881238Y-32019761D01*
X187214571Y-32019761D02*
X188262190Y-30686428D01*
X187214571Y-30686428D02*
X188262190Y-32019761D01*
X191690761Y-32019761D02*
X191024095Y-31067380D01*
X190547904Y-32019761D02*
X190547904Y-30019761D01*
X191309809Y-30019761D01*
X191500285Y-30115000D01*
X191595523Y-30210238D01*
X191690761Y-30400714D01*
X191690761Y-30686428D01*
X191595523Y-30876904D01*
X191500285Y-30972142D01*
X191309809Y-31067380D01*
X190547904Y-31067380D01*
X193595523Y-30115000D02*
X193405047Y-30019761D01*
X193119333Y-30019761D01*
X192833619Y-30115000D01*
X192643142Y-30305476D01*
X192547904Y-30495952D01*
X192452666Y-30876904D01*
X192452666Y-31162619D01*
X192547904Y-31543571D01*
X192643142Y-31734047D01*
X192833619Y-31924523D01*
X193119333Y-32019761D01*
X193309809Y-32019761D01*
X193595523Y-31924523D01*
X193690761Y-31829285D01*
X193690761Y-31162619D01*
X193309809Y-31162619D01*
X194357428Y-30019761D02*
X194833619Y-32019761D01*
X195214571Y-30591190D01*
X195595523Y-32019761D01*
X196071714Y-30019761D01*
X199024095Y-30972142D02*
X199309809Y-31067380D01*
X199405047Y-31162619D01*
X199500285Y-31353095D01*
X199500285Y-31638809D01*
X199405047Y-31829285D01*
X199309809Y-31924523D01*
X199119333Y-32019761D01*
X198357428Y-32019761D01*
X198357428Y-30019761D01*
X199024095Y-30019761D01*
X199214571Y-30115000D01*
X199309809Y-30210238D01*
X199405047Y-30400714D01*
X199405047Y-30591190D01*
X199309809Y-30781666D01*
X199214571Y-30876904D01*
X199024095Y-30972142D01*
X198357428Y-30972142D01*
X200643142Y-32019761D02*
X200452666Y-31924523D01*
X200357428Y-31829285D01*
X200262190Y-31638809D01*
X200262190Y-31067380D01*
X200357428Y-30876904D01*
X200452666Y-30781666D01*
X200643142Y-30686428D01*
X200928857Y-30686428D01*
X201119333Y-30781666D01*
X201214571Y-30876904D01*
X201309809Y-31067380D01*
X201309809Y-31638809D01*
X201214571Y-31829285D01*
X201119333Y-31924523D01*
X200928857Y-32019761D01*
X200643142Y-32019761D01*
X203024095Y-32019761D02*
X203024095Y-30972142D01*
X202928857Y-30781666D01*
X202738380Y-30686428D01*
X202357428Y-30686428D01*
X202166952Y-30781666D01*
X203024095Y-31924523D02*
X202833619Y-32019761D01*
X202357428Y-32019761D01*
X202166952Y-31924523D01*
X202071714Y-31734047D01*
X202071714Y-31543571D01*
X202166952Y-31353095D01*
X202357428Y-31257857D01*
X202833619Y-31257857D01*
X203024095Y-31162619D01*
X203976476Y-32019761D02*
X203976476Y-30686428D01*
X203976476Y-31067380D02*
X204071714Y-30876904D01*
X204166952Y-30781666D01*
X204357428Y-30686428D01*
X204547904Y-30686428D01*
X206071714Y-32019761D02*
X206071714Y-30019761D01*
X206071714Y-31924523D02*
X205881238Y-32019761D01*
X205500285Y-32019761D01*
X205309809Y-31924523D01*
X205214571Y-31829285D01*
X205119333Y-31638809D01*
X205119333Y-31067380D01*
X205214571Y-30876904D01*
X205309809Y-30781666D01*
X205500285Y-30686428D01*
X205881238Y-30686428D01*
X206071714Y-30781666D01*
D11*
G04 #@! TO.C,J8*
X163306666Y-47696428D02*
X164068571Y-47696428D01*
X165830476Y-47125000D02*
X165735238Y-47077380D01*
X165592380Y-47077380D01*
X165449523Y-47125000D01*
X165354285Y-47220238D01*
X165306666Y-47315476D01*
X165259047Y-47505952D01*
X165259047Y-47648809D01*
X165306666Y-47839285D01*
X165354285Y-47934523D01*
X165449523Y-48029761D01*
X165592380Y-48077380D01*
X165687619Y-48077380D01*
X165830476Y-48029761D01*
X165878095Y-47982142D01*
X165878095Y-47648809D01*
X165687619Y-47648809D01*
X167020952Y-48029761D02*
X167116190Y-48077380D01*
X167306666Y-48077380D01*
X167401904Y-48029761D01*
X167449523Y-47934523D01*
X167449523Y-47886904D01*
X167401904Y-47791666D01*
X167306666Y-47744047D01*
X167163809Y-47744047D01*
X167068571Y-47696428D01*
X167020952Y-47601190D01*
X167020952Y-47553571D01*
X167068571Y-47458333D01*
X167163809Y-47410714D01*
X167306666Y-47410714D01*
X167401904Y-47458333D01*
X167735238Y-47410714D02*
X168116190Y-47410714D01*
X167878095Y-47077380D02*
X167878095Y-47934523D01*
X167925714Y-48029761D01*
X168020952Y-48077380D01*
X168116190Y-48077380D01*
X168449523Y-48077380D02*
X168449523Y-47410714D01*
X168449523Y-47601190D02*
X168497142Y-47505952D01*
X168544761Y-47458333D01*
X168640000Y-47410714D01*
X168735238Y-47410714D01*
X169068571Y-48077380D02*
X169068571Y-47410714D01*
X169068571Y-47077380D02*
X169020952Y-47125000D01*
X169068571Y-47172619D01*
X169116190Y-47125000D01*
X169068571Y-47077380D01*
X169068571Y-47172619D01*
X169544761Y-47410714D02*
X169544761Y-48410714D01*
X169544761Y-47458333D02*
X169640000Y-47410714D01*
X169830476Y-47410714D01*
X169925714Y-47458333D01*
X169973333Y-47505952D01*
X170020952Y-47601190D01*
X170020952Y-47886904D01*
X169973333Y-47982142D01*
X169925714Y-48029761D01*
X169830476Y-48077380D01*
X169640000Y-48077380D01*
X169544761Y-48029761D01*
X171211428Y-47696428D02*
X171973333Y-47696428D01*
X171592380Y-48077380D02*
X171592380Y-47315476D01*
G04 #@! TO.C,J2*
X201406666Y-47696428D02*
X202168571Y-47696428D01*
X203930476Y-47125000D02*
X203835238Y-47077380D01*
X203692380Y-47077380D01*
X203549523Y-47125000D01*
X203454285Y-47220238D01*
X203406666Y-47315476D01*
X203359047Y-47505952D01*
X203359047Y-47648809D01*
X203406666Y-47839285D01*
X203454285Y-47934523D01*
X203549523Y-48029761D01*
X203692380Y-48077380D01*
X203787619Y-48077380D01*
X203930476Y-48029761D01*
X203978095Y-47982142D01*
X203978095Y-47648809D01*
X203787619Y-47648809D01*
X205120952Y-48029761D02*
X205216190Y-48077380D01*
X205406666Y-48077380D01*
X205501904Y-48029761D01*
X205549523Y-47934523D01*
X205549523Y-47886904D01*
X205501904Y-47791666D01*
X205406666Y-47744047D01*
X205263809Y-47744047D01*
X205168571Y-47696428D01*
X205120952Y-47601190D01*
X205120952Y-47553571D01*
X205168571Y-47458333D01*
X205263809Y-47410714D01*
X205406666Y-47410714D01*
X205501904Y-47458333D01*
X205835238Y-47410714D02*
X206216190Y-47410714D01*
X205978095Y-47077380D02*
X205978095Y-47934523D01*
X206025714Y-48029761D01*
X206120952Y-48077380D01*
X206216190Y-48077380D01*
X206549523Y-48077380D02*
X206549523Y-47410714D01*
X206549523Y-47601190D02*
X206597142Y-47505952D01*
X206644761Y-47458333D01*
X206740000Y-47410714D01*
X206835238Y-47410714D01*
X207168571Y-48077380D02*
X207168571Y-47410714D01*
X207168571Y-47077380D02*
X207120952Y-47125000D01*
X207168571Y-47172619D01*
X207216190Y-47125000D01*
X207168571Y-47077380D01*
X207168571Y-47172619D01*
X207644761Y-47410714D02*
X207644761Y-48410714D01*
X207644761Y-47458333D02*
X207740000Y-47410714D01*
X207930476Y-47410714D01*
X208025714Y-47458333D01*
X208073333Y-47505952D01*
X208120952Y-47601190D01*
X208120952Y-47886904D01*
X208073333Y-47982142D01*
X208025714Y-48029761D01*
X207930476Y-48077380D01*
X207740000Y-48077380D01*
X207644761Y-48029761D01*
X209311428Y-47696428D02*
X210073333Y-47696428D01*
X209692380Y-48077380D02*
X209692380Y-47315476D01*
G04 #@! TO.C,J13*
X78216666Y-47696428D02*
X78978571Y-47696428D01*
X80740476Y-47125000D02*
X80645238Y-47077380D01*
X80502380Y-47077380D01*
X80359523Y-47125000D01*
X80264285Y-47220238D01*
X80216666Y-47315476D01*
X80169047Y-47505952D01*
X80169047Y-47648809D01*
X80216666Y-47839285D01*
X80264285Y-47934523D01*
X80359523Y-48029761D01*
X80502380Y-48077380D01*
X80597619Y-48077380D01*
X80740476Y-48029761D01*
X80788095Y-47982142D01*
X80788095Y-47648809D01*
X80597619Y-47648809D01*
X81930952Y-48029761D02*
X82026190Y-48077380D01*
X82216666Y-48077380D01*
X82311904Y-48029761D01*
X82359523Y-47934523D01*
X82359523Y-47886904D01*
X82311904Y-47791666D01*
X82216666Y-47744047D01*
X82073809Y-47744047D01*
X81978571Y-47696428D01*
X81930952Y-47601190D01*
X81930952Y-47553571D01*
X81978571Y-47458333D01*
X82073809Y-47410714D01*
X82216666Y-47410714D01*
X82311904Y-47458333D01*
X82645238Y-47410714D02*
X83026190Y-47410714D01*
X82788095Y-47077380D02*
X82788095Y-47934523D01*
X82835714Y-48029761D01*
X82930952Y-48077380D01*
X83026190Y-48077380D01*
X83359523Y-48077380D02*
X83359523Y-47410714D01*
X83359523Y-47601190D02*
X83407142Y-47505952D01*
X83454761Y-47458333D01*
X83550000Y-47410714D01*
X83645238Y-47410714D01*
X83978571Y-48077380D02*
X83978571Y-47410714D01*
X83978571Y-47077380D02*
X83930952Y-47125000D01*
X83978571Y-47172619D01*
X84026190Y-47125000D01*
X83978571Y-47077380D01*
X83978571Y-47172619D01*
X84454761Y-47410714D02*
X84454761Y-48410714D01*
X84454761Y-47458333D02*
X84550000Y-47410714D01*
X84740476Y-47410714D01*
X84835714Y-47458333D01*
X84883333Y-47505952D01*
X84930952Y-47601190D01*
X84930952Y-47886904D01*
X84883333Y-47982142D01*
X84835714Y-48029761D01*
X84740476Y-48077380D01*
X84550000Y-48077380D01*
X84454761Y-48029761D01*
X86121428Y-47696428D02*
X86883333Y-47696428D01*
X86502380Y-48077380D02*
X86502380Y-47315476D01*
G04 #@! TO.C,J3*
X93425238Y-28011428D02*
X94187142Y-28011428D01*
X95996666Y-28392380D02*
X95663333Y-27916190D01*
X95425238Y-28392380D02*
X95425238Y-27392380D01*
X95806190Y-27392380D01*
X95901428Y-27440000D01*
X95949047Y-27487619D01*
X95996666Y-27582857D01*
X95996666Y-27725714D01*
X95949047Y-27820952D01*
X95901428Y-27868571D01*
X95806190Y-27916190D01*
X95425238Y-27916190D01*
X97044285Y-27725714D02*
X97425238Y-27725714D01*
X97187142Y-28392380D02*
X97187142Y-27535238D01*
X97234761Y-27440000D01*
X97330000Y-27392380D01*
X97425238Y-27392380D01*
X97758571Y-28392380D02*
X97758571Y-27725714D01*
X97758571Y-27916190D02*
X97806190Y-27820952D01*
X97853809Y-27773333D01*
X97949047Y-27725714D01*
X98044285Y-27725714D01*
X98520476Y-28392380D02*
X98425238Y-28344761D01*
X98377619Y-28297142D01*
X98330000Y-28201904D01*
X98330000Y-27916190D01*
X98377619Y-27820952D01*
X98425238Y-27773333D01*
X98520476Y-27725714D01*
X98663333Y-27725714D01*
X98758571Y-27773333D01*
X98806190Y-27820952D01*
X98853809Y-27916190D01*
X98853809Y-28201904D01*
X98806190Y-28297142D01*
X98758571Y-28344761D01*
X98663333Y-28392380D01*
X98520476Y-28392380D01*
X99282380Y-28392380D02*
X99282380Y-27725714D01*
X99282380Y-27820952D02*
X99330000Y-27773333D01*
X99425238Y-27725714D01*
X99568095Y-27725714D01*
X99663333Y-27773333D01*
X99710952Y-27868571D01*
X99710952Y-28392380D01*
X99710952Y-27868571D02*
X99758571Y-27773333D01*
X99853809Y-27725714D01*
X99996666Y-27725714D01*
X100091904Y-27773333D01*
X100139523Y-27868571D01*
X100139523Y-28392380D01*
X101806190Y-28392380D02*
X101806190Y-27868571D01*
X101758571Y-27773333D01*
X101663333Y-27725714D01*
X101472857Y-27725714D01*
X101377619Y-27773333D01*
X101806190Y-28344761D02*
X101710952Y-28392380D01*
X101472857Y-28392380D01*
X101377619Y-28344761D01*
X101330000Y-28249523D01*
X101330000Y-28154285D01*
X101377619Y-28059047D01*
X101472857Y-28011428D01*
X101710952Y-28011428D01*
X101806190Y-27963809D01*
X102282380Y-28392380D02*
X102282380Y-27392380D01*
X102282380Y-27773333D02*
X102377619Y-27725714D01*
X102568095Y-27725714D01*
X102663333Y-27773333D01*
X102710952Y-27820952D01*
X102758571Y-27916190D01*
X102758571Y-28201904D01*
X102710952Y-28297142D01*
X102663333Y-28344761D01*
X102568095Y-28392380D01*
X102377619Y-28392380D01*
X102282380Y-28344761D01*
X103330000Y-28392380D02*
X103234761Y-28344761D01*
X103187142Y-28297142D01*
X103139523Y-28201904D01*
X103139523Y-27916190D01*
X103187142Y-27820952D01*
X103234761Y-27773333D01*
X103330000Y-27725714D01*
X103472857Y-27725714D01*
X103568095Y-27773333D01*
X103615714Y-27820952D01*
X103663333Y-27916190D01*
X103663333Y-28201904D01*
X103615714Y-28297142D01*
X103568095Y-28344761D01*
X103472857Y-28392380D01*
X103330000Y-28392380D01*
X103996666Y-27725714D02*
X104234761Y-28392380D01*
X104472857Y-27725714D01*
X105234761Y-28344761D02*
X105139523Y-28392380D01*
X104949047Y-28392380D01*
X104853809Y-28344761D01*
X104806190Y-28249523D01*
X104806190Y-27868571D01*
X104853809Y-27773333D01*
X104949047Y-27725714D01*
X105139523Y-27725714D01*
X105234761Y-27773333D01*
X105282380Y-27868571D01*
X105282380Y-27963809D01*
X104806190Y-28059047D01*
X106472857Y-28011428D02*
X107234761Y-28011428D01*
X106853809Y-28392380D02*
X106853809Y-27630476D01*
G04 #@! TO.C,J12*
X188706666Y-47696428D02*
X189468571Y-47696428D01*
X191278095Y-48077380D02*
X190944761Y-47601190D01*
X190706666Y-48077380D02*
X190706666Y-47077380D01*
X191087619Y-47077380D01*
X191182857Y-47125000D01*
X191230476Y-47172619D01*
X191278095Y-47267857D01*
X191278095Y-47410714D01*
X191230476Y-47505952D01*
X191182857Y-47553571D01*
X191087619Y-47601190D01*
X190706666Y-47601190D01*
X192420952Y-48029761D02*
X192516190Y-48077380D01*
X192706666Y-48077380D01*
X192801904Y-48029761D01*
X192849523Y-47934523D01*
X192849523Y-47886904D01*
X192801904Y-47791666D01*
X192706666Y-47744047D01*
X192563809Y-47744047D01*
X192468571Y-47696428D01*
X192420952Y-47601190D01*
X192420952Y-47553571D01*
X192468571Y-47458333D01*
X192563809Y-47410714D01*
X192706666Y-47410714D01*
X192801904Y-47458333D01*
X193135238Y-47410714D02*
X193516190Y-47410714D01*
X193278095Y-47077380D02*
X193278095Y-47934523D01*
X193325714Y-48029761D01*
X193420952Y-48077380D01*
X193516190Y-48077380D01*
X193849523Y-48077380D02*
X193849523Y-47410714D01*
X193849523Y-47601190D02*
X193897142Y-47505952D01*
X193944761Y-47458333D01*
X194040000Y-47410714D01*
X194135238Y-47410714D01*
X194468571Y-48077380D02*
X194468571Y-47410714D01*
X194468571Y-47077380D02*
X194420952Y-47125000D01*
X194468571Y-47172619D01*
X194516190Y-47125000D01*
X194468571Y-47077380D01*
X194468571Y-47172619D01*
X194944761Y-47410714D02*
X194944761Y-48410714D01*
X194944761Y-47458333D02*
X195040000Y-47410714D01*
X195230476Y-47410714D01*
X195325714Y-47458333D01*
X195373333Y-47505952D01*
X195420952Y-47601190D01*
X195420952Y-47886904D01*
X195373333Y-47982142D01*
X195325714Y-48029761D01*
X195230476Y-48077380D01*
X195040000Y-48077380D01*
X194944761Y-48029761D01*
X196611428Y-47696428D02*
X197373333Y-47696428D01*
X196992380Y-48077380D02*
X196992380Y-47315476D01*
G04 #@! TO.C,J7*
X151241666Y-47696428D02*
X152003571Y-47696428D01*
X153813095Y-48077380D02*
X153479761Y-47601190D01*
X153241666Y-48077380D02*
X153241666Y-47077380D01*
X153622619Y-47077380D01*
X153717857Y-47125000D01*
X153765476Y-47172619D01*
X153813095Y-47267857D01*
X153813095Y-47410714D01*
X153765476Y-47505952D01*
X153717857Y-47553571D01*
X153622619Y-47601190D01*
X153241666Y-47601190D01*
X154955952Y-48029761D02*
X155051190Y-48077380D01*
X155241666Y-48077380D01*
X155336904Y-48029761D01*
X155384523Y-47934523D01*
X155384523Y-47886904D01*
X155336904Y-47791666D01*
X155241666Y-47744047D01*
X155098809Y-47744047D01*
X155003571Y-47696428D01*
X154955952Y-47601190D01*
X154955952Y-47553571D01*
X155003571Y-47458333D01*
X155098809Y-47410714D01*
X155241666Y-47410714D01*
X155336904Y-47458333D01*
X155670238Y-47410714D02*
X156051190Y-47410714D01*
X155813095Y-47077380D02*
X155813095Y-47934523D01*
X155860714Y-48029761D01*
X155955952Y-48077380D01*
X156051190Y-48077380D01*
X156384523Y-48077380D02*
X156384523Y-47410714D01*
X156384523Y-47601190D02*
X156432142Y-47505952D01*
X156479761Y-47458333D01*
X156575000Y-47410714D01*
X156670238Y-47410714D01*
X157003571Y-48077380D02*
X157003571Y-47410714D01*
X157003571Y-47077380D02*
X156955952Y-47125000D01*
X157003571Y-47172619D01*
X157051190Y-47125000D01*
X157003571Y-47077380D01*
X157003571Y-47172619D01*
X157479761Y-47410714D02*
X157479761Y-48410714D01*
X157479761Y-47458333D02*
X157575000Y-47410714D01*
X157765476Y-47410714D01*
X157860714Y-47458333D01*
X157908333Y-47505952D01*
X157955952Y-47601190D01*
X157955952Y-47886904D01*
X157908333Y-47982142D01*
X157860714Y-48029761D01*
X157765476Y-48077380D01*
X157575000Y-48077380D01*
X157479761Y-48029761D01*
X159146428Y-47696428D02*
X159908333Y-47696428D01*
X159527380Y-48077380D02*
X159527380Y-47315476D01*
G04 #@! TO.C,J11*
X90845238Y-47696428D02*
X91607142Y-47696428D01*
X92750000Y-47077380D02*
X92988095Y-48077380D01*
X93178571Y-47363095D01*
X93369047Y-48077380D01*
X93607142Y-47077380D01*
X94702380Y-48029761D02*
X94797619Y-48077380D01*
X94988095Y-48077380D01*
X95083333Y-48029761D01*
X95130952Y-47934523D01*
X95130952Y-47886904D01*
X95083333Y-47791666D01*
X94988095Y-47744047D01*
X94845238Y-47744047D01*
X94750000Y-47696428D01*
X94702380Y-47601190D01*
X94702380Y-47553571D01*
X94750000Y-47458333D01*
X94845238Y-47410714D01*
X94988095Y-47410714D01*
X95083333Y-47458333D01*
X95416666Y-47410714D02*
X95797619Y-47410714D01*
X95559523Y-47077380D02*
X95559523Y-47934523D01*
X95607142Y-48029761D01*
X95702380Y-48077380D01*
X95797619Y-48077380D01*
X96130952Y-48077380D02*
X96130952Y-47410714D01*
X96130952Y-47601190D02*
X96178571Y-47505952D01*
X96226190Y-47458333D01*
X96321428Y-47410714D01*
X96416666Y-47410714D01*
X96750000Y-48077380D02*
X96750000Y-47410714D01*
X96750000Y-47077380D02*
X96702380Y-47125000D01*
X96750000Y-47172619D01*
X96797619Y-47125000D01*
X96750000Y-47077380D01*
X96750000Y-47172619D01*
X97226190Y-47410714D02*
X97226190Y-48410714D01*
X97226190Y-47458333D02*
X97321428Y-47410714D01*
X97511904Y-47410714D01*
X97607142Y-47458333D01*
X97654761Y-47505952D01*
X97702380Y-47601190D01*
X97702380Y-47886904D01*
X97654761Y-47982142D01*
X97607142Y-48029761D01*
X97511904Y-48077380D01*
X97321428Y-48077380D01*
X97226190Y-48029761D01*
X98892857Y-47696428D02*
X99654761Y-47696428D01*
X99273809Y-48077380D02*
X99273809Y-47315476D01*
G04 #@! TO.C,J10*
X116316666Y-47696428D02*
X117078571Y-47696428D01*
X118840476Y-47125000D02*
X118745238Y-47077380D01*
X118602380Y-47077380D01*
X118459523Y-47125000D01*
X118364285Y-47220238D01*
X118316666Y-47315476D01*
X118269047Y-47505952D01*
X118269047Y-47648809D01*
X118316666Y-47839285D01*
X118364285Y-47934523D01*
X118459523Y-48029761D01*
X118602380Y-48077380D01*
X118697619Y-48077380D01*
X118840476Y-48029761D01*
X118888095Y-47982142D01*
X118888095Y-47648809D01*
X118697619Y-47648809D01*
X120030952Y-48029761D02*
X120126190Y-48077380D01*
X120316666Y-48077380D01*
X120411904Y-48029761D01*
X120459523Y-47934523D01*
X120459523Y-47886904D01*
X120411904Y-47791666D01*
X120316666Y-47744047D01*
X120173809Y-47744047D01*
X120078571Y-47696428D01*
X120030952Y-47601190D01*
X120030952Y-47553571D01*
X120078571Y-47458333D01*
X120173809Y-47410714D01*
X120316666Y-47410714D01*
X120411904Y-47458333D01*
X120745238Y-47410714D02*
X121126190Y-47410714D01*
X120888095Y-47077380D02*
X120888095Y-47934523D01*
X120935714Y-48029761D01*
X121030952Y-48077380D01*
X121126190Y-48077380D01*
X121459523Y-48077380D02*
X121459523Y-47410714D01*
X121459523Y-47601190D02*
X121507142Y-47505952D01*
X121554761Y-47458333D01*
X121650000Y-47410714D01*
X121745238Y-47410714D01*
X122078571Y-48077380D02*
X122078571Y-47410714D01*
X122078571Y-47077380D02*
X122030952Y-47125000D01*
X122078571Y-47172619D01*
X122126190Y-47125000D01*
X122078571Y-47077380D01*
X122078571Y-47172619D01*
X122554761Y-47410714D02*
X122554761Y-48410714D01*
X122554761Y-47458333D02*
X122650000Y-47410714D01*
X122840476Y-47410714D01*
X122935714Y-47458333D01*
X122983333Y-47505952D01*
X123030952Y-47601190D01*
X123030952Y-47886904D01*
X122983333Y-47982142D01*
X122935714Y-48029761D01*
X122840476Y-48077380D01*
X122650000Y-48077380D01*
X122554761Y-48029761D01*
X124221428Y-47696428D02*
X124983333Y-47696428D01*
X124602380Y-48077380D02*
X124602380Y-47315476D01*
G04 #@! TO.C,J6*
X130818809Y-28011428D02*
X131580714Y-28011428D01*
X132723571Y-27392380D02*
X132961666Y-28392380D01*
X133152142Y-27678095D01*
X133342619Y-28392380D01*
X133580714Y-27392380D01*
X134580714Y-27725714D02*
X134961666Y-27725714D01*
X134723571Y-28392380D02*
X134723571Y-27535238D01*
X134771190Y-27440000D01*
X134866428Y-27392380D01*
X134961666Y-27392380D01*
X135295000Y-28392380D02*
X135295000Y-27725714D01*
X135295000Y-27916190D02*
X135342619Y-27820952D01*
X135390238Y-27773333D01*
X135485476Y-27725714D01*
X135580714Y-27725714D01*
X136056904Y-28392380D02*
X135961666Y-28344761D01*
X135914047Y-28297142D01*
X135866428Y-28201904D01*
X135866428Y-27916190D01*
X135914047Y-27820952D01*
X135961666Y-27773333D01*
X136056904Y-27725714D01*
X136199761Y-27725714D01*
X136295000Y-27773333D01*
X136342619Y-27820952D01*
X136390238Y-27916190D01*
X136390238Y-28201904D01*
X136342619Y-28297142D01*
X136295000Y-28344761D01*
X136199761Y-28392380D01*
X136056904Y-28392380D01*
X136818809Y-28392380D02*
X136818809Y-27725714D01*
X136818809Y-27820952D02*
X136866428Y-27773333D01*
X136961666Y-27725714D01*
X137104523Y-27725714D01*
X137199761Y-27773333D01*
X137247380Y-27868571D01*
X137247380Y-28392380D01*
X137247380Y-27868571D02*
X137295000Y-27773333D01*
X137390238Y-27725714D01*
X137533095Y-27725714D01*
X137628333Y-27773333D01*
X137675952Y-27868571D01*
X137675952Y-28392380D01*
X139342619Y-28392380D02*
X139342619Y-27868571D01*
X139295000Y-27773333D01*
X139199761Y-27725714D01*
X139009285Y-27725714D01*
X138914047Y-27773333D01*
X139342619Y-28344761D02*
X139247380Y-28392380D01*
X139009285Y-28392380D01*
X138914047Y-28344761D01*
X138866428Y-28249523D01*
X138866428Y-28154285D01*
X138914047Y-28059047D01*
X139009285Y-28011428D01*
X139247380Y-28011428D01*
X139342619Y-27963809D01*
X139818809Y-28392380D02*
X139818809Y-27392380D01*
X139818809Y-27773333D02*
X139914047Y-27725714D01*
X140104523Y-27725714D01*
X140199761Y-27773333D01*
X140247380Y-27820952D01*
X140295000Y-27916190D01*
X140295000Y-28201904D01*
X140247380Y-28297142D01*
X140199761Y-28344761D01*
X140104523Y-28392380D01*
X139914047Y-28392380D01*
X139818809Y-28344761D01*
X140866428Y-28392380D02*
X140771190Y-28344761D01*
X140723571Y-28297142D01*
X140675952Y-28201904D01*
X140675952Y-27916190D01*
X140723571Y-27820952D01*
X140771190Y-27773333D01*
X140866428Y-27725714D01*
X141009285Y-27725714D01*
X141104523Y-27773333D01*
X141152142Y-27820952D01*
X141199761Y-27916190D01*
X141199761Y-28201904D01*
X141152142Y-28297142D01*
X141104523Y-28344761D01*
X141009285Y-28392380D01*
X140866428Y-28392380D01*
X141533095Y-27725714D02*
X141771190Y-28392380D01*
X142009285Y-27725714D01*
X142771190Y-28344761D02*
X142675952Y-28392380D01*
X142485476Y-28392380D01*
X142390238Y-28344761D01*
X142342619Y-28249523D01*
X142342619Y-27868571D01*
X142390238Y-27773333D01*
X142485476Y-27725714D01*
X142675952Y-27725714D01*
X142771190Y-27773333D01*
X142818809Y-27868571D01*
X142818809Y-27963809D01*
X142342619Y-28059047D01*
X144009285Y-28011428D02*
X144771190Y-28011428D01*
X144390238Y-28392380D02*
X144390238Y-27630476D01*
G04 #@! TO.C,J9*
X65516666Y-47696428D02*
X66278571Y-47696428D01*
X68088095Y-48077380D02*
X67754761Y-47601190D01*
X67516666Y-48077380D02*
X67516666Y-47077380D01*
X67897619Y-47077380D01*
X67992857Y-47125000D01*
X68040476Y-47172619D01*
X68088095Y-47267857D01*
X68088095Y-47410714D01*
X68040476Y-47505952D01*
X67992857Y-47553571D01*
X67897619Y-47601190D01*
X67516666Y-47601190D01*
X69230952Y-48029761D02*
X69326190Y-48077380D01*
X69516666Y-48077380D01*
X69611904Y-48029761D01*
X69659523Y-47934523D01*
X69659523Y-47886904D01*
X69611904Y-47791666D01*
X69516666Y-47744047D01*
X69373809Y-47744047D01*
X69278571Y-47696428D01*
X69230952Y-47601190D01*
X69230952Y-47553571D01*
X69278571Y-47458333D01*
X69373809Y-47410714D01*
X69516666Y-47410714D01*
X69611904Y-47458333D01*
X69945238Y-47410714D02*
X70326190Y-47410714D01*
X70088095Y-47077380D02*
X70088095Y-47934523D01*
X70135714Y-48029761D01*
X70230952Y-48077380D01*
X70326190Y-48077380D01*
X70659523Y-48077380D02*
X70659523Y-47410714D01*
X70659523Y-47601190D02*
X70707142Y-47505952D01*
X70754761Y-47458333D01*
X70850000Y-47410714D01*
X70945238Y-47410714D01*
X71278571Y-48077380D02*
X71278571Y-47410714D01*
X71278571Y-47077380D02*
X71230952Y-47125000D01*
X71278571Y-47172619D01*
X71326190Y-47125000D01*
X71278571Y-47077380D01*
X71278571Y-47172619D01*
X71754761Y-47410714D02*
X71754761Y-48410714D01*
X71754761Y-47458333D02*
X71850000Y-47410714D01*
X72040476Y-47410714D01*
X72135714Y-47458333D01*
X72183333Y-47505952D01*
X72230952Y-47601190D01*
X72230952Y-47886904D01*
X72183333Y-47982142D01*
X72135714Y-48029761D01*
X72040476Y-48077380D01*
X71850000Y-48077380D01*
X71754761Y-48029761D01*
X73421428Y-47696428D02*
X74183333Y-47696428D01*
X73802380Y-48077380D02*
X73802380Y-47315476D01*
G04 #@! TO.C,J4*
X175935238Y-47696428D02*
X176697142Y-47696428D01*
X177840000Y-47077380D02*
X178078095Y-48077380D01*
X178268571Y-47363095D01*
X178459047Y-48077380D01*
X178697142Y-47077380D01*
X179792380Y-48029761D02*
X179887619Y-48077380D01*
X180078095Y-48077380D01*
X180173333Y-48029761D01*
X180220952Y-47934523D01*
X180220952Y-47886904D01*
X180173333Y-47791666D01*
X180078095Y-47744047D01*
X179935238Y-47744047D01*
X179840000Y-47696428D01*
X179792380Y-47601190D01*
X179792380Y-47553571D01*
X179840000Y-47458333D01*
X179935238Y-47410714D01*
X180078095Y-47410714D01*
X180173333Y-47458333D01*
X180506666Y-47410714D02*
X180887619Y-47410714D01*
X180649523Y-47077380D02*
X180649523Y-47934523D01*
X180697142Y-48029761D01*
X180792380Y-48077380D01*
X180887619Y-48077380D01*
X181220952Y-48077380D02*
X181220952Y-47410714D01*
X181220952Y-47601190D02*
X181268571Y-47505952D01*
X181316190Y-47458333D01*
X181411428Y-47410714D01*
X181506666Y-47410714D01*
X181840000Y-48077380D02*
X181840000Y-47410714D01*
X181840000Y-47077380D02*
X181792380Y-47125000D01*
X181840000Y-47172619D01*
X181887619Y-47125000D01*
X181840000Y-47077380D01*
X181840000Y-47172619D01*
X182316190Y-47410714D02*
X182316190Y-48410714D01*
X182316190Y-47458333D02*
X182411428Y-47410714D01*
X182601904Y-47410714D01*
X182697142Y-47458333D01*
X182744761Y-47505952D01*
X182792380Y-47601190D01*
X182792380Y-47886904D01*
X182744761Y-47982142D01*
X182697142Y-48029761D01*
X182601904Y-48077380D01*
X182411428Y-48077380D01*
X182316190Y-48029761D01*
X183982857Y-47696428D02*
X184744761Y-47696428D01*
X184363809Y-48077380D02*
X184363809Y-47315476D01*
G04 #@! TO.C,J5*
X163910238Y-28011428D02*
X164672142Y-28011428D01*
X166434047Y-27440000D02*
X166338809Y-27392380D01*
X166195952Y-27392380D01*
X166053095Y-27440000D01*
X165957857Y-27535238D01*
X165910238Y-27630476D01*
X165862619Y-27820952D01*
X165862619Y-27963809D01*
X165910238Y-28154285D01*
X165957857Y-28249523D01*
X166053095Y-28344761D01*
X166195952Y-28392380D01*
X166291190Y-28392380D01*
X166434047Y-28344761D01*
X166481666Y-28297142D01*
X166481666Y-27963809D01*
X166291190Y-27963809D01*
X167529285Y-27725714D02*
X167910238Y-27725714D01*
X167672142Y-28392380D02*
X167672142Y-27535238D01*
X167719761Y-27440000D01*
X167815000Y-27392380D01*
X167910238Y-27392380D01*
X168243571Y-28392380D02*
X168243571Y-27725714D01*
X168243571Y-27916190D02*
X168291190Y-27820952D01*
X168338809Y-27773333D01*
X168434047Y-27725714D01*
X168529285Y-27725714D01*
X169005476Y-28392380D02*
X168910238Y-28344761D01*
X168862619Y-28297142D01*
X168815000Y-28201904D01*
X168815000Y-27916190D01*
X168862619Y-27820952D01*
X168910238Y-27773333D01*
X169005476Y-27725714D01*
X169148333Y-27725714D01*
X169243571Y-27773333D01*
X169291190Y-27820952D01*
X169338809Y-27916190D01*
X169338809Y-28201904D01*
X169291190Y-28297142D01*
X169243571Y-28344761D01*
X169148333Y-28392380D01*
X169005476Y-28392380D01*
X169767380Y-28392380D02*
X169767380Y-27725714D01*
X169767380Y-27820952D02*
X169815000Y-27773333D01*
X169910238Y-27725714D01*
X170053095Y-27725714D01*
X170148333Y-27773333D01*
X170195952Y-27868571D01*
X170195952Y-28392380D01*
X170195952Y-27868571D02*
X170243571Y-27773333D01*
X170338809Y-27725714D01*
X170481666Y-27725714D01*
X170576904Y-27773333D01*
X170624523Y-27868571D01*
X170624523Y-28392380D01*
X172291190Y-28392380D02*
X172291190Y-27868571D01*
X172243571Y-27773333D01*
X172148333Y-27725714D01*
X171957857Y-27725714D01*
X171862619Y-27773333D01*
X172291190Y-28344761D02*
X172195952Y-28392380D01*
X171957857Y-28392380D01*
X171862619Y-28344761D01*
X171815000Y-28249523D01*
X171815000Y-28154285D01*
X171862619Y-28059047D01*
X171957857Y-28011428D01*
X172195952Y-28011428D01*
X172291190Y-27963809D01*
X172767380Y-28392380D02*
X172767380Y-27392380D01*
X172767380Y-27773333D02*
X172862619Y-27725714D01*
X173053095Y-27725714D01*
X173148333Y-27773333D01*
X173195952Y-27820952D01*
X173243571Y-27916190D01*
X173243571Y-28201904D01*
X173195952Y-28297142D01*
X173148333Y-28344761D01*
X173053095Y-28392380D01*
X172862619Y-28392380D01*
X172767380Y-28344761D01*
X173815000Y-28392380D02*
X173719761Y-28344761D01*
X173672142Y-28297142D01*
X173624523Y-28201904D01*
X173624523Y-27916190D01*
X173672142Y-27820952D01*
X173719761Y-27773333D01*
X173815000Y-27725714D01*
X173957857Y-27725714D01*
X174053095Y-27773333D01*
X174100714Y-27820952D01*
X174148333Y-27916190D01*
X174148333Y-28201904D01*
X174100714Y-28297142D01*
X174053095Y-28344761D01*
X173957857Y-28392380D01*
X173815000Y-28392380D01*
X174481666Y-27725714D02*
X174719761Y-28392380D01*
X174957857Y-27725714D01*
X175719761Y-28344761D02*
X175624523Y-28392380D01*
X175434047Y-28392380D01*
X175338809Y-28344761D01*
X175291190Y-28249523D01*
X175291190Y-27868571D01*
X175338809Y-27773333D01*
X175434047Y-27725714D01*
X175624523Y-27725714D01*
X175719761Y-27773333D01*
X175767380Y-27868571D01*
X175767380Y-27963809D01*
X175291190Y-28059047D01*
X176957857Y-28011428D02*
X177719761Y-28011428D01*
X177338809Y-28392380D02*
X177338809Y-27630476D01*
G04 #@! TO.C,J1*
X103616666Y-47696428D02*
X104378571Y-47696428D01*
X106188095Y-48077380D02*
X105854761Y-47601190D01*
X105616666Y-48077380D02*
X105616666Y-47077380D01*
X105997619Y-47077380D01*
X106092857Y-47125000D01*
X106140476Y-47172619D01*
X106188095Y-47267857D01*
X106188095Y-47410714D01*
X106140476Y-47505952D01*
X106092857Y-47553571D01*
X105997619Y-47601190D01*
X105616666Y-47601190D01*
X107330952Y-48029761D02*
X107426190Y-48077380D01*
X107616666Y-48077380D01*
X107711904Y-48029761D01*
X107759523Y-47934523D01*
X107759523Y-47886904D01*
X107711904Y-47791666D01*
X107616666Y-47744047D01*
X107473809Y-47744047D01*
X107378571Y-47696428D01*
X107330952Y-47601190D01*
X107330952Y-47553571D01*
X107378571Y-47458333D01*
X107473809Y-47410714D01*
X107616666Y-47410714D01*
X107711904Y-47458333D01*
X108045238Y-47410714D02*
X108426190Y-47410714D01*
X108188095Y-47077380D02*
X108188095Y-47934523D01*
X108235714Y-48029761D01*
X108330952Y-48077380D01*
X108426190Y-48077380D01*
X108759523Y-48077380D02*
X108759523Y-47410714D01*
X108759523Y-47601190D02*
X108807142Y-47505952D01*
X108854761Y-47458333D01*
X108950000Y-47410714D01*
X109045238Y-47410714D01*
X109378571Y-48077380D02*
X109378571Y-47410714D01*
X109378571Y-47077380D02*
X109330952Y-47125000D01*
X109378571Y-47172619D01*
X109426190Y-47125000D01*
X109378571Y-47077380D01*
X109378571Y-47172619D01*
X109854761Y-47410714D02*
X109854761Y-48410714D01*
X109854761Y-47458333D02*
X109950000Y-47410714D01*
X110140476Y-47410714D01*
X110235714Y-47458333D01*
X110283333Y-47505952D01*
X110330952Y-47601190D01*
X110330952Y-47886904D01*
X110283333Y-47982142D01*
X110235714Y-48029761D01*
X110140476Y-48077380D01*
X109950000Y-48077380D01*
X109854761Y-48029761D01*
X111521428Y-47696428D02*
X112283333Y-47696428D01*
X111902380Y-48077380D02*
X111902380Y-47315476D01*
G04 #@! TO.C,G\u002A\u002A\u002A*
G36*
X77900004Y-34704107D02*
G01*
X77962895Y-34706862D01*
X78000046Y-34712382D01*
X78017281Y-34721427D01*
X78020645Y-34731414D01*
X78005154Y-34754421D01*
X77984573Y-34759470D01*
X77956108Y-34761401D01*
X77933973Y-34769967D01*
X77917377Y-34789327D01*
X77905527Y-34823636D01*
X77897632Y-34877054D01*
X77892901Y-34953737D01*
X77890542Y-35057845D01*
X77889763Y-35193534D01*
X77889717Y-35257691D01*
X77890478Y-35389393D01*
X77892626Y-35506942D01*
X77895961Y-35605121D01*
X77900283Y-35678711D01*
X77905390Y-35722496D01*
X77907928Y-35731154D01*
X77939383Y-35761826D01*
X77973391Y-35777041D01*
X78008653Y-35792058D01*
X78020645Y-35807249D01*
X78002834Y-35815196D01*
X77952910Y-35821183D01*
X77876140Y-35824762D01*
X77805549Y-35825596D01*
X77720867Y-35824351D01*
X77651880Y-35820967D01*
X77605970Y-35815969D01*
X77590453Y-35810268D01*
X77605826Y-35793340D01*
X77643590Y-35771673D01*
X77651241Y-35768184D01*
X77712029Y-35741428D01*
X77712029Y-34787525D01*
X77651241Y-34769630D01*
X77610167Y-34751141D01*
X77590698Y-34729791D01*
X77590453Y-34727546D01*
X77599875Y-34716544D01*
X77631303Y-34709211D01*
X77689478Y-34705012D01*
X77779144Y-34703413D01*
X77805549Y-34703358D01*
X77900004Y-34704107D01*
G37*
G36*
X77582723Y-32945184D02*
G01*
X77621416Y-32883680D01*
X77666748Y-32828157D01*
X77722359Y-32776523D01*
X77791892Y-32726686D01*
X77878985Y-32676552D01*
X77987280Y-32624028D01*
X78120417Y-32567023D01*
X78282037Y-32503444D01*
X78475781Y-32431197D01*
X78478892Y-32430058D01*
X78796860Y-32313666D01*
X78802287Y-32139397D01*
X78798888Y-31970700D01*
X78776460Y-31833304D01*
X78733932Y-31725696D01*
X78670231Y-31646361D01*
X78584283Y-31593782D01*
X78475015Y-31566446D01*
X78393021Y-31561500D01*
X78311460Y-31565587D01*
X78229703Y-31576567D01*
X78181827Y-31587548D01*
X78093913Y-31614006D01*
X78045638Y-31537534D01*
X78017602Y-31490999D01*
X78008667Y-31464651D01*
X78017365Y-31447432D01*
X78032118Y-31435650D01*
X78077134Y-31412361D01*
X78149326Y-31385699D01*
X78239001Y-31358614D01*
X78336465Y-31334057D01*
X78423949Y-31316362D01*
X78496842Y-31307895D01*
X78591810Y-31302701D01*
X78693612Y-31301432D01*
X78746139Y-31302609D01*
X78840933Y-31307240D01*
X78910239Y-31314481D01*
X78965978Y-31326822D01*
X79020070Y-31346753D01*
X79071797Y-31370622D01*
X79184794Y-31438633D01*
X79272910Y-31524539D01*
X79345008Y-31637267D01*
X79353791Y-31654609D01*
X79363508Y-31675186D01*
X79371628Y-31696427D01*
X79378335Y-31721815D01*
X79383817Y-31754831D01*
X79388258Y-31798957D01*
X79391845Y-31857675D01*
X79394764Y-31934467D01*
X79397200Y-32032816D01*
X79399341Y-32156203D01*
X79401371Y-32308110D01*
X79403476Y-32492019D01*
X79404739Y-32608512D01*
X79414091Y-33478247D01*
X79806875Y-33496951D01*
X79812714Y-33547566D01*
X79812517Y-33574610D01*
X79800299Y-33596807D01*
X79769514Y-33620217D01*
X79713617Y-33650898D01*
X79685848Y-33665010D01*
X79534399Y-33731236D01*
X79392874Y-33770121D01*
X79249016Y-33784448D01*
X79166414Y-33782972D01*
X79076322Y-33775605D01*
X79014160Y-33763366D01*
X78970552Y-33744167D01*
X78960089Y-33737037D01*
X78885598Y-33662159D01*
X78833356Y-33569455D01*
X78815721Y-33507234D01*
X78803386Y-33434221D01*
X78725307Y-33509670D01*
X78632652Y-33589111D01*
X78528497Y-33662082D01*
X78424578Y-33721141D01*
X78332629Y-33758850D01*
X78331927Y-33759059D01*
X78243020Y-33776791D01*
X78138636Y-33784640D01*
X78033338Y-33782575D01*
X77941691Y-33770565D01*
X77903139Y-33759981D01*
X77776727Y-33696038D01*
X77673112Y-33604547D01*
X77594905Y-33489455D01*
X77544718Y-33354711D01*
X77525160Y-33204260D01*
X77524989Y-33188336D01*
X77527169Y-33108342D01*
X77536245Y-33049604D01*
X77539994Y-33039460D01*
X78135993Y-33039460D01*
X78144880Y-33145860D01*
X78169600Y-33220681D01*
X78224391Y-33301128D01*
X78301028Y-33352580D01*
X78396892Y-33374341D01*
X78509364Y-33365714D01*
X78607566Y-33337204D01*
X78673626Y-33308988D01*
X78732368Y-33278040D01*
X78757900Y-33261031D01*
X78806212Y-33223028D01*
X78806212Y-32531175D01*
X78765722Y-32544027D01*
X78713318Y-32563440D01*
X78639768Y-32594252D01*
X78554039Y-32632299D01*
X78465096Y-32673419D01*
X78381907Y-32713451D01*
X78313439Y-32748232D01*
X78268658Y-32773600D01*
X78263172Y-32777293D01*
X78197071Y-32846021D01*
X78154034Y-32936462D01*
X78135993Y-33039460D01*
X77539994Y-33039460D01*
X77556022Y-32996095D01*
X77582723Y-32945184D01*
G37*
G36*
X73603261Y-33472673D02*
G01*
X73603915Y-33388079D01*
X73604515Y-33274537D01*
X73605054Y-33134867D01*
X73605521Y-32971889D01*
X73605908Y-32788423D01*
X73606206Y-32587289D01*
X73606407Y-32371307D01*
X73606500Y-32143297D01*
X73606506Y-32068809D01*
X73606506Y-30593907D01*
X73438171Y-30569779D01*
X73269835Y-30545650D01*
X73269835Y-30380042D01*
X74116190Y-30387345D01*
X74317091Y-30389146D01*
X74484353Y-30390896D01*
X74621743Y-30392783D01*
X74733029Y-30394994D01*
X74821978Y-30397716D01*
X74892359Y-30401137D01*
X74947939Y-30405444D01*
X74992485Y-30410825D01*
X75029766Y-30417467D01*
X75063549Y-30425558D01*
X75097601Y-30435285D01*
X75101170Y-30436356D01*
X75284034Y-30502653D01*
X75433806Y-30582254D01*
X75552994Y-30676971D01*
X75644104Y-30788615D01*
X75682372Y-30856296D01*
X75742291Y-31016810D01*
X75766441Y-31177885D01*
X75756211Y-31335758D01*
X75712991Y-31486670D01*
X75638170Y-31626858D01*
X75533136Y-31752561D01*
X75399279Y-31860018D01*
X75288577Y-31922655D01*
X75158928Y-31985368D01*
X75288989Y-32036395D01*
X75474179Y-32124781D01*
X75627185Y-32232107D01*
X75748228Y-32358627D01*
X75837528Y-32504594D01*
X75895306Y-32670260D01*
X75910527Y-32747697D01*
X75918424Y-32915664D01*
X75891735Y-33080036D01*
X75833241Y-33235505D01*
X75745725Y-33376769D01*
X75631970Y-33498521D01*
X75494757Y-33595457D01*
X75455032Y-33616208D01*
X75400365Y-33642555D01*
X75351140Y-33664802D01*
X75303702Y-33683323D01*
X75254396Y-33698488D01*
X75199568Y-33710671D01*
X75135561Y-33720243D01*
X75058722Y-33727577D01*
X74965394Y-33733045D01*
X74851923Y-33737019D01*
X74714654Y-33739871D01*
X74549932Y-33741974D01*
X74354101Y-33743700D01*
X74191006Y-33744923D01*
X73269835Y-33751694D01*
X73269835Y-33675758D01*
X73270859Y-33628462D01*
X73273421Y-33601898D01*
X73274511Y-33599797D01*
X73293741Y-33596769D01*
X73341081Y-33588706D01*
X73407806Y-33577101D01*
X73438171Y-33571767D01*
X73510237Y-33559159D01*
X73566431Y-33549490D01*
X73598027Y-33544255D01*
X73601830Y-33543737D01*
X73602458Y-33528101D01*
X74204803Y-33528101D01*
X74527562Y-33521597D01*
X74647962Y-33518746D01*
X74737995Y-33515182D01*
X74804703Y-33510058D01*
X74855126Y-33502521D01*
X74896306Y-33491723D01*
X74935284Y-33476812D01*
X74949221Y-33470684D01*
X75063447Y-33399460D01*
X75154558Y-33299635D01*
X75220777Y-33173331D01*
X75236485Y-33127453D01*
X75258997Y-33020460D01*
X75269354Y-32896521D01*
X75267901Y-32767682D01*
X75254983Y-32645990D01*
X75230946Y-32543494D01*
X75218851Y-32511819D01*
X75152286Y-32395768D01*
X75063306Y-32301046D01*
X74949411Y-32226297D01*
X74808101Y-32170159D01*
X74636874Y-32131274D01*
X74483816Y-32112301D01*
X74341758Y-32099653D01*
X74302623Y-32007023D01*
X74280770Y-31947406D01*
X74277957Y-31915427D01*
X74285697Y-31907595D01*
X74313165Y-31903671D01*
X74368482Y-31898769D01*
X74442128Y-31893674D01*
X74485593Y-31891149D01*
X74645699Y-31872987D01*
X74786486Y-31837942D01*
X74901235Y-31787887D01*
X74936246Y-31765582D01*
X75010168Y-31691861D01*
X75069367Y-31590184D01*
X75111272Y-31467975D01*
X75133314Y-31332658D01*
X75133323Y-31196362D01*
X75109703Y-31033291D01*
X75067231Y-30900443D01*
X75004274Y-30794829D01*
X74919195Y-30713462D01*
X74844698Y-30668887D01*
X74800068Y-30647973D01*
X74760550Y-30633519D01*
X74717778Y-30624338D01*
X74663389Y-30619239D01*
X74589017Y-30617036D01*
X74486297Y-30616540D01*
X74476241Y-30616539D01*
X74214386Y-30616539D01*
X74209595Y-32072320D01*
X74204803Y-33528101D01*
X73602458Y-33528101D01*
X73602563Y-33525499D01*
X73603261Y-33472673D01*
G37*
G36*
X74483427Y-34704651D02*
G01*
X74541476Y-34708860D01*
X74570242Y-34716483D01*
X74574724Y-34725878D01*
X74552927Y-34745948D01*
X74510818Y-34763011D01*
X74509891Y-34763254D01*
X74459512Y-34789820D01*
X74441279Y-34820225D01*
X74437502Y-34852454D01*
X74434218Y-34914897D01*
X74431660Y-35000361D01*
X74430060Y-35101655D01*
X74429632Y-35180309D01*
X74428295Y-35291696D01*
X74424829Y-35395463D01*
X74419670Y-35483481D01*
X74413257Y-35547620D01*
X74408520Y-35573031D01*
X74372379Y-35648474D01*
X74311661Y-35722754D01*
X74237765Y-35784467D01*
X74162095Y-35822213D01*
X74158212Y-35823339D01*
X74051294Y-35840746D01*
X73936559Y-35839578D01*
X73833148Y-35820229D01*
X73821602Y-35816422D01*
X73737292Y-35769166D01*
X73663547Y-35695242D01*
X73609483Y-35605364D01*
X73589166Y-35543247D01*
X73582433Y-35492976D01*
X73576662Y-35413863D01*
X73572263Y-35314469D01*
X73569648Y-35203356D01*
X73569098Y-35125567D01*
X73568683Y-35002282D01*
X73566663Y-34911220D01*
X73561877Y-34847197D01*
X73553165Y-34805031D01*
X73539363Y-34779537D01*
X73519313Y-34765534D01*
X73491851Y-34757838D01*
X73486480Y-34756806D01*
X73452847Y-34740509D01*
X73442838Y-34726738D01*
X73448486Y-34716218D01*
X73476690Y-34709164D01*
X73531936Y-34705072D01*
X73618709Y-34703442D01*
X73651708Y-34703358D01*
X73760373Y-34705516D01*
X73831947Y-34712007D01*
X73866496Y-34722855D01*
X73864088Y-34738085D01*
X73824791Y-34757723D01*
X73812137Y-34762312D01*
X73762962Y-34793820D01*
X73744592Y-34827016D01*
X73741321Y-34859972D01*
X73739302Y-34923251D01*
X73738604Y-35009786D01*
X73739296Y-35112510D01*
X73740948Y-35203902D01*
X73744177Y-35325859D01*
X73747920Y-35416909D01*
X73752953Y-35483556D01*
X73760052Y-35532301D01*
X73769994Y-35569645D01*
X73783552Y-35602091D01*
X73789973Y-35614791D01*
X73836357Y-35682189D01*
X73896132Y-35726031D01*
X73975880Y-35749182D01*
X74082181Y-35754505D01*
X74109038Y-35753601D01*
X74177981Y-35733127D01*
X74242565Y-35682920D01*
X74295769Y-35610557D01*
X74330574Y-35523617D01*
X74333435Y-35511384D01*
X74340644Y-35459663D01*
X74346366Y-35383602D01*
X74350546Y-35290747D01*
X74353127Y-35188641D01*
X74354052Y-35084832D01*
X74353265Y-34986863D01*
X74350709Y-34902280D01*
X74346329Y-34838627D01*
X74340066Y-34803451D01*
X74338757Y-34800760D01*
X74310546Y-34778549D01*
X74270122Y-34762332D01*
X74229382Y-34745144D01*
X74209370Y-34725718D01*
X74216979Y-34714891D01*
X74250995Y-34707880D01*
X74315307Y-34704209D01*
X74392073Y-34703358D01*
X74483427Y-34704651D01*
G37*
G36*
X85194593Y-34687499D02*
G01*
X85323433Y-34717825D01*
X85324548Y-34718204D01*
X85418067Y-34750118D01*
X85429919Y-34881045D01*
X85433678Y-34965789D01*
X85427711Y-35017210D01*
X85413610Y-35034418D01*
X85392963Y-35016520D01*
X85367363Y-34962624D01*
X85353793Y-34923741D01*
X85310155Y-34841741D01*
X85243408Y-34785856D01*
X85159392Y-34760515D01*
X85137116Y-34759470D01*
X85051840Y-34773396D01*
X84990800Y-34813329D01*
X84957109Y-34876498D01*
X84951318Y-34924766D01*
X84960600Y-34987292D01*
X84991444Y-35041307D01*
X85048348Y-35091587D01*
X85135810Y-35142908D01*
X85174916Y-35162211D01*
X85251375Y-35204308D01*
X85325161Y-35254221D01*
X85379441Y-35300346D01*
X85422805Y-35349227D01*
X85446351Y-35392572D01*
X85457564Y-35447422D01*
X85461000Y-35486072D01*
X85457153Y-35596452D01*
X85426353Y-35683367D01*
X85366536Y-35751278D01*
X85325209Y-35779437D01*
X85247855Y-35811083D01*
X85150757Y-35831737D01*
X85050619Y-35838827D01*
X84978524Y-35832820D01*
X84930877Y-35820891D01*
X84870502Y-35801844D01*
X84854614Y-35796229D01*
X84804321Y-35773780D01*
X84778810Y-35746225D01*
X84766292Y-35700590D01*
X84765975Y-35698692D01*
X84755650Y-35612730D01*
X84754436Y-35541338D01*
X84761899Y-35491572D01*
X84777604Y-35470488D01*
X84780051Y-35470221D01*
X84801022Y-35486655D01*
X84816725Y-35527110D01*
X84817513Y-35531009D01*
X84847994Y-35619294D01*
X84899487Y-35692705D01*
X84964311Y-35740514D01*
X84968981Y-35742554D01*
X85064927Y-35767658D01*
X85150733Y-35761939D01*
X85221178Y-35728293D01*
X85271038Y-35669613D01*
X85295089Y-35588794D01*
X85296492Y-35561072D01*
X85284915Y-35498663D01*
X85247771Y-35441906D01*
X85181440Y-35387043D01*
X85082304Y-35330320D01*
X85066521Y-35322468D01*
X84953151Y-35261320D01*
X84871889Y-35203219D01*
X84818256Y-35143416D01*
X84787771Y-35077164D01*
X84776982Y-35015633D01*
X84784173Y-34911136D01*
X84821688Y-34823650D01*
X84885507Y-34755361D01*
X84971610Y-34708450D01*
X85075979Y-34685102D01*
X85194593Y-34687499D01*
G37*
G36*
X80626498Y-31256564D02*
G01*
X80634751Y-31297599D01*
X80640413Y-31370264D01*
X80643265Y-31448913D01*
X80648553Y-31654705D01*
X80751463Y-31581653D01*
X80922554Y-31473943D01*
X81095113Y-31391118D01*
X81265613Y-31333346D01*
X81430529Y-31300792D01*
X81586335Y-31293623D01*
X81729505Y-31312005D01*
X81856514Y-31356105D01*
X81963835Y-31426089D01*
X82046894Y-31520523D01*
X82079011Y-31576562D01*
X82114348Y-31649090D01*
X82136707Y-31701369D01*
X82147133Y-31728266D01*
X82155818Y-31754118D01*
X82162950Y-31782521D01*
X82168717Y-31817070D01*
X82173307Y-31861360D01*
X82176908Y-31918987D01*
X82179708Y-31993547D01*
X82181896Y-32088634D01*
X82183659Y-32207844D01*
X82185185Y-32354773D01*
X82186663Y-32533015D01*
X82187761Y-32677185D01*
X82194268Y-33540776D01*
X82328554Y-33562337D01*
X82416339Y-33576719D01*
X82473706Y-33588549D01*
X82507120Y-33601504D01*
X82523050Y-33619260D01*
X82527961Y-33645495D01*
X82528303Y-33675899D01*
X82528303Y-33749455D01*
X81575751Y-33749455D01*
X81570400Y-32837636D01*
X81569092Y-32628211D01*
X81567750Y-32452861D01*
X81566235Y-32308255D01*
X81564412Y-32191061D01*
X81562143Y-32097946D01*
X81559290Y-32025578D01*
X81555718Y-31970626D01*
X81551289Y-31929758D01*
X81545865Y-31899641D01*
X81539311Y-31876942D01*
X81531489Y-31858331D01*
X81530010Y-31855309D01*
X81492252Y-31798250D01*
X81444937Y-31749545D01*
X81437286Y-31743724D01*
X81363086Y-31710768D01*
X81263669Y-31695742D01*
X81146290Y-31698006D01*
X81018206Y-31716921D01*
X80886672Y-31751847D01*
X80758945Y-31802144D01*
X80755292Y-31803863D01*
X80639201Y-31858765D01*
X80639201Y-33538579D01*
X80784157Y-33561843D01*
X80876685Y-33578182D01*
X80937847Y-33594078D01*
X80973496Y-33612889D01*
X80989481Y-33637972D01*
X80991651Y-33672685D01*
X80990993Y-33680558D01*
X80985225Y-33740103D01*
X80513103Y-33745100D01*
X80040981Y-33750096D01*
X80036152Y-32678973D01*
X80031322Y-31607849D01*
X79875932Y-31602400D01*
X79720541Y-31596950D01*
X79732059Y-31458218D01*
X80162250Y-31351454D01*
X80284453Y-31321325D01*
X80395093Y-31294422D01*
X80488825Y-31272017D01*
X80560303Y-31255377D01*
X80604180Y-31245772D01*
X80615209Y-31243907D01*
X80626498Y-31256564D01*
G37*
G36*
X88541335Y-31261293D02*
G01*
X88543295Y-31313676D01*
X88545105Y-31397075D01*
X88546732Y-31508294D01*
X88548143Y-31644136D01*
X88549306Y-31801406D01*
X88550189Y-31976907D01*
X88550758Y-32167444D01*
X88550981Y-32369820D01*
X88550984Y-32391299D01*
X88550984Y-33539475D01*
X88677235Y-33561951D01*
X88763509Y-33577531D01*
X88819345Y-33589839D01*
X88851058Y-33602555D01*
X88864967Y-33619361D01*
X88867388Y-33643939D01*
X88865309Y-33671552D01*
X88859599Y-33740103D01*
X88228340Y-33745028D01*
X87597081Y-33749952D01*
X87597081Y-33676148D01*
X87597663Y-33640554D01*
X87603693Y-33616278D01*
X87621592Y-33599636D01*
X87657783Y-33586946D01*
X87718689Y-33574525D01*
X87798148Y-33560836D01*
X87933752Y-33537720D01*
X87933752Y-31598498D01*
X87615785Y-31598498D01*
X87615785Y-31534137D01*
X87619469Y-31488511D01*
X87628474Y-31462270D01*
X87629813Y-31461154D01*
X87650559Y-31454961D01*
X87701637Y-31441720D01*
X87776951Y-31422893D01*
X87870406Y-31399940D01*
X87975906Y-31374323D01*
X88087355Y-31347504D01*
X88198658Y-31320943D01*
X88303719Y-31296103D01*
X88396444Y-31274444D01*
X88470735Y-31257428D01*
X88520498Y-31246516D01*
X88539258Y-31243122D01*
X88541335Y-31261293D01*
G37*
G36*
X83227013Y-34712999D02*
G01*
X83310628Y-34714429D01*
X83370693Y-34717836D01*
X83414136Y-34724060D01*
X83447885Y-34733941D01*
X83478868Y-34748316D01*
X83499050Y-34759470D01*
X83560160Y-34804433D01*
X83607681Y-34857733D01*
X83615950Y-34871402D01*
X83642446Y-34951562D01*
X83649748Y-35044286D01*
X83636583Y-35129551D01*
X83632997Y-35139851D01*
X83608674Y-35181482D01*
X83570542Y-35226320D01*
X83529297Y-35263596D01*
X83495636Y-35282540D01*
X83490648Y-35283181D01*
X83460629Y-35293351D01*
X83436676Y-35308025D01*
X83423839Y-35320542D01*
X83421178Y-35336972D01*
X83431437Y-35362950D01*
X83457357Y-35404110D01*
X83501684Y-35466085D01*
X83536779Y-35513614D01*
X83595911Y-35590334D01*
X83654124Y-35660686D01*
X83704208Y-35716244D01*
X83735515Y-35745950D01*
X83774757Y-35780160D01*
X83797709Y-35805774D01*
X83800173Y-35811568D01*
X83783061Y-35818520D01*
X83738070Y-35823537D01*
X83674717Y-35825590D01*
X83670817Y-35825596D01*
X83621641Y-35825345D01*
X83582854Y-35821948D01*
X83549971Y-35811445D01*
X83518509Y-35789872D01*
X83483985Y-35753267D01*
X83441915Y-35697668D01*
X83387814Y-35619113D01*
X83317200Y-35513638D01*
X83316309Y-35512305D01*
X83262143Y-35433540D01*
X83222223Y-35382003D01*
X83191847Y-35352666D01*
X83166312Y-35340505D01*
X83154404Y-35339293D01*
X83133239Y-35340519D01*
X83119770Y-35348795D01*
X83112258Y-35371016D01*
X83108964Y-35414078D01*
X83108148Y-35484878D01*
X83108126Y-35522758D01*
X83110440Y-35624007D01*
X83118668Y-35693893D01*
X83134738Y-35738250D01*
X83160579Y-35762910D01*
X83190744Y-35772582D01*
X83224384Y-35788521D01*
X83234387Y-35802216D01*
X83228783Y-35812546D01*
X83200920Y-35819545D01*
X83146359Y-35823688D01*
X83060661Y-35825451D01*
X83016165Y-35825596D01*
X82928467Y-35824261D01*
X82856868Y-35820614D01*
X82808418Y-35815191D01*
X82790167Y-35808531D01*
X82790159Y-35808378D01*
X82806286Y-35792800D01*
X82845205Y-35779074D01*
X82846426Y-35778802D01*
X82892782Y-35759151D01*
X82921242Y-35731786D01*
X82926962Y-35702592D01*
X82931870Y-35640978D01*
X82935765Y-35551927D01*
X82938447Y-35440423D01*
X82939715Y-35311448D01*
X82939791Y-35269868D01*
X82939773Y-35264477D01*
X83108126Y-35264477D01*
X83211927Y-35264477D01*
X83281678Y-35259280D01*
X83344854Y-35246016D01*
X83370594Y-35236104D01*
X83431097Y-35185207D01*
X83468788Y-35112154D01*
X83481623Y-35025901D01*
X83467558Y-34935406D01*
X83449445Y-34890658D01*
X83409131Y-34832862D01*
X83353535Y-34797513D01*
X83274980Y-34780926D01*
X83215674Y-34778449D01*
X83108126Y-34778174D01*
X83108126Y-35264477D01*
X82939773Y-35264477D01*
X82939303Y-35119544D01*
X82937299Y-35002366D01*
X82932962Y-34914078D01*
X82925478Y-34850425D01*
X82914033Y-34807151D01*
X82897811Y-34780001D01*
X82895203Y-34778174D01*
X82875999Y-34764719D01*
X82847781Y-34757049D01*
X82841430Y-34756073D01*
X82810687Y-34744518D01*
X82804303Y-34731414D01*
X82824450Y-34724140D01*
X82878406Y-34718472D01*
X82962599Y-34714627D01*
X83073456Y-34712821D01*
X83112919Y-34712710D01*
X83227013Y-34712999D01*
G37*
G36*
X84878688Y-30064340D02*
G01*
X84879707Y-30117429D01*
X84880669Y-30202744D01*
X84881563Y-30317694D01*
X84882378Y-30459689D01*
X84883104Y-30626137D01*
X84883728Y-30814447D01*
X84884241Y-31022028D01*
X84884632Y-31246290D01*
X84884888Y-31484642D01*
X84885000Y-31734492D01*
X84885004Y-31793199D01*
X84885004Y-33540331D01*
X85020608Y-33562115D01*
X85108736Y-33576547D01*
X85166425Y-33588390D01*
X85200121Y-33601301D01*
X85216267Y-33618937D01*
X85221309Y-33644954D01*
X85221676Y-33676220D01*
X85221676Y-33750097D01*
X84749400Y-33745100D01*
X84277125Y-33740103D01*
X84267532Y-32823608D01*
X84265027Y-32603763D01*
X84262427Y-32418430D01*
X84259625Y-32264716D01*
X84256517Y-32139724D01*
X84252995Y-32040560D01*
X84248955Y-31964328D01*
X84244290Y-31908133D01*
X84238896Y-31869081D01*
X84232666Y-31844276D01*
X84231670Y-31841649D01*
X84163664Y-31710030D01*
X84078769Y-31610807D01*
X83978014Y-31544680D01*
X83862429Y-31512348D01*
X83747782Y-31512580D01*
X83613038Y-31546516D01*
X83493111Y-31613800D01*
X83390439Y-31712478D01*
X83307458Y-31840599D01*
X83288510Y-31880518D01*
X83249379Y-31981625D01*
X83221801Y-32085644D01*
X83204334Y-32201527D01*
X83195535Y-32338227D01*
X83193766Y-32468232D01*
X83195186Y-32586673D01*
X83199656Y-32678583D01*
X83208319Y-32754789D01*
X83222319Y-32826119D01*
X83237854Y-32885968D01*
X83299746Y-33052909D01*
X83383679Y-33190322D01*
X83489210Y-33297703D01*
X83615895Y-33374552D01*
X83695174Y-33403844D01*
X83805002Y-33425067D01*
X83921937Y-33428880D01*
X84029528Y-33415290D01*
X84070144Y-33403632D01*
X84125142Y-33386858D01*
X84157290Y-33390180D01*
X84178126Y-33418965D01*
X84193430Y-33460976D01*
X84203304Y-33505961D01*
X84196196Y-33543299D01*
X84167572Y-33579760D01*
X84112898Y-33622118D01*
X84064000Y-33654266D01*
X83914694Y-33728550D01*
X83746592Y-33775683D01*
X83568324Y-33793954D01*
X83407390Y-33784456D01*
X83240622Y-33743031D01*
X83087515Y-33668024D01*
X82949931Y-33561351D01*
X82829731Y-33424929D01*
X82728777Y-33260672D01*
X82648928Y-33070498D01*
X82619364Y-32973240D01*
X82596400Y-32858389D01*
X82581754Y-32721851D01*
X82575591Y-32575328D01*
X82578075Y-32430519D01*
X82589370Y-32299125D01*
X82608505Y-32197025D01*
X82679587Y-31998645D01*
X82780894Y-31819001D01*
X82909741Y-31661430D01*
X83063442Y-31529274D01*
X83221709Y-31434376D01*
X83375440Y-31367132D01*
X83518935Y-31324975D01*
X83666604Y-31304853D01*
X83832859Y-31303714D01*
X83837581Y-31303911D01*
X83942811Y-31310517D01*
X84023690Y-31321512D01*
X84093219Y-31339275D01*
X84154098Y-31361884D01*
X84214581Y-31386508D01*
X84259721Y-31404253D01*
X84280152Y-31411441D01*
X84280350Y-31411458D01*
X84282020Y-31393586D01*
X84283517Y-31343300D01*
X84284775Y-31265593D01*
X84285730Y-31165459D01*
X84286317Y-31047891D01*
X84286477Y-30941099D01*
X84286477Y-30470740D01*
X84127493Y-30482961D01*
X83968509Y-30495181D01*
X83968509Y-30328527D01*
X84291153Y-30226208D01*
X84457722Y-30173568D01*
X84599751Y-30129061D01*
X84715010Y-30093374D01*
X84801268Y-30067192D01*
X84856293Y-30051199D01*
X84877622Y-30046067D01*
X84878688Y-30064340D01*
G37*
G36*
X90589031Y-34704925D02*
G01*
X90646505Y-34709122D01*
X90678979Y-34715195D01*
X90683237Y-34718597D01*
X90668063Y-34735925D01*
X90630720Y-34758896D01*
X90622449Y-34763007D01*
X90597796Y-34778028D01*
X90574160Y-34801384D01*
X90548331Y-34838268D01*
X90517103Y-34893877D01*
X90477270Y-34973404D01*
X90426057Y-35081119D01*
X90290453Y-35370063D01*
X90290453Y-35733985D01*
X90356671Y-35761653D01*
X90396105Y-35783339D01*
X90412573Y-35803188D01*
X90411679Y-35807458D01*
X90389793Y-35814430D01*
X90339982Y-35819817D01*
X90271702Y-35823493D01*
X90194409Y-35825333D01*
X90117558Y-35825211D01*
X90050604Y-35823001D01*
X90003003Y-35818578D01*
X89984955Y-35813127D01*
X89973529Y-35789077D01*
X89996425Y-35771494D01*
X90028906Y-35762876D01*
X90075752Y-35741402D01*
X90105344Y-35696395D01*
X90119810Y-35623267D01*
X90122118Y-35562116D01*
X90120345Y-35526713D01*
X90113446Y-35490358D01*
X90099046Y-35447531D01*
X90074775Y-35392714D01*
X90038257Y-35320390D01*
X89987122Y-35225039D01*
X89941163Y-35141282D01*
X89883281Y-35038507D01*
X89828570Y-34945381D01*
X89780539Y-34867566D01*
X89742695Y-34810727D01*
X89718548Y-34780528D01*
X89716715Y-34778945D01*
X89683600Y-34748940D01*
X89675011Y-34727836D01*
X89693848Y-34714199D01*
X89743010Y-34706596D01*
X89825399Y-34703592D01*
X89869614Y-34703358D01*
X89959297Y-34704218D01*
X90017639Y-34707373D01*
X90050677Y-34713687D01*
X90064451Y-34724021D01*
X90066006Y-34731414D01*
X90050354Y-34754250D01*
X90028011Y-34759470D01*
X89992267Y-34771119D01*
X89979711Y-34786323D01*
X89984459Y-34811544D01*
X90004416Y-34863047D01*
X90036736Y-34934356D01*
X90078570Y-35018992D01*
X90100553Y-35061237D01*
X90231700Y-35309298D01*
X90345245Y-35078588D01*
X90386797Y-34992320D01*
X90421526Y-34916713D01*
X90446356Y-34858733D01*
X90458211Y-34825342D01*
X90458789Y-34821508D01*
X90443909Y-34795185D01*
X90407601Y-34766107D01*
X90402795Y-34763276D01*
X90365134Y-34738200D01*
X90346977Y-34718951D01*
X90346684Y-34717386D01*
X90363939Y-34711208D01*
X90410259Y-34706419D01*
X90477306Y-34703713D01*
X90514901Y-34703358D01*
X90589031Y-34704925D01*
G37*
G36*
X76937097Y-31247482D02*
G01*
X76946773Y-31263647D01*
X76952062Y-31299122D01*
X76954212Y-31360655D01*
X76954518Y-31420810D01*
X76955422Y-31497165D01*
X76957852Y-31557084D01*
X76961383Y-31592443D01*
X76963776Y-31598498D01*
X76981704Y-31587589D01*
X77020824Y-31558695D01*
X77073417Y-31517565D01*
X77085506Y-31507866D01*
X77190769Y-31427297D01*
X77279257Y-31370782D01*
X77359310Y-31334647D01*
X77439263Y-31315223D01*
X77527457Y-31308836D01*
X77537579Y-31308772D01*
X77618641Y-31310792D01*
X77673510Y-31318554D01*
X77713234Y-31334229D01*
X77732815Y-31347150D01*
X77803498Y-31413325D01*
X77846402Y-31490315D01*
X77868028Y-31589839D01*
X77868189Y-31591256D01*
X77875375Y-31656300D01*
X77877113Y-31704922D01*
X77868979Y-31741929D01*
X77846550Y-31772128D01*
X77805400Y-31800326D01*
X77741107Y-31831329D01*
X77649245Y-31869945D01*
X77588891Y-31894721D01*
X77492729Y-31933697D01*
X77407846Y-31967038D01*
X77340623Y-31992323D01*
X77297438Y-32007128D01*
X77285360Y-32009985D01*
X77269695Y-31993018D01*
X77268551Y-31941890D01*
X77268739Y-31939845D01*
X77264969Y-31855204D01*
X77238689Y-31788247D01*
X77193060Y-31746904D01*
X77191496Y-31746174D01*
X77156597Y-31737147D01*
X77114230Y-31743423D01*
X77052133Y-31766856D01*
X77050840Y-31767411D01*
X76954518Y-31808848D01*
X76954518Y-33539475D01*
X77080770Y-33561951D01*
X77166336Y-33577418D01*
X77221713Y-33589797D01*
X77253461Y-33602988D01*
X77268139Y-33620890D01*
X77272309Y-33647403D01*
X77272486Y-33675899D01*
X77272486Y-33749455D01*
X76639668Y-33749455D01*
X76489372Y-33749099D01*
X76351104Y-33748088D01*
X76229283Y-33746508D01*
X76128327Y-33744443D01*
X76052655Y-33741980D01*
X76006687Y-33739203D01*
X75994381Y-33736985D01*
X75983852Y-33707684D01*
X75982809Y-33663671D01*
X75990393Y-33624111D01*
X76000096Y-33609496D01*
X76022800Y-33602837D01*
X76071668Y-33591765D01*
X76136029Y-33578389D01*
X76205211Y-33564820D01*
X76268543Y-33553169D01*
X76315354Y-33545546D01*
X76332611Y-33543737D01*
X76333509Y-33525606D01*
X76334350Y-33473541D01*
X76335118Y-33391013D01*
X76335797Y-33281495D01*
X76336368Y-33148460D01*
X76336816Y-32995380D01*
X76337123Y-32825729D01*
X76337274Y-32642979D01*
X76337287Y-32571104D01*
X76337287Y-31598498D01*
X76017061Y-31598498D01*
X76028671Y-31458218D01*
X76458863Y-31351428D01*
X76581760Y-31321221D01*
X76693762Y-31294264D01*
X76789364Y-31271834D01*
X76863062Y-31255211D01*
X76909352Y-31245673D01*
X76921786Y-31243880D01*
X76937097Y-31247482D01*
G37*
G36*
X90051372Y-31296356D02*
G01*
X90170151Y-31306516D01*
X90231047Y-31315996D01*
X90292612Y-31329919D01*
X90367523Y-31349821D01*
X90446504Y-31372850D01*
X90520277Y-31396152D01*
X90579566Y-31416876D01*
X90615095Y-31432167D01*
X90620162Y-31435668D01*
X90625646Y-31457744D01*
X90632276Y-31509413D01*
X90639524Y-31583040D01*
X90646860Y-31670993D01*
X90653755Y-31765637D01*
X90659682Y-31859339D01*
X90664112Y-31944465D01*
X90666515Y-32013382D01*
X90666363Y-32058456D01*
X90664232Y-32072049D01*
X90638323Y-32080617D01*
X90591743Y-32082104D01*
X90581526Y-32081401D01*
X90544768Y-32076281D01*
X90519598Y-32063372D01*
X90498793Y-32034747D01*
X90475125Y-31982486D01*
X90462161Y-31950505D01*
X90386380Y-31795317D01*
X90297085Y-31674549D01*
X90193530Y-31587458D01*
X90074970Y-31533304D01*
X90032280Y-31522504D01*
X89910009Y-31511277D01*
X89800624Y-31528525D01*
X89708518Y-31571393D01*
X89638089Y-31637026D01*
X89593733Y-31722568D01*
X89579731Y-31816420D01*
X89592916Y-31906792D01*
X89633901Y-31987337D01*
X89704949Y-32060232D01*
X89808321Y-32127656D01*
X89946280Y-32191788D01*
X89985600Y-32207242D01*
X90208618Y-32301657D01*
X90394830Y-32400623D01*
X90544148Y-32504080D01*
X90656481Y-32611966D01*
X90729869Y-32720484D01*
X90783898Y-32866614D01*
X90803322Y-33018193D01*
X90789210Y-33169423D01*
X90742635Y-33314507D01*
X90664667Y-33447646D01*
X90577726Y-33544146D01*
X90450200Y-33637892D01*
X90296475Y-33710707D01*
X90122352Y-33761028D01*
X89933633Y-33787298D01*
X89736122Y-33787954D01*
X89686078Y-33783936D01*
X89439337Y-33742919D01*
X89209589Y-33670097D01*
X89102751Y-33627737D01*
X89090295Y-33515584D01*
X89084127Y-33450843D01*
X89076964Y-33361386D01*
X89069765Y-33259851D01*
X89064382Y-33174308D01*
X89050925Y-32945184D01*
X89137269Y-32945184D01*
X89190814Y-32947341D01*
X89218414Y-32957814D01*
X89231460Y-32982605D01*
X89234881Y-32996620D01*
X89286104Y-33167758D01*
X89357854Y-33309214D01*
X89449306Y-33420196D01*
X89559632Y-33499909D01*
X89688006Y-33547562D01*
X89824968Y-33562415D01*
X89927653Y-33555406D01*
X90006870Y-33531736D01*
X90074338Y-33487439D01*
X90091055Y-33472381D01*
X90160071Y-33387780D01*
X90195476Y-33292974D01*
X90202277Y-33216391D01*
X90185903Y-33103596D01*
X90135758Y-33005861D01*
X90089215Y-32953341D01*
X90056770Y-32930065D01*
X89996620Y-32894213D01*
X89914898Y-32849157D01*
X89817739Y-32798268D01*
X89711278Y-32744915D01*
X89699076Y-32738950D01*
X89569793Y-32674817D01*
X89468802Y-32621853D01*
X89390035Y-32576438D01*
X89327424Y-32534949D01*
X89274900Y-32493768D01*
X89247892Y-32469731D01*
X89165521Y-32385430D01*
X89108135Y-32304147D01*
X89071819Y-32216204D01*
X89052655Y-32111921D01*
X89046728Y-31981620D01*
X89046707Y-31972577D01*
X89047613Y-31880551D01*
X89051613Y-31815327D01*
X89060516Y-31766322D01*
X89076132Y-31722950D01*
X89096401Y-31681915D01*
X89183576Y-31556287D01*
X89300133Y-31452503D01*
X89444093Y-31372016D01*
X89584405Y-31323566D01*
X89675893Y-31306867D01*
X89792227Y-31296672D01*
X89921392Y-31293121D01*
X90051372Y-31296356D01*
G37*
G36*
X81813695Y-34848313D02*
G01*
X81813239Y-34929442D01*
X81804102Y-34974865D01*
X81786653Y-34984326D01*
X81761260Y-34957568D01*
X81732900Y-34904425D01*
X81700773Y-34848958D01*
X81660451Y-34812065D01*
X81604198Y-34790325D01*
X81524279Y-34780314D01*
X81448148Y-34778449D01*
X81293841Y-34778174D01*
X81293841Y-35227069D01*
X81382685Y-35226793D01*
X81475363Y-35216931D01*
X81538696Y-35186870D01*
X81575863Y-35134886D01*
X81581150Y-35119284D01*
X81599656Y-35078268D01*
X81621646Y-35058952D01*
X81623866Y-35058733D01*
X81635699Y-35067087D01*
X81643402Y-35095720D01*
X81647665Y-35149991D01*
X81649182Y-35235258D01*
X81649216Y-35255125D01*
X81648356Y-35344808D01*
X81645201Y-35403150D01*
X81638887Y-35436188D01*
X81628553Y-35449962D01*
X81621160Y-35451517D01*
X81596334Y-35437842D01*
X81593104Y-35425983D01*
X81582247Y-35394504D01*
X81555957Y-35353246D01*
X81554339Y-35351167D01*
X81527405Y-35322887D01*
X81495459Y-35308033D01*
X81445960Y-35302476D01*
X81404707Y-35301885D01*
X81293841Y-35301885D01*
X81293841Y-35750780D01*
X81478149Y-35750780D01*
X81564420Y-35750021D01*
X81622219Y-35746590D01*
X81660470Y-35738757D01*
X81688099Y-35724793D01*
X81711192Y-35705614D01*
X81748574Y-35660433D01*
X81771680Y-35613555D01*
X81772063Y-35612095D01*
X81789950Y-35576247D01*
X81811082Y-35563741D01*
X81825546Y-35571558D01*
X81832686Y-35599618D01*
X81833671Y-35654829D01*
X81832435Y-35689992D01*
X81826904Y-35816244D01*
X81401389Y-35821271D01*
X81263928Y-35822147D01*
X81149259Y-35821354D01*
X81060850Y-35818992D01*
X81002169Y-35815166D01*
X80976683Y-35809976D01*
X80975873Y-35808729D01*
X80992003Y-35792904D01*
X81030928Y-35779072D01*
X81032141Y-35778802D01*
X81078496Y-35759151D01*
X81106956Y-35731786D01*
X81112677Y-35702592D01*
X81117584Y-35640978D01*
X81121479Y-35551927D01*
X81124161Y-35440423D01*
X81125430Y-35311448D01*
X81125505Y-35269868D01*
X81125018Y-35119544D01*
X81123013Y-35002366D01*
X81118676Y-34914078D01*
X81111192Y-34850425D01*
X81099747Y-34807151D01*
X81083526Y-34780001D01*
X81061713Y-34764719D01*
X81033495Y-34757049D01*
X81027144Y-34756073D01*
X80996352Y-34744513D01*
X80989901Y-34731414D01*
X81009992Y-34724844D01*
X81065068Y-34719580D01*
X81152726Y-34715731D01*
X81270564Y-34713407D01*
X81401389Y-34712710D01*
X81808200Y-34712710D01*
X81813695Y-34848313D01*
G37*
G36*
X86760760Y-34705554D02*
G01*
X86831998Y-34712134D01*
X86866206Y-34723082D01*
X86863343Y-34738384D01*
X86823368Y-34758026D01*
X86813388Y-34761619D01*
X86770257Y-34788291D01*
X86748179Y-34821434D01*
X86743775Y-34857140D01*
X86740507Y-34922519D01*
X86738332Y-35010750D01*
X86737205Y-35115013D01*
X86737080Y-35228488D01*
X86737914Y-35344356D01*
X86739662Y-35455796D01*
X86742280Y-35555988D01*
X86745723Y-35638113D01*
X86749946Y-35695350D01*
X86754038Y-35719137D01*
X86785470Y-35759310D01*
X86819502Y-35776823D01*
X86862473Y-35791437D01*
X86869900Y-35804122D01*
X86843620Y-35814341D01*
X86785471Y-35821558D01*
X86697289Y-35825236D01*
X86652530Y-35825596D01*
X86567848Y-35824351D01*
X86498860Y-35820967D01*
X86452950Y-35815969D01*
X86437434Y-35810268D01*
X86452806Y-35793340D01*
X86490571Y-35771673D01*
X86498222Y-35768184D01*
X86559010Y-35741428D01*
X86559010Y-34787525D01*
X86498222Y-34769630D01*
X86457148Y-34751141D01*
X86437679Y-34729791D01*
X86437434Y-34727546D01*
X86446856Y-34716544D01*
X86478284Y-34709211D01*
X86536459Y-34705012D01*
X86626125Y-34703413D01*
X86652530Y-34703358D01*
X86760760Y-34705554D01*
G37*
G36*
X79309735Y-34705410D02*
G01*
X79383488Y-34711614D01*
X79420452Y-34722038D01*
X79420828Y-34736752D01*
X79384811Y-34755826D01*
X79367331Y-34762272D01*
X79324769Y-34786372D01*
X79311287Y-34823262D01*
X79311219Y-34827106D01*
X79317237Y-34853736D01*
X79333777Y-34908500D01*
X79358566Y-34984905D01*
X79389332Y-35076462D01*
X79423803Y-35176679D01*
X79459708Y-35279066D01*
X79494773Y-35377130D01*
X79526728Y-35464383D01*
X79553299Y-35534331D01*
X79572216Y-35580485D01*
X79580340Y-35595944D01*
X79588786Y-35582425D01*
X79606073Y-35539228D01*
X79630215Y-35472484D01*
X79659222Y-35388320D01*
X79691107Y-35292866D01*
X79723880Y-35192250D01*
X79755555Y-35092602D01*
X79784142Y-35000050D01*
X79807653Y-34920723D01*
X79824101Y-34860751D01*
X79831496Y-34826261D01*
X79831596Y-34821431D01*
X79811150Y-34789646D01*
X79773914Y-34763267D01*
X79732685Y-34739094D01*
X79725305Y-34721820D01*
X79752588Y-34711086D01*
X79815344Y-34706535D01*
X79900490Y-34707356D01*
X79991550Y-34712633D01*
X80050863Y-34721608D01*
X80077035Y-34733616D01*
X80068672Y-34747991D01*
X80024380Y-34764067D01*
X80021052Y-34764941D01*
X79999301Y-34771870D01*
X79980409Y-34783068D01*
X79962378Y-34802686D01*
X79943208Y-34834878D01*
X79920901Y-34883796D01*
X79893456Y-34953592D01*
X79858875Y-35048420D01*
X79815158Y-35172432D01*
X79789566Y-35245773D01*
X79734309Y-35404610D01*
X79690070Y-35531717D01*
X79655299Y-35630594D01*
X79628445Y-35704744D01*
X79607957Y-35757669D01*
X79592283Y-35792871D01*
X79579874Y-35813852D01*
X79569177Y-35824113D01*
X79558643Y-35827157D01*
X79546720Y-35826486D01*
X79532779Y-35825596D01*
X79488012Y-35816185D01*
X79462047Y-35781075D01*
X79459312Y-35774160D01*
X79447414Y-35742476D01*
X79424465Y-35681365D01*
X79392565Y-35596418D01*
X79353814Y-35493229D01*
X79310314Y-35377390D01*
X79281960Y-35301885D01*
X79226855Y-35155406D01*
X79182939Y-35039966D01*
X79148306Y-34951561D01*
X79121049Y-34886190D01*
X79099262Y-34839850D01*
X79081038Y-34808539D01*
X79064470Y-34788254D01*
X79047651Y-34774993D01*
X79028675Y-34764754D01*
X79025304Y-34763125D01*
X78987257Y-34741171D01*
X78978325Y-34724880D01*
X79000339Y-34713621D01*
X79055130Y-34706766D01*
X79144530Y-34703683D01*
X79198995Y-34703358D01*
X79309735Y-34705410D01*
G37*
G36*
X85516841Y-31821191D02*
G01*
X85647660Y-31661691D01*
X85802157Y-31526845D01*
X85976734Y-31420938D01*
X86002707Y-31408602D01*
X86155785Y-31350080D01*
X86314193Y-31314774D01*
X86490154Y-31300208D01*
X86541052Y-31299510D01*
X86743367Y-31312367D01*
X86919923Y-31351917D01*
X87071690Y-31418682D01*
X87199635Y-31513182D01*
X87304729Y-31635939D01*
X87367660Y-31743867D01*
X87396815Y-31803924D01*
X87416558Y-31851220D01*
X87428722Y-31895586D01*
X87435143Y-31946850D01*
X87437656Y-32014840D01*
X87438096Y-32109386D01*
X87438097Y-32121157D01*
X87438097Y-32356009D01*
X86666558Y-32360892D01*
X85895019Y-32365776D01*
X85895344Y-32463764D01*
X85909663Y-32622822D01*
X85949162Y-32781062D01*
X86010206Y-32928909D01*
X86089163Y-33056790D01*
X86144911Y-33121244D01*
X86257536Y-33210143D01*
X86393751Y-33278782D01*
X86542866Y-33321873D01*
X86555088Y-33324069D01*
X86694030Y-33332731D01*
X86838479Y-33315126D01*
X86978933Y-33274224D01*
X87105891Y-33212996D01*
X87209854Y-33134411D01*
X87230741Y-33112841D01*
X87270659Y-33071360D01*
X87301200Y-33044496D01*
X87311796Y-33038797D01*
X87334368Y-33049539D01*
X87371985Y-33075909D01*
X87380136Y-33082310D01*
X87434400Y-33125730D01*
X87370881Y-33245876D01*
X87279113Y-33385886D01*
X87161503Y-33513178D01*
X87025531Y-33621924D01*
X86878677Y-33706295D01*
X86728422Y-33760464D01*
X86703045Y-33766256D01*
X86581141Y-33782018D01*
X86440429Y-33785100D01*
X86297111Y-33776002D01*
X86167390Y-33755220D01*
X86141943Y-33749040D01*
X85951566Y-33680649D01*
X85781181Y-33581352D01*
X85632671Y-33452979D01*
X85507919Y-33297358D01*
X85408811Y-33116317D01*
X85360588Y-32990647D01*
X85337794Y-32917748D01*
X85322373Y-32856301D01*
X85312936Y-32795549D01*
X85308093Y-32724733D01*
X85306455Y-32633096D01*
X85306415Y-32571104D01*
X85308882Y-32437039D01*
X85316121Y-32331559D01*
X85328922Y-32246053D01*
X85340619Y-32197025D01*
X85368366Y-32122209D01*
X85898995Y-32122209D01*
X86846630Y-32122209D01*
X86859407Y-32037001D01*
X86866638Y-31894121D01*
X86843867Y-31768219D01*
X86792067Y-31662169D01*
X86712211Y-31578846D01*
X86701806Y-31571227D01*
X86653177Y-31540414D01*
X86608410Y-31523880D01*
X86552303Y-31517598D01*
X86497728Y-31517147D01*
X86355164Y-31535967D01*
X86227046Y-31587972D01*
X86115850Y-31670905D01*
X86024046Y-31782510D01*
X85954110Y-31920532D01*
X85915659Y-32048044D01*
X85898995Y-32122209D01*
X85368366Y-32122209D01*
X85413295Y-32001064D01*
X85516841Y-31821191D01*
G37*
G36*
X76077201Y-35016649D02*
G01*
X76140930Y-35120377D01*
X76202215Y-35219376D01*
X76256786Y-35306802D01*
X76300371Y-35375813D01*
X76328301Y-35418968D01*
X76387684Y-35507995D01*
X76398636Y-35185168D01*
X76402272Y-35050279D01*
X76402232Y-34947953D01*
X76397639Y-34873451D01*
X76387617Y-34822034D01*
X76371290Y-34788963D01*
X76347781Y-34769498D01*
X76319970Y-34759745D01*
X76282295Y-34743245D01*
X76266975Y-34726222D01*
X76273734Y-34714973D01*
X76305872Y-34707806D01*
X76367694Y-34704147D01*
X76438600Y-34703358D01*
X76527124Y-34704744D01*
X76583190Y-34709340D01*
X76611664Y-34717802D01*
X76617847Y-34727546D01*
X76601771Y-34748622D01*
X76562521Y-34767924D01*
X76557059Y-34769630D01*
X76496271Y-34787525D01*
X76491297Y-35307724D01*
X76486323Y-35827922D01*
X76427613Y-35822083D01*
X76409136Y-35818477D01*
X76390539Y-35809180D01*
X76369179Y-35790715D01*
X76342412Y-35759606D01*
X76307593Y-35712377D01*
X76262079Y-35645551D01*
X76203225Y-35555651D01*
X76128388Y-35439202D01*
X76086325Y-35373345D01*
X76012510Y-35257920D01*
X75944910Y-35152727D01*
X75886225Y-35061924D01*
X75839150Y-34989668D01*
X75806385Y-34940117D01*
X75790627Y-34917427D01*
X75789957Y-34916656D01*
X75786018Y-34930418D01*
X75782517Y-34976549D01*
X75779625Y-35050012D01*
X75777511Y-35145768D01*
X75776344Y-35258780D01*
X75776168Y-35326073D01*
X75776168Y-35749279D01*
X75850371Y-35771511D01*
X75893832Y-35788533D01*
X75914774Y-35804855D01*
X75914731Y-35809669D01*
X75893315Y-35816776D01*
X75845677Y-35821751D01*
X75781590Y-35824579D01*
X75710830Y-35825243D01*
X75643169Y-35823727D01*
X75588382Y-35820015D01*
X75556243Y-35814092D01*
X75551720Y-35810268D01*
X75567092Y-35793340D01*
X75604857Y-35771673D01*
X75612508Y-35768184D01*
X75673296Y-35741428D01*
X75673296Y-34787525D01*
X75612508Y-34769630D01*
X75571433Y-34751141D01*
X75551965Y-34729791D01*
X75551720Y-34727546D01*
X75562386Y-34715206D01*
X75597628Y-34707566D01*
X75662318Y-34703921D01*
X75718602Y-34703358D01*
X75885484Y-34703358D01*
X76077201Y-35016649D01*
G37*
G36*
X88290120Y-30151948D02*
G01*
X88385063Y-30182062D01*
X88469653Y-30236812D01*
X88538423Y-30313458D01*
X88585904Y-30409263D01*
X88606627Y-30521488D01*
X88607095Y-30541867D01*
X88590192Y-30650436D01*
X88543413Y-30744423D01*
X88472656Y-30820187D01*
X88383819Y-30874084D01*
X88282798Y-30902473D01*
X88175492Y-30901710D01*
X88074032Y-30871099D01*
X87978906Y-30808821D01*
X87910818Y-30726284D01*
X87870534Y-30629855D01*
X87858818Y-30525904D01*
X87876435Y-30420799D01*
X87924149Y-30320907D01*
X87997869Y-30236799D01*
X88091054Y-30176578D01*
X88190294Y-30149207D01*
X88290120Y-30151948D01*
G37*
G36*
X88719319Y-34845196D02*
G01*
X88717406Y-34922176D01*
X88711229Y-34965820D01*
X88700135Y-34980023D01*
X88696799Y-34979528D01*
X88676839Y-34957759D01*
X88659639Y-34915491D01*
X88659161Y-34913682D01*
X88623384Y-34844084D01*
X88561090Y-34797786D01*
X88477632Y-34778506D01*
X88463983Y-34778174D01*
X88382027Y-34778174D01*
X88387013Y-35267493D01*
X88392000Y-35756812D01*
X88453883Y-35777639D01*
X88491041Y-35794591D01*
X88503536Y-35809764D01*
X88502202Y-35812031D01*
X88478949Y-35818012D01*
X88428914Y-35822197D01*
X88361010Y-35824622D01*
X88284149Y-35825323D01*
X88207245Y-35824337D01*
X88139211Y-35821698D01*
X88088959Y-35817444D01*
X88065403Y-35811609D01*
X88064680Y-35810268D01*
X88080052Y-35793340D01*
X88117817Y-35771673D01*
X88125468Y-35768184D01*
X88186256Y-35741428D01*
X88196240Y-34778174D01*
X88102404Y-34778174D01*
X88018360Y-34789664D01*
X87958862Y-34826915D01*
X87917908Y-34894094D01*
X87911725Y-34910595D01*
X87889977Y-34948998D01*
X87864190Y-34965211D01*
X87863916Y-34965213D01*
X87846971Y-34958463D01*
X87841890Y-34932488D01*
X87847005Y-34878706D01*
X87847042Y-34878435D01*
X87854373Y-34815509D01*
X87858559Y-34761271D01*
X87858936Y-34747507D01*
X87858936Y-34703358D01*
X88719319Y-34703358D01*
X88719319Y-34845196D01*
G37*
D12*
G04 #@! TO.C,J8*
X172720000Y-38735000D02*
X162560000Y-38735000D01*
X172720000Y-46355000D02*
X172720000Y-38735000D01*
X172720000Y-45085000D02*
X162560000Y-45085000D01*
X162560000Y-38735000D02*
X162560000Y-46355000D01*
X162560000Y-46355000D02*
X172720000Y-46355000D01*
G04 #@! TO.C,J2*
X200660000Y-46355000D02*
X210820000Y-46355000D01*
X210820000Y-45085000D02*
X200660000Y-45085000D01*
X210820000Y-46355000D02*
X210820000Y-38735000D01*
X200660000Y-38735000D02*
X200660000Y-46355000D01*
X210820000Y-38735000D02*
X200660000Y-38735000D01*
G04 #@! TO.C,J13*
X77470000Y-46355000D02*
X87630000Y-46355000D01*
X77470000Y-38735000D02*
X77470000Y-46355000D01*
X87630000Y-45085000D02*
X77470000Y-45085000D01*
X87630000Y-46355000D02*
X87630000Y-38735000D01*
X87630000Y-38735000D02*
X77470000Y-38735000D01*
G04 #@! TO.C,J3*
X105410000Y-29210000D02*
X95250000Y-29210000D01*
X105410000Y-36830000D02*
X105410000Y-29210000D01*
X95250000Y-36830000D02*
X105410000Y-36830000D01*
X105410000Y-35560000D02*
X95250000Y-35560000D01*
X95250000Y-29210000D02*
X95250000Y-36830000D01*
G04 #@! TO.C,J12*
X187960000Y-38735000D02*
X187960000Y-46355000D01*
X187960000Y-46355000D02*
X198120000Y-46355000D01*
X198120000Y-46355000D02*
X198120000Y-38735000D01*
X198120000Y-38735000D02*
X187960000Y-38735000D01*
X198120000Y-45085000D02*
X187960000Y-45085000D01*
G04 #@! TO.C,J7*
X150495000Y-46355000D02*
X160655000Y-46355000D01*
X160655000Y-45085000D02*
X150495000Y-45085000D01*
X160655000Y-38735000D02*
X150495000Y-38735000D01*
X150495000Y-38735000D02*
X150495000Y-46355000D01*
X160655000Y-46355000D02*
X160655000Y-38735000D01*
G04 #@! TO.C,G\u002A\u002A\u002A*
G36*
X119285850Y-31563018D02*
G01*
X119285801Y-31679513D01*
X119285859Y-31777003D01*
X119286331Y-31857175D01*
X119287524Y-31921715D01*
X119289746Y-31972310D01*
X119293304Y-32010648D01*
X119298505Y-32038414D01*
X119305656Y-32057295D01*
X119315064Y-32068978D01*
X119327037Y-32075149D01*
X119341882Y-32077496D01*
X119359906Y-32077705D01*
X119379553Y-32077459D01*
X119441043Y-32077459D01*
X119441043Y-32274037D01*
X119371206Y-32272903D01*
X119327152Y-32270967D01*
X119284365Y-32267106D01*
X119258188Y-32263232D01*
X119195168Y-32243386D01*
X119144302Y-32209942D01*
X119128619Y-32194777D01*
X119115347Y-32180564D01*
X119104191Y-32166996D01*
X119094967Y-32152225D01*
X119087492Y-32134407D01*
X119081581Y-32111695D01*
X119077051Y-32082243D01*
X119073718Y-32044206D01*
X119071399Y-31995737D01*
X119069910Y-31934990D01*
X119069066Y-31860119D01*
X119068685Y-31769279D01*
X119068583Y-31660623D01*
X119068579Y-31591518D01*
X119068579Y-31094566D01*
X119285850Y-31094566D01*
X119285850Y-31563018D01*
G37*
G36*
X121829013Y-31086987D02*
G01*
X121921497Y-31102230D01*
X122004828Y-31135146D01*
X122077248Y-31184576D01*
X122137000Y-31249359D01*
X122177114Y-31316884D01*
X122193715Y-31356226D01*
X122207045Y-31395657D01*
X122215696Y-31429953D01*
X122218259Y-31453890D01*
X122216068Y-31461348D01*
X122204004Y-31463662D01*
X122175753Y-31465523D01*
X122135818Y-31466711D01*
X122098604Y-31467031D01*
X121986823Y-31467031D01*
X121960023Y-31410382D01*
X121931853Y-31361835D01*
X121898930Y-31329909D01*
X121856477Y-31311506D01*
X121799715Y-31303527D01*
X121794857Y-31303268D01*
X121753631Y-31302321D01*
X121725572Y-31305340D01*
X121703311Y-31313741D01*
X121686422Y-31324134D01*
X121639117Y-31367812D01*
X121609058Y-31422922D01*
X121597933Y-31471016D01*
X121595951Y-31498802D01*
X121594581Y-31542884D01*
X121593880Y-31598872D01*
X121593905Y-31662378D01*
X121594668Y-31726563D01*
X121596031Y-31796311D01*
X121597562Y-31848726D01*
X121599658Y-31887164D01*
X121602717Y-31914982D01*
X121607136Y-31935538D01*
X121613312Y-31952189D01*
X121621642Y-31968291D01*
X121623704Y-31971921D01*
X121657399Y-32017174D01*
X121698815Y-32045803D01*
X121751593Y-32059775D01*
X121790443Y-32061939D01*
X121830481Y-32060660D01*
X121858136Y-32055289D01*
X121881639Y-32043524D01*
X121897862Y-32031916D01*
X121930590Y-31998599D01*
X121956948Y-31956745D01*
X121959134Y-31951977D01*
X121981043Y-31902060D01*
X122101512Y-31901816D01*
X122221980Y-31901573D01*
X122212197Y-31945544D01*
X122182629Y-32034591D01*
X122137210Y-32111567D01*
X122077655Y-32175338D01*
X122005678Y-32224770D01*
X121922995Y-32258728D01*
X121831320Y-32276080D01*
X121732367Y-32275690D01*
X121715706Y-32273872D01*
X121642805Y-32256329D01*
X121569197Y-32223511D01*
X121502358Y-32179146D01*
X121472566Y-32152558D01*
X121438877Y-32115487D01*
X121412041Y-32077089D01*
X121391351Y-32034528D01*
X121376095Y-31984969D01*
X121365564Y-31925577D01*
X121359048Y-31853515D01*
X121355839Y-31765949D01*
X121355174Y-31683454D01*
X121356437Y-31579285D01*
X121360616Y-31492960D01*
X121368441Y-31421751D01*
X121380638Y-31362925D01*
X121397938Y-31313751D01*
X121421066Y-31271500D01*
X121450753Y-31233439D01*
X121484032Y-31200188D01*
X121554157Y-31146275D01*
X121628703Y-31109970D01*
X121710981Y-31090186D01*
X121804303Y-31085837D01*
X121829013Y-31086987D01*
G37*
G36*
X122555259Y-33867357D02*
G01*
X122462143Y-33867357D01*
X122462143Y-33060351D01*
X122555259Y-33060351D01*
X122555259Y-33867357D01*
G37*
G36*
X126129882Y-33862184D02*
G01*
X126085816Y-33865370D01*
X126051885Y-33864427D01*
X126036710Y-33855394D01*
X126036543Y-33854987D01*
X126035437Y-33841877D01*
X126034555Y-33810444D01*
X126033909Y-33763057D01*
X126033516Y-33702084D01*
X126033390Y-33629894D01*
X126033545Y-33548855D01*
X126033997Y-33461337D01*
X126034051Y-33453471D01*
X126036766Y-33065524D01*
X126129882Y-33065524D01*
X126129882Y-33862184D01*
G37*
G36*
X123700958Y-33300247D02*
G01*
X123707214Y-33276559D01*
X123740736Y-33203189D01*
X123788130Y-33141804D01*
X123846814Y-33095572D01*
X123861226Y-33087625D01*
X123896304Y-33071414D01*
X123927721Y-33062272D01*
X123964247Y-33058319D01*
X124001208Y-33057628D01*
X124084761Y-33065970D01*
X124156171Y-33091040D01*
X124215568Y-33132909D01*
X124263080Y-33191643D01*
X124267313Y-33198669D01*
X124289466Y-33247512D01*
X124307731Y-33308548D01*
X124320034Y-33373356D01*
X124324312Y-33430228D01*
X124324465Y-33484546D01*
X123773220Y-33484546D01*
X123779375Y-33538864D01*
X123789792Y-33603345D01*
X123805748Y-33653062D01*
X123829368Y-33693656D01*
X123844711Y-33712291D01*
X123888146Y-33750117D01*
X123938652Y-33773282D01*
X124000140Y-33783139D01*
X124049012Y-33782995D01*
X124091597Y-33779836D01*
X124122234Y-33773621D01*
X124149666Y-33761443D01*
X124182638Y-33740395D01*
X124187775Y-33736864D01*
X124248947Y-33694652D01*
X124316221Y-33749558D01*
X124276844Y-33784132D01*
X124211885Y-33828187D01*
X124135768Y-33858300D01*
X124053601Y-33873326D01*
X123970491Y-33872114D01*
X123923793Y-33863501D01*
X123850262Y-33834760D01*
X123788773Y-33789411D01*
X123740138Y-33728231D01*
X123706913Y-33657098D01*
X123696595Y-33612905D01*
X123690013Y-33554463D01*
X123687163Y-33487873D01*
X123688041Y-33419239D01*
X123691386Y-33372281D01*
X123776053Y-33372281D01*
X123776345Y-33388678D01*
X123783600Y-33399887D01*
X123800106Y-33406880D01*
X123828151Y-33410629D01*
X123870023Y-33412105D01*
X123928010Y-33412279D01*
X124004088Y-33412122D01*
X124232061Y-33412122D01*
X124225097Y-33357805D01*
X124207640Y-33284343D01*
X124176406Y-33225524D01*
X124132125Y-33182106D01*
X124075526Y-33154841D01*
X124019470Y-33145006D01*
X123949482Y-33149503D01*
X123889445Y-33171683D01*
X123840937Y-33210355D01*
X123805535Y-33264331D01*
X123787206Y-33320040D01*
X123780436Y-33349725D01*
X123776053Y-33372281D01*
X123691386Y-33372281D01*
X123692641Y-33354663D01*
X123700958Y-33300247D01*
G37*
G36*
X123413996Y-31563018D02*
G01*
X123413947Y-31679513D01*
X123414005Y-31777003D01*
X123414477Y-31857175D01*
X123415671Y-31921715D01*
X123417893Y-31972310D01*
X123421451Y-32010648D01*
X123426651Y-32038414D01*
X123433802Y-32057295D01*
X123443211Y-32068978D01*
X123455184Y-32075149D01*
X123470028Y-32077496D01*
X123488052Y-32077705D01*
X123507699Y-32077459D01*
X123569190Y-32077459D01*
X123569190Y-32274037D01*
X123499353Y-32272903D01*
X123455298Y-32270967D01*
X123412511Y-32267106D01*
X123386335Y-32263232D01*
X123323315Y-32243386D01*
X123272448Y-32209942D01*
X123256765Y-32194777D01*
X123243493Y-32180564D01*
X123232337Y-32166996D01*
X123223114Y-32152225D01*
X123215638Y-32134407D01*
X123209727Y-32111695D01*
X123205198Y-32082243D01*
X123201865Y-32044206D01*
X123199546Y-31995737D01*
X123198056Y-31934990D01*
X123197213Y-31860119D01*
X123196832Y-31769279D01*
X123196730Y-31660623D01*
X123196726Y-31591518D01*
X123196726Y-31094566D01*
X123413996Y-31094566D01*
X123413996Y-31563018D01*
G37*
G36*
X120552347Y-31404424D02*
G01*
X120619568Y-31428997D01*
X120678915Y-31469396D01*
X120727273Y-31524688D01*
X120746740Y-31558404D01*
X120753304Y-31572388D01*
X120758565Y-31586427D01*
X120762693Y-31602941D01*
X120765860Y-31624349D01*
X120768237Y-31653070D01*
X120769995Y-31691523D01*
X120771305Y-31742128D01*
X120772338Y-31807304D01*
X120773265Y-31889471D01*
X120773772Y-31940728D01*
X120777009Y-32274750D01*
X120553263Y-32268864D01*
X120548090Y-31973996D01*
X120546087Y-31877573D01*
X120543762Y-31800412D01*
X120541031Y-31741082D01*
X120537812Y-31698154D01*
X120534022Y-31670198D01*
X120529677Y-31655957D01*
X120502466Y-31627425D01*
X120463047Y-31608893D01*
X120417879Y-31601428D01*
X120373420Y-31606096D01*
X120336134Y-31623961D01*
X120320152Y-31637682D01*
X120307459Y-31652544D01*
X120297678Y-31670991D01*
X120290432Y-31695462D01*
X120285347Y-31728400D01*
X120282046Y-31772246D01*
X120280154Y-31829441D01*
X120279293Y-31902427D01*
X120279088Y-31993644D01*
X120279088Y-32274037D01*
X120172177Y-32274037D01*
X120127043Y-32273407D01*
X120089907Y-32271707D01*
X120065455Y-32269221D01*
X120058368Y-32267139D01*
X120056885Y-32255634D01*
X120055511Y-32225637D01*
X120054282Y-32179350D01*
X120053231Y-32118974D01*
X120052395Y-32046710D01*
X120051808Y-31964758D01*
X120051505Y-31875321D01*
X120051471Y-31832598D01*
X120051471Y-31404953D01*
X120279088Y-31404953D01*
X120279088Y-31465041D01*
X120334577Y-31434986D01*
X120406737Y-31406486D01*
X120480365Y-31396609D01*
X120552347Y-31404424D01*
G37*
G36*
X123931308Y-31563018D02*
G01*
X123931259Y-31679513D01*
X123931317Y-31777003D01*
X123931789Y-31857175D01*
X123932982Y-31921715D01*
X123935204Y-31972310D01*
X123938762Y-32010648D01*
X123943963Y-32038414D01*
X123951114Y-32057295D01*
X123960522Y-32068978D01*
X123972495Y-32075149D01*
X123987340Y-32077496D01*
X124005364Y-32077705D01*
X124025011Y-32077459D01*
X124086502Y-32077459D01*
X124086502Y-32274037D01*
X124016664Y-32272903D01*
X123972610Y-32270967D01*
X123929823Y-32267106D01*
X123903646Y-32263232D01*
X123840627Y-32243386D01*
X123789760Y-32209942D01*
X123774077Y-32194777D01*
X123760805Y-32180564D01*
X123749649Y-32166996D01*
X123740425Y-32152225D01*
X123732950Y-32134407D01*
X123727039Y-32111695D01*
X123722509Y-32082243D01*
X123719176Y-32044206D01*
X123716857Y-31995737D01*
X123715368Y-31934990D01*
X123714525Y-31860119D01*
X123714144Y-31769279D01*
X123714041Y-31660623D01*
X123714037Y-31591518D01*
X123714037Y-31094566D01*
X123931308Y-31094566D01*
X123931308Y-31563018D01*
G37*
G36*
X126815646Y-33065212D02*
G01*
X126883511Y-33088391D01*
X126940578Y-33127942D01*
X126961770Y-33149631D01*
X126980373Y-33172098D01*
X126995270Y-33194415D01*
X127006869Y-33219137D01*
X127015577Y-33248817D01*
X127021801Y-33286008D01*
X127025949Y-33333265D01*
X127028426Y-33393140D01*
X127029640Y-33468187D01*
X127029999Y-33560960D01*
X127030005Y-33577662D01*
X127030005Y-33862184D01*
X126987006Y-33865317D01*
X126944008Y-33868451D01*
X126940058Y-33580796D01*
X126938625Y-33488917D01*
X126936836Y-33415218D01*
X126934258Y-33357185D01*
X126930461Y-33312306D01*
X126925014Y-33278067D01*
X126917484Y-33251956D01*
X126907442Y-33231459D01*
X126894456Y-33214065D01*
X126878094Y-33197259D01*
X126873499Y-33192923D01*
X126837949Y-33165968D01*
X126798205Y-33150259D01*
X126747821Y-33143675D01*
X126722211Y-33143120D01*
X126654318Y-33150314D01*
X126600012Y-33172408D01*
X126557765Y-33210177D01*
X126540999Y-33234644D01*
X126512693Y-33282795D01*
X126509515Y-33575076D01*
X126506338Y-33867357D01*
X126414404Y-33867357D01*
X126414404Y-33060351D01*
X126507520Y-33060351D01*
X126507520Y-33144174D01*
X126541702Y-33118101D01*
X126595046Y-33084696D01*
X126651735Y-33065349D01*
X126718586Y-33057934D01*
X126735228Y-33057693D01*
X126815646Y-33065212D01*
G37*
G36*
X125749621Y-33058531D02*
G01*
X125810014Y-33070913D01*
X125861634Y-33095662D01*
X125889208Y-33119418D01*
X125899161Y-33132485D01*
X125898791Y-33143762D01*
X125886199Y-33159395D01*
X125872738Y-33172694D01*
X125851050Y-33192348D01*
X125837982Y-33198671D01*
X125828120Y-33193540D01*
X125824471Y-33189441D01*
X125788249Y-33161611D01*
X125737067Y-33146159D01*
X125695442Y-33143120D01*
X125631750Y-33151376D01*
X125577800Y-33175152D01*
X125536877Y-33212958D01*
X125534607Y-33216059D01*
X125519761Y-33238982D01*
X125508036Y-33263138D01*
X125499075Y-33291227D01*
X125492523Y-33325953D01*
X125488021Y-33370016D01*
X125485213Y-33426120D01*
X125483743Y-33496967D01*
X125483254Y-33585258D01*
X125483243Y-33605172D01*
X125483243Y-33867357D01*
X125390127Y-33867357D01*
X125390127Y-33060351D01*
X125483243Y-33060351D01*
X125483243Y-33157338D01*
X125511695Y-33130091D01*
X125561491Y-33094296D01*
X125620790Y-33070352D01*
X125685023Y-33058387D01*
X125749621Y-33058531D01*
G37*
G36*
X118028220Y-33308637D02*
G01*
X118052517Y-33231635D01*
X118089468Y-33168709D01*
X118139572Y-33118742D01*
X118203331Y-33080617D01*
X118208712Y-33078188D01*
X118264566Y-33062158D01*
X118330060Y-33056785D01*
X118397155Y-33061977D01*
X118457808Y-33077645D01*
X118466306Y-33081087D01*
X118523191Y-33115543D01*
X118574105Y-33165195D01*
X118614009Y-33224565D01*
X118628864Y-33257808D01*
X118639412Y-33300101D01*
X118646640Y-33357125D01*
X118650523Y-33423180D01*
X118651036Y-33492570D01*
X118648151Y-33559595D01*
X118641844Y-33618558D01*
X118632088Y-33663760D01*
X118630721Y-33667884D01*
X118602461Y-33724533D01*
X118560679Y-33777759D01*
X118510952Y-33821433D01*
X118469198Y-33845376D01*
X118413316Y-33862903D01*
X118350976Y-33872176D01*
X118291325Y-33872253D01*
X118258826Y-33867051D01*
X118184798Y-33839229D01*
X118123764Y-33795786D01*
X118074675Y-33735828D01*
X118048605Y-33687417D01*
X118035496Y-33655603D01*
X118026624Y-33624392D01*
X118020860Y-33587692D01*
X118017072Y-33539410D01*
X118015581Y-33509347D01*
X118015813Y-33458387D01*
X118111552Y-33458387D01*
X118112819Y-33534737D01*
X118116557Y-33593452D01*
X118122671Y-33633287D01*
X118125374Y-33642589D01*
X118155860Y-33700373D01*
X118199719Y-33744716D01*
X118253567Y-33774318D01*
X118314022Y-33787881D01*
X118377701Y-33784103D01*
X118438744Y-33762949D01*
X118483900Y-33732971D01*
X118517882Y-33692943D01*
X118541435Y-33640862D01*
X118555306Y-33574727D01*
X118560241Y-33492534D01*
X118559387Y-33438986D01*
X118555311Y-33368324D01*
X118548810Y-33315825D01*
X118539558Y-33279065D01*
X118536949Y-33272448D01*
X118502488Y-33215213D01*
X118455814Y-33174579D01*
X118397473Y-33150858D01*
X118328012Y-33144363D01*
X118313607Y-33145102D01*
X118248328Y-33158829D01*
X118194426Y-33189828D01*
X118151689Y-33238237D01*
X118137983Y-33261904D01*
X118127394Y-33283854D01*
X118120079Y-33304400D01*
X118115437Y-33328005D01*
X118112869Y-33359132D01*
X118111775Y-33402245D01*
X118111552Y-33458387D01*
X118015813Y-33458387D01*
X118016074Y-33400836D01*
X118028220Y-33308637D01*
G37*
G36*
X121555024Y-33417233D02*
G01*
X121567728Y-33315530D01*
X121591533Y-33231149D01*
X121626710Y-33163777D01*
X121673529Y-33113103D01*
X121732263Y-33078816D01*
X121803182Y-33060605D01*
X121868497Y-33057391D01*
X121944254Y-33067614D01*
X122010978Y-33095180D01*
X122044523Y-33117623D01*
X122078078Y-33143216D01*
X122081292Y-33104370D01*
X122084565Y-33079983D01*
X122093131Y-33068220D01*
X122113177Y-33063612D01*
X122128870Y-33062323D01*
X122173234Y-33059122D01*
X122170255Y-33538250D01*
X122167275Y-34017377D01*
X122142591Y-34071999D01*
X122107338Y-34128857D01*
X122058264Y-34179169D01*
X122001320Y-34217540D01*
X121965318Y-34232759D01*
X121909164Y-34244661D01*
X121844323Y-34248891D01*
X121780341Y-34245344D01*
X121730915Y-34235274D01*
X121680646Y-34214891D01*
X121634264Y-34187886D01*
X121600218Y-34159245D01*
X121590303Y-34145853D01*
X121591742Y-34134258D01*
X121606348Y-34117649D01*
X121613013Y-34111202D01*
X121643153Y-34082325D01*
X121680163Y-34110554D01*
X121744356Y-34147148D01*
X121814534Y-34165078D01*
X121886931Y-34163740D01*
X121935476Y-34151528D01*
X121985674Y-34127833D01*
X122023461Y-34095202D01*
X122050225Y-34051128D01*
X122067353Y-33993105D01*
X122076231Y-33918626D01*
X122077409Y-33894982D01*
X122081678Y-33782933D01*
X122034179Y-33819190D01*
X121974248Y-33853155D01*
X121906997Y-33871616D01*
X121836840Y-33874912D01*
X121768188Y-33863381D01*
X121705456Y-33837361D01*
X121653057Y-33797191D01*
X121645884Y-33789425D01*
X121603456Y-33725959D01*
X121573664Y-33647309D01*
X121556868Y-33554948D01*
X121555769Y-33521539D01*
X121647842Y-33521539D01*
X121659234Y-33605968D01*
X121682361Y-33675161D01*
X121716709Y-33728518D01*
X121761762Y-33765442D01*
X121817007Y-33785337D01*
X121881929Y-33787604D01*
X121950885Y-33773262D01*
X121991345Y-33750904D01*
X122027688Y-33712020D01*
X122053900Y-33665605D01*
X122063710Y-33631038D01*
X122071202Y-33581485D01*
X122076137Y-33522548D01*
X122078276Y-33459828D01*
X122077379Y-33398929D01*
X122073209Y-33345451D01*
X122068748Y-33317883D01*
X122046477Y-33249721D01*
X122012134Y-33198357D01*
X121965671Y-33163750D01*
X121907038Y-33145857D01*
X121867925Y-33143120D01*
X121804413Y-33149262D01*
X121753067Y-33168490D01*
X121712940Y-33202009D01*
X121683088Y-33251026D01*
X121662563Y-33316746D01*
X121650421Y-33400374D01*
X121648701Y-33422469D01*
X121647842Y-33521539D01*
X121555769Y-33521539D01*
X121553427Y-33450348D01*
X121555024Y-33417233D01*
G37*
G36*
X122331188Y-31738394D02*
G01*
X122333719Y-31696936D01*
X122337774Y-31666022D01*
X122344281Y-31640578D01*
X122354166Y-31615531D01*
X122367117Y-31588325D01*
X122410632Y-31518417D01*
X122464899Y-31465220D01*
X122531733Y-31427413D01*
X122612951Y-31403677D01*
X122623970Y-31401674D01*
X122708558Y-31396324D01*
X122790048Y-31408451D01*
X122865407Y-31436572D01*
X122931600Y-31479206D01*
X122985595Y-31534872D01*
X123021714Y-31595926D01*
X123037051Y-31644813D01*
X123047879Y-31708422D01*
X123054094Y-31781256D01*
X123055597Y-31857819D01*
X123052287Y-31932616D01*
X123044062Y-32000150D01*
X123030821Y-32054925D01*
X123030188Y-32056766D01*
X122995175Y-32127359D01*
X122944861Y-32185961D01*
X122881632Y-32231325D01*
X122807872Y-32262205D01*
X122725966Y-32277354D01*
X122638299Y-32275526D01*
X122617460Y-32272554D01*
X122536573Y-32249936D01*
X122466672Y-32210236D01*
X122432124Y-32180711D01*
X122394629Y-32138240D01*
X122366372Y-32091048D01*
X122346533Y-32036061D01*
X122334290Y-31970202D01*
X122328823Y-31890398D01*
X122329030Y-31844668D01*
X122550737Y-31844668D01*
X122553033Y-31914314D01*
X122559927Y-31966970D01*
X122572520Y-32006041D01*
X122591909Y-32034932D01*
X122619193Y-32057048D01*
X122619301Y-32057115D01*
X122657464Y-32071672D01*
X122701692Y-32074909D01*
X122743776Y-32067176D01*
X122773694Y-32050539D01*
X122795710Y-32027711D01*
X122811169Y-32002914D01*
X122821160Y-31972019D01*
X122826772Y-31930900D01*
X122829094Y-31875429D01*
X122829363Y-31839495D01*
X122827620Y-31766797D01*
X122821700Y-31711587D01*
X122810705Y-31670921D01*
X122793736Y-31641857D01*
X122769894Y-31621451D01*
X122761302Y-31616595D01*
X122716289Y-31602700D01*
X122668244Y-31602919D01*
X122624998Y-31616681D01*
X122608475Y-31627736D01*
X122584595Y-31652951D01*
X122567858Y-31684289D01*
X122557292Y-31725403D01*
X122551923Y-31779947D01*
X122550737Y-31844668D01*
X122329030Y-31844668D01*
X122329253Y-31795469D01*
X122331188Y-31738394D01*
G37*
G36*
X114121625Y-30901997D02*
G01*
X114127860Y-30902167D01*
X114198786Y-30904363D01*
X114263935Y-30906812D01*
X114320083Y-30909360D01*
X114364005Y-30911849D01*
X114392475Y-30914125D01*
X114400981Y-30915367D01*
X114408553Y-30919393D01*
X114403654Y-30925604D01*
X114384254Y-30935085D01*
X114348324Y-30948921D01*
X114318003Y-30959760D01*
X114167029Y-31021003D01*
X114009229Y-31100701D01*
X113845704Y-31198195D01*
X113677552Y-31312825D01*
X113505874Y-31443931D01*
X113491960Y-31455161D01*
X113438761Y-31500492D01*
X113375015Y-31558424D01*
X113303729Y-31625924D01*
X113227910Y-31699957D01*
X113150567Y-31777491D01*
X113074705Y-31855491D01*
X113003334Y-31930925D01*
X112939459Y-32000758D01*
X112886090Y-32061957D01*
X112864741Y-32087805D01*
X112719258Y-32276969D01*
X112589384Y-32463934D01*
X112475609Y-32647749D01*
X112378422Y-32827465D01*
X112298312Y-33002132D01*
X112235767Y-33170799D01*
X112191278Y-33332516D01*
X112172372Y-33432815D01*
X112159952Y-33558109D01*
X112162554Y-33671125D01*
X112180066Y-33771283D01*
X112212378Y-33858000D01*
X112259381Y-33930698D01*
X112269092Y-33941917D01*
X112304551Y-33981165D01*
X112264549Y-33980404D01*
X112240352Y-33977911D01*
X112200728Y-33971565D01*
X112150398Y-33962215D01*
X112094086Y-33950708D01*
X112069353Y-33945340D01*
X111833896Y-33887565D01*
X111613934Y-33821884D01*
X111409885Y-33748579D01*
X111222168Y-33667937D01*
X111051201Y-33580241D01*
X110897405Y-33485777D01*
X110761197Y-33384829D01*
X110642997Y-33277681D01*
X110543223Y-33164619D01*
X110462295Y-33045928D01*
X110400632Y-32921890D01*
X110358651Y-32792792D01*
X110355868Y-32781002D01*
X110348813Y-32732736D01*
X110345554Y-32671417D01*
X110345957Y-32604308D01*
X110349885Y-32538672D01*
X110357206Y-32481771D01*
X110361828Y-32459917D01*
X110397541Y-32344793D01*
X110445677Y-32236475D01*
X110507993Y-32132142D01*
X110586242Y-32028970D01*
X110682181Y-31924139D01*
X110715734Y-31890915D01*
X110815946Y-31798937D01*
X110919287Y-31715100D01*
X111029577Y-31636781D01*
X111150638Y-31561357D01*
X111286292Y-31486204D01*
X111362238Y-31447180D01*
X111590325Y-31341939D01*
X111834577Y-31246880D01*
X112092919Y-31162411D01*
X112363278Y-31088941D01*
X112643580Y-31026880D01*
X112931750Y-30976635D01*
X113225713Y-30938615D01*
X113523396Y-30913230D01*
X113822725Y-30900888D01*
X114121625Y-30901997D01*
G37*
G36*
X119823854Y-32274037D02*
G01*
X119606583Y-32274037D01*
X119606583Y-31404953D01*
X119823854Y-31404953D01*
X119823854Y-32274037D01*
G37*
G36*
X119834200Y-31270452D02*
G01*
X119606583Y-31270452D01*
X119606583Y-31084220D01*
X119834200Y-31084220D01*
X119834200Y-31270452D01*
G37*
G36*
X115015726Y-30986129D02*
G01*
X115043907Y-30990265D01*
X115085386Y-30997595D01*
X115136721Y-31007426D01*
X115194473Y-31019066D01*
X115255200Y-31031821D01*
X115315461Y-31044998D01*
X115371817Y-31057906D01*
X115419279Y-31069457D01*
X115624285Y-31127353D01*
X115820619Y-31194682D01*
X116006290Y-31270495D01*
X116179308Y-31353846D01*
X116337680Y-31443787D01*
X116479415Y-31539369D01*
X116585527Y-31624521D01*
X116696217Y-31731423D01*
X116787006Y-31841111D01*
X116858613Y-31954680D01*
X116911762Y-32073226D01*
X116938502Y-32160277D01*
X116953614Y-32248973D01*
X116957838Y-32346552D01*
X116951462Y-32445243D01*
X116934772Y-32537277D01*
X116923116Y-32577003D01*
X116868427Y-32709907D01*
X116795942Y-32837280D01*
X116771057Y-32874118D01*
X116734451Y-32921357D01*
X116685386Y-32977360D01*
X116627774Y-33038237D01*
X116565525Y-33100097D01*
X116502551Y-33159048D01*
X116442764Y-33211199D01*
X116391865Y-33251352D01*
X116208953Y-33374404D01*
X116008456Y-33488751D01*
X115791725Y-33594033D01*
X115560112Y-33689889D01*
X115314967Y-33775959D01*
X115057641Y-33851882D01*
X114789486Y-33917297D01*
X114511853Y-33971844D01*
X114226093Y-34015161D01*
X113933556Y-34046888D01*
X113635594Y-34066664D01*
X113333558Y-34074128D01*
X113310039Y-34074182D01*
X113257337Y-34073910D01*
X113212459Y-34073095D01*
X113179251Y-34071852D01*
X113161560Y-34070296D01*
X113159754Y-34069706D01*
X113148192Y-34067731D01*
X113120268Y-34065833D01*
X113080314Y-34064241D01*
X113037900Y-34063264D01*
X112974332Y-34061882D01*
X112930631Y-34059665D01*
X112905974Y-34055986D01*
X112899538Y-34050216D01*
X112910500Y-34041728D01*
X112938035Y-34029894D01*
X112975916Y-34016001D01*
X113121636Y-33956622D01*
X113274682Y-33879774D01*
X113433250Y-33786562D01*
X113595541Y-33678090D01*
X113759753Y-33555461D01*
X113859251Y-33474881D01*
X113915879Y-33425426D01*
X113982524Y-33363566D01*
X114055841Y-33292699D01*
X114132488Y-33216221D01*
X114209121Y-33137530D01*
X114282397Y-33060023D01*
X114348972Y-32987098D01*
X114405504Y-32922150D01*
X114418112Y-32907029D01*
X114561772Y-32724193D01*
X114691380Y-32541432D01*
X114806199Y-32360108D01*
X114905492Y-32181580D01*
X114988524Y-32007209D01*
X115054558Y-31838356D01*
X115102858Y-31676380D01*
X115116381Y-31617051D01*
X115137180Y-31485804D01*
X115142967Y-31365744D01*
X115133847Y-31257625D01*
X115109928Y-31162201D01*
X115071313Y-31080224D01*
X115033851Y-31029241D01*
X115015190Y-31006240D01*
X115004937Y-30990095D01*
X115004284Y-30985881D01*
X115015726Y-30986129D01*
G37*
G36*
X123219874Y-33061631D02*
G01*
X123282233Y-33078152D01*
X123336440Y-33108479D01*
X123361657Y-33129019D01*
X123385109Y-33150728D01*
X123403986Y-33170926D01*
X123418814Y-33192113D01*
X123430120Y-33216794D01*
X123438431Y-33247470D01*
X123444273Y-33286645D01*
X123448171Y-33336820D01*
X123450654Y-33400499D01*
X123452248Y-33480185D01*
X123453323Y-33564729D01*
X123456783Y-33867357D01*
X123363464Y-33867357D01*
X123360278Y-33579932D01*
X123359295Y-33495275D01*
X123358287Y-33428635D01*
X123357024Y-33377339D01*
X123355272Y-33338711D01*
X123352800Y-33310077D01*
X123349377Y-33288764D01*
X123344771Y-33272096D01*
X123338749Y-33257400D01*
X123331081Y-33242002D01*
X123330973Y-33241792D01*
X123296989Y-33194036D01*
X123251774Y-33162387D01*
X123193763Y-33145996D01*
X123149214Y-33143120D01*
X123093672Y-33146141D01*
X123051404Y-33156768D01*
X123015669Y-33177345D01*
X122992104Y-33197791D01*
X122974184Y-33216977D01*
X122959885Y-33237873D01*
X122948810Y-33262967D01*
X122940560Y-33294747D01*
X122934737Y-33335702D01*
X122930945Y-33388320D01*
X122928783Y-33455089D01*
X122927854Y-33538497D01*
X122927724Y-33600233D01*
X122927724Y-33867357D01*
X122834607Y-33867357D01*
X122834607Y-33060351D01*
X122927724Y-33060351D01*
X122927724Y-33145576D01*
X122963939Y-33117953D01*
X123021454Y-33082457D01*
X123082551Y-33063043D01*
X123144564Y-33057333D01*
X123219874Y-33061631D01*
G37*
G36*
X124185228Y-31679106D02*
G01*
X124185329Y-31678716D01*
X124216959Y-31593410D01*
X124263533Y-31521337D01*
X124324066Y-31463735D01*
X124385647Y-31427126D01*
X124418997Y-31413302D01*
X124450598Y-31405080D01*
X124488004Y-31401104D01*
X124536563Y-31400021D01*
X124614945Y-31404082D01*
X124679314Y-31417835D01*
X124734733Y-31442962D01*
X124786266Y-31481143D01*
X124789421Y-31483954D01*
X124845042Y-31547780D01*
X124885684Y-31625468D01*
X124910945Y-31716191D01*
X124914941Y-31741786D01*
X124919898Y-31787336D01*
X124922731Y-31830537D01*
X124922908Y-31862909D01*
X124922704Y-31865941D01*
X124919373Y-31906746D01*
X124652958Y-31909507D01*
X124568468Y-31910336D01*
X124502708Y-31911324D01*
X124453718Y-31913160D01*
X124419544Y-31916532D01*
X124398226Y-31922130D01*
X124387809Y-31930642D01*
X124386335Y-31942756D01*
X124391847Y-31959163D01*
X124402388Y-31980550D01*
X124409821Y-31995083D01*
X124436816Y-32034592D01*
X124474855Y-32062247D01*
X124479264Y-32064526D01*
X124536760Y-32084677D01*
X124595870Y-32087026D01*
X124658740Y-32071260D01*
X124727515Y-32037063D01*
X124746070Y-32025476D01*
X124758118Y-32019125D01*
X124769533Y-32019215D01*
X124784209Y-32027932D01*
X124806039Y-32047459D01*
X124833448Y-32074510D01*
X124863953Y-32105369D01*
X124881767Y-32125452D01*
X124888884Y-32138567D01*
X124887296Y-32148519D01*
X124878996Y-32159113D01*
X124878209Y-32159984D01*
X124821692Y-32207740D01*
X124750700Y-32243850D01*
X124668481Y-32267349D01*
X124578285Y-32277270D01*
X124494819Y-32273994D01*
X124430790Y-32260610D01*
X124365502Y-32235982D01*
X124307910Y-32203808D01*
X124287391Y-32188279D01*
X124257751Y-32155067D01*
X124228274Y-32108218D01*
X124202539Y-32054503D01*
X124184124Y-32000695D01*
X124180742Y-31986420D01*
X124173098Y-31931171D01*
X124169840Y-31865031D01*
X124170853Y-31795784D01*
X124175662Y-31735701D01*
X124386542Y-31735701D01*
X124387495Y-31743779D01*
X124392403Y-31749470D01*
X124404344Y-31753192D01*
X124426394Y-31755361D01*
X124461629Y-31756394D01*
X124513126Y-31756708D01*
X124541736Y-31756725D01*
X124601308Y-31756643D01*
X124643273Y-31756082D01*
X124670715Y-31754573D01*
X124686718Y-31751644D01*
X124694367Y-31746825D01*
X124696747Y-31739645D01*
X124696929Y-31733052D01*
X124692340Y-31709898D01*
X124680721Y-31678417D01*
X124673650Y-31663297D01*
X124642044Y-31621365D01*
X124599919Y-31594591D01*
X124551711Y-31583833D01*
X124501856Y-31589948D01*
X124454792Y-31613796D01*
X124447517Y-31619566D01*
X124416479Y-31654499D01*
X124394676Y-31696148D01*
X124386542Y-31735701D01*
X124175662Y-31735701D01*
X124176021Y-31731213D01*
X124185228Y-31679106D01*
G37*
G36*
X120494367Y-32731858D02*
G01*
X120491186Y-32775829D01*
X120183385Y-32778570D01*
X119875585Y-32781310D01*
X119875585Y-33225890D01*
X120404433Y-33225890D01*
X120401251Y-33269862D01*
X120398070Y-33313833D01*
X120136827Y-33316597D01*
X119875585Y-33319362D01*
X119875585Y-33774241D01*
X120497549Y-33774241D01*
X120494367Y-33818212D01*
X120491186Y-33862184D01*
X120131654Y-33864904D01*
X119772123Y-33867625D01*
X119772123Y-32687886D01*
X120497549Y-32687886D01*
X120494367Y-32731858D01*
G37*
G36*
X124533839Y-33303638D02*
G01*
X124543178Y-33270215D01*
X124558232Y-33228697D01*
X124576961Y-33195421D01*
X124604557Y-33162117D01*
X124622890Y-33143282D01*
X124672955Y-33100512D01*
X124723863Y-33073702D01*
X124782055Y-33060261D01*
X124836603Y-33057395D01*
X124905187Y-33062267D01*
X124961429Y-33078574D01*
X125011667Y-33108849D01*
X125049468Y-33142494D01*
X125088722Y-33186977D01*
X125116408Y-33232710D01*
X125134638Y-33285015D01*
X125145524Y-33349213D01*
X125149307Y-33394017D01*
X125155034Y-33484546D01*
X124603100Y-33484546D01*
X124610161Y-33538864D01*
X124627396Y-33620868D01*
X124655840Y-33685668D01*
X124696009Y-33733772D01*
X124748415Y-33765689D01*
X124813571Y-33781927D01*
X124857976Y-33784360D01*
X124935560Y-33775769D01*
X125002023Y-33750874D01*
X125050163Y-33715868D01*
X125077491Y-33689753D01*
X125110940Y-33719640D01*
X125144389Y-33749526D01*
X125095971Y-33792145D01*
X125060584Y-33818813D01*
X125021682Y-33841548D01*
X124999326Y-33851197D01*
X124947205Y-33863978D01*
X124886238Y-33871476D01*
X124825688Y-33873022D01*
X124774815Y-33867945D01*
X124772909Y-33867552D01*
X124700655Y-33842745D01*
X124636412Y-33802240D01*
X124614881Y-33782830D01*
X124573079Y-33727361D01*
X124541934Y-33657410D01*
X124521942Y-33576519D01*
X124513599Y-33488231D01*
X124516738Y-33412122D01*
X124605114Y-33412122D01*
X125061942Y-33412122D01*
X125056205Y-33356538D01*
X125040349Y-33285553D01*
X125009686Y-33227190D01*
X124965800Y-33182989D01*
X124910276Y-33154492D01*
X124844697Y-33143239D01*
X124836785Y-33143120D01*
X124768424Y-33151289D01*
X124712191Y-33175933D01*
X124667880Y-33217260D01*
X124635287Y-33275481D01*
X124614207Y-33350803D01*
X124610572Y-33373324D01*
X124605114Y-33412122D01*
X124516738Y-33412122D01*
X124517399Y-33396090D01*
X124533839Y-33303638D01*
G37*
G36*
X121115827Y-33066069D02*
G01*
X121172916Y-33085222D01*
X121174459Y-33085969D01*
X121211822Y-33108275D01*
X121246460Y-33135529D01*
X121262066Y-33151538D01*
X121278989Y-33173620D01*
X121292550Y-33196272D01*
X121303114Y-33222016D01*
X121311049Y-33253379D01*
X121316718Y-33292885D01*
X121320487Y-33343057D01*
X121322723Y-33406421D01*
X121323792Y-33485501D01*
X121324058Y-33579540D01*
X121324058Y-33867357D01*
X121230941Y-33867357D01*
X121230941Y-33589552D01*
X121230730Y-33499179D01*
X121229889Y-33426850D01*
X121228111Y-33369919D01*
X121225088Y-33325738D01*
X121220513Y-33291662D01*
X121214077Y-33265045D01*
X121205473Y-33243240D01*
X121194393Y-33223601D01*
X121187103Y-33212723D01*
X121151830Y-33178991D01*
X121103734Y-33156087D01*
X121047810Y-33144325D01*
X120989057Y-33144016D01*
X120932471Y-33155473D01*
X120883048Y-33179008D01*
X120865556Y-33192635D01*
X120850738Y-33206898D01*
X120838902Y-33221571D01*
X120829664Y-33239111D01*
X120822639Y-33261973D01*
X120817439Y-33292616D01*
X120813681Y-33333496D01*
X120810978Y-33387069D01*
X120808944Y-33455791D01*
X120807194Y-33542121D01*
X120806746Y-33567316D01*
X120801573Y-33862184D01*
X120757507Y-33865370D01*
X120723576Y-33864427D01*
X120708401Y-33855394D01*
X120708234Y-33854987D01*
X120707128Y-33841877D01*
X120706245Y-33810444D01*
X120705600Y-33763057D01*
X120705207Y-33702084D01*
X120705080Y-33629894D01*
X120705236Y-33548855D01*
X120705688Y-33461337D01*
X120705742Y-33453471D01*
X120708457Y-33065524D01*
X120755015Y-33065524D01*
X120783741Y-33066389D01*
X120798039Y-33072212D01*
X120804173Y-33087839D01*
X120806746Y-33105530D01*
X120810603Y-33130736D01*
X120815505Y-33138241D01*
X120825025Y-33130881D01*
X120830763Y-33124592D01*
X120870458Y-33094256D01*
X120923992Y-33072654D01*
X120986185Y-33060368D01*
X121051857Y-33057979D01*
X121115827Y-33066069D01*
G37*
G36*
X122565605Y-32801695D02*
G01*
X122451797Y-32801695D01*
X122451797Y-32687886D01*
X122565605Y-32687886D01*
X122565605Y-32801695D01*
G37*
G36*
X119182387Y-32729271D02*
G01*
X119181364Y-32755761D01*
X119174460Y-32767532D01*
X119155926Y-32770557D01*
X119142546Y-32770656D01*
X119088253Y-32776958D01*
X119046919Y-32795067D01*
X119021706Y-32822995D01*
X119012976Y-32851545D01*
X119007977Y-32897124D01*
X119006502Y-32956374D01*
X119006502Y-33060351D01*
X119182387Y-33060351D01*
X119182387Y-33132774D01*
X119006502Y-33132774D01*
X119006502Y-33867357D01*
X118913385Y-33867357D01*
X118913385Y-33132774D01*
X118798266Y-33132774D01*
X118801508Y-33099149D01*
X118804534Y-33079519D01*
X118812390Y-33069149D01*
X118830602Y-33064510D01*
X118859068Y-33062396D01*
X118913385Y-33059269D01*
X118913385Y-32950842D01*
X118917809Y-32867802D01*
X118931817Y-32802286D01*
X118956510Y-32752944D01*
X118992992Y-32718426D01*
X119042365Y-32697381D01*
X119105733Y-32688459D01*
X119128070Y-32687944D01*
X119182387Y-32687886D01*
X119182387Y-32729271D01*
G37*
G36*
X126145402Y-32801695D02*
G01*
X126031593Y-32801695D01*
X126031593Y-32687886D01*
X126145402Y-32687886D01*
X126145402Y-32801695D01*
G37*
G36*
X117998798Y-31533134D02*
G01*
X118003886Y-31466821D01*
X118010518Y-31412290D01*
X118018547Y-31373971D01*
X118018564Y-31373915D01*
X118053602Y-31292160D01*
X118104682Y-31221836D01*
X118169710Y-31164412D01*
X118246591Y-31121358D01*
X118333233Y-31094143D01*
X118427539Y-31084236D01*
X118431498Y-31084220D01*
X118528252Y-31093023D01*
X118614753Y-31119653D01*
X118691797Y-31164443D01*
X118750961Y-31217591D01*
X118798499Y-31276407D01*
X118830035Y-31336178D01*
X118849315Y-31404033D01*
X118849492Y-31404953D01*
X118858531Y-31467319D01*
X118864514Y-31541195D01*
X118867546Y-31622393D01*
X118867732Y-31706724D01*
X118865176Y-31790000D01*
X118859984Y-31868031D01*
X118852261Y-31936628D01*
X118842110Y-31991603D01*
X118834152Y-32018338D01*
X118794607Y-32095445D01*
X118739638Y-32160382D01*
X118671295Y-32212058D01*
X118591632Y-32249383D01*
X118502700Y-32271266D01*
X118406550Y-32276616D01*
X118355729Y-32272668D01*
X118273203Y-32252812D01*
X118195753Y-32215479D01*
X118127290Y-32163424D01*
X118071723Y-32099405D01*
X118044774Y-32053505D01*
X118025942Y-32008097D01*
X118012583Y-31957994D01*
X118002768Y-31895711D01*
X118001644Y-31886266D01*
X117996815Y-31827539D01*
X117994263Y-31758430D01*
X117993840Y-31683371D01*
X117994956Y-31628614D01*
X118232480Y-31628614D01*
X118233208Y-31723397D01*
X118234022Y-31746379D01*
X118237843Y-31821534D01*
X118242937Y-31879411D01*
X118250046Y-31923417D01*
X118259915Y-31956960D01*
X118273286Y-31983447D01*
X118290664Y-32006020D01*
X118333955Y-32039591D01*
X118387183Y-32058752D01*
X118444902Y-32062937D01*
X118501667Y-32051575D01*
X118540937Y-32032118D01*
X118569122Y-32009302D01*
X118590099Y-31981146D01*
X118605161Y-31944117D01*
X118615599Y-31894687D01*
X118622704Y-31829325D01*
X118624541Y-31803608D01*
X118627362Y-31736475D01*
X118627676Y-31665819D01*
X118625728Y-31595633D01*
X118621764Y-31529909D01*
X118616027Y-31472640D01*
X118608763Y-31427818D01*
X118600217Y-31399436D01*
X118599680Y-31398365D01*
X118564768Y-31349591D01*
X118519162Y-31318054D01*
X118461626Y-31303044D01*
X118431788Y-31301491D01*
X118369672Y-31309771D01*
X118317086Y-31333501D01*
X118277422Y-31371017D01*
X118271148Y-31380335D01*
X118255739Y-31417894D01*
X118243993Y-31473421D01*
X118236158Y-31544475D01*
X118232480Y-31628614D01*
X117994956Y-31628614D01*
X117995401Y-31606794D01*
X117998798Y-31533134D01*
G37*
G36*
X127269682Y-33348937D02*
G01*
X127272041Y-33312467D01*
X127276025Y-33284635D01*
X127282024Y-33261423D01*
X127289922Y-33240044D01*
X127327040Y-33169159D01*
X127373699Y-33116386D01*
X127431164Y-33080874D01*
X127500701Y-33061769D01*
X127560550Y-33057693D01*
X127630755Y-33062509D01*
X127687146Y-33077934D01*
X127734568Y-33105629D01*
X127756827Y-33124982D01*
X127790453Y-33157526D01*
X127790453Y-33060351D01*
X127873990Y-33060351D01*
X127871020Y-33549210D01*
X127868049Y-34038070D01*
X127835953Y-34094974D01*
X127789369Y-34158073D01*
X127730151Y-34204872D01*
X127658634Y-34235193D01*
X127575153Y-34248860D01*
X127542852Y-34249673D01*
X127498284Y-34246776D01*
X127454076Y-34239809D01*
X127428335Y-34232994D01*
X127392635Y-34217118D01*
X127352710Y-34194386D01*
X127331991Y-34180405D01*
X127282206Y-34144002D01*
X127310648Y-34114315D01*
X127330845Y-34095404D01*
X127345788Y-34085204D01*
X127348107Y-34084628D01*
X127361003Y-34090528D01*
X127383311Y-34105469D01*
X127395316Y-34114537D01*
X127454384Y-34148246D01*
X127520634Y-34164789D01*
X127589265Y-34163867D01*
X127655476Y-34145185D01*
X127681054Y-34132180D01*
X127721599Y-34100686D01*
X127751664Y-34058621D01*
X127772307Y-34003499D01*
X127784583Y-33932833D01*
X127788494Y-33879258D01*
X127793390Y-33769179D01*
X127751889Y-33806673D01*
X127707472Y-33839827D01*
X127659198Y-33860317D01*
X127601370Y-33869991D01*
X127552489Y-33871321D01*
X127474635Y-33862950D01*
X127410085Y-33839183D01*
X127357363Y-33799005D01*
X127314994Y-33741399D01*
X127291228Y-33691471D01*
X127282546Y-33667843D01*
X127276359Y-33644307D01*
X127272253Y-33616766D01*
X127269815Y-33581120D01*
X127268634Y-33533272D01*
X127268295Y-33469124D01*
X127268292Y-33463854D01*
X127268351Y-33449401D01*
X127361313Y-33449401D01*
X127361328Y-33463854D01*
X127362596Y-33540893D01*
X127366731Y-33600848D01*
X127374624Y-33647232D01*
X127387168Y-33683559D01*
X127405253Y-33713342D01*
X127429772Y-33740094D01*
X127431963Y-33742139D01*
X127476777Y-33770447D01*
X127532049Y-33785345D01*
X127592137Y-33786430D01*
X127651403Y-33773294D01*
X127681260Y-33760049D01*
X127718659Y-33728716D01*
X127748955Y-33680445D01*
X127771311Y-33618016D01*
X127784889Y-33544214D01*
X127788850Y-33461821D01*
X127786396Y-33411014D01*
X127777348Y-33336274D01*
X127763332Y-33278279D01*
X127743060Y-33233408D01*
X127715243Y-33198045D01*
X127708241Y-33191414D01*
X127669099Y-33163216D01*
X127625544Y-33147742D01*
X127571942Y-33143472D01*
X127537237Y-33145255D01*
X127479315Y-33158650D01*
X127432281Y-33188934D01*
X127394690Y-33237144D01*
X127385753Y-33253808D01*
X127376273Y-33274351D01*
X127369591Y-33294255D01*
X127365230Y-33317617D01*
X127362714Y-33348531D01*
X127361567Y-33391094D01*
X127361313Y-33449401D01*
X127268351Y-33449401D01*
X127268562Y-33398060D01*
X127269682Y-33348937D01*
G37*
G36*
X125972886Y-31636611D02*
G01*
X126010362Y-31560775D01*
X126060485Y-31497740D01*
X126122238Y-31448818D01*
X126194603Y-31415320D01*
X126276562Y-31398558D01*
X126357145Y-31398815D01*
X126444029Y-31415979D01*
X126519053Y-31449714D01*
X126581571Y-31499199D01*
X126630937Y-31563612D01*
X126666504Y-31642135D01*
X126687626Y-31733946D01*
X126693752Y-31826150D01*
X126693752Y-31911919D01*
X126157927Y-31911919D01*
X126165783Y-31946749D01*
X126177043Y-31981056D01*
X126192919Y-32014219D01*
X126225112Y-32049641D01*
X126270105Y-32073590D01*
X126323265Y-32085740D01*
X126379955Y-32085761D01*
X126435541Y-32073327D01*
X126485388Y-32048108D01*
X126500838Y-32036010D01*
X126534976Y-32006037D01*
X126667028Y-32139273D01*
X126633066Y-32174312D01*
X126580596Y-32215672D01*
X126513886Y-32248298D01*
X126438415Y-32269720D01*
X126411914Y-32273989D01*
X126374722Y-32278608D01*
X126346271Y-32281745D01*
X126332111Y-32282795D01*
X126331634Y-32282752D01*
X126319426Y-32280996D01*
X126292791Y-32277414D01*
X126262226Y-32273399D01*
X126176123Y-32253338D01*
X126103190Y-32217342D01*
X126043521Y-32165516D01*
X125997213Y-32097964D01*
X125964360Y-32014790D01*
X125946527Y-31927811D01*
X125939951Y-31821441D01*
X125946008Y-31756725D01*
X126157948Y-31756725D01*
X126478125Y-31756725D01*
X126471105Y-31723100D01*
X126450692Y-31664493D01*
X126417733Y-31621631D01*
X126373186Y-31595360D01*
X126318007Y-31586526D01*
X126316663Y-31586534D01*
X126260662Y-31594189D01*
X126218173Y-31616742D01*
X126187787Y-31655389D01*
X126168096Y-31711322D01*
X126167773Y-31712754D01*
X126157948Y-31756725D01*
X125946008Y-31756725D01*
X125949076Y-31723937D01*
X125972886Y-31636611D01*
G37*
G36*
X125075450Y-31679585D02*
G01*
X125087106Y-31610151D01*
X125106423Y-31552965D01*
X125134027Y-31505488D01*
X125170547Y-31465180D01*
X125171679Y-31464152D01*
X125227391Y-31426976D01*
X125293229Y-31404101D01*
X125363962Y-31395964D01*
X125434356Y-31403002D01*
X125499177Y-31425651D01*
X125516472Y-31435380D01*
X125566013Y-31466176D01*
X125566013Y-31404953D01*
X125783284Y-31404953D01*
X125783284Y-31853137D01*
X125783201Y-31969356D01*
X125782817Y-32066885D01*
X125781924Y-32147721D01*
X125780315Y-32213867D01*
X125777784Y-32267322D01*
X125774124Y-32310088D01*
X125769129Y-32344163D01*
X125762591Y-32371550D01*
X125754305Y-32394248D01*
X125744063Y-32414258D01*
X125731659Y-32433580D01*
X125721897Y-32447328D01*
X125679344Y-32493286D01*
X125624064Y-32534700D01*
X125563987Y-32565810D01*
X125553194Y-32569900D01*
X125512412Y-32579857D01*
X125458756Y-32586814D01*
X125399887Y-32590316D01*
X125343466Y-32589909D01*
X125297156Y-32585137D01*
X125297011Y-32585110D01*
X125213396Y-32560441D01*
X125140325Y-32518720D01*
X125129749Y-32510636D01*
X125088466Y-32477940D01*
X125227550Y-32337782D01*
X125268897Y-32365144D01*
X125301230Y-32382517D01*
X125337304Y-32392044D01*
X125378637Y-32395897D01*
X125442628Y-32392808D01*
X125491990Y-32375769D01*
X125527807Y-32343786D01*
X125551162Y-32295864D01*
X125563141Y-32231009D01*
X125563541Y-32226318D01*
X125568956Y-32158855D01*
X125529853Y-32185390D01*
X125469263Y-32215542D01*
X125402323Y-32230425D01*
X125333220Y-32230732D01*
X125266137Y-32217153D01*
X125205259Y-32190381D01*
X125154772Y-32151108D01*
X125129507Y-32119201D01*
X125110411Y-32086488D01*
X125096461Y-32054653D01*
X125086640Y-32019158D01*
X125079932Y-31975466D01*
X125075319Y-31919040D01*
X125072610Y-31865361D01*
X125071758Y-31816820D01*
X125297011Y-31816820D01*
X125297842Y-31868180D01*
X125300982Y-31905007D01*
X125307397Y-31933418D01*
X125318054Y-31959527D01*
X125320290Y-31964044D01*
X125350304Y-32003421D01*
X125390093Y-32026201D01*
X125435939Y-32031480D01*
X125484127Y-32018350D01*
X125502213Y-32008388D01*
X125526994Y-31985689D01*
X125544304Y-31952266D01*
X125554937Y-31905385D01*
X125559684Y-31842310D01*
X125560111Y-31808456D01*
X125556720Y-31734760D01*
X125546082Y-31679093D01*
X125527155Y-31639746D01*
X125498894Y-31615007D01*
X125460256Y-31603166D01*
X125433869Y-31601532D01*
X125386221Y-31606620D01*
X125350020Y-31623065D01*
X125324140Y-31652635D01*
X125307458Y-31697099D01*
X125298847Y-31758226D01*
X125297011Y-31816820D01*
X125071758Y-31816820D01*
X125070827Y-31763809D01*
X125075450Y-31679585D01*
G37*
G04 #@! TO.C,J11*
X100330000Y-45085000D02*
X90170000Y-45085000D01*
X90170000Y-38735000D02*
X90170000Y-46355000D01*
X100330000Y-46355000D02*
X100330000Y-38735000D01*
X90170000Y-46355000D02*
X100330000Y-46355000D01*
X100330000Y-38735000D02*
X90170000Y-38735000D01*
G04 #@! TO.C,J10*
X125730000Y-38735000D02*
X115570000Y-38735000D01*
X125730000Y-46355000D02*
X125730000Y-38735000D01*
X115570000Y-38735000D02*
X115570000Y-46355000D01*
X125730000Y-45085000D02*
X115570000Y-45085000D01*
X115570000Y-46355000D02*
X125730000Y-46355000D01*
G04 #@! TO.C,J6*
X142875000Y-29210000D02*
X132715000Y-29210000D01*
X132715000Y-29210000D02*
X132715000Y-36830000D01*
X132715000Y-36830000D02*
X142875000Y-36830000D01*
X142875000Y-36830000D02*
X142875000Y-29210000D01*
X142875000Y-35560000D02*
X132715000Y-35560000D01*
G04 #@! TO.C,J9*
X74930000Y-46355000D02*
X74930000Y-38735000D01*
X74930000Y-38735000D02*
X64770000Y-38735000D01*
X74930000Y-45085000D02*
X64770000Y-45085000D01*
X64770000Y-38735000D02*
X64770000Y-46355000D01*
X64770000Y-46355000D02*
X74930000Y-46355000D01*
G04 #@! TO.C,J4*
X185420000Y-45085000D02*
X175260000Y-45085000D01*
X175260000Y-38735000D02*
X175260000Y-46355000D01*
X175260000Y-46355000D02*
X185420000Y-46355000D01*
X185420000Y-46355000D02*
X185420000Y-38735000D01*
X185420000Y-38735000D02*
X175260000Y-38735000D01*
G04 #@! TO.C,J5*
X175895000Y-35560000D02*
X165735000Y-35560000D01*
X165735000Y-36830000D02*
X175895000Y-36830000D01*
X175895000Y-29210000D02*
X165735000Y-29210000D01*
X175895000Y-36830000D02*
X175895000Y-29210000D01*
X165735000Y-29210000D02*
X165735000Y-36830000D01*
G04 #@! TO.C,J1*
X102870000Y-38735000D02*
X102870000Y-46355000D01*
X102870000Y-46355000D02*
X113030000Y-46355000D01*
X113030000Y-45085000D02*
X102870000Y-45085000D01*
X113030000Y-38735000D02*
X102870000Y-38735000D01*
X113030000Y-46355000D02*
X113030000Y-38735000D01*
G04 #@! TD*
M02*
