G04 #@! TF.GenerationSoftware,KiCad,Pcbnew,(6.0.7)*
G04 #@! TF.CreationDate,2023-02-15T17:23:52-05:00*
G04 #@! TF.ProjectId,RGW LED board,52475720-4c45-4442-9062-6f6172642e6b,rev?*
G04 #@! TF.SameCoordinates,Original*
G04 #@! TF.FileFunction,Copper,L1,Top*
G04 #@! TF.FilePolarity,Positive*
%FSLAX46Y46*%
G04 Gerber Fmt 4.6, Leading zero omitted, Abs format (unit mm)*
G04 Created by KiCad (PCBNEW (6.0.7)) date 2023-02-15 17:23:52*
%MOMM*%
%LPD*%
G01*
G04 APERTURE LIST*
G04 #@! TA.AperFunction,ComponentPad*
%ADD10R,1.700000X1.700000*%
G04 #@! TD*
G04 #@! TA.AperFunction,ComponentPad*
%ADD11O,1.700000X1.700000*%
G04 #@! TD*
G04 #@! TA.AperFunction,ViaPad*
%ADD12C,0.800000*%
G04 #@! TD*
G04 #@! TA.AperFunction,Conductor*
%ADD13C,0.635000*%
G04 #@! TD*
G04 APERTURE END LIST*
D10*
X165100000Y-43180000D03*
D11*
X167640000Y-43180000D03*
D10*
X203200000Y-43180000D03*
D11*
X205740000Y-43180000D03*
D10*
X82550000Y-43180000D03*
D11*
X85090000Y-43180000D03*
D10*
X99695000Y-33020000D03*
D11*
X102235000Y-33020000D03*
D10*
X190500000Y-43180000D03*
D11*
X193040000Y-43180000D03*
D10*
X152400000Y-43180000D03*
D11*
X154940000Y-43180000D03*
D10*
X95250000Y-43180000D03*
D11*
X97790000Y-43180000D03*
D10*
X120650000Y-43180000D03*
D11*
X123190000Y-43180000D03*
D10*
X135890000Y-34290000D03*
D11*
X138430000Y-34290000D03*
D10*
X69850000Y-43180000D03*
D11*
X72390000Y-43180000D03*
D10*
X177800000Y-43180000D03*
D11*
X180340000Y-43180000D03*
D10*
X170815000Y-33655000D03*
D11*
X173355000Y-33655000D03*
D10*
X107950000Y-43180000D03*
D11*
X110490000Y-43180000D03*
D12*
X152349200Y-39852000D03*
X107645200Y-36935400D03*
X107645200Y-40741600D03*
X151384000Y-36348000D03*
X109880400Y-37770400D03*
X154381200Y-40030400D03*
X110032800Y-40690800D03*
X154330400Y-37183000D03*
X165100000Y-36830000D03*
X165100000Y-40640000D03*
X125069600Y-35763200D03*
X120904000Y-40439400D03*
X123850400Y-40439400D03*
X124053600Y-35935900D03*
X167640000Y-35560000D03*
X167640000Y-40640000D03*
X140970000Y-36830000D03*
X140970000Y-39370000D03*
D13*
X99695000Y-30810200D02*
X99695000Y-33020000D01*
X107950000Y-43180000D02*
X107950000Y-41046400D01*
X149933000Y-46504200D02*
X187175800Y-46504200D01*
X107442000Y-36732200D02*
X107442000Y-34137600D01*
X149301200Y-45872400D02*
X149933000Y-46504200D01*
X107950000Y-41046400D02*
X107645200Y-40741600D01*
X107442000Y-32613600D02*
X105359200Y-30530800D01*
X149301200Y-41351200D02*
X149301200Y-45872400D01*
X76200000Y-33020000D02*
X69850000Y-39370000D01*
X148011736Y-36430000D02*
X141661736Y-30080000D01*
X69850000Y-39370000D02*
X69850000Y-43180000D01*
X99974400Y-30530800D02*
X99695000Y-30810200D01*
X107645200Y-36935400D02*
X107442000Y-36732200D01*
X152349200Y-43129200D02*
X152400000Y-43180000D01*
X150800400Y-39852000D02*
X149301200Y-41351200D01*
X110157300Y-36852900D02*
X107442000Y-34137600D01*
X152349200Y-39852000D02*
X150800400Y-39852000D01*
X105359200Y-30530800D02*
X99974400Y-30530800D01*
X152349200Y-39852000D02*
X152349200Y-43129200D01*
X107442000Y-34137600D02*
X107442000Y-32613600D01*
X151384000Y-36348000D02*
X151302000Y-36430000D01*
X134499532Y-30080000D02*
X127726632Y-36852900D01*
X141661736Y-30080000D02*
X134499532Y-30080000D01*
X127726632Y-36852900D02*
X110157300Y-36852900D01*
X99695000Y-33020000D02*
X76200000Y-33020000D01*
X187175800Y-46504200D02*
X190500000Y-43180000D01*
X151302000Y-36430000D02*
X148011736Y-36430000D01*
X77470000Y-35560000D02*
X72390000Y-40640000D01*
X110032800Y-40690800D02*
X110490000Y-41148000D01*
X108807200Y-37852400D02*
X103689200Y-37852400D01*
X101600000Y-35560000D02*
X77470000Y-35560000D01*
X102235000Y-33020000D02*
X102235000Y-34925000D01*
X154940000Y-43180000D02*
X157429200Y-45669200D01*
X110490000Y-41148000D02*
X110490000Y-43180000D01*
X157429200Y-45669200D02*
X186436000Y-45669200D01*
X141315868Y-30915000D02*
X134845400Y-30915000D01*
X154381200Y-42621200D02*
X154940000Y-43180000D01*
X189128400Y-40030400D02*
X192481200Y-40030400D01*
X103689200Y-37852400D02*
X102235000Y-36398200D01*
X187401200Y-41757600D02*
X189128400Y-40030400D01*
X127908000Y-37852400D02*
X108807200Y-37852400D01*
X153844600Y-37265000D02*
X147665868Y-37265000D01*
X153926600Y-37183000D02*
X153844600Y-37265000D01*
X154381200Y-40030400D02*
X154381200Y-42621200D01*
X102235000Y-36398200D02*
X102235000Y-34925000D01*
X72390000Y-40640000D02*
X72390000Y-43180000D01*
X193040000Y-40589200D02*
X193040000Y-43180000D01*
X154330400Y-37183000D02*
X153926600Y-37183000D01*
X192481200Y-40030400D02*
X193040000Y-40589200D01*
X134845400Y-30915000D02*
X127908000Y-37852400D01*
X102235000Y-34925000D02*
X101600000Y-35560000D01*
X186436000Y-45669200D02*
X187401200Y-44704000D01*
X109798400Y-37852400D02*
X108807200Y-37852400D01*
X109880400Y-37770400D02*
X109798400Y-37852400D01*
X147665868Y-37265000D02*
X141315868Y-30915000D01*
X187401200Y-44704000D02*
X187401200Y-41757600D01*
X170815000Y-33655000D02*
X170815000Y-36830000D01*
X131397068Y-29245000D02*
X125069600Y-35572468D01*
X120904000Y-40439400D02*
X120904000Y-42926000D01*
X83566000Y-41097200D02*
X82550000Y-42113200D01*
X86563200Y-41097200D02*
X83566000Y-41097200D01*
X165100000Y-36830000D02*
X157515000Y-29245000D01*
X120904000Y-42926000D02*
X120650000Y-43180000D01*
X82550000Y-42113200D02*
X82550000Y-43180000D01*
X87528400Y-45669200D02*
X87528400Y-42062400D01*
X157515000Y-29245000D02*
X131397068Y-29245000D01*
X165100000Y-36830000D02*
X170815000Y-36830000D01*
X118160800Y-45669200D02*
X87528400Y-45669200D01*
X200660000Y-36830000D02*
X203200000Y-39370000D01*
X203200000Y-39370000D02*
X203200000Y-43180000D01*
X165100000Y-43180000D02*
X165100000Y-40640000D01*
X87528400Y-42062400D02*
X86563200Y-41097200D01*
X120650000Y-43180000D02*
X118160800Y-45669200D01*
X125069600Y-35572468D02*
X125069600Y-35763200D01*
X170815000Y-36830000D02*
X200660000Y-36830000D01*
X205740000Y-39370000D02*
X205740000Y-43180000D01*
X168452800Y-31750000D02*
X167640000Y-31750000D01*
X85090000Y-44551600D02*
X85090000Y-43180000D01*
X123850400Y-40439400D02*
X123850400Y-42519600D01*
X167640000Y-31750000D02*
X167640000Y-35560000D01*
X124053600Y-35712400D02*
X123901200Y-35560000D01*
X131051200Y-28410000D02*
X165112800Y-28410000D01*
X119865800Y-46504200D02*
X87042600Y-46504200D01*
X173355000Y-31750000D02*
X168452800Y-31750000D01*
X167640000Y-43180000D02*
X167640000Y-40640000D01*
X87042600Y-46504200D02*
X85090000Y-44551600D01*
X123850400Y-42519600D02*
X123190000Y-43180000D01*
X124053600Y-35935900D02*
X124053600Y-35407600D01*
X124053600Y-35407600D02*
X131051200Y-28410000D01*
X175260000Y-35560000D02*
X201930000Y-35560000D01*
X201930000Y-35560000D02*
X205740000Y-39370000D01*
X124053600Y-35935900D02*
X124053600Y-35712400D01*
X123190000Y-43180000D02*
X119865800Y-46504200D01*
X173355000Y-33655000D02*
X173355000Y-31750000D01*
X165112800Y-28410000D02*
X168452800Y-31750000D01*
X173355000Y-33655000D02*
X175260000Y-35560000D01*
X135890000Y-34290000D02*
X135890000Y-31750000D01*
X95250000Y-40640000D02*
X97202600Y-38687400D01*
X141405000Y-38935000D02*
X140970000Y-39370000D01*
X135890000Y-31750000D02*
X140970000Y-31750000D01*
X140970000Y-31750000D02*
X140970000Y-36830000D01*
X176095000Y-38935000D02*
X141405000Y-38935000D01*
X177800000Y-40640000D02*
X176095000Y-38935000D01*
X95250000Y-43180000D02*
X95250000Y-40640000D01*
X177800000Y-43180000D02*
X177800000Y-40640000D01*
X131492600Y-38687400D02*
X135890000Y-34290000D01*
X97202600Y-38687400D02*
X131492600Y-38687400D01*
X137007600Y-39522400D02*
X138430000Y-38100000D01*
X97790000Y-43180000D02*
X97790000Y-41910000D01*
X97790000Y-41910000D02*
X100177600Y-39522400D01*
X138430000Y-38100000D02*
X138430000Y-34290000D01*
X177800000Y-38100000D02*
X180340000Y-40640000D01*
X100177600Y-39522400D02*
X137007600Y-39522400D01*
X180340000Y-40640000D02*
X180340000Y-43180000D01*
X138430000Y-38100000D02*
X177800000Y-38100000D01*
M02*
