G04 #@! TF.GenerationSoftware,KiCad,Pcbnew,(6.0.7)*
G04 #@! TF.CreationDate,2023-02-20T16:18:54-05:00*
G04 #@! TF.ProjectId,RGW LED board,52475720-4c45-4442-9062-6f6172642e6b,rev?*
G04 #@! TF.SameCoordinates,Original*
G04 #@! TF.FileFunction,Copper,L2,Bot*
G04 #@! TF.FilePolarity,Positive*
%FSLAX46Y46*%
G04 Gerber Fmt 4.6, Leading zero omitted, Abs format (unit mm)*
G04 Created by KiCad (PCBNEW (6.0.7)) date 2023-02-20 16:18:54*
%MOMM*%
%LPD*%
G01*
G04 APERTURE LIST*
G04 #@! TA.AperFunction,ComponentPad*
%ADD10R,1.700000X1.700000*%
G04 #@! TD*
G04 #@! TA.AperFunction,ComponentPad*
%ADD11O,1.700000X1.700000*%
G04 #@! TD*
G04 #@! TA.AperFunction,ViaPad*
%ADD12C,0.800000*%
G04 #@! TD*
G04 #@! TA.AperFunction,Conductor*
%ADD13C,0.635000*%
G04 #@! TD*
G04 APERTURE END LIST*
D10*
G04 #@! TO.P,J8,1,Pin_1*
G04 #@! TO.N,/G-*
X165100000Y-43180000D03*
D11*
G04 #@! TO.P,J8,2,Pin_2*
G04 #@! TO.N,/G+*
X167640000Y-43180000D03*
G04 #@! TD*
D10*
G04 #@! TO.P,J2,1,Pin_1*
G04 #@! TO.N,/G-*
X203200000Y-43180000D03*
D11*
G04 #@! TO.P,J2,2,Pin_2*
G04 #@! TO.N,/G+*
X205740000Y-43180000D03*
G04 #@! TD*
D10*
G04 #@! TO.P,J13,1,Pin_1*
G04 #@! TO.N,/G-*
X82550000Y-43180000D03*
D11*
G04 #@! TO.P,J13,2,Pin_2*
G04 #@! TO.N,/G+*
X85090000Y-43180000D03*
G04 #@! TD*
D10*
G04 #@! TO.P,J3,1,Pin_1*
G04 #@! TO.N,/R-*
X99695000Y-33020000D03*
D11*
G04 #@! TO.P,J3,2,Pin_2*
G04 #@! TO.N,/R+*
X102235000Y-33020000D03*
G04 #@! TD*
D10*
G04 #@! TO.P,J12,1,Pin_1*
G04 #@! TO.N,/R-*
X190500000Y-43180000D03*
D11*
G04 #@! TO.P,J12,2,Pin_2*
G04 #@! TO.N,/R+*
X193040000Y-43180000D03*
G04 #@! TD*
D10*
G04 #@! TO.P,J7,1,Pin_1*
G04 #@! TO.N,/R-*
X152400000Y-43180000D03*
D11*
G04 #@! TO.P,J7,2,Pin_2*
G04 #@! TO.N,/R+*
X154940000Y-43180000D03*
G04 #@! TD*
D10*
G04 #@! TO.P,J11,1,Pin_1*
G04 #@! TO.N,/W-*
X95250000Y-43180000D03*
D11*
G04 #@! TO.P,J11,2,Pin_2*
G04 #@! TO.N,/W+*
X97790000Y-43180000D03*
G04 #@! TD*
D10*
G04 #@! TO.P,J10,1,Pin_1*
G04 #@! TO.N,/G-*
X120650000Y-43180000D03*
D11*
G04 #@! TO.P,J10,2,Pin_2*
G04 #@! TO.N,/G+*
X123190000Y-43180000D03*
G04 #@! TD*
D10*
G04 #@! TO.P,J6,1,Pin_1*
G04 #@! TO.N,/W-*
X135890000Y-34290000D03*
D11*
G04 #@! TO.P,J6,2,Pin_2*
G04 #@! TO.N,/W+*
X138430000Y-34290000D03*
G04 #@! TD*
D10*
G04 #@! TO.P,J9,1,Pin_1*
G04 #@! TO.N,/R-*
X69850000Y-43180000D03*
D11*
G04 #@! TO.P,J9,2,Pin_2*
G04 #@! TO.N,/R+*
X72390000Y-43180000D03*
G04 #@! TD*
D10*
G04 #@! TO.P,J4,1,Pin_1*
G04 #@! TO.N,/W-*
X177800000Y-43180000D03*
D11*
G04 #@! TO.P,J4,2,Pin_2*
G04 #@! TO.N,/W+*
X180340000Y-43180000D03*
G04 #@! TD*
D10*
G04 #@! TO.P,J5,1,Pin_1*
G04 #@! TO.N,/G-*
X170815000Y-33655000D03*
D11*
G04 #@! TO.P,J5,2,Pin_2*
G04 #@! TO.N,/G+*
X173355000Y-33655000D03*
G04 #@! TD*
D10*
G04 #@! TO.P,J1,1,Pin_1*
G04 #@! TO.N,/R-*
X107950000Y-43180000D03*
D11*
G04 #@! TO.P,J1,2,Pin_2*
G04 #@! TO.N,/R+*
X110490000Y-43180000D03*
G04 #@! TD*
D12*
G04 #@! TO.N,/R-*
X152146000Y-40894000D03*
X107442000Y-34036000D03*
X107645200Y-40741600D03*
X151384000Y-34798000D03*
G04 #@! TO.N,/R+*
X108966000Y-36322000D03*
X154432000Y-40894000D03*
X110032800Y-40690800D03*
X154330400Y-37183000D03*
G04 #@! TO.N,/G-*
X165100000Y-36830000D03*
X165100000Y-40640000D03*
X126759417Y-32271417D03*
X120904000Y-40439400D03*
G04 #@! TO.N,/G+*
X123850400Y-40439400D03*
X124206000Y-34544000D03*
X167640000Y-35560000D03*
X167640000Y-40640000D03*
G04 #@! TO.N,/W-*
X140970000Y-36830000D03*
X140970000Y-39370000D03*
G04 #@! TD*
D13*
G04 #@! TO.N,/R-*
X106934000Y-40030400D02*
X107645200Y-40741600D01*
X151384000Y-34798000D02*
X151384000Y-40132000D01*
X107442000Y-34036000D02*
X106934000Y-34544000D01*
X106934000Y-34544000D02*
X106934000Y-40030400D01*
X151384000Y-40132000D02*
X152146000Y-40894000D01*
G04 #@! TO.N,/R+*
X154432000Y-37284600D02*
X154330400Y-37183000D01*
X108966000Y-39624000D02*
X110032800Y-40690800D01*
X108966000Y-36322000D02*
X108966000Y-39624000D01*
X154432000Y-40894000D02*
X154432000Y-37284600D01*
G04 #@! TO.N,/G-*
X123938583Y-32271417D02*
X120904000Y-35306000D01*
X120904000Y-35306000D02*
X120904000Y-40439400D01*
X126759417Y-32271417D02*
X123938583Y-32271417D01*
X165100000Y-40640000D02*
X165100000Y-36830000D01*
G04 #@! TO.N,/G+*
X124206000Y-40083800D02*
X123850400Y-40439400D01*
X167640000Y-35560000D02*
X167640000Y-40640000D01*
X124206000Y-34544000D02*
X124206000Y-40083800D01*
G04 #@! TO.N,/W-*
X140970000Y-36830000D02*
X140970000Y-39370000D01*
G04 #@! TD*
M02*
