M48
INCH,TZ
T1C0.0157
T2C0.0394
%
G90
G05
T1
X42380Y-14541
X42380Y-16040
X43260Y-14870
X43320Y-16020
X47600Y-15921
X48760Y-15921
X48840Y-14148
X49240Y-14080
X55500Y-14500
X55500Y-15500
X59600Y-14310
X59980Y-15690
X60760Y-14639
X60780Y-15760
X65000Y-14500
X65000Y-16000
X66000Y-14000
X66000Y-16000
T2
X27500Y-17000
X28500Y-17000
X32500Y-17000
X33500Y-17000
X37500Y-17000
X38500Y-17000
X39250Y-13000
X40250Y-13000
X42500Y-17000
X43500Y-17000
X47500Y-17000
X48500Y-17000
X53500Y-13500
X54500Y-13500
X60000Y-17000
X61000Y-17000
X65000Y-17000
X66000Y-17000
X67250Y-13250
X68250Y-13250
X70000Y-17000
X71000Y-17000
X75000Y-17000
X76000Y-17000
X80000Y-17000
X81000Y-17000
T0
M30
