G04 #@! TF.GenerationSoftware,KiCad,Pcbnew,(6.0.7)*
G04 #@! TF.CreationDate,2023-02-15T17:23:04-05:00*
G04 #@! TF.ProjectId,RGW LED board,52475720-4c45-4442-9062-6f6172642e6b,rev?*
G04 #@! TF.SameCoordinates,Original*
G04 #@! TF.FileFunction,Legend,Top*
G04 #@! TF.FilePolarity,Positive*
%FSLAX46Y46*%
G04 Gerber Fmt 4.6, Leading zero omitted, Abs format (unit mm)*
G04 Created by KiCad (PCBNEW (6.0.7)) date 2023-02-15 17:23:04*
%MOMM*%
%LPD*%
G01*
G04 APERTURE LIST*
%ADD10C,0.150000*%
%ADD11C,0.120000*%
G04 APERTURE END LIST*
D10*
X164560476Y-45220000D02*
X164465238Y-45172380D01*
X164322380Y-45172380D01*
X164179523Y-45220000D01*
X164084285Y-45315238D01*
X164036666Y-45410476D01*
X163989047Y-45600952D01*
X163989047Y-45743809D01*
X164036666Y-45934285D01*
X164084285Y-46029523D01*
X164179523Y-46124761D01*
X164322380Y-46172380D01*
X164417619Y-46172380D01*
X164560476Y-46124761D01*
X164608095Y-46077142D01*
X164608095Y-45743809D01*
X164417619Y-45743809D01*
X165750952Y-46124761D02*
X165846190Y-46172380D01*
X166036666Y-46172380D01*
X166131904Y-46124761D01*
X166179523Y-46029523D01*
X166179523Y-45981904D01*
X166131904Y-45886666D01*
X166036666Y-45839047D01*
X165893809Y-45839047D01*
X165798571Y-45791428D01*
X165750952Y-45696190D01*
X165750952Y-45648571D01*
X165798571Y-45553333D01*
X165893809Y-45505714D01*
X166036666Y-45505714D01*
X166131904Y-45553333D01*
X166465238Y-45505714D02*
X166846190Y-45505714D01*
X166608095Y-45172380D02*
X166608095Y-46029523D01*
X166655714Y-46124761D01*
X166750952Y-46172380D01*
X166846190Y-46172380D01*
X167179523Y-46172380D02*
X167179523Y-45505714D01*
X167179523Y-45696190D02*
X167227142Y-45600952D01*
X167274761Y-45553333D01*
X167370000Y-45505714D01*
X167465238Y-45505714D01*
X167798571Y-46172380D02*
X167798571Y-45505714D01*
X167798571Y-45172380D02*
X167750952Y-45220000D01*
X167798571Y-45267619D01*
X167846190Y-45220000D01*
X167798571Y-45172380D01*
X167798571Y-45267619D01*
X168274761Y-45505714D02*
X168274761Y-46505714D01*
X168274761Y-45553333D02*
X168370000Y-45505714D01*
X168560476Y-45505714D01*
X168655714Y-45553333D01*
X168703333Y-45600952D01*
X168750952Y-45696190D01*
X168750952Y-45981904D01*
X168703333Y-46077142D01*
X168655714Y-46124761D01*
X168560476Y-46172380D01*
X168370000Y-46172380D01*
X168274761Y-46124761D01*
X202660476Y-45220000D02*
X202565238Y-45172380D01*
X202422380Y-45172380D01*
X202279523Y-45220000D01*
X202184285Y-45315238D01*
X202136666Y-45410476D01*
X202089047Y-45600952D01*
X202089047Y-45743809D01*
X202136666Y-45934285D01*
X202184285Y-46029523D01*
X202279523Y-46124761D01*
X202422380Y-46172380D01*
X202517619Y-46172380D01*
X202660476Y-46124761D01*
X202708095Y-46077142D01*
X202708095Y-45743809D01*
X202517619Y-45743809D01*
X203850952Y-46124761D02*
X203946190Y-46172380D01*
X204136666Y-46172380D01*
X204231904Y-46124761D01*
X204279523Y-46029523D01*
X204279523Y-45981904D01*
X204231904Y-45886666D01*
X204136666Y-45839047D01*
X203993809Y-45839047D01*
X203898571Y-45791428D01*
X203850952Y-45696190D01*
X203850952Y-45648571D01*
X203898571Y-45553333D01*
X203993809Y-45505714D01*
X204136666Y-45505714D01*
X204231904Y-45553333D01*
X204565238Y-45505714D02*
X204946190Y-45505714D01*
X204708095Y-45172380D02*
X204708095Y-46029523D01*
X204755714Y-46124761D01*
X204850952Y-46172380D01*
X204946190Y-46172380D01*
X205279523Y-46172380D02*
X205279523Y-45505714D01*
X205279523Y-45696190D02*
X205327142Y-45600952D01*
X205374761Y-45553333D01*
X205470000Y-45505714D01*
X205565238Y-45505714D01*
X205898571Y-46172380D02*
X205898571Y-45505714D01*
X205898571Y-45172380D02*
X205850952Y-45220000D01*
X205898571Y-45267619D01*
X205946190Y-45220000D01*
X205898571Y-45172380D01*
X205898571Y-45267619D01*
X206374761Y-45505714D02*
X206374761Y-46505714D01*
X206374761Y-45553333D02*
X206470000Y-45505714D01*
X206660476Y-45505714D01*
X206755714Y-45553333D01*
X206803333Y-45600952D01*
X206850952Y-45696190D01*
X206850952Y-45981904D01*
X206803333Y-46077142D01*
X206755714Y-46124761D01*
X206660476Y-46172380D01*
X206470000Y-46172380D01*
X206374761Y-46124761D01*
X81375476Y-45220000D02*
X81280238Y-45172380D01*
X81137380Y-45172380D01*
X80994523Y-45220000D01*
X80899285Y-45315238D01*
X80851666Y-45410476D01*
X80804047Y-45600952D01*
X80804047Y-45743809D01*
X80851666Y-45934285D01*
X80899285Y-46029523D01*
X80994523Y-46124761D01*
X81137380Y-46172380D01*
X81232619Y-46172380D01*
X81375476Y-46124761D01*
X81423095Y-46077142D01*
X81423095Y-45743809D01*
X81232619Y-45743809D01*
X82565952Y-46124761D02*
X82661190Y-46172380D01*
X82851666Y-46172380D01*
X82946904Y-46124761D01*
X82994523Y-46029523D01*
X82994523Y-45981904D01*
X82946904Y-45886666D01*
X82851666Y-45839047D01*
X82708809Y-45839047D01*
X82613571Y-45791428D01*
X82565952Y-45696190D01*
X82565952Y-45648571D01*
X82613571Y-45553333D01*
X82708809Y-45505714D01*
X82851666Y-45505714D01*
X82946904Y-45553333D01*
X83280238Y-45505714D02*
X83661190Y-45505714D01*
X83423095Y-45172380D02*
X83423095Y-46029523D01*
X83470714Y-46124761D01*
X83565952Y-46172380D01*
X83661190Y-46172380D01*
X83994523Y-46172380D02*
X83994523Y-45505714D01*
X83994523Y-45696190D02*
X84042142Y-45600952D01*
X84089761Y-45553333D01*
X84185000Y-45505714D01*
X84280238Y-45505714D01*
X84613571Y-46172380D02*
X84613571Y-45505714D01*
X84613571Y-45172380D02*
X84565952Y-45220000D01*
X84613571Y-45267619D01*
X84661190Y-45220000D01*
X84613571Y-45172380D01*
X84613571Y-45267619D01*
X85089761Y-45505714D02*
X85089761Y-46505714D01*
X85089761Y-45553333D02*
X85185000Y-45505714D01*
X85375476Y-45505714D01*
X85470714Y-45553333D01*
X85518333Y-45600952D01*
X85565952Y-45696190D01*
X85565952Y-45981904D01*
X85518333Y-46077142D01*
X85470714Y-46124761D01*
X85375476Y-46172380D01*
X85185000Y-46172380D01*
X85089761Y-46124761D01*
X97266666Y-30297380D02*
X96933333Y-29821190D01*
X96695238Y-30297380D02*
X96695238Y-29297380D01*
X97076190Y-29297380D01*
X97171428Y-29345000D01*
X97219047Y-29392619D01*
X97266666Y-29487857D01*
X97266666Y-29630714D01*
X97219047Y-29725952D01*
X97171428Y-29773571D01*
X97076190Y-29821190D01*
X96695238Y-29821190D01*
X98314285Y-29630714D02*
X98695238Y-29630714D01*
X98457142Y-30297380D02*
X98457142Y-29440238D01*
X98504761Y-29345000D01*
X98600000Y-29297380D01*
X98695238Y-29297380D01*
X99028571Y-30297380D02*
X99028571Y-29630714D01*
X99028571Y-29821190D02*
X99076190Y-29725952D01*
X99123809Y-29678333D01*
X99219047Y-29630714D01*
X99314285Y-29630714D01*
X99790476Y-30297380D02*
X99695238Y-30249761D01*
X99647619Y-30202142D01*
X99600000Y-30106904D01*
X99600000Y-29821190D01*
X99647619Y-29725952D01*
X99695238Y-29678333D01*
X99790476Y-29630714D01*
X99933333Y-29630714D01*
X100028571Y-29678333D01*
X100076190Y-29725952D01*
X100123809Y-29821190D01*
X100123809Y-30106904D01*
X100076190Y-30202142D01*
X100028571Y-30249761D01*
X99933333Y-30297380D01*
X99790476Y-30297380D01*
X100552380Y-30297380D02*
X100552380Y-29630714D01*
X100552380Y-29725952D02*
X100600000Y-29678333D01*
X100695238Y-29630714D01*
X100838095Y-29630714D01*
X100933333Y-29678333D01*
X100980952Y-29773571D01*
X100980952Y-30297380D01*
X100980952Y-29773571D02*
X101028571Y-29678333D01*
X101123809Y-29630714D01*
X101266666Y-29630714D01*
X101361904Y-29678333D01*
X101409523Y-29773571D01*
X101409523Y-30297380D01*
X103076190Y-30297380D02*
X103076190Y-29773571D01*
X103028571Y-29678333D01*
X102933333Y-29630714D01*
X102742857Y-29630714D01*
X102647619Y-29678333D01*
X103076190Y-30249761D02*
X102980952Y-30297380D01*
X102742857Y-30297380D01*
X102647619Y-30249761D01*
X102600000Y-30154523D01*
X102600000Y-30059285D01*
X102647619Y-29964047D01*
X102742857Y-29916428D01*
X102980952Y-29916428D01*
X103076190Y-29868809D01*
X103552380Y-30297380D02*
X103552380Y-29297380D01*
X103552380Y-29678333D02*
X103647619Y-29630714D01*
X103838095Y-29630714D01*
X103933333Y-29678333D01*
X103980952Y-29725952D01*
X104028571Y-29821190D01*
X104028571Y-30106904D01*
X103980952Y-30202142D01*
X103933333Y-30249761D01*
X103838095Y-30297380D01*
X103647619Y-30297380D01*
X103552380Y-30249761D01*
X104600000Y-30297380D02*
X104504761Y-30249761D01*
X104457142Y-30202142D01*
X104409523Y-30106904D01*
X104409523Y-29821190D01*
X104457142Y-29725952D01*
X104504761Y-29678333D01*
X104600000Y-29630714D01*
X104742857Y-29630714D01*
X104838095Y-29678333D01*
X104885714Y-29725952D01*
X104933333Y-29821190D01*
X104933333Y-30106904D01*
X104885714Y-30202142D01*
X104838095Y-30249761D01*
X104742857Y-30297380D01*
X104600000Y-30297380D01*
X105266666Y-29630714D02*
X105504761Y-30297380D01*
X105742857Y-29630714D01*
X106504761Y-30249761D02*
X106409523Y-30297380D01*
X106219047Y-30297380D01*
X106123809Y-30249761D01*
X106076190Y-30154523D01*
X106076190Y-29773571D01*
X106123809Y-29678333D01*
X106219047Y-29630714D01*
X106409523Y-29630714D01*
X106504761Y-29678333D01*
X106552380Y-29773571D01*
X106552380Y-29868809D01*
X106076190Y-29964047D01*
X190325595Y-46172380D02*
X189992261Y-45696190D01*
X189754166Y-46172380D02*
X189754166Y-45172380D01*
X190135119Y-45172380D01*
X190230357Y-45220000D01*
X190277976Y-45267619D01*
X190325595Y-45362857D01*
X190325595Y-45505714D01*
X190277976Y-45600952D01*
X190230357Y-45648571D01*
X190135119Y-45696190D01*
X189754166Y-45696190D01*
X191468452Y-46124761D02*
X191563690Y-46172380D01*
X191754166Y-46172380D01*
X191849404Y-46124761D01*
X191897023Y-46029523D01*
X191897023Y-45981904D01*
X191849404Y-45886666D01*
X191754166Y-45839047D01*
X191611309Y-45839047D01*
X191516071Y-45791428D01*
X191468452Y-45696190D01*
X191468452Y-45648571D01*
X191516071Y-45553333D01*
X191611309Y-45505714D01*
X191754166Y-45505714D01*
X191849404Y-45553333D01*
X192182738Y-45505714D02*
X192563690Y-45505714D01*
X192325595Y-45172380D02*
X192325595Y-46029523D01*
X192373214Y-46124761D01*
X192468452Y-46172380D01*
X192563690Y-46172380D01*
X192897023Y-46172380D02*
X192897023Y-45505714D01*
X192897023Y-45696190D02*
X192944642Y-45600952D01*
X192992261Y-45553333D01*
X193087500Y-45505714D01*
X193182738Y-45505714D01*
X193516071Y-46172380D02*
X193516071Y-45505714D01*
X193516071Y-45172380D02*
X193468452Y-45220000D01*
X193516071Y-45267619D01*
X193563690Y-45220000D01*
X193516071Y-45172380D01*
X193516071Y-45267619D01*
X193992261Y-45505714D02*
X193992261Y-46505714D01*
X193992261Y-45553333D02*
X194087500Y-45505714D01*
X194277976Y-45505714D01*
X194373214Y-45553333D01*
X194420833Y-45600952D01*
X194468452Y-45696190D01*
X194468452Y-45981904D01*
X194420833Y-46077142D01*
X194373214Y-46124761D01*
X194277976Y-46172380D01*
X194087500Y-46172380D01*
X193992261Y-46124761D01*
X151908095Y-46172380D02*
X151574761Y-45696190D01*
X151336666Y-46172380D02*
X151336666Y-45172380D01*
X151717619Y-45172380D01*
X151812857Y-45220000D01*
X151860476Y-45267619D01*
X151908095Y-45362857D01*
X151908095Y-45505714D01*
X151860476Y-45600952D01*
X151812857Y-45648571D01*
X151717619Y-45696190D01*
X151336666Y-45696190D01*
X153050952Y-46124761D02*
X153146190Y-46172380D01*
X153336666Y-46172380D01*
X153431904Y-46124761D01*
X153479523Y-46029523D01*
X153479523Y-45981904D01*
X153431904Y-45886666D01*
X153336666Y-45839047D01*
X153193809Y-45839047D01*
X153098571Y-45791428D01*
X153050952Y-45696190D01*
X153050952Y-45648571D01*
X153098571Y-45553333D01*
X153193809Y-45505714D01*
X153336666Y-45505714D01*
X153431904Y-45553333D01*
X153765238Y-45505714D02*
X154146190Y-45505714D01*
X153908095Y-45172380D02*
X153908095Y-46029523D01*
X153955714Y-46124761D01*
X154050952Y-46172380D01*
X154146190Y-46172380D01*
X154479523Y-46172380D02*
X154479523Y-45505714D01*
X154479523Y-45696190D02*
X154527142Y-45600952D01*
X154574761Y-45553333D01*
X154670000Y-45505714D01*
X154765238Y-45505714D01*
X155098571Y-46172380D02*
X155098571Y-45505714D01*
X155098571Y-45172380D02*
X155050952Y-45220000D01*
X155098571Y-45267619D01*
X155146190Y-45220000D01*
X155098571Y-45172380D01*
X155098571Y-45267619D01*
X155574761Y-45505714D02*
X155574761Y-46505714D01*
X155574761Y-45553333D02*
X155670000Y-45505714D01*
X155860476Y-45505714D01*
X155955714Y-45553333D01*
X156003333Y-45600952D01*
X156050952Y-45696190D01*
X156050952Y-45981904D01*
X156003333Y-46077142D01*
X155955714Y-46124761D01*
X155860476Y-46172380D01*
X155670000Y-46172380D01*
X155574761Y-46124761D01*
X94020000Y-45172380D02*
X94258095Y-46172380D01*
X94448571Y-45458095D01*
X94639047Y-46172380D01*
X94877142Y-45172380D01*
X95972380Y-46124761D02*
X96067619Y-46172380D01*
X96258095Y-46172380D01*
X96353333Y-46124761D01*
X96400952Y-46029523D01*
X96400952Y-45981904D01*
X96353333Y-45886666D01*
X96258095Y-45839047D01*
X96115238Y-45839047D01*
X96020000Y-45791428D01*
X95972380Y-45696190D01*
X95972380Y-45648571D01*
X96020000Y-45553333D01*
X96115238Y-45505714D01*
X96258095Y-45505714D01*
X96353333Y-45553333D01*
X96686666Y-45505714D02*
X97067619Y-45505714D01*
X96829523Y-45172380D02*
X96829523Y-46029523D01*
X96877142Y-46124761D01*
X96972380Y-46172380D01*
X97067619Y-46172380D01*
X97400952Y-46172380D02*
X97400952Y-45505714D01*
X97400952Y-45696190D02*
X97448571Y-45600952D01*
X97496190Y-45553333D01*
X97591428Y-45505714D01*
X97686666Y-45505714D01*
X98020000Y-46172380D02*
X98020000Y-45505714D01*
X98020000Y-45172380D02*
X97972380Y-45220000D01*
X98020000Y-45267619D01*
X98067619Y-45220000D01*
X98020000Y-45172380D01*
X98020000Y-45267619D01*
X98496190Y-45505714D02*
X98496190Y-46505714D01*
X98496190Y-45553333D02*
X98591428Y-45505714D01*
X98781904Y-45505714D01*
X98877142Y-45553333D01*
X98924761Y-45600952D01*
X98972380Y-45696190D01*
X98972380Y-45981904D01*
X98924761Y-46077142D01*
X98877142Y-46124761D01*
X98781904Y-46172380D01*
X98591428Y-46172380D01*
X98496190Y-46124761D01*
X120110476Y-45220000D02*
X120015238Y-45172380D01*
X119872380Y-45172380D01*
X119729523Y-45220000D01*
X119634285Y-45315238D01*
X119586666Y-45410476D01*
X119539047Y-45600952D01*
X119539047Y-45743809D01*
X119586666Y-45934285D01*
X119634285Y-46029523D01*
X119729523Y-46124761D01*
X119872380Y-46172380D01*
X119967619Y-46172380D01*
X120110476Y-46124761D01*
X120158095Y-46077142D01*
X120158095Y-45743809D01*
X119967619Y-45743809D01*
X121300952Y-46124761D02*
X121396190Y-46172380D01*
X121586666Y-46172380D01*
X121681904Y-46124761D01*
X121729523Y-46029523D01*
X121729523Y-45981904D01*
X121681904Y-45886666D01*
X121586666Y-45839047D01*
X121443809Y-45839047D01*
X121348571Y-45791428D01*
X121300952Y-45696190D01*
X121300952Y-45648571D01*
X121348571Y-45553333D01*
X121443809Y-45505714D01*
X121586666Y-45505714D01*
X121681904Y-45553333D01*
X122015238Y-45505714D02*
X122396190Y-45505714D01*
X122158095Y-45172380D02*
X122158095Y-46029523D01*
X122205714Y-46124761D01*
X122300952Y-46172380D01*
X122396190Y-46172380D01*
X122729523Y-46172380D02*
X122729523Y-45505714D01*
X122729523Y-45696190D02*
X122777142Y-45600952D01*
X122824761Y-45553333D01*
X122920000Y-45505714D01*
X123015238Y-45505714D01*
X123348571Y-46172380D02*
X123348571Y-45505714D01*
X123348571Y-45172380D02*
X123300952Y-45220000D01*
X123348571Y-45267619D01*
X123396190Y-45220000D01*
X123348571Y-45172380D01*
X123348571Y-45267619D01*
X123824761Y-45505714D02*
X123824761Y-46505714D01*
X123824761Y-45553333D02*
X123920000Y-45505714D01*
X124110476Y-45505714D01*
X124205714Y-45553333D01*
X124253333Y-45600952D01*
X124300952Y-45696190D01*
X124300952Y-45981904D01*
X124253333Y-46077142D01*
X124205714Y-46124761D01*
X124110476Y-46172380D01*
X123920000Y-46172380D01*
X123824761Y-46124761D01*
X130818571Y-29932380D02*
X131056666Y-30932380D01*
X131247142Y-30218095D01*
X131437619Y-30932380D01*
X131675714Y-29932380D01*
X132675714Y-30265714D02*
X133056666Y-30265714D01*
X132818571Y-30932380D02*
X132818571Y-30075238D01*
X132866190Y-29980000D01*
X132961428Y-29932380D01*
X133056666Y-29932380D01*
X133390000Y-30932380D02*
X133390000Y-30265714D01*
X133390000Y-30456190D02*
X133437619Y-30360952D01*
X133485238Y-30313333D01*
X133580476Y-30265714D01*
X133675714Y-30265714D01*
X134151904Y-30932380D02*
X134056666Y-30884761D01*
X134009047Y-30837142D01*
X133961428Y-30741904D01*
X133961428Y-30456190D01*
X134009047Y-30360952D01*
X134056666Y-30313333D01*
X134151904Y-30265714D01*
X134294761Y-30265714D01*
X134390000Y-30313333D01*
X134437619Y-30360952D01*
X134485238Y-30456190D01*
X134485238Y-30741904D01*
X134437619Y-30837142D01*
X134390000Y-30884761D01*
X134294761Y-30932380D01*
X134151904Y-30932380D01*
X134913809Y-30932380D02*
X134913809Y-30265714D01*
X134913809Y-30360952D02*
X134961428Y-30313333D01*
X135056666Y-30265714D01*
X135199523Y-30265714D01*
X135294761Y-30313333D01*
X135342380Y-30408571D01*
X135342380Y-30932380D01*
X135342380Y-30408571D02*
X135390000Y-30313333D01*
X135485238Y-30265714D01*
X135628095Y-30265714D01*
X135723333Y-30313333D01*
X135770952Y-30408571D01*
X135770952Y-30932380D01*
X137437619Y-30932380D02*
X137437619Y-30408571D01*
X137390000Y-30313333D01*
X137294761Y-30265714D01*
X137104285Y-30265714D01*
X137009047Y-30313333D01*
X137437619Y-30884761D02*
X137342380Y-30932380D01*
X137104285Y-30932380D01*
X137009047Y-30884761D01*
X136961428Y-30789523D01*
X136961428Y-30694285D01*
X137009047Y-30599047D01*
X137104285Y-30551428D01*
X137342380Y-30551428D01*
X137437619Y-30503809D01*
X137913809Y-30932380D02*
X137913809Y-29932380D01*
X137913809Y-30313333D02*
X138009047Y-30265714D01*
X138199523Y-30265714D01*
X138294761Y-30313333D01*
X138342380Y-30360952D01*
X138390000Y-30456190D01*
X138390000Y-30741904D01*
X138342380Y-30837142D01*
X138294761Y-30884761D01*
X138199523Y-30932380D01*
X138009047Y-30932380D01*
X137913809Y-30884761D01*
X138961428Y-30932380D02*
X138866190Y-30884761D01*
X138818571Y-30837142D01*
X138770952Y-30741904D01*
X138770952Y-30456190D01*
X138818571Y-30360952D01*
X138866190Y-30313333D01*
X138961428Y-30265714D01*
X139104285Y-30265714D01*
X139199523Y-30313333D01*
X139247142Y-30360952D01*
X139294761Y-30456190D01*
X139294761Y-30741904D01*
X139247142Y-30837142D01*
X139199523Y-30884761D01*
X139104285Y-30932380D01*
X138961428Y-30932380D01*
X139628095Y-30265714D02*
X139866190Y-30932380D01*
X140104285Y-30265714D01*
X140866190Y-30884761D02*
X140770952Y-30932380D01*
X140580476Y-30932380D01*
X140485238Y-30884761D01*
X140437619Y-30789523D01*
X140437619Y-30408571D01*
X140485238Y-30313333D01*
X140580476Y-30265714D01*
X140770952Y-30265714D01*
X140866190Y-30313333D01*
X140913809Y-30408571D01*
X140913809Y-30503809D01*
X140437619Y-30599047D01*
X68728095Y-46172380D02*
X68394761Y-45696190D01*
X68156666Y-46172380D02*
X68156666Y-45172380D01*
X68537619Y-45172380D01*
X68632857Y-45220000D01*
X68680476Y-45267619D01*
X68728095Y-45362857D01*
X68728095Y-45505714D01*
X68680476Y-45600952D01*
X68632857Y-45648571D01*
X68537619Y-45696190D01*
X68156666Y-45696190D01*
X69870952Y-46124761D02*
X69966190Y-46172380D01*
X70156666Y-46172380D01*
X70251904Y-46124761D01*
X70299523Y-46029523D01*
X70299523Y-45981904D01*
X70251904Y-45886666D01*
X70156666Y-45839047D01*
X70013809Y-45839047D01*
X69918571Y-45791428D01*
X69870952Y-45696190D01*
X69870952Y-45648571D01*
X69918571Y-45553333D01*
X70013809Y-45505714D01*
X70156666Y-45505714D01*
X70251904Y-45553333D01*
X70585238Y-45505714D02*
X70966190Y-45505714D01*
X70728095Y-45172380D02*
X70728095Y-46029523D01*
X70775714Y-46124761D01*
X70870952Y-46172380D01*
X70966190Y-46172380D01*
X71299523Y-46172380D02*
X71299523Y-45505714D01*
X71299523Y-45696190D02*
X71347142Y-45600952D01*
X71394761Y-45553333D01*
X71490000Y-45505714D01*
X71585238Y-45505714D01*
X71918571Y-46172380D02*
X71918571Y-45505714D01*
X71918571Y-45172380D02*
X71870952Y-45220000D01*
X71918571Y-45267619D01*
X71966190Y-45220000D01*
X71918571Y-45172380D01*
X71918571Y-45267619D01*
X72394761Y-45505714D02*
X72394761Y-46505714D01*
X72394761Y-45553333D02*
X72490000Y-45505714D01*
X72680476Y-45505714D01*
X72775714Y-45553333D01*
X72823333Y-45600952D01*
X72870952Y-45696190D01*
X72870952Y-45981904D01*
X72823333Y-46077142D01*
X72775714Y-46124761D01*
X72680476Y-46172380D01*
X72490000Y-46172380D01*
X72394761Y-46124761D01*
X176887500Y-45172380D02*
X177125595Y-46172380D01*
X177316071Y-45458095D01*
X177506547Y-46172380D01*
X177744642Y-45172380D01*
X178839880Y-46124761D02*
X178935119Y-46172380D01*
X179125595Y-46172380D01*
X179220833Y-46124761D01*
X179268452Y-46029523D01*
X179268452Y-45981904D01*
X179220833Y-45886666D01*
X179125595Y-45839047D01*
X178982738Y-45839047D01*
X178887500Y-45791428D01*
X178839880Y-45696190D01*
X178839880Y-45648571D01*
X178887500Y-45553333D01*
X178982738Y-45505714D01*
X179125595Y-45505714D01*
X179220833Y-45553333D01*
X179554166Y-45505714D02*
X179935119Y-45505714D01*
X179697023Y-45172380D02*
X179697023Y-46029523D01*
X179744642Y-46124761D01*
X179839880Y-46172380D01*
X179935119Y-46172380D01*
X180268452Y-46172380D02*
X180268452Y-45505714D01*
X180268452Y-45696190D02*
X180316071Y-45600952D01*
X180363690Y-45553333D01*
X180458928Y-45505714D01*
X180554166Y-45505714D01*
X180887500Y-46172380D02*
X180887500Y-45505714D01*
X180887500Y-45172380D02*
X180839880Y-45220000D01*
X180887500Y-45267619D01*
X180935119Y-45220000D01*
X180887500Y-45172380D01*
X180887500Y-45267619D01*
X181363690Y-45505714D02*
X181363690Y-46505714D01*
X181363690Y-45553333D02*
X181458928Y-45505714D01*
X181649404Y-45505714D01*
X181744642Y-45553333D01*
X181792261Y-45600952D01*
X181839880Y-45696190D01*
X181839880Y-45981904D01*
X181792261Y-46077142D01*
X181744642Y-46124761D01*
X181649404Y-46172380D01*
X181458928Y-46172380D01*
X181363690Y-46124761D01*
X167709047Y-29980000D02*
X167613809Y-29932380D01*
X167470952Y-29932380D01*
X167328095Y-29980000D01*
X167232857Y-30075238D01*
X167185238Y-30170476D01*
X167137619Y-30360952D01*
X167137619Y-30503809D01*
X167185238Y-30694285D01*
X167232857Y-30789523D01*
X167328095Y-30884761D01*
X167470952Y-30932380D01*
X167566190Y-30932380D01*
X167709047Y-30884761D01*
X167756666Y-30837142D01*
X167756666Y-30503809D01*
X167566190Y-30503809D01*
X168804285Y-30265714D02*
X169185238Y-30265714D01*
X168947142Y-30932380D02*
X168947142Y-30075238D01*
X168994761Y-29980000D01*
X169090000Y-29932380D01*
X169185238Y-29932380D01*
X169518571Y-30932380D02*
X169518571Y-30265714D01*
X169518571Y-30456190D02*
X169566190Y-30360952D01*
X169613809Y-30313333D01*
X169709047Y-30265714D01*
X169804285Y-30265714D01*
X170280476Y-30932380D02*
X170185238Y-30884761D01*
X170137619Y-30837142D01*
X170090000Y-30741904D01*
X170090000Y-30456190D01*
X170137619Y-30360952D01*
X170185238Y-30313333D01*
X170280476Y-30265714D01*
X170423333Y-30265714D01*
X170518571Y-30313333D01*
X170566190Y-30360952D01*
X170613809Y-30456190D01*
X170613809Y-30741904D01*
X170566190Y-30837142D01*
X170518571Y-30884761D01*
X170423333Y-30932380D01*
X170280476Y-30932380D01*
X171042380Y-30932380D02*
X171042380Y-30265714D01*
X171042380Y-30360952D02*
X171090000Y-30313333D01*
X171185238Y-30265714D01*
X171328095Y-30265714D01*
X171423333Y-30313333D01*
X171470952Y-30408571D01*
X171470952Y-30932380D01*
X171470952Y-30408571D02*
X171518571Y-30313333D01*
X171613809Y-30265714D01*
X171756666Y-30265714D01*
X171851904Y-30313333D01*
X171899523Y-30408571D01*
X171899523Y-30932380D01*
X173566190Y-30932380D02*
X173566190Y-30408571D01*
X173518571Y-30313333D01*
X173423333Y-30265714D01*
X173232857Y-30265714D01*
X173137619Y-30313333D01*
X173566190Y-30884761D02*
X173470952Y-30932380D01*
X173232857Y-30932380D01*
X173137619Y-30884761D01*
X173090000Y-30789523D01*
X173090000Y-30694285D01*
X173137619Y-30599047D01*
X173232857Y-30551428D01*
X173470952Y-30551428D01*
X173566190Y-30503809D01*
X174042380Y-30932380D02*
X174042380Y-29932380D01*
X174042380Y-30313333D02*
X174137619Y-30265714D01*
X174328095Y-30265714D01*
X174423333Y-30313333D01*
X174470952Y-30360952D01*
X174518571Y-30456190D01*
X174518571Y-30741904D01*
X174470952Y-30837142D01*
X174423333Y-30884761D01*
X174328095Y-30932380D01*
X174137619Y-30932380D01*
X174042380Y-30884761D01*
X175090000Y-30932380D02*
X174994761Y-30884761D01*
X174947142Y-30837142D01*
X174899523Y-30741904D01*
X174899523Y-30456190D01*
X174947142Y-30360952D01*
X174994761Y-30313333D01*
X175090000Y-30265714D01*
X175232857Y-30265714D01*
X175328095Y-30313333D01*
X175375714Y-30360952D01*
X175423333Y-30456190D01*
X175423333Y-30741904D01*
X175375714Y-30837142D01*
X175328095Y-30884761D01*
X175232857Y-30932380D01*
X175090000Y-30932380D01*
X175756666Y-30265714D02*
X175994761Y-30932380D01*
X176232857Y-30265714D01*
X176994761Y-30884761D02*
X176899523Y-30932380D01*
X176709047Y-30932380D01*
X176613809Y-30884761D01*
X176566190Y-30789523D01*
X176566190Y-30408571D01*
X176613809Y-30313333D01*
X176709047Y-30265714D01*
X176899523Y-30265714D01*
X176994761Y-30313333D01*
X177042380Y-30408571D01*
X177042380Y-30503809D01*
X176566190Y-30599047D01*
X107463095Y-46172380D02*
X107129761Y-45696190D01*
X106891666Y-46172380D02*
X106891666Y-45172380D01*
X107272619Y-45172380D01*
X107367857Y-45220000D01*
X107415476Y-45267619D01*
X107463095Y-45362857D01*
X107463095Y-45505714D01*
X107415476Y-45600952D01*
X107367857Y-45648571D01*
X107272619Y-45696190D01*
X106891666Y-45696190D01*
X108605952Y-46124761D02*
X108701190Y-46172380D01*
X108891666Y-46172380D01*
X108986904Y-46124761D01*
X109034523Y-46029523D01*
X109034523Y-45981904D01*
X108986904Y-45886666D01*
X108891666Y-45839047D01*
X108748809Y-45839047D01*
X108653571Y-45791428D01*
X108605952Y-45696190D01*
X108605952Y-45648571D01*
X108653571Y-45553333D01*
X108748809Y-45505714D01*
X108891666Y-45505714D01*
X108986904Y-45553333D01*
X109320238Y-45505714D02*
X109701190Y-45505714D01*
X109463095Y-45172380D02*
X109463095Y-46029523D01*
X109510714Y-46124761D01*
X109605952Y-46172380D01*
X109701190Y-46172380D01*
X110034523Y-46172380D02*
X110034523Y-45505714D01*
X110034523Y-45696190D02*
X110082142Y-45600952D01*
X110129761Y-45553333D01*
X110225000Y-45505714D01*
X110320238Y-45505714D01*
X110653571Y-46172380D02*
X110653571Y-45505714D01*
X110653571Y-45172380D02*
X110605952Y-45220000D01*
X110653571Y-45267619D01*
X110701190Y-45220000D01*
X110653571Y-45172380D01*
X110653571Y-45267619D01*
X111129761Y-45505714D02*
X111129761Y-46505714D01*
X111129761Y-45553333D02*
X111225000Y-45505714D01*
X111415476Y-45505714D01*
X111510714Y-45553333D01*
X111558333Y-45600952D01*
X111605952Y-45696190D01*
X111605952Y-45981904D01*
X111558333Y-46077142D01*
X111510714Y-46124761D01*
X111415476Y-46172380D01*
X111225000Y-46172380D01*
X111129761Y-46124761D01*
D11*
X168970000Y-44510000D02*
X168970000Y-41850000D01*
X166370000Y-44510000D02*
X168970000Y-44510000D01*
X166370000Y-44510000D02*
X166370000Y-41850000D01*
X163770000Y-44510000D02*
X163770000Y-43180000D01*
X165100000Y-44510000D02*
X163770000Y-44510000D01*
X166370000Y-41850000D02*
X168970000Y-41850000D01*
X201870000Y-44510000D02*
X201870000Y-43180000D01*
X204470000Y-41850000D02*
X207070000Y-41850000D01*
X204470000Y-44510000D02*
X207070000Y-44510000D01*
X207070000Y-44510000D02*
X207070000Y-41850000D01*
X204470000Y-44510000D02*
X204470000Y-41850000D01*
X203200000Y-44510000D02*
X201870000Y-44510000D01*
X82550000Y-44510000D02*
X81220000Y-44510000D01*
X83820000Y-44510000D02*
X86420000Y-44510000D01*
X86420000Y-44510000D02*
X86420000Y-41850000D01*
X83820000Y-41850000D02*
X86420000Y-41850000D01*
X81220000Y-44510000D02*
X81220000Y-43180000D01*
X83820000Y-44510000D02*
X83820000Y-41850000D01*
X100965000Y-34350000D02*
X100965000Y-31690000D01*
X103565000Y-34350000D02*
X103565000Y-31690000D01*
X99695000Y-34350000D02*
X98365000Y-34350000D01*
X100965000Y-34350000D02*
X103565000Y-34350000D01*
X98365000Y-34350000D02*
X98365000Y-33020000D01*
X100965000Y-31690000D02*
X103565000Y-31690000D01*
X190500000Y-44510000D02*
X189170000Y-44510000D01*
X191770000Y-44510000D02*
X191770000Y-41850000D01*
X191770000Y-41850000D02*
X194370000Y-41850000D01*
X189170000Y-44510000D02*
X189170000Y-43180000D01*
X194370000Y-44510000D02*
X194370000Y-41850000D01*
X191770000Y-44510000D02*
X194370000Y-44510000D01*
X152400000Y-44510000D02*
X151070000Y-44510000D01*
X151070000Y-44510000D02*
X151070000Y-43180000D01*
X153670000Y-44510000D02*
X153670000Y-41850000D01*
X153670000Y-44510000D02*
X156270000Y-44510000D01*
X156270000Y-44510000D02*
X156270000Y-41850000D01*
X153670000Y-41850000D02*
X156270000Y-41850000D01*
X96520000Y-41850000D02*
X99120000Y-41850000D01*
X95250000Y-44510000D02*
X93920000Y-44510000D01*
X99120000Y-44510000D02*
X99120000Y-41850000D01*
X93920000Y-44510000D02*
X93920000Y-43180000D01*
X96520000Y-44510000D02*
X96520000Y-41850000D01*
X96520000Y-44510000D02*
X99120000Y-44510000D01*
X119320000Y-44510000D02*
X119320000Y-43180000D01*
X121920000Y-44510000D02*
X124520000Y-44510000D01*
X120650000Y-44510000D02*
X119320000Y-44510000D01*
X121920000Y-44510000D02*
X121920000Y-41850000D01*
X124520000Y-44510000D02*
X124520000Y-41850000D01*
X121920000Y-41850000D02*
X124520000Y-41850000D01*
X134560000Y-35620000D02*
X134560000Y-34290000D01*
X139760000Y-35620000D02*
X139760000Y-32960000D01*
X137160000Y-32960000D02*
X139760000Y-32960000D01*
X137160000Y-35620000D02*
X139760000Y-35620000D01*
X137160000Y-35620000D02*
X137160000Y-32960000D01*
X135890000Y-35620000D02*
X134560000Y-35620000D01*
X71120000Y-44510000D02*
X73720000Y-44510000D01*
X68520000Y-44510000D02*
X68520000Y-43180000D01*
X73720000Y-44510000D02*
X73720000Y-41850000D01*
X71120000Y-44510000D02*
X71120000Y-41850000D01*
X69850000Y-44510000D02*
X68520000Y-44510000D01*
X71120000Y-41850000D02*
X73720000Y-41850000D01*
X177800000Y-44510000D02*
X176470000Y-44510000D01*
X179070000Y-41850000D02*
X181670000Y-41850000D01*
X179070000Y-44510000D02*
X181670000Y-44510000D01*
X176470000Y-44510000D02*
X176470000Y-43180000D01*
X181670000Y-44510000D02*
X181670000Y-41850000D01*
X179070000Y-44510000D02*
X179070000Y-41850000D01*
X170815000Y-34985000D02*
X169485000Y-34985000D01*
X169485000Y-34985000D02*
X169485000Y-33655000D01*
X172085000Y-32325000D02*
X174685000Y-32325000D01*
X172085000Y-34985000D02*
X174685000Y-34985000D01*
X174685000Y-34985000D02*
X174685000Y-32325000D01*
X172085000Y-34985000D02*
X172085000Y-32325000D01*
X106620000Y-44510000D02*
X106620000Y-43180000D01*
X109220000Y-44510000D02*
X109220000Y-41850000D01*
X109220000Y-41850000D02*
X111820000Y-41850000D01*
X107950000Y-44510000D02*
X106620000Y-44510000D01*
X111820000Y-44510000D02*
X111820000Y-41850000D01*
X109220000Y-44510000D02*
X111820000Y-44510000D01*
M02*
