G04 #@! TF.GenerationSoftware,KiCad,Pcbnew,(6.0.7)*
G04 #@! TF.CreationDate,2023-02-20T16:11:37-05:00*
G04 #@! TF.ProjectId,FlyBoxBoard,466c7942-6f78-4426-9f61-72642e6b6963,rev?*
G04 #@! TF.SameCoordinates,Original*
G04 #@! TF.FileFunction,Copper,L1,Top*
G04 #@! TF.FilePolarity,Positive*
%FSLAX46Y46*%
G04 Gerber Fmt 4.6, Leading zero omitted, Abs format (unit mm)*
G04 Created by KiCad (PCBNEW (6.0.7)) date 2023-02-20 16:11:37*
%MOMM*%
%LPD*%
G01*
G04 APERTURE LIST*
G04 #@! TA.AperFunction,ComponentPad*
%ADD10R,1.700000X1.700000*%
G04 #@! TD*
G04 #@! TA.AperFunction,ComponentPad*
%ADD11O,1.700000X1.700000*%
G04 #@! TD*
G04 #@! TA.AperFunction,ViaPad*
%ADD12C,0.800000*%
G04 #@! TD*
G04 #@! TA.AperFunction,Conductor*
%ADD13C,0.635000*%
G04 #@! TD*
G04 #@! TA.AperFunction,Conductor*
%ADD14C,0.203200*%
G04 #@! TD*
G04 #@! TA.AperFunction,Conductor*
%ADD15C,0.254000*%
G04 #@! TD*
G04 APERTURE END LIST*
D10*
G04 #@! TO.P,J20,1,Pin_1*
G04 #@! TO.N,Net-(J20-Pad1)*
X129540000Y-105923800D03*
D11*
G04 #@! TO.P,J20,2,Pin_2*
G04 #@! TO.N,Net-(J20-Pad2)*
X129540000Y-108463800D03*
G04 #@! TO.P,J20,3,Pin_3*
G04 #@! TO.N,Net-(J20-Pad3)*
X129540000Y-111003800D03*
G04 #@! TD*
D10*
G04 #@! TO.P,J11,1,Pin_1*
G04 #@! TO.N,/G LED+*
X68580000Y-22860000D03*
D11*
G04 #@! TO.P,J11,2,Pin_2*
G04 #@! TO.N,/G LED-*
X66040000Y-22860000D03*
G04 #@! TD*
D10*
G04 #@! TO.P,J33,1,Pin_1*
G04 #@! TO.N,Net-(J34-Pad1)*
X120650000Y-80523800D03*
D11*
G04 #@! TO.P,J33,2,Pin_2*
G04 #@! TO.N,unconnected-(J33-Pad2)*
X120650000Y-83063800D03*
G04 #@! TO.P,J33,3,Pin_3*
G04 #@! TO.N,unconnected-(J33-Pad3)*
X120650000Y-85603800D03*
G04 #@! TO.P,J33,4,Pin_4*
G04 #@! TO.N,unconnected-(J33-Pad4)*
X120650000Y-88143800D03*
G04 #@! TO.P,J33,5,Pin_5*
G04 #@! TO.N,Net-(J37-Pad3)*
X120650000Y-90683800D03*
G04 #@! TD*
D10*
G04 #@! TO.P,J29,1,Pin_1*
G04 #@! TO.N,Net-(J35-Pad2)*
X120675000Y-37373800D03*
D11*
G04 #@! TO.P,J29,2,Pin_2*
G04 #@! TO.N,unconnected-(J29-Pad2)*
X120675000Y-39913800D03*
G04 #@! TO.P,J29,3,Pin_3*
G04 #@! TO.N,unconnected-(J29-Pad3)*
X120675000Y-42453800D03*
G04 #@! TO.P,J29,4,Pin_4*
G04 #@! TO.N,unconnected-(J29-Pad4)*
X120675000Y-44993800D03*
G04 #@! TO.P,J29,5,Pin_5*
G04 #@! TO.N,Net-(J35-Pad3)*
X120675000Y-47533800D03*
G04 #@! TD*
D10*
G04 #@! TO.P,J30,1,Pin_1*
G04 #@! TO.N,Net-(J35-Pad2)*
X115595000Y-37373800D03*
D11*
G04 #@! TO.P,J30,2,Pin_2*
G04 #@! TO.N,unconnected-(J30-Pad2)*
X115595000Y-39913800D03*
G04 #@! TO.P,J30,3,Pin_3*
G04 #@! TO.N,unconnected-(J30-Pad3)*
X115595000Y-42453800D03*
G04 #@! TO.P,J30,4,Pin_4*
G04 #@! TO.N,unconnected-(J30-Pad4)*
X115595000Y-44993800D03*
G04 #@! TO.P,J30,5,Pin_5*
G04 #@! TO.N,/HV1*
X115595000Y-47533800D03*
G04 #@! TD*
D10*
G04 #@! TO.P,J36,1,Pin_1*
G04 #@! TO.N,Net-(J36-Pad1)*
X133375000Y-62758800D03*
D11*
G04 #@! TO.P,J36,2,Pin_2*
G04 #@! TO.N,Net-(J36-Pad2)*
X133375000Y-65298800D03*
G04 #@! TO.P,J36,3,Pin_3*
G04 #@! TO.N,Net-(J36-Pad3)*
X133375000Y-67838800D03*
G04 #@! TD*
D10*
G04 #@! TO.P,J21,1,Pin_1*
G04 #@! TO.N,Net-(J21-Pad1)*
X78740000Y-106988200D03*
D11*
G04 #@! TO.P,J21,2,Pin_2*
G04 #@! TO.N,Net-(J21-Pad2)*
X78740000Y-109528200D03*
G04 #@! TO.P,J21,3,Pin_3*
G04 #@! TO.N,Net-(J21-Pad3)*
X78740000Y-112068200D03*
G04 #@! TD*
D10*
G04 #@! TO.P,J16,1,Pin_1*
G04 #@! TO.N,Net-(J20-Pad2)*
X120650000Y-102113800D03*
D11*
G04 #@! TO.P,J16,2,Pin_2*
G04 #@! TO.N,unconnected-(J16-Pad2)*
X120650000Y-104653800D03*
G04 #@! TO.P,J16,3,Pin_3*
G04 #@! TO.N,unconnected-(J16-Pad3)*
X120650000Y-107193800D03*
G04 #@! TO.P,J16,4,Pin_4*
G04 #@! TO.N,unconnected-(J16-Pad4)*
X120650000Y-109733800D03*
G04 #@! TO.P,J16,5,Pin_5*
G04 #@! TO.N,Net-(J20-Pad3)*
X120650000Y-112273800D03*
G04 #@! TD*
D10*
G04 #@! TO.P,J27,1,Pin_1*
G04 #@! TO.N,/5V*
X99060000Y-91440000D03*
D11*
G04 #@! TO.P,J27,2,Pin_2*
G04 #@! TO.N,/HV1*
X99060000Y-93980000D03*
G04 #@! TO.P,J27,3,Pin_3*
G04 #@! TO.N,/HV2*
X99060000Y-96520000D03*
G04 #@! TO.P,J27,4,Pin_4*
G04 #@! TO.N,/HV3*
X99060000Y-99060000D03*
G04 #@! TO.P,J27,5,Pin_5*
G04 #@! TO.N,/HV4*
X99060000Y-101600000D03*
G04 #@! TO.P,J27,6,Pin_6*
G04 #@! TO.N,/HV5*
X99060000Y-104140000D03*
G04 #@! TO.P,J27,7,Pin_7*
G04 #@! TO.N,Net-(J27-Pad7)*
X99060000Y-106680000D03*
G04 #@! TO.P,J27,8,Pin_8*
G04 #@! TO.N,Net-(J27-Pad8)*
X99060000Y-109220000D03*
G04 #@! TO.P,J27,9,Pin_9*
G04 #@! TO.N,Net-(J27-Pad9)*
X99060000Y-111760000D03*
G04 #@! TO.P,J27,10,Pin_10*
G04 #@! TO.N,/GND*
X99060000Y-114300000D03*
G04 #@! TD*
D10*
G04 #@! TO.P,J40,1,Pin_1*
G04 #@! TO.N,/R LED+*
X144780000Y-79481200D03*
D11*
G04 #@! TO.P,J40,2,Pin_2*
G04 #@! TO.N,/R LED-*
X144780000Y-82021200D03*
G04 #@! TO.P,J40,3,Pin_3*
G04 #@! TO.N,Net-(J37-Pad1)*
X144780000Y-84561200D03*
G04 #@! TO.P,J40,4,Pin_4*
G04 #@! TO.N,Net-(J37-Pad3)*
X144780000Y-87101200D03*
G04 #@! TO.P,J40,5,Pin_5*
G04 #@! TO.N,/12V*
X144780000Y-89641200D03*
G04 #@! TO.P,J40,6,Pin_6*
G04 #@! TO.N,unconnected-(J40-Pad6)*
X144780000Y-92181200D03*
G04 #@! TO.P,J40,7,Pin_7*
G04 #@! TO.N,/GND*
X144780000Y-94721200D03*
G04 #@! TD*
D10*
G04 #@! TO.P,J5,1,Pin_1*
G04 #@! TO.N,/5V*
X56926800Y-81588200D03*
D11*
G04 #@! TO.P,J5,2,Pin_2*
G04 #@! TO.N,/GND*
X56926800Y-84128200D03*
G04 #@! TO.P,J5,3,Pin_3*
G04 #@! TO.N,Net-(J24-Pad1)*
X56926800Y-86668200D03*
G04 #@! TO.P,J5,4,Pin_4*
G04 #@! TO.N,Net-(J24-Pad2)*
X56926800Y-89208200D03*
G04 #@! TO.P,J5,5,Pin_5*
G04 #@! TO.N,Net-(J24-Pad3)*
X56926800Y-91748200D03*
G04 #@! TO.P,J5,6,Pin_6*
G04 #@! TO.N,/D27*
X56926800Y-94288200D03*
G04 #@! TO.P,J5,7,Pin_7*
G04 #@! TO.N,/D26*
X56926800Y-96828200D03*
G04 #@! TO.P,J5,8,Pin_8*
G04 #@! TO.N,/D25*
X56926800Y-99368200D03*
G04 #@! TO.P,J5,9,Pin_9*
G04 #@! TO.N,/D33*
X56926800Y-101908200D03*
G04 #@! TO.P,J5,10,Pin_10*
G04 #@! TO.N,/D32*
X56926800Y-104448200D03*
G04 #@! TO.P,J5,11,Pin_11*
G04 #@! TO.N,Net-(J25-Pad1)*
X56926800Y-106988200D03*
G04 #@! TO.P,J5,12,Pin_12*
G04 #@! TO.N,Net-(J25-Pad2)*
X56926800Y-109528200D03*
G04 #@! TO.P,J5,13,Pin_13*
G04 #@! TO.N,Net-(J25-Pad3)*
X56926800Y-112068200D03*
G04 #@! TO.P,J5,14,Pin_14*
G04 #@! TO.N,Net-(J25-Pad4)*
X56926800Y-114608200D03*
G04 #@! TO.P,J5,15,Pin_15*
G04 #@! TO.N,Net-(J25-Pad5)*
X56926800Y-117148200D03*
G04 #@! TD*
D10*
G04 #@! TO.P,J35,1,Pin_1*
G04 #@! TO.N,Net-(J35-Pad1)*
X133375000Y-39898800D03*
D11*
G04 #@! TO.P,J35,2,Pin_2*
G04 #@! TO.N,Net-(J35-Pad2)*
X133375000Y-42438800D03*
G04 #@! TO.P,J35,3,Pin_3*
G04 #@! TO.N,Net-(J35-Pad3)*
X133375000Y-44978800D03*
G04 #@! TD*
D10*
G04 #@! TO.P,J25,1,Pin_1*
G04 #@! TO.N,Net-(J25-Pad1)*
X67335000Y-106988200D03*
D11*
G04 #@! TO.P,J25,2,Pin_2*
G04 #@! TO.N,Net-(J25-Pad2)*
X67335000Y-109528200D03*
G04 #@! TO.P,J25,3,Pin_3*
G04 #@! TO.N,Net-(J25-Pad3)*
X67335000Y-112068200D03*
G04 #@! TO.P,J25,4,Pin_4*
G04 #@! TO.N,Net-(J25-Pad4)*
X67335000Y-114608200D03*
G04 #@! TO.P,J25,5,Pin_5*
G04 #@! TO.N,Net-(J25-Pad5)*
X67335000Y-117148200D03*
G04 #@! TD*
D10*
G04 #@! TO.P,J4,1,Pin_1*
G04 #@! TO.N,/GND*
X31775000Y-54635000D03*
D11*
G04 #@! TO.P,J4,2,Pin_2*
G04 #@! TO.N,/5V*
X31775000Y-57175000D03*
G04 #@! TO.P,J4,3,Pin_3*
G04 #@! TO.N,/D22*
X31775000Y-59715000D03*
G04 #@! TO.P,J4,4,Pin_4*
G04 #@! TO.N,/D21*
X31775000Y-62255000D03*
G04 #@! TO.P,J4,5,Pin_5*
G04 #@! TO.N,unconnected-(J4-Pad5)*
X31775000Y-64795000D03*
G04 #@! TO.P,J4,6,Pin_6*
G04 #@! TO.N,unconnected-(J4-Pad6)*
X31775000Y-67335000D03*
G04 #@! TD*
D10*
G04 #@! TO.P,J15,1,Pin_1*
G04 #@! TO.N,/3V3*
X57150000Y-129540000D03*
D11*
G04 #@! TO.P,J15,2,Pin_2*
G04 #@! TO.N,/D5*
X54610000Y-129540000D03*
G04 #@! TO.P,J15,3,Pin_3*
G04 #@! TO.N,/D23*
X52070000Y-129540000D03*
G04 #@! TO.P,J15,4,Pin_4*
G04 #@! TO.N,/D18*
X49530000Y-129540000D03*
G04 #@! TO.P,J15,5,Pin_5*
G04 #@! TO.N,/D19*
X46990000Y-129540000D03*
G04 #@! TO.P,J15,6,Pin_6*
G04 #@! TO.N,/GND*
X44450000Y-129540000D03*
G04 #@! TD*
D10*
G04 #@! TO.P,GND,1,Pin_1*
G04 #@! TO.N,/GND*
X91465000Y-44480000D03*
D11*
G04 #@! TO.P,GND,2,Pin_2*
X91465000Y-47020000D03*
G04 #@! TO.P,GND,3,Pin_3*
X91465000Y-49560000D03*
G04 #@! TO.P,GND,4,Pin_4*
X91465000Y-52100000D03*
G04 #@! TO.P,GND,5,Pin_5*
X91465000Y-54640000D03*
G04 #@! TD*
D10*
G04 #@! TO.P,J10,1,Pin_1*
G04 #@! TO.N,/R LED+*
X57150000Y-22860000D03*
D11*
G04 #@! TO.P,J10,2,Pin_2*
G04 #@! TO.N,/R LED-*
X54610000Y-22860000D03*
G04 #@! TD*
D10*
G04 #@! TO.P,J32,1,Pin_1*
G04 #@! TO.N,Net-(J36-Pad2)*
X115595000Y-60233800D03*
D11*
G04 #@! TO.P,J32,2,Pin_2*
G04 #@! TO.N,unconnected-(J32-Pad2)*
X115595000Y-62773800D03*
G04 #@! TO.P,J32,3,Pin_3*
G04 #@! TO.N,unconnected-(J32-Pad3)*
X115595000Y-65313800D03*
G04 #@! TO.P,J32,4,Pin_4*
G04 #@! TO.N,unconnected-(J32-Pad4)*
X115595000Y-67853800D03*
G04 #@! TO.P,J32,5,Pin_5*
G04 #@! TO.N,/HV2*
X115595000Y-70393800D03*
G04 #@! TD*
D10*
G04 #@! TO.P,J9,1,Pin_1*
G04 #@! TO.N,/HV5*
X22870000Y-22835000D03*
D11*
G04 #@! TO.P,J9,2,Pin_2*
G04 #@! TO.N,/X*
X25410000Y-22835000D03*
G04 #@! TO.P,J9,3,Pin_3*
G04 #@! TO.N,/12V*
X27950000Y-22835000D03*
G04 #@! TO.P,J9,4,Pin_4*
G04 #@! TO.N,/GND*
X30490000Y-22835000D03*
G04 #@! TD*
D10*
G04 #@! TO.P,5V,1,Pin_1*
G04 #@! TO.N,/5V*
X78765000Y-44480000D03*
D11*
G04 #@! TO.P,5V,2,Pin_2*
X78765000Y-47020000D03*
G04 #@! TO.P,5V,3,Pin_3*
X78765000Y-49560000D03*
G04 #@! TO.P,5V,4,Pin_4*
X78765000Y-52100000D03*
G04 #@! TO.P,5V,5,Pin_5*
X78765000Y-54640000D03*
G04 #@! TD*
D10*
G04 #@! TO.P,J31,1,Pin_1*
G04 #@! TO.N,Net-(J36-Pad2)*
X120650000Y-60203800D03*
D11*
G04 #@! TO.P,J31,2,Pin_2*
G04 #@! TO.N,unconnected-(J31-Pad2)*
X120650000Y-62743800D03*
G04 #@! TO.P,J31,3,Pin_3*
G04 #@! TO.N,unconnected-(J31-Pad3)*
X120650000Y-65283800D03*
G04 #@! TO.P,J31,4,Pin_4*
G04 #@! TO.N,unconnected-(J31-Pad4)*
X120650000Y-67823800D03*
G04 #@! TO.P,J31,5,Pin_5*
G04 #@! TO.N,Net-(J36-Pad3)*
X120650000Y-70363800D03*
G04 #@! TD*
D10*
G04 #@! TO.P,J28,1,Pin_1*
G04 #@! TO.N,Net-(J27-Pad7)*
X106680000Y-106805800D03*
D11*
G04 #@! TO.P,J28,2,Pin_2*
G04 #@! TO.N,Net-(J27-Pad8)*
X106680000Y-109345800D03*
G04 #@! TO.P,J28,3,Pin_3*
G04 #@! TO.N,Net-(J27-Pad9)*
X106680000Y-111885800D03*
G04 #@! TD*
D10*
G04 #@! TO.P,J3,1,Pin_1*
G04 #@! TO.N,/3V3*
X31526800Y-81588200D03*
D11*
G04 #@! TO.P,J3,2,Pin_2*
G04 #@! TO.N,/GND*
X31526800Y-84128200D03*
G04 #@! TO.P,J3,3,Pin_3*
G04 #@! TO.N,Net-(J18-Pad1)*
X31526800Y-86668200D03*
G04 #@! TO.P,J3,4,Pin_4*
G04 #@! TO.N,Net-(J18-Pad2)*
X31526800Y-89208200D03*
G04 #@! TO.P,J3,5,Pin_5*
G04 #@! TO.N,Net-(J18-Pad3)*
X31526800Y-91748200D03*
G04 #@! TO.P,J3,6,Pin_6*
G04 #@! TO.N,Net-(J18-Pad4)*
X31526800Y-94288200D03*
G04 #@! TO.P,J3,7,Pin_7*
G04 #@! TO.N,Net-(J18-Pad5)*
X31526800Y-96828200D03*
G04 #@! TO.P,J3,8,Pin_8*
G04 #@! TO.N,/D5*
X31526800Y-99368200D03*
G04 #@! TO.P,J3,9,Pin_9*
G04 #@! TO.N,/D18*
X31526800Y-101908200D03*
G04 #@! TO.P,J3,10,Pin_10*
G04 #@! TO.N,/D19*
X31526800Y-104448200D03*
G04 #@! TO.P,J3,11,Pin_11*
G04 #@! TO.N,/D21*
X31526800Y-106988200D03*
G04 #@! TO.P,J3,12,Pin_12*
G04 #@! TO.N,Net-(J19-Pad1)*
X31526800Y-109528200D03*
G04 #@! TO.P,J3,13,Pin_13*
G04 #@! TO.N,Net-(J19-Pad2)*
X31526800Y-112068200D03*
G04 #@! TO.P,J3,14,Pin_14*
G04 #@! TO.N,/D22*
X31526800Y-114608200D03*
G04 #@! TO.P,J3,15,Pin_15*
G04 #@! TO.N,/D23*
X31526800Y-117148200D03*
G04 #@! TD*
D10*
G04 #@! TO.P,J19,1,Pin_1*
G04 #@! TO.N,Net-(J19-Pad1)*
X22885000Y-109528200D03*
D11*
G04 #@! TO.P,J19,2,Pin_2*
G04 #@! TO.N,Net-(J19-Pad2)*
X22885000Y-112068200D03*
G04 #@! TD*
D10*
G04 #@! TO.P,J39,1,Pin_1*
G04 #@! TO.N,/G LED+*
X144805000Y-58953800D03*
D11*
G04 #@! TO.P,J39,2,Pin_2*
G04 #@! TO.N,/G LED-*
X144805000Y-61493800D03*
G04 #@! TO.P,J39,3,Pin_3*
G04 #@! TO.N,Net-(J36-Pad1)*
X144805000Y-64033800D03*
G04 #@! TO.P,J39,4,Pin_4*
G04 #@! TO.N,Net-(J36-Pad3)*
X144805000Y-66573800D03*
G04 #@! TO.P,J39,5,Pin_5*
G04 #@! TO.N,/12V*
X144805000Y-69113800D03*
G04 #@! TO.P,J39,6,Pin_6*
G04 #@! TO.N,unconnected-(J39-Pad6)*
X144805000Y-71653800D03*
G04 #@! TO.P,J39,7,Pin_7*
G04 #@! TO.N,/GND*
X144805000Y-74193800D03*
G04 #@! TD*
D10*
G04 #@! TO.P,J13,1,Pin_1*
G04 #@! TO.N,/IR LED+*
X45720000Y-22860000D03*
D11*
G04 #@! TO.P,J13,2,Pin_2*
G04 #@! TO.N,/IR LED-*
X43180000Y-22860000D03*
G04 #@! TD*
D10*
G04 #@! TO.P,J24,1,Pin_1*
G04 #@! TO.N,Net-(J24-Pad1)*
X67335000Y-86668200D03*
D11*
G04 #@! TO.P,J24,2,Pin_2*
G04 #@! TO.N,Net-(J24-Pad2)*
X67335000Y-89208200D03*
G04 #@! TO.P,J24,3,Pin_3*
G04 #@! TO.N,Net-(J24-Pad3)*
X67335000Y-91748200D03*
G04 #@! TD*
D10*
G04 #@! TO.P,J12,1,Pin_1*
G04 #@! TO.N,/W LED+*
X80010000Y-22860000D03*
D11*
G04 #@! TO.P,J12,2,Pin_2*
G04 #@! TO.N,/W LED-*
X77470000Y-22860000D03*
G04 #@! TD*
D10*
G04 #@! TO.P,J1,1,Pin_1*
G04 #@! TO.N,/GND*
X133350000Y-20320000D03*
D11*
G04 #@! TO.P,J1,2,Pin_2*
G04 #@! TO.N,/5V*
X133350000Y-22860000D03*
G04 #@! TD*
D10*
G04 #@! TO.P,J17,1,Pin_1*
G04 #@! TO.N,Net-(J20-Pad2)*
X115595000Y-102113800D03*
D11*
G04 #@! TO.P,J17,2,Pin_2*
G04 #@! TO.N,unconnected-(J17-Pad2)*
X115595000Y-104653800D03*
G04 #@! TO.P,J17,3,Pin_3*
G04 #@! TO.N,unconnected-(J17-Pad3)*
X115595000Y-107193800D03*
G04 #@! TO.P,J17,4,Pin_4*
G04 #@! TO.N,unconnected-(J17-Pad4)*
X115595000Y-109733800D03*
G04 #@! TO.P,J17,5,Pin_5*
G04 #@! TO.N,/HV4*
X115595000Y-112273800D03*
G04 #@! TD*
D10*
G04 #@! TO.P,J22,1,Pin_1*
G04 #@! TO.N,Net-(J20-Pad1)*
X135890000Y-105923800D03*
D11*
G04 #@! TO.P,J22,2,Pin_2*
G04 #@! TO.N,Net-(J20-Pad3)*
X135890000Y-108463800D03*
G04 #@! TO.P,J22,3,Pin_3*
X135890000Y-111003800D03*
G04 #@! TD*
D10*
G04 #@! TO.P,J26,1,Pin_1*
G04 #@! TO.N,/IR LED+*
X144780000Y-102113800D03*
D11*
G04 #@! TO.P,J26,2,Pin_2*
G04 #@! TO.N,/IR LED-*
X144780000Y-104653800D03*
G04 #@! TO.P,J26,3,Pin_3*
G04 #@! TO.N,Net-(J20-Pad1)*
X144780000Y-107193800D03*
G04 #@! TO.P,J26,4,Pin_4*
G04 #@! TO.N,Net-(J20-Pad3)*
X144780000Y-109733800D03*
G04 #@! TO.P,J26,5,Pin_5*
G04 #@! TO.N,/12V*
X144780000Y-112273800D03*
G04 #@! TO.P,J26,6,Pin_6*
G04 #@! TO.N,unconnected-(J26-Pad6)*
X144780000Y-114813800D03*
G04 #@! TO.P,J26,7,Pin_7*
G04 #@! TO.N,/GND*
X144780000Y-117353800D03*
G04 #@! TD*
D10*
G04 #@! TO.P,J23,1,Pin_1*
G04 #@! TO.N,/3V3*
X86360000Y-91440000D03*
D11*
G04 #@! TO.P,J23,2,Pin_2*
G04 #@! TO.N,/D27*
X86360000Y-93980000D03*
G04 #@! TO.P,J23,3,Pin_3*
G04 #@! TO.N,/D26*
X86360000Y-96520000D03*
G04 #@! TO.P,J23,4,Pin_4*
G04 #@! TO.N,/D25*
X86360000Y-99060000D03*
G04 #@! TO.P,J23,5,Pin_5*
G04 #@! TO.N,/D33*
X86360000Y-101600000D03*
G04 #@! TO.P,J23,6,Pin_6*
G04 #@! TO.N,/D32*
X86360000Y-104140000D03*
G04 #@! TO.P,J23,7,Pin_7*
G04 #@! TO.N,Net-(J21-Pad1)*
X86360000Y-106680000D03*
G04 #@! TO.P,J23,8,Pin_8*
G04 #@! TO.N,Net-(J21-Pad2)*
X86360000Y-109220000D03*
G04 #@! TO.P,J23,9,Pin_9*
G04 #@! TO.N,Net-(J21-Pad3)*
X86360000Y-111760000D03*
G04 #@! TO.P,J23,10,Pin_10*
G04 #@! TO.N,/3V3*
X86360000Y-114300000D03*
G04 #@! TD*
D10*
G04 #@! TO.P,J14,1,Pin_1*
G04 #@! TO.N,/GND*
X77470000Y-129540000D03*
D11*
G04 #@! TO.P,J14,2,Pin_2*
G04 #@! TO.N,/5V*
X80010000Y-129540000D03*
G04 #@! TO.P,J14,3,Pin_3*
G04 #@! TO.N,/D21*
X82550000Y-129540000D03*
G04 #@! TO.P,J14,4,Pin_4*
G04 #@! TO.N,/D22*
X85090000Y-129540000D03*
G04 #@! TD*
D10*
G04 #@! TO.P,J37,1,Pin_1*
G04 #@! TO.N,Net-(J37-Pad1)*
X133350000Y-83063800D03*
D11*
G04 #@! TO.P,J37,2,Pin_2*
G04 #@! TO.N,Net-(J34-Pad1)*
X133350000Y-85603800D03*
G04 #@! TO.P,J37,3,Pin_3*
G04 #@! TO.N,Net-(J37-Pad3)*
X133350000Y-88143800D03*
G04 #@! TD*
D10*
G04 #@! TO.P,J2,1,Pin_1*
G04 #@! TO.N,/12V*
X111760000Y-20320000D03*
D11*
G04 #@! TO.P,J2,2,Pin_2*
G04 #@! TO.N,/GND*
X111760000Y-22860000D03*
G04 #@! TD*
D10*
G04 #@! TO.P,J38,1,Pin_1*
G04 #@! TO.N,/W LED+*
X144805000Y-36093800D03*
D11*
G04 #@! TO.P,J38,2,Pin_2*
G04 #@! TO.N,/W LED-*
X144805000Y-38633800D03*
G04 #@! TO.P,J38,3,Pin_3*
G04 #@! TO.N,Net-(J35-Pad1)*
X144805000Y-41173800D03*
G04 #@! TO.P,J38,4,Pin_4*
G04 #@! TO.N,Net-(J35-Pad3)*
X144805000Y-43713800D03*
G04 #@! TO.P,J38,5,Pin_5*
G04 #@! TO.N,/12V*
X144805000Y-46253800D03*
G04 #@! TO.P,J38,6,Pin_6*
G04 #@! TO.N,unconnected-(J38-Pad6)*
X144805000Y-48793800D03*
G04 #@! TO.P,J38,7,Pin_7*
G04 #@! TO.N,/GND*
X144805000Y-51333800D03*
G04 #@! TD*
D10*
G04 #@! TO.P,J34,1,Pin_1*
G04 #@! TO.N,Net-(J34-Pad1)*
X115570000Y-80523800D03*
D11*
G04 #@! TO.P,J34,2,Pin_2*
G04 #@! TO.N,unconnected-(J34-Pad2)*
X115570000Y-83063800D03*
G04 #@! TO.P,J34,3,Pin_3*
G04 #@! TO.N,unconnected-(J34-Pad3)*
X115570000Y-85603800D03*
G04 #@! TO.P,J34,4,Pin_4*
G04 #@! TO.N,unconnected-(J34-Pad4)*
X115570000Y-88143800D03*
G04 #@! TO.P,J34,5,Pin_5*
G04 #@! TO.N,/HV3*
X115570000Y-90683800D03*
G04 #@! TD*
D10*
G04 #@! TO.P,12V,1,Pin_1*
G04 #@! TO.N,/12V*
X63500000Y-44450000D03*
D11*
G04 #@! TO.P,12V,2,Pin_2*
X63500000Y-46990000D03*
G04 #@! TO.P,12V,3,Pin_3*
X63500000Y-49530000D03*
G04 #@! TO.P,12V,4,Pin_4*
X63500000Y-52070000D03*
G04 #@! TO.P,12V,5,Pin_5*
X63500000Y-54610000D03*
G04 #@! TD*
D10*
G04 #@! TO.P,J18,1,Pin_1*
G04 #@! TO.N,Net-(J18-Pad1)*
X22885000Y-87146200D03*
D11*
G04 #@! TO.P,J18,2,Pin_2*
G04 #@! TO.N,Net-(J18-Pad2)*
X22885000Y-89686200D03*
G04 #@! TO.P,J18,3,Pin_3*
G04 #@! TO.N,Net-(J18-Pad3)*
X22885000Y-92226200D03*
G04 #@! TO.P,J18,4,Pin_4*
G04 #@! TO.N,Net-(J18-Pad4)*
X22885000Y-94766200D03*
G04 #@! TO.P,J18,5,Pin_5*
G04 #@! TO.N,Net-(J18-Pad5)*
X22885000Y-97306200D03*
G04 #@! TD*
D12*
G04 #@! TO.N,/5V*
X74916583Y-62243417D03*
X76213417Y-60946583D03*
G04 #@! TO.N,/D21*
X76200000Y-127635000D03*
X36830000Y-109220000D03*
X34290000Y-109220000D03*
X73660000Y-127635000D03*
G04 #@! TO.N,/D22*
X73660000Y-126365000D03*
X34290000Y-115570000D03*
X76200000Y-126365000D03*
X38100000Y-115370260D03*
G04 #@! TO.N,/R LED+*
X81908286Y-34904880D03*
X83820000Y-36830000D03*
G04 #@! TO.N,/R LED-*
X83082783Y-37504919D03*
X81201531Y-35611635D03*
G04 #@! TO.N,/G LED+*
X85076583Y-31736583D03*
X86963851Y-33623851D03*
G04 #@! TO.N,/G LED-*
X86291803Y-34363688D03*
X84369828Y-32443338D03*
G04 #@! TO.N,/W LED+*
X102870000Y-29210000D03*
X100316583Y-27926583D03*
G04 #@! TO.N,/W LED-*
X101600000Y-30480000D03*
X99046583Y-29196583D03*
G04 #@! TO.N,/IR LED+*
X81280000Y-39370000D03*
X79368286Y-37444880D03*
G04 #@! TO.N,/IR LED-*
X78661531Y-38151635D03*
X80542783Y-40044919D03*
G04 #@! TO.N,/HV2*
X111760000Y-69850000D03*
X105410000Y-69850000D03*
G04 #@! TO.N,/HV3*
X111773417Y-92696583D03*
X109474000Y-96266000D03*
G04 #@! TO.N,/HV1*
X111760000Y-46990000D03*
X105396583Y-53353417D03*
G04 #@! TD*
D13*
G04 #@! TO.N,/5V*
X80010000Y-129540000D02*
X80010000Y-130810000D01*
X18034000Y-124714000D02*
X18034000Y-81026000D01*
X37871000Y-57175000D02*
X56926800Y-76230800D01*
X27686000Y-134366000D02*
X18034000Y-124714000D01*
X22860000Y-60960000D02*
X26645000Y-57175000D01*
X78765000Y-54640000D02*
X78765000Y-44480000D01*
X22860000Y-76200000D02*
X22860000Y-60960000D01*
X76454000Y-134366000D02*
X27686000Y-134366000D01*
X99060000Y-81280000D02*
X81026000Y-63246000D01*
X81026000Y-56901000D02*
X78765000Y-54640000D01*
X26645000Y-57175000D02*
X33045000Y-57175000D01*
X78765000Y-44480000D02*
X78765000Y-40525868D01*
X31775000Y-57175000D02*
X33045000Y-57175000D01*
X33045000Y-57175000D02*
X37871000Y-57175000D01*
X71120000Y-62230000D02*
X74930000Y-62230000D01*
X128600000Y-27550000D02*
X133290000Y-22860000D01*
X56926800Y-76230800D02*
X56926800Y-76423200D01*
X80010000Y-130810000D02*
X76454000Y-134366000D01*
X78765000Y-54640000D02*
X78737500Y-54640000D01*
X76226834Y-60960000D02*
X76213417Y-60946583D01*
X56926800Y-76423200D02*
X56926800Y-81588200D01*
X103170868Y-27550000D02*
X128600000Y-27550000D01*
X56926800Y-76423200D02*
X71120000Y-62230000D01*
X78765000Y-40525868D02*
X87540868Y-31750000D01*
X98970868Y-31750000D02*
X103170868Y-27550000D01*
X133290000Y-22860000D02*
X133350000Y-22860000D01*
X76213417Y-57164083D02*
X76213417Y-60946583D01*
X18034000Y-81026000D02*
X22860000Y-76200000D01*
X87540868Y-31750000D02*
X98970868Y-31750000D01*
X78737500Y-54640000D02*
X76213417Y-57164083D01*
X81026000Y-63246000D02*
X81026000Y-56901000D01*
X99060000Y-91440000D02*
X99060000Y-81280000D01*
G04 #@! TO.N,/12V*
X147320000Y-66598800D02*
X144805000Y-69113800D01*
X109220000Y-17780000D02*
X111760000Y-20320000D01*
X147320000Y-66040000D02*
X147320000Y-87101200D01*
X147320000Y-87101200D02*
X144780000Y-89641200D01*
X140462000Y-17780000D02*
X147320000Y-24638000D01*
X63500000Y-44450000D02*
X73660000Y-44450000D01*
X27950000Y-20056000D02*
X30226000Y-17780000D01*
X147320000Y-87101200D02*
X147320000Y-109733800D01*
X27950000Y-22835000D02*
X27950000Y-20056000D01*
X63500000Y-54610000D02*
X63500000Y-44450000D01*
X30226000Y-17780000D02*
X109220000Y-17780000D01*
X73660000Y-44450000D02*
X87630000Y-30480000D01*
X101600000Y-27940000D02*
X101600000Y-17780000D01*
X147320000Y-66040000D02*
X147320000Y-66598800D01*
X147320000Y-24638000D02*
X147320000Y-43738800D01*
X87630000Y-30480000D02*
X99060000Y-30480000D01*
X147320000Y-43738800D02*
X144805000Y-46253800D01*
X111760000Y-20320000D02*
X114300000Y-17780000D01*
X114300000Y-17780000D02*
X140462000Y-17780000D01*
X147320000Y-109733800D02*
X144780000Y-112273800D01*
X147320000Y-43738800D02*
X147320000Y-66040000D01*
X99060000Y-30480000D02*
X101600000Y-27940000D01*
G04 #@! TO.N,/3V3*
X58420000Y-130810000D02*
X58420000Y-132080000D01*
X76200000Y-123190000D02*
X85090000Y-123190000D01*
X74930000Y-128778000D02*
X74930000Y-124460000D01*
X31218600Y-81280000D02*
X31526800Y-81588200D01*
X89992200Y-114300000D02*
X92710000Y-111582200D01*
X86360000Y-114300000D02*
X89992200Y-114300000D01*
X58420000Y-132724500D02*
X31124500Y-132724500D01*
X74930000Y-124460000D02*
X76200000Y-123190000D01*
X19558000Y-121158000D02*
X19558000Y-83312000D01*
X90170000Y-91440000D02*
X86360000Y-91440000D01*
X19558000Y-83312000D02*
X21590000Y-81280000D01*
X70983500Y-132724500D02*
X74930000Y-128778000D01*
X21590000Y-81280000D02*
X31218600Y-81280000D01*
X31124500Y-132724500D02*
X19558000Y-121158000D01*
X86360000Y-121920000D02*
X86360000Y-114300000D01*
X92710000Y-93980000D02*
X90170000Y-91440000D01*
X92710000Y-111582200D02*
X92710000Y-93980000D01*
X85090000Y-123190000D02*
X86360000Y-121920000D01*
X58420000Y-132724500D02*
X70983500Y-132724500D01*
X57150000Y-129540000D02*
X58420000Y-130810000D01*
X58420000Y-132080000D02*
X58420000Y-132724500D01*
D14*
G04 #@! TO.N,Net-(J18-Pad1)*
X22885000Y-87146200D02*
X31425200Y-87146200D01*
X31425200Y-87146200D02*
X31526800Y-87044600D01*
G04 #@! TO.N,Net-(J18-Pad2)*
X31425200Y-89686200D02*
X31526800Y-89584600D01*
X22885000Y-89686200D02*
X31425200Y-89686200D01*
G04 #@! TO.N,Net-(J18-Pad3)*
X31425200Y-92226200D02*
X31526800Y-92124600D01*
X22885000Y-92226200D02*
X31425200Y-92226200D01*
G04 #@! TO.N,Net-(J18-Pad4)*
X31526800Y-94664600D02*
X22986600Y-94664600D01*
X22986600Y-94664600D02*
X22885000Y-94766200D01*
G04 #@! TO.N,Net-(J18-Pad5)*
X31425200Y-97306200D02*
X31526800Y-97204600D01*
X22885000Y-97306200D02*
X31425200Y-97306200D01*
D15*
G04 #@! TO.N,/D5*
X31526800Y-99368200D02*
X34598200Y-99368200D01*
X52070000Y-125730000D02*
X54610000Y-128270000D01*
X46362052Y-125730000D02*
X52070000Y-125730000D01*
X54610000Y-128270000D02*
X54610000Y-129540000D01*
X36068000Y-100838000D02*
X36068000Y-115435948D01*
X36068000Y-115435948D02*
X46362052Y-125730000D01*
X34598200Y-99368200D02*
X36068000Y-100838000D01*
G04 #@! TO.N,/D18*
X31526800Y-101908200D02*
X33328200Y-101908200D01*
X35560000Y-115570000D02*
X49530000Y-129540000D01*
X35560000Y-104140000D02*
X35560000Y-115570000D01*
X33328200Y-101908200D02*
X35560000Y-104140000D01*
G04 #@! TO.N,/D19*
X46990000Y-127642052D02*
X46990000Y-129540000D01*
X35106000Y-108027400D02*
X35106000Y-115758052D01*
X31526800Y-104448200D02*
X35106000Y-108027400D01*
X35106000Y-115758052D02*
X46990000Y-127642052D01*
G04 #@! TO.N,/D21*
X76200000Y-127635000D02*
X81280000Y-127635000D01*
X31775000Y-62255000D02*
X34315000Y-62255000D01*
X73479000Y-127454000D02*
X54436052Y-127454000D01*
X73660000Y-127635000D02*
X73479000Y-127454000D01*
X54436052Y-127454000D02*
X52258052Y-125276000D01*
X31526800Y-106988200D02*
X32058200Y-106988200D01*
X46550104Y-125276000D02*
X36830000Y-115555896D01*
X36830000Y-115555896D02*
X36830000Y-109220000D01*
X36830000Y-99060000D02*
X36830000Y-109220000D01*
X52258052Y-125276000D02*
X46550104Y-125276000D01*
X32058200Y-106988200D02*
X34290000Y-109220000D01*
X35560000Y-63500000D02*
X35560000Y-97790000D01*
X35560000Y-97790000D02*
X36830000Y-99060000D01*
X81280000Y-127635000D02*
X82550000Y-128905000D01*
X34315000Y-62255000D02*
X35560000Y-63500000D01*
X82550000Y-128905000D02*
X82550000Y-129540000D01*
D14*
G04 #@! TO.N,Net-(J19-Pad1)*
X22915000Y-109498200D02*
X31496800Y-109498200D01*
X22885000Y-109528200D02*
X22915000Y-109498200D01*
X31496800Y-109498200D02*
X31526800Y-109528200D01*
G04 #@! TO.N,Net-(J19-Pad2)*
X31526800Y-112068200D02*
X22885000Y-112068200D01*
D15*
G04 #@! TO.N,/D22*
X38100000Y-115570000D02*
X38100000Y-115370260D01*
X37557000Y-98517000D02*
X37557000Y-114827260D01*
X85090000Y-128905000D02*
X85090000Y-129540000D01*
X73025000Y-127000000D02*
X54624104Y-127000000D01*
X31775000Y-59715000D02*
X34315000Y-59715000D01*
X33328200Y-114608200D02*
X34290000Y-115570000D01*
X76835000Y-127000000D02*
X83185000Y-127000000D01*
X37557000Y-114827260D02*
X38100000Y-115370260D01*
X31526800Y-114608200D02*
X33328200Y-114608200D01*
X76200000Y-126365000D02*
X76835000Y-127000000D01*
X54624104Y-127000000D02*
X52446104Y-124822000D01*
X52446104Y-124822000D02*
X47352000Y-124822000D01*
X36830000Y-97790000D02*
X37557000Y-98517000D01*
X47352000Y-124822000D02*
X38100000Y-115570000D01*
X83185000Y-127000000D02*
X85090000Y-128905000D01*
X73660000Y-126365000D02*
X73025000Y-127000000D01*
X36830000Y-62230000D02*
X36830000Y-97790000D01*
X34315000Y-59715000D02*
X36830000Y-62230000D01*
G04 #@! TO.N,/D23*
X52070000Y-130302000D02*
X50546000Y-131826000D01*
X39370000Y-124991400D02*
X31526800Y-117148200D01*
X52070000Y-129540000D02*
X52070000Y-130302000D01*
X50546000Y-131826000D02*
X42164000Y-131826000D01*
X42164000Y-131826000D02*
X39370000Y-129032000D01*
X39370000Y-129032000D02*
X39370000Y-124991400D01*
G04 #@! TO.N,Net-(J24-Pad1)*
X67335000Y-86668200D02*
X67299200Y-86704000D01*
X67299200Y-86704000D02*
X56962600Y-86704000D01*
X56962600Y-86704000D02*
X56926800Y-86668200D01*
G04 #@! TO.N,Net-(J24-Pad2)*
X67299200Y-89244000D02*
X56962600Y-89244000D01*
X67335000Y-89208200D02*
X67299200Y-89244000D01*
X56962600Y-89244000D02*
X56926800Y-89208200D01*
G04 #@! TO.N,Net-(J24-Pad3)*
X56962600Y-91784000D02*
X56926800Y-91748200D01*
X67335000Y-91748200D02*
X67299200Y-91784000D01*
X67299200Y-91784000D02*
X56962600Y-91784000D01*
G04 #@! TO.N,/D27*
X83820000Y-96520000D02*
X59158600Y-96520000D01*
X59158600Y-96520000D02*
X56926800Y-94288200D01*
X86360000Y-93980000D02*
X83820000Y-96520000D01*
G04 #@! TO.N,/D26*
X57888600Y-97790000D02*
X85090000Y-97790000D01*
X85090000Y-97790000D02*
X86360000Y-96520000D01*
X56926800Y-96828200D02*
X57888600Y-97790000D01*
G04 #@! TO.N,/D25*
X86360000Y-99060000D02*
X57235000Y-99060000D01*
X57235000Y-99060000D02*
X56926800Y-99368200D01*
G04 #@! TO.N,/D33*
X85090000Y-100330000D02*
X86360000Y-101600000D01*
X56926800Y-101908200D02*
X58505000Y-100330000D01*
X58505000Y-100330000D02*
X85090000Y-100330000D01*
G04 #@! TO.N,/D32*
X56926800Y-104448200D02*
X59775000Y-101600000D01*
X59775000Y-101600000D02*
X83820000Y-101600000D01*
X83820000Y-101600000D02*
X86360000Y-104140000D01*
D14*
G04 #@! TO.N,Net-(J25-Pad1)*
X56926800Y-106988200D02*
X67335000Y-106988200D01*
G04 #@! TO.N,Net-(J25-Pad2)*
X67335000Y-109528200D02*
X56926800Y-109528200D01*
G04 #@! TO.N,Net-(J25-Pad3)*
X56926800Y-112068200D02*
X67335000Y-112068200D01*
G04 #@! TO.N,Net-(J25-Pad4)*
X67335000Y-114608200D02*
X56926800Y-114608200D01*
G04 #@! TO.N,Net-(J25-Pad5)*
X56926800Y-117148200D02*
X67335000Y-117148200D01*
D13*
G04 #@! TO.N,/HV5*
X98044000Y-104140000D02*
X96520000Y-102616000D01*
X50292000Y-59690000D02*
X22870000Y-32268000D01*
X22870000Y-32268000D02*
X22870000Y-22835000D01*
X99060000Y-104140000D02*
X98044000Y-104140000D01*
X96520000Y-82550000D02*
X73660000Y-59690000D01*
X73660000Y-59690000D02*
X50292000Y-59690000D01*
X96520000Y-102616000D02*
X96520000Y-82550000D01*
G04 #@! TO.N,/R LED+*
X67220868Y-34290000D02*
X57150000Y-24219132D01*
X81293406Y-34290000D02*
X67220868Y-34290000D01*
X57150000Y-24219132D02*
X57150000Y-22860000D01*
X94488000Y-35560000D02*
X110490000Y-51562000D01*
X110490000Y-71628000D02*
X113792000Y-74930000D01*
X110490000Y-51562000D02*
X110490000Y-71628000D01*
X136123200Y-79481200D02*
X144780000Y-79481200D01*
X113792000Y-74930000D02*
X131572000Y-74930000D01*
X131572000Y-74930000D02*
X136123200Y-79481200D01*
X83820000Y-36830000D02*
X85090000Y-35560000D01*
X81908286Y-34904880D02*
X81293406Y-34290000D01*
X85090000Y-35560000D02*
X94488000Y-35560000D01*
G04 #@! TO.N,/R LED-*
X54610000Y-24130000D02*
X54610000Y-22860000D01*
X136720332Y-82021200D02*
X144780000Y-82021200D01*
X130899132Y-76200000D02*
X136720332Y-82021200D01*
X93980000Y-36830000D02*
X109220000Y-52070000D01*
X66040000Y-35560000D02*
X54610000Y-24130000D01*
X109220000Y-72390000D02*
X113030000Y-76200000D01*
X84200041Y-37747500D02*
X85117541Y-36830000D01*
X81149896Y-35560000D02*
X66040000Y-35560000D01*
X109220000Y-52070000D02*
X109220000Y-72390000D01*
X83325364Y-37747500D02*
X84200041Y-37747500D01*
X85117541Y-36830000D02*
X93980000Y-36830000D01*
X81201531Y-35611635D02*
X81149896Y-35560000D01*
X83082783Y-37504919D02*
X83325364Y-37747500D01*
X113030000Y-76200000D02*
X130899132Y-76200000D01*
G04 #@! TO.N,/G LED+*
X86963851Y-33623851D02*
X97123851Y-33623851D01*
X83566000Y-30226000D02*
X72898000Y-30226000D01*
X97123851Y-33623851D02*
X110842500Y-47342500D01*
X110842500Y-47342500D02*
X110842500Y-47370041D01*
X72898000Y-30226000D02*
X68580000Y-25908000D01*
X85076583Y-31736583D02*
X83566000Y-30226000D01*
X110842500Y-47370041D02*
X115542459Y-52070000D01*
X134620000Y-52070000D02*
X141503800Y-58953800D01*
X141503800Y-58953800D02*
X144805000Y-58953800D01*
X68580000Y-25908000D02*
X68580000Y-22860000D01*
X115542459Y-52070000D02*
X134620000Y-52070000D01*
G04 #@! TO.N,/G LED-*
X71955000Y-31315000D02*
X66040000Y-25400000D01*
X84369828Y-32443338D02*
X83241490Y-31315000D01*
X86469466Y-34541351D02*
X96225483Y-34541351D01*
X83241490Y-31315000D02*
X71955000Y-31315000D01*
X115024132Y-53340000D02*
X133350000Y-53340000D01*
X133350000Y-53340000D02*
X141503800Y-61493800D01*
X96225483Y-34541351D02*
X115024132Y-53340000D01*
X66040000Y-25400000D02*
X66040000Y-22860000D01*
X141503800Y-61493800D02*
X144805000Y-61493800D01*
X86291803Y-34363688D02*
X86469466Y-34541351D01*
G04 #@! TO.N,/W LED+*
X102870000Y-29210000D02*
X135382000Y-29210000D01*
X142265800Y-36093800D02*
X144805000Y-36093800D01*
X80010000Y-22860000D02*
X80010000Y-24130000D01*
X100303166Y-27940000D02*
X100316583Y-27926583D01*
X83820000Y-27940000D02*
X100303166Y-27940000D01*
X80010000Y-24130000D02*
X83820000Y-27940000D01*
X135382000Y-29210000D02*
X142265800Y-36093800D01*
G04 #@! TO.N,/W LED-*
X99046583Y-29196583D02*
X82604503Y-29196583D01*
X77470000Y-22860000D02*
X77470000Y-24062081D01*
X82604503Y-29196583D02*
X82583960Y-29176040D01*
X142862932Y-38633800D02*
X144805000Y-38633800D01*
X134709132Y-30480000D02*
X142862932Y-38633800D01*
X101600000Y-30480000D02*
X134709132Y-30480000D01*
X77470000Y-24062081D02*
X82583960Y-29176040D01*
G04 #@! TO.N,/IR LED+*
X139959800Y-102113800D02*
X134366000Y-96520000D01*
X58674000Y-36830000D02*
X45720000Y-23876000D01*
X94488000Y-39370000D02*
X81280000Y-39370000D01*
X134366000Y-96520000D02*
X113538000Y-96520000D01*
X144780000Y-102113800D02*
X139959800Y-102113800D01*
X79368286Y-37444880D02*
X78753406Y-36830000D01*
X45720000Y-23876000D02*
X45720000Y-22860000D01*
X107950000Y-52832000D02*
X94488000Y-39370000D01*
X113538000Y-96520000D02*
X107950000Y-90932000D01*
X78753406Y-36830000D02*
X58674000Y-36830000D01*
X107950000Y-90932000D02*
X107950000Y-52832000D01*
G04 #@! TO.N,/IR LED-*
X140213800Y-104653800D02*
X144780000Y-104653800D01*
X56642000Y-38100000D02*
X43180000Y-24638000D01*
X133350000Y-97790000D02*
X140213800Y-104653800D01*
X81137864Y-40640000D02*
X93980000Y-40640000D01*
X93980000Y-40640000D02*
X106680000Y-53340000D01*
X106680000Y-53340000D02*
X106680000Y-91440000D01*
X78661531Y-38151635D02*
X78609896Y-38100000D01*
X106680000Y-91440000D02*
X113030000Y-97790000D01*
X113030000Y-97790000D02*
X133350000Y-97790000D01*
X80542783Y-40044919D02*
X81137864Y-40640000D01*
X43180000Y-24638000D02*
X43180000Y-22860000D01*
X78609896Y-38100000D02*
X56642000Y-38100000D01*
G04 #@! TO.N,/HV4*
X111760000Y-104902000D02*
X111760000Y-110490000D01*
X99060000Y-101600000D02*
X108458000Y-101600000D01*
X108458000Y-101600000D02*
X111760000Y-104902000D01*
X113543800Y-112273800D02*
X115595000Y-112273800D01*
X111760000Y-110490000D02*
X113543800Y-112273800D01*
D15*
G04 #@! TO.N,Net-(J20-Pad1)*
X143510000Y-105923800D02*
X135890000Y-105923800D01*
X135875000Y-105938800D02*
X129555000Y-105938800D01*
X135890000Y-105923800D02*
X135875000Y-105938800D01*
X144780000Y-107193800D02*
X143510000Y-105923800D01*
X129555000Y-105938800D02*
X129540000Y-105923800D01*
G04 #@! TO.N,Net-(J21-Pad1)*
X78740000Y-106988200D02*
X78755000Y-106973200D01*
X78755000Y-106973200D02*
X86066800Y-106973200D01*
X86066800Y-106973200D02*
X86360000Y-106680000D01*
G04 #@! TO.N,Net-(J21-Pad2)*
X78755000Y-109513200D02*
X86066800Y-109513200D01*
X78740000Y-109528200D02*
X78755000Y-109513200D01*
X86066800Y-109513200D02*
X86360000Y-109220000D01*
G04 #@! TO.N,Net-(J21-Pad3)*
X78740000Y-112068200D02*
X78755000Y-112053200D01*
X86066800Y-112053200D02*
X86360000Y-111760000D01*
X78755000Y-112053200D02*
X86066800Y-112053200D01*
D13*
G04 #@! TO.N,/HV2*
X115595000Y-70393800D02*
X112303800Y-70393800D01*
X99060000Y-96520000D02*
X105410000Y-90170000D01*
X105410000Y-90170000D02*
X105410000Y-69850000D01*
X112303800Y-70393800D02*
X111760000Y-69850000D01*
G04 #@! TO.N,/HV3*
X111773417Y-92696583D02*
X113786200Y-90683800D01*
X106680000Y-99060000D02*
X99060000Y-99060000D01*
X109474000Y-96266000D02*
X106680000Y-99060000D01*
X113786200Y-90683800D02*
X115570000Y-90683800D01*
D15*
G04 #@! TO.N,Net-(J27-Pad7)*
X106614200Y-106740000D02*
X106680000Y-106805800D01*
X99060000Y-106680000D02*
X99120000Y-106740000D01*
D13*
X99120000Y-106740000D02*
X106614200Y-106740000D01*
G04 #@! TO.N,Net-(J27-Pad8)*
X99120000Y-109280000D02*
X106614200Y-109280000D01*
D15*
X106614200Y-109280000D02*
X106680000Y-109345800D01*
X99060000Y-109220000D02*
X99120000Y-109280000D01*
D13*
G04 #@! TO.N,Net-(J27-Pad9)*
X99120000Y-111820000D02*
X106614200Y-111820000D01*
D15*
X106614200Y-111820000D02*
X106680000Y-111885800D01*
X99060000Y-111760000D02*
X99120000Y-111820000D01*
D13*
G04 #@! TO.N,/HV1*
X100330000Y-93980000D02*
X101600000Y-92710000D01*
X101600000Y-57150000D02*
X105396583Y-53353417D01*
X99060000Y-93980000D02*
X100330000Y-93980000D01*
X115595000Y-47533800D02*
X113573800Y-47533800D01*
X113573800Y-47533800D02*
X113030000Y-46990000D01*
X101600000Y-92710000D02*
X101600000Y-57150000D01*
X113030000Y-46990000D02*
X111760000Y-46990000D01*
D15*
G04 #@! TO.N,Net-(J35-Pad1)*
X133365000Y-39898800D02*
X133350000Y-39883800D01*
X139720000Y-41173800D02*
X144805000Y-41173800D01*
X133375000Y-39898800D02*
X133365000Y-39898800D01*
X133350000Y-39883800D02*
X138430000Y-39883800D01*
X138430000Y-39883800D02*
X139720000Y-41173800D01*
G04 #@! TO.N,Net-(J36-Pad1)*
X133375000Y-62758800D02*
X143530000Y-62758800D01*
X143530000Y-62758800D02*
X144805000Y-64033800D01*
G04 #@! TO.N,Net-(J37-Pad1)*
X133350000Y-83063800D02*
X143282600Y-83063800D01*
X143282600Y-83063800D02*
X144780000Y-84561200D01*
D14*
G04 #@! TO.N,Net-(J20-Pad2)*
X128783800Y-108463800D02*
X129540000Y-108463800D01*
D15*
X115595000Y-102113800D02*
X120650000Y-102113800D01*
D14*
X122433800Y-102113800D02*
X128783800Y-108463800D01*
X120650000Y-102113800D02*
X122433800Y-102113800D01*
G04 #@! TO.N,Net-(J20-Pad3)*
X135875000Y-111018800D02*
X129555000Y-111018800D01*
D15*
X120650000Y-112273800D02*
X123190000Y-112273800D01*
D14*
X143510000Y-111003800D02*
X135890000Y-111003800D01*
X135890000Y-111003800D02*
X135875000Y-111018800D01*
D15*
X123190000Y-112273800D02*
X124460000Y-111003800D01*
D14*
X135890000Y-108463800D02*
X135890000Y-111003800D01*
D15*
X124460000Y-111003800D02*
X129540000Y-111003800D01*
D14*
X144780000Y-109733800D02*
X143510000Y-111003800D01*
D15*
G04 #@! TO.N,Net-(J35-Pad2)*
X120675000Y-37373800D02*
X123220000Y-37373800D01*
X115595000Y-37373800D02*
X115595000Y-37368800D01*
X128285000Y-42438800D02*
X133375000Y-42438800D01*
X115600000Y-37373800D02*
X120675000Y-37373800D01*
X115595000Y-37368800D02*
X115600000Y-37373800D01*
X123220000Y-37373800D02*
X128285000Y-42438800D01*
G04 #@! TO.N,Net-(J35-Pad3)*
X120675000Y-47533800D02*
X125700000Y-47533800D01*
X138415000Y-44978800D02*
X139680000Y-43713800D01*
X128255000Y-44978800D02*
X133375000Y-44978800D01*
X139680000Y-43713800D02*
X144805000Y-43713800D01*
X133375000Y-44978800D02*
X138415000Y-44978800D01*
X125700000Y-47533800D02*
X128255000Y-44978800D01*
G04 #@! TO.N,Net-(J36-Pad2)*
X125730000Y-60203800D02*
X130825000Y-65298800D01*
X115595000Y-60233800D02*
X120620000Y-60233800D01*
X120620000Y-60233800D02*
X120650000Y-60203800D01*
X120650000Y-60203800D02*
X125730000Y-60203800D01*
X130825000Y-65298800D02*
X133375000Y-65298800D01*
G04 #@! TO.N,Net-(J36-Pad3)*
X129540000Y-67823800D02*
X129555000Y-67838800D01*
X129555000Y-67838800D02*
X133375000Y-67838800D01*
X127000000Y-70363800D02*
X129540000Y-67823800D01*
X133375000Y-67838800D02*
X143540000Y-67838800D01*
X120650000Y-70363800D02*
X127000000Y-70363800D01*
X143540000Y-67838800D02*
X144805000Y-66573800D01*
G04 #@! TO.N,Net-(J34-Pad1)*
X130810000Y-85603800D02*
X125730000Y-80523800D01*
X133350000Y-85603800D02*
X130810000Y-85603800D01*
X125730000Y-80523800D02*
X115570000Y-80523800D01*
G04 #@! TO.N,Net-(J37-Pad3)*
X120650000Y-90683800D02*
X124460000Y-90683800D01*
X132821800Y-88143800D02*
X143737400Y-88143800D01*
X124460000Y-90683800D02*
X127000000Y-88143800D01*
X127000000Y-88143800D02*
X133350000Y-88143800D01*
X143737400Y-88143800D02*
X144780000Y-87101200D01*
G04 #@! TD*
M02*
