G04 #@! TF.GenerationSoftware,KiCad,Pcbnew,(6.0.7)*
G04 #@! TF.CreationDate,2023-02-20T16:11:37-05:00*
G04 #@! TF.ProjectId,FlyBoxBoard,466c7942-6f78-4426-9f61-72642e6b6963,rev?*
G04 #@! TF.SameCoordinates,Original*
G04 #@! TF.FileFunction,Soldermask,Top*
G04 #@! TF.FilePolarity,Negative*
%FSLAX46Y46*%
G04 Gerber Fmt 4.6, Leading zero omitted, Abs format (unit mm)*
G04 Created by KiCad (PCBNEW (6.0.7)) date 2023-02-20 16:11:37*
%MOMM*%
%LPD*%
G01*
G04 APERTURE LIST*
%ADD10R,1.700000X1.700000*%
%ADD11O,1.700000X1.700000*%
G04 APERTURE END LIST*
D10*
G04 #@! TO.C,J20*
X129540000Y-105923800D03*
D11*
X129540000Y-108463800D03*
X129540000Y-111003800D03*
G04 #@! TD*
D10*
G04 #@! TO.C,J11*
X68580000Y-22860000D03*
D11*
X66040000Y-22860000D03*
G04 #@! TD*
D10*
G04 #@! TO.C,J33*
X120650000Y-80523800D03*
D11*
X120650000Y-83063800D03*
X120650000Y-85603800D03*
X120650000Y-88143800D03*
X120650000Y-90683800D03*
G04 #@! TD*
D10*
G04 #@! TO.C,J29*
X120675000Y-37373800D03*
D11*
X120675000Y-39913800D03*
X120675000Y-42453800D03*
X120675000Y-44993800D03*
X120675000Y-47533800D03*
G04 #@! TD*
D10*
G04 #@! TO.C,J30*
X115595000Y-37373800D03*
D11*
X115595000Y-39913800D03*
X115595000Y-42453800D03*
X115595000Y-44993800D03*
X115595000Y-47533800D03*
G04 #@! TD*
D10*
G04 #@! TO.C,J36*
X133375000Y-62758800D03*
D11*
X133375000Y-65298800D03*
X133375000Y-67838800D03*
G04 #@! TD*
D10*
G04 #@! TO.C,J21*
X78740000Y-106988200D03*
D11*
X78740000Y-109528200D03*
X78740000Y-112068200D03*
G04 #@! TD*
D10*
G04 #@! TO.C,J16*
X120650000Y-102113800D03*
D11*
X120650000Y-104653800D03*
X120650000Y-107193800D03*
X120650000Y-109733800D03*
X120650000Y-112273800D03*
G04 #@! TD*
D10*
G04 #@! TO.C,J27*
X99060000Y-91440000D03*
D11*
X99060000Y-93980000D03*
X99060000Y-96520000D03*
X99060000Y-99060000D03*
X99060000Y-101600000D03*
X99060000Y-104140000D03*
X99060000Y-106680000D03*
X99060000Y-109220000D03*
X99060000Y-111760000D03*
X99060000Y-114300000D03*
G04 #@! TD*
D10*
G04 #@! TO.C,J40*
X144780000Y-79481200D03*
D11*
X144780000Y-82021200D03*
X144780000Y-84561200D03*
X144780000Y-87101200D03*
X144780000Y-89641200D03*
X144780000Y-92181200D03*
X144780000Y-94721200D03*
G04 #@! TD*
D10*
G04 #@! TO.C,J5*
X56926800Y-81588200D03*
D11*
X56926800Y-84128200D03*
X56926800Y-86668200D03*
X56926800Y-89208200D03*
X56926800Y-91748200D03*
X56926800Y-94288200D03*
X56926800Y-96828200D03*
X56926800Y-99368200D03*
X56926800Y-101908200D03*
X56926800Y-104448200D03*
X56926800Y-106988200D03*
X56926800Y-109528200D03*
X56926800Y-112068200D03*
X56926800Y-114608200D03*
X56926800Y-117148200D03*
G04 #@! TD*
D10*
G04 #@! TO.C,J35*
X133375000Y-39898800D03*
D11*
X133375000Y-42438800D03*
X133375000Y-44978800D03*
G04 #@! TD*
D10*
G04 #@! TO.C,J25*
X67335000Y-106988200D03*
D11*
X67335000Y-109528200D03*
X67335000Y-112068200D03*
X67335000Y-114608200D03*
X67335000Y-117148200D03*
G04 #@! TD*
D10*
G04 #@! TO.C,J4*
X31775000Y-54635000D03*
D11*
X31775000Y-57175000D03*
X31775000Y-59715000D03*
X31775000Y-62255000D03*
X31775000Y-64795000D03*
X31775000Y-67335000D03*
G04 #@! TD*
D10*
G04 #@! TO.C,J15*
X57150000Y-129540000D03*
D11*
X54610000Y-129540000D03*
X52070000Y-129540000D03*
X49530000Y-129540000D03*
X46990000Y-129540000D03*
X44450000Y-129540000D03*
G04 #@! TD*
D10*
G04 #@! TO.C,GND*
X91465000Y-44480000D03*
D11*
X91465000Y-47020000D03*
X91465000Y-49560000D03*
X91465000Y-52100000D03*
X91465000Y-54640000D03*
G04 #@! TD*
D10*
G04 #@! TO.C,J10*
X57150000Y-22860000D03*
D11*
X54610000Y-22860000D03*
G04 #@! TD*
D10*
G04 #@! TO.C,J32*
X115595000Y-60233800D03*
D11*
X115595000Y-62773800D03*
X115595000Y-65313800D03*
X115595000Y-67853800D03*
X115595000Y-70393800D03*
G04 #@! TD*
D10*
G04 #@! TO.C,J9*
X22870000Y-22835000D03*
D11*
X25410000Y-22835000D03*
X27950000Y-22835000D03*
X30490000Y-22835000D03*
G04 #@! TD*
D10*
G04 #@! TO.C,5V*
X78765000Y-44480000D03*
D11*
X78765000Y-47020000D03*
X78765000Y-49560000D03*
X78765000Y-52100000D03*
X78765000Y-54640000D03*
G04 #@! TD*
D10*
G04 #@! TO.C,J31*
X120650000Y-60203800D03*
D11*
X120650000Y-62743800D03*
X120650000Y-65283800D03*
X120650000Y-67823800D03*
X120650000Y-70363800D03*
G04 #@! TD*
D10*
G04 #@! TO.C,J28*
X106680000Y-106805800D03*
D11*
X106680000Y-109345800D03*
X106680000Y-111885800D03*
G04 #@! TD*
D10*
G04 #@! TO.C,J3*
X31526800Y-81588200D03*
D11*
X31526800Y-84128200D03*
X31526800Y-86668200D03*
X31526800Y-89208200D03*
X31526800Y-91748200D03*
X31526800Y-94288200D03*
X31526800Y-96828200D03*
X31526800Y-99368200D03*
X31526800Y-101908200D03*
X31526800Y-104448200D03*
X31526800Y-106988200D03*
X31526800Y-109528200D03*
X31526800Y-112068200D03*
X31526800Y-114608200D03*
X31526800Y-117148200D03*
G04 #@! TD*
D10*
G04 #@! TO.C,J19*
X22885000Y-109528200D03*
D11*
X22885000Y-112068200D03*
G04 #@! TD*
D10*
G04 #@! TO.C,J39*
X144805000Y-58953800D03*
D11*
X144805000Y-61493800D03*
X144805000Y-64033800D03*
X144805000Y-66573800D03*
X144805000Y-69113800D03*
X144805000Y-71653800D03*
X144805000Y-74193800D03*
G04 #@! TD*
D10*
G04 #@! TO.C,J13*
X45720000Y-22860000D03*
D11*
X43180000Y-22860000D03*
G04 #@! TD*
D10*
G04 #@! TO.C,J24*
X67335000Y-86668200D03*
D11*
X67335000Y-89208200D03*
X67335000Y-91748200D03*
G04 #@! TD*
D10*
G04 #@! TO.C,J12*
X80010000Y-22860000D03*
D11*
X77470000Y-22860000D03*
G04 #@! TD*
D10*
G04 #@! TO.C,J1*
X133350000Y-20320000D03*
D11*
X133350000Y-22860000D03*
G04 #@! TD*
D10*
G04 #@! TO.C,J17*
X115595000Y-102113800D03*
D11*
X115595000Y-104653800D03*
X115595000Y-107193800D03*
X115595000Y-109733800D03*
X115595000Y-112273800D03*
G04 #@! TD*
D10*
G04 #@! TO.C,J22*
X135890000Y-105923800D03*
D11*
X135890000Y-108463800D03*
X135890000Y-111003800D03*
G04 #@! TD*
D10*
G04 #@! TO.C,J26*
X144780000Y-102113800D03*
D11*
X144780000Y-104653800D03*
X144780000Y-107193800D03*
X144780000Y-109733800D03*
X144780000Y-112273800D03*
X144780000Y-114813800D03*
X144780000Y-117353800D03*
G04 #@! TD*
D10*
G04 #@! TO.C,J23*
X86360000Y-91440000D03*
D11*
X86360000Y-93980000D03*
X86360000Y-96520000D03*
X86360000Y-99060000D03*
X86360000Y-101600000D03*
X86360000Y-104140000D03*
X86360000Y-106680000D03*
X86360000Y-109220000D03*
X86360000Y-111760000D03*
X86360000Y-114300000D03*
G04 #@! TD*
D10*
G04 #@! TO.C,J14*
X77470000Y-129540000D03*
D11*
X80010000Y-129540000D03*
X82550000Y-129540000D03*
X85090000Y-129540000D03*
G04 #@! TD*
D10*
G04 #@! TO.C,J37*
X133350000Y-83063800D03*
D11*
X133350000Y-85603800D03*
X133350000Y-88143800D03*
G04 #@! TD*
D10*
G04 #@! TO.C,J2*
X111760000Y-20320000D03*
D11*
X111760000Y-22860000D03*
G04 #@! TD*
D10*
G04 #@! TO.C,J38*
X144805000Y-36093800D03*
D11*
X144805000Y-38633800D03*
X144805000Y-41173800D03*
X144805000Y-43713800D03*
X144805000Y-46253800D03*
X144805000Y-48793800D03*
X144805000Y-51333800D03*
G04 #@! TD*
D10*
G04 #@! TO.C,J34*
X115570000Y-80523800D03*
D11*
X115570000Y-83063800D03*
X115570000Y-85603800D03*
X115570000Y-88143800D03*
X115570000Y-90683800D03*
G04 #@! TD*
D10*
G04 #@! TO.C,12V*
X63500000Y-44450000D03*
D11*
X63500000Y-46990000D03*
X63500000Y-49530000D03*
X63500000Y-52070000D03*
X63500000Y-54610000D03*
G04 #@! TD*
D10*
G04 #@! TO.C,J18*
X22885000Y-87146200D03*
D11*
X22885000Y-89686200D03*
X22885000Y-92226200D03*
X22885000Y-94766200D03*
X22885000Y-97306200D03*
G04 #@! TD*
M02*
