M48
INCH,TZ
T1C0.0157
T2C0.0394
%
G90
G05
T1
X13500Y-43000
X13500Y-45500
X14500Y-43000
X15000Y-45421
X29000Y-49750
X29000Y-50250
X29495Y-24505
X30000Y-49750
X30000Y-50250
X30005Y-23995
X30969Y-15020
X31247Y-14742
X31710Y-15766
X31969Y-14020
X32000Y-15500
X32247Y-13742
X32710Y-14766
X33000Y-14500
X33216Y-12773
X33495Y-12495
X33973Y-13529
X34238Y-13238
X38995Y-11495
X39495Y-10995
X40000Y-12000
X40500Y-11500
X41495Y-21005
X41500Y-27500
X43100Y-37900
X44000Y-18500
X44000Y-27500
X44005Y-36495
T2
X9004Y-8990
X9010Y-34310
X9010Y-35310
X9010Y-36310
X9010Y-37310
X9010Y-38310
X9010Y-43121
X9010Y-44121
X10004Y-8990
X11004Y-8990
X12004Y-8990
X12412Y-32121
X12412Y-33121
X12412Y-34121
X12412Y-35121
X12412Y-36121
X12412Y-37121
X12412Y-38121
X12412Y-39121
X12412Y-40121
X12412Y-41121
X12412Y-42121
X12412Y-43121
X12412Y-44121
X12412Y-45121
X12412Y-46121
X12510Y-21510
X12510Y-22510
X12510Y-23510
X12510Y-24510
X12510Y-25510
X12510Y-26510
X17000Y-9000
X17500Y-51000
X18000Y-9000
X18500Y-51000
X19500Y-51000
X20500Y-51000
X21500Y-9000
X21500Y-51000
X22412Y-32121
X22412Y-33121
X22412Y-34121
X22412Y-35121
X22412Y-36121
X22412Y-37121
X22412Y-38121
X22412Y-39121
X22412Y-40121
X22412Y-41121
X22412Y-42121
X22412Y-43121
X22412Y-44121
X22412Y-45121
X22412Y-46121
X22500Y-9000
X22500Y-51000
X25000Y-17500
X25000Y-18500
X25000Y-19500
X25000Y-20500
X25000Y-21500
X26000Y-9000
X26510Y-34121
X26510Y-35121
X26510Y-36121
X26510Y-42121
X26510Y-43121
X26510Y-44121
X26510Y-45121
X26510Y-46121
X27000Y-9000
X30500Y-9000
X30500Y-51000
X31000Y-42121
X31000Y-43121
X31000Y-44121
X31010Y-17512
X31010Y-18512
X31010Y-19512
X31010Y-20512
X31010Y-21512
X31500Y-9000
X31500Y-51000
X32500Y-51000
X33500Y-51000
X34000Y-36000
X34000Y-37000
X34000Y-38000
X34000Y-39000
X34000Y-40000
X34000Y-41000
X34000Y-42000
X34000Y-43000
X34000Y-44000
X34000Y-45000
X36010Y-17512
X36010Y-18512
X36010Y-19512
X36010Y-20512
X36010Y-21512
X39000Y-36000
X39000Y-37000
X39000Y-38000
X39000Y-39000
X39000Y-40000
X39000Y-41000
X39000Y-42000
X39000Y-43000
X39000Y-44000
X39000Y-45000
X42000Y-42050
X42000Y-43050
X42000Y-44050
X44000Y-8000
X44000Y-9000
X45500Y-31702
X45500Y-32702
X45500Y-33702
X45500Y-34702
X45500Y-35702
X45510Y-14714
X45510Y-15714
X45510Y-16714
X45510Y-17714
X45510Y-18714
X45510Y-23714
X45510Y-24714
X45510Y-25714
X45510Y-26714
X45510Y-27714
X45510Y-40202
X45510Y-41202
X45510Y-42202
X45510Y-43202
X45510Y-44202
X47500Y-23702
X47500Y-24702
X47500Y-25702
X47500Y-26702
X47500Y-27702
X47500Y-31702
X47500Y-32702
X47500Y-33702
X47500Y-34702
X47500Y-35702
X47500Y-40202
X47500Y-41202
X47500Y-42202
X47500Y-43202
X47500Y-44202
X47510Y-14714
X47510Y-15714
X47510Y-16714
X47510Y-17714
X47510Y-18714
X51000Y-41702
X51000Y-42702
X51000Y-43702
X52500Y-8000
X52500Y-9000
X52500Y-32702
X52500Y-33702
X52500Y-34702
X52510Y-15708
X52510Y-16708
X52510Y-17708
X52510Y-24708
X52510Y-25708
X52510Y-26708
X53500Y-41702
X53500Y-42702
X53500Y-43702
X57000Y-31292
X57000Y-32292
X57000Y-33292
X57000Y-34292
X57000Y-35292
X57000Y-36292
X57000Y-37292
X57000Y-40202
X57000Y-41202
X57000Y-42202
X57000Y-43202
X57000Y-44202
X57000Y-45202
X57000Y-46202
X57010Y-14210
X57010Y-15210
X57010Y-16210
X57010Y-17210
X57010Y-18210
X57010Y-19210
X57010Y-20210
X57010Y-23210
X57010Y-24210
X57010Y-25210
X57010Y-26210
X57010Y-27210
X57010Y-28210
X57010Y-29210
T0
M30
