<?xml version="1.0" encoding="UTF-8" standalone="no"?>
<!-- Created with Inkscape (http://www.inkscape.org/) -->

<svg
   xmlns:dc="http://purl.org/dc/elements/1.1/"
   xmlns:cc="http://creativecommons.org/ns#"
   xmlns:rdf="http://www.w3.org/1999/02/22-rdf-syntax-ns#"
   xmlns:svg="http://www.w3.org/2000/svg"
   xmlns="http://www.w3.org/2000/svg"
   xmlns:sodipodi="http://sodipodi.sourceforge.net/DTD/sodipodi-0.dtd"
   xmlns:inkscape="http://www.inkscape.org/namespaces/inkscape"
   width="20"
   height="20"
   viewBox="0 0 5.2916665 5.2916665"
   version="1.1"
   id="svg8"
   inkscape:version="0.92.5 (2060ec1f9f, 2020-04-08)"
   sodipodi:docname="settings.svg">
  <defs
     id="defs2" />
  <sodipodi:namedview
     id="base"
     pagecolor="#ffffff"
     bordercolor="#666666"
     borderopacity="1.0"
     inkscape:pageopacity="0.0"
     inkscape:pageshadow="2"
     inkscape:zoom="15.839192"
     inkscape:cx="24.374828"
     inkscape:cy="10.221715"
     inkscape:document-units="mm"
     inkscape:current-layer="layer1"
     showgrid="false"
     inkscape:window-width="1920"
     inkscape:window-height="1017"
     inkscape:window-x="1912"
     inkscape:window-y="-8"
     inkscape:window-maximized="1"
     fit-margin-top="0"
     fit-margin-left="0"
     fit-margin-right="0"
     fit-margin-bottom="0"
     units="px" />
  <metadata
     id="metadata5">
    <rdf:RDF>
      <cc:Work
         rdf:about="">
        <dc:format>image/svg+xml</dc:format>
        <dc:type
           rdf:resource="http://purl.org/dc/dcmitype/StillImage" />
        <dc:title></dc:title>
      </cc:Work>
    </rdf:RDF>
  </metadata>
  <g
     inkscape:label="Layer 1"
     inkscape:groupmode="layer"
     id="layer1"
     transform="translate(-104.7308,-82.268462)">
    <path
       inkscape:connector-curvature="0"
       d="m 107.8539,87.560129 h -0.95555 c -0.1911,0 -0.35122,-0.139458 -0.37447,-0.327985 l -0.0697,-0.488103 c -0.0697,-0.03616 -0.13688,-0.07489 -0.20402,-0.118799 l -0.46487,0.185944 c -0.18078,0.06715 -0.37964,-0.0077 -0.46744,-0.167867 l -0.47261,-0.818671 c -0.0904,-0.170449 -0.0517,-0.371889 0.093,-0.485522 l 0.39513,-0.307325 c -0.003,-0.03874 -0.005,-0.07748 -0.005,-0.118796 0,-0.03874 0.003,-0.08006 0.005,-0.118798 l -0.39254,-0.307326 c -0.15238,-0.116214 -0.19111,-0.325403 -0.0956,-0.485521 l 0.47777,-0.823837 c 0.0879,-0.160119 0.28667,-0.23243 0.46228,-0.162702 l 0.46744,0.188528 c 0.0672,-0.04391 0.13431,-0.08264 0.20144,-0.118798 l 0.0697,-0.493269 c 0.0233,-0.18078 0.18337,-0.32282 0.37189,-0.32282 h 0.95555 c 0.19111,0 0.35123,0.139458 0.37447,0.327985 l 0.0697,0.488104 c 0.0697,0.03616 0.13687,0.0749 0.20402,0.118798 l 0.46485,-0.185945 c 0.18336,-0.06715 0.38222,0.0077 0.47003,0.167867 l 0.47519,0.821254 c 0.0931,0.170449 0.0516,0.371888 -0.0929,0.485522 l -0.39255,0.307324 c 0.003,0.03874 0.005,0.07747 0.005,0.118799 0,0.04132 -0.003,0.08005 -0.005,0.118797 l 0.39255,0.307325 c 0.14462,0.116216 0.18594,0.317655 0.0956,0.480356 l -0.48036,0.831584 c -0.0879,0.160119 -0.28667,0.232431 -0.46487,0.162702 l -0.46486,-0.185944 c -0.0672,0.04391 -0.13428,0.08264 -0.20143,0.118797 l -0.0697,0.493269 c -0.0259,0.175615 -0.18594,0.315073 -0.37705,0.315073 z m -0.83417,-0.516513 h 0.71278 l 0.0956,-0.658552 0.13689,-0.05682 c 0.11363,-0.0465 0.22726,-0.113633 0.34606,-0.20144 l 0.11621,-0.08781 0.61465,0.247926 0.35639,-0.619814 -0.52426,-0.408045 0.0181,-0.144623 c 0.007,-0.06715 0.0155,-0.131711 0.0155,-0.20144 0,-0.06973 -0.007,-0.136876 -0.0155,-0.20144 l -0.0181,-0.144624 0.52426,-0.408043 -0.35897,-0.619815 -0.61724,0.247925 -0.11621,-0.09039 c -0.10847,-0.08264 -0.22468,-0.149789 -0.34348,-0.198857 l -0.1343,-0.05682 -0.0956,-0.658554 h -0.71278 l -0.0956,0.658554 -0.13688,0.05423 c -0.11363,0.04906 -0.22726,0.113633 -0.34606,0.204023 l -0.11621,0.08522 -0.61466,-0.245344 -0.35896,0.617232 0.52425,0.408044 -0.018,0.144625 a 1.8077926,1.8077926 0 0 0 -0.0156,0.204022 c 0,0.06715 0.005,0.136875 0.0156,0.20144 l 0.018,0.144623 -0.52425,0.408044 0.35638,0.619815 0.61724,-0.247926 0.11621,0.09039 c 0.11105,0.08522 0.2221,0.149788 0.34348,0.198858 l 0.13687,0.05682 z"
       id="path877"
       style="fill:#ffffff;stroke-width:0.25825608" />
    <circle
       cx="107.37663"
       cy="84.914299"
       r="0.90389633"
       id="circle879"
       style="fill:#ffffff;stroke-width:0.25825608" />
  </g>
</svg>
