<svg width="16" height="20" viewBox="0 0 16 20" fill="none" xmlns="http://www.w3.org/2000/svg">
<path d="M7 14.5C7 15.0523 7.44772 15.5 8 15.5C8.55228 15.5 9 15.0523 9 14.5L7 14.5ZM8.70711 0.792893C8.31658 0.402369 7.68342 0.402369 7.29289 0.792893L0.928933 7.15685C0.538408 7.54738 0.538408 8.18054 0.928932 8.57107C1.31946 8.96159 1.95262 8.96159 2.34315 8.57107L8 2.91421L13.6569 8.57107C14.0474 8.96159 14.6805 8.96159 15.0711 8.57107C15.4616 8.18054 15.4616 7.54738 15.0711 7.15685L8.70711 0.792893ZM9 14.5L9 1.5L7 1.5L7 14.5L9 14.5Z" fill="white"/>
<line x1="1" y1="18.5" x2="15" y2="18.5" stroke="white" stroke-width="2" stroke-linecap="round"/>
</svg>
