<?xml version="1.0" encoding="UTF-8" standalone="no"?>
<svg
   xmlns:dc="http://purl.org/dc/elements/1.1/"
   xmlns:cc="http://creativecommons.org/ns#"
   xmlns:rdf="http://www.w3.org/1999/02/22-rdf-syntax-ns#"
   xmlns:svg="http://www.w3.org/2000/svg"
   xmlns="http://www.w3.org/2000/svg"
   xmlns:sodipodi="http://sodipodi.sourceforge.net/DTD/sodipodi-0.dtd"
   xmlns:inkscape="http://www.inkscape.org/namespaces/inkscape"
   width="17.121098"
   height="17.121002"
   viewBox="0 0 17.121098 17.121002"
   version="1.1"
   id="svg4763"
   sodipodi:docname="xbutton.svg"
   style="fill:none"
   inkscape:version="0.92.4 (5da689c313, 2019-01-14)">
  <metadata
     id="metadata4769">
    <rdf:RDF>
      <cc:Work
         rdf:about="">
        <dc:format>image/svg+xml</dc:format>
        <dc:type
           rdf:resource="http://purl.org/dc/dcmitype/StillImage" />
        <dc:title></dc:title>
      </cc:Work>
    </rdf:RDF>
  </metadata>
  <defs
     id="defs4767" />
  <sodipodi:namedview
     pagecolor="#ffffff"
     bordercolor="#666666"
     borderopacity="1"
     objecttolerance="10"
     gridtolerance="10"
     guidetolerance="10"
     inkscape:pageopacity="0"
     inkscape:pageshadow="2"
     inkscape:window-width="3000"
     inkscape:window-height="1875"
     id="namedview4765"
     showgrid="false"
     fit-margin-top="0"
     fit-margin-left="0"
     fit-margin-right="0"
     fit-margin-bottom="0"
     inkscape:zoom="68.942911"
     inkscape:cx="5.2701276"
     inkscape:cy="9.8265963"
     inkscape:window-x="-13"
     inkscape:window-y="-13"
     inkscape:window-maximized="1"
     inkscape:current-layer="svg4763" />
  <path
     d="M 2.4335956,1.8857794e-6 C 2.1782844,4.9838578e-4 1.9232425,0.09824564 1.7285175,0.29297064 L 0.29297065,1.7285175 C 0.10495765,1.9165305 -5.1610099e-4,2.1716119 1.899009e-6,2.4375019 5.1889901e-4,2.7033919 0.1081329,2.9572532 0.2968769,3.1445332 L 5.7578144,8.5625019 0.34179878,13.978517 c -0.385689,0.3857 -0.39253588,1.009944 -0.0136719,1.402344 L 1.6679706,16.76758 c 0.18633,0.193 0.4426876,0.302287 0.7109376,0.304687 0.26825,0.0023 0.5271068,-0.101316 0.7167968,-0.291015 l 5.4179688,-5.417969 5.4648432,5.464843 c 0.3905,0.3905 1.023563,0.3905 1.414063,0 l 1.435546,-1.435546 c 0.3905,-0.3905 0.3905,-1.023463 0,-1.414063 l -5.46289,-5.4628901 5.460937,-5.4179687 c 0.1888,-0.18728 0.294422,-0.4430944 0.294922,-0.7089844 5e-4,-0.26589 -0.104969,-0.5209694 -0.292969,-0.7089844 L 15.441408,0.29297064 c -0.3905,-0.390524 -1.023563,-0.390524 -1.414063,0 L 8.6054706,5.7148456 3.1406269,0.29101751 C 2.9451469,0.09705152 2.6889069,-4.9461422e-4 2.4335956,1.8857794e-6 Z"
     id="path4761"
     style="fill:#ffffff;fill-opacity:1"
     inkscape:connector-curvature="0"
     sodipodi:nodetypes="ssscccccccccssscccscccccs" />
</svg>
