M48
INCH,TZ
T1C0.0157
T2C0.0295
T3C0.0394
T4C0.0598
T5C0.1339
%
G90
G05
T1
X13500Y-43000
X13500Y-45500
X14250Y-33500
X14500Y-43000
X14702Y-33952
X15000Y-45421
X18000Y-29300
X18000Y-31000
X18500Y-29300
X18500Y-31000
X19500Y-13200
X19500Y-14800
X24639Y-49755
X24639Y-50250
X25361Y-49755
X25361Y-50250
X33500Y-48900
X34000Y-46965
X36900Y-34600
X38000Y-34600
X38500Y-23800
X40100Y-31100
X40100Y-34500
X40500Y-19700
X41000Y-35100
X41400Y-32500
X42000Y-27100
X43200Y-24900
X43800Y-34400
X43800Y-36700
X47750Y-41000
X47750Y-44500
X53000Y-41000
X53000Y-44500
T2
X51750Y-18300
X51750Y-18800
X51750Y-19300
X51750Y-24000
X51750Y-24500
X51750Y-25000
X51750Y-33250
X51750Y-33750
X51750Y-34250
X51750Y-36750
X51750Y-37250
X51750Y-37750
T3
X9010Y-34310
X9010Y-35310
X9010Y-36310
X9010Y-37310
X9010Y-38310
X9010Y-43121
X9010Y-44121
X12412Y-32121
X12412Y-33121
X12412Y-34121
X12412Y-35121
X12412Y-36121
X12412Y-37121
X12412Y-38121
X12412Y-39121
X12412Y-40121
X12412Y-41121
X12412Y-42121
X12412Y-43121
X12412Y-44121
X12412Y-45121
X12412Y-46121
X22412Y-32121
X22412Y-33121
X22412Y-34121
X22412Y-35121
X22412Y-36121
X22412Y-37121
X22412Y-38121
X22412Y-39121
X22412Y-40121
X22412Y-41121
X22412Y-42121
X22412Y-43121
X22412Y-44121
X22412Y-45121
X22412Y-46121
X25750Y-42100
X25750Y-43100
X25750Y-44100
X25750Y-45100
X25750Y-46100
X27000Y-25000
X27000Y-26000
X27000Y-27000
X27000Y-28000
X27000Y-29000
X27000Y-30000
X31000Y-42121
X31000Y-43121
X31000Y-44121
X34000Y-36000
X34000Y-37000
X34000Y-38000
X34000Y-39000
X34000Y-40000
X34000Y-41000
X34000Y-42000
X34000Y-43000
X34000Y-44000
X34000Y-45000
X39000Y-36000
X39000Y-37000
X39000Y-38000
X39000Y-39000
X39000Y-40000
X39000Y-41000
X39000Y-42000
X39000Y-43000
X39000Y-44000
X39000Y-45000
X42000Y-12800
X42000Y-42050
X42000Y-43050
X42000Y-44050
X43000Y-12800
X44000Y-12800
X45000Y-12800
X45700Y-15300
X46000Y-12800
X46700Y-15300
X47700Y-15300
X48700Y-15300
X49300Y-12800
X49700Y-15300
X50300Y-12800
X51300Y-12800
X52300Y-12800
X53010Y-47512
X53010Y-48512
X53010Y-49512
X53010Y-50512
X53010Y-51512
X53300Y-12800
X55000Y-47500
X55000Y-48500
X55000Y-49500
X55000Y-50500
X55000Y-51500
X57000Y-12500
X57000Y-13500
X57000Y-14500
X57000Y-15500
X57000Y-16500
X57000Y-17500
X57000Y-18500
X57000Y-21000
X57000Y-22000
X57000Y-23000
X57000Y-24000
X57000Y-25000
X57000Y-26000
X57000Y-27000
X57000Y-29500
X57000Y-30500
X57000Y-31500
X57000Y-32500
X57000Y-33500
X57000Y-34500
X57000Y-35500
X57000Y-38000
X57000Y-39000
X57000Y-40000
X57000Y-41000
X57000Y-42000
X57000Y-43000
X57000Y-44000
T4
X12000Y-9750
X13000Y-50750
X14000Y-9750
X15000Y-50750
X16000Y-9750
X17000Y-50750
X18000Y-9750
X19000Y-50750
X21000Y-9750
X21000Y-50750
X23000Y-9750
X23000Y-50750
X26000Y-9750
X28000Y-9750
X28000Y-50750
X30000Y-50750
X31000Y-9750
X32000Y-50750
X33000Y-9750
X34000Y-50750
X36000Y-9750
X38000Y-9750
X38500Y-50750
X40500Y-50750
X42500Y-50750
X44500Y-50750
X45000Y-8250
X45000Y-10250
X46500Y-50750
X54500Y-8250
X54500Y-10250
T5
X9000Y-9000
X9000Y-51000
X62500Y-9000
X62500Y-51000
T0
M30
