G04 #@! TF.GenerationSoftware,KiCad,Pcbnew,(6.0.7)*
G04 #@! TF.CreationDate,2023-03-22T16:34:50-04:00*
G04 #@! TF.ProjectId,IR FANS LED board,49522046-414e-4532-904c-454420626f61,rev?*
G04 #@! TF.SameCoordinates,Original*
G04 #@! TF.FileFunction,Copper,L1,Top*
G04 #@! TF.FilePolarity,Positive*
%FSLAX46Y46*%
G04 Gerber Fmt 4.6, Leading zero omitted, Abs format (unit mm)*
G04 Created by KiCad (PCBNEW (6.0.7)) date 2023-03-22 16:34:50*
%MOMM*%
%LPD*%
G01*
G04 APERTURE LIST*
%ADD10C,0.300000*%
G04 #@! TA.AperFunction,NonConductor*
%ADD11C,0.300000*%
G04 #@! TD*
G04 #@! TA.AperFunction,ComponentPad*
%ADD12R,3.000000X3.000000*%
G04 #@! TD*
G04 #@! TA.AperFunction,ComponentPad*
%ADD13C,3.000000*%
G04 #@! TD*
G04 #@! TA.AperFunction,ComponentPad*
%ADD14R,1.700000X1.700000*%
G04 #@! TD*
G04 #@! TA.AperFunction,ComponentPad*
%ADD15O,1.700000X1.700000*%
G04 #@! TD*
G04 #@! TA.AperFunction,ViaPad*
%ADD16C,5.000000*%
G04 #@! TD*
G04 #@! TA.AperFunction,Conductor*
%ADD17C,0.635000*%
G04 #@! TD*
G04 APERTURE END LIST*
D10*
D11*
X182177714Y-40580571D02*
X182463428Y-40580571D01*
X182606285Y-40652000D01*
X182749142Y-40794857D01*
X182820571Y-41080571D01*
X182820571Y-41580571D01*
X182749142Y-41866285D01*
X182606285Y-42009142D01*
X182463428Y-42080571D01*
X182177714Y-42080571D01*
X182034857Y-42009142D01*
X181892000Y-41866285D01*
X181820571Y-41580571D01*
X181820571Y-41080571D01*
X181892000Y-40794857D01*
X182034857Y-40652000D01*
X182177714Y-40580571D01*
X183892000Y-40580571D02*
X183892000Y-41652000D01*
X183820571Y-41866285D01*
X183677714Y-42009142D01*
X183463428Y-42080571D01*
X183320571Y-42080571D01*
X185106285Y-41294857D02*
X185320571Y-41366285D01*
X185392000Y-41437714D01*
X185463428Y-41580571D01*
X185463428Y-41794857D01*
X185392000Y-41937714D01*
X185320571Y-42009142D01*
X185177714Y-42080571D01*
X184606285Y-42080571D01*
X184606285Y-40580571D01*
X185106285Y-40580571D01*
X185249142Y-40652000D01*
X185320571Y-40723428D01*
X185392000Y-40866285D01*
X185392000Y-41009142D01*
X185320571Y-41152000D01*
X185249142Y-41223428D01*
X185106285Y-41294857D01*
X184606285Y-41294857D01*
D12*
G04 #@! TO.P,J4,1,Pin_1*
G04 #@! TO.N,/HV5*
X187960000Y-27305000D03*
D13*
G04 #@! TO.P,J4,2,Pin_2*
G04 #@! TO.N,/X*
X182880000Y-27305000D03*
G04 #@! TO.P,J4,3,Pin_3*
G04 #@! TO.N,/12V*
X177800000Y-27305000D03*
G04 #@! TO.P,J4,4,Pin_4*
G04 #@! TO.N,/GND*
X172720000Y-27305000D03*
G04 #@! TD*
D12*
G04 #@! TO.P,J3,1,Pin_1*
G04 #@! TO.N,/IR LED-*
X131445000Y-40005000D03*
D13*
G04 #@! TO.P,J3,2,Pin_2*
G04 #@! TO.N,/IR LED+*
X136525000Y-40005000D03*
G04 #@! TD*
D14*
G04 #@! TO.P,J8,1,Pin_1*
G04 #@! TO.N,/HV5*
X199390000Y-43180000D03*
D15*
G04 #@! TO.P,J8,2,Pin_2*
G04 #@! TO.N,/X*
X199390000Y-40640000D03*
G04 #@! TO.P,J8,3,Pin_3*
G04 #@! TO.N,/12V*
X199390000Y-38100000D03*
G04 #@! TO.P,J8,4,Pin_4*
G04 #@! TO.N,/GND*
X199390000Y-35560000D03*
G04 #@! TD*
D12*
G04 #@! TO.P,J5,1,Pin_1*
G04 #@! TO.N,/IR LED-*
X166370000Y-40005000D03*
D13*
G04 #@! TO.P,J5,2,Pin_2*
G04 #@! TO.N,/IR LED+*
X171450000Y-40005000D03*
G04 #@! TD*
D14*
G04 #@! TO.P,J9,1,Pin_1*
G04 #@! TO.N,/HV5*
X69850000Y-43180000D03*
D15*
G04 #@! TO.P,J9,2,Pin_2*
G04 #@! TO.N,/X*
X69850000Y-40640000D03*
G04 #@! TO.P,J9,3,Pin_3*
G04 #@! TO.N,/12V*
X69850000Y-38100000D03*
G04 #@! TO.P,J9,4,Pin_4*
G04 #@! TO.N,/GND*
X69850000Y-35560000D03*
G04 #@! TD*
D12*
G04 #@! TO.P,J7,1,Pin_1*
G04 #@! TO.N,/IR LED-*
X100330000Y-40005000D03*
D13*
G04 #@! TO.P,J7,2,Pin_2*
G04 #@! TO.N,/IR LED+*
X105410000Y-40005000D03*
G04 #@! TD*
D14*
G04 #@! TO.P,J2,1,Pin_1*
G04 #@! TO.N,/HV5*
X69850000Y-21336000D03*
D15*
G04 #@! TO.P,J2,2,Pin_2*
G04 #@! TO.N,/X*
X69850000Y-23876000D03*
G04 #@! TO.P,J2,3,Pin_3*
G04 #@! TO.N,/12V*
X69850000Y-26416000D03*
G04 #@! TO.P,J2,4,Pin_4*
G04 #@! TO.N,/GND*
X69850000Y-28956000D03*
G04 #@! TD*
D14*
G04 #@! TO.P,J1,1,Pin_1*
G04 #@! TO.N,/HV5*
X199390000Y-21803200D03*
D15*
G04 #@! TO.P,J1,2,Pin_2*
G04 #@! TO.N,/X*
X199390000Y-24343200D03*
G04 #@! TO.P,J1,3,Pin_3*
G04 #@! TO.N,/12V*
X199390000Y-26883200D03*
G04 #@! TO.P,J1,4,Pin_4*
G04 #@! TO.N,/GND*
X199390000Y-29423200D03*
G04 #@! TD*
D12*
G04 #@! TO.P,J6,1,Pin_1*
G04 #@! TO.N,/IR LED-*
X163195000Y-27305000D03*
D13*
G04 #@! TO.P,J6,2,Pin_2*
G04 #@! TO.N,/IR LED+*
X158115000Y-27305000D03*
G04 #@! TD*
D16*
G04 #@! TO.N,/GND*
X204470000Y-21590000D03*
X204470000Y-43180000D03*
X63500000Y-43180000D03*
X63500000Y-21590000D03*
G04 #@! TD*
D17*
G04 #@! TO.N,/HV5*
X64262000Y-38100000D02*
X64262000Y-25908000D01*
X180340000Y-19685000D02*
X187960000Y-27305000D01*
X199390000Y-21803200D02*
X199176800Y-21590000D01*
X199176800Y-21590000D02*
X193040000Y-21590000D01*
X187960000Y-26670000D02*
X187960000Y-27305000D01*
X71501000Y-19685000D02*
X180340000Y-19685000D01*
X193040000Y-21590000D02*
X187960000Y-26670000D01*
X69850000Y-43180000D02*
X69342000Y-43180000D01*
X68834000Y-21336000D02*
X69850000Y-21336000D01*
X204978000Y-37592000D02*
X199390000Y-43180000D01*
X69850000Y-21336000D02*
X71501000Y-19685000D01*
X64262000Y-25908000D02*
X68834000Y-21336000D01*
X69342000Y-43180000D02*
X64262000Y-38100000D01*
X199390000Y-21803200D02*
X204978000Y-27391200D01*
X204978000Y-27391200D02*
X204978000Y-37592000D01*
G04 #@! TO.N,/X*
X69088000Y-40640000D02*
X69850000Y-40640000D01*
X203200000Y-27940000D02*
X203200000Y-36830000D01*
X199390000Y-24343200D02*
X199603200Y-24343200D01*
X68707000Y-23876000D02*
X65786000Y-26797000D01*
X72771000Y-20955000D02*
X178435000Y-20955000D01*
X65786000Y-26797000D02*
X65786000Y-37338000D01*
X196636800Y-24343200D02*
X199390000Y-24343200D01*
X190500000Y-30480000D02*
X196636800Y-24343200D01*
X182880000Y-27305000D02*
X182880000Y-27940000D01*
X185420000Y-30480000D02*
X190500000Y-30480000D01*
X178435000Y-20955000D02*
X182880000Y-25400000D01*
X65786000Y-37338000D02*
X69088000Y-40640000D01*
X69850000Y-23876000D02*
X68707000Y-23876000D01*
X182880000Y-25400000D02*
X182880000Y-27305000D01*
X199603200Y-24343200D02*
X203200000Y-27940000D01*
X203200000Y-36830000D02*
X199390000Y-40640000D01*
X69850000Y-23876000D02*
X72771000Y-20955000D01*
X182880000Y-27940000D02*
X185420000Y-30480000D01*
G04 #@! TO.N,/12V*
X199603200Y-26883200D02*
X201422000Y-28702000D01*
X77089000Y-22225000D02*
X172720000Y-22225000D01*
X69850000Y-26416000D02*
X68580000Y-26416000D01*
X201422000Y-28702000D02*
X201422000Y-36068000D01*
X67310000Y-27686000D02*
X67310000Y-36830000D01*
X199390000Y-26883200D02*
X199603200Y-26883200D01*
X72898000Y-26416000D02*
X77089000Y-22225000D01*
X179070000Y-27940000D02*
X182880000Y-31750000D01*
X172720000Y-22225000D02*
X177800000Y-27305000D01*
X182880000Y-31750000D02*
X191770000Y-31750000D01*
X177800000Y-27305000D02*
X178435000Y-27940000D01*
X68580000Y-26416000D02*
X67310000Y-27686000D01*
X196636800Y-26883200D02*
X199390000Y-26883200D01*
X68580000Y-38100000D02*
X69850000Y-38100000D01*
X67310000Y-36830000D02*
X68580000Y-38100000D01*
X178435000Y-27940000D02*
X179070000Y-27940000D01*
X201422000Y-36068000D02*
X199390000Y-38100000D01*
X69850000Y-26416000D02*
X72898000Y-26416000D01*
X191770000Y-31750000D02*
X196636800Y-26883200D01*
G04 #@! TO.N,/GND*
X63500000Y-21590000D02*
X62484000Y-22606000D01*
X196636800Y-29423200D02*
X199390000Y-29423200D01*
X198374000Y-45466000D02*
X202184000Y-45466000D01*
X71120000Y-45720000D02*
X72644000Y-44196000D01*
X172720000Y-25400000D02*
X172720000Y-27305000D01*
X204470000Y-21590000D02*
X206756000Y-23876000D01*
X198628000Y-35560000D02*
X196850000Y-37338000D01*
X72644000Y-44196000D02*
X72644000Y-37084000D01*
X173355000Y-27940000D02*
X173990000Y-27940000D01*
X62484000Y-22606000D02*
X62484000Y-42164000D01*
X196850000Y-43942000D02*
X198374000Y-45466000D01*
X206756000Y-23876000D02*
X206756000Y-40894000D01*
X170815000Y-23495000D02*
X172720000Y-25400000D01*
X79375000Y-23495000D02*
X170815000Y-23495000D01*
X69850000Y-28956000D02*
X69850000Y-35560000D01*
X72644000Y-37084000D02*
X71120000Y-35560000D01*
X172720000Y-27305000D02*
X173355000Y-27940000D01*
X179070000Y-33020000D02*
X193040000Y-33020000D01*
X199390000Y-29423200D02*
X199390000Y-35560000D01*
X62484000Y-42164000D02*
X63500000Y-43180000D01*
X206756000Y-40894000D02*
X204470000Y-43180000D01*
X196850000Y-37338000D02*
X196850000Y-43942000D01*
X202184000Y-45466000D02*
X204015684Y-43634316D01*
X71120000Y-35560000D02*
X69850000Y-35560000D01*
X63500000Y-43180000D02*
X66040000Y-45720000D01*
X69850000Y-28956000D02*
X73914000Y-28956000D01*
X66040000Y-45720000D02*
X71120000Y-45720000D01*
X73914000Y-28956000D02*
X79375000Y-23495000D01*
X193040000Y-33020000D02*
X196636800Y-29423200D01*
X173990000Y-27940000D02*
X179070000Y-33020000D01*
X199390000Y-35560000D02*
X198628000Y-35560000D01*
G04 #@! TO.N,/IR LED-*
X130810000Y-40005000D02*
X131445000Y-40005000D01*
X164465000Y-35560000D02*
X158750000Y-35560000D01*
X156845000Y-24765000D02*
X161925000Y-24765000D01*
X154940000Y-31750000D02*
X154940000Y-26670000D01*
X100330000Y-40005000D02*
X100330000Y-38735000D01*
X163195000Y-26035000D02*
X163195000Y-27305000D01*
X100330000Y-38735000D02*
X101600000Y-37465000D01*
X163830000Y-37465000D02*
X166370000Y-40005000D01*
X101600000Y-37465000D02*
X128270000Y-37465000D01*
X131445000Y-40005000D02*
X132080000Y-40005000D01*
X161925000Y-24765000D02*
X163195000Y-26035000D01*
X154940000Y-26670000D02*
X156845000Y-24765000D01*
X158750000Y-35560000D02*
X154940000Y-31750000D01*
X128270000Y-37465000D02*
X130810000Y-40005000D01*
X134620000Y-37465000D02*
X163830000Y-37465000D01*
X166370000Y-37465000D02*
X164465000Y-35560000D01*
X132080000Y-40005000D02*
X134620000Y-37465000D01*
X166370000Y-40005000D02*
X166370000Y-37465000D01*
G04 #@! TO.N,/IR LED+*
X171450000Y-39370000D02*
X159385000Y-27305000D01*
X159385000Y-27305000D02*
X158115000Y-27305000D01*
X168275000Y-44450000D02*
X171450000Y-41275000D01*
X136525000Y-42545000D02*
X134620000Y-44450000D01*
X136525000Y-40005000D02*
X140970000Y-44450000D01*
X171450000Y-41275000D02*
X171450000Y-40005000D01*
X134620000Y-44450000D02*
X107950000Y-44450000D01*
X107950000Y-44450000D02*
X105410000Y-41910000D01*
X105410000Y-41910000D02*
X105410000Y-40005000D01*
X171450000Y-40005000D02*
X171450000Y-39370000D01*
X136525000Y-40005000D02*
X136525000Y-42545000D01*
X140970000Y-44450000D02*
X168275000Y-44450000D01*
G04 #@! TD*
M02*
