M48
INCH,TZ
T1C0.0394
T2C0.0598
T3C0.1339
%
G90
G05
T1
X27500Y-8400
X27500Y-9400
X27500Y-10400
X27500Y-11400
X27500Y-14000
X27500Y-15000
X27500Y-16000
X27500Y-17000
X78500Y-8584
X78500Y-9584
X78500Y-10584
X78500Y-11584
X78500Y-14000
X78500Y-15000
X78500Y-16000
X78500Y-17000
T2
X39500Y-15750
X41500Y-15750
X51750Y-15750
X53750Y-15750
X62250Y-10750
X64250Y-10750
X65500Y-15750
X67500Y-15750
X68000Y-10750
X70000Y-10750
X72000Y-10750
X74000Y-10750
T3
X25000Y-8500
X25000Y-17000
X80500Y-8500
X80500Y-17000
T0
M30
